<?xml version="1.0" encoding="UTF-8" standalone="no"?>
<!-- Created with Inkscape (http://www.inkscape.org/) -->

<svg
   xmlns:dc="http://purl.org/dc/elements/1.1/"
   xmlns:cc="http://creativecommons.org/ns#"
   xmlns:rdf="http://www.w3.org/1999/02/22-rdf-syntax-ns#"
   xmlns:svg="http://www.w3.org/2000/svg"
   xmlns="http://www.w3.org/2000/svg"
   xmlns:sodipodi="http://sodipodi.sourceforge.net/DTD/sodipodi-0.dtd"
   xmlns:inkscape="http://www.inkscape.org/namespaces/inkscape"
   width="600mm"
   height="300mm"
   viewBox="0 0 2125.9843 1062.9921"
   id="svg2"
   version="1.1"
   inkscape:version="0.91 r13725"
   sodipodi:docname="white-5mm.svg">
  <defs
     id="defs4" />
  <sodipodi:namedview
     id="base"
     pagecolor="#ffffff"
     bordercolor="#666666"
     borderopacity="1.0"
     inkscape:pageopacity="0.0"
     inkscape:pageshadow="2"
     inkscape:zoom="0.7"
     inkscape:cx="930.3183"
     inkscape:cy="687.17992"
     inkscape:document-units="mm"
     inkscape:current-layer="layer1"
     showgrid="false"
     inkscape:window-width="2092"
     inkscape:window-height="833"
     inkscape:window-x="218"
     inkscape:window-y="156"
     inkscape:window-maximized="0" />
  <metadata
     id="metadata7">
    <rdf:RDF>
      <cc:Work
         rdf:about="">
        <dc:format>image/svg+xml</dc:format>
        <dc:type
           rdf:resource="http://purl.org/dc/dcmitype/StillImage" />
        <dc:title />
      </cc:Work>
    </rdf:RDF>
  </metadata>
  <g
     inkscape:label="Laag 1"
     inkscape:groupmode="layer"
     id="layer1"
     transform="translate(0,10.629923)">
    <path
       inkscape:connector-curvature="0"
       id="face0-cut"
       style="fill:none;stroke:#ff0000;stroke-width:0.35433072;stroke-linecap:round;stroke-linejoin:round;stroke-miterlimit:4;stroke-dasharray:none"
       d="m 18.932642,5.5805008 0,630.7087292 630.708768,0 0,-630.7087292 -630.708768,0 m 595.275668,42.8740302 -1.9259,-0.25356 -1.7946,-0.74336 -1.541,-1.1825 -1.1825,-1.54107 -0.7434,-1.79461 -0.2537,-1.92586 0.2537,-1.92586 0.7434,-1.79461 1.1825,-1.54107 1.541,-1.1825 1.7946,-0.74335 1.9259,-0.25354 1.9259,0.25354 1.7946,0.74335 1.541,1.18251 1.1825,1.54107 0.7434,1.79461 0.2537,1.92586 -0.2537,1.92586 -0.7434,1.79462 -1.1825,1.54106 -1.541,1.18251 -1.7946,0.74335 -1.9259,0.25355 m -6.444,556.122099 -0.7434,-1.7946 -0.2535,-1.9259 0.2537,-1.9258 0.7433,-1.7946 1.1825,-1.5411 1.5411,-1.1825 1.7946,-0.7433 1.9257,-0.2536 1.9259,0.2537 1.7946,0.7433 1.541,1.1826 1.1825,1.541 0.7434,1.7946 0.2535,1.9257 -0.2537,1.9259 -0.7433,1.7946 -1.1825,1.5411 -1.5411,1.1825 -1.7946,0.7434 -1.9257,0.2535 -1.9259,-0.2537 -1.7946,-0.7434 -1.541,-1.1825 -1.1825,-1.5411 m -553.398598,-11.1614 1.92586,0.2537 1.79462,0.7434 1.54107,1.1825 1.1825,1.541 0.74336,1.7946 0.25356,1.9259 -0.25356,1.9259 -0.74336,1.7946 -1.1825,1.541 -1.54107,1.1825 -1.79462,0.7434 -1.92586,0.2537 -1.92586,-0.2537 -1.79461,-0.7433 -1.54107,-1.1825 -1.1825,-1.5411 -0.74336,-1.7946 -0.25354,-1.9259 0.25354,-1.9258 0.74336,-1.7946 1.1825,-1.5411 1.54107,-1.1825 1.79461,-0.7433 1.92586,-0.2538 m 0,-544.960639 -1.92586,-0.25356 -1.79461,-0.74336 -1.54107,-1.1825 -1.1825,-1.54107 -0.74336,-1.79462 -0.25354,-1.92585 0.25354,-1.92586 0.74336,-1.79462 1.1825,-1.54107 1.54107,-1.1825 1.79461,-0.74336 1.92586,-0.25354 1.92586,0.25354 1.79462,0.74336 1.54107,1.1825 1.1825,1.54107 0.74336,1.79462 0.25356,1.92586 -0.25356,1.92585 -0.74336,1.79462 -1.1825,1.54107 -1.54107,1.1825 -1.79462,0.74336 -1.92586,0.25356 m 65.551188,511.653739 0,17.7165 -17.71653,0 0,-17.7165 17.71653,0 m 131.10241,-31.8898 0,-17.7165 17.7165,0 0,17.7165 -17.7165,0 m -7.0866,24.8032 -17.7166,0 0,-17.7166 17.7166,0 0,17.7166 m -67.3229,-49.6063 0,-17.7166 17.7166,0 0,17.7166 -17.7166,0 m 173.6221,24.8031 0,-17.7165 17.7165,0 0,17.7165 -17.7165,0 m -148.8189,-42.5197 17.7165,0 0,17.7166 -17.7165,0 0,-17.7166 m 17.7165,74.4095 0,17.7165 -17.7165,0 0,-17.7165 17.7165,0 m -124.015748,-24.8032 0,17.7166 -17.71654,0 0,-17.7166 17.71654,0 m 99.212648,0 0,17.7166 -17.7166,0 0,-17.7166 17.7166,0 m 74.4094,42.5197 -17.7165,0 0,-17.7165 17.7165,0 0,17.7165 m -24.8031,0 -17.7166,0 0,-17.7165 17.7166,0 0,17.7165 m -99.21265,-74.4094 -17.71654,0 0,-17.7166 17.71654,0 0,17.7166 m 329.52755,7.0866 17.7166,0 0,17.7165 -17.7166,0 0,-17.7165 m 24.8032,17.7165 0,-17.7165 17.7165,0 0,17.7165 -17.7165,0 m -248.0315,-42.5197 17.7165,0 0,17.7166 -17.7165,0 0,-17.7166 m 315.3544,92.126 -17.7166,0 0,-17.7165 17.7166,0 0,17.7165 m -389.7639,-67.3228 17.7166,0 0,17.7165 -17.7166,0 0,-17.7165 m 24.8032,17.7165 0,-17.7165 17.7165,0 0,17.7165 -17.7165,0 m 0,24.8032 0,-17.7166 17.7165,0 0,17.7166 -17.7165,0 m 347.2441,-67.3229 17.7166,0 0,17.7166 -17.7166,0 0,-17.7166 m -322.441,42.5197 0,-17.7165 17.7166,0 0,17.7165 -17.7166,0 m 265.7481,31.8898 0,17.7165 -17.7166,0 0,-17.7165 17.7166,0 m -17.7166,-56.6929 0,-17.7166 17.7166,0 0,17.7166 -17.7166,0 m 99.2127,-17.7166 17.7165,0 0,17.7166 -17.7165,0 0,-17.7166 m 17.7165,67.3229 -17.7165,0 0,-17.7166 17.7165,0 0,17.7166 m -42.5197,-24.8032 0,-17.7165 17.7166,0 0,17.7165 -17.7166,0 m -7.0866,49.6063 -17.7165,0 0,-17.7165 17.7165,0 0,17.7165 m -347.2441,-17.7165 0,17.7165 -17.7166,0 0,-17.7165 17.7166,0 m 347.2441,-7.0866 -17.7165,0 0,-17.7166 17.7165,0 0,17.7166 m 0,-49.6063 -17.7165,0 0,-17.7166 17.7165,0 0,17.7166 m -24.8032,56.6929 0,17.7165 -17.7165,0 0,-17.7165 17.7165,0 m -17.7165,-74.4095 17.7165,0 0,17.7166 -17.7165,0 0,-17.7166 m -230.315,67.3229 -17.7165,0 0,-17.7166 17.7165,0 0,17.7166 m 230.315,0 0,-17.7166 17.7165,0 0,17.7166 -17.7165,0 m -255.1181,-49.6063 -17.7166,0 0,-17.7166 17.7166,0 0,17.7166 m 347.2441,74.4094 -17.7165,0 0,-17.7165 17.7165,0 0,17.7165 m -17.7165,-49.6063 0,-17.7165 17.7165,0 0,17.7165 -17.7165,0 m -81.4961,7.0866 0,17.7166 -17.7166,0 0,-17.7166 17.7166,0 m 74.4095,17.7166 -17.7166,0 0,-17.7166 17.7166,0 0,17.7166 m -42.5197,-24.8032 0,-17.7165 17.7165,0 0,17.7165 -17.7165,0 m -421.65364,24.8032 0,-17.7166 17.71653,0 0,17.7166 -17.71653,0 m 49.60631,-67.3229 17.71653,0 0,17.7166 -17.71653,0 0,-17.7166 m 17.71653,67.3229 -17.71653,0 0,-17.7166 17.71653,0 0,17.7166 m 205.5118,-42.5197 17.7166,0 0,17.7165 -17.7166,0 0,-17.7165 m 17.7166,49.6063 0,17.7165 -17.7166,0 0,-17.7165 17.7166,0 m 56.6929,-31.8898 0,-17.7165 17.7165,0 0,17.7165 -17.7165,0 m -7.0866,-24.8031 -17.7166,0 0,-17.7166 17.7166,0 0,17.7166 m -24.8032,56.6929 0,17.7165 -17.7165,0 0,-17.7165 17.7165,0 m -49.6063,-7.0866 -17.7165,0 0,-17.7166 17.7165,0 0,17.7166 m 31.8898,-24.8032 0,-17.7165 17.7165,0 0,17.7165 -17.7165,0 m -124.0158,-24.8031 0,-17.7166 17.7166,0 0,17.7166 -17.7166,0 m -198.425188,7.0866 17.71654,0 0,17.7165 -17.71654,0 0,-17.7165 m 223.228388,-24.8032 17.7165,0 0,17.7166 -17.7165,0 0,-17.7166 m 99.2126,67.3229 0,-17.7166 17.7165,0 0,17.7166 -17.7165,0 m -56.6929,-49.6063 -17.7166,0 0,-17.7166 17.7166,0 0,17.7166 m 0,49.6063 -17.7166,0 0,-17.7166 17.7166,0 0,17.7166 m -265.748088,-49.6063 0,-17.7166 17.71654,0 0,17.7166 -17.71654,0 m 265.748088,74.4094 -17.7166,0 0,-17.7165 17.7166,0 0,17.7165 m -173.6221,0 -17.71653,0 0,-17.7165 17.71653,0 0,17.7165 m 297.6378,-24.8031 -17.7165,0 0,-17.7166 17.7165,0 0,17.7166 m -148.8189,7.0866 0,17.7165 -17.7165,0 0,-17.7165 17.7165,0 m -24.8031,0 0,17.7165 -17.7166,0 0,-17.7165 17.7166,0 m -191.33864,-74.4095 17.71653,0 0,17.7166 -17.71653,0 0,-17.7166 m 198.42524,67.3229 0,-17.7166 17.7165,0 0,17.7166 -17.7165,0 m 92.126,-17.7166 0,17.7166 -17.7166,0 0,-17.7166 17.7166,0 m -42.5197,-49.6063 17.7165,0 0,17.7166 -17.7165,0 0,-17.7166 m 116.9291,92.126 -17.7165,0 0,-17.7165 17.7165,0 0,17.7165 m -67.3228,-92.126 17.7165,0 0,17.7166 -17.7165,0 0,-17.7166 m 42.5197,92.126 -17.7166,0 0,-17.7165 17.7166,0 0,17.7165 m -166.5355,-67.3228 17.7166,0 0,17.7165 -17.7166,0 0,-17.7165 m -124.01573,17.7165 0,-17.7165 17.71653,0 0,17.7165 -17.71653,0 m -56.692918,31.8898 0,17.7165 -17.71654,0 0,-17.7165 17.71654,0 m 279.921248,-56.6929 0,-17.7166 17.7166,0 0,17.7166 -17.7166,0 m -74.4094,24.8031 0,-17.7165 17.7165,0 0,17.7165 -17.7165,0 m -155.90555,24.8032 -17.71654,0 0,-17.7166 17.71654,0 0,17.7166 m 180.70865,-24.8032 0,-17.7165 17.7166,0 0,17.7165 -17.7166,0 m -31.8897,7.0866 0,17.7166 -17.7166,0 0,-17.7166 17.7166,0 m 74.4094,42.5197 -17.7165,0 0,-17.7165 17.7165,0 0,17.7165 m -265.74804,-49.6063 0,-17.7165 17.71653,0 0,17.7165 -17.71653,0 m 24.80315,0 0,-17.7165 17.71654,0 0,17.7165 -17.71654,0 m 315.35439,24.8032 -17.7166,0 0,-17.7166 17.7166,0 0,17.7166 m -17.7166,-24.8032 0,-17.7165 17.7166,0 0,17.7165 -17.7166,0 m 24.8032,-42.5197 17.7165,0 0,17.7166 -17.7165,0 0,-17.7166 m -304.72445,92.126 -17.71654,0 0,-17.7165 17.71654,0 0,17.7165 m 24.80315,-99.2126 -17.71653,0 0,-17.7165 17.71653,0 0,17.7165 m -24.80315,0 -17.71654,0 0,-17.7165 17.71654,0 0,17.7165 m -24.80316,0 -17.71653,0 0,-17.7165 17.71653,0 0,17.7165 m -24.803138,0 -17.71654,0 0,-17.7165 17.71654,0 0,17.7165 m 74.409448,-24.8031 -17.71653,0 0,-17.7166 17.71653,0 0,17.7166 m -24.80315,0 -17.71654,0 0,-17.7166 17.71654,0 0,17.7166 m -24.80316,0 -17.71653,0 0,-17.7166 17.71653,0 0,17.7166 m -24.803138,0 -17.71654,0 0,-17.7166 17.71654,0 0,17.7166 m 74.409448,-24.8032 -17.71654,0 0,-17.7165 17.71654,0 0,17.7165 m -24.80315,0 -17.71654,0 0,-17.7165 17.71654,0 0,17.7165 m -24.80316,0 -17.71653,0 0,-17.7165 17.71653,0 0,17.7165 m -24.803148,0 -17.71653,0 0,-17.7165 17.71653,0 0,17.7165 m 74.409458,-24.8031 -17.71654,0 0,-17.7166 17.71654,0 0,17.7166 m -24.80315,0 -17.71654,0 0,-17.7166 17.71654,0 0,17.7166 m -24.80316,0 -17.71653,0 0,-17.7166 17.71653,0 0,17.7166 m -24.803148,0 -17.71653,0 0,-17.7166 17.71653,0 0,17.7166 m 74.409458,-24.8032 -17.71654,0 0,-17.7165 17.71654,0 0,17.7165 m -24.80315,0 -17.71654,0 0,-17.7165 17.71654,0 0,17.7165 m -24.80316,0 -17.71653,0 0,-17.7165 17.71653,0 0,17.7165 m -24.803148,0 -17.71653,0 0,-17.7165 17.71653,0 0,17.7165 m 74.409458,-24.8031 -17.71654,0 0,-17.7166 17.71654,0 0,17.7166 m -24.80315,0 -17.71654,0 0,-17.7166 17.71654,0 0,17.7166 m -24.80316,0 -17.71653,0 0,-17.7166 17.71653,0 0,17.7166 m -24.803148,0 -17.71653,0 0,-17.7166 17.71653,0 0,17.7166 m 74.409458,-24.8032 -17.71654,0 0,-17.7165 17.71654,0 0,17.7165 m -24.80315,0 -17.71654,0 0,-17.7165 17.71654,0 0,17.7165 m -24.80316,0 -17.71653,0 0,-17.7165 17.71653,0 0,17.7165 m -24.803148,0 -17.71653,0 0,-17.7165 17.71653,0 0,17.7165 m 74.409458,-24.8031 -17.71654,0 0,-17.7166 17.71654,0 0,17.7166 m -24.80315,0 -17.71654,0 0,-17.7166 17.71654,0 0,17.7166 m -24.80316,0 -17.71653,0 0,-17.7166 17.71653,0 0,17.7166 m -24.803148,0 -17.71653,0 0,-17.7166 17.71653,0 0,17.7166 m 74.409458,-24.8032 -17.71654,0 0,-17.7165 17.71654,0 0,17.7165 m -24.80315,0 -17.71654,0 0,-17.7165 17.71654,0 0,17.7165 m -24.80316,0 -17.71653,0 0,-17.7165 17.71653,0 0,17.7165 m -24.803148,0 -17.71653,0 0,-17.7165 17.71653,0 0,17.7165 m 74.409458,-24.8031 -17.71654,0 0,-17.7166 17.71654,0 0,17.7166 m -24.80315,0 -17.71654,0 0,-17.7166 17.71654,0 0,17.7166 m -24.80316,0 -17.71653,0 0,-17.7166 17.71653,0 0,17.7166 m -24.803148,0 -17.71653,0 0,-17.7166 17.71653,0 0,17.7166 m 74.409458,-24.8032 -17.71654,0 0,-17.7165 17.71654,0 0,17.7165 m -24.80315,0 -17.71654,0 0,-17.7165 17.71654,0 0,17.7165 m -24.80316,0 -17.71653,0 0,-17.7165 17.71653,0 0,17.7165 m -24.803148,0 -17.71653,0 0,-17.7165 17.71653,0 0,17.7165 m 74.409458,-24.8032 -17.71654,0 0,-17.7165 17.71654,0 0,17.7165 m -24.80315,0 -17.71655,0 0,-17.7165 17.71655,0 0,17.7165 m -24.80316,0 -17.71654,0 0,-17.7165 17.71654,0 0,17.7165 m -24.803148,0 -17.71654,0 0,-17.7165 17.71654,0 0,17.7165 m 74.409458,-24.8031 -17.71654,0 0,-17.7165 17.71654,0 0,17.7165 m -24.80315,0 -17.71655,0 0,-17.7165 17.71655,0 0,17.7165 m -24.80316,0 -17.71654,0 0,-17.7165 17.71654,0 0,17.7165 m -24.803148,0 -17.71654,0 0,-17.7165 17.71654,0 0,17.7165 m 74.409458,-24.8032 -17.71654,0 0,-17.7165 17.71654,0 0,17.7165 m -24.80315,0 -17.71655,0 0,-17.7165 17.71655,0 0,17.7165 m -24.80316,0 -17.71654,0 0,-17.7165 17.71654,0 0,17.7165 m -24.803148,0 -17.71654,0 0,-17.7165 17.71654,0 0,17.7165 m 74.409458,-24.8031 -17.71654,0 0,-17.7165 17.71654,0 0,17.7165 m -24.80315,0 -17.71655,0 0,-17.7165 17.71655,0 0,17.7165 m -24.80316,0 -17.71654,0 0,-17.7165 17.71654,0 0,17.7165 m -24.803148,0 -17.71654,0 0,-17.7165 17.71654,0 0,17.7165 m 74.409458,-24.8032 -17.71654,0 0,-17.716499 17.71654,0 0,17.716499 m -24.80315,0 -17.71655,0 0,-17.716499 17.71655,0 0,17.716499 m -24.80316,0 -17.71654,0 0,-17.716499 17.71654,0 0,17.716499 m -24.803148,0 -17.71654,0 0,-17.716499 17.71654,0 0,17.716499 m 74.409458,-24.803099 -17.71654,0 0,-17.7165 17.71654,0 0,17.7165 m -24.80315,0 -17.71655,0 0,-17.7165 17.71655,0 0,17.7165 m -24.80316,0 -17.71654,0 0,-17.7165 17.71654,0 0,17.7165 m -24.803148,0 -17.71654,0 0,-17.7165 17.71654,0 0,17.7165 m 496.063058,396.850399 -17.7165,0 0,-17.7165 17.7165,0 0,17.7165 m -24.8031,0 -17.7166,0 0,-17.7165 17.7166,0 0,17.7165 m -24.8032,0 -17.7165,0 0,-17.7165 17.7165,0 0,17.7165 m -24.8032,0 -17.7165,0 0,-17.7165 17.7165,0 0,17.7165 m 74.4095,-24.8031 -17.7165,0 0,-17.7166 17.7165,0 0,17.7166 m -24.8031,0 -17.7166,0 0,-17.7166 17.7166,0 0,17.7166 m -24.8032,0 -17.7165,0 0,-17.7166 17.7165,0 0,17.7166 m -24.8032,0 -17.7165,0 0,-17.7166 17.7165,0 0,17.7166 m 74.4095,-24.8032 -17.7165,0 0,-17.7165 17.7165,0 0,17.7165 m -24.8031,0 -17.7166,0 0,-17.7165 17.7166,0 0,17.7165 m -24.8032,0 -17.7165,0 0,-17.7165 17.7165,0 0,17.7165 m -24.8032,0 -17.7165,0 0,-17.7165 17.7165,0 0,17.7165 m 74.4095,-24.8031 -17.7165,0 0,-17.7166 17.7165,0 0,17.7166 m -24.8031,0 -17.7166,0 0,-17.7166 17.7166,0 0,17.7166 m -24.8032,0 -17.7165,0 0,-17.7166 17.7165,0 0,17.7166 m -24.8032,0 -17.7165,0 0,-17.7166 17.7165,0 0,17.7166 m 74.4095,-24.8032 -17.7165,0 0,-17.7165 17.7165,0 0,17.7165 m -24.8031,0 -17.7166,0 0,-17.7165 17.7166,0 0,17.7165 m -24.8032,0 -17.7165,0 0,-17.7165 17.7165,0 0,17.7165 m -24.8032,0 -17.7165,0 0,-17.7165 17.7165,0 0,17.7165 m 74.4095,-24.8031 -17.7165,0 0,-17.7166 17.7165,0 0,17.7166 m -24.8031,0 -17.7166,0 0,-17.7166 17.7166,0 0,17.7166 m -24.8032,0 -17.7165,0 0,-17.7166 17.7165,0 0,17.7166 m -24.8032,0 -17.7165,0 0,-17.7166 17.7165,0 0,17.7166 m 74.4095,-24.8032 -17.7165,0 0,-17.7165 17.7165,0 0,17.7165 m -24.8031,0 -17.7166,0 0,-17.7165 17.7166,0 0,17.7165 m -24.8032,0 -17.7165,0 0,-17.7165 17.7165,0 0,17.7165 m -24.8032,0 -17.7165,0 0,-17.7165 17.7165,0 0,17.7165 m 74.4095,-24.8031 -17.7165,0 0,-17.7166 17.7165,0 0,17.7166 m -24.8031,0 -17.7166,0 0,-17.7166 17.7166,0 0,17.7166 m -24.8032,0 -17.7165,0 0,-17.7166 17.7165,0 0,17.7166 m -24.8032,0 -17.7165,0 0,-17.7166 17.7165,0 0,17.7166 m 74.4095,-24.8032 -17.7165,0 0,-17.7165 17.7165,0 0,17.7165 m -24.8031,0 -17.7166,0 0,-17.7165 17.7166,0 0,17.7165 m -24.8032,0 -17.7165,0 0,-17.7165 17.7165,0 0,17.7165 m -24.8032,0 -17.7165,0 0,-17.7165 17.7165,0 0,17.7165 m 74.4095,-24.8031 -17.7165,0 0,-17.7166 17.7165,0 0,17.7166 m -24.8031,0 -17.7166,0 0,-17.7166 17.7166,0 0,17.7166 m -24.8032,0 -17.7165,0 0,-17.7166 17.7165,0 0,17.7166 m -24.8032,0 -17.7165,0 0,-17.7166 17.7165,0 0,17.7166 m 74.4095,-24.8032 -17.7165,0 0,-17.7165 17.7165,0 0,17.7165 m -24.8031,0 -17.7166,0 0,-17.7165 17.7166,0 0,17.7165 m -24.8032,0 -17.7165,0 0,-17.7165 17.7165,0 0,17.7165 m -24.8032,0 -17.7165,0 0,-17.7165 17.7165,0 0,17.7165 m 74.4095,-24.8032 -17.7165,0 0,-17.7165 17.7165,0 0,17.7165 m -24.8031,0 -17.7166,0 0,-17.7165 17.7166,0 0,17.7165 m -24.8032,0 -17.7165,0 0,-17.7165 17.7165,0 0,17.7165 m -24.8032,0 -17.7165,0 0,-17.7165 17.7165,0 0,17.7165 m 74.4095,-24.8031 -17.7165,0 0,-17.7165 17.7165,0 0,17.7165 m -24.8031,0 -17.7166,0 0,-17.7165 17.7166,0 0,17.7165 m -24.8032,0 -17.7165,0 0,-17.7165 17.7165,0 0,17.7165 m -24.8032,0 -17.7165,0 0,-17.7165 17.7165,0 0,17.7165 m 74.4095,-24.8032 -17.7165,0 0,-17.7165 17.7165,0 0,17.7165 m -24.8031,0 -17.7166,0 0,-17.7165 17.7166,0 0,17.7165 m -24.8032,0 -17.7165,0 0,-17.7165 17.7165,0 0,17.7165 m -24.8032,0 -17.7165,0 0,-17.7165 17.7165,0 0,17.7165 m 74.4095,-24.8031 -17.7165,0 0,-17.7165 17.7165,0 0,17.7165 m -24.8031,0 -17.7166,0 0,-17.7165 17.7166,0 0,17.7165 m -24.8032,0 -17.7165,0 0,-17.7165 17.7165,0 0,17.7165 m -24.8032,0 -17.7165,0 0,-17.7165 17.7165,0 0,17.7165 m 74.4095,-24.8032 -17.7165,0 0,-17.716499 17.7165,0 0,17.716499 m -24.8031,0 -17.7166,0 0,-17.716499 17.7166,0 0,17.716499 m -24.8032,0 -17.7165,0 0,-17.716499 17.7165,0 0,17.716499 m -24.8032,0 -17.7165,0 0,-17.716499 17.7165,0 0,17.716499 m 74.4095,-24.803099 -17.7165,0 0,-17.7165 17.7165,0 0,17.7165 m -24.8031,0 -17.7166,0 0,-17.7165 17.7166,0 0,17.7165 m -24.8032,0 -17.7165,0 0,-17.7165 17.7165,0 0,17.7165 m -24.8032,0 -17.7165,0 0,-17.7165 17.7165,0 0,17.7165 m -141.7323,7.0866 17.7166,0 0,17.716499 -17.7166,0 0,-17.716499 m 67.3229,42.519699 -17.7166,0 0,-17.7165 17.7166,0 0,17.7165 m 24.8031,24.8031 -17.7165,0 0,-17.7165 17.7165,0 0,17.7165 m -42.5197,-49.6063 0,-17.716499 17.7166,0 0,17.716499 -17.7166,0 m 17.7166,-24.803099 -17.7166,0 0,-17.7165 17.7166,0 0,17.7165 m 24.8031,49.606299 -17.7165,0 0,-17.7165 17.7165,0 0,17.7165 m -74.4094,-17.7165 0,17.7165 -17.7166,0 0,-17.7165 17.7166,0 m 56.6929,-49.606299 17.7165,0 0,17.7165 -17.7165,0 0,-17.7165 m -49.6063,0 17.7165,0 0,17.7165 -17.7165,0 0,-17.7165 m -24.8032,17.7165 0,-17.7165 17.7166,0 0,17.7165 -17.7166,0 m 24.8032,24.803099 0,-17.716499 17.7165,0 0,17.716499 -17.7165,0 m 42.5197,49.6063 -17.7166,0 0,-17.7165 17.7166,0 0,17.7165 m -24.8032,-17.7165 0,17.7165 -17.7165,0 0,-17.7165 17.7165,0 m -24.8031,0 0,17.7165 -17.7166,0 0,-17.7165 17.7166,0 m 56.6929,-31.8898 0,-17.716499 17.7165,0 0,17.716499 -17.7165,0 m -49.6063,24.8032 0,-17.7165 17.7165,0 0,17.7165 -17.7165,0 m -31.8898,0 -17.7165,0 0,-17.7165 17.7165,0 0,17.7165 m -17.7165,-67.322799 17.7165,0 0,17.7165 -17.7165,0 0,-17.7165 m -24.8032,42.519599 0,-17.716499 17.7166,0 0,17.716499 -17.7166,0 m -24.8031,24.8032 0,-17.7165 17.7165,0 0,17.7165 -17.7165,0 m 42.5197,24.8031 -17.7166,0 0,-17.7165 17.7166,0 0,17.7165 m -67.3229,-74.409399 0,-17.7165 17.7166,0 0,17.7165 -17.7166,0 m 24.8032,-17.7165 17.7165,0 0,17.7165 -17.7165,0 0,-17.7165 m -7.0866,49.606299 0,17.7165 -17.7166,0 0,-17.7165 17.7166,0 m 49.6063,-31.889799 -17.7166,0 0,-17.7165 17.7166,0 0,17.7165 m -24.8032,56.692899 0,17.7165 -17.7165,0 0,-17.7165 17.7165,0 m -42.5197,-49.606299 17.7166,0 0,17.716499 -17.7166,0 0,-17.716499 m 67.3229,42.519699 -17.7166,0 0,-17.7165 17.7166,0 0,17.7165 m -49.6063,7.0866 0,17.7165 -17.7166,0 0,-17.7165 17.7166,0 m 7.0866,-31.8898 0,-17.716499 17.7165,0 0,17.716499 -17.7165,0 m 67.3228,49.6063 -17.7165,0 0,-17.7165 17.7165,0 0,17.7165 m -148.8189,-17.7165 0,17.7165 -17.7165,0 0,-17.7165 17.7165,0 m 131.1024,-31.8898 0,-17.716499 17.7165,0 0,17.716499 -17.7165,0 m 124.0157,-17.716499 17.7166,0 0,17.716499 -17.7166,0 0,-17.716499 m -223.2283,17.716499 0,-17.716499 17.7165,0 0,17.716499 -17.7165,0 m 0,-42.519599 17.7165,0 0,17.7165 -17.7165,0 0,-17.7165 m -24.8032,42.519599 0,-17.716499 17.7166,0 0,17.716499 -17.7166,0 m -49.6063,-17.716499 17.7166,0 0,17.716499 -17.7166,0 0,-17.716499 m 24.8032,17.716499 0,-17.716499 17.7165,0 0,17.716499 -17.7165,0 m 0,24.8032 0,-17.7165 17.7165,0 0,17.7165 -17.7165,0 m 42.5197,24.8031 -17.7166,0 0,-17.7165 17.7166,0 0,17.7165 m 0,-24.8031 -17.7166,0 0,-17.7165 17.7166,0 0,17.7165 m -67.3229,-49.606299 0,-17.7165 17.7166,0 0,17.7165 -17.7166,0 m 24.8032,-17.7165 17.7165,0 0,17.7165 -17.7165,0 0,-17.7165 m -7.0866,49.606299 0,17.7165 -17.7166,0 0,-17.7165 17.7166,0 m 74.4094,42.5196 -17.7165,0 0,-17.7165 17.7165,0 0,17.7165 m -74.4094,-17.7165 0,17.7165 -17.7166,0 0,-17.7165 17.7166,0 m 74.4094,-7.0866 -17.7165,0 0,-17.7165 17.7165,0 0,17.7165 m 223.2284,7.0866 0,17.7165 -17.7166,0 0,-17.7165 17.7166,0 m 0,-24.8031 0,17.7165 -17.7166,0 0,-17.7165 17.7166,0 m -17.7166,-31.889799 0,-17.7165 17.7166,0 0,17.7165 -17.7166,0 m -230.3149,0 -17.7166,0 0,-17.7165 17.7166,0 0,17.7165" />
    <path
       inkscape:connector-curvature="0"
       id="face0-interior"
       style="fill:none;stroke:#ff0000;stroke-width:0.35433072;stroke-linecap:round;stroke-linejoin:round;stroke-miterlimit:4;stroke-dasharray:none"
       d="m 18.932642,5.5805008 m 0,630.7087292 m 630.708768,0 m 0,-630.7087292 m -35.4331,42.8740302 m -1.9259,-0.25356 m -1.7946,-0.74334 m -1.541,-1.18251 m -1.1825,-1.54106 m -0.7434,-1.79462 m -0.2535,-1.92586 m 0.2537,-1.92586 m 0.7433,-1.79461 m 1.1825,-1.54107 m 1.5409,-1.18251 m 1.7946,-0.74335 m 1.9259,-0.25354 m 1.9259,0.25354 m 1.7946,0.74335 m 1.541,1.18251 m 1.1825,1.54107 m 0.7434,1.79461 m 0.2537,1.92586 m -0.2537,1.92586 m -0.7434,1.79462 m -1.1825,1.54106 m -1.541,1.18251 m -1.7946,0.74335 m -8.3699,556.375649 m -0.7434,-1.7946 m -0.2535,-1.9259 m 0.2537,-1.9258 m 0.7433,-1.7946 m 1.1825,-1.5411 m 1.5411,-1.1825 m 1.7946,-0.7433 m 1.9257,-0.2536 m 1.9259,0.2537 m 1.7946,0.7433 m 1.541,1.1826 m 1.1825,1.541 m 0.7434,1.7946 m 0.2535,1.9257 m -0.2537,1.9259 m -0.7433,1.7946 m -1.1825,1.5411 m -1.5411,1.1825 m -1.7946,0.7434 m -1.9257,0.2535 m -1.9259,-0.2537 m -1.7946,-0.7434 m -1.541,-1.1825 M 54.365712,593.41523 m 1.92586,0.2537 m 1.79462,0.7433 m 1.54107,1.1826 m 1.1825,1.541 m 0.74336,1.7946 m 0.25354,1.9257 m -0.25356,1.9259 m -0.74334,1.7946 m -1.1825,1.5411 m -1.54107,1.1825 m -1.79462,0.7433 m -1.92586,0.2537 m -1.92586,-0.2537 m -1.79461,-0.7433 m -1.54107,-1.1825 m -1.1825,-1.5411 m -0.74336,-1.7946 m -0.25354,-1.9259 m 0.25354,-1.9258 m 0.74336,-1.7946 m 1.1825,-1.5411 m 1.54107,-1.1825 m 1.79461,-0.7433 m 1.92586,-545.214299 m -1.92586,-0.25356 m -1.79461,-0.74334 m -1.54107,-1.18251 m -1.1825,-1.54106 m -0.74336,-1.79462 m -0.25354,-1.92586 m 0.25354,-1.92586 m 0.74336,-1.79461 m 1.1825,-1.54107 m 1.54107,-1.18251 m 1.79461,-0.74335 m 1.92586,-0.25354 m 1.92586,0.25354 m 1.79462,0.74335 m 1.54107,1.18251 m 1.1825,1.54107 m 0.74336,1.79461 m 0.25356,1.92586 m -0.25356,1.92586 m -0.74336,1.79462 m -1.1825,1.54106 m -1.54107,1.18251 m -1.79462,0.74335 M 119.9169,560.10813 m 0,17.7165 m -17.71653,0 m 0,-17.7165 m 148.81894,-31.8898 m 0,-17.7165 m 17.7165,0 m 0,17.7165 m -24.8031,24.8032 m -17.7166,0 m 0,-17.7166 m 17.7166,0 m -67.3229,-31.8897 m 0,-17.7166 m 17.7166,0 m 0,17.7166 m 155.9055,24.8031 m 0,-17.7165 m 17.7165,0 m 0,17.7165 m -166.5354,-42.5197 m 17.7165,0 m 0,17.7166 m -17.7165,0 m 17.7165,56.6929 m 0,17.7165 m -17.7165,0 m 0,-17.7165 M 95.113762,535.30493 m 0,17.7166 m -17.71654,0 m 0,-17.7166 m 116.929188,0 m 0,17.7166 m -17.7166,0 m 0,-17.7166 m 92.126,42.5197 m -17.7165,0 m 0,-17.7165 m 17.7165,0 m -24.8031,17.7165 m -17.7166,0 m 0,-17.7165 m 17.7166,0 m -99.21265,-56.6929 m -17.71654,0 m 0,-17.7166 m 17.71654,0 m 329.52755,24.8032 m 17.7166,0 m 0,17.7165 m -17.7166,0 m 24.8032,0 m 0,-17.7165 m 17.7165,0 m 0,17.7165 m -265.748,-42.5197 m 17.7165,0 m 0,17.7166 m -17.7165,0 m 315.3544,74.4094 m -17.7166,0 m 0,-17.7165 m 17.7166,0 m -389.7639,-49.6063 m 17.7166,0 m 0,17.7165 m -17.7166,0 m 24.8032,0 m 0,-17.7165 m 17.7165,0 m 0,17.7165 m -17.7165,24.8032 m 0,-17.7166 m 17.7165,0 m 0,17.7166 m 329.5276,-67.3229 m 17.7166,0 m 0,17.7166 m -17.7166,0 m -322.441,24.8031 m 0,-17.7165 m 17.7166,0 m 0,17.7165 m 248.0315,31.8898 m 0,17.7165 m -17.7166,0 m 0,-17.7165 m 0,-56.6929 m 0,-17.7166 m 17.7166,0 m 0,17.7166 m 81.4961,-17.7166 m 17.7165,0 m 0,17.7166 m -17.7165,0 m 17.7165,49.6063 m -17.7165,0 m 0,-17.7166 m 17.7165,0 m -42.5197,-7.0866 m 0,-17.7165 m 17.7166,0 m 0,17.7165 m -24.8032,49.6063 m -17.7165,0 m 0,-17.7165 m 17.7165,0 m -347.2441,0 m 0,17.7165 m -17.7166,0 m 0,-17.7165 m 364.9607,-7.0866 m -17.7165,0 m 0,-17.7166 m 17.7165,0 m 0,-31.8897 m -17.7165,0 m 0,-17.7166 m 17.7165,0 m -24.8032,74.4095 m 0,17.7165 m -17.7165,0 m 0,-17.7165 m 0,-74.4095 m 17.7165,0 m 0,17.7166 m -17.7165,0 m -230.315,49.6063 m -17.7165,0 m 0,-17.7166 m 17.7165,0 m 230.315,17.7166 m 0,-17.7166 m 17.7165,0 m 0,17.7166 m -272.8346,-49.6063 m -17.7166,0 m 0,-17.7166 m 17.7166,0 m 347.2441,92.126 m -17.7165,0 m 0,-17.7165 m 17.7165,0 m -17.7165,-31.8898 m 0,-17.7165 m 17.7165,0 m 0,17.7165 m -99.2126,7.0866 m 0,17.7166 m -17.7166,0 m 0,-17.7166 m 92.1261,17.7166 m -17.7166,0 m 0,-17.7166 m 17.7166,0 m -42.5197,-7.0866 m 0,-17.7165 m 17.7165,0 m 0,17.7165 m -439.37014,24.8032 m 0,-17.7166 m 17.71653,0 m 0,17.7166 m 31.88978,-67.3229 m 17.71653,0 m 0,17.7166 m -17.71653,0 m 17.71653,49.6063 m -17.71653,0 m 0,-17.7166 m 17.71653,0 m 205.5118,-24.8031 m 17.7166,0 m 0,17.7165 m -17.7166,0 m 17.7166,31.8898 m 0,17.7165 m -17.7166,0 m 0,-17.7165 m 74.4095,-31.8898 m 0,-17.7165 m 17.7165,0 m 0,17.7165 m -24.8031,-24.8031 m -17.7166,0 m 0,-17.7166 m 17.7166,0 m -24.8032,74.4095 m 0,17.7165 m -17.7165,0 m 0,-17.7165 m -31.8898,-7.0866 m -17.7165,0 m 0,-17.7166 m 17.7165,0 m 31.8898,-7.0866 m 0,-17.7165 m 17.7165,0 m 0,17.7165 m -141.7323,-24.8031 m 0,-17.7166 m 17.7166,0 m 0,17.7166 m -216.141788,7.0866 m 17.71654,0 m 0,17.7165 m -17.71654,0 m 223.228388,-42.5197 m 17.7165,0 m 0,17.7166 m -17.7165,0 m 99.2126,49.6063 m 0,-17.7166 m 17.7165,0 m 0,17.7166 m -74.4094,-49.6063 m -17.7166,0 m 0,-17.7166 m 17.7166,0 m 0,67.3229 m -17.7166,0 m 0,-17.7166 m 17.7166,0 M 77.397222,503.41523 m 0,-17.7166 m 17.71654,0 m 0,17.7166 m 248.031548,74.4094 m -17.7166,0 m 0,-17.7165 m 17.7166,0 m -173.6221,17.7165 m -17.71653,0 m 0,-17.7165 m 17.71653,0 m 297.6378,-7.0866 m -17.7165,0 m 0,-17.7166 m 17.7165,0 m -148.8189,24.8032 m 0,17.7165 m -17.7165,0 m 0,-17.7165 m -7.0866,0 m 0,17.7165 m -17.7166,0 m 0,-17.7165 m -173.62204,-74.4095 m 17.71653,0 m 0,17.7166 m -17.71653,0 m 198.42524,49.6063 m 0,-17.7166 m 17.7165,0 m 0,17.7166 m 74.4095,-17.7166 m 0,17.7166 m -17.7166,0 m 0,-17.7166 m -24.8031,-49.6063 m 17.7165,0 m 0,17.7166 m -17.7165,0 m 116.9291,74.4094 m -17.7165,0 m 0,-17.7165 m 17.7165,0 m -67.3228,-74.4095 m 17.7165,0 m 0,17.7166 m -17.7165,0 m 42.5197,74.4094 m -17.7166,0 m 0,-17.7165 m 17.7166,0 m -166.5355,-49.6063 m 17.7166,0 m 0,17.7165 m -17.7166,0 m -124.01573,0 m 0,-17.7165 m 17.71653,0 m 0,17.7165 m -74.409448,31.8898 m 0,17.7165 m -17.71654,0 m 0,-17.7165 m 297.637788,-56.6929 m 0,-17.7166 m 17.7166,0 m 0,17.7166 m -92.126,24.8031 m 0,-17.7165 m 17.7165,0 m 0,17.7165 m -173.62205,24.8032 m -17.71654,0 m 0,-17.7166 m 17.71654,0 m 180.70865,-7.0866 m 0,-17.7165 m 17.7166,0 m 0,17.7165 m -49.6063,7.0866 m 0,17.7166 m -17.7166,0 m 0,-17.7166 m 92.126,42.5197 m -17.7165,0 m 0,-17.7165 m 17.7165,0 m -265.74804,-31.8898 m 0,-17.7165 m 17.71653,0 m 0,17.7165 m 7.08662,0 m 0,-17.7165 m 17.71654,0 m 0,17.7165 m 297.63785,24.8032 m -17.7166,0 m 0,-17.7166 m 17.7166,0 m -17.7166,-7.0866 m 0,-17.7165 m 17.7166,0 m 0,17.7165 m 7.0866,-42.5197 m 17.7165,0 m 0,17.7166 m -17.7165,0 m -304.72445,74.4094 m -17.71654,0 m 0,-17.7165 m 17.71654,0 m 24.80315,-81.4961 m -17.71653,0 m 0,-17.7165 m 17.71653,0 m -24.80315,17.7165 m -17.71654,0 m 0,-17.7165 m 17.71654,0 m -24.80316,17.7165 m -17.71653,0 m 0,-17.7165 m 17.71653,0 m -24.803138,17.7165 m -17.71654,0 m 0,-17.7165 m 17.71654,0 m 74.409448,-7.0866 m -17.71653,0 m 0,-17.7166 m 17.71653,0 m -24.80315,17.7166 m -17.71654,0 m 0,-17.7166 m 17.71654,0 m -24.80316,17.7166 m -17.71653,0 m 0,-17.7166 m 17.71653,0 m -24.803138,17.7166 m -17.71654,0 m 0,-17.7166 m 17.71654,0 m 74.409448,-7.0866 m -17.71654,0 m 0,-17.7165 m 17.71654,0 m -24.80315,17.7165 m -17.71654,0 m 0,-17.7165 m 17.71654,0 m -24.80316,17.7165 m -17.71653,0 m 0,-17.7165 m 17.71653,0 m -24.803148,17.7165 m -17.71653,0 m 0,-17.7165 m 17.71653,0 m 74.409458,-7.0866 m -17.71654,0 m 0,-17.7166 m 17.71654,0 m -24.80315,17.7166 m -17.71654,0 m 0,-17.7166 m 17.71654,0 m -24.80316,17.7166 m -17.71653,0 m 0,-17.7166 m 17.71653,0 m -24.803148,17.7166 m -17.71653,0 m 0,-17.7166 m 17.71653,0 m 74.409458,-7.0866 m -17.71654,0 m 0,-17.7165 m 17.71654,0 m -24.80315,17.7165 m -17.71654,0 m 0,-17.7165 m 17.71654,0 m -24.80316,17.7165 m -17.71653,0 m 0,-17.7165 m 17.71653,0 m -24.803148,17.7165 m -17.71653,0 m 0,-17.7165 m 17.71653,0 m 74.409458,-7.0866 m -17.71654,0 m 0,-17.7166 m 17.71654,0 m -24.80315,17.7166 m -17.71654,0 m 0,-17.7166 m 17.71654,0 m -24.80316,17.7166 m -17.71653,0 m 0,-17.7166 m 17.71653,0 m -24.803148,17.7166 m -17.71653,0 m 0,-17.7166 m 17.71653,0 m 74.409458,-7.0866 m -17.71654,0 m 0,-17.7165 m 17.71654,0 m -24.80315,17.7165 m -17.71654,0 m 0,-17.7165 m 17.71654,0 m -24.80316,17.7165 m -17.71653,0 m 0,-17.7165 m 17.71653,0 m -24.803148,17.7165 m -17.71653,0 m 0,-17.7165 m 17.71653,0 m 74.409458,-7.0866 m -17.71654,0 m 0,-17.7166 m 17.71654,0 m -24.80315,17.7166 m -17.71654,0 m 0,-17.7166 m 17.71654,0 m -24.80316,17.7166 m -17.71653,0 m 0,-17.7166 m 17.71653,0 m -24.803148,17.7166 m -17.71653,0 m 0,-17.7166 m 17.71653,0 m 74.409458,-7.0866 m -17.71654,0 m 0,-17.7165 m 17.71654,0 m -24.80315,17.7165 m -17.71654,0 m 0,-17.7165 m 17.71654,0 m -24.80316,17.7165 m -17.71653,0 m 0,-17.7165 m 17.71653,0 m -24.803148,17.7165 m -17.71653,0 m 0,-17.7165 m 17.71653,0 m 74.409458,-7.0866 m -17.71654,0 m 0,-17.7166 m 17.71654,0 m -24.80315,17.7166 m -17.71654,0 m 0,-17.7166 m 17.71654,0 m -24.80316,17.7166 m -17.71653,0 m 0,-17.7166 m 17.71653,0 m -24.803148,17.7166 m -17.71653,0 m 0,-17.7166 m 17.71653,0 m 74.409458,-7.0866 m -17.71654,0 m 0,-17.7165 m 17.71654,0 m -24.80315,17.7165 m -17.71654,0 m 0,-17.7165 m 17.71654,0 m -24.80316,17.7165 m -17.71653,0 m 0,-17.7165 m 17.71653,0 m -24.803148,17.7165 m -17.71653,0 m 0,-17.7165 m 17.71653,0 m 74.409458,-7.0867 m -17.71654,0 m 0,-17.7165 m 17.71654,0 m -24.80315,17.7165 m -17.71655,0 m 0,-17.7165 m 17.71655,0 m -24.80316,17.7165 m -17.71654,0 m 0,-17.7165 m 17.71654,0 m -24.803148,17.7165 m -17.71654,0 m 0,-17.7165 m 17.71654,0 m 74.409458,-7.0866 m -17.71654,0 m 0,-17.7165 m 17.71654,0 m -24.80315,17.7165 m -17.71655,0 m 0,-17.7165 m 17.71655,0 m -24.80316,17.7165 m -17.71654,0 m 0,-17.7165 m 17.71654,0 m -24.803148,17.7165 m -17.71654,0 m 0,-17.7165 m 17.71654,0 m 74.409458,-7.0867 m -17.71654,0 m 0,-17.7165 m 17.71654,0 m -24.80315,17.7165 m -17.71655,0 m 0,-17.7165 m 17.71655,0 m -24.80316,17.7165 m -17.71654,0 m 0,-17.7165 m 17.71654,0 m -24.803148,17.7165 m -17.71654,0 m 0,-17.7165 m 17.71654,0 m 74.409458,-7.0866 m -17.71654,0 m 0,-17.7165 m 17.71654,0 m -24.80315,17.7165 m -17.71655,0 m 0,-17.7165 m 17.71655,0 m -24.80316,17.7165 m -17.71654,0 m 0,-17.7165 m 17.71654,0 m -24.803148,17.7165 m -17.71654,0 m 0,-17.7165 m 17.71654,0 m 74.409458,-7.0867 m -17.71654,0 m 0,-17.716499 m 17.71654,0 m -24.80315,17.716499 m -17.71655,0 m 0,-17.716499 m 17.71655,0 M 119.9169,106.56473 m -17.71654,0 m 0,-17.716499 m 17.71654,0 M 95.113752,106.56473 m -17.71654,0 m 0,-17.716499 m 17.71654,0 m 74.409458,-7.0866 m -17.71654,0 m 0,-17.7165 m 17.71654,0 m -24.80315,17.7165 m -17.71655,0 m 0,-17.7165 m 17.71655,0 m -24.80316,17.7165 m -17.71654,0 m 0,-17.7165 m 17.71654,0 m -24.803148,17.7165 m -17.71654,0 m 0,-17.7165 m 17.71654,0 M 591.17681,478.61203 m -17.7165,0 m 0,-17.7165 m 17.7165,0 m -24.8031,17.7165 m -17.7166,0 m 0,-17.7165 m 17.7166,0 m -24.8032,17.7165 m -17.7165,0 m 0,-17.7165 m 17.7165,0 m -24.8032,17.7165 m -17.7165,0 m 0,-17.7165 m 17.7165,0 m 74.4095,-7.0866 m -17.7165,0 m 0,-17.7166 m 17.7165,0 m -24.8031,17.7166 m -17.7166,0 m 0,-17.7166 m 17.7166,0 m -24.8032,17.7166 m -17.7165,0 m 0,-17.7166 m 17.7165,0 m -24.8032,17.7166 m -17.7165,0 m 0,-17.7166 m 17.7165,0 m 74.4095,-7.0866 m -17.7165,0 m 0,-17.7165 m 17.7165,0 m -24.8031,17.7165 m -17.7166,0 m 0,-17.7165 m 17.7166,0 m -24.8032,17.7165 m -17.7165,0 m 0,-17.7165 m 17.7165,0 m -24.8032,17.7165 m -17.7165,0 m 0,-17.7165 m 17.7165,0 m 74.4095,-7.0866 m -17.7165,0 m 0,-17.7166 m 17.7165,0 m -24.8031,17.7166 m -17.7166,0 m 0,-17.7166 m 17.7166,0 m -24.8032,17.7166 m -17.7165,0 m 0,-17.7166 m 17.7165,0 m -24.8032,17.7166 m -17.7165,0 m 0,-17.7166 m 17.7165,0 m 74.4095,-7.0866 m -17.7165,0 m 0,-17.7165 m 17.7165,0 m -24.8031,17.7165 m -17.7166,0 m 0,-17.7165 m 17.7166,0 m -24.8032,17.7165 m -17.7165,0 m 0,-17.7165 m 17.7165,0 m -24.8032,17.7165 m -17.7165,0 m 0,-17.7165 m 17.7165,0 m 74.4095,-7.0866 m -17.7165,0 m 0,-17.7166 m 17.7165,0 m -24.8031,17.7166 m -17.7166,0 m 0,-17.7166 m 17.7166,0 m -24.8032,17.7166 m -17.7165,0 m 0,-17.7166 m 17.7165,0 m -24.8032,17.7166 m -17.7165,0 m 0,-17.7166 m 17.7165,0 m 74.4095,-7.0866 m -17.7165,0 m 0,-17.7165 m 17.7165,0 m -24.8031,17.7165 m -17.7166,0 m 0,-17.7165 m 17.7166,0 m -24.8032,17.7165 m -17.7165,0 m 0,-17.7165 m 17.7165,0 m -24.8032,17.7165 m -17.7165,0 m 0,-17.7165 m 17.7165,0 m 74.4095,-7.0866 m -17.7165,0 m 0,-17.7166 m 17.7165,0 m -24.8031,17.7166 m -17.7166,0 m 0,-17.7166 m 17.7166,0 m -24.8032,17.7166 m -17.7165,0 m 0,-17.7166 m 17.7165,0 m -24.8032,17.7166 m -17.7165,0 m 0,-17.7166 m 17.7165,0 m 74.4095,-7.0866 m -17.7165,0 m 0,-17.7165 m 17.7165,0 m -24.8031,17.7165 m -17.7166,0 m 0,-17.7165 m 17.7166,0 m -24.8032,17.7165 m -17.7165,0 m 0,-17.7165 m 17.7165,0 m -24.8032,17.7165 m -17.7165,0 m 0,-17.7165 m 17.7165,0 m 74.4095,-7.0866 m -17.7165,0 m 0,-17.7166 m 17.7165,0 m -24.8031,17.7166 m -17.7166,0 m 0,-17.7166 m 17.7166,0 m -24.8032,17.7166 m -17.7165,0 m 0,-17.7166 m 17.7165,0 m -24.8032,17.7166 m -17.7165,0 m 0,-17.7166 m 17.7165,0 m 74.4095,-7.0866 m -17.7165,0 m 0,-17.7165 m 17.7165,0 m -24.8031,17.7165 m -17.7166,0 m 0,-17.7165 m 17.7166,0 m -24.8032,17.7165 m -17.7165,0 m 0,-17.7165 m 17.7165,0 m -24.8032,17.7165 m -17.7165,0 m 0,-17.7165 m 17.7165,0 m 74.4095,-7.0867 m -17.7165,0 m 0,-17.7165 m 17.7165,0 m -24.8031,17.7165 m -17.7166,0 m 0,-17.7165 m 17.7166,0 m -24.8032,17.7165 m -17.7165,0 m 0,-17.7165 m 17.7165,0 m -24.8032,17.7165 m -17.7165,0 m 0,-17.7165 m 17.7165,0 m 74.4095,-7.0866 m -17.7165,0 m 0,-17.7165 m 17.7165,0 m -24.8031,17.7165 m -17.7166,0 m 0,-17.7165 m 17.7166,0 m -24.8032,17.7165 m -17.7165,0 m 0,-17.7165 m 17.7165,0 m -24.8032,17.7165 m -17.7165,0 m 0,-17.7165 m 17.7165,0 m 74.4095,-7.0867 m -17.7165,0 m 0,-17.7165 m 17.7165,0 m -24.8031,17.7165 m -17.7166,0 m 0,-17.7165 m 17.7166,0 m -24.8032,17.7165 m -17.7165,0 m 0,-17.7165 m 17.7165,0 m -24.8032,17.7165 m -17.7165,0 m 0,-17.7165 m 17.7165,0 m 74.4095,-7.0866 m -17.7165,0 m 0,-17.7165 m 17.7165,0 m -24.8031,17.7165 m -17.7166,0 m 0,-17.7165 m 17.7166,0 m -24.8032,17.7165 m -17.7165,0 m 0,-17.7165 m 17.7165,0 m -24.8032,17.7165 m -17.7165,0 m 0,-17.7165 m 17.7165,0 m 74.4095,-7.0867 m -17.7165,0 m 0,-17.716499 m 17.7165,0 m -24.8031,17.716499 m -17.7166,0 m 0,-17.716499 m 17.7166,0 m -24.8032,17.716499 m -17.7165,0 m 0,-17.716499 m 17.7165,0 m -24.8032,17.716499 m -17.7165,0 m 0,-17.716499 m 17.7165,0 m 74.4095,-7.0866 m -17.7165,0 m 0,-17.7165 m 17.7165,0 m -24.8031,17.7165 m -17.7166,0 m 0,-17.7165 m 17.7166,0 m -24.8032,17.7165 m -17.7165,0 m 0,-17.7165 m 17.7165,0 m -24.8032,17.7165 m -17.7165,0 m 0,-17.7165 m 17.7165,0 m -141.7323,24.8031 m 17.7166,0 m 0,17.716499 m -17.7166,0 m 67.3229,24.8032 m -17.7166,0 m 0,-17.7165 m 17.7166,0 m 24.8031,42.5196 m -17.7165,0 m 0,-17.7165 m 17.7165,0 m -42.5197,-31.8898 m 0,-17.716499 m 17.7166,0 m 0,17.716499 m 0,-24.803099 m -17.7166,0 m 0,-17.7165 m 17.7166,0 m 24.8031,67.322799 m -17.7165,0 m 0,-17.7165 m 17.7165,0 m -74.4094,0 m 0,17.7165 m -17.7166,0 m 0,-17.7165 m 74.4095,-49.606299 m 17.7165,0 m 0,17.7165 m -17.7165,0 m -49.6063,-17.7165 m 17.7165,0 m 0,17.7165 m -17.7165,0 m -24.8032,0 m 0,-17.7165 m 17.7166,0 m 0,17.7165 m 7.0866,24.803099 m 0,-17.716499 m 17.7165,0 m 0,17.716499 m 24.8032,49.6063 m -17.7166,0 m 0,-17.7165 m 17.7166,0 m -24.8032,0 m 0,17.7165 m -17.7165,0 m 0,-17.7165 m -7.0866,0 m 0,17.7165 m -17.7166,0 m 0,-17.7165 m 74.4095,-31.8898 m 0,-17.716499 m 17.7165,0 m 0,17.716499 m -67.3228,24.8032 m 0,-17.7165 m 17.7165,0 m 0,17.7165 m -49.6063,0 m -17.7165,0 m 0,-17.7165 m 17.7165,0 m -17.7165,-49.606299 m 17.7165,0 m 0,17.7165 m -17.7165,0 m -24.8032,24.803099 m 0,-17.716499 m 17.7166,0 m 0,17.716499 m -42.5197,24.8032 m 0,-17.7165 m 17.7165,0 m 0,17.7165 m 24.8032,24.8031 m -17.7166,0 m 0,-17.7165 m 17.7166,0 m -67.3229,-56.692899 m 0,-17.7165 m 17.7166,0 m 0,17.7165 m 7.0866,-17.7165 m 17.7165,0 m 0,17.7165 m -17.7165,0 m -7.0866,31.889799 m 0,17.7165 m -17.7166,0 m 0,-17.7165 m 67.3229,-31.889799 m -17.7166,0 m 0,-17.7165 m 17.7166,0 m -24.8032,74.409399 m 0,17.7165 m -17.7165,0 m 0,-17.7165 m -24.8032,-49.606299 m 17.7166,0 m 0,17.716499 m -17.7166,0 m 67.3229,24.8032 m -17.7166,0 m 0,-17.7165 m 17.7166,0 m -49.6063,24.8031 m 0,17.7165 m -17.7166,0 m 0,-17.7165 m 24.8032,-31.8898 m 0,-17.716499 m 17.7165,0 m 0,17.716499 m 49.6063,49.6063 m -17.7165,0 m 0,-17.7165 m 17.7165,0 m -148.8189,0 m 0,17.7165 m -17.7165,0 m 0,-17.7165 m 148.8189,-31.8898 m 0,-17.716499 m 17.7165,0 m 0,17.716499 m 106.2992,-17.716499 m 17.7166,0 m 0,17.716499 m -17.7166,0 m -223.2283,0 m 0,-17.716499 m 17.7165,0 m 0,17.716499 m -17.7165,-42.519599 m 17.7165,0 m 0,17.7165 m -17.7165,0 m -24.8032,24.803099 m 0,-17.716499 m 17.7166,0 m 0,17.716499 m -67.3229,-17.716499 m 17.7166,0 m 0,17.716499 m -17.7166,0 m 24.8032,0 m 0,-17.716499 m 17.7165,0 m 0,17.716499 m -17.7165,24.8032 m 0,-17.7165 m 17.7165,0 m 0,17.7165 m 24.8032,24.8031 m -17.7166,0 m 0,-17.7165 m 17.7166,0 m 0,-7.0866 m -17.7166,0 m 0,-17.7165 m 17.7166,0 m -67.3229,-31.889799 m 0,-17.7165 m 17.7166,0 m 0,17.7165 m 7.0866,-17.7165 m 17.7165,0 m 0,17.7165 m -17.7165,0 m -7.0866,31.889799 m 0,17.7165 m -17.7166,0 m 0,-17.7165 m 92.126,42.5196 m -17.7165,0 m 0,-17.7165 m 17.7165,0 m -74.4094,0 m 0,17.7165 m -17.7166,0 m 0,-17.7165 m 92.126,-7.0866 m -17.7165,0 m 0,-17.7165 m 17.7165,0 m 223.2284,24.8031 m 0,17.7165 m -17.7166,0 m 0,-17.7165 m 17.7166,-24.8031 m 0,17.7165 m -17.7166,0 m 0,-17.7165 m 0,-31.889799 m 0,-17.7165 m 17.7166,0 m 0,17.7165 m -248.0315,0 m -17.7166,0 m 0,-17.7165 m 17.7166,0" />
    <path
       inkscape:connector-curvature="0"
       id="path8"
       style="fill:none;stroke:#ff0000;stroke-width:0.35433072;stroke-linecap:round;stroke-linejoin:round;stroke-miterlimit:4;stroke-dasharray:none"
       d="m 18.932642,5.5805008 m 0,630.7087292 m 630.708768,0 m 0,-630.7087292 m -35.4331,42.8740302 m -1.9259,-0.25356 m -1.7946,-0.74334 m -1.541,-1.18251 m -1.1825,-1.54106 m -0.7434,-1.79462 m -0.2535,-1.92586 m 0.2537,-1.92586 m 0.7433,-1.79461 m 1.1825,-1.54107 m 1.5409,-1.18251 m 1.7946,-0.74335 m 1.9259,-0.25354 m 1.9259,0.25354 m 1.7946,0.74335 m 1.541,1.18251 m 1.1825,1.54107 m 0.7434,1.79461 m 0.2537,1.92586 m -0.2537,1.92586 m -0.7434,1.79462 m -1.1825,1.54106 m -1.541,1.18251 m -1.7946,0.74335 m -8.3699,556.375649 m -0.7434,-1.7946 m -0.2535,-1.9259 m 0.2537,-1.9258 m 0.7433,-1.7946 m 1.1825,-1.5411 m 1.5411,-1.1825 m 1.7946,-0.7433 m 1.9257,-0.2536 m 1.9259,0.2537 m 1.7946,0.7433 m 1.541,1.1826 m 1.1825,1.541 m 0.7434,1.7946 m 0.2535,1.9257 m -0.2537,1.9259 m -0.7433,1.7946 m -1.1825,1.5411 m -1.5411,1.1825 m -1.7946,0.7434 m -1.9257,0.2535 m -1.9259,-0.2537 m -1.7946,-0.7434 m -1.541,-1.1825 M 54.365712,593.41523 m 1.92586,0.2537 m 1.79462,0.7433 m 1.54107,1.1826 m 1.1825,1.541 m 0.74336,1.7946 m 0.25354,1.9257 m -0.25356,1.9259 m -0.74334,1.7946 m -1.1825,1.5411 m -1.54107,1.1825 m -1.79462,0.7433 m -1.92586,0.2537 m -1.92586,-0.2537 m -1.79461,-0.7433 m -1.54107,-1.1825 m -1.1825,-1.5411 m -0.74336,-1.7946 m -0.25354,-1.9259 m 0.25354,-1.9258 m 0.74336,-1.7946 m 1.1825,-1.5411 m 1.54107,-1.1825 m 1.79461,-0.7433 m 1.92586,-545.214299 m -1.92586,-0.25356 m -1.79461,-0.74334 m -1.54107,-1.18251 m -1.1825,-1.54106 m -0.74336,-1.79462 m -0.25354,-1.92586 m 0.25354,-1.92586 m 0.74336,-1.79461 m 1.1825,-1.54107 m 1.54107,-1.18251 m 1.79461,-0.74335 m 1.92586,-0.25354 m 1.92586,0.25354 m 1.79462,0.74335 m 1.54107,1.18251 m 1.1825,1.54107 m 0.74336,1.79461 m 0.25356,1.92586 m -0.25356,1.92586 m -0.74336,1.79462 m -1.1825,1.54106 m -1.54107,1.18251 m -1.79462,0.74335 M 119.9169,560.10813 m 0,17.7165 m -17.71653,0 m 0,-17.7165 m 148.81894,-31.8898 m 0,-17.7165 m 17.7165,0 m 0,17.7165 m -24.8031,24.8032 m -17.7166,0 m 0,-17.7166 m 17.7166,0 m -67.3229,-31.8897 m 0,-17.7166 m 17.7166,0 m 0,17.7166 m 155.9055,24.8031 m 0,-17.7165 m 17.7165,0 m 0,17.7165 m -166.5354,-42.5197 m 17.7165,0 m 0,17.7166 m -17.7165,0 m 17.7165,56.6929 m 0,17.7165 m -17.7165,0 m 0,-17.7165 M 95.113762,535.30493 m 0,17.7166 m -17.71654,0 m 0,-17.7166 m 116.929188,0 m 0,17.7166 m -17.7166,0 m 0,-17.7166 m 92.126,42.5197 m -17.7165,0 m 0,-17.7165 m 17.7165,0 m -24.8031,17.7165 m -17.7166,0 m 0,-17.7165 m 17.7166,0 m -99.21265,-56.6929 m -17.71654,0 m 0,-17.7166 m 17.71654,0 m 329.52755,24.8032 m 17.7166,0 m 0,17.7165 m -17.7166,0 m 24.8032,0 m 0,-17.7165 m 17.7165,0 m 0,17.7165 m -265.748,-42.5197 m 17.7165,0 m 0,17.7166 m -17.7165,0 m 315.3544,74.4094 m -17.7166,0 m 0,-17.7165 m 17.7166,0 m -389.7639,-49.6063 m 17.7166,0 m 0,17.7165 m -17.7166,0 m 24.8032,0 m 0,-17.7165 m 17.7165,0 m 0,17.7165 m -17.7165,24.8032 m 0,-17.7166 m 17.7165,0 m 0,17.7166 m 329.5276,-67.3229 m 17.7166,0 m 0,17.7166 m -17.7166,0 m -322.441,24.8031 m 0,-17.7165 m 17.7166,0 m 0,17.7165 m 248.0315,31.8898 m 0,17.7165 m -17.7166,0 m 0,-17.7165 m 0,-56.6929 m 0,-17.7166 m 17.7166,0 m 0,17.7166 m 81.4961,-17.7166 m 17.7165,0 m 0,17.7166 m -17.7165,0 m 17.7165,49.6063 m -17.7165,0 m 0,-17.7166 m 17.7165,0 m -42.5197,-7.0866 m 0,-17.7165 m 17.7166,0 m 0,17.7165 m -24.8032,49.6063 m -17.7165,0 m 0,-17.7165 m 17.7165,0 m -347.2441,0 m 0,17.7165 m -17.7166,0 m 0,-17.7165 m 364.9607,-7.0866 m -17.7165,0 m 0,-17.7166 m 17.7165,0 m 0,-31.8897 m -17.7165,0 m 0,-17.7166 m 17.7165,0 m -24.8032,74.4095 m 0,17.7165 m -17.7165,0 m 0,-17.7165 m 0,-74.4095 m 17.7165,0 m 0,17.7166 m -17.7165,0 m -230.315,49.6063 m -17.7165,0 m 0,-17.7166 m 17.7165,0 m 230.315,17.7166 m 0,-17.7166 m 17.7165,0 m 0,17.7166 m -272.8346,-49.6063 m -17.7166,0 m 0,-17.7166 m 17.7166,0 m 347.2441,92.126 m -17.7165,0 m 0,-17.7165 m 17.7165,0 m -17.7165,-31.8898 m 0,-17.7165 m 17.7165,0 m 0,17.7165 m -99.2126,7.0866 m 0,17.7166 m -17.7166,0 m 0,-17.7166 m 92.1261,17.7166 m -17.7166,0 m 0,-17.7166 m 17.7166,0 m -42.5197,-7.0866 m 0,-17.7165 m 17.7165,0 m 0,17.7165 m -439.37014,24.8032 m 0,-17.7166 m 17.71653,0 m 0,17.7166 m 31.88978,-67.3229 m 17.71653,0 m 0,17.7166 m -17.71653,0 m 17.71653,49.6063 m -17.71653,0 m 0,-17.7166 m 17.71653,0 m 205.5118,-24.8031 m 17.7166,0 m 0,17.7165 m -17.7166,0 m 17.7166,31.8898 m 0,17.7165 m -17.7166,0 m 0,-17.7165 m 74.4095,-31.8898 m 0,-17.7165 m 17.7165,0 m 0,17.7165 m -24.8031,-24.8031 m -17.7166,0 m 0,-17.7166 m 17.7166,0 m -24.8032,74.4095 m 0,17.7165 m -17.7165,0 m 0,-17.7165 m -31.8898,-7.0866 m -17.7165,0 m 0,-17.7166 m 17.7165,0 m 31.8898,-7.0866 m 0,-17.7165 m 17.7165,0 m 0,17.7165 m -141.7323,-24.8031 m 0,-17.7166 m 17.7166,0 m 0,17.7166 m -216.141788,7.0866 m 17.71654,0 m 0,17.7165 m -17.71654,0 m 223.228388,-42.5197 m 17.7165,0 m 0,17.7166 m -17.7165,0 m 99.2126,49.6063 m 0,-17.7166 m 17.7165,0 m 0,17.7166 m -74.4094,-49.6063 m -17.7166,0 m 0,-17.7166 m 17.7166,0 m 0,67.3229 m -17.7166,0 m 0,-17.7166 m 17.7166,0 M 77.397222,503.41523 m 0,-17.7166 m 17.71654,0 m 0,17.7166 m 248.031548,74.4094 m -17.7166,0 m 0,-17.7165 m 17.7166,0 m -173.6221,17.7165 m -17.71653,0 m 0,-17.7165 m 17.71653,0 m 297.6378,-7.0866 m -17.7165,0 m 0,-17.7166 m 17.7165,0 m -148.8189,24.8032 m 0,17.7165 m -17.7165,0 m 0,-17.7165 m -7.0866,0 m 0,17.7165 m -17.7166,0 m 0,-17.7165 m -173.62204,-74.4095 m 17.71653,0 m 0,17.7166 m -17.71653,0 m 198.42524,49.6063 m 0,-17.7166 m 17.7165,0 m 0,17.7166 m 74.4095,-17.7166 m 0,17.7166 m -17.7166,0 m 0,-17.7166 m -24.8031,-49.6063 m 17.7165,0 m 0,17.7166 m -17.7165,0 m 116.9291,74.4094 m -17.7165,0 m 0,-17.7165 m 17.7165,0 m -67.3228,-74.4095 m 17.7165,0 m 0,17.7166 m -17.7165,0 m 42.5197,74.4094 m -17.7166,0 m 0,-17.7165 m 17.7166,0 m -166.5355,-49.6063 m 17.7166,0 m 0,17.7165 m -17.7166,0 m -124.01573,0 m 0,-17.7165 m 17.71653,0 m 0,17.7165 m -74.409448,31.8898 m 0,17.7165 m -17.71654,0 m 0,-17.7165 m 297.637788,-56.6929 m 0,-17.7166 m 17.7166,0 m 0,17.7166 m -92.126,24.8031 m 0,-17.7165 m 17.7165,0 m 0,17.7165 m -173.62205,24.8032 m -17.71654,0 m 0,-17.7166 m 17.71654,0 m 180.70865,-7.0866 m 0,-17.7165 m 17.7166,0 m 0,17.7165 m -49.6063,7.0866 m 0,17.7166 m -17.7166,0 m 0,-17.7166 m 92.126,42.5197 m -17.7165,0 m 0,-17.7165 m 17.7165,0 m -265.74804,-31.8898 m 0,-17.7165 m 17.71653,0 m 0,17.7165 m 7.08662,0 m 0,-17.7165 m 17.71654,0 m 0,17.7165 m 297.63785,24.8032 m -17.7166,0 m 0,-17.7166 m 17.7166,0 m -17.7166,-7.0866 m 0,-17.7165 m 17.7166,0 m 0,17.7165 m 7.0866,-42.5197 m 17.7165,0 m 0,17.7166 m -17.7165,0 m -304.72445,74.4094 m -17.71654,0 m 0,-17.7165 m 17.71654,0 m 24.80315,-81.4961 m -17.71653,0 m 0,-17.7165 m 17.71653,0 m -24.80315,17.7165 m -17.71654,0 m 0,-17.7165 m 17.71654,0 m -24.80316,17.7165 m -17.71653,0 m 0,-17.7165 m 17.71653,0 m -24.803138,17.7165 m -17.71654,0 m 0,-17.7165 m 17.71654,0 m 74.409448,-7.0866 m -17.71653,0 m 0,-17.7166 m 17.71653,0 m -24.80315,17.7166 m -17.71654,0 m 0,-17.7166 m 17.71654,0 m -24.80316,17.7166 m -17.71653,0 m 0,-17.7166 m 17.71653,0 m -24.803138,17.7166 m -17.71654,0 m 0,-17.7166 m 17.71654,0 m 74.409448,-7.0866 m -17.71654,0 m 0,-17.7165 m 17.71654,0 m -24.80315,17.7165 m -17.71654,0 m 0,-17.7165 m 17.71654,0 m -24.80316,17.7165 m -17.71653,0 m 0,-17.7165 m 17.71653,0 m -24.803148,17.7165 m -17.71653,0 m 0,-17.7165 m 17.71653,0 m 74.409458,-7.0866 m -17.71654,0 m 0,-17.7166 m 17.71654,0 m -24.80315,17.7166 m -17.71654,0 m 0,-17.7166 m 17.71654,0 m -24.80316,17.7166 m -17.71653,0 m 0,-17.7166 m 17.71653,0 m -24.803148,17.7166 m -17.71653,0 m 0,-17.7166 m 17.71653,0 m 74.409458,-7.0866 m -17.71654,0 m 0,-17.7165 m 17.71654,0 m -24.80315,17.7165 m -17.71654,0 m 0,-17.7165 m 17.71654,0 m -24.80316,17.7165 m -17.71653,0 m 0,-17.7165 m 17.71653,0 m -24.803148,17.7165 m -17.71653,0 m 0,-17.7165 m 17.71653,0 m 74.409458,-7.0866 m -17.71654,0 m 0,-17.7166 m 17.71654,0 m -24.80315,17.7166 m -17.71654,0 m 0,-17.7166 m 17.71654,0 m -24.80316,17.7166 m -17.71653,0 m 0,-17.7166 m 17.71653,0 m -24.803148,17.7166 m -17.71653,0 m 0,-17.7166 m 17.71653,0 m 74.409458,-7.0866 m -17.71654,0 m 0,-17.7165 m 17.71654,0 m -24.80315,17.7165 m -17.71654,0 m 0,-17.7165 m 17.71654,0 m -24.80316,17.7165 m -17.71653,0 m 0,-17.7165 m 17.71653,0 m -24.803148,17.7165 m -17.71653,0 m 0,-17.7165 m 17.71653,0 m 74.409458,-7.0866 m -17.71654,0 m 0,-17.7166 m 17.71654,0 m -24.80315,17.7166 m -17.71654,0 m 0,-17.7166 m 17.71654,0 m -24.80316,17.7166 m -17.71653,0 m 0,-17.7166 m 17.71653,0 m -24.803148,17.7166 m -17.71653,0 m 0,-17.7166 m 17.71653,0 m 74.409458,-7.0866 m -17.71654,0 m 0,-17.7165 m 17.71654,0 m -24.80315,17.7165 m -17.71654,0 m 0,-17.7165 m 17.71654,0 m -24.80316,17.7165 m -17.71653,0 m 0,-17.7165 m 17.71653,0 m -24.803148,17.7165 m -17.71653,0 m 0,-17.7165 m 17.71653,0 m 74.409458,-7.0866 m -17.71654,0 m 0,-17.7166 m 17.71654,0 m -24.80315,17.7166 m -17.71654,0 m 0,-17.7166 m 17.71654,0 m -24.80316,17.7166 m -17.71653,0 m 0,-17.7166 m 17.71653,0 m -24.803148,17.7166 m -17.71653,0 m 0,-17.7166 m 17.71653,0 m 74.409458,-7.0866 m -17.71654,0 m 0,-17.7165 m 17.71654,0 m -24.80315,17.7165 m -17.71654,0 m 0,-17.7165 m 17.71654,0 m -24.80316,17.7165 m -17.71653,0 m 0,-17.7165 m 17.71653,0 m -24.803148,17.7165 m -17.71653,0 m 0,-17.7165 m 17.71653,0 m 74.409458,-7.0867 m -17.71654,0 m 0,-17.7165 m 17.71654,0 m -24.80315,17.7165 m -17.71655,0 m 0,-17.7165 m 17.71655,0 m -24.80316,17.7165 m -17.71654,0 m 0,-17.7165 m 17.71654,0 m -24.803148,17.7165 m -17.71654,0 m 0,-17.7165 m 17.71654,0 m 74.409458,-7.0866 m -17.71654,0 m 0,-17.7165 m 17.71654,0 m -24.80315,17.7165 m -17.71655,0 m 0,-17.7165 m 17.71655,0 m -24.80316,17.7165 m -17.71654,0 m 0,-17.7165 m 17.71654,0 m -24.803148,17.7165 m -17.71654,0 m 0,-17.7165 m 17.71654,0 m 74.409458,-7.0867 m -17.71654,0 m 0,-17.7165 m 17.71654,0 m -24.80315,17.7165 m -17.71655,0 m 0,-17.7165 m 17.71655,0 m -24.80316,17.7165 m -17.71654,0 m 0,-17.7165 m 17.71654,0 m -24.803148,17.7165 m -17.71654,0 m 0,-17.7165 m 17.71654,0 m 74.409458,-7.0866 m -17.71654,0 m 0,-17.7165 m 17.71654,0 m -24.80315,17.7165 m -17.71655,0 m 0,-17.7165 m 17.71655,0 m -24.80316,17.7165 m -17.71654,0 m 0,-17.7165 m 17.71654,0 m -24.803148,17.7165 m -17.71654,0 m 0,-17.7165 m 17.71654,0 m 74.409458,-7.0867 m -17.71654,0 m 0,-17.716499 m 17.71654,0 m -24.80315,17.716499 m -17.71655,0 m 0,-17.716499 m 17.71655,0 M 119.9169,106.56473 m -17.71654,0 m 0,-17.716499 m 17.71654,0 M 95.113752,106.56473 m -17.71654,0 m 0,-17.716499 m 17.71654,0 m 74.409458,-7.0866 m -17.71654,0 m 0,-17.7165 m 17.71654,0 m -24.80315,17.7165 m -17.71655,0 m 0,-17.7165 m 17.71655,0 m -24.80316,17.7165 m -17.71654,0 m 0,-17.7165 m 17.71654,0 m -24.803148,17.7165 m -17.71654,0 m 0,-17.7165 m 17.71654,0 M 591.17681,478.61203 m -17.7165,0 m 0,-17.7165 m 17.7165,0 m -24.8031,17.7165 m -17.7166,0 m 0,-17.7165 m 17.7166,0 m -24.8032,17.7165 m -17.7165,0 m 0,-17.7165 m 17.7165,0 m -24.8032,17.7165 m -17.7165,0 m 0,-17.7165 m 17.7165,0 m 74.4095,-7.0866 m -17.7165,0 m 0,-17.7166 m 17.7165,0 m -24.8031,17.7166 m -17.7166,0 m 0,-17.7166 m 17.7166,0 m -24.8032,17.7166 m -17.7165,0 m 0,-17.7166 m 17.7165,0 m -24.8032,17.7166 m -17.7165,0 m 0,-17.7166 m 17.7165,0 m 74.4095,-7.0866 m -17.7165,0 m 0,-17.7165 m 17.7165,0 m -24.8031,17.7165 m -17.7166,0 m 0,-17.7165 m 17.7166,0 m -24.8032,17.7165 m -17.7165,0 m 0,-17.7165 m 17.7165,0 m -24.8032,17.7165 m -17.7165,0 m 0,-17.7165 m 17.7165,0 m 74.4095,-7.0866 m -17.7165,0 m 0,-17.7166 m 17.7165,0 m -24.8031,17.7166 m -17.7166,0 m 0,-17.7166 m 17.7166,0 m -24.8032,17.7166 m -17.7165,0 m 0,-17.7166 m 17.7165,0 m -24.8032,17.7166 m -17.7165,0 m 0,-17.7166 m 17.7165,0 m 74.4095,-7.0866 m -17.7165,0 m 0,-17.7165 m 17.7165,0 m -24.8031,17.7165 m -17.7166,0 m 0,-17.7165 m 17.7166,0 m -24.8032,17.7165 m -17.7165,0 m 0,-17.7165 m 17.7165,0 m -24.8032,17.7165 m -17.7165,0 m 0,-17.7165 m 17.7165,0 m 74.4095,-7.0866 m -17.7165,0 m 0,-17.7166 m 17.7165,0 m -24.8031,17.7166 m -17.7166,0 m 0,-17.7166 m 17.7166,0 m -24.8032,17.7166 m -17.7165,0 m 0,-17.7166 m 17.7165,0 m -24.8032,17.7166 m -17.7165,0 m 0,-17.7166 m 17.7165,0 m 74.4095,-7.0866 m -17.7165,0 m 0,-17.7165 m 17.7165,0 m -24.8031,17.7165 m -17.7166,0 m 0,-17.7165 m 17.7166,0 m -24.8032,17.7165 m -17.7165,0 m 0,-17.7165 m 17.7165,0 m -24.8032,17.7165 m -17.7165,0 m 0,-17.7165 m 17.7165,0 m 74.4095,-7.0866 m -17.7165,0 m 0,-17.7166 m 17.7165,0 m -24.8031,17.7166 m -17.7166,0 m 0,-17.7166 m 17.7166,0 m -24.8032,17.7166 m -17.7165,0 m 0,-17.7166 m 17.7165,0 m -24.8032,17.7166 m -17.7165,0 m 0,-17.7166 m 17.7165,0 m 74.4095,-7.0866 m -17.7165,0 m 0,-17.7165 m 17.7165,0 m -24.8031,17.7165 m -17.7166,0 m 0,-17.7165 m 17.7166,0 m -24.8032,17.7165 m -17.7165,0 m 0,-17.7165 m 17.7165,0 m -24.8032,17.7165 m -17.7165,0 m 0,-17.7165 m 17.7165,0 m 74.4095,-7.0866 m -17.7165,0 m 0,-17.7166 m 17.7165,0 m -24.8031,17.7166 m -17.7166,0 m 0,-17.7166 m 17.7166,0 m -24.8032,17.7166 m -17.7165,0 m 0,-17.7166 m 17.7165,0 m -24.8032,17.7166 m -17.7165,0 m 0,-17.7166 m 17.7165,0 m 74.4095,-7.0866 m -17.7165,0 m 0,-17.7165 m 17.7165,0 m -24.8031,17.7165 m -17.7166,0 m 0,-17.7165 m 17.7166,0 m -24.8032,17.7165 m -17.7165,0 m 0,-17.7165 m 17.7165,0 m -24.8032,17.7165 m -17.7165,0 m 0,-17.7165 m 17.7165,0 m 74.4095,-7.0867 m -17.7165,0 m 0,-17.7165 m 17.7165,0 m -24.8031,17.7165 m -17.7166,0 m 0,-17.7165 m 17.7166,0 m -24.8032,17.7165 m -17.7165,0 m 0,-17.7165 m 17.7165,0 m -24.8032,17.7165 m -17.7165,0 m 0,-17.7165 m 17.7165,0 m 74.4095,-7.0866 m -17.7165,0 m 0,-17.7165 m 17.7165,0 m -24.8031,17.7165 m -17.7166,0 m 0,-17.7165 m 17.7166,0 m -24.8032,17.7165 m -17.7165,0 m 0,-17.7165 m 17.7165,0 m -24.8032,17.7165 m -17.7165,0 m 0,-17.7165 m 17.7165,0 m 74.4095,-7.0867 m -17.7165,0 m 0,-17.7165 m 17.7165,0 m -24.8031,17.7165 m -17.7166,0 m 0,-17.7165 m 17.7166,0 m -24.8032,17.7165 m -17.7165,0 m 0,-17.7165 m 17.7165,0 m -24.8032,17.7165 m -17.7165,0 m 0,-17.7165 m 17.7165,0 m 74.4095,-7.0866 m -17.7165,0 m 0,-17.7165 m 17.7165,0 m -24.8031,17.7165 m -17.7166,0 m 0,-17.7165 m 17.7166,0 m -24.8032,17.7165 m -17.7165,0 m 0,-17.7165 m 17.7165,0 m -24.8032,17.7165 m -17.7165,0 m 0,-17.7165 m 17.7165,0 m 74.4095,-7.0867 m -17.7165,0 m 0,-17.716499 m 17.7165,0 m -24.8031,17.716499 m -17.7166,0 m 0,-17.716499 m 17.7166,0 m -24.8032,17.716499 m -17.7165,0 m 0,-17.716499 m 17.7165,0 m -24.8032,17.716499 m -17.7165,0 m 0,-17.716499 m 17.7165,0 m 74.4095,-7.0866 m -17.7165,0 m 0,-17.7165 m 17.7165,0 m -24.8031,17.7165 m -17.7166,0 m 0,-17.7165 m 17.7166,0 m -24.8032,17.7165 m -17.7165,0 m 0,-17.7165 m 17.7165,0 m -24.8032,17.7165 m -17.7165,0 m 0,-17.7165 m 17.7165,0 m -141.7323,24.8031 m 17.7166,0 m 0,17.716499 m -17.7166,0 m 67.3229,24.8032 m -17.7166,0 m 0,-17.7165 m 17.7166,0 m 24.8031,42.5196 m -17.7165,0 m 0,-17.7165 m 17.7165,0 m -42.5197,-31.8898 m 0,-17.716499 m 17.7166,0 m 0,17.716499 m 0,-24.803099 m -17.7166,0 m 0,-17.7165 m 17.7166,0 m 24.8031,67.322799 m -17.7165,0 m 0,-17.7165 m 17.7165,0 m -74.4094,0 m 0,17.7165 m -17.7166,0 m 0,-17.7165 m 74.4095,-49.606299 m 17.7165,0 m 0,17.7165 m -17.7165,0 m -49.6063,-17.7165 m 17.7165,0 m 0,17.7165 m -17.7165,0 m -24.8032,0 m 0,-17.7165 m 17.7166,0 m 0,17.7165 m 7.0866,24.803099 m 0,-17.716499 m 17.7165,0 m 0,17.716499 m 24.8032,49.6063 m -17.7166,0 m 0,-17.7165 m 17.7166,0 m -24.8032,0 m 0,17.7165 m -17.7165,0 m 0,-17.7165 m -7.0866,0 m 0,17.7165 m -17.7166,0 m 0,-17.7165 m 74.4095,-31.8898 m 0,-17.716499 m 17.7165,0 m 0,17.716499 m -67.3228,24.8032 m 0,-17.7165 m 17.7165,0 m 0,17.7165 m -49.6063,0 m -17.7165,0 m 0,-17.7165 m 17.7165,0 m -17.7165,-49.606299 m 17.7165,0 m 0,17.7165 m -17.7165,0 m -24.8032,24.803099 m 0,-17.716499 m 17.7166,0 m 0,17.716499 m -42.5197,24.8032 m 0,-17.7165 m 17.7165,0 m 0,17.7165 m 24.8032,24.8031 m -17.7166,0 m 0,-17.7165 m 17.7166,0 m -67.3229,-56.692899 m 0,-17.7165 m 17.7166,0 m 0,17.7165 m 7.0866,-17.7165 m 17.7165,0 m 0,17.7165 m -17.7165,0 m -7.0866,31.889799 m 0,17.7165 m -17.7166,0 m 0,-17.7165 m 67.3229,-31.889799 m -17.7166,0 m 0,-17.7165 m 17.7166,0 m -24.8032,74.409399 m 0,17.7165 m -17.7165,0 m 0,-17.7165 m -24.8032,-49.606299 m 17.7166,0 m 0,17.716499 m -17.7166,0 m 67.3229,24.8032 m -17.7166,0 m 0,-17.7165 m 17.7166,0 m -49.6063,24.8031 m 0,17.7165 m -17.7166,0 m 0,-17.7165 m 24.8032,-31.8898 m 0,-17.716499 m 17.7165,0 m 0,17.716499 m 49.6063,49.6063 m -17.7165,0 m 0,-17.7165 m 17.7165,0 m -148.8189,0 m 0,17.7165 m -17.7165,0 m 0,-17.7165 m 148.8189,-31.8898 m 0,-17.716499 m 17.7165,0 m 0,17.716499 m 106.2992,-17.716499 m 17.7166,0 m 0,17.716499 m -17.7166,0 m -223.2283,0 m 0,-17.716499 m 17.7165,0 m 0,17.716499 m -17.7165,-42.519599 m 17.7165,0 m 0,17.7165 m -17.7165,0 m -24.8032,24.803099 m 0,-17.716499 m 17.7166,0 m 0,17.716499 m -67.3229,-17.716499 m 17.7166,0 m 0,17.716499 m -17.7166,0 m 24.8032,0 m 0,-17.716499 m 17.7165,0 m 0,17.716499 m -17.7165,24.8032 m 0,-17.7165 m 17.7165,0 m 0,17.7165 m 24.8032,24.8031 m -17.7166,0 m 0,-17.7165 m 17.7166,0 m 0,-7.0866 m -17.7166,0 m 0,-17.7165 m 17.7166,0 m -67.3229,-31.889799 m 0,-17.7165 m 17.7166,0 m 0,17.7165 m 7.0866,-17.7165 m 17.7165,0 m 0,17.7165 m -17.7165,0 m -7.0866,31.889799 m 0,17.7165 m -17.7166,0 m 0,-17.7165 m 92.126,42.5196 m -17.7165,0 m 0,-17.7165 m 17.7165,0 m -74.4094,0 m 0,17.7165 m -17.7166,0 m 0,-17.7165 m 92.126,-7.0866 m -17.7165,0 m 0,-17.7165 m 17.7165,0 m 223.2284,24.8031 m 0,17.7165 m -17.7166,0 m 0,-17.7165 m 17.7166,-24.8031 m 0,17.7165 m -17.7166,0 m 0,-17.7165 m 0,-31.889799 m 0,-17.7165 m 17.7166,0 m 0,17.7165 m -248.0315,0 m -17.7166,0 m 0,-17.7165 m 17.7166,0" />
    <path
       inkscape:connector-curvature="0"
       id="face0-cut-4"
       style="fill:none;stroke:#ff0000;stroke-width:0.35433072;stroke-linecap:round;stroke-linejoin:round;stroke-miterlimit:4;stroke-dasharray:none"
       d="m 667.50414,674.00574 630.70876,0 0,-666.1417676 -630.70876,0 0,666.1417676 m 44.39211,-609.294668 -0.7433,1.7946 -1.1825,1.541 -1.5411,1.1826 -1.7946,0.7433 -1.9259,0.2536 -1.9258,-0.2537 -1.7947,-0.7434 -1.541,-1.1825 -1.1825,-1.541 -0.7434,-1.7947 -0.2535,-1.9258 0.2535,-1.9259 0.7434,-1.7946 1.1825,-1.541 1.541,-1.1826 1.7947,-0.7433 1.9258,-0.2537 1.9259,0.2537 1.7946,0.7433 1.5411,1.1826 1.1825,1.541 0.7433,1.7946 0.2536,1.926 -0.2536,1.9259 m 556.29935,0 -0.7434,1.7946 -1.1825,1.541 -1.541,1.1826 -1.7946,0.7433 -1.9259,0.2536 -1.9259,-0.2537 -1.7946,-0.7434 -1.541,-1.1825 -1.1825,-1.541 -0.7434,-1.7947 -0.2537,-1.9258 0.2537,-1.9259 0.7434,-1.7946 1.1825,-1.541 1.541,-1.1826 1.7946,-0.7433 1.9259,-0.2537 1.9259,0.2537 1.7946,0.7433 1.541,1.1826 1.1825,1.541 0.7434,1.7946 0.2537,1.9259 -0.2537,1.9258 m -7.1874,506.893288 1.9259,0.25354 1.7946,0.74336 1.541,1.1825 1.1825,1.54107 0.7434,1.79461 0.2535,1.92586 -0.2535,1.92586 -0.7434,1.79461 -1.1825,1.54107 -1.541,1.18251 -1.7946,0.74335 -1.9259,0.25354 -1.9259,-0.25354 -1.7946,-0.74335 -1.541,-1.18251 -1.1825,-1.54107 -0.7434,-1.79461 -0.2535,-1.92586 0.2537,-1.92586 0.7433,-1.79461 1.1825,-1.54107 1.5411,-1.1825 1.7946,-0.74336 1.9257,-0.25354 m -548.85835,7.44094 -0.2536,1.92586 -0.7433,1.79461 -1.1825,1.54107 -1.5411,1.18251 -1.7946,0.74335 -1.9259,0.25354 -1.9258,-0.25354 -1.7947,-0.74335 -1.541,-1.18251 -1.1825,-1.54107 -0.7434,-1.79461 -0.2535,-1.92586 0.2535,-1.92586 0.7434,-1.79461 1.1825,-1.54107 1.541,-1.1825 1.7947,-0.74336 1.9258,-0.25354 1.9259,0.25354 1.7946,0.74336 1.5411,1.1825 1.1825,1.54107 0.7433,1.79461 0.2536,1.92586 m 369.91655,3.543 58.8189,0 0,49.60631 -58.8189,0 0,-49.60631 m -257.24425,1.3e-4 58.819,-1.3e-4 0,49.60631 -58.8189,0 -1e-4,-49.60618 m 133.2339,24.80303 0.1359,-2.59264 0.4062,-2.56423 0.6719,-2.50773 0.9304,-2.42375 1.1786,-2.31323 1.414,-2.17735 1.6339,-2.01762 1.8358,-1.83579 2.0176,-1.63383 2.1773,-1.41399 2.3133,-1.17865 2.4237,-0.93039 2.5077,-0.67195 2.5643,-0.40613 2.5926,-0.13589 2.5926,0.13589 2.56433,0.40613 2.5077,0.67195 2.4238,0.93039 2.3132,1.17865 2.1773,1.41399 2.0177,1.63383 1.83572,1.83579 1.6339,2.01762 1.414,2.17735 1.1786,2.31323 0.9304,2.42375 0.672,2.50773 0.4061,2.56423 0.1359,2.59264 -0.1359,2.59263 -0.4061,2.56423 -0.672,2.50773 -0.9304,2.42376 -1.1786,2.31322 -1.414,2.17735 -1.6339,2.01763 -1.83572,1.83578 -2.0177,1.63384 -2.1773,1.41399 -2.3132,1.17864 -2.4238,0.9304 -2.5077,0.67194 -2.56433,0.40614 -2.5926,0.13588 -2.5926,-0.13588 -2.5643,-0.40614 -2.5077,-0.67194 -2.4237,-0.9304 -2.3133,-1.17864 -2.1773,-1.41399 -2.0176,-1.63384 -1.8358,-1.83578 -1.6339,-2.01763 -1.414,-2.17735 -1.1786,-2.31322 -0.9304,-2.42376 -0.6719,-2.50773 -0.4062,-2.56423 -0.1359,-2.59263" />
    <path
       inkscape:connector-curvature="0"
       id="face0-interior-0"
       style="fill:none;stroke:#ff0000;stroke-width:0.35433072;stroke-linecap:round;stroke-linejoin:round;stroke-miterlimit:4;stroke-dasharray:none"
       d="m 664.07333,5.5805004 m 0,630.7087096 m 666.14177,0 m 0,-630.7087096 M 1273.368,49.97261 m -1.7946,-0.7433 m -1.541,-1.1825 m -1.1826,-1.5411 m -0.7433,-1.7946 m -0.2536,-1.9259 m 0.2537,-1.9258 m 0.7432,-1.7947 m 1.1826,-1.541 m 1.541,-1.1825 m 1.7946,-0.7434 m 1.9259,-0.2535 m 1.9258,0.2535 m 1.7947,0.7434 m 1.541,1.1825 m 1.1825,1.541 m 0.7434,1.7947 m 0.2535,1.9258 m -0.2537,1.9259 m -0.7432,1.7946 m -1.1825,1.5411 m -1.541,1.1825 m -1.7947,0.7433 m -1.9258,0.2536 m -1.9259,556.0457 m -1.7946,-0.7434 m -1.541,-1.1825 m -1.1826,-1.541 m -0.7433,-1.7946 m -0.2536,-1.9259 m 0.2537,-1.9259 m 0.7434,-1.7946 m 1.1825,-1.541 m 1.541,-1.1825 m 1.7947,-0.7434 m 1.9257,-0.2535 m 1.9258,0.2537 m 1.7947,0.7433 m 1.541,1.1825 m 1.1825,1.5411 m 0.7434,1.7946 m 0.2535,1.9257 m -0.2537,1.9259 m -0.7433,1.7946 m -1.1825,1.541 m -1.5411,1.1825 m -1.7946,0.7434 m -1.9257,0.2535 m -508.81899,-7.4409 m -0.25356,1.9259 m -0.74334,1.7946 m -1.1825,1.541 m -1.54107,1.1825 m -1.79461,0.7434 m -1.92586,0.2535 m -1.92586,-0.2537 m -1.79461,-0.7432 m -1.54107,-1.1825 m -1.18251,-1.541 m -0.74335,-1.7946 m -0.25354,-1.9259 m 0.25355,-1.9259 m 0.74334,-1.7946 m 1.18251,-1.541 m 1.54107,-1.1825 m 1.79461,-0.7434 m 1.92586,-0.2535 m 1.92586,0.2537 m 1.79461,0.7433 m 1.54107,1.1825 m 1.1825,1.5411 m 0.74336,1.7946 m -7.1874,-546.9326 m -1.92586,-0.2536 m -1.79461,-0.7433 m -1.54107,-1.1825 m -1.18251,-1.5411 m -0.74335,-1.7946 m -0.25354,-1.9259 m 0.25355,-1.9258 m 0.74334,-1.7947 m 1.18251,-1.541 m 1.54107,-1.1825 m 1.79461,-0.7434 m 1.92586,-0.2535 m 1.92586,0.2535 m 1.79461,0.7434 m 1.54107,1.1825 m 1.1825,1.541 m 0.74336,1.7947 m 0.25354,1.9258 m -0.25356,1.9259 m -0.74334,1.7946 m -1.1825,1.5411 m -1.54107,1.1825 m -1.79461,0.7433 m -5.46886,370.1701 m 0,58.8189 m -49.60631,0 m 0,-58.8189 m 49.60618,-257.2442 m 1.3e-4,58.819 m -49.60631,0 m 0,-58.8189 m 24.80315,133.2338 m 2.59264,0.1359 m 2.56423,0.4062 m 2.50773,0.6719 m 2.42375,0.9304 m 2.31323,1.1786 m 2.17735,1.414 m 2.01762,1.6339 m 1.83579,1.8357 m 1.63383,2.0177 m 1.41399,2.1773 m 1.17865,2.3132 m 0.93039,2.4238 m 0.67195,2.5077 m 0.40613,2.5643 m 0.13589,2.5926 m -0.13589,2.5926 m -0.40613,2.5643 m -0.67195,2.5077 m -0.93039,2.4237 m -1.17865,2.3133 m -1.41399,2.1773 m -1.63383,2.0176 m -1.83579,1.8358 m -2.01762,1.6339 m -2.17735,1.414 m -2.31323,1.1786 m -2.42375,0.9304 m -2.50773,0.6719 m -2.56423,0.4062 m -2.59264,0.1359 m -2.59263,-0.1359 m -2.56423,-0.4062 m -2.50773,-0.6719 m -2.42376,-0.9304 m -2.31322,-1.1786 m -2.17735,-1.414 m -2.01763,-1.6339 m -1.83578,-1.8358 m -1.63384,-2.0176 m -1.41399,-2.1773 m -1.17864,-2.3133 m -0.9304,-2.4237 m -0.67194,-2.5077 m -0.40614,-2.5643 m -0.13588,-2.5926 m 0.13588,-2.5926 m 0.40614,-2.5643 m 0.67194,-2.5077 m 0.9304,-2.4238 m 1.17864,-2.3132 m 1.41399,-2.1773 m 1.63384,-2.0177 m 1.83578,-1.8357 m 2.01763,-1.6339 m 2.17735,-1.414 m 2.31322,-1.1786 m 2.42376,-0.9304 m 2.50773,-0.672 m 2.56423,-0.4061" />
    <path
       inkscape:connector-curvature="0"
       id="path8-4"
       style="fill:none;stroke:#ff0000;stroke-width:0.35433072;stroke-linecap:round;stroke-linejoin:round;stroke-miterlimit:4;stroke-dasharray:none"
       d="m 664.07333,5.5805004 m 0,630.7087096 m 666.14177,0 m 0,-630.7087096 M 1273.368,49.97261 m -1.7946,-0.7433 m -1.541,-1.1825 m -1.1826,-1.5411 m -0.7433,-1.7946 m -0.2536,-1.9259 m 0.2537,-1.9258 m 0.7432,-1.7947 m 1.1826,-1.541 m 1.541,-1.1825 m 1.7946,-0.7434 m 1.9259,-0.2535 m 1.9258,0.2535 m 1.7947,0.7434 m 1.541,1.1825 m 1.1825,1.541 m 0.7434,1.7947 m 0.2535,1.9258 m -0.2537,1.9259 m -0.7432,1.7946 m -1.1825,1.5411 m -1.541,1.1825 m -1.7947,0.7433 m -1.9258,0.2536 m -1.9259,556.0457 m -1.7946,-0.7434 m -1.541,-1.1825 m -1.1826,-1.541 m -0.7433,-1.7946 m -0.2536,-1.9259 m 0.2537,-1.9259 m 0.7434,-1.7946 m 1.1825,-1.541 m 1.541,-1.1825 m 1.7947,-0.7434 m 1.9257,-0.2535 m 1.9258,0.2537 m 1.7947,0.7433 m 1.541,1.1825 m 1.1825,1.5411 m 0.7434,1.7946 m 0.2535,1.9257 m -0.2537,1.9259 m -0.7433,1.7946 m -1.1825,1.541 m -1.5411,1.1825 m -1.7946,0.7434 m -1.9257,0.2535 m -508.81899,-7.4409 m -0.25356,1.9259 m -0.74334,1.7946 m -1.1825,1.541 m -1.54107,1.1825 m -1.79461,0.7434 m -1.92586,0.2535 m -1.92586,-0.2537 m -1.79461,-0.7432 m -1.54107,-1.1825 m -1.18251,-1.541 m -0.74335,-1.7946 m -0.25354,-1.9259 m 0.25355,-1.9259 m 0.74334,-1.7946 m 1.18251,-1.541 m 1.54107,-1.1825 m 1.79461,-0.7434 m 1.92586,-0.2535 m 1.92586,0.2537 m 1.79461,0.7433 m 1.54107,1.1825 m 1.1825,1.5411 m 0.74336,1.7946 m -7.1874,-546.9326 m -1.92586,-0.2536 m -1.79461,-0.7433 m -1.54107,-1.1825 m -1.18251,-1.5411 m -0.74335,-1.7946 m -0.25354,-1.9259 m 0.25355,-1.9258 m 0.74334,-1.7947 m 1.18251,-1.541 m 1.54107,-1.1825 m 1.79461,-0.7434 m 1.92586,-0.2535 m 1.92586,0.2535 m 1.79461,0.7434 m 1.54107,1.1825 m 1.1825,1.541 m 0.74336,1.7947 m 0.25354,1.9258 m -0.25356,1.9259 m -0.74334,1.7946 m -1.1825,1.5411 m -1.54107,1.1825 m -1.79461,0.7433 m -5.46886,370.1701 m 0,58.8189 m -49.60631,0 m 0,-58.8189 m 49.60618,-257.2442 m 1.3e-4,58.819 m -49.60631,0 m 0,-58.8189 m 24.80315,133.2338 m 2.59264,0.1359 m 2.56423,0.4062 m 2.50773,0.6719 m 2.42375,0.9304 m 2.31323,1.1786 m 2.17735,1.414 m 2.01762,1.6339 m 1.83579,1.8357 m 1.63383,2.0177 m 1.41399,2.1773 m 1.17865,2.3132 m 0.93039,2.4238 m 0.67195,2.5077 m 0.40613,2.5643 m 0.13589,2.5926 m -0.13589,2.5926 m -0.40613,2.5643 m -0.67195,2.5077 m -0.93039,2.4237 m -1.17865,2.3133 m -1.41399,2.1773 m -1.63383,2.0176 m -1.83579,1.8358 m -2.01762,1.6339 m -2.17735,1.414 m -2.31323,1.1786 m -2.42375,0.9304 m -2.50773,0.6719 m -2.56423,0.4062 m -2.59264,0.1359 m -2.59263,-0.1359 m -2.56423,-0.4062 m -2.50773,-0.6719 m -2.42376,-0.9304 m -2.31322,-1.1786 m -2.17735,-1.414 m -2.01763,-1.6339 m -1.83578,-1.8358 m -1.63384,-2.0176 m -1.41399,-2.1773 m -1.17864,-2.3133 m -0.9304,-2.4237 m -0.67194,-2.5077 m -0.40614,-2.5643 m -0.13588,-2.5926 m 0.13588,-2.5926 m 0.40614,-2.5643 m 0.67194,-2.5077 m 0.9304,-2.4238 m 1.17864,-2.3132 m 1.41399,-2.1773 m 1.63384,-2.0177 m 1.83578,-1.8357 m 2.01763,-1.6339 m 2.17735,-1.414 m 2.31322,-1.1786 m 2.42376,-0.9304 m 2.50773,-0.672 m 2.56423,-0.4061" />
    <path
       inkscape:connector-curvature="0"
       id="face0-cut-8"
       style="fill:none;stroke:#ff0000;stroke-width:0.35433072;stroke-linecap:round;stroke-linejoin:round;stroke-miterlimit:4;stroke-dasharray:none"
       d="m 1816.8116,608.39081 0.2414,1.8341 0,63.7796 124.0158,0 0,-666.1418026 -630.7088,0 0,666.1418026 124.0158,0 0,-63.7796 0.2415,-1.8341 0.7079,-1.7092 1.1262,-1.4677 1.4677,-1.1262 1.7092,-0.7079 1.8341,-0.2415 368.504,0 1.8342,0.2415 1.7091,0.7079 1.4677,1.1262 1.1262,1.4677 0.708,1.7092 m -475.6909,-541.886403 -0.7433,-1.7946 -0.2536,-1.9259 0.2536,-1.9258 0.7433,-1.7946 1.1825,-1.5411 1.5411,-1.1825 1.7946,-0.7433 1.9259,-0.2537 1.9258,0.2537 1.7946,0.7433 1.5411,1.1825 1.1825,1.5411 0.7434,1.7946 0.2535,1.9258 -0.2535,1.9259 -0.7434,1.7946 -1.1825,1.5411 -1.5411,1.1825 -1.7946,0.7433 -1.9258,0.2536 -1.9259,-0.2537 -1.7946,-0.7434 -1.5411,-1.1825 -1.1825,-1.541 m 556.2993,0 -0.7433,-1.7946 -0.2537,-1.9259 0.2537,-1.9259 0.7433,-1.7946 1.1826,-1.541 1.541,-1.1825 1.7946,-0.7434 1.9259,-0.2537 1.9258,0.2537 1.7947,0.7434 1.541,1.1825 1.1825,1.541 0.7434,1.7946 0.2537,1.9259 -0.2537,1.9259 -0.7434,1.7946 -1.1825,1.541 -1.541,1.1825 -1.7947,0.7434 -1.9258,0.2537 -1.9259,-0.2537 -1.7946,-0.7434 -1.541,-1.1825 -1.1826,-1.541 m -551.7811,505.352103 1.9259,-0.2535 1.9258,0.2535 1.7946,0.7434 1.5411,1.1825 1.1825,1.541 0.7434,1.7947 0.2535,1.9258 -0.2535,1.9259 -0.7434,1.7946 -1.1825,1.5411 -1.5411,1.1825 -1.7946,0.7433 -1.9258,0.2536 -1.9259,-0.2536 -1.7946,-0.7433 -1.5411,-1.1825 -1.1825,-1.5411 -0.7433,-1.7946 -0.2536,-1.9259 0.2536,-1.9258 0.7433,-1.7947 1.1825,-1.541 1.5411,-1.1825 1.7946,-0.7434 m 551.0378,9.1133 -0.2536,-1.9259 0.2537,-1.9258 0.7434,-1.7947 1.1825,-1.541 1.541,-1.1825 1.7947,-0.7434 1.9257,-0.2535 1.9258,0.2535 1.7947,0.7434 1.541,1.1825 1.1825,1.541 0.7434,1.7947 0.2535,1.9258 -0.2535,1.9259 -0.7434,1.7946 -1.1825,1.5411 -1.541,1.1825 -1.7947,0.7433 -1.9258,0.2536 -1.9259,-0.2536 -1.7946,-0.7433 -1.541,-1.1825 -1.1826,-1.5411 -0.7433,-1.7946" />
    <path
       inkscape:connector-curvature="0"
       id="face0-interior-3"
       style="fill:none;stroke:#ff0000;stroke-width:0.35433072;stroke-linecap:round;stroke-linejoin:round;stroke-miterlimit:4;stroke-dasharray:none"
       d="m 1873.9545,588.39081 m 0.2414,1.8341 m 0,63.7796 m 124.0158,0 m 0,-666.141805 m -630.7088,0 m 0,666.141805 m 124.0158,0 m 0,-63.7796 m 0.2415,-1.8341 m 0.7079,-1.7092 m 1.1262,-1.4677 m 1.4677,-1.1262 m 1.7092,-0.7079 m 1.8341,-0.2415 m 368.504,0 m 1.8342,0.2415 m 1.7091,0.7079 m 1.4677,1.1262 m 1.1262,1.4677 M 1398.2636,46.504405 m -0.7433,-1.7946 m -0.2536,-1.9259 m 0.2536,-1.9258 m 0.7433,-1.7946 m 1.1825,-1.5411 m 1.5411,-1.1825 m 1.7946,-0.7433 m 1.9259,-0.2536 m 1.9258,0.2537 m 1.7946,0.7432 m 1.5411,1.1825 m 1.1825,1.5411 m 0.7434,1.7946 m 0.2535,1.9258 m -0.2535,1.9259 m -0.7434,1.7946 m -1.1825,1.5411 m -1.5411,1.1825 m -1.7946,0.7433 m -1.9258,0.2536 m -1.9259,-0.2537 m -1.7946,-0.7432 m -1.5411,-1.1825 m 555.1168,-1.5411 m -0.7433,-1.7946 m -0.2536,-1.9259 m 0.2537,-1.9258 m 0.7434,-1.7946 m 1.1825,-1.5411 m 1.541,-1.1825 m 1.7947,-0.7433 m 1.9257,-0.2536 m 1.9258,0.2537 m 1.7947,0.7434 m 1.541,1.1825 m 1.1825,1.541 m 0.7434,1.7946 m 0.2535,1.9257 m -0.2537,1.9259 m -0.7432,1.7946 m -1.1825,1.5411 m -1.541,1.1825 m -1.7947,0.7433 m -1.9258,0.2536 m -1.9259,-0.2537 m -1.7946,-0.7434 m -1.541,-1.1825 M 1402.7818,551.85641 m 1.9259,-0.2535 m 1.9258,0.2536 m 1.7946,0.7433 m 1.5411,1.1825 m 1.1825,1.541 m 0.7434,1.7947 m 0.2535,1.9258 m -0.2535,1.9259 m -0.7434,1.7946 m -1.1825,1.5411 m -1.5411,1.1825 m -1.7946,0.7433 m -1.9258,0.2536 m -1.9259,-0.2536 m -1.7946,-0.7433 m -1.5411,-1.1825 m -1.1825,-1.5411 m -0.7433,-1.7946 m -0.2536,-1.9259 m 0.2536,-1.9258 m 0.7433,-1.7947 m 1.1825,-1.541 m 1.5411,-1.1825 m 552.8324,8.3699 m -0.2536,-1.9259 m 0.2537,-1.9258 m 0.7434,-1.7947 m 1.1825,-1.541 m 1.541,-1.1825 m 1.7947,-0.7434 m 1.9257,-0.2535 m 1.9258,0.2536 m 1.7947,0.7433 m 1.541,1.1825 m 1.1825,1.541 m 0.7434,1.7947 m 0.2535,1.9258 m -0.2537,1.9259 m -0.7432,1.7946 m -1.1825,1.5411 m -1.541,1.1825 m -1.7947,0.7433 m -1.9258,0.2536 m -1.9259,-0.2536 m -1.7946,-0.7433 m -1.541,-1.1825 m -1.1826,-1.5411" />
    <path
       inkscape:connector-curvature="0"
       id="path8-1"
       style="fill:none;stroke:#ff0000;stroke-width:0.35433072;stroke-linecap:round;stroke-linejoin:round;stroke-miterlimit:4;stroke-dasharray:none"
       d="m 1873.9545,588.39081 m 0.2414,1.8341 m 0,63.7796 m 124.0158,0 m 0,-666.141805 m -630.7088,0 m 0,666.141805 m 124.0158,0 m 0,-63.7796 m 0.2415,-1.8341 m 0.7079,-1.7092 m 1.1262,-1.4677 m 1.4677,-1.1262 m 1.7092,-0.7079 m 1.8341,-0.2415 m 368.504,0 m 1.8342,0.2415 m 1.7091,0.7079 m 1.4677,1.1262 m 1.1262,1.4677 M 1398.2636,46.504405 m -0.7433,-1.7946 m -0.2536,-1.9259 m 0.2536,-1.9258 m 0.7433,-1.7946 m 1.1825,-1.5411 m 1.5411,-1.1825 m 1.7946,-0.7433 m 1.9259,-0.2536 m 1.9258,0.2537 m 1.7946,0.7432 m 1.5411,1.1825 m 1.1825,1.5411 m 0.7434,1.7946 m 0.2535,1.9258 m -0.2535,1.9259 m -0.7434,1.7946 m -1.1825,1.5411 m -1.5411,1.1825 m -1.7946,0.7433 m -1.9258,0.2536 m -1.9259,-0.2537 m -1.7946,-0.7432 m -1.5411,-1.1825 m 555.1168,-1.5411 m -0.7433,-1.7946 m -0.2536,-1.9259 m 0.2537,-1.9258 m 0.7434,-1.7946 m 1.1825,-1.5411 m 1.541,-1.1825 m 1.7947,-0.7433 m 1.9257,-0.2536 m 1.9258,0.2537 m 1.7947,0.7434 m 1.541,1.1825 m 1.1825,1.541 m 0.7434,1.7946 m 0.2535,1.9257 m -0.2537,1.9259 m -0.7432,1.7946 m -1.1825,1.5411 m -1.541,1.1825 m -1.7947,0.7433 m -1.9258,0.2536 m -1.9259,-0.2537 m -1.7946,-0.7434 m -1.541,-1.1825 M 1402.7818,551.85641 m 1.9259,-0.2535 m 1.9258,0.2536 m 1.7946,0.7433 m 1.5411,1.1825 m 1.1825,1.541 m 0.7434,1.7947 m 0.2535,1.9258 m -0.2535,1.9259 m -0.7434,1.7946 m -1.1825,1.5411 m -1.5411,1.1825 m -1.7946,0.7433 m -1.9258,0.2536 m -1.9259,-0.2536 m -1.7946,-0.7433 m -1.5411,-1.1825 m -1.1825,-1.5411 m -0.7433,-1.7946 m -0.2536,-1.9259 m 0.2536,-1.9258 m 0.7433,-1.7947 m 1.1825,-1.541 m 1.5411,-1.1825 m 552.8324,8.3699 m -0.2536,-1.9259 m 0.2537,-1.9258 m 0.7434,-1.7947 m 1.1825,-1.541 m 1.541,-1.1825 m 1.7947,-0.7434 m 1.9257,-0.2535 m 1.9258,0.2536 m 1.7947,0.7433 m 1.541,1.1825 m 1.1825,1.541 m 0.7434,1.7947 m 0.2535,1.9258 m -0.2537,1.9259 m -0.7432,1.7946 m -1.1825,1.5411 m -1.541,1.1825 m -1.7947,0.7433 m -1.9258,0.2536 m -1.9259,-0.2536 m -1.7946,-0.7433 m -1.541,-1.1825 m -1.1826,-1.5411" />
    <path
       style="fill:none;fill-rule:evenodd;stroke:#ff0000;stroke-width:0.35456946;stroke-linecap:butt;stroke-linejoin:miter;stroke-miterlimit:4;stroke-dasharray:none;stroke-opacity:1"
       d="m 0,688.08788 2125.8072,0 0,2.85702"
       id="path21713"
       inkscape:connector-curvature="0" />
    <g
       transform="matrix(2.2294462,0,0,-2.2294462,-217.97381,689.9806)"
       id="g2995"
       style="fill:#000000;fill-opacity:1;stroke:none;stroke-opacity:1">
      <path
         inkscape:connector-curvature="0"
         id="path12"
         style="fill:#000000;fill-opacity:1;fill-rule:evenodd;stroke:none;stroke-opacity:1"
         d="m 269.1683,148.0671 0,-8.6592 -0.002,3e-4 c 1.5458,-0.0672 2.7383,-0.5803 3.3032,-1.5585 1.3604,-2.3565 -1.4357,-6.5177 -6.2452,-9.2946 -4.8096,-2.7768 -9.8113,-3.1175 -11.172,-0.7611 -0.7917,1.3712 -0.1751,3.3537 1.4262,5.319 l 0,7.6274 12.6898,7.3267 z m -21.456,39.7112 21.456,-12.3877 6e-4,-7.5753 -12.6899,-7.3264 -3e-4,7.575 -21.4565,12.3879 3e-4,11.2062 0.002,0 c -1.5458,0.0669 -2.7383,0.58 -3.303,1.5583 -1.3606,2.3564 1.4355,6.5177 6.245,9.2945 4.8099,2.7768 9.8116,3.1178 11.1719,0.7614 0.7918,-1.3714 0.1755,-3.354 -1.4258,-5.3193 l 0,-10.1746 z" />
      <path
         inkscape:connector-curvature="0"
         id="path14"
         style="fill:#000000;fill-opacity:1;fill-rule:evenodd;stroke:none;stroke-opacity:1"
         d="m 269.168,150.6146 -21.456,-12.3876 -6.5605,3.787 0,14.6532 6.5602,-3.7874 21.4566,12.388 9.7047,-5.6033 -8e-4,-0.002 c 0.8308,1.3051 1.8714,2.0815 3.001,2.0815 2.721,0 4.9266,-4.5023 4.9266,-10.0559 0,-5.5536 -2.2056,-10.0556 -4.9266,-10.0556 -1.5834,0 -2.9923,1.525 -3.8934,3.8942 l -8.8118,5.0876 z m -45.1187,1.2739 -7.4991,4.3297 0.001,0.002 c -0.8311,-1.3051 -1.8717,-2.0815 -3.0013,-2.0815 -2.7207,0 -4.9266,4.5023 -4.9266,10.0559 0,5.5536 2.2059,10.0556 4.9266,10.0556 1.5834,0 2.9923,-1.525 3.8937,-3.8945 l 6.6056,-3.8137 0,-14.6532 z" />
      <path
         inkscape:connector-curvature="0"
         id="path16"
         style="fill:#000000;fill-opacity:1;fill-rule:evenodd;stroke:none;stroke-opacity:1"
         d="m 226.2557,150.6146 0,24.7754 6.56,3.788 12.6901,-7.3265 -6.5602,-3.7879 0,-24.7757 -9.705,-5.6029 -8e-4,0.002 c 0.7146,-1.3723 0.8665,-2.6615 0.3019,-3.64 -1.3604,-2.3561 -6.3624,-2.0154 -11.1719,0.7614 -4.8096,2.7768 -7.6057,6.9381 -6.2453,9.2945 0.7917,1.3714 2.817,1.8286 5.3195,1.4247 l 8.8117,5.0873 z m 23.6628,38.437 7.4991,4.3296 8e-4,-0.002 c -0.7149,1.3723 -0.8668,2.6615 -0.3019,3.6397 1.3604,2.3565 6.3621,2.0157 11.1719,-0.7611 4.8096,-2.7768 7.6057,-6.9381 6.245,-9.2945 -0.7917,-1.3714 -2.8167,-1.8289 -5.3192,-1.4247 l -6.6058,-3.8137 -12.6899,7.3264 z" />
    </g>
  </g>
</svg>
