<?xml version="1.0" encoding="UTF-8" standalone="no"?>
<!-- Created with Inkscape (http://www.inkscape.org/) -->

<svg
   xmlns:dc="http://purl.org/dc/elements/1.1/"
   xmlns:cc="http://creativecommons.org/ns#"
   xmlns:rdf="http://www.w3.org/1999/02/22-rdf-syntax-ns#"
   xmlns:svg="http://www.w3.org/2000/svg"
   xmlns="http://www.w3.org/2000/svg"
   xmlns:sodipodi="http://sodipodi.sourceforge.net/DTD/sodipodi-0.dtd"
   xmlns:inkscape="http://www.inkscape.org/namespaces/inkscape"
   width="600mm"
   height="300mm"
   viewBox="0 0 2125.9843 1062.9921"
   id="svg2"
   version="1.1"
   inkscape:version="0.91 r13725"
   sodipodi:docname="white-5mm-2.svg">
  <defs
     id="defs4" />
  <sodipodi:namedview
     id="base"
     pagecolor="#ffffff"
     bordercolor="#666666"
     borderopacity="1.0"
     inkscape:pageopacity="0.0"
     inkscape:pageshadow="2"
     inkscape:zoom="0.49497475"
     inkscape:cx="1326.6382"
     inkscape:cy="688.97047"
     inkscape:document-units="mm"
     inkscape:current-layer="layer1"
     showgrid="false"
     inkscape:window-width="2092"
     inkscape:window-height="833"
     inkscape:window-x="218"
     inkscape:window-y="156"
     inkscape:window-maximized="0" />
  <metadata
     id="metadata7">
    <rdf:RDF>
      <cc:Work
         rdf:about="">
        <dc:format>image/svg+xml</dc:format>
        <dc:type
           rdf:resource="http://purl.org/dc/dcmitype/StillImage" />
        <dc:title></dc:title>
      </cc:Work>
    </rdf:RDF>
  </metadata>
  <g
     inkscape:label="Laag 1"
     inkscape:groupmode="layer"
     id="layer1"
     transform="translate(0,10.629923)">
    <path
       inkscape:connector-curvature="0"
       id="face0-interior"
       style="fill:none;stroke:#ff0000;stroke-width:0.35433072;stroke-linecap:round;stroke-linejoin:round;stroke-miterlimit:4;stroke-dasharray:none"
       d="m 18.932642,5.5805008 m 0,630.7087292 m 630.708768,0 m 0,-630.7087292 m -35.4331,42.8740302 m -1.9259,-0.25356 m -1.7946,-0.74334 m -1.541,-1.18251 m -1.1825,-1.54106 m -0.7434,-1.79462 m -0.2535,-1.92586 m 0.2537,-1.92586 m 0.7433,-1.79461 m 1.1825,-1.54107 m 1.5409,-1.18251 m 1.7946,-0.74335 m 1.9259,-0.25354 m 1.9259,0.25354 m 1.7946,0.74335 m 1.541,1.18251 m 1.1825,1.54107 m 0.7434,1.79461 m 0.2537,1.92586 m -0.2537,1.92586 m -0.7434,1.79462 m -1.1825,1.54106 m -1.541,1.18251 m -1.7946,0.74335 m -8.3699,556.375649 m -0.7434,-1.7946 m -0.2535,-1.9259 m 0.2537,-1.9258 m 0.7433,-1.7946 m 1.1825,-1.5411 m 1.5411,-1.1825 m 1.7946,-0.7433 m 1.9257,-0.2536 m 1.9259,0.2537 m 1.7946,0.7433 m 1.541,1.1826 m 1.1825,1.541 m 0.7434,1.7946 m 0.2535,1.9257 m -0.2537,1.9259 m -0.7433,1.7946 m -1.1825,1.5411 m -1.5411,1.1825 m -1.7946,0.7434 m -1.9257,0.2535 m -1.9259,-0.2537 m -1.7946,-0.7434 m -1.541,-1.1825 M 54.365712,593.41523 m 1.92586,0.2537 m 1.79462,0.7433 m 1.54107,1.1826 m 1.1825,1.541 m 0.74336,1.7946 m 0.25354,1.9257 m -0.25356,1.9259 m -0.74334,1.7946 m -1.1825,1.5411 m -1.54107,1.1825 m -1.79462,0.7433 m -1.92586,0.2537 m -1.92586,-0.2537 m -1.79461,-0.7433 m -1.54107,-1.1825 m -1.1825,-1.5411 m -0.74336,-1.7946 m -0.25354,-1.9259 m 0.25354,-1.9258 m 0.74336,-1.7946 m 1.1825,-1.5411 m 1.54107,-1.1825 m 1.79461,-0.7433 m 1.92586,-545.214299 m -1.92586,-0.25356 m -1.79461,-0.74334 m -1.54107,-1.18251 m -1.1825,-1.54106 m -0.74336,-1.79462 m -0.25354,-1.92586 m 0.25354,-1.92586 m 0.74336,-1.79461 m 1.1825,-1.54107 m 1.54107,-1.18251 m 1.79461,-0.74335 m 1.92586,-0.25354 m 1.92586,0.25354 m 1.79462,0.74335 m 1.54107,1.18251 m 1.1825,1.54107 m 0.74336,1.79461 m 0.25356,1.92586 m -0.25356,1.92586 m -0.74336,1.79462 m -1.1825,1.54106 m -1.54107,1.18251 m -1.79462,0.74335 M 119.9169,560.10813 m 0,17.7165 m -17.71653,0 m 0,-17.7165 m 148.81894,-31.8898 m 0,-17.7165 m 17.7165,0 m 0,17.7165 m -24.8031,24.8032 m -17.7166,0 m 0,-17.7166 m 17.7166,0 m -67.3229,-31.8897 m 0,-17.7166 m 17.7166,0 m 0,17.7166 m 155.9055,24.8031 m 0,-17.7165 m 17.7165,0 m 0,17.7165 m -166.5354,-42.5197 m 17.7165,0 m 0,17.7166 m -17.7165,0 m 17.7165,56.6929 m 0,17.7165 m -17.7165,0 m 0,-17.7165 M 95.113762,535.30493 m 0,17.7166 m -17.71654,0 m 0,-17.7166 m 116.929188,0 m 0,17.7166 m -17.7166,0 m 0,-17.7166 m 92.126,42.5197 m -17.7165,0 m 0,-17.7165 m 17.7165,0 m -24.8031,17.7165 m -17.7166,0 m 0,-17.7165 m 17.7166,0 m -99.21265,-56.6929 m -17.71654,0 m 0,-17.7166 m 17.71654,0 m 329.52755,24.8032 m 17.7166,0 m 0,17.7165 m -17.7166,0 m 24.8032,0 m 0,-17.7165 m 17.7165,0 m 0,17.7165 m -265.748,-42.5197 m 17.7165,0 m 0,17.7166 m -17.7165,0 m 315.3544,74.4094 m -17.7166,0 m 0,-17.7165 m 17.7166,0 m -389.7639,-49.6063 m 17.7166,0 m 0,17.7165 m -17.7166,0 m 24.8032,0 m 0,-17.7165 m 17.7165,0 m 0,17.7165 m -17.7165,24.8032 m 0,-17.7166 m 17.7165,0 m 0,17.7166 m 329.5276,-67.3229 m 17.7166,0 m 0,17.7166 m -17.7166,0 m -322.441,24.8031 m 0,-17.7165 m 17.7166,0 m 0,17.7165 m 248.0315,31.8898 m 0,17.7165 m -17.7166,0 m 0,-17.7165 m 0,-56.6929 m 0,-17.7166 m 17.7166,0 m 0,17.7166 m 81.4961,-17.7166 m 17.7165,0 m 0,17.7166 m -17.7165,0 m 17.7165,49.6063 m -17.7165,0 m 0,-17.7166 m 17.7165,0 m -42.5197,-7.0866 m 0,-17.7165 m 17.7166,0 m 0,17.7165 m -24.8032,49.6063 m -17.7165,0 m 0,-17.7165 m 17.7165,0 m -347.2441,0 m 0,17.7165 m -17.7166,0 m 0,-17.7165 m 364.9607,-7.0866 m -17.7165,0 m 0,-17.7166 m 17.7165,0 m 0,-31.8897 m -17.7165,0 m 0,-17.7166 m 17.7165,0 m -24.8032,74.4095 m 0,17.7165 m -17.7165,0 m 0,-17.7165 m 0,-74.4095 m 17.7165,0 m 0,17.7166 m -17.7165,0 m -230.315,49.6063 m -17.7165,0 m 0,-17.7166 m 17.7165,0 m 230.315,17.7166 m 0,-17.7166 m 17.7165,0 m 0,17.7166 m -272.8346,-49.6063 m -17.7166,0 m 0,-17.7166 m 17.7166,0 m 347.2441,92.126 m -17.7165,0 m 0,-17.7165 m 17.7165,0 m -17.7165,-31.8898 m 0,-17.7165 m 17.7165,0 m 0,17.7165 m -99.2126,7.0866 m 0,17.7166 m -17.7166,0 m 0,-17.7166 m 92.1261,17.7166 m -17.7166,0 m 0,-17.7166 m 17.7166,0 m -42.5197,-7.0866 m 0,-17.7165 m 17.7165,0 m 0,17.7165 m -439.37014,24.8032 m 0,-17.7166 m 17.71653,0 m 0,17.7166 m 31.88978,-67.3229 m 17.71653,0 m 0,17.7166 m -17.71653,0 m 17.71653,49.6063 m -17.71653,0 m 0,-17.7166 m 17.71653,0 m 205.5118,-24.8031 m 17.7166,0 m 0,17.7165 m -17.7166,0 m 17.7166,31.8898 m 0,17.7165 m -17.7166,0 m 0,-17.7165 m 74.4095,-31.8898 m 0,-17.7165 m 17.7165,0 m 0,17.7165 m -24.8031,-24.8031 m -17.7166,0 m 0,-17.7166 m 17.7166,0 m -24.8032,74.4095 m 0,17.7165 m -17.7165,0 m 0,-17.7165 m -31.8898,-7.0866 m -17.7165,0 m 0,-17.7166 m 17.7165,0 m 31.8898,-7.0866 m 0,-17.7165 m 17.7165,0 m 0,17.7165 m -141.7323,-24.8031 m 0,-17.7166 m 17.7166,0 m 0,17.7166 m -216.141788,7.0866 m 17.71654,0 m 0,17.7165 m -17.71654,0 m 223.228388,-42.5197 m 17.7165,0 m 0,17.7166 m -17.7165,0 m 99.2126,49.6063 m 0,-17.7166 m 17.7165,0 m 0,17.7166 m -74.4094,-49.6063 m -17.7166,0 m 0,-17.7166 m 17.7166,0 m 0,67.3229 m -17.7166,0 m 0,-17.7166 m 17.7166,0 M 77.397222,503.41523 m 0,-17.7166 m 17.71654,0 m 0,17.7166 m 248.031548,74.4094 m -17.7166,0 m 0,-17.7165 m 17.7166,0 m -173.6221,17.7165 m -17.71653,0 m 0,-17.7165 m 17.71653,0 m 297.6378,-7.0866 m -17.7165,0 m 0,-17.7166 m 17.7165,0 m -148.8189,24.8032 m 0,17.7165 m -17.7165,0 m 0,-17.7165 m -7.0866,0 m 0,17.7165 m -17.7166,0 m 0,-17.7165 m -173.62204,-74.4095 m 17.71653,0 m 0,17.7166 m -17.71653,0 m 198.42524,49.6063 m 0,-17.7166 m 17.7165,0 m 0,17.7166 m 74.4095,-17.7166 m 0,17.7166 m -17.7166,0 m 0,-17.7166 m -24.8031,-49.6063 m 17.7165,0 m 0,17.7166 m -17.7165,0 m 116.9291,74.4094 m -17.7165,0 m 0,-17.7165 m 17.7165,0 m -67.3228,-74.4095 m 17.7165,0 m 0,17.7166 m -17.7165,0 m 42.5197,74.4094 m -17.7166,0 m 0,-17.7165 m 17.7166,0 m -166.5355,-49.6063 m 17.7166,0 m 0,17.7165 m -17.7166,0 m -124.01573,0 m 0,-17.7165 m 17.71653,0 m 0,17.7165 m -74.409448,31.8898 m 0,17.7165 m -17.71654,0 m 0,-17.7165 m 297.637788,-56.6929 m 0,-17.7166 m 17.7166,0 m 0,17.7166 m -92.126,24.8031 m 0,-17.7165 m 17.7165,0 m 0,17.7165 m -173.62205,24.8032 m -17.71654,0 m 0,-17.7166 m 17.71654,0 m 180.70865,-7.0866 m 0,-17.7165 m 17.7166,0 m 0,17.7165 m -49.6063,7.0866 m 0,17.7166 m -17.7166,0 m 0,-17.7166 m 92.126,42.5197 m -17.7165,0 m 0,-17.7165 m 17.7165,0 m -265.74804,-31.8898 m 0,-17.7165 m 17.71653,0 m 0,17.7165 m 7.08662,0 m 0,-17.7165 m 17.71654,0 m 0,17.7165 m 297.63785,24.8032 m -17.7166,0 m 0,-17.7166 m 17.7166,0 m -17.7166,-7.0866 m 0,-17.7165 m 17.7166,0 m 0,17.7165 m 7.0866,-42.5197 m 17.7165,0 m 0,17.7166 m -17.7165,0 m -304.72445,74.4094 m -17.71654,0 m 0,-17.7165 m 17.71654,0 m 24.80315,-81.4961 m -17.71653,0 m 0,-17.7165 m 17.71653,0 m -24.80315,17.7165 m -17.71654,0 m 0,-17.7165 m 17.71654,0 m -24.80316,17.7165 m -17.71653,0 m 0,-17.7165 m 17.71653,0 m -24.803138,17.7165 m -17.71654,0 m 0,-17.7165 m 17.71654,0 m 74.409448,-7.0866 m -17.71653,0 m 0,-17.7166 m 17.71653,0 m -24.80315,17.7166 m -17.71654,0 m 0,-17.7166 m 17.71654,0 m -24.80316,17.7166 m -17.71653,0 m 0,-17.7166 m 17.71653,0 m -24.803138,17.7166 m -17.71654,0 m 0,-17.7166 m 17.71654,0 m 74.409448,-7.0866 m -17.71654,0 m 0,-17.7165 m 17.71654,0 m -24.80315,17.7165 m -17.71654,0 m 0,-17.7165 m 17.71654,0 m -24.80316,17.7165 m -17.71653,0 m 0,-17.7165 m 17.71653,0 m -24.803148,17.7165 m -17.71653,0 m 0,-17.7165 m 17.71653,0 m 74.409458,-7.0866 m -17.71654,0 m 0,-17.7166 m 17.71654,0 m -24.80315,17.7166 m -17.71654,0 m 0,-17.7166 m 17.71654,0 m -24.80316,17.7166 m -17.71653,0 m 0,-17.7166 m 17.71653,0 m -24.803148,17.7166 m -17.71653,0 m 0,-17.7166 m 17.71653,0 m 74.409458,-7.0866 m -17.71654,0 m 0,-17.7165 m 17.71654,0 m -24.80315,17.7165 m -17.71654,0 m 0,-17.7165 m 17.71654,0 m -24.80316,17.7165 m -17.71653,0 m 0,-17.7165 m 17.71653,0 m -24.803148,17.7165 m -17.71653,0 m 0,-17.7165 m 17.71653,0 m 74.409458,-7.0866 m -17.71654,0 m 0,-17.7166 m 17.71654,0 m -24.80315,17.7166 m -17.71654,0 m 0,-17.7166 m 17.71654,0 m -24.80316,17.7166 m -17.71653,0 m 0,-17.7166 m 17.71653,0 m -24.803148,17.7166 m -17.71653,0 m 0,-17.7166 m 17.71653,0 m 74.409458,-7.0866 m -17.71654,0 m 0,-17.7165 m 17.71654,0 m -24.80315,17.7165 m -17.71654,0 m 0,-17.7165 m 17.71654,0 m -24.80316,17.7165 m -17.71653,0 m 0,-17.7165 m 17.71653,0 m -24.803148,17.7165 m -17.71653,0 m 0,-17.7165 m 17.71653,0 m 74.409458,-7.0866 m -17.71654,0 m 0,-17.7166 m 17.71654,0 m -24.80315,17.7166 m -17.71654,0 m 0,-17.7166 m 17.71654,0 m -24.80316,17.7166 m -17.71653,0 m 0,-17.7166 m 17.71653,0 m -24.803148,17.7166 m -17.71653,0 m 0,-17.7166 m 17.71653,0 m 74.409458,-7.0866 m -17.71654,0 m 0,-17.7165 m 17.71654,0 m -24.80315,17.7165 m -17.71654,0 m 0,-17.7165 m 17.71654,0 m -24.80316,17.7165 m -17.71653,0 m 0,-17.7165 m 17.71653,0 m -24.803148,17.7165 m -17.71653,0 m 0,-17.7165 m 17.71653,0 m 74.409458,-7.0866 m -17.71654,0 m 0,-17.7166 m 17.71654,0 m -24.80315,17.7166 m -17.71654,0 m 0,-17.7166 m 17.71654,0 m -24.80316,17.7166 m -17.71653,0 m 0,-17.7166 m 17.71653,0 m -24.803148,17.7166 m -17.71653,0 m 0,-17.7166 m 17.71653,0 m 74.409458,-7.0866 m -17.71654,0 m 0,-17.7165 m 17.71654,0 m -24.80315,17.7165 m -17.71654,0 m 0,-17.7165 m 17.71654,0 m -24.80316,17.7165 m -17.71653,0 m 0,-17.7165 m 17.71653,0 m -24.803148,17.7165 m -17.71653,0 m 0,-17.7165 m 17.71653,0 m 74.409458,-7.0867 m -17.71654,0 m 0,-17.7165 m 17.71654,0 m -24.80315,17.7165 m -17.71655,0 m 0,-17.7165 m 17.71655,0 m -24.80316,17.7165 m -17.71654,0 m 0,-17.7165 m 17.71654,0 m -24.803148,17.7165 m -17.71654,0 m 0,-17.7165 m 17.71654,0 m 74.409458,-7.0866 m -17.71654,0 m 0,-17.7165 m 17.71654,0 m -24.80315,17.7165 m -17.71655,0 m 0,-17.7165 m 17.71655,0 m -24.80316,17.7165 m -17.71654,0 m 0,-17.7165 m 17.71654,0 m -24.803148,17.7165 m -17.71654,0 m 0,-17.7165 m 17.71654,0 m 74.409458,-7.0867 m -17.71654,0 m 0,-17.7165 m 17.71654,0 m -24.80315,17.7165 m -17.71655,0 m 0,-17.7165 m 17.71655,0 m -24.80316,17.7165 m -17.71654,0 m 0,-17.7165 m 17.71654,0 m -24.803148,17.7165 m -17.71654,0 m 0,-17.7165 m 17.71654,0 m 74.409458,-7.0866 m -17.71654,0 m 0,-17.7165 m 17.71654,0 m -24.80315,17.7165 m -17.71655,0 m 0,-17.7165 m 17.71655,0 m -24.80316,17.7165 m -17.71654,0 m 0,-17.7165 m 17.71654,0 m -24.803148,17.7165 m -17.71654,0 m 0,-17.7165 m 17.71654,0 m 74.409458,-7.0867 m -17.71654,0 m 0,-17.716499 m 17.71654,0 m -24.80315,17.716499 m -17.71655,0 m 0,-17.716499 m 17.71655,0 M 119.9169,106.56473 m -17.71654,0 m 0,-17.716499 m 17.71654,0 M 95.113752,106.56473 m -17.71654,0 m 0,-17.716499 m 17.71654,0 m 74.409458,-7.0866 m -17.71654,0 m 0,-17.7165 m 17.71654,0 m -24.80315,17.7165 m -17.71655,0 m 0,-17.7165 m 17.71655,0 m -24.80316,17.7165 m -17.71654,0 m 0,-17.7165 m 17.71654,0 m -24.803148,17.7165 m -17.71654,0 m 0,-17.7165 m 17.71654,0 M 591.17681,478.61203 m -17.7165,0 m 0,-17.7165 m 17.7165,0 m -24.8031,17.7165 m -17.7166,0 m 0,-17.7165 m 17.7166,0 m -24.8032,17.7165 m -17.7165,0 m 0,-17.7165 m 17.7165,0 m -24.8032,17.7165 m -17.7165,0 m 0,-17.7165 m 17.7165,0 m 74.4095,-7.0866 m -17.7165,0 m 0,-17.7166 m 17.7165,0 m -24.8031,17.7166 m -17.7166,0 m 0,-17.7166 m 17.7166,0 m -24.8032,17.7166 m -17.7165,0 m 0,-17.7166 m 17.7165,0 m -24.8032,17.7166 m -17.7165,0 m 0,-17.7166 m 17.7165,0 m 74.4095,-7.0866 m -17.7165,0 m 0,-17.7165 m 17.7165,0 m -24.8031,17.7165 m -17.7166,0 m 0,-17.7165 m 17.7166,0 m -24.8032,17.7165 m -17.7165,0 m 0,-17.7165 m 17.7165,0 m -24.8032,17.7165 m -17.7165,0 m 0,-17.7165 m 17.7165,0 m 74.4095,-7.0866 m -17.7165,0 m 0,-17.7166 m 17.7165,0 m -24.8031,17.7166 m -17.7166,0 m 0,-17.7166 m 17.7166,0 m -24.8032,17.7166 m -17.7165,0 m 0,-17.7166 m 17.7165,0 m -24.8032,17.7166 m -17.7165,0 m 0,-17.7166 m 17.7165,0 m 74.4095,-7.0866 m -17.7165,0 m 0,-17.7165 m 17.7165,0 m -24.8031,17.7165 m -17.7166,0 m 0,-17.7165 m 17.7166,0 m -24.8032,17.7165 m -17.7165,0 m 0,-17.7165 m 17.7165,0 m -24.8032,17.7165 m -17.7165,0 m 0,-17.7165 m 17.7165,0 m 74.4095,-7.0866 m -17.7165,0 m 0,-17.7166 m 17.7165,0 m -24.8031,17.7166 m -17.7166,0 m 0,-17.7166 m 17.7166,0 m -24.8032,17.7166 m -17.7165,0 m 0,-17.7166 m 17.7165,0 m -24.8032,17.7166 m -17.7165,0 m 0,-17.7166 m 17.7165,0 m 74.4095,-7.0866 m -17.7165,0 m 0,-17.7165 m 17.7165,0 m -24.8031,17.7165 m -17.7166,0 m 0,-17.7165 m 17.7166,0 m -24.8032,17.7165 m -17.7165,0 m 0,-17.7165 m 17.7165,0 m -24.8032,17.7165 m -17.7165,0 m 0,-17.7165 m 17.7165,0 m 74.4095,-7.0866 m -17.7165,0 m 0,-17.7166 m 17.7165,0 m -24.8031,17.7166 m -17.7166,0 m 0,-17.7166 m 17.7166,0 m -24.8032,17.7166 m -17.7165,0 m 0,-17.7166 m 17.7165,0 m -24.8032,17.7166 m -17.7165,0 m 0,-17.7166 m 17.7165,0 m 74.4095,-7.0866 m -17.7165,0 m 0,-17.7165 m 17.7165,0 m -24.8031,17.7165 m -17.7166,0 m 0,-17.7165 m 17.7166,0 m -24.8032,17.7165 m -17.7165,0 m 0,-17.7165 m 17.7165,0 m -24.8032,17.7165 m -17.7165,0 m 0,-17.7165 m 17.7165,0 m 74.4095,-7.0866 m -17.7165,0 m 0,-17.7166 m 17.7165,0 m -24.8031,17.7166 m -17.7166,0 m 0,-17.7166 m 17.7166,0 m -24.8032,17.7166 m -17.7165,0 m 0,-17.7166 m 17.7165,0 m -24.8032,17.7166 m -17.7165,0 m 0,-17.7166 m 17.7165,0 m 74.4095,-7.0866 m -17.7165,0 m 0,-17.7165 m 17.7165,0 m -24.8031,17.7165 m -17.7166,0 m 0,-17.7165 m 17.7166,0 m -24.8032,17.7165 m -17.7165,0 m 0,-17.7165 m 17.7165,0 m -24.8032,17.7165 m -17.7165,0 m 0,-17.7165 m 17.7165,0 m 74.4095,-7.0867 m -17.7165,0 m 0,-17.7165 m 17.7165,0 m -24.8031,17.7165 m -17.7166,0 m 0,-17.7165 m 17.7166,0 m -24.8032,17.7165 m -17.7165,0 m 0,-17.7165 m 17.7165,0 m -24.8032,17.7165 m -17.7165,0 m 0,-17.7165 m 17.7165,0 m 74.4095,-7.0866 m -17.7165,0 m 0,-17.7165 m 17.7165,0 m -24.8031,17.7165 m -17.7166,0 m 0,-17.7165 m 17.7166,0 m -24.8032,17.7165 m -17.7165,0 m 0,-17.7165 m 17.7165,0 m -24.8032,17.7165 m -17.7165,0 m 0,-17.7165 m 17.7165,0 m 74.4095,-7.0867 m -17.7165,0 m 0,-17.7165 m 17.7165,0 m -24.8031,17.7165 m -17.7166,0 m 0,-17.7165 m 17.7166,0 m -24.8032,17.7165 m -17.7165,0 m 0,-17.7165 m 17.7165,0 m -24.8032,17.7165 m -17.7165,0 m 0,-17.7165 m 17.7165,0 m 74.4095,-7.0866 m -17.7165,0 m 0,-17.7165 m 17.7165,0 m -24.8031,17.7165 m -17.7166,0 m 0,-17.7165 m 17.7166,0 m -24.8032,17.7165 m -17.7165,0 m 0,-17.7165 m 17.7165,0 m -24.8032,17.7165 m -17.7165,0 m 0,-17.7165 m 17.7165,0 m 74.4095,-7.0867 m -17.7165,0 m 0,-17.716499 m 17.7165,0 m -24.8031,17.716499 m -17.7166,0 m 0,-17.716499 m 17.7166,0 m -24.8032,17.716499 m -17.7165,0 m 0,-17.716499 m 17.7165,0 m -24.8032,17.716499 m -17.7165,0 m 0,-17.716499 m 17.7165,0 m 74.4095,-7.0866 m -17.7165,0 m 0,-17.7165 m 17.7165,0 m -24.8031,17.7165 m -17.7166,0 m 0,-17.7165 m 17.7166,0 m -24.8032,17.7165 m -17.7165,0 m 0,-17.7165 m 17.7165,0 m -24.8032,17.7165 m -17.7165,0 m 0,-17.7165 m 17.7165,0 m -141.7323,24.8031 m 17.7166,0 m 0,17.716499 m -17.7166,0 m 67.3229,24.8032 m -17.7166,0 m 0,-17.7165 m 17.7166,0 m 24.8031,42.5196 m -17.7165,0 m 0,-17.7165 m 17.7165,0 m -42.5197,-31.8898 m 0,-17.716499 m 17.7166,0 m 0,17.716499 m 0,-24.803099 m -17.7166,0 m 0,-17.7165 m 17.7166,0 m 24.8031,67.322799 m -17.7165,0 m 0,-17.7165 m 17.7165,0 m -74.4094,0 m 0,17.7165 m -17.7166,0 m 0,-17.7165 m 74.4095,-49.606299 m 17.7165,0 m 0,17.7165 m -17.7165,0 m -49.6063,-17.7165 m 17.7165,0 m 0,17.7165 m -17.7165,0 m -24.8032,0 m 0,-17.7165 m 17.7166,0 m 0,17.7165 m 7.0866,24.803099 m 0,-17.716499 m 17.7165,0 m 0,17.716499 m 24.8032,49.6063 m -17.7166,0 m 0,-17.7165 m 17.7166,0 m -24.8032,0 m 0,17.7165 m -17.7165,0 m 0,-17.7165 m -7.0866,0 m 0,17.7165 m -17.7166,0 m 0,-17.7165 m 74.4095,-31.8898 m 0,-17.716499 m 17.7165,0 m 0,17.716499 m -67.3228,24.8032 m 0,-17.7165 m 17.7165,0 m 0,17.7165 m -49.6063,0 m -17.7165,0 m 0,-17.7165 m 17.7165,0 m -17.7165,-49.606299 m 17.7165,0 m 0,17.7165 m -17.7165,0 m -24.8032,24.803099 m 0,-17.716499 m 17.7166,0 m 0,17.716499 m -42.5197,24.8032 m 0,-17.7165 m 17.7165,0 m 0,17.7165 m 24.8032,24.8031 m -17.7166,0 m 0,-17.7165 m 17.7166,0 m -67.3229,-56.692899 m 0,-17.7165 m 17.7166,0 m 0,17.7165 m 7.0866,-17.7165 m 17.7165,0 m 0,17.7165 m -17.7165,0 m -7.0866,31.889799 m 0,17.7165 m -17.7166,0 m 0,-17.7165 m 67.3229,-31.889799 m -17.7166,0 m 0,-17.7165 m 17.7166,0 m -24.8032,74.409399 m 0,17.7165 m -17.7165,0 m 0,-17.7165 m -24.8032,-49.606299 m 17.7166,0 m 0,17.716499 m -17.7166,0 m 67.3229,24.8032 m -17.7166,0 m 0,-17.7165 m 17.7166,0 m -49.6063,24.8031 m 0,17.7165 m -17.7166,0 m 0,-17.7165 m 24.8032,-31.8898 m 0,-17.716499 m 17.7165,0 m 0,17.716499 m 49.6063,49.6063 m -17.7165,0 m 0,-17.7165 m 17.7165,0 m -148.8189,0 m 0,17.7165 m -17.7165,0 m 0,-17.7165 m 148.8189,-31.8898 m 0,-17.716499 m 17.7165,0 m 0,17.716499 m 106.2992,-17.716499 m 17.7166,0 m 0,17.716499 m -17.7166,0 m -223.2283,0 m 0,-17.716499 m 17.7165,0 m 0,17.716499 m -17.7165,-42.519599 m 17.7165,0 m 0,17.7165 m -17.7165,0 m -24.8032,24.803099 m 0,-17.716499 m 17.7166,0 m 0,17.716499 m -67.3229,-17.716499 m 17.7166,0 m 0,17.716499 m -17.7166,0 m 24.8032,0 m 0,-17.716499 m 17.7165,0 m 0,17.716499 m -17.7165,24.8032 m 0,-17.7165 m 17.7165,0 m 0,17.7165 m 24.8032,24.8031 m -17.7166,0 m 0,-17.7165 m 17.7166,0 m 0,-7.0866 m -17.7166,0 m 0,-17.7165 m 17.7166,0 m -67.3229,-31.889799 m 0,-17.7165 m 17.7166,0 m 0,17.7165 m 7.0866,-17.7165 m 17.7165,0 m 0,17.7165 m -17.7165,0 m -7.0866,31.889799 m 0,17.7165 m -17.7166,0 m 0,-17.7165 m 92.126,42.5196 m -17.7165,0 m 0,-17.7165 m 17.7165,0 m -74.4094,0 m 0,17.7165 m -17.7166,0 m 0,-17.7165 m 92.126,-7.0866 m -17.7165,0 m 0,-17.7165 m 17.7165,0 m 223.2284,24.8031 m 0,17.7165 m -17.7166,0 m 0,-17.7165 m 17.7166,-24.8031 m 0,17.7165 m -17.7166,0 m 0,-17.7165 m 0,-31.889799 m 0,-17.7165 m 17.7166,0 m 0,17.7165 m -248.0315,0 m -17.7166,0 m 0,-17.7165 m 17.7166,0" />
    <path
       inkscape:connector-curvature="0"
       id="path8"
       style="fill:none;stroke:#ff0000;stroke-width:0.35433072;stroke-linecap:round;stroke-linejoin:round;stroke-miterlimit:4;stroke-dasharray:none"
       d="m 18.932642,5.5805008 m 0,630.7087292 m 630.708768,0 m 0,-630.7087292 m -35.4331,42.8740302 m -1.9259,-0.25356 m -1.7946,-0.74334 m -1.541,-1.18251 m -1.1825,-1.54106 m -0.7434,-1.79462 m -0.2535,-1.92586 m 0.2537,-1.92586 m 0.7433,-1.79461 m 1.1825,-1.54107 m 1.5409,-1.18251 m 1.7946,-0.74335 m 1.9259,-0.25354 m 1.9259,0.25354 m 1.7946,0.74335 m 1.541,1.18251 m 1.1825,1.54107 m 0.7434,1.79461 m 0.2537,1.92586 m -0.2537,1.92586 m -0.7434,1.79462 m -1.1825,1.54106 m -1.541,1.18251 m -1.7946,0.74335 m -8.3699,556.375649 m -0.7434,-1.7946 m -0.2535,-1.9259 m 0.2537,-1.9258 m 0.7433,-1.7946 m 1.1825,-1.5411 m 1.5411,-1.1825 m 1.7946,-0.7433 m 1.9257,-0.2536 m 1.9259,0.2537 m 1.7946,0.7433 m 1.541,1.1826 m 1.1825,1.541 m 0.7434,1.7946 m 0.2535,1.9257 m -0.2537,1.9259 m -0.7433,1.7946 m -1.1825,1.5411 m -1.5411,1.1825 m -1.7946,0.7434 m -1.9257,0.2535 m -1.9259,-0.2537 m -1.7946,-0.7434 m -1.541,-1.1825 M 54.365712,593.41523 m 1.92586,0.2537 m 1.79462,0.7433 m 1.54107,1.1826 m 1.1825,1.541 m 0.74336,1.7946 m 0.25354,1.9257 m -0.25356,1.9259 m -0.74334,1.7946 m -1.1825,1.5411 m -1.54107,1.1825 m -1.79462,0.7433 m -1.92586,0.2537 m -1.92586,-0.2537 m -1.79461,-0.7433 m -1.54107,-1.1825 m -1.1825,-1.5411 m -0.74336,-1.7946 m -0.25354,-1.9259 m 0.25354,-1.9258 m 0.74336,-1.7946 m 1.1825,-1.5411 m 1.54107,-1.1825 m 1.79461,-0.7433 m 1.92586,-545.214299 m -1.92586,-0.25356 m -1.79461,-0.74334 m -1.54107,-1.18251 m -1.1825,-1.54106 m -0.74336,-1.79462 m -0.25354,-1.92586 m 0.25354,-1.92586 m 0.74336,-1.79461 m 1.1825,-1.54107 m 1.54107,-1.18251 m 1.79461,-0.74335 m 1.92586,-0.25354 m 1.92586,0.25354 m 1.79462,0.74335 m 1.54107,1.18251 m 1.1825,1.54107 m 0.74336,1.79461 m 0.25356,1.92586 m -0.25356,1.92586 m -0.74336,1.79462 m -1.1825,1.54106 m -1.54107,1.18251 m -1.79462,0.74335 M 119.9169,560.10813 m 0,17.7165 m -17.71653,0 m 0,-17.7165 m 148.81894,-31.8898 m 0,-17.7165 m 17.7165,0 m 0,17.7165 m -24.8031,24.8032 m -17.7166,0 m 0,-17.7166 m 17.7166,0 m -67.3229,-31.8897 m 0,-17.7166 m 17.7166,0 m 0,17.7166 m 155.9055,24.8031 m 0,-17.7165 m 17.7165,0 m 0,17.7165 m -166.5354,-42.5197 m 17.7165,0 m 0,17.7166 m -17.7165,0 m 17.7165,56.6929 m 0,17.7165 m -17.7165,0 m 0,-17.7165 M 95.113762,535.30493 m 0,17.7166 m -17.71654,0 m 0,-17.7166 m 116.929188,0 m 0,17.7166 m -17.7166,0 m 0,-17.7166 m 92.126,42.5197 m -17.7165,0 m 0,-17.7165 m 17.7165,0 m -24.8031,17.7165 m -17.7166,0 m 0,-17.7165 m 17.7166,0 m -99.21265,-56.6929 m -17.71654,0 m 0,-17.7166 m 17.71654,0 m 329.52755,24.8032 m 17.7166,0 m 0,17.7165 m -17.7166,0 m 24.8032,0 m 0,-17.7165 m 17.7165,0 m 0,17.7165 m -265.748,-42.5197 m 17.7165,0 m 0,17.7166 m -17.7165,0 m 315.3544,74.4094 m -17.7166,0 m 0,-17.7165 m 17.7166,0 m -389.7639,-49.6063 m 17.7166,0 m 0,17.7165 m -17.7166,0 m 24.8032,0 m 0,-17.7165 m 17.7165,0 m 0,17.7165 m -17.7165,24.8032 m 0,-17.7166 m 17.7165,0 m 0,17.7166 m 329.5276,-67.3229 m 17.7166,0 m 0,17.7166 m -17.7166,0 m -322.441,24.8031 m 0,-17.7165 m 17.7166,0 m 0,17.7165 m 248.0315,31.8898 m 0,17.7165 m -17.7166,0 m 0,-17.7165 m 0,-56.6929 m 0,-17.7166 m 17.7166,0 m 0,17.7166 m 81.4961,-17.7166 m 17.7165,0 m 0,17.7166 m -17.7165,0 m 17.7165,49.6063 m -17.7165,0 m 0,-17.7166 m 17.7165,0 m -42.5197,-7.0866 m 0,-17.7165 m 17.7166,0 m 0,17.7165 m -24.8032,49.6063 m -17.7165,0 m 0,-17.7165 m 17.7165,0 m -347.2441,0 m 0,17.7165 m -17.7166,0 m 0,-17.7165 m 364.9607,-7.0866 m -17.7165,0 m 0,-17.7166 m 17.7165,0 m 0,-31.8897 m -17.7165,0 m 0,-17.7166 m 17.7165,0 m -24.8032,74.4095 m 0,17.7165 m -17.7165,0 m 0,-17.7165 m 0,-74.4095 m 17.7165,0 m 0,17.7166 m -17.7165,0 m -230.315,49.6063 m -17.7165,0 m 0,-17.7166 m 17.7165,0 m 230.315,17.7166 m 0,-17.7166 m 17.7165,0 m 0,17.7166 m -272.8346,-49.6063 m -17.7166,0 m 0,-17.7166 m 17.7166,0 m 347.2441,92.126 m -17.7165,0 m 0,-17.7165 m 17.7165,0 m -17.7165,-31.8898 m 0,-17.7165 m 17.7165,0 m 0,17.7165 m -99.2126,7.0866 m 0,17.7166 m -17.7166,0 m 0,-17.7166 m 92.1261,17.7166 m -17.7166,0 m 0,-17.7166 m 17.7166,0 m -42.5197,-7.0866 m 0,-17.7165 m 17.7165,0 m 0,17.7165 m -439.37014,24.8032 m 0,-17.7166 m 17.71653,0 m 0,17.7166 m 31.88978,-67.3229 m 17.71653,0 m 0,17.7166 m -17.71653,0 m 17.71653,49.6063 m -17.71653,0 m 0,-17.7166 m 17.71653,0 m 205.5118,-24.8031 m 17.7166,0 m 0,17.7165 m -17.7166,0 m 17.7166,31.8898 m 0,17.7165 m -17.7166,0 m 0,-17.7165 m 74.4095,-31.8898 m 0,-17.7165 m 17.7165,0 m 0,17.7165 m -24.8031,-24.8031 m -17.7166,0 m 0,-17.7166 m 17.7166,0 m -24.8032,74.4095 m 0,17.7165 m -17.7165,0 m 0,-17.7165 m -31.8898,-7.0866 m -17.7165,0 m 0,-17.7166 m 17.7165,0 m 31.8898,-7.0866 m 0,-17.7165 m 17.7165,0 m 0,17.7165 m -141.7323,-24.8031 m 0,-17.7166 m 17.7166,0 m 0,17.7166 m -216.141788,7.0866 m 17.71654,0 m 0,17.7165 m -17.71654,0 m 223.228388,-42.5197 m 17.7165,0 m 0,17.7166 m -17.7165,0 m 99.2126,49.6063 m 0,-17.7166 m 17.7165,0 m 0,17.7166 m -74.4094,-49.6063 m -17.7166,0 m 0,-17.7166 m 17.7166,0 m 0,67.3229 m -17.7166,0 m 0,-17.7166 m 17.7166,0 M 77.397222,503.41523 m 0,-17.7166 m 17.71654,0 m 0,17.7166 m 248.031548,74.4094 m -17.7166,0 m 0,-17.7165 m 17.7166,0 m -173.6221,17.7165 m -17.71653,0 m 0,-17.7165 m 17.71653,0 m 297.6378,-7.0866 m -17.7165,0 m 0,-17.7166 m 17.7165,0 m -148.8189,24.8032 m 0,17.7165 m -17.7165,0 m 0,-17.7165 m -7.0866,0 m 0,17.7165 m -17.7166,0 m 0,-17.7165 m -173.62204,-74.4095 m 17.71653,0 m 0,17.7166 m -17.71653,0 m 198.42524,49.6063 m 0,-17.7166 m 17.7165,0 m 0,17.7166 m 74.4095,-17.7166 m 0,17.7166 m -17.7166,0 m 0,-17.7166 m -24.8031,-49.6063 m 17.7165,0 m 0,17.7166 m -17.7165,0 m 116.9291,74.4094 m -17.7165,0 m 0,-17.7165 m 17.7165,0 m -67.3228,-74.4095 m 17.7165,0 m 0,17.7166 m -17.7165,0 m 42.5197,74.4094 m -17.7166,0 m 0,-17.7165 m 17.7166,0 m -166.5355,-49.6063 m 17.7166,0 m 0,17.7165 m -17.7166,0 m -124.01573,0 m 0,-17.7165 m 17.71653,0 m 0,17.7165 m -74.409448,31.8898 m 0,17.7165 m -17.71654,0 m 0,-17.7165 m 297.637788,-56.6929 m 0,-17.7166 m 17.7166,0 m 0,17.7166 m -92.126,24.8031 m 0,-17.7165 m 17.7165,0 m 0,17.7165 m -173.62205,24.8032 m -17.71654,0 m 0,-17.7166 m 17.71654,0 m 180.70865,-7.0866 m 0,-17.7165 m 17.7166,0 m 0,17.7165 m -49.6063,7.0866 m 0,17.7166 m -17.7166,0 m 0,-17.7166 m 92.126,42.5197 m -17.7165,0 m 0,-17.7165 m 17.7165,0 m -265.74804,-31.8898 m 0,-17.7165 m 17.71653,0 m 0,17.7165 m 7.08662,0 m 0,-17.7165 m 17.71654,0 m 0,17.7165 m 297.63785,24.8032 m -17.7166,0 m 0,-17.7166 m 17.7166,0 m -17.7166,-7.0866 m 0,-17.7165 m 17.7166,0 m 0,17.7165 m 7.0866,-42.5197 m 17.7165,0 m 0,17.7166 m -17.7165,0 m -304.72445,74.4094 m -17.71654,0 m 0,-17.7165 m 17.71654,0 m 24.80315,-81.4961 m -17.71653,0 m 0,-17.7165 m 17.71653,0 m -24.80315,17.7165 m -17.71654,0 m 0,-17.7165 m 17.71654,0 m -24.80316,17.7165 m -17.71653,0 m 0,-17.7165 m 17.71653,0 m -24.803138,17.7165 m -17.71654,0 m 0,-17.7165 m 17.71654,0 m 74.409448,-7.0866 m -17.71653,0 m 0,-17.7166 m 17.71653,0 m -24.80315,17.7166 m -17.71654,0 m 0,-17.7166 m 17.71654,0 m -24.80316,17.7166 m -17.71653,0 m 0,-17.7166 m 17.71653,0 m -24.803138,17.7166 m -17.71654,0 m 0,-17.7166 m 17.71654,0 m 74.409448,-7.0866 m -17.71654,0 m 0,-17.7165 m 17.71654,0 m -24.80315,17.7165 m -17.71654,0 m 0,-17.7165 m 17.71654,0 m -24.80316,17.7165 m -17.71653,0 m 0,-17.7165 m 17.71653,0 m -24.803148,17.7165 m -17.71653,0 m 0,-17.7165 m 17.71653,0 m 74.409458,-7.0866 m -17.71654,0 m 0,-17.7166 m 17.71654,0 m -24.80315,17.7166 m -17.71654,0 m 0,-17.7166 m 17.71654,0 m -24.80316,17.7166 m -17.71653,0 m 0,-17.7166 m 17.71653,0 m -24.803148,17.7166 m -17.71653,0 m 0,-17.7166 m 17.71653,0 m 74.409458,-7.0866 m -17.71654,0 m 0,-17.7165 m 17.71654,0 m -24.80315,17.7165 m -17.71654,0 m 0,-17.7165 m 17.71654,0 m -24.80316,17.7165 m -17.71653,0 m 0,-17.7165 m 17.71653,0 m -24.803148,17.7165 m -17.71653,0 m 0,-17.7165 m 17.71653,0 m 74.409458,-7.0866 m -17.71654,0 m 0,-17.7166 m 17.71654,0 m -24.80315,17.7166 m -17.71654,0 m 0,-17.7166 m 17.71654,0 m -24.80316,17.7166 m -17.71653,0 m 0,-17.7166 m 17.71653,0 m -24.803148,17.7166 m -17.71653,0 m 0,-17.7166 m 17.71653,0 m 74.409458,-7.0866 m -17.71654,0 m 0,-17.7165 m 17.71654,0 m -24.80315,17.7165 m -17.71654,0 m 0,-17.7165 m 17.71654,0 m -24.80316,17.7165 m -17.71653,0 m 0,-17.7165 m 17.71653,0 m -24.803148,17.7165 m -17.71653,0 m 0,-17.7165 m 17.71653,0 m 74.409458,-7.0866 m -17.71654,0 m 0,-17.7166 m 17.71654,0 m -24.80315,17.7166 m -17.71654,0 m 0,-17.7166 m 17.71654,0 m -24.80316,17.7166 m -17.71653,0 m 0,-17.7166 m 17.71653,0 m -24.803148,17.7166 m -17.71653,0 m 0,-17.7166 m 17.71653,0 m 74.409458,-7.0866 m -17.71654,0 m 0,-17.7165 m 17.71654,0 m -24.80315,17.7165 m -17.71654,0 m 0,-17.7165 m 17.71654,0 m -24.80316,17.7165 m -17.71653,0 m 0,-17.7165 m 17.71653,0 m -24.803148,17.7165 m -17.71653,0 m 0,-17.7165 m 17.71653,0 m 74.409458,-7.0866 m -17.71654,0 m 0,-17.7166 m 17.71654,0 m -24.80315,17.7166 m -17.71654,0 m 0,-17.7166 m 17.71654,0 m -24.80316,17.7166 m -17.71653,0 m 0,-17.7166 m 17.71653,0 m -24.803148,17.7166 m -17.71653,0 m 0,-17.7166 m 17.71653,0 m 74.409458,-7.0866 m -17.71654,0 m 0,-17.7165 m 17.71654,0 m -24.80315,17.7165 m -17.71654,0 m 0,-17.7165 m 17.71654,0 m -24.80316,17.7165 m -17.71653,0 m 0,-17.7165 m 17.71653,0 m -24.803148,17.7165 m -17.71653,0 m 0,-17.7165 m 17.71653,0 m 74.409458,-7.0867 m -17.71654,0 m 0,-17.7165 m 17.71654,0 m -24.80315,17.7165 m -17.71655,0 m 0,-17.7165 m 17.71655,0 m -24.80316,17.7165 m -17.71654,0 m 0,-17.7165 m 17.71654,0 m -24.803148,17.7165 m -17.71654,0 m 0,-17.7165 m 17.71654,0 m 74.409458,-7.0866 m -17.71654,0 m 0,-17.7165 m 17.71654,0 m -24.80315,17.7165 m -17.71655,0 m 0,-17.7165 m 17.71655,0 m -24.80316,17.7165 m -17.71654,0 m 0,-17.7165 m 17.71654,0 m -24.803148,17.7165 m -17.71654,0 m 0,-17.7165 m 17.71654,0 m 74.409458,-7.0867 m -17.71654,0 m 0,-17.7165 m 17.71654,0 m -24.80315,17.7165 m -17.71655,0 m 0,-17.7165 m 17.71655,0 m -24.80316,17.7165 m -17.71654,0 m 0,-17.7165 m 17.71654,0 m -24.803148,17.7165 m -17.71654,0 m 0,-17.7165 m 17.71654,0 m 74.409458,-7.0866 m -17.71654,0 m 0,-17.7165 m 17.71654,0 m -24.80315,17.7165 m -17.71655,0 m 0,-17.7165 m 17.71655,0 m -24.80316,17.7165 m -17.71654,0 m 0,-17.7165 m 17.71654,0 m -24.803148,17.7165 m -17.71654,0 m 0,-17.7165 m 17.71654,0 m 74.409458,-7.0867 m -17.71654,0 m 0,-17.716499 m 17.71654,0 m -24.80315,17.716499 m -17.71655,0 m 0,-17.716499 m 17.71655,0 M 119.9169,106.56473 m -17.71654,0 m 0,-17.716499 m 17.71654,0 M 95.113752,106.56473 m -17.71654,0 m 0,-17.716499 m 17.71654,0 m 74.409458,-7.0866 m -17.71654,0 m 0,-17.7165 m 17.71654,0 m -24.80315,17.7165 m -17.71655,0 m 0,-17.7165 m 17.71655,0 m -24.80316,17.7165 m -17.71654,0 m 0,-17.7165 m 17.71654,0 m -24.803148,17.7165 m -17.71654,0 m 0,-17.7165 m 17.71654,0 M 591.17681,478.61203 m -17.7165,0 m 0,-17.7165 m 17.7165,0 m -24.8031,17.7165 m -17.7166,0 m 0,-17.7165 m 17.7166,0 m -24.8032,17.7165 m -17.7165,0 m 0,-17.7165 m 17.7165,0 m -24.8032,17.7165 m -17.7165,0 m 0,-17.7165 m 17.7165,0 m 74.4095,-7.0866 m -17.7165,0 m 0,-17.7166 m 17.7165,0 m -24.8031,17.7166 m -17.7166,0 m 0,-17.7166 m 17.7166,0 m -24.8032,17.7166 m -17.7165,0 m 0,-17.7166 m 17.7165,0 m -24.8032,17.7166 m -17.7165,0 m 0,-17.7166 m 17.7165,0 m 74.4095,-7.0866 m -17.7165,0 m 0,-17.7165 m 17.7165,0 m -24.8031,17.7165 m -17.7166,0 m 0,-17.7165 m 17.7166,0 m -24.8032,17.7165 m -17.7165,0 m 0,-17.7165 m 17.7165,0 m -24.8032,17.7165 m -17.7165,0 m 0,-17.7165 m 17.7165,0 m 74.4095,-7.0866 m -17.7165,0 m 0,-17.7166 m 17.7165,0 m -24.8031,17.7166 m -17.7166,0 m 0,-17.7166 m 17.7166,0 m -24.8032,17.7166 m -17.7165,0 m 0,-17.7166 m 17.7165,0 m -24.8032,17.7166 m -17.7165,0 m 0,-17.7166 m 17.7165,0 m 74.4095,-7.0866 m -17.7165,0 m 0,-17.7165 m 17.7165,0 m -24.8031,17.7165 m -17.7166,0 m 0,-17.7165 m 17.7166,0 m -24.8032,17.7165 m -17.7165,0 m 0,-17.7165 m 17.7165,0 m -24.8032,17.7165 m -17.7165,0 m 0,-17.7165 m 17.7165,0 m 74.4095,-7.0866 m -17.7165,0 m 0,-17.7166 m 17.7165,0 m -24.8031,17.7166 m -17.7166,0 m 0,-17.7166 m 17.7166,0 m -24.8032,17.7166 m -17.7165,0 m 0,-17.7166 m 17.7165,0 m -24.8032,17.7166 m -17.7165,0 m 0,-17.7166 m 17.7165,0 m 74.4095,-7.0866 m -17.7165,0 m 0,-17.7165 m 17.7165,0 m -24.8031,17.7165 m -17.7166,0 m 0,-17.7165 m 17.7166,0 m -24.8032,17.7165 m -17.7165,0 m 0,-17.7165 m 17.7165,0 m -24.8032,17.7165 m -17.7165,0 m 0,-17.7165 m 17.7165,0 m 74.4095,-7.0866 m -17.7165,0 m 0,-17.7166 m 17.7165,0 m -24.8031,17.7166 m -17.7166,0 m 0,-17.7166 m 17.7166,0 m -24.8032,17.7166 m -17.7165,0 m 0,-17.7166 m 17.7165,0 m -24.8032,17.7166 m -17.7165,0 m 0,-17.7166 m 17.7165,0 m 74.4095,-7.0866 m -17.7165,0 m 0,-17.7165 m 17.7165,0 m -24.8031,17.7165 m -17.7166,0 m 0,-17.7165 m 17.7166,0 m -24.8032,17.7165 m -17.7165,0 m 0,-17.7165 m 17.7165,0 m -24.8032,17.7165 m -17.7165,0 m 0,-17.7165 m 17.7165,0 m 74.4095,-7.0866 m -17.7165,0 m 0,-17.7166 m 17.7165,0 m -24.8031,17.7166 m -17.7166,0 m 0,-17.7166 m 17.7166,0 m -24.8032,17.7166 m -17.7165,0 m 0,-17.7166 m 17.7165,0 m -24.8032,17.7166 m -17.7165,0 m 0,-17.7166 m 17.7165,0 m 74.4095,-7.0866 m -17.7165,0 m 0,-17.7165 m 17.7165,0 m -24.8031,17.7165 m -17.7166,0 m 0,-17.7165 m 17.7166,0 m -24.8032,17.7165 m -17.7165,0 m 0,-17.7165 m 17.7165,0 m -24.8032,17.7165 m -17.7165,0 m 0,-17.7165 m 17.7165,0 m 74.4095,-7.0867 m -17.7165,0 m 0,-17.7165 m 17.7165,0 m -24.8031,17.7165 m -17.7166,0 m 0,-17.7165 m 17.7166,0 m -24.8032,17.7165 m -17.7165,0 m 0,-17.7165 m 17.7165,0 m -24.8032,17.7165 m -17.7165,0 m 0,-17.7165 m 17.7165,0 m 74.4095,-7.0866 m -17.7165,0 m 0,-17.7165 m 17.7165,0 m -24.8031,17.7165 m -17.7166,0 m 0,-17.7165 m 17.7166,0 m -24.8032,17.7165 m -17.7165,0 m 0,-17.7165 m 17.7165,0 m -24.8032,17.7165 m -17.7165,0 m 0,-17.7165 m 17.7165,0 m 74.4095,-7.0867 m -17.7165,0 m 0,-17.7165 m 17.7165,0 m -24.8031,17.7165 m -17.7166,0 m 0,-17.7165 m 17.7166,0 m -24.8032,17.7165 m -17.7165,0 m 0,-17.7165 m 17.7165,0 m -24.8032,17.7165 m -17.7165,0 m 0,-17.7165 m 17.7165,0 m 74.4095,-7.0866 m -17.7165,0 m 0,-17.7165 m 17.7165,0 m -24.8031,17.7165 m -17.7166,0 m 0,-17.7165 m 17.7166,0 m -24.8032,17.7165 m -17.7165,0 m 0,-17.7165 m 17.7165,0 m -24.8032,17.7165 m -17.7165,0 m 0,-17.7165 m 17.7165,0 m 74.4095,-7.0867 m -17.7165,0 m 0,-17.716499 m 17.7165,0 m -24.8031,17.716499 m -17.7166,0 m 0,-17.716499 m 17.7166,0 m -24.8032,17.716499 m -17.7165,0 m 0,-17.716499 m 17.7165,0 m -24.8032,17.716499 m -17.7165,0 m 0,-17.716499 m 17.7165,0 m 74.4095,-7.0866 m -17.7165,0 m 0,-17.7165 m 17.7165,0 m -24.8031,17.7165 m -17.7166,0 m 0,-17.7165 m 17.7166,0 m -24.8032,17.7165 m -17.7165,0 m 0,-17.7165 m 17.7165,0 m -24.8032,17.7165 m -17.7165,0 m 0,-17.7165 m 17.7165,0 m -141.7323,24.8031 m 17.7166,0 m 0,17.716499 m -17.7166,0 m 67.3229,24.8032 m -17.7166,0 m 0,-17.7165 m 17.7166,0 m 24.8031,42.5196 m -17.7165,0 m 0,-17.7165 m 17.7165,0 m -42.5197,-31.8898 m 0,-17.716499 m 17.7166,0 m 0,17.716499 m 0,-24.803099 m -17.7166,0 m 0,-17.7165 m 17.7166,0 m 24.8031,67.322799 m -17.7165,0 m 0,-17.7165 m 17.7165,0 m -74.4094,0 m 0,17.7165 m -17.7166,0 m 0,-17.7165 m 74.4095,-49.606299 m 17.7165,0 m 0,17.7165 m -17.7165,0 m -49.6063,-17.7165 m 17.7165,0 m 0,17.7165 m -17.7165,0 m -24.8032,0 m 0,-17.7165 m 17.7166,0 m 0,17.7165 m 7.0866,24.803099 m 0,-17.716499 m 17.7165,0 m 0,17.716499 m 24.8032,49.6063 m -17.7166,0 m 0,-17.7165 m 17.7166,0 m -24.8032,0 m 0,17.7165 m -17.7165,0 m 0,-17.7165 m -7.0866,0 m 0,17.7165 m -17.7166,0 m 0,-17.7165 m 74.4095,-31.8898 m 0,-17.716499 m 17.7165,0 m 0,17.716499 m -67.3228,24.8032 m 0,-17.7165 m 17.7165,0 m 0,17.7165 m -49.6063,0 m -17.7165,0 m 0,-17.7165 m 17.7165,0 m -17.7165,-49.606299 m 17.7165,0 m 0,17.7165 m -17.7165,0 m -24.8032,24.803099 m 0,-17.716499 m 17.7166,0 m 0,17.716499 m -42.5197,24.8032 m 0,-17.7165 m 17.7165,0 m 0,17.7165 m 24.8032,24.8031 m -17.7166,0 m 0,-17.7165 m 17.7166,0 m -67.3229,-56.692899 m 0,-17.7165 m 17.7166,0 m 0,17.7165 m 7.0866,-17.7165 m 17.7165,0 m 0,17.7165 m -17.7165,0 m -7.0866,31.889799 m 0,17.7165 m -17.7166,0 m 0,-17.7165 m 67.3229,-31.889799 m -17.7166,0 m 0,-17.7165 m 17.7166,0 m -24.8032,74.409399 m 0,17.7165 m -17.7165,0 m 0,-17.7165 m -24.8032,-49.606299 m 17.7166,0 m 0,17.716499 m -17.7166,0 m 67.3229,24.8032 m -17.7166,0 m 0,-17.7165 m 17.7166,0 m -49.6063,24.8031 m 0,17.7165 m -17.7166,0 m 0,-17.7165 m 24.8032,-31.8898 m 0,-17.716499 m 17.7165,0 m 0,17.716499 m 49.6063,49.6063 m -17.7165,0 m 0,-17.7165 m 17.7165,0 m -148.8189,0 m 0,17.7165 m -17.7165,0 m 0,-17.7165 m 148.8189,-31.8898 m 0,-17.716499 m 17.7165,0 m 0,17.716499 m 106.2992,-17.716499 m 17.7166,0 m 0,17.716499 m -17.7166,0 m -223.2283,0 m 0,-17.716499 m 17.7165,0 m 0,17.716499 m -17.7165,-42.519599 m 17.7165,0 m 0,17.7165 m -17.7165,0 m -24.8032,24.803099 m 0,-17.716499 m 17.7166,0 m 0,17.716499 m -67.3229,-17.716499 m 17.7166,0 m 0,17.716499 m -17.7166,0 m 24.8032,0 m 0,-17.716499 m 17.7165,0 m 0,17.716499 m -17.7165,24.8032 m 0,-17.7165 m 17.7165,0 m 0,17.7165 m 24.8032,24.8031 m -17.7166,0 m 0,-17.7165 m 17.7166,0 m 0,-7.0866 m -17.7166,0 m 0,-17.7165 m 17.7166,0 m -67.3229,-31.889799 m 0,-17.7165 m 17.7166,0 m 0,17.7165 m 7.0866,-17.7165 m 17.7165,0 m 0,17.7165 m -17.7165,0 m -7.0866,31.889799 m 0,17.7165 m -17.7166,0 m 0,-17.7165 m 92.126,42.5196 m -17.7165,0 m 0,-17.7165 m 17.7165,0 m -74.4094,0 m 0,17.7165 m -17.7166,0 m 0,-17.7165 m 92.126,-7.0866 m -17.7165,0 m 0,-17.7165 m 17.7165,0 m 223.2284,24.8031 m 0,17.7165 m -17.7166,0 m 0,-17.7165 m 17.7166,-24.8031 m 0,17.7165 m -17.7166,0 m 0,-17.7165 m 0,-31.889799 m 0,-17.7165 m 17.7166,0 m 0,17.7165 m -248.0315,0 m -17.7166,0 m 0,-17.7165 m 17.7166,0" />
    <path
       inkscape:connector-curvature="0"
       id="face0-interior-0"
       style="fill:none;stroke:#ff0000;stroke-width:0.35433072;stroke-linecap:round;stroke-linejoin:round;stroke-miterlimit:4;stroke-dasharray:none"
       d="m 664.07333,5.5805004 m 0,630.7087096 m 666.14177,0 m 0,-630.7087096 M 1273.368,49.97261 m -1.7946,-0.7433 m -1.541,-1.1825 m -1.1826,-1.5411 m -0.7433,-1.7946 m -0.2536,-1.9259 m 0.2537,-1.9258 m 0.7432,-1.7947 m 1.1826,-1.541 m 1.541,-1.1825 m 1.7946,-0.7434 m 1.9259,-0.2535 m 1.9258,0.2535 m 1.7947,0.7434 m 1.541,1.1825 m 1.1825,1.541 m 0.7434,1.7947 m 0.2535,1.9258 m -0.2537,1.9259 m -0.7432,1.7946 m -1.1825,1.5411 m -1.541,1.1825 m -1.7947,0.7433 m -1.9258,0.2536 m -1.9259,556.0457 m -1.7946,-0.7434 m -1.541,-1.1825 m -1.1826,-1.541 m -0.7433,-1.7946 m -0.2536,-1.9259 m 0.2537,-1.9259 m 0.7434,-1.7946 m 1.1825,-1.541 m 1.541,-1.1825 m 1.7947,-0.7434 m 1.9257,-0.2535 m 1.9258,0.2537 m 1.7947,0.7433 m 1.541,1.1825 m 1.1825,1.5411 m 0.7434,1.7946 m 0.2535,1.9257 m -0.2537,1.9259 m -0.7433,1.7946 m -1.1825,1.541 m -1.5411,1.1825 m -1.7946,0.7434 m -1.9257,0.2535 m -508.81899,-7.4409 m -0.25356,1.9259 m -0.74334,1.7946 m -1.1825,1.541 m -1.54107,1.1825 m -1.79461,0.7434 m -1.92586,0.2535 m -1.92586,-0.2537 m -1.79461,-0.7432 m -1.54107,-1.1825 m -1.18251,-1.541 m -0.74335,-1.7946 m -0.25354,-1.9259 m 0.25355,-1.9259 m 0.74334,-1.7946 m 1.18251,-1.541 m 1.54107,-1.1825 m 1.79461,-0.7434 m 1.92586,-0.2535 m 1.92586,0.2537 m 1.79461,0.7433 m 1.54107,1.1825 m 1.1825,1.5411 m 0.74336,1.7946 m -7.1874,-546.9326 m -1.92586,-0.2536 m -1.79461,-0.7433 m -1.54107,-1.1825 m -1.18251,-1.5411 m -0.74335,-1.7946 m -0.25354,-1.9259 m 0.25355,-1.9258 m 0.74334,-1.7947 m 1.18251,-1.541 m 1.54107,-1.1825 m 1.79461,-0.7434 m 1.92586,-0.2535 m 1.92586,0.2535 m 1.79461,0.7434 m 1.54107,1.1825 m 1.1825,1.541 m 0.74336,1.7947 m 0.25354,1.9258 m -0.25356,1.9259 m -0.74334,1.7946 m -1.1825,1.5411 m -1.54107,1.1825 m -1.79461,0.7433 m -5.46886,370.1701 m 0,58.8189 m -49.60631,0 m 0,-58.8189 m 49.60618,-257.2442 m 1.3e-4,58.819 m -49.60631,0 m 0,-58.8189 m 24.80315,133.2338 m 2.59264,0.1359 m 2.56423,0.4062 m 2.50773,0.6719 m 2.42375,0.9304 m 2.31323,1.1786 m 2.17735,1.414 m 2.01762,1.6339 m 1.83579,1.8357 m 1.63383,2.0177 m 1.41399,2.1773 m 1.17865,2.3132 m 0.93039,2.4238 m 0.67195,2.5077 m 0.40613,2.5643 m 0.13589,2.5926 m -0.13589,2.5926 m -0.40613,2.5643 m -0.67195,2.5077 m -0.93039,2.4237 m -1.17865,2.3133 m -1.41399,2.1773 m -1.63383,2.0176 m -1.83579,1.8358 m -2.01762,1.6339 m -2.17735,1.414 m -2.31323,1.1786 m -2.42375,0.9304 m -2.50773,0.6719 m -2.56423,0.4062 m -2.59264,0.1359 m -2.59263,-0.1359 m -2.56423,-0.4062 m -2.50773,-0.6719 m -2.42376,-0.9304 m -2.31322,-1.1786 m -2.17735,-1.414 m -2.01763,-1.6339 m -1.83578,-1.8358 m -1.63384,-2.0176 m -1.41399,-2.1773 m -1.17864,-2.3133 m -0.9304,-2.4237 m -0.67194,-2.5077 m -0.40614,-2.5643 m -0.13588,-2.5926 m 0.13588,-2.5926 m 0.40614,-2.5643 m 0.67194,-2.5077 m 0.9304,-2.4238 m 1.17864,-2.3132 m 1.41399,-2.1773 m 1.63384,-2.0177 m 1.83578,-1.8357 m 2.01763,-1.6339 m 2.17735,-1.414 m 2.31322,-1.1786 m 2.42376,-0.9304 m 2.50773,-0.672 m 2.56423,-0.4061" />
    <path
       inkscape:connector-curvature="0"
       id="path8-4"
       style="fill:none;stroke:#ff0000;stroke-width:0.35433072;stroke-linecap:round;stroke-linejoin:round;stroke-miterlimit:4;stroke-dasharray:none"
       d="m 664.07333,5.5805004 m 0,630.7087096 m 666.14177,0 m 0,-630.7087096 M 1273.368,49.97261 m -1.7946,-0.7433 m -1.541,-1.1825 m -1.1826,-1.5411 m -0.7433,-1.7946 m -0.2536,-1.9259 m 0.2537,-1.9258 m 0.7432,-1.7947 m 1.1826,-1.541 m 1.541,-1.1825 m 1.7946,-0.7434 m 1.9259,-0.2535 m 1.9258,0.2535 m 1.7947,0.7434 m 1.541,1.1825 m 1.1825,1.541 m 0.7434,1.7947 m 0.2535,1.9258 m -0.2537,1.9259 m -0.7432,1.7946 m -1.1825,1.5411 m -1.541,1.1825 m -1.7947,0.7433 m -1.9258,0.2536 m -1.9259,556.0457 m -1.7946,-0.7434 m -1.541,-1.1825 m -1.1826,-1.541 m -0.7433,-1.7946 m -0.2536,-1.9259 m 0.2537,-1.9259 m 0.7434,-1.7946 m 1.1825,-1.541 m 1.541,-1.1825 m 1.7947,-0.7434 m 1.9257,-0.2535 m 1.9258,0.2537 m 1.7947,0.7433 m 1.541,1.1825 m 1.1825,1.5411 m 0.7434,1.7946 m 0.2535,1.9257 m -0.2537,1.9259 m -0.7433,1.7946 m -1.1825,1.541 m -1.5411,1.1825 m -1.7946,0.7434 m -1.9257,0.2535 m -508.81899,-7.4409 m -0.25356,1.9259 m -0.74334,1.7946 m -1.1825,1.541 m -1.54107,1.1825 m -1.79461,0.7434 m -1.92586,0.2535 m -1.92586,-0.2537 m -1.79461,-0.7432 m -1.54107,-1.1825 m -1.18251,-1.541 m -0.74335,-1.7946 m -0.25354,-1.9259 m 0.25355,-1.9259 m 0.74334,-1.7946 m 1.18251,-1.541 m 1.54107,-1.1825 m 1.79461,-0.7434 m 1.92586,-0.2535 m 1.92586,0.2537 m 1.79461,0.7433 m 1.54107,1.1825 m 1.1825,1.5411 m 0.74336,1.7946 m -7.1874,-546.9326 m -1.92586,-0.2536 m -1.79461,-0.7433 m -1.54107,-1.1825 m -1.18251,-1.5411 m -0.74335,-1.7946 m -0.25354,-1.9259 m 0.25355,-1.9258 m 0.74334,-1.7947 m 1.18251,-1.541 m 1.54107,-1.1825 m 1.79461,-0.7434 m 1.92586,-0.2535 m 1.92586,0.2535 m 1.79461,0.7434 m 1.54107,1.1825 m 1.1825,1.541 m 0.74336,1.7947 m 0.25354,1.9258 m -0.25356,1.9259 m -0.74334,1.7946 m -1.1825,1.5411 m -1.54107,1.1825 m -1.79461,0.7433 m -5.46886,370.1701 m 0,58.8189 m -49.60631,0 m 0,-58.8189 m 49.60618,-257.2442 m 1.3e-4,58.819 m -49.60631,0 m 0,-58.8189 m 24.80315,133.2338 m 2.59264,0.1359 m 2.56423,0.4062 m 2.50773,0.6719 m 2.42375,0.9304 m 2.31323,1.1786 m 2.17735,1.414 m 2.01762,1.6339 m 1.83579,1.8357 m 1.63383,2.0177 m 1.41399,2.1773 m 1.17865,2.3132 m 0.93039,2.4238 m 0.67195,2.5077 m 0.40613,2.5643 m 0.13589,2.5926 m -0.13589,2.5926 m -0.40613,2.5643 m -0.67195,2.5077 m -0.93039,2.4237 m -1.17865,2.3133 m -1.41399,2.1773 m -1.63383,2.0176 m -1.83579,1.8358 m -2.01762,1.6339 m -2.17735,1.414 m -2.31323,1.1786 m -2.42375,0.9304 m -2.50773,0.6719 m -2.56423,0.4062 m -2.59264,0.1359 m -2.59263,-0.1359 m -2.56423,-0.4062 m -2.50773,-0.6719 m -2.42376,-0.9304 m -2.31322,-1.1786 m -2.17735,-1.414 m -2.01763,-1.6339 m -1.83578,-1.8358 m -1.63384,-2.0176 m -1.41399,-2.1773 m -1.17864,-2.3133 m -0.9304,-2.4237 m -0.67194,-2.5077 m -0.40614,-2.5643 m -0.13588,-2.5926 m 0.13588,-2.5926 m 0.40614,-2.5643 m 0.67194,-2.5077 m 0.9304,-2.4238 m 1.17864,-2.3132 m 1.41399,-2.1773 m 1.63384,-2.0177 m 1.83578,-1.8357 m 2.01763,-1.6339 m 2.17735,-1.414 m 2.31322,-1.1786 m 2.42376,-0.9304 m 2.50773,-0.672 m 2.56423,-0.4061" />
    <path
       inkscape:connector-curvature="0"
       id="face0-cut-8"
       style="fill:none;stroke:#ff0000;stroke-width:0.35433072;stroke-linecap:round;stroke-linejoin:round;stroke-miterlimit:4;stroke-dasharray:none"
       d="m 1816.8116,608.39081 0.2414,1.8341 0,63.7796 124.0158,0 0,-666.1418026 -630.7088,0 0,666.1418026 124.0158,0 0,-63.7796 0.2415,-1.8341 0.7079,-1.7092 1.1262,-1.4677 1.4677,-1.1262 1.7092,-0.7079 1.8341,-0.2415 368.504,0 1.8342,0.2415 1.7091,0.7079 1.4677,1.1262 1.1262,1.4677 0.708,1.7092 m -475.6909,-541.886403 -0.7433,-1.7946 -0.2536,-1.9259 0.2536,-1.9258 0.7433,-1.7946 1.1825,-1.5411 1.5411,-1.1825 1.7946,-0.7433 1.9259,-0.2537 1.9258,0.2537 1.7946,0.7433 1.5411,1.1825 1.1825,1.5411 0.7434,1.7946 0.2535,1.9258 -0.2535,1.9259 -0.7434,1.7946 -1.1825,1.5411 -1.5411,1.1825 -1.7946,0.7433 -1.9258,0.2536 -1.9259,-0.2537 -1.7946,-0.7434 -1.5411,-1.1825 -1.1825,-1.541 m 556.2993,0 -0.7433,-1.7946 -0.2537,-1.9259 0.2537,-1.9259 0.7433,-1.7946 1.1826,-1.541 1.541,-1.1825 1.7946,-0.7434 1.9259,-0.2537 1.9258,0.2537 1.7947,0.7434 1.541,1.1825 1.1825,1.541 0.7434,1.7946 0.2537,1.9259 -0.2537,1.9259 -0.7434,1.7946 -1.1825,1.541 -1.541,1.1825 -1.7947,0.7434 -1.9258,0.2537 -1.9259,-0.2537 -1.7946,-0.7434 -1.541,-1.1825 -1.1826,-1.541 m -551.7811,505.352103 1.9259,-0.2535 1.9258,0.2535 1.7946,0.7434 1.5411,1.1825 1.1825,1.541 0.7434,1.7947 0.2535,1.9258 -0.2535,1.9259 -0.7434,1.7946 -1.1825,1.5411 -1.5411,1.1825 -1.7946,0.7433 -1.9258,0.2536 -1.9259,-0.2536 -1.7946,-0.7433 -1.5411,-1.1825 -1.1825,-1.5411 -0.7433,-1.7946 -0.2536,-1.9259 0.2536,-1.9258 0.7433,-1.7947 1.1825,-1.541 1.5411,-1.1825 1.7946,-0.7434 m 551.0378,9.1133 -0.2536,-1.9259 0.2537,-1.9258 0.7434,-1.7947 1.1825,-1.541 1.541,-1.1825 1.7947,-0.7434 1.9257,-0.2535 1.9258,0.2535 1.7947,0.7434 1.541,1.1825 1.1825,1.541 0.7434,1.7947 0.2535,1.9258 -0.2535,1.9259 -0.7434,1.7946 -1.1825,1.5411 -1.541,1.1825 -1.7947,0.7433 -1.9258,0.2536 -1.9259,-0.2536 -1.7946,-0.7433 -1.541,-1.1825 -1.1826,-1.5411 -0.7433,-1.7946" />
    <path
       inkscape:connector-curvature="0"
       id="face0-interior-3"
       style="fill:none;stroke:#ff0000;stroke-width:0.35433072;stroke-linecap:round;stroke-linejoin:round;stroke-miterlimit:4;stroke-dasharray:none"
       d="m 1873.9545,588.39081 m 0.2414,1.8341 m 0,63.7796 m 124.0158,0 m 0,-666.141805 m -630.7088,0 m 0,666.141805 m 124.0158,0 m 0,-63.7796 m 0.2415,-1.8341 m 0.7079,-1.7092 m 1.1262,-1.4677 m 1.4677,-1.1262 m 1.7092,-0.7079 m 1.8341,-0.2415 m 368.504,0 m 1.8342,0.2415 m 1.7091,0.7079 m 1.4677,1.1262 m 1.1262,1.4677 M 1398.2636,46.504405 m -0.7433,-1.7946 m -0.2536,-1.9259 m 0.2536,-1.9258 m 0.7433,-1.7946 m 1.1825,-1.5411 m 1.5411,-1.1825 m 1.7946,-0.7433 m 1.9259,-0.2536 m 1.9258,0.2537 m 1.7946,0.7432 m 1.5411,1.1825 m 1.1825,1.5411 m 0.7434,1.7946 m 0.2535,1.9258 m -0.2535,1.9259 m -0.7434,1.7946 m -1.1825,1.5411 m -1.5411,1.1825 m -1.7946,0.7433 m -1.9258,0.2536 m -1.9259,-0.2537 m -1.7946,-0.7432 m -1.5411,-1.1825 m 555.1168,-1.5411 m -0.7433,-1.7946 m -0.2536,-1.9259 m 0.2537,-1.9258 m 0.7434,-1.7946 m 1.1825,-1.5411 m 1.541,-1.1825 m 1.7947,-0.7433 m 1.9257,-0.2536 m 1.9258,0.2537 m 1.7947,0.7434 m 1.541,1.1825 m 1.1825,1.541 m 0.7434,1.7946 m 0.2535,1.9257 m -0.2537,1.9259 m -0.7432,1.7946 m -1.1825,1.5411 m -1.541,1.1825 m -1.7947,0.7433 m -1.9258,0.2536 m -1.9259,-0.2537 m -1.7946,-0.7434 m -1.541,-1.1825 M 1402.7818,551.85641 m 1.9259,-0.2535 m 1.9258,0.2536 m 1.7946,0.7433 m 1.5411,1.1825 m 1.1825,1.541 m 0.7434,1.7947 m 0.2535,1.9258 m -0.2535,1.9259 m -0.7434,1.7946 m -1.1825,1.5411 m -1.5411,1.1825 m -1.7946,0.7433 m -1.9258,0.2536 m -1.9259,-0.2536 m -1.7946,-0.7433 m -1.5411,-1.1825 m -1.1825,-1.5411 m -0.7433,-1.7946 m -0.2536,-1.9259 m 0.2536,-1.9258 m 0.7433,-1.7947 m 1.1825,-1.541 m 1.5411,-1.1825 m 552.8324,8.3699 m -0.2536,-1.9259 m 0.2537,-1.9258 m 0.7434,-1.7947 m 1.1825,-1.541 m 1.541,-1.1825 m 1.7947,-0.7434 m 1.9257,-0.2535 m 1.9258,0.2536 m 1.7947,0.7433 m 1.541,1.1825 m 1.1825,1.541 m 0.7434,1.7947 m 0.2535,1.9258 m -0.2537,1.9259 m -0.7432,1.7946 m -1.1825,1.5411 m -1.541,1.1825 m -1.7947,0.7433 m -1.9258,0.2536 m -1.9259,-0.2536 m -1.7946,-0.7433 m -1.541,-1.1825 m -1.1826,-1.5411" />
    <path
       inkscape:connector-curvature="0"
       id="path8-1"
       style="fill:none;stroke:#ff0000;stroke-width:0.35433072;stroke-linecap:round;stroke-linejoin:round;stroke-miterlimit:4;stroke-dasharray:none"
       d="m 1873.9545,588.39081 m 0.2414,1.8341 m 0,63.7796 m 124.0158,0 m 0,-666.141805 m -630.7088,0 m 0,666.141805 m 124.0158,0 m 0,-63.7796 m 0.2415,-1.8341 m 0.7079,-1.7092 m 1.1262,-1.4677 m 1.4677,-1.1262 m 1.7092,-0.7079 m 1.8341,-0.2415 m 368.504,0 m 1.8342,0.2415 m 1.7091,0.7079 m 1.4677,1.1262 m 1.1262,1.4677 M 1398.2636,46.504405 m -0.7433,-1.7946 m -0.2536,-1.9259 m 0.2536,-1.9258 m 0.7433,-1.7946 m 1.1825,-1.5411 m 1.5411,-1.1825 m 1.7946,-0.7433 m 1.9259,-0.2536 m 1.9258,0.2537 m 1.7946,0.7432 m 1.5411,1.1825 m 1.1825,1.5411 m 0.7434,1.7946 m 0.2535,1.9258 m -0.2535,1.9259 m -0.7434,1.7946 m -1.1825,1.5411 m -1.5411,1.1825 m -1.7946,0.7433 m -1.9258,0.2536 m -1.9259,-0.2537 m -1.7946,-0.7432 m -1.5411,-1.1825 m 555.1168,-1.5411 m -0.7433,-1.7946 m -0.2536,-1.9259 m 0.2537,-1.9258 m 0.7434,-1.7946 m 1.1825,-1.5411 m 1.541,-1.1825 m 1.7947,-0.7433 m 1.9257,-0.2536 m 1.9258,0.2537 m 1.7947,0.7434 m 1.541,1.1825 m 1.1825,1.541 m 0.7434,1.7946 m 0.2535,1.9257 m -0.2537,1.9259 m -0.7432,1.7946 m -1.1825,1.5411 m -1.541,1.1825 m -1.7947,0.7433 m -1.9258,0.2536 m -1.9259,-0.2537 m -1.7946,-0.7434 m -1.541,-1.1825 M 1402.7818,551.85641 m 1.9259,-0.2535 m 1.9258,0.2536 m 1.7946,0.7433 m 1.5411,1.1825 m 1.1825,1.541 m 0.7434,1.7947 m 0.2535,1.9258 m -0.2535,1.9259 m -0.7434,1.7946 m -1.1825,1.5411 m -1.5411,1.1825 m -1.7946,0.7433 m -1.9258,0.2536 m -1.9259,-0.2536 m -1.7946,-0.7433 m -1.5411,-1.1825 m -1.1825,-1.5411 m -0.7433,-1.7946 m -0.2536,-1.9259 m 0.2536,-1.9258 m 0.7433,-1.7947 m 1.1825,-1.541 m 1.5411,-1.1825 m 552.8324,8.3699 m -0.2536,-1.9259 m 0.2537,-1.9258 m 0.7434,-1.7947 m 1.1825,-1.541 m 1.541,-1.1825 m 1.7947,-0.7434 m 1.9257,-0.2535 m 1.9258,0.2536 m 1.7947,0.7433 m 1.541,1.1825 m 1.1825,1.541 m 0.7434,1.7947 m 0.2535,1.9258 m -0.2537,1.9259 m -0.7432,1.7946 m -1.1825,1.5411 m -1.541,1.1825 m -1.7947,0.7433 m -1.9258,0.2536 m -1.9259,-0.2536 m -1.7946,-0.7433 m -1.541,-1.1825 m -1.1826,-1.5411" />
    <path
       style="fill:none;fill-rule:evenodd;stroke:#ff0000;stroke-width:0.35456946;stroke-linecap:butt;stroke-linejoin:miter;stroke-miterlimit:4;stroke-dasharray:none;stroke-opacity:1"
       d="m 0,688.08788 2125.8072,0 0,2.85702"
       id="path21713"
       inkscape:connector-curvature="0" />
    <path
       inkscape:connector-curvature="0"
       id="face0-cut-8-3"
       style="fill:none;stroke:#ff0000;stroke-width:0.35433072;stroke-linecap:round;stroke-linejoin:round;stroke-miterlimit:4;stroke-dasharray:none"
       d="m 1175.383,608.39084 0.2414,1.8341 0,63.77959 124.0159,0 0,-666.1418579 -630.70888,0 0,666.1418579 124.0158,0 0,-63.77959 0.2415,-1.8341 0.7079,-1.7092 1.1262,-1.4677 1.4677,-1.1262 1.7092,-0.7079 1.8341,-0.2415 368.50398,0 1.8342,0.2415 1.7091,0.7079 1.4677,1.1262 1.1262,1.4677 0.708,1.7092 M 699.69212,66.504372 l -0.7433,-1.7946 -0.2536,-1.9259 0.2536,-1.9258 0.7433,-1.7946 1.1825,-1.5411 1.5411,-1.1825 1.7946,-0.7433 1.9259,-0.2537 1.9258,0.2537 1.7946,0.7433 1.5411,1.1825 1.1825,1.5411 0.7434,1.7946 0.2535,1.9258 -0.2535,1.9259 -0.7434,1.7946 -1.1825,1.5411 -1.5411,1.1825 -1.7946,0.7433 -1.9258,0.2536 -1.9259,-0.2537 -1.7946,-0.7434 -1.5411,-1.1825 -1.1825,-1.541 m 556.29928,0 -0.7433,-1.7946 -0.2537,-1.9259 0.2537,-1.9259 0.7433,-1.7946 1.1826,-1.541 1.541,-1.1825 1.7946,-0.7434 1.9259,-0.2537 1.9258,0.2537 1.7947,0.7434 1.541,1.1825 1.1825,1.541 0.7434,1.7946 0.2537,1.9259 -0.2537,1.9259 -0.7434,1.7946 -1.1825,1.541 -1.541,1.1825 -1.7947,0.7434 -1.9258,0.2537 -1.9259,-0.2537 -1.7946,-0.7434 -1.541,-1.1825 -1.1826,-1.541 m -551.78108,505.352158 1.9259,-0.2535 1.9258,0.2535 1.7946,0.7434 1.5411,1.1825 1.1825,1.541 0.7434,1.7947 0.2535,1.9258 -0.2535,1.9259 -0.7434,1.7946 -1.1825,1.5411 -1.5411,1.1825 -1.7946,0.7433 -1.9258,0.2536 -1.9259,-0.2536 -1.7946,-0.7433 -1.5411,-1.1825 -1.1825,-1.5411 -0.7433,-1.7946 -0.2536,-1.9259 0.2536,-1.9258 0.7433,-1.7947 1.1825,-1.541 1.5411,-1.1825 1.7946,-0.7434 m 551.03778,9.1133 -0.2536,-1.9259 0.2537,-1.9258 0.7434,-1.7947 1.1825,-1.541 1.541,-1.1825 1.7947,-0.7434 1.9257,-0.2535 1.9258,0.2535 1.7947,0.7434 1.541,1.1825 1.1825,1.541 0.7434,1.7947 0.2535,1.9258 -0.2535,1.9259 -0.7434,1.7946 -1.1825,1.5411 -1.541,1.1825 -1.7947,0.7433 -1.9258,0.2536 -1.9259,-0.2536 -1.7946,-0.7433 -1.541,-1.1825 -1.1826,-1.5411 -0.7433,-1.7946" />
    <path
       inkscape:connector-curvature="0"
       id="face0-cut"
       style="fill:none;stroke:#ff0000;stroke-width:0.35433072;stroke-linecap:round;stroke-linejoin:round;stroke-miterlimit:4;stroke-dasharray:none"
       d="m 20.017564,672.26664 630.708726,0 0,-666.1417868 -630.708726,0 0,666.1417868 m 44.392129,-609.294687 -0.74335,1.7946 -1.182508,1.5411 -1.541069,1.1825 -1.794615,0.7433 -1.925859,0.2536 -1.925858,-0.2537 -1.794614,-0.7434 -1.54107,-1.1825 -1.182505,-1.541 -0.743353,-1.7947 -0.253545,-1.9258 0.253545,-1.9259 0.743353,-1.7946 1.182505,-1.541 1.54107,-1.1825 1.794614,-0.7434 1.925858,-0.2537 1.925859,0.2537 1.794615,0.7434 1.541069,1.1825 1.182508,1.541 0.74335,1.7946 0.253545,1.926 -0.253559,1.9259 m 556.299271,0 -0.74335,1.7946 -1.1825,1.5411 -1.54106,1.1825 -1.79461,0.7433 -1.92586,0.2536 -1.92586,-0.2537 -1.79461,-0.7434 -1.54106,-1.1825 -1.18251,-1.541 -0.74335,-1.7947 -0.2537,-1.9258 0.2537,-1.9259 0.74335,-1.7946 1.18251,-1.541 1.54106,-1.1825 1.79461,-0.7434 1.92586,-0.2537 1.92586,0.2537 1.79461,0.7434 1.54106,1.1825 1.1825,1.541 0.74335,1.7946 0.2537,1.9259 -0.2537,1.9258 m -7.18738,506.893287 1.92586,0.25354 1.79461,0.74336 1.54106,1.1825 1.1825,1.54107 0.74335,1.79461 0.25356,1.92586 -0.25356,1.92586 -0.74335,1.79462 -1.1825,1.54107 -1.54106,1.1825 -1.79461,0.74336 -1.92586,0.25354 -1.92586,-0.25354 -1.79461,-0.74336 -1.54106,-1.1825 -1.18251,-1.54107 -0.74335,-1.79462 -0.25356,-1.92586 0.2537,-1.92586 0.74335,-1.79461 1.18251,-1.54107 1.54106,-1.1825 1.79461,-0.74336 1.92572,-0.25354 m -548.858332,7.44094 -0.253545,1.92586 -0.743354,1.79462 -1.182504,1.54107 -1.541069,1.1825 -1.794615,0.74336 -1.925859,0.25354 -1.925858,-0.25354 -1.794614,-0.74336 -1.54107,-1.1825 -1.182505,-1.54107 -0.743354,-1.79462 -0.253544,-1.92586 0.253544,-1.92586 0.743354,-1.79461 1.182505,-1.54107 1.54107,-1.1825 1.794614,-0.74336 1.925858,-0.25354 1.925859,0.25354 1.794615,0.74336 1.541069,1.1825 1.182504,1.54107 0.743354,1.79461 0.253545,1.92586 m 369.916522,3.54301 58.81889,0 0,49.60632 -58.81889,0 0,-49.60632 m -257.24417,1.2e-4 58.81895,-1.2e-4 0,49.60632 -58.8189,0 -5e-5,-49.6062 m 133.23391,24.80304 0.13589,-2.59264 0.40613,-2.56423 0.67195,-2.50773 0.93039,-2.42376 1.17865,-2.31322 1.41398,-2.17736 1.63385,-2.01762 1.83578,-1.83578 2.01762,-1.63384 2.17735,-1.41399 2.31323,-1.17865 2.42375,-0.93039 2.50773,-0.67194 2.56423,-0.40614 2.59263,-0.13588 2.59264,0.13588 2.56423,0.40614 2.50773,0.67194 2.42376,0.93039 2.31323,1.17865 2.17735,1.41399 2.01762,1.63384 1.83579,1.83578 1.63383,2.01762 1.41399,2.17736 1.17865,2.31322 0.93039,2.42376 0.67195,2.50773 0.40613,2.56423 0.13589,2.59264 -0.13589,2.59264 -0.40613,2.56423 -0.67195,2.50773 -0.93039,2.42375 -1.17865,2.31323 -1.41399,2.17735 -1.63383,2.01762 -1.83579,1.83578 -2.01762,1.63384 -2.17735,1.41399 -2.31323,1.17865 -2.42376,0.93039 -2.50773,0.67195 -2.56423,0.40613 -2.59264,0.13589 -2.59263,-0.13589 -2.56423,-0.40613 -2.50773,-0.67195 -2.42375,-0.93039 -2.31323,-1.17865 -2.17735,-1.41399 -2.01762,-1.63384 -1.83578,-1.83578 -1.63385,-2.01762 -1.41398,-2.17735 -1.17865,-2.31323 -0.93039,-2.42375 -0.67195,-2.50773 -0.40613,-2.56423 -0.13589,-2.59264" />
    <path
       inkscape:connector-curvature="0"
       id="face0-interior-7"
       style="fill:none;stroke:#ff0000;stroke-width:0.35433072;stroke-linecap:round;stroke-linejoin:round;stroke-miterlimit:4;stroke-dasharray:none"
       d="m 20.017564,672.26664 m 630.708726,0 m 0,-666.1417868 m -630.708726,0 M 64.409693,62.971953 m -0.74335,1.7946 m -1.182508,1.5411 m -1.541069,1.1825 m -1.794615,0.7433 m -1.925859,0.2536 m -1.925858,-0.2537 m -1.794614,-0.7432 m -1.54107,-1.1825 m -1.182505,-1.5411 m -0.743353,-1.7946 m -0.253544,-1.9259 m 0.253545,-1.9258 m 0.743352,-1.7946 m 1.182505,-1.5411 m 1.54107,-1.1825 m 1.794614,-0.7434 m 1.925858,-0.2535 m 1.925859,0.2537 m 1.794615,0.7432 m 1.541069,1.1825 m 1.182508,1.5411 m 0.74335,1.7946 m 0.253545,1.9258 m 556.045712,1.9259 m -0.74335,1.7946 m -1.1825,1.5411 m -1.54106,1.1825 m -1.79461,0.7433 m -1.92586,0.2536 m -1.92586,-0.2537 m -1.79461,-0.7434 m -1.54106,-1.1825 m -1.18251,-1.541 m -0.74335,-1.7947 m -0.25356,-1.9257 m 0.2537,-1.9258 m 0.74335,-1.7946 m 1.18251,-1.5411 m 1.54106,-1.1825 m 1.79461,-0.7434 m 1.92572,-0.2535 m 1.92586,0.2537 m 1.79461,0.7433 m 1.54106,1.1825 m 1.1825,1.5411 m 0.74335,1.7946 m 0.25356,1.9257 m -7.44094,508.818987 m 1.92586,0.25356 m 1.79461,0.74334 m 1.54106,1.1825 m 1.1825,1.54107 m 0.74335,1.79461 m 0.25356,1.92586 m -0.2537,1.92586 m -0.74321,1.79462 m -1.1825,1.54107 m -1.54106,1.1825 m -1.79461,0.74336 m -1.92586,0.25354 m -1.92586,-0.25356 m -1.79461,-0.74334 m -1.54106,-1.1825 m -1.18251,-1.54107 m -0.74335,-1.79462 m -0.25356,-1.92586 m 0.2537,-1.92586 m 0.74335,-1.79461 m 1.18251,-1.54107 m 1.54106,-1.1825 m 1.79461,-0.74336 m -546.932612,7.1874 m -0.253559,1.92586 m -0.74334,1.79462 m -1.182504,1.54107 m -1.541069,1.1825 m -1.794615,0.74336 m -1.925859,0.25354 m -1.925858,-0.25356 m -1.794614,-0.74334 m -1.54107,-1.1825 m -1.182505,-1.54107 m -0.743354,-1.79462 m -0.253544,-1.92586 m 0.253545,-1.92586 m 0.743353,-1.79461 m 1.182505,-1.54107 m 1.54107,-1.1825 m 1.794614,-0.74336 m 1.925858,-0.25354 m 1.925859,0.25356 m 1.794615,0.74334 m 1.541069,1.1825 m 1.182504,1.54107 m 0.743354,1.79461 m 370.170067,5.46887 m 58.81889,0 m 0,49.60632 m -58.81889,0 m -257.24417,-49.6062 m 58.81895,-1.2e-4 m 0,49.60632 m -58.8189,0 M 310.5695,605.65215 m 0.13589,-2.59264 m 0.40613,-2.56423 m 0.67195,-2.50773 m 0.93039,-2.42376 m 1.17865,-2.31322 m 1.41398,-2.17736 m 1.63383,-2.01762 m 1.83579,-1.83578 m 2.01762,-1.63384 m 2.17735,-1.41399 m 2.31323,-1.17865 m 2.42375,-0.93039 m 2.50773,-0.67194 m 2.56423,-0.40614 m 2.59263,-0.13588 m 2.59264,0.13588 m 2.56423,0.40614 m 2.50773,0.67194 m 2.42376,0.93039 m 2.31323,1.17865 m 2.17735,1.41399 m 2.01762,1.63384 m 1.83579,1.83578 m 1.63383,2.01762 m 1.41399,2.17736 m 1.17865,2.31322 m 0.93039,2.42376 m 0.67195,2.50773 m 0.40613,2.56423 m 0.13589,2.59264 m -0.13589,2.59264 m -0.40613,2.56423 m -0.67195,2.50773 m -0.93039,2.42375 m -1.17865,2.31323 m -1.41399,2.17735 m -1.63383,2.01762 m -1.83579,1.83578 m -2.01762,1.63384 m -2.17735,1.41399 m -2.31323,1.17865 m -2.42376,0.93039 m -2.50773,0.67195 m -2.56423,0.40613 m -2.59264,0.13589 m -2.59263,-0.13589 m -2.56423,-0.40613 m -2.50773,-0.67195 m -2.42375,-0.93039 m -2.31323,-1.17865 m -2.17735,-1.41399 m -2.01762,-1.63384 m -1.83579,-1.83578 m -1.63384,-2.01762 m -1.41398,-2.17735 m -1.17865,-2.31323 m -0.93039,-2.42375 m -0.67195,-2.50773 m -0.40613,-2.56423" />
    <path
       inkscape:connector-curvature="0"
       id="path8-2"
       style="fill:none;stroke:#ff0000;stroke-width:0.35433072;stroke-linecap:round;stroke-linejoin:round;stroke-miterlimit:4;stroke-dasharray:none"
       d="m 20.017564,672.26664 m 630.708726,0 m 0,-666.1417868 m -630.708726,0 M 64.409693,62.971953 m -0.74335,1.7946 m -1.182508,1.5411 m -1.541069,1.1825 m -1.794615,0.7433 m -1.925859,0.2536 m -1.925858,-0.2537 m -1.794614,-0.7432 m -1.54107,-1.1825 m -1.182505,-1.5411 m -0.743353,-1.7946 m -0.253544,-1.9259 m 0.253545,-1.9258 m 0.743352,-1.7946 m 1.182505,-1.5411 m 1.54107,-1.1825 m 1.794614,-0.7434 m 1.925858,-0.2535 m 1.925859,0.2537 m 1.794615,0.7432 m 1.541069,1.1825 m 1.182508,1.5411 m 0.74335,1.7946 m 0.253545,1.9258 m 556.045712,1.9259 m -0.74335,1.7946 m -1.1825,1.5411 m -1.54106,1.1825 m -1.79461,0.7433 m -1.92586,0.2536 m -1.92586,-0.2537 m -1.79461,-0.7434 m -1.54106,-1.1825 m -1.18251,-1.541 m -0.74335,-1.7947 m -0.25356,-1.9257 m 0.2537,-1.9258 m 0.74335,-1.7946 m 1.18251,-1.5411 m 1.54106,-1.1825 m 1.79461,-0.7434 m 1.92572,-0.2535 m 1.92586,0.2537 m 1.79461,0.7433 m 1.54106,1.1825 m 1.1825,1.5411 m 0.74335,1.7946 m 0.25356,1.9257 m -7.44094,508.818987 m 1.92586,0.25356 m 1.79461,0.74334 m 1.54106,1.1825 m 1.1825,1.54107 m 0.74335,1.79461 m 0.25356,1.92586 m -0.2537,1.92586 m -0.74321,1.79462 m -1.1825,1.54107 m -1.54106,1.1825 m -1.79461,0.74336 m -1.92586,0.25354 m -1.92586,-0.25356 m -1.79461,-0.74334 m -1.54106,-1.1825 m -1.18251,-1.54107 m -0.74335,-1.79462 m -0.25356,-1.92586 m 0.2537,-1.92586 m 0.74335,-1.79461 m 1.18251,-1.54107 m 1.54106,-1.1825 m 1.79461,-0.74336 m -546.932612,7.1874 m -0.253559,1.92586 m -0.74334,1.79462 m -1.182504,1.54107 m -1.541069,1.1825 m -1.794615,0.74336 m -1.925859,0.25354 m -1.925858,-0.25356 m -1.794614,-0.74334 m -1.54107,-1.1825 m -1.182505,-1.54107 m -0.743354,-1.79462 m -0.253544,-1.92586 m 0.253545,-1.92586 m 0.743353,-1.79461 m 1.182505,-1.54107 m 1.54107,-1.1825 m 1.794614,-0.74336 m 1.925858,-0.25354 m 1.925859,0.25356 m 1.794615,0.74334 m 1.541069,1.1825 m 1.182504,1.54107 m 0.743354,1.79461 m 370.170067,5.46887 m 58.81889,0 m 0,49.60632 m -58.81889,0 m -257.24417,-49.6062 m 58.81895,-1.2e-4 m 0,49.60632 m -58.8189,0 M 310.5695,605.65215 m 0.13589,-2.59264 m 0.40613,-2.56423 m 0.67195,-2.50773 m 0.93039,-2.42376 m 1.17865,-2.31322 m 1.41398,-2.17736 m 1.63383,-2.01762 m 1.83579,-1.83578 m 2.01762,-1.63384 m 2.17735,-1.41399 m 2.31323,-1.17865 m 2.42375,-0.93039 m 2.50773,-0.67194 m 2.56423,-0.40614 m 2.59263,-0.13588 m 2.59264,0.13588 m 2.56423,0.40614 m 2.50773,0.67194 m 2.42376,0.93039 m 2.31323,1.17865 m 2.17735,1.41399 m 2.01762,1.63384 m 1.83579,1.83578 m 1.63383,2.01762 m 1.41399,2.17736 m 1.17865,2.31322 m 0.93039,2.42376 m 0.67195,2.50773 m 0.40613,2.56423 m 0.13589,2.59264 m -0.13589,2.59264 m -0.40613,2.56423 m -0.67195,2.50773 m -0.93039,2.42375 m -1.17865,2.31323 m -1.41399,2.17735 m -1.63383,2.01762 m -1.83579,1.83578 m -2.01762,1.63384 m -2.17735,1.41399 m -2.31323,1.17865 m -2.42376,0.93039 m -2.50773,0.67195 m -2.56423,0.40613 m -2.59264,0.13589 m -2.59263,-0.13589 m -2.56423,-0.40613 m -2.50773,-0.67195 m -2.42375,-0.93039 m -2.31323,-1.17865 m -2.17735,-1.41399 m -2.01762,-1.63384 m -1.83579,-1.83578 m -1.63384,-2.01762 m -1.41398,-2.17735 m -1.17865,-2.31323 m -0.93039,-2.42375 m -0.67195,-2.50773 m -0.40613,-2.56423" />
  </g>
</svg>
