<?xml version="1.0" standalone="no"?>
<!DOCTYPE svg PUBLIC "-//W3C//DTD SVG 1.1//EN" "http://www.w3.org/Graphics/SVG/1.1/DTD/svg11.dtd">
<svg width="134.70000000414032mm" height="134.57822251845843mm"
 viewBox="0 0 134.70000000414032 134.57822251845843"
 xmlns="http://www.w3.org/2000/svg" version="1.1"
 xmlns:xlink="http://www.w3.org/1999/xlink">
<desc>Output from Flights of Ideas SVG Sketchup Plugin</desc>

  <path id="face0-cut"
 style="fill:none;stroke:#FF0000;stroke-width:0.1;stroke-miterlimit:4;stroke-dasharray:none;stroke-linejoin:round;stroke-linecap:round"
        d="M 129.70000182493013,92.2892225175333 L 129.70000173824815,87.28922252092309 L 104.70000173824799,87.28922255249385 L 104.70000168773437,47.289222552493875 L 129.7000016877342,47.28922252092308 L 129.70000167133267,42.289222584208474 L 133.70000000414032,42.28922252342606 L 133.70000000395862,6.000000002145541 L 129.70000168040727,6.000000000732044 L 129.7000016803825,1.0000000006437233 L 5.0000018232072705,1.0 L 5.000001823233447,6.000000000000043 L 1.0000000039064503,6.000000000019611 L 1.000000004013458,26.00000000269955 L 5.000001823337698,26.00000000267825 L 5.0000018234615595,57.289222518356816 L 1.0000018234615595,57.2892225193151 L 1.0000018310125256,77.28922252444778 L 5.000001831012526,77.28922252348929 L 5.000001823740007,108.5782225211282 L 1.0,108.57822252114809 L 1.000000000098055,128.57822251847784 L 5.000001823843547,128.57822251845838 L 5.00000182386799,133.57822251845843 L 129.7000017966066,133.57822250759358 L 129.70000179658157,128.57822250722035 L 133.70000000393662,128.5782225057667 L 133.70000000375538,92.2892225175333 L 129.70000182493013,92.2892225175333 M 27.597920295856824,128.14119202094182 L 27.327758637438706,127.78911049292601 L 27.157927919178903,127.37910286960118 L 27.10000182386834,126.93911049292714 L 27.157927919174654,126.49911811625265 L 27.327758637430534,126.08911049292615 L 27.597920295845228,125.73702896490764 L 27.950001823861015,125.46686730648955 L 28.360009447185888,125.29703658822973 L 28.8000018238599,125.23911049291901 L 29.23999420053444,125.29703658822544 L 29.650001823860947,125.46686730648138 L 30.002083351879364,125.73702896489601 L 30.272245010297482,126.08911049291187 L 30.4420757285573,126.49911811623673 L 30.500001823868246,126.93911049291077 L 30.442075728561562,127.37910286958532 L 30.272245010305667,127.78911049291179 L 30.002083351890988,128.14119202093025 L 29.65000182387496,128.41135367934834 L 29.23999420055027,128.58118439760813 L 28.8000018238763,128.63911049291886 L 28.36000944720176,128.58118439761245 L 27.950001823875056,128.41135367935652 L 27.597920295856824,128.14119202094182 M 30.442075727925697,7.199118116236818 L 30.50000182323643,7.639110492910774 L 30.44207572793016,8.079102869585398 L 30.272245009674066,8.489110492911891 L 30.002083351259557,8.84119202093035 L 29.650001823243585,9.111353679348426 L 29.23999419991867,9.2811843976083 L 28.800001823244628,9.33911049291902 L 28.360009446570047,9.281184397612535 L 27.950001823243554,9.111353679356654 L 27.59792029522532,8.841192020941946 L 27.327758636806976,8.489110492926116 L 27.157927918547358,8.079102869601257 L 27.10000182323644,7.639110492927202 L 27.157927918542896,7.199118116252677 L 27.32775863679882,6.789110492926113 L 27.5979202952135,6.437028964907739 L 27.950001823229172,6.166867306489507 L 28.36000944655423,5.997036588229719 L 28.800001823228257,5.9391104929190135 L 29.23999419990278,5.997036588225498 L 29.65000182322909,6.166867306481393 L 30.002083351247762,6.4370289648961005 L 30.272245009665895,6.789110492911874 L 30.442075727925697,7.199118116236818 M 60.297920295355894,33.28702896474986 L 60.65000182337151,33.01686730633178 L 61.0600094466964,32.847036588071916 L 61.50000182337041,32.78911049276119 L 61.93999420004499,32.84703658806767 L 62.35000182337153,33.01686730632355 L 62.70208335138993,33.28702896473828 L 62.97224500980805,33.63911049275407 L 63.142075728067894,34.04911811607896 L 63.2000018233786,34.48911049275297 L 63.14207572807214,34.92910286942754 L 62.97224500981626,35.339110492754045 L 62.70208335140153,35.691192020772505 L 62.35000182338574,35.9613536791906 L 61.93999420006081,36.1311843974505 L 61.500001823386825,36.18911049276112 L 61.06000944671226,36.13118439745473 L 60.650001823385935,35.961353679198844 L 60.29792029536732,35.6911920207841 L 60.02775863694899,35.339110492768235 L 59.85792791868934,34.92910286944339 L 59.80000182337865,34.48911049276936 L 59.857927918685306,34.04911811609482 L 60.02775863694099,33.63911049276826 L 60.297920295355894,33.28702896474986 M 41.33999420004476,32.84703658816712 L 41.75000182337149,33.016867306423016 L 42.102083351390135,33.28702896483772 L 42.372245009808026,33.63911049285349 L 42.5420757280681,34.04911811617841 L 42.600001823378605,34.489110492852404 L 42.542075728072106,34.92910286952699 L 42.372245009816055,35.33911049285344 L 42.10208335140155,35.6911920208719 L 41.75000182338589,35.96135367929008 L 41.339994200060616,36.13118439754992 L 40.900001823386845,36.18911049286059 L 40.460009446712036,36.13118439755419 L 40.050001823385955,35.96135367929828 L 39.6979202953673,35.6911920208835 L 39.427758636948994,35.33911049286773 L 39.25792791868933,34.92910286954281 L 39.20000182337864,34.4891104928688 L 39.2579279186853,34.04911811619427 L 39.427758636940965,33.6391104928677 L 39.6979202953559,33.28702896484929 L 40.050001823371474,33.01686730643124 L 40.460009446696205,32.847036588171335 L 40.90000182337022,32.7891104928606 L 41.33999420004476,32.84703658816712 M 41.33999420039247,98.44703658816714 L 41.75000182371876,98.61686730642283 L 42.10208335173719,98.88702896483782 L 42.37224501015504,99.23911049285343 L 42.542075728415114,99.64911811617831 L 42.600001823725805,100.08911049285211 L 42.542075728419164,100.52910286952682 L 42.372245010163496,100.9391104928534 L 42.102083351748604,101.29119202087173 L 41.75000182373299,101.56135367928982 L 41.3399942004083,101.73118439754965 L 40.90000182373393,101.78911049286026 L 40.46000944705982,101.73118439755387 L 40.05000182373311,101.56135367929795 L 39.69792029571448,101.29119202088327 L 39.42775863729659,100.93911049286748 L 39.25792791903655,100.52910286954254 L 39.20000182372604,100.08911049286867 L 39.25792791903251,99.64911811619423 L 39.42775863728818,99.23911049286762 L 39.6979202957031,98.88702896484922 L 40.05000182371889,98.61686730643123 L 40.460009447043944,98.44703658817113 L 40.9000018237177,98.3891104928607 L 41.33999420039247,98.44703658816714 M 63.14207572841525,99.64911811607907 L 63.20000182372594,100.08911049275298 L 63.1420757284195,100.52910286942762 L 62.972245010163604,100.93911049275415 L 62.70208335174887,101.29119202077241 L 62.35000182373305,101.5613536791906 L 61.93999420040818,101.73118439745043 L 61.500001823734166,101.78911049276117 L 61.0600094470596,101.7311843974548 L 60.650001823733064,101.56135367919885 L 60.297920295714434,101.29119202078405 L 60.02775863729653,100.93911049276832 L 59.85792791903647,100.52910286944342 L 59.800001823725964,100.08911049276945 L 59.857927919032434,99.64911811609483 L 60.027758637288116,99.23911049276823 L 60.29792029570302,98.88702896474976 L 60.65000182371885,98.61686730633176 L 61.06000944704374,98.44703658807188 L 61.50000182371775,98.38911049276125 L 61.93999420039232,98.4470365880677 L 62.350001823718856,98.61686730632366 L 62.702083351737286,98.88702896473828 L 62.97224501015539,99.23911049275402 L 63.14207572841525,99.64911811607907 M 50.60208335124783,6.437028964796625 L 50.87224500966613,6.789110492812441 L 51.04207572792575,7.199118116137356 L 51.10000182323624,7.639110492811383 L 51.04207572793021,8.079102869485908 L 50.872245009674145,8.489110492812415 L 50.60208335125961,8.841192020830874 L 50.250001823243565,9.111353679249007 L 49.83999419991868,9.281184397508866 L 49.40000182324488,9.339110492819515 L 48.9600094465701,9.281184397513101 L 48.55000182324356,9.111353679257249 L 48.19792029522533,8.84119202084247 L 47.92775863680703,8.489110492826683 L 47.75792791854737,8.079102869501781 L 47.70000182323626,7.639110492827797 L 47.75792791854295,7.199118116153201 L 47.927758636798984,6.789110492826694 L 48.19792029521355,6.437028964808221 L 48.55000182322917,6.166867306390117 L 48.96000944655427,5.9970365881303 L 49.40000182322828,5.939110492819523 L 49.83999419990282,5.997036588126079 L 50.25000182322914,6.166867306381931 L 50.60208335124783,6.437028964796625 M 67.00000182387713,128.6391104927346 L 66.56000944720256,128.58118439742836 L 66.15000182387591,128.4113536791726 L 65.79792029585737,128.14119202075813 L 65.52775863743909,127.78911049274242 L 65.35792791917906,127.37910286941758 L 65.30000182386814,126.93911049274362 L 65.3579279191744,126.49911811606904 L 65.5277586374301,126.08911049274244 L 65.79792029584463,125.73702896472385 L 66.15000182386032,125.46686730630555 L 66.56000944718515,125.29703658804556 L 67.00000182385914,125.23911049273465 L 67.43999420053373,125.29703658804091 L 67.85000182386035,125.46686730629662 L 68.2020833518789,125.73702896471113 L 68.47224501029719,126.08911049272686 L 68.64207572855722,126.49911811605165 L 68.70000182386813,126.93911049272563 L 68.64207572856188,127.37910286940021 L 68.47224501030618,127.78911049272688 L 68.20208335189162,128.14119202074542 L 67.85000182387591,128.41135367916365 L 67.4399942005511,128.5811843974237 L 67.00000182387713,128.6391104927346 M 92.04452032890322,18.173333026552342 L 91.99000165044271,17.759222554457097 L 92.04452032785724,17.34511208222426 L 92.2043610033773,16.959222554186454 L 92.45863079911545,16.62785170396681 L 92.79000164869294,16.373581907391724 L 93.17589117632696,16.213741230897014 L 93.59000164842205,16.159222552436532 L 94.00411212065501,16.213741229851095 L 94.39000164869293,16.373581905371182 L 94.72137249891242,16.62785170110932 L 94.9756422954875,16.959222550686718 L 95.13548297198221,17.345112078320867 L 95.19000165044267,17.759222550416 L 95.13548297302822,18.17333302264892 L 94.97564229750814,18.559222550686712 L 94.7213725017699,18.890593400906283 L 94.39000165219252,19.144863197481428 L 94.0041121245585,19.304703873976152 L 93.59000165246313,19.35922255243655 L 93.17589118023045,19.304703875022057 L 92.79000165219253,19.14486319950197 L 92.45863080197296,18.890593403763773 L 92.20436100539796,18.559222554186448 L 92.04452032890322,18.173333026552342 M 74.42436100539786,18.559222554094646 L 74.26452032890312,18.17333302646054 L 74.21000165044269,17.75922255436528 L 74.26452032785723,17.34511208213246 L 74.4243610033773,16.95922255409465 L 74.67863079911548,16.62785170387501 L 75.01000164869285,16.373581907299922 L 75.39589117632697,16.213741230805198 L 75.81000164842214,16.159222552344744 L 76.22411212065504,16.213741229759265 L 76.61000164869296,16.373581905279366 L 76.94137249891244,16.627851701017534 L 77.1956422954875,16.9592225505949 L 77.35548297198223,17.34511207822908 L 77.41000165044267,17.75922255032421 L 77.35548297302822,18.173333022557145 L 77.19564229750812,18.559222550594924 L 76.9413725017699,18.890593400814467 L 76.61000165219248,19.144863197389625 L 76.22411212455839,19.304703873884364 L 75.81000165246323,19.359222552344733 L 75.39589118023034,19.304703874930198 L 75.01000165219251,19.144863199410167 L 74.67863080197291,18.890593403671986 L 74.42436100539786,18.559222554094646 M 93.17589123957114,66.294703875022 L 92.79000171153345,66.13486319950191 L 92.45863086131394,65.88059340376375 L 92.20436106473868,65.54922255418639 L 92.04452038824411,65.16333302655228 L 91.99000170978368,64.74922255445719 L 92.0445203871981,64.3351120822242 L 92.20436106271822,63.949222554186406 L 92.45863085845646,63.61785170396682 L 92.79000170803383,63.363581907391705 L 93.17589123566785,63.203741230897 L 93.59000170776302,63.149222552436555 L 94.00411217999591,63.203741229851076 L 94.39000170803382,63.36358190537118 L 94.72137255825342,63.617851701109316 L 94.97564235482838,63.949222550686684 L 95.13548303132312,64.3351120783208 L 95.19000170978366,64.74922255041609 L 95.13548303236912,65.16333302264889 L 94.97564235684885,65.54922255068666 L 94.72137256111088,65.88059340090628 L 94.39000171153342,66.13486319748137 L 94.0041121838992,66.29470387397609 L 93.59000171180413,66.34922255243653 L 93.17589123957114,66.294703875022 M 74.26452038771892,65.16333302450079 L 74.21000170978355,64.74922255233659 L 74.26452038772318,64.33511208017276 L 74.42436106373259,63.9492225523376 L 74.67863085989093,63.61785170244045 L 75.01000170979071,63.36358190628553 L 75.39589123762751,63.2037412302801 L 75.81000170979182,63.149222552344746 L 76.22411218195558,63.20374123028438 L 76.61000170979081,63.36358190629379 L 76.94137255968798,63.61785170245212 L 77.19564235584278,63.94922255235193 L 77.35548303184821,64.3351120801887 L 77.41000170978366,64.74922255235309 L 77.35548303184403,65.16333302451675 L 77.19564235583444,65.5492225523519 L 76.94137255967627,65.88059340224908 L 76.6100017097764,66.13486319840399 L 76.22411218193963,66.29470387440941 L 75.8100017097753,66.34922255234473 L 75.39589123761156,66.29470387440512 L 75.01000170977642,66.13486319839572 L 74.67863085987925,65.8805934022374 L 74.42436106372435,65.5492225523376 L 74.26452038771892,65.16333302450079 M 77.41000176752063,110.46922255235299 L 77.3554830895811,110.88333302451674 L 77.19564241357169,111.26922255235188 L 76.94137261741326,111.60059340224902 L 76.61000176751347,111.85486319840393 L 76.22411223967669,112.01470387440936 L 75.81000176751239,112.06922255234473 L 75.39589129534863,112.01470387440511 L 75.01000176751349,111.85486319839566 L 74.67863091761632,111.60059340223731 L 74.42436112146142,111.26922255233757 L 74.264520445456,110.88333302450079 L 74.21000176752067,110.46922255233648 L 74.26452044546028,110.0551120801727 L 74.42436112146969,109.66922255233757 L 74.67863091762801,109.3378517024404 L 75.0100017675278,109.08358190628547 L 75.3958912953646,108.92374123028014 L 75.8100017675289,108.86922255234475 L 76.22411223969266,108.92374123028438 L 76.61000176752789,109.0835819062938 L 76.94137261742495,109.3378517024521 L 77.19564241357988,109.66922255235188 L 77.35548308958526,110.05511208018865 L 77.41000176752063,110.46922255235299 M 94.72137261742498,109.33785170254393 L 94.97564241357989,109.6692225524437 L 95.13548308958529,110.05511208028048 L 95.19000176752064,110.46922255244479 L 95.1354830895811,110.88333302460853 L 94.9756424135717,111.26922255244365 L 94.72137261741327,111.60059340234085 L 94.3900017675135,111.85486319849576 L 94.00411223967679,112.01470387450117 L 93.59000176751232,112.06922255243651 L 93.17589129534875,112.01470387449689 L 92.7900017675135,111.85486319848752 L 92.45863091761633,111.60059340232917 L 92.20436112146152,111.26922255242937 L 92.04452044545613,110.88333302459259 L 91.99000176752068,110.46922255242826 L 92.0445204454603,110.05511208026452 L 92.2043611214697,109.66922255242937 L 92.45863091762803,109.33785170253222 L 92.79000176752793,109.08358190637733 L 93.17589129536461,108.92374123037189 L 93.59000176752883,108.86922255243657 L 94.00411223969266,108.92374123037618 L 94.39000176752789,109.08358190638555 L 94.72137261742498,109.33785170254393 M 45.67850138676292,83.46986543444498 L 46.74458617479284,83.46986545032571 L 47.02981059463396,84.74947892090866 L 47.12488539053665,85.8950524884097 L 47.087868548282614,86.52180591678584 L 46.97681804130191,87.07413602735133 L 46.791733869594324,87.55204282010556 L 46.53261603315997,87.95552629504829 L 46.206088596964435,88.27601413307717 L 45.81877562597333,88.504934015088 L 45.37067712018674,88.64228594108155 L 44.86179307960431,88.6880699110569 L 44.14327687190409,88.56883673327162 L 43.58373822386601,88.21113722368975 L 43.109922772421626,87.54639282760401 L 42.64857615450289,86.5060249903079 L 42.34932429643753,85.6830823424586 L 42.00643154076735,84.85000877126589 L 41.713414091733355,84.35826936540487 L 41.3970175865923,84.11746512129005 L 40.98398766260085,84.03719703533703 L 40.44081434387273,84.17279553098619 L 40.02077069691539,84.57959103595105 L 39.75191158522139,85.21394265289378 L 39.6622918722841,86.03220948447662 L 39.70827066672689,86.60616522082206 L 39.84620706612138,87.2494788138992 L 40.397952679765964,88.74417957024797 L 39.18224195657393,88.74417955213855 L 38.85025943510571,87.25571321302859 L 38.739598604893985,86.06961595452204 L 38.78109643338682,85.36220479553943 L 38.90558989666981,84.72999625624686 L 39.11307899474281,84.1729903366444 L 39.4035637276055,83.69118703673212 L 39.76340631444282,83.30251029645665 L 40.178968974438675,83.02488405576409 L 40.65025170759347,82.85830831465479 L 41.177254513906774,82.80278307312868 L 41.853688427499435,82.91149567672123 L 42.42413730044656,83.23763346576739 L 42.888601132748576,83.78119644026722 L 43.24707992440524,84.5421846002209 L 43.502690885829466,85.29031427983894 L 43.77700508859171,86.07585044352653 L 44.06612602565862,86.78501503636156 L 44.3474539492162,87.22921703556489 L 44.66930556668119,87.46300756405009 L 45.07999758547038,87.54093774473148 L 45.57095768677087,87.43690096900237 L 45.92164347695622,87.12479062509932 L 46.13205495602682,86.60460671302174 L 46.202192123982314,85.87634923276988 L 46.0712694475251,84.74792030313877 L 45.67850138676292,83.46986543444498 M 45.08623213038207,78.75041405405125 L 40.40418722467746,79.95365587956796 L 45.70343908144275,80.86388039740996 L 45.70343906454043,81.99854373905578 L 38.932865516843876,80.76412967311217 L 38.93286553504623,79.5421845359549 L 43.995209694292825,78.22672326473169 L 38.932865572565845,77.02348129405974 L 38.932865590582466,75.81400498483276 L 45.70343917681993,74.46113725526534 L 45.703439162796656,75.40253376399355 L 40.22338927234718,76.4187431586703 L 45.08623214812009,77.55964098671964 L 45.08623213038207,78.75041405405125 M 45.70343919409369,73.30153625775911 L 44.78074592726078,73.3015362440145 L 44.780745963944526,70.83894272780495 L 38.932865664692656,70.83894264069313 L 38.932865682987924,69.61076308957095 L 45.7034392490727,69.61076319042743 L 45.70343919409369,73.30153625775911 M 48.77700533618257,69.45490288708507 L 48.77700531324356,70.99480313646163 L 47.23710506386699,70.99480311352283 L 47.237105086806025,69.45490286414623 L 48.77700533618257,69.45490288708507 M 47.006431866868,62.958643509089086 L 47.00643184857276,64.18682306021131 L 45.54757898074233,64.18682303847987 L 45.54757895557462,65.87634922301851 L 44.62488568874173,65.87634920927366 L 44.62488571390941,64.18682302473508 L 41.358052796203665,64.18682297607126 L 40.66700697376591,64.15292333984215 L 40.09636327203907,64.05122445353611 L 39.646121691022714,63.881726317153365 L 39.31628223071726,63.64442893069389 L 39.08034863215963,63.313225685284024 L 38.911824636387294,62.86200997205053 L 38.81071024340014,62.29078179099306 L 38.777005453198484,61.599541142112 L 38.81752915701969,60.7236059806208 L 38.93910024285145,59.81649875051158 L 39.87426233761454,59.81649876444209 L 39.74333963304197,60.57546560320256 L 39.69969872388687,61.34071556358734 L 39.76983587033912,62.05599280122816 L 39.98024733389131,62.577564850808855 L 40.156369525485246,62.773571419049645 L 40.36054658115506,62.88680153041405 L 41.15855156761616,62.95864342197726 L 44.624885732204675,62.95864347361282 L 44.624885776968,59.953655942440776 L 45.54757904380091,59.9536559561856 L 45.54757899903757,62.95864348735771 L 47.006431866868,62.958643509089086 M 44.50019761254609,52.24168586577043 L 45.52887591678548,52.241685881094014 L 45.77201804524134,53.328032518132396 L 45.85306541074429,54.40502753180846 L 45.794617767971914,55.20049978779562 L 45.6192748647299,55.90362478518367 L 45.32703670101807,56.51440252397254 L 44.917903276836526,57.032833004162235 L 44.40473307117986,57.44605774714132 L 43.800384563042286,57.74121827429837 L 43.10485775242418,57.918314585633425 L 42.31815263932536,57.977346681146265 L 41.51858904919378,57.91753526025819 L 40.815658877303264,57.73810102285445 L 40.20936212365338,57.43904396893507 L 39.69969878824429,57.02036409850008 L 39.296020491890005,56.491023381763554 L 39.007678855404905,55.85998378893972 L 38.83467387878892,55.12724532002844 L 38.77700556204189,54.29280797502969 L 38.87052178770068,53.20646134300625 L 39.15107043235869,52.116997506786376 L 40.11740459694721,52.116997521181226 L 39.80412527941364,53.176847890579346 L 39.69969883138228,54.12447881171703 L 39.74314489531132,54.68771914902254 L 39.87348310483635,55.1866670936075 L 40.090713459957584,55.62132264547189 L 40.394835960674826,55.99168580461569 L 40.775719684446045,56.28762564819468 L 41.22323370872871,56.49901125336471 L 41.7373780335226,56.62584262012582 L 42.318152658827984,56.66811974847795 L 42.89366699856927,56.62857019345995 L 43.40449929460101,56.50992151029646 L 43.85064954692341,56.31217369898738 L 44.23211775553608,56.03532675953264 L 44.537604044982544,55.689121963584505 L 44.75580853980574,55.283300582795015 L 44.88673124000587,54.81786261716422 L 44.930372145583064,54.292808066692096 L 44.822828518638886,53.35608736683578 L 44.50019761254609,52.24168586577043 M 48.77700564181684,48.93744652798282 L 48.77700562352163,50.16562607910501 L 38.93286597264877,50.16562593246364 L 38.93286599094404,48.93744638134146 L 43.359299906156025,48.93744644727895 L 43.94026936496897,48.437914036980665 L 44.35524755179874,47.94929184864862 L 44.60423446664548,47.47157988228279 L 44.68723010950944,47.00477813788318 L 44.603844830121034,46.50836292467097 L 44.35368897468243,46.17871828254057 L 43.90559047369305,45.99402376214985 L 43.22837725765261,45.932458914156655 L 38.932866035707434,45.932458850169404 L 38.93286605400263,44.704279299047144 L 43.56503563006248,44.70427936804939 L 44.56604872053833,44.824681502661605 L 44.95930386168794,44.975184158145524 L 45.281058066778584,45.185887872414895 L 45.531311335810514,45.45679264546933 L 45.71006366878348,45.78789847730918 L 45.8173150656975,46.17920536793426 L 45.853065526552754,46.63071331734461 L 45.76422511725342,47.32195396440022 L 45.497703911086575,47.93682303773679 L 45.05350190805265,48.475320537354214 L 44.431619108151025,48.9374464632526 L 45.70343955702883,48.937446482198 L 48.77700564181684,48.93744652798282 M 75.81000170346934,59.7492225523448 L 75.8100016504668,22.75922255437358 L 76.46263261156273,22.716446861240044 L 77.10409687597063,22.588851685814845 L 77.72341881227895,22.37862021692557 L 78.31000165044912,22.08934957329201 L 78.85380879548896,21.72598925582777 L 79.34553555637481,21.294756460306928 L 79.77676835189585,20.80302969942116 L 80.14012866936022,20.25922255438151 L 80.42939931299402,19.672639716211307 L 80.6396307818835,19.053317779903082 L 80.76722595730895,18.41185351549528 L 80.81000165044267,17.759222554399415 L 88.59000165044264,17.759222554439575 L 88.63277734357084,18.411853515544152 L 88.76037251899277,19.05331777996109 L 88.97060398788112,19.67263971627851 L 89.25987463151584,20.25922255445741 L 89.62323494898351,20.803029699504975 L 90.05446774450932,21.294756460397508 L 90.54619450540176,21.72598925592358 L 91.09000165044907,22.089349573391303 L 91.67658448862801,22.378620217026253 L 92.29590642494537,22.588851685914804 L 92.9373706893622,22.716446861337047 L 93.59000165046686,22.759222554465353 L 93.59000170346933,59.74922255243659 L 92.29590647817187,59.91959342262549 L 91.09000170431521,60.419095536671506 L 90.05446779938592,61.21368865096868 L 89.2598746877042,62.249222557904844 L 88.76037257670393,63.455127333023 L 88.59000170978359,64.74922255875077 L 88.76037257997243,66.04331778404823 L 89.25987469401844,67.2492225579049 L 90.05446780831562,68.28475646283411 L 91.09000171525179,69.07934957451587 L 92.29590649036993,69.57885168551616 L 93.59000171609779,69.74922255243658 L 93.5900017612064,105.46922255243652 L 92.937370800684,105.5119982463227 L 92.2959065369296,105.63959342235191 L 91.67658460132596,105.84982489168989 L 91.09000176388253,106.13909553561474 L 90.5461946195634,106.50245585321605 L 90.05446785936464,106.93368864872707 L 89.623235064472,107.42541540946821 L 89.25987474755459,107.96922255424438 L 88.97060410436755,108.5558053920516 L 88.76037263580851,109.17512732791968 L 88.63277746058598,109.8165915918345 L 88.59000176752062,110.46922255241074 L 80.81000176752063,110.46922255237054 L 80.7672260743241,109.8165915907463 L 80.63963089869922,109.17512732583637 L 80.42939942948044,108.55580538907876 L 80.14012878539903,107.96922255053687 L 79.77676846738437,107.42541540522582 L 79.34553567123012,106.93368864418869 L 78.85380890965062,106.50245584865287 L 78.31000176388252,106.13909553132211 L 77.72341892497685,105.84982488797851 L 77.10409698795483,105.63959341953866 L 76.4626327228845,105.51199824472044 L 75.81000176120642,105.4692225523447 L 75.81000171609777,69.74922255234479 L 77.10409694139516,69.57885168215589 L 78.31000171525181,69.07934956810985 L 79.34553562018111,68.28475645381269 L 80.14012873186286,67.24922254687652 L 80.63963084286313,66.04331777175835 L 80.81000170978362,64.74922254603055 L 80.63963083959462,63.45512732073313 L 80.1401287255486,62.24922254687652 L 79.3455356112514,61.21368864194722 L 78.31000170431523,60.41909553026549 L 77.1040969291971,59.91959341926521 L 75.81000170346934,59.7492225523448 "
  />
  <path id="face0-interior"
 style="fill:none;stroke:#FF0000;stroke-width:0.1;stroke-miterlimit:4;stroke-dasharray:none;stroke-linejoin:round;stroke-linecap:round"
        d="M 129.70000182493013,92.2892225175333 M 129.70000173824815,87.28922252092309 M 104.70000173824799,87.28922255249385 M 104.70000168773437,47.289222552493875 M 129.7000016877342,47.28922252092308 M 129.70000167133267,42.289222584208474 M 133.70000000414032,42.28922252342606 M 133.70000000395862,6.000000002145541 M 129.70000168040727,6.000000000732044 M 129.7000016803825,1.0000000006437233 M 5.0000018232072705,1.0 M 5.000001823233447,6.000000000000043 M 1.0000000039064503,6.000000000019611 M 1.000000004013458,26.00000000269955 M 5.000001823337698,26.00000000267825 M 5.0000018234615595,57.289222518356816 M 1.0000018234615595,57.2892225193151 M 1.0000018310125256,77.28922252444778 M 5.000001831012526,77.28922252348929 M 5.000001823740007,108.5782225211282 M 1.0,108.57822252114809 M 1.000000000098055,128.57822251847784 M 5.000001823843547,128.57822251845838 M 5.00000182386799,133.57822251845843 M 129.7000017966066,133.57822250759358 M 129.70000179658157,128.57822250722035 M 133.70000000393662,128.5782225057667 M 133.70000000375538,92.2892225175333 M 27.597920295856824,128.14119202094182 M 27.327758637438706,127.78911049292601 M 27.157927919178903,127.37910286960118 M 27.10000182386834,126.93911049292714 M 27.157927919174654,126.49911811625265 M 27.327758637430534,126.08911049292615 M 27.597920295845228,125.73702896490764 M 27.950001823861015,125.46686730648955 M 28.360009447185888,125.29703658822973 M 28.8000018238599,125.23911049291901 M 29.23999420053444,125.29703658822544 M 29.650001823860947,125.46686730648138 M 30.002083351879364,125.73702896489601 M 30.272245010297482,126.08911049291187 M 30.4420757285573,126.49911811623673 M 30.500001823868246,126.93911049291077 M 30.442075728561562,127.37910286958532 M 30.272245010305667,127.78911049291179 M 30.002083351890988,128.14119202093025 M 29.65000182387496,128.41135367934834 M 29.23999420055027,128.58118439760813 M 28.8000018238763,128.63911049291886 M 28.36000944720176,128.58118439761245 M 27.950001823875056,128.41135367935652 M 30.442075727925697,7.199118116236818 M 30.50000182323643,7.639110492910774 M 30.44207572793016,8.079102869585398 M 30.272245009674066,8.489110492911891 M 30.002083351259557,8.84119202093035 M 29.650001823243585,9.111353679348426 M 29.23999419991867,9.2811843976083 M 28.800001823244628,9.33911049291902 M 28.360009446570047,9.281184397612535 M 27.950001823243554,9.111353679356654 M 27.59792029522532,8.841192020941946 M 27.327758636806976,8.489110492926116 M 27.157927918547358,8.079102869601257 M 27.10000182323644,7.639110492927202 M 27.157927918542896,7.199118116252677 M 27.32775863679882,6.789110492926113 M 27.5979202952135,6.437028964907739 M 27.950001823229172,6.166867306489507 M 28.36000944655423,5.997036588229719 M 28.800001823228257,5.9391104929190135 M 29.23999419990278,5.997036588225498 M 29.65000182322909,6.166867306481393 M 30.002083351247762,6.4370289648961005 M 30.272245009665895,6.789110492911874 M 60.297920295355894,33.28702896474986 M 60.65000182337151,33.01686730633178 M 61.0600094466964,32.847036588071916 M 61.50000182337041,32.78911049276119 M 61.93999420004499,32.84703658806767 M 62.35000182337153,33.01686730632355 M 62.70208335138993,33.28702896473828 M 62.97224500980805,33.63911049275407 M 63.142075728067894,34.04911811607896 M 63.2000018233786,34.48911049275297 M 63.14207572807214,34.92910286942754 M 62.97224500981626,35.339110492754045 M 62.70208335140153,35.691192020772505 M 62.35000182338574,35.9613536791906 M 61.93999420006081,36.1311843974505 M 61.500001823386825,36.18911049276112 M 61.06000944671226,36.13118439745473 M 60.650001823385935,35.961353679198844 M 60.29792029536732,35.6911920207841 M 60.02775863694899,35.339110492768235 M 59.85792791868934,34.92910286944339 M 59.80000182337865,34.48911049276936 M 59.857927918685306,34.04911811609482 M 60.02775863694099,33.63911049276826 M 41.33999420004476,32.84703658816712 M 41.75000182337149,33.016867306423016 M 42.102083351390135,33.28702896483772 M 42.372245009808026,33.63911049285349 M 42.5420757280681,34.04911811617841 M 42.600001823378605,34.489110492852404 M 42.542075728072106,34.92910286952699 M 42.372245009816055,35.33911049285344 M 42.10208335140155,35.6911920208719 M 41.75000182338589,35.96135367929008 M 41.339994200060616,36.13118439754992 M 40.900001823386845,36.18911049286059 M 40.460009446712036,36.13118439755419 M 40.050001823385955,35.96135367929828 M 39.6979202953673,35.6911920208835 M 39.427758636948994,35.33911049286773 M 39.25792791868933,34.92910286954281 M 39.20000182337864,34.4891104928688 M 39.2579279186853,34.04911811619427 M 39.427758636940965,33.6391104928677 M 39.6979202953559,33.28702896484929 M 40.050001823371474,33.01686730643124 M 40.460009446696205,32.847036588171335 M 40.90000182337022,32.7891104928606 M 41.33999420039247,98.44703658816714 M 41.75000182371876,98.61686730642283 M 42.10208335173719,98.88702896483782 M 42.37224501015504,99.23911049285343 M 42.542075728415114,99.64911811617831 M 42.600001823725805,100.08911049285211 M 42.542075728419164,100.52910286952682 M 42.372245010163496,100.9391104928534 M 42.102083351748604,101.29119202087173 M 41.75000182373299,101.56135367928982 M 41.3399942004083,101.73118439754965 M 40.90000182373393,101.78911049286026 M 40.46000944705982,101.73118439755387 M 40.05000182373311,101.56135367929795 M 39.69792029571448,101.29119202088327 M 39.42775863729659,100.93911049286748 M 39.25792791903655,100.52910286954254 M 39.20000182372604,100.08911049286867 M 39.25792791903251,99.64911811619423 M 39.42775863728818,99.23911049286762 M 39.6979202957031,98.88702896484922 M 40.05000182371889,98.61686730643123 M 40.460009447043944,98.44703658817113 M 40.9000018237177,98.3891104928607 M 63.14207572841525,99.64911811607907 M 63.20000182372594,100.08911049275298 M 63.1420757284195,100.52910286942762 M 62.972245010163604,100.93911049275415 M 62.70208335174887,101.29119202077241 M 62.35000182373305,101.5613536791906 M 61.93999420040818,101.73118439745043 M 61.500001823734166,101.78911049276117 M 61.0600094470596,101.7311843974548 M 60.650001823733064,101.56135367919885 M 60.297920295714434,101.29119202078405 M 60.02775863729653,100.93911049276832 M 59.85792791903647,100.52910286944342 M 59.800001823725964,100.08911049276945 M 59.857927919032434,99.64911811609483 M 60.027758637288116,99.23911049276823 M 60.29792029570302,98.88702896474976 M 60.65000182371885,98.61686730633176 M 61.06000944704374,98.44703658807188 M 61.50000182371775,98.38911049276125 M 61.93999420039232,98.4470365880677 M 62.350001823718856,98.61686730632366 M 62.702083351737286,98.88702896473828 M 62.97224501015539,99.23911049275402 M 50.60208335124783,6.437028964796625 M 50.87224500966613,6.789110492812441 M 51.04207572792575,7.199118116137356 M 51.10000182323624,7.639110492811383 M 51.04207572793021,8.079102869485908 M 50.872245009674145,8.489110492812415 M 50.60208335125961,8.841192020830874 M 50.250001823243565,9.111353679249007 M 49.83999419991868,9.281184397508866 M 49.40000182324488,9.339110492819515 M 48.9600094465701,9.281184397513101 M 48.55000182324356,9.111353679257249 M 48.19792029522533,8.84119202084247 M 47.92775863680703,8.489110492826683 M 47.75792791854737,8.079102869501781 M 47.70000182323626,7.639110492827797 M 47.75792791854295,7.199118116153201 M 47.927758636798984,6.789110492826694 M 48.19792029521355,6.437028964808221 M 48.55000182322917,6.166867306390117 M 48.96000944655427,5.9970365881303 M 49.40000182322828,5.939110492819523 M 49.83999419990282,5.997036588126079 M 50.25000182322914,6.166867306381931 M 67.00000182387713,128.6391104927346 M 66.56000944720256,128.58118439742836 M 66.15000182387591,128.4113536791726 M 65.79792029585737,128.14119202075813 M 65.52775863743909,127.78911049274242 M 65.35792791917906,127.37910286941758 M 65.30000182386814,126.93911049274362 M 65.3579279191744,126.49911811606904 M 65.5277586374301,126.08911049274244 M 65.79792029584463,125.73702896472385 M 66.15000182386032,125.46686730630555 M 66.56000944718515,125.29703658804556 M 67.00000182385914,125.23911049273465 M 67.43999420053373,125.29703658804091 M 67.85000182386035,125.46686730629662 M 68.2020833518789,125.73702896471113 M 68.47224501029719,126.08911049272686 M 68.64207572855722,126.49911811605165 M 68.70000182386813,126.93911049272563 M 68.64207572856188,127.37910286940021 M 68.47224501030618,127.78911049272688 M 68.20208335189162,128.14119202074542 M 67.85000182387591,128.41135367916365 M 67.4399942005511,128.5811843974237 M 92.04452032890322,18.173333026552342 M 91.99000165044271,17.759222554457097 M 92.04452032785724,17.34511208222426 M 92.2043610033773,16.959222554186454 M 92.45863079911545,16.62785170396681 M 92.79000164869294,16.373581907391724 M 93.17589117632696,16.213741230897014 M 93.59000164842205,16.159222552436532 M 94.00411212065501,16.213741229851095 M 94.39000164869293,16.373581905371182 M 94.72137249891242,16.62785170110932 M 94.9756422954875,16.959222550686718 M 95.13548297198221,17.345112078320867 M 95.19000165044267,17.759222550416 M 95.13548297302822,18.17333302264892 M 94.97564229750814,18.559222550686712 M 94.7213725017699,18.890593400906283 M 94.39000165219252,19.144863197481428 M 94.0041121245585,19.304703873976152 M 93.59000165246313,19.35922255243655 M 93.17589118023045,19.304703875022057 M 92.79000165219253,19.14486319950197 M 92.45863080197296,18.890593403763773 M 92.20436100539796,18.559222554186448 M 74.42436100539786,18.559222554094646 M 74.26452032890312,18.17333302646054 M 74.21000165044269,17.75922255436528 M 74.26452032785723,17.34511208213246 M 74.4243610033773,16.95922255409465 M 74.67863079911548,16.62785170387501 M 75.01000164869285,16.373581907299922 M 75.39589117632697,16.213741230805198 M 75.81000164842214,16.159222552344744 M 76.22411212065504,16.213741229759265 M 76.61000164869296,16.373581905279366 M 76.94137249891244,16.627851701017534 M 77.1956422954875,16.9592225505949 M 77.35548297198223,17.34511207822908 M 77.41000165044267,17.75922255032421 M 77.35548297302822,18.173333022557145 M 77.19564229750812,18.559222550594924 M 76.9413725017699,18.890593400814467 M 76.61000165219248,19.144863197389625 M 76.22411212455839,19.304703873884364 M 75.81000165246323,19.359222552344733 M 75.39589118023034,19.304703874930198 M 75.01000165219251,19.144863199410167 M 74.67863080197291,18.890593403671986 M 93.17589123957114,66.294703875022 M 92.79000171153345,66.13486319950191 M 92.45863086131394,65.88059340376375 M 92.20436106473868,65.54922255418639 M 92.04452038824411,65.16333302655228 M 91.99000170978368,64.74922255445719 M 92.0445203871981,64.3351120822242 M 92.20436106271822,63.949222554186406 M 92.45863085845646,63.61785170396682 M 92.79000170803383,63.363581907391705 M 93.17589123566785,63.203741230897 M 93.59000170776302,63.149222552436555 M 94.00411217999591,63.203741229851076 M 94.39000170803382,63.36358190537118 M 94.72137255825342,63.617851701109316 M 94.97564235482838,63.949222550686684 M 95.13548303132312,64.3351120783208 M 95.19000170978366,64.74922255041609 M 95.13548303236912,65.16333302264889 M 94.97564235684885,65.54922255068666 M 94.72137256111088,65.88059340090628 M 94.39000171153342,66.13486319748137 M 94.0041121838992,66.29470387397609 M 93.59000171180413,66.34922255243653 M 74.26452038771892,65.16333302450079 M 74.21000170978355,64.74922255233659 M 74.26452038772318,64.33511208017276 M 74.42436106373259,63.9492225523376 M 74.67863085989093,63.61785170244045 M 75.01000170979071,63.36358190628553 M 75.39589123762751,63.2037412302801 M 75.81000170979182,63.149222552344746 M 76.22411218195558,63.20374123028438 M 76.61000170979081,63.36358190629379 M 76.94137255968798,63.61785170245212 M 77.19564235584278,63.94922255235193 M 77.35548303184821,64.3351120801887 M 77.41000170978366,64.74922255235309 M 77.35548303184403,65.16333302451675 M 77.19564235583444,65.5492225523519 M 76.94137255967627,65.88059340224908 M 76.6100017097764,66.13486319840399 M 76.22411218193963,66.29470387440941 M 75.8100017097753,66.34922255234473 M 75.39589123761156,66.29470387440512 M 75.01000170977642,66.13486319839572 M 74.67863085987925,65.8805934022374 M 74.42436106372435,65.5492225523376 M 77.41000176752063,110.46922255235299 M 77.3554830895811,110.88333302451674 M 77.19564241357169,111.26922255235188 M 76.94137261741326,111.60059340224902 M 76.61000176751347,111.85486319840393 M 76.22411223967669,112.01470387440936 M 75.81000176751239,112.06922255234473 M 75.39589129534863,112.01470387440511 M 75.01000176751349,111.85486319839566 M 74.67863091761632,111.60059340223731 M 74.42436112146142,111.26922255233757 M 74.264520445456,110.88333302450079 M 74.21000176752067,110.46922255233648 M 74.26452044546028,110.0551120801727 M 74.42436112146969,109.66922255233757 M 74.67863091762801,109.3378517024404 M 75.0100017675278,109.08358190628547 M 75.3958912953646,108.92374123028014 M 75.8100017675289,108.86922255234475 M 76.22411223969266,108.92374123028438 M 76.61000176752789,109.0835819062938 M 76.94137261742495,109.3378517024521 M 77.19564241357988,109.66922255235188 M 77.35548308958526,110.05511208018865 M 94.72137261742498,109.33785170254393 M 94.97564241357989,109.6692225524437 M 95.13548308958529,110.05511208028048 M 95.19000176752064,110.46922255244479 M 95.1354830895811,110.88333302460853 M 94.9756424135717,111.26922255244365 M 94.72137261741327,111.60059340234085 M 94.3900017675135,111.85486319849576 M 94.00411223967679,112.01470387450117 M 93.59000176751232,112.06922255243651 M 93.17589129534875,112.01470387449689 M 92.7900017675135,111.85486319848752 M 92.45863091761633,111.60059340232917 M 92.20436112146152,111.26922255242937 M 92.04452044545613,110.88333302459259 M 91.99000176752068,110.46922255242826 M 92.0445204454603,110.05511208026452 M 92.2043611214697,109.66922255242937 M 92.45863091762803,109.33785170253222 M 92.79000176752793,109.08358190637733 M 93.17589129536461,108.92374123037189 M 93.59000176752883,108.86922255243657 M 94.00411223969266,108.92374123037618 M 94.39000176752789,109.08358190638555 M 45.67850138676292,83.46986543444498 M 46.74458617479284,83.46986545032571 M 47.02981059463396,84.74947892090866 M 47.12488539053665,85.8950524884097 M 47.087868548282614,86.52180591678584 M 46.97681804130191,87.07413602735133 M 46.791733869594324,87.55204282010556 M 46.53261603315997,87.95552629504829 M 46.206088596964435,88.27601413307717 M 45.81877562597333,88.504934015088 M 45.37067712018674,88.64228594108155 M 44.86179307960431,88.6880699110569 M 44.14327687190409,88.56883673327162 M 43.58373822386601,88.21113722368975 M 43.109922772421626,87.54639282760401 M 42.64857615450289,86.5060249903079 M 42.34932429643753,85.6830823424586 M 42.00643154076735,84.85000877126589 M 41.713414091733355,84.35826936540487 M 41.3970175865923,84.11746512129005 M 40.98398766260085,84.03719703533703 M 40.44081434387273,84.17279553098619 M 40.02077069691539,84.57959103595105 M 39.75191158522139,85.21394265289378 M 39.6622918722841,86.03220948447662 M 39.70827066672689,86.60616522082206 M 39.84620706612138,87.2494788138992 M 40.397952679765964,88.74417957024797 M 39.18224195657393,88.74417955213855 M 38.85025943510571,87.25571321302859 M 38.739598604893985,86.06961595452204 M 38.78109643338682,85.36220479553943 M 38.90558989666981,84.72999625624686 M 39.11307899474281,84.1729903366444 M 39.4035637276055,83.69118703673212 M 39.76340631444282,83.30251029645665 M 40.178968974438675,83.02488405576409 M 40.65025170759347,82.85830831465479 M 41.177254513906774,82.80278307312868 M 41.853688427499435,82.91149567672123 M 42.42413730044656,83.23763346576739 M 42.888601132748576,83.78119644026722 M 43.24707992440524,84.5421846002209 M 43.502690885829466,85.29031427983894 M 43.77700508859171,86.07585044352653 M 44.06612602565862,86.78501503636156 M 44.3474539492162,87.22921703556489 M 44.66930556668119,87.46300756405009 M 45.07999758547038,87.54093774473148 M 45.57095768677087,87.43690096900237 M 45.92164347695622,87.12479062509932 M 46.13205495602682,86.60460671302174 M 46.202192123982314,85.87634923276988 M 46.0712694475251,84.74792030313877 M 45.08623213038207,78.75041405405125 M 40.40418722467746,79.95365587956796 M 45.70343908144275,80.86388039740996 M 45.70343906454043,81.99854373905578 M 38.932865516843876,80.76412967311217 M 38.93286553504623,79.5421845359549 M 43.995209694292825,78.22672326473169 M 38.932865572565845,77.02348129405974 M 38.932865590582466,75.81400498483276 M 45.70343917681993,74.46113725526534 M 45.703439162796656,75.40253376399355 M 40.22338927234718,76.4187431586703 M 45.08623214812009,77.55964098671964 M 45.70343919409369,73.30153625775911 M 44.78074592726078,73.3015362440145 M 44.780745963944526,70.83894272780495 M 38.932865664692656,70.83894264069313 M 38.932865682987924,69.61076308957095 M 45.7034392490727,69.61076319042743 M 48.77700533618257,69.45490288708507 M 48.77700531324356,70.99480313646163 M 47.23710506386699,70.99480311352283 M 47.237105086806025,69.45490286414623 M 47.006431866868,62.958643509089086 M 47.00643184857276,64.18682306021131 M 45.54757898074233,64.18682303847987 M 45.54757895557462,65.87634922301851 M 44.62488568874173,65.87634920927366 M 44.62488571390941,64.18682302473508 M 41.358052796203665,64.18682297607126 M 40.66700697376591,64.15292333984215 M 40.09636327203907,64.05122445353611 M 39.646121691022714,63.881726317153365 M 39.31628223071726,63.64442893069389 M 39.08034863215963,63.313225685284024 M 38.911824636387294,62.86200997205053 M 38.81071024340014,62.29078179099306 M 38.777005453198484,61.599541142112 M 38.81752915701969,60.7236059806208 M 38.93910024285145,59.81649875051158 M 39.87426233761454,59.81649876444209 M 39.74333963304197,60.57546560320256 M 39.69969872388687,61.34071556358734 M 39.76983587033912,62.05599280122816 M 39.98024733389131,62.577564850808855 M 40.156369525485246,62.773571419049645 M 40.36054658115506,62.88680153041405 M 41.15855156761616,62.95864342197726 M 44.624885732204675,62.95864347361282 M 44.624885776968,59.953655942440776 M 45.54757904380091,59.9536559561856 M 45.54757899903757,62.95864348735771 M 44.50019761254609,52.24168586577043 M 45.52887591678548,52.241685881094014 M 45.77201804524134,53.328032518132396 M 45.85306541074429,54.40502753180846 M 45.794617767971914,55.20049978779562 M 45.6192748647299,55.90362478518367 M 45.32703670101807,56.51440252397254 M 44.917903276836526,57.032833004162235 M 44.40473307117986,57.44605774714132 M 43.800384563042286,57.74121827429837 M 43.10485775242418,57.918314585633425 M 42.31815263932536,57.977346681146265 M 41.51858904919378,57.91753526025819 M 40.815658877303264,57.73810102285445 M 40.20936212365338,57.43904396893507 M 39.69969878824429,57.02036409850008 M 39.296020491890005,56.491023381763554 M 39.007678855404905,55.85998378893972 M 38.83467387878892,55.12724532002844 M 38.77700556204189,54.29280797502969 M 38.87052178770068,53.20646134300625 M 39.15107043235869,52.116997506786376 M 40.11740459694721,52.116997521181226 M 39.80412527941364,53.176847890579346 M 39.69969883138228,54.12447881171703 M 39.74314489531132,54.68771914902254 M 39.87348310483635,55.1866670936075 M 40.090713459957584,55.62132264547189 M 40.394835960674826,55.99168580461569 M 40.775719684446045,56.28762564819468 M 41.22323370872871,56.49901125336471 M 41.7373780335226,56.62584262012582 M 42.318152658827984,56.66811974847795 M 42.89366699856927,56.62857019345995 M 43.40449929460101,56.50992151029646 M 43.85064954692341,56.31217369898738 M 44.23211775553608,56.03532675953264 M 44.537604044982544,55.689121963584505 M 44.75580853980574,55.283300582795015 M 44.88673124000587,54.81786261716422 M 44.930372145583064,54.292808066692096 M 44.822828518638886,53.35608736683578 M 48.77700564181684,48.93744652798282 M 48.77700562352163,50.16562607910501 M 38.93286597264877,50.16562593246364 M 38.93286599094404,48.93744638134146 M 43.359299906156025,48.93744644727895 M 43.94026936496897,48.437914036980665 M 44.35524755179874,47.94929184864862 M 44.60423446664548,47.47157988228279 M 44.68723010950944,47.00477813788318 M 44.603844830121034,46.50836292467097 M 44.35368897468243,46.17871828254057 M 43.90559047369305,45.99402376214985 M 43.22837725765261,45.932458914156655 M 38.932866035707434,45.932458850169404 M 38.93286605400263,44.704279299047144 M 43.56503563006248,44.70427936804939 M 44.56604872053833,44.824681502661605 M 44.95930386168794,44.975184158145524 M 45.281058066778584,45.185887872414895 M 45.531311335810514,45.45679264546933 M 45.71006366878348,45.78789847730918 M 45.8173150656975,46.17920536793426 M 45.853065526552754,46.63071331734461 M 45.76422511725342,47.32195396440022 M 45.497703911086575,47.93682303773679 M 45.05350190805265,48.475320537354214 M 44.431619108151025,48.9374464632526 M 45.70343955702883,48.937446482198 M 75.81000170346934,59.7492225523448 M 75.8100016504668,22.75922255437358 M 76.46263261156273,22.716446861240044 M 77.10409687597063,22.588851685814845 M 77.72341881227895,22.37862021692557 M 78.31000165044912,22.08934957329201 M 78.85380879548896,21.72598925582777 M 79.34553555637481,21.294756460306928 M 79.77676835189585,20.80302969942116 M 80.14012866936022,20.25922255438151 M 80.42939931299402,19.672639716211307 M 80.6396307818835,19.053317779903082 M 80.76722595730895,18.41185351549528 M 80.81000165044267,17.759222554399415 M 88.59000165044264,17.759222554439575 M 88.63277734357084,18.411853515544152 M 88.76037251899277,19.05331777996109 M 88.97060398788112,19.67263971627851 M 89.25987463151584,20.25922255445741 M 89.62323494898351,20.803029699504975 M 90.05446774450932,21.294756460397508 M 90.54619450540176,21.72598925592358 M 91.09000165044907,22.089349573391303 M 91.67658448862801,22.378620217026253 M 92.29590642494537,22.588851685914804 M 92.9373706893622,22.716446861337047 M 93.59000165046686,22.759222554465353 M 93.59000170346933,59.74922255243659 M 92.29590647817187,59.91959342262549 M 91.09000170431521,60.419095536671506 M 90.05446779938592,61.21368865096868 M 89.2598746877042,62.249222557904844 M 88.76037257670393,63.455127333023 M 88.59000170978359,64.74922255875077 M 88.76037257997243,66.04331778404823 M 89.25987469401844,67.2492225579049 M 90.05446780831562,68.28475646283411 M 91.09000171525179,69.07934957451587 M 92.29590649036993,69.57885168551616 M 93.59000171609779,69.74922255243658 M 93.5900017612064,105.46922255243652 M 92.937370800684,105.5119982463227 M 92.2959065369296,105.63959342235191 M 91.67658460132596,105.84982489168989 M 91.09000176388253,106.13909553561474 M 90.5461946195634,106.50245585321605 M 90.05446785936464,106.93368864872707 M 89.623235064472,107.42541540946821 M 89.25987474755459,107.96922255424438 M 88.97060410436755,108.5558053920516 M 88.76037263580851,109.17512732791968 M 88.63277746058598,109.8165915918345 M 88.59000176752062,110.46922255241074 M 80.81000176752063,110.46922255237054 M 80.7672260743241,109.8165915907463 M 80.63963089869922,109.17512732583637 M 80.42939942948044,108.55580538907876 M 80.14012878539903,107.96922255053687 M 79.77676846738437,107.42541540522582 M 79.34553567123012,106.93368864418869 M 78.85380890965062,106.50245584865287 M 78.31000176388252,106.13909553132211 M 77.72341892497685,105.84982488797851 M 77.10409698795483,105.63959341953866 M 76.4626327228845,105.51199824472044 M 75.81000176120642,105.4692225523447 M 75.81000171609777,69.74922255234479 M 77.10409694139516,69.57885168215589 M 78.31000171525181,69.07934956810985 M 79.34553562018111,68.28475645381269 M 80.14012873186286,67.24922254687652 M 80.63963084286313,66.04331777175835 M 80.81000170978362,64.74922254603055 M 80.63963083959462,63.45512732073313 M 80.1401287255486,62.24922254687652 M 79.3455356112514,61.21368864194722 M 78.31000170431523,60.41909553026549 M 77.1040969291971,59.91959341926521 "
  />
  <path id="face0-interior"
 style="fill:none;stroke:#FF0000;stroke-width:0.1;stroke-miterlimit:4;stroke-dasharray:none;stroke-linejoin:round;stroke-linecap:round"
        d="M 129.70000182493013,92.2892225175333 M 129.70000173824815,87.28922252092309 M 104.70000173824799,87.28922255249385 M 104.70000168773437,47.289222552493875 M 129.7000016877342,47.28922252092308 M 129.70000167133267,42.289222584208474 M 133.70000000414032,42.28922252342606 M 133.70000000395862,6.000000002145541 M 129.70000168040727,6.000000000732044 M 129.7000016803825,1.0000000006437233 M 5.0000018232072705,1.0 M 5.000001823233447,6.000000000000043 M 1.0000000039064503,6.000000000019611 M 1.000000004013458,26.00000000269955 M 5.000001823337698,26.00000000267825 M 5.0000018234615595,57.289222518356816 M 1.0000018234615595,57.2892225193151 M 1.0000018310125256,77.28922252444778 M 5.000001831012526,77.28922252348929 M 5.000001823740007,108.5782225211282 M 1.0,108.57822252114809 M 1.000000000098055,128.57822251847784 M 5.000001823843547,128.57822251845838 M 5.00000182386799,133.57822251845843 M 129.7000017966066,133.57822250759358 M 129.70000179658157,128.57822250722035 M 133.70000000393662,128.5782225057667 M 133.70000000375538,92.2892225175333 M 27.597920295856824,128.14119202094182 M 27.327758637438706,127.78911049292601 M 27.157927919178903,127.37910286960118 M 27.10000182386834,126.93911049292714 M 27.157927919174654,126.49911811625265 M 27.327758637430534,126.08911049292615 M 27.597920295845228,125.73702896490764 M 27.950001823861015,125.46686730648955 M 28.360009447185888,125.29703658822973 M 28.8000018238599,125.23911049291901 M 29.23999420053444,125.29703658822544 M 29.650001823860947,125.46686730648138 M 30.002083351879364,125.73702896489601 M 30.272245010297482,126.08911049291187 M 30.4420757285573,126.49911811623673 M 30.500001823868246,126.93911049291077 M 30.442075728561562,127.37910286958532 M 30.272245010305667,127.78911049291179 M 30.002083351890988,128.14119202093025 M 29.65000182387496,128.41135367934834 M 29.23999420055027,128.58118439760813 M 28.8000018238763,128.63911049291886 M 28.36000944720176,128.58118439761245 M 27.950001823875056,128.41135367935652 M 30.442075727925697,7.199118116236818 M 30.50000182323643,7.639110492910774 M 30.44207572793016,8.079102869585398 M 30.272245009674066,8.489110492911891 M 30.002083351259557,8.84119202093035 M 29.650001823243585,9.111353679348426 M 29.23999419991867,9.2811843976083 M 28.800001823244628,9.33911049291902 M 28.360009446570047,9.281184397612535 M 27.950001823243554,9.111353679356654 M 27.59792029522532,8.841192020941946 M 27.327758636806976,8.489110492926116 M 27.157927918547358,8.079102869601257 M 27.10000182323644,7.639110492927202 M 27.157927918542896,7.199118116252677 M 27.32775863679882,6.789110492926113 M 27.5979202952135,6.437028964907739 M 27.950001823229172,6.166867306489507 M 28.36000944655423,5.997036588229719 M 28.800001823228257,5.9391104929190135 M 29.23999419990278,5.997036588225498 M 29.65000182322909,6.166867306481393 M 30.002083351247762,6.4370289648961005 M 30.272245009665895,6.789110492911874 M 60.297920295355894,33.28702896474986 M 60.65000182337151,33.01686730633178 M 61.0600094466964,32.847036588071916 M 61.50000182337041,32.78911049276119 M 61.93999420004499,32.84703658806767 M 62.35000182337153,33.01686730632355 M 62.70208335138993,33.28702896473828 M 62.97224500980805,33.63911049275407 M 63.142075728067894,34.04911811607896 M 63.2000018233786,34.48911049275297 M 63.14207572807214,34.92910286942754 M 62.97224500981626,35.339110492754045 M 62.70208335140153,35.691192020772505 M 62.35000182338574,35.9613536791906 M 61.93999420006081,36.1311843974505 M 61.500001823386825,36.18911049276112 M 61.06000944671226,36.13118439745473 M 60.650001823385935,35.961353679198844 M 60.29792029536732,35.6911920207841 M 60.02775863694899,35.339110492768235 M 59.85792791868934,34.92910286944339 M 59.80000182337865,34.48911049276936 M 59.857927918685306,34.04911811609482 M 60.02775863694099,33.63911049276826 M 41.33999420004476,32.84703658816712 M 41.75000182337149,33.016867306423016 M 42.102083351390135,33.28702896483772 M 42.372245009808026,33.63911049285349 M 42.5420757280681,34.04911811617841 M 42.600001823378605,34.489110492852404 M 42.542075728072106,34.92910286952699 M 42.372245009816055,35.33911049285344 M 42.10208335140155,35.6911920208719 M 41.75000182338589,35.96135367929008 M 41.339994200060616,36.13118439754992 M 40.900001823386845,36.18911049286059 M 40.460009446712036,36.13118439755419 M 40.050001823385955,35.96135367929828 M 39.6979202953673,35.6911920208835 M 39.427758636948994,35.33911049286773 M 39.25792791868933,34.92910286954281 M 39.20000182337864,34.4891104928688 M 39.2579279186853,34.04911811619427 M 39.427758636940965,33.6391104928677 M 39.6979202953559,33.28702896484929 M 40.050001823371474,33.01686730643124 M 40.460009446696205,32.847036588171335 M 40.90000182337022,32.7891104928606 M 41.33999420039247,98.44703658816714 M 41.75000182371876,98.61686730642283 M 42.10208335173719,98.88702896483782 M 42.37224501015504,99.23911049285343 M 42.542075728415114,99.64911811617831 M 42.600001823725805,100.08911049285211 M 42.542075728419164,100.52910286952682 M 42.372245010163496,100.9391104928534 M 42.102083351748604,101.29119202087173 M 41.75000182373299,101.56135367928982 M 41.3399942004083,101.73118439754965 M 40.90000182373393,101.78911049286026 M 40.46000944705982,101.73118439755387 M 40.05000182373311,101.56135367929795 M 39.69792029571448,101.29119202088327 M 39.42775863729659,100.93911049286748 M 39.25792791903655,100.52910286954254 M 39.20000182372604,100.08911049286867 M 39.25792791903251,99.64911811619423 M 39.42775863728818,99.23911049286762 M 39.6979202957031,98.88702896484922 M 40.05000182371889,98.61686730643123 M 40.460009447043944,98.44703658817113 M 40.9000018237177,98.3891104928607 M 63.14207572841525,99.64911811607907 M 63.20000182372594,100.08911049275298 M 63.1420757284195,100.52910286942762 M 62.972245010163604,100.93911049275415 M 62.70208335174887,101.29119202077241 M 62.35000182373305,101.5613536791906 M 61.93999420040818,101.73118439745043 M 61.500001823734166,101.78911049276117 M 61.0600094470596,101.7311843974548 M 60.650001823733064,101.56135367919885 M 60.297920295714434,101.29119202078405 M 60.02775863729653,100.93911049276832 M 59.85792791903647,100.52910286944342 M 59.800001823725964,100.08911049276945 M 59.857927919032434,99.64911811609483 M 60.027758637288116,99.23911049276823 M 60.29792029570302,98.88702896474976 M 60.65000182371885,98.61686730633176 M 61.06000944704374,98.44703658807188 M 61.50000182371775,98.38911049276125 M 61.93999420039232,98.4470365880677 M 62.350001823718856,98.61686730632366 M 62.702083351737286,98.88702896473828 M 62.97224501015539,99.23911049275402 M 50.60208335124783,6.437028964796625 M 50.87224500966613,6.789110492812441 M 51.04207572792575,7.199118116137356 M 51.10000182323624,7.639110492811383 M 51.04207572793021,8.079102869485908 M 50.872245009674145,8.489110492812415 M 50.60208335125961,8.841192020830874 M 50.250001823243565,9.111353679249007 M 49.83999419991868,9.281184397508866 M 49.40000182324488,9.339110492819515 M 48.9600094465701,9.281184397513101 M 48.55000182324356,9.111353679257249 M 48.19792029522533,8.84119202084247 M 47.92775863680703,8.489110492826683 M 47.75792791854737,8.079102869501781 M 47.70000182323626,7.639110492827797 M 47.75792791854295,7.199118116153201 M 47.927758636798984,6.789110492826694 M 48.19792029521355,6.437028964808221 M 48.55000182322917,6.166867306390117 M 48.96000944655427,5.9970365881303 M 49.40000182322828,5.939110492819523 M 49.83999419990282,5.997036588126079 M 50.25000182322914,6.166867306381931 M 67.00000182387713,128.6391104927346 M 66.56000944720256,128.58118439742836 M 66.15000182387591,128.4113536791726 M 65.79792029585737,128.14119202075813 M 65.52775863743909,127.78911049274242 M 65.35792791917906,127.37910286941758 M 65.30000182386814,126.93911049274362 M 65.3579279191744,126.49911811606904 M 65.5277586374301,126.08911049274244 M 65.79792029584463,125.73702896472385 M 66.15000182386032,125.46686730630555 M 66.56000944718515,125.29703658804556 M 67.00000182385914,125.23911049273465 M 67.43999420053373,125.29703658804091 M 67.85000182386035,125.46686730629662 M 68.2020833518789,125.73702896471113 M 68.47224501029719,126.08911049272686 M 68.64207572855722,126.49911811605165 M 68.70000182386813,126.93911049272563 M 68.64207572856188,127.37910286940021 M 68.47224501030618,127.78911049272688 M 68.20208335189162,128.14119202074542 M 67.85000182387591,128.41135367916365 M 67.4399942005511,128.5811843974237 M 92.04452032890322,18.173333026552342 M 91.99000165044271,17.759222554457097 M 92.04452032785724,17.34511208222426 M 92.2043610033773,16.959222554186454 M 92.45863079911545,16.62785170396681 M 92.79000164869294,16.373581907391724 M 93.17589117632696,16.213741230897014 M 93.59000164842205,16.159222552436532 M 94.00411212065501,16.213741229851095 M 94.39000164869293,16.373581905371182 M 94.72137249891242,16.62785170110932 M 94.9756422954875,16.959222550686718 M 95.13548297198221,17.345112078320867 M 95.19000165044267,17.759222550416 M 95.13548297302822,18.17333302264892 M 94.97564229750814,18.559222550686712 M 94.7213725017699,18.890593400906283 M 94.39000165219252,19.144863197481428 M 94.0041121245585,19.304703873976152 M 93.59000165246313,19.35922255243655 M 93.17589118023045,19.304703875022057 M 92.79000165219253,19.14486319950197 M 92.45863080197296,18.890593403763773 M 92.20436100539796,18.559222554186448 M 74.42436100539786,18.559222554094646 M 74.26452032890312,18.17333302646054 M 74.21000165044269,17.75922255436528 M 74.26452032785723,17.34511208213246 M 74.4243610033773,16.95922255409465 M 74.67863079911548,16.62785170387501 M 75.01000164869285,16.373581907299922 M 75.39589117632697,16.213741230805198 M 75.81000164842214,16.159222552344744 M 76.22411212065504,16.213741229759265 M 76.61000164869296,16.373581905279366 M 76.94137249891244,16.627851701017534 M 77.1956422954875,16.9592225505949 M 77.35548297198223,17.34511207822908 M 77.41000165044267,17.75922255032421 M 77.35548297302822,18.173333022557145 M 77.19564229750812,18.559222550594924 M 76.9413725017699,18.890593400814467 M 76.61000165219248,19.144863197389625 M 76.22411212455839,19.304703873884364 M 75.81000165246323,19.359222552344733 M 75.39589118023034,19.304703874930198 M 75.01000165219251,19.144863199410167 M 74.67863080197291,18.890593403671986 M 93.17589123957114,66.294703875022 M 92.79000171153345,66.13486319950191 M 92.45863086131394,65.88059340376375 M 92.20436106473868,65.54922255418639 M 92.04452038824411,65.16333302655228 M 91.99000170978368,64.74922255445719 M 92.0445203871981,64.3351120822242 M 92.20436106271822,63.949222554186406 M 92.45863085845646,63.61785170396682 M 92.79000170803383,63.363581907391705 M 93.17589123566785,63.203741230897 M 93.59000170776302,63.149222552436555 M 94.00411217999591,63.203741229851076 M 94.39000170803382,63.36358190537118 M 94.72137255825342,63.617851701109316 M 94.97564235482838,63.949222550686684 M 95.13548303132312,64.3351120783208 M 95.19000170978366,64.74922255041609 M 95.13548303236912,65.16333302264889 M 94.97564235684885,65.54922255068666 M 94.72137256111088,65.88059340090628 M 94.39000171153342,66.13486319748137 M 94.0041121838992,66.29470387397609 M 93.59000171180413,66.34922255243653 M 74.26452038771892,65.16333302450079 M 74.21000170978355,64.74922255233659 M 74.26452038772318,64.33511208017276 M 74.42436106373259,63.9492225523376 M 74.67863085989093,63.61785170244045 M 75.01000170979071,63.36358190628553 M 75.39589123762751,63.2037412302801 M 75.81000170979182,63.149222552344746 M 76.22411218195558,63.20374123028438 M 76.61000170979081,63.36358190629379 M 76.94137255968798,63.61785170245212 M 77.19564235584278,63.94922255235193 M 77.35548303184821,64.3351120801887 M 77.41000170978366,64.74922255235309 M 77.35548303184403,65.16333302451675 M 77.19564235583444,65.5492225523519 M 76.94137255967627,65.88059340224908 M 76.6100017097764,66.13486319840399 M 76.22411218193963,66.29470387440941 M 75.8100017097753,66.34922255234473 M 75.39589123761156,66.29470387440512 M 75.01000170977642,66.13486319839572 M 74.67863085987925,65.8805934022374 M 74.42436106372435,65.5492225523376 M 77.41000176752063,110.46922255235299 M 77.3554830895811,110.88333302451674 M 77.19564241357169,111.26922255235188 M 76.94137261741326,111.60059340224902 M 76.61000176751347,111.85486319840393 M 76.22411223967669,112.01470387440936 M 75.81000176751239,112.06922255234473 M 75.39589129534863,112.01470387440511 M 75.01000176751349,111.85486319839566 M 74.67863091761632,111.60059340223731 M 74.42436112146142,111.26922255233757 M 74.264520445456,110.88333302450079 M 74.21000176752067,110.46922255233648 M 74.26452044546028,110.0551120801727 M 74.42436112146969,109.66922255233757 M 74.67863091762801,109.3378517024404 M 75.0100017675278,109.08358190628547 M 75.3958912953646,108.92374123028014 M 75.8100017675289,108.86922255234475 M 76.22411223969266,108.92374123028438 M 76.61000176752789,109.0835819062938 M 76.94137261742495,109.3378517024521 M 77.19564241357988,109.66922255235188 M 77.35548308958526,110.05511208018865 M 94.72137261742498,109.33785170254393 M 94.97564241357989,109.6692225524437 M 95.13548308958529,110.05511208028048 M 95.19000176752064,110.46922255244479 M 95.1354830895811,110.88333302460853 M 94.9756424135717,111.26922255244365 M 94.72137261741327,111.60059340234085 M 94.3900017675135,111.85486319849576 M 94.00411223967679,112.01470387450117 M 93.59000176751232,112.06922255243651 M 93.17589129534875,112.01470387449689 M 92.7900017675135,111.85486319848752 M 92.45863091761633,111.60059340232917 M 92.20436112146152,111.26922255242937 M 92.04452044545613,110.88333302459259 M 91.99000176752068,110.46922255242826 M 92.0445204454603,110.05511208026452 M 92.2043611214697,109.66922255242937 M 92.45863091762803,109.33785170253222 M 92.79000176752793,109.08358190637733 M 93.17589129536461,108.92374123037189 M 93.59000176752883,108.86922255243657 M 94.00411223969266,108.92374123037618 M 94.39000176752789,109.08358190638555 M 45.67850138676292,83.46986543444498 M 46.74458617479284,83.46986545032571 M 47.02981059463396,84.74947892090866 M 47.12488539053665,85.8950524884097 M 47.087868548282614,86.52180591678584 M 46.97681804130191,87.07413602735133 M 46.791733869594324,87.55204282010556 M 46.53261603315997,87.95552629504829 M 46.206088596964435,88.27601413307717 M 45.81877562597333,88.504934015088 M 45.37067712018674,88.64228594108155 M 44.86179307960431,88.6880699110569 M 44.14327687190409,88.56883673327162 M 43.58373822386601,88.21113722368975 M 43.109922772421626,87.54639282760401 M 42.64857615450289,86.5060249903079 M 42.34932429643753,85.6830823424586 M 42.00643154076735,84.85000877126589 M 41.713414091733355,84.35826936540487 M 41.3970175865923,84.11746512129005 M 40.98398766260085,84.03719703533703 M 40.44081434387273,84.17279553098619 M 40.02077069691539,84.57959103595105 M 39.75191158522139,85.21394265289378 M 39.6622918722841,86.03220948447662 M 39.70827066672689,86.60616522082206 M 39.84620706612138,87.2494788138992 M 40.397952679765964,88.74417957024797 M 39.18224195657393,88.74417955213855 M 38.85025943510571,87.25571321302859 M 38.739598604893985,86.06961595452204 M 38.78109643338682,85.36220479553943 M 38.90558989666981,84.72999625624686 M 39.11307899474281,84.1729903366444 M 39.4035637276055,83.69118703673212 M 39.76340631444282,83.30251029645665 M 40.178968974438675,83.02488405576409 M 40.65025170759347,82.85830831465479 M 41.177254513906774,82.80278307312868 M 41.853688427499435,82.91149567672123 M 42.42413730044656,83.23763346576739 M 42.888601132748576,83.78119644026722 M 43.24707992440524,84.5421846002209 M 43.502690885829466,85.29031427983894 M 43.77700508859171,86.07585044352653 M 44.06612602565862,86.78501503636156 M 44.3474539492162,87.22921703556489 M 44.66930556668119,87.46300756405009 M 45.07999758547038,87.54093774473148 M 45.57095768677087,87.43690096900237 M 45.92164347695622,87.12479062509932 M 46.13205495602682,86.60460671302174 M 46.202192123982314,85.87634923276988 M 46.0712694475251,84.74792030313877 M 45.08623213038207,78.75041405405125 M 40.40418722467746,79.95365587956796 M 45.70343908144275,80.86388039740996 M 45.70343906454043,81.99854373905578 M 38.932865516843876,80.76412967311217 M 38.93286553504623,79.5421845359549 M 43.995209694292825,78.22672326473169 M 38.932865572565845,77.02348129405974 M 38.932865590582466,75.81400498483276 M 45.70343917681993,74.46113725526534 M 45.703439162796656,75.40253376399355 M 40.22338927234718,76.4187431586703 M 45.08623214812009,77.55964098671964 M 45.70343919409369,73.30153625775911 M 44.78074592726078,73.3015362440145 M 44.780745963944526,70.83894272780495 M 38.932865664692656,70.83894264069313 M 38.932865682987924,69.61076308957095 M 45.7034392490727,69.61076319042743 M 48.77700533618257,69.45490288708507 M 48.77700531324356,70.99480313646163 M 47.23710506386699,70.99480311352283 M 47.237105086806025,69.45490286414623 M 47.006431866868,62.958643509089086 M 47.00643184857276,64.18682306021131 M 45.54757898074233,64.18682303847987 M 45.54757895557462,65.87634922301851 M 44.62488568874173,65.87634920927366 M 44.62488571390941,64.18682302473508 M 41.358052796203665,64.18682297607126 M 40.66700697376591,64.15292333984215 M 40.09636327203907,64.05122445353611 M 39.646121691022714,63.881726317153365 M 39.31628223071726,63.64442893069389 M 39.08034863215963,63.313225685284024 M 38.911824636387294,62.86200997205053 M 38.81071024340014,62.29078179099306 M 38.777005453198484,61.599541142112 M 38.81752915701969,60.7236059806208 M 38.93910024285145,59.81649875051158 M 39.87426233761454,59.81649876444209 M 39.74333963304197,60.57546560320256 M 39.69969872388687,61.34071556358734 M 39.76983587033912,62.05599280122816 M 39.98024733389131,62.577564850808855 M 40.156369525485246,62.773571419049645 M 40.36054658115506,62.88680153041405 M 41.15855156761616,62.95864342197726 M 44.624885732204675,62.95864347361282 M 44.624885776968,59.953655942440776 M 45.54757904380091,59.9536559561856 M 45.54757899903757,62.95864348735771 M 44.50019761254609,52.24168586577043 M 45.52887591678548,52.241685881094014 M 45.77201804524134,53.328032518132396 M 45.85306541074429,54.40502753180846 M 45.794617767971914,55.20049978779562 M 45.6192748647299,55.90362478518367 M 45.32703670101807,56.51440252397254 M 44.917903276836526,57.032833004162235 M 44.40473307117986,57.44605774714132 M 43.800384563042286,57.74121827429837 M 43.10485775242418,57.918314585633425 M 42.31815263932536,57.977346681146265 M 41.51858904919378,57.91753526025819 M 40.815658877303264,57.73810102285445 M 40.20936212365338,57.43904396893507 M 39.69969878824429,57.02036409850008 M 39.296020491890005,56.491023381763554 M 39.007678855404905,55.85998378893972 M 38.83467387878892,55.12724532002844 M 38.77700556204189,54.29280797502969 M 38.87052178770068,53.20646134300625 M 39.15107043235869,52.116997506786376 M 40.11740459694721,52.116997521181226 M 39.80412527941364,53.176847890579346 M 39.69969883138228,54.12447881171703 M 39.74314489531132,54.68771914902254 M 39.87348310483635,55.1866670936075 M 40.090713459957584,55.62132264547189 M 40.394835960674826,55.99168580461569 M 40.775719684446045,56.28762564819468 M 41.22323370872871,56.49901125336471 M 41.7373780335226,56.62584262012582 M 42.318152658827984,56.66811974847795 M 42.89366699856927,56.62857019345995 M 43.40449929460101,56.50992151029646 M 43.85064954692341,56.31217369898738 M 44.23211775553608,56.03532675953264 M 44.537604044982544,55.689121963584505 M 44.75580853980574,55.283300582795015 M 44.88673124000587,54.81786261716422 M 44.930372145583064,54.292808066692096 M 44.822828518638886,53.35608736683578 M 48.77700564181684,48.93744652798282 M 48.77700562352163,50.16562607910501 M 38.93286597264877,50.16562593246364 M 38.93286599094404,48.93744638134146 M 43.359299906156025,48.93744644727895 M 43.94026936496897,48.437914036980665 M 44.35524755179874,47.94929184864862 M 44.60423446664548,47.47157988228279 M 44.68723010950944,47.00477813788318 M 44.603844830121034,46.50836292467097 M 44.35368897468243,46.17871828254057 M 43.90559047369305,45.99402376214985 M 43.22837725765261,45.932458914156655 M 38.932866035707434,45.932458850169404 M 38.93286605400263,44.704279299047144 M 43.56503563006248,44.70427936804939 M 44.56604872053833,44.824681502661605 M 44.95930386168794,44.975184158145524 M 45.281058066778584,45.185887872414895 M 45.531311335810514,45.45679264546933 M 45.71006366878348,45.78789847730918 M 45.8173150656975,46.17920536793426 M 45.853065526552754,46.63071331734461 M 45.76422511725342,47.32195396440022 M 45.497703911086575,47.93682303773679 M 45.05350190805265,48.475320537354214 M 44.431619108151025,48.9374464632526 M 45.70343955702883,48.937446482198 M 75.81000170346934,59.7492225523448 M 75.8100016504668,22.75922255437358 M 76.46263261156273,22.716446861240044 M 77.10409687597063,22.588851685814845 M 77.72341881227895,22.37862021692557 M 78.31000165044912,22.08934957329201 M 78.85380879548896,21.72598925582777 M 79.34553555637481,21.294756460306928 M 79.77676835189585,20.80302969942116 M 80.14012866936022,20.25922255438151 M 80.42939931299402,19.672639716211307 M 80.6396307818835,19.053317779903082 M 80.76722595730895,18.41185351549528 M 80.81000165044267,17.759222554399415 M 88.59000165044264,17.759222554439575 M 88.63277734357084,18.411853515544152 M 88.76037251899277,19.05331777996109 M 88.97060398788112,19.67263971627851 M 89.25987463151584,20.25922255445741 M 89.62323494898351,20.803029699504975 M 90.05446774450932,21.294756460397508 M 90.54619450540176,21.72598925592358 M 91.09000165044907,22.089349573391303 M 91.67658448862801,22.378620217026253 M 92.29590642494537,22.588851685914804 M 92.9373706893622,22.716446861337047 M 93.59000165046686,22.759222554465353 M 93.59000170346933,59.74922255243659 M 92.29590647817187,59.91959342262549 M 91.09000170431521,60.419095536671506 M 90.05446779938592,61.21368865096868 M 89.2598746877042,62.249222557904844 M 88.76037257670393,63.455127333023 M 88.59000170978359,64.74922255875077 M 88.76037257997243,66.04331778404823 M 89.25987469401844,67.2492225579049 M 90.05446780831562,68.28475646283411 M 91.09000171525179,69.07934957451587 M 92.29590649036993,69.57885168551616 M 93.59000171609779,69.74922255243658 M 93.5900017612064,105.46922255243652 M 92.937370800684,105.5119982463227 M 92.2959065369296,105.63959342235191 M 91.67658460132596,105.84982489168989 M 91.09000176388253,106.13909553561474 M 90.5461946195634,106.50245585321605 M 90.05446785936464,106.93368864872707 M 89.623235064472,107.42541540946821 M 89.25987474755459,107.96922255424438 M 88.97060410436755,108.5558053920516 M 88.76037263580851,109.17512732791968 M 88.63277746058598,109.8165915918345 M 88.59000176752062,110.46922255241074 M 80.81000176752063,110.46922255237054 M 80.7672260743241,109.8165915907463 M 80.63963089869922,109.17512732583637 M 80.42939942948044,108.55580538907876 M 80.14012878539903,107.96922255053687 M 79.77676846738437,107.42541540522582 M 79.34553567123012,106.93368864418869 M 78.85380890965062,106.50245584865287 M 78.31000176388252,106.13909553132211 M 77.72341892497685,105.84982488797851 M 77.10409698795483,105.63959341953866 M 76.4626327228845,105.51199824472044 M 75.81000176120642,105.4692225523447 M 75.81000171609777,69.74922255234479 M 77.10409694139516,69.57885168215589 M 78.31000171525181,69.07934956810985 M 79.34553562018111,68.28475645381269 M 80.14012873186286,67.24922254687652 M 80.63963084286313,66.04331777175835 M 80.81000170978362,64.74922254603055 M 80.63963083959462,63.45512732073313 M 80.1401287255486,62.24922254687652 M 79.3455356112514,61.21368864194722 M 78.31000170431523,60.41909553026549 M 77.1040969291971,59.91959341926521 "
  />
</svg>
