<?xml version="1.0" standalone="no"?>
<!DOCTYPE svg PUBLIC "-//W3C//DTD SVG 1.1//EN" "http://www.w3.org/Graphics/SVG/1.1/DTD/svg11.dtd">
<svg width="239.02301144450502mm" height="276.00000000000006mm"
 viewBox="0 0 239.02301144450502 276.00000000000006"
 xmlns="http://www.w3.org/2000/svg" version="1.1"
 xmlns:xlink="http://www.w3.org/1999/xlink">
<desc>Output from Flights of Ideas SVG Sketchup Plugin</desc>

  <path id="face0-cut"
 style="fill:none;stroke:#FF0000;stroke-width:0.1;stroke-miterlimit:4;stroke-dasharray:none;stroke-linejoin:round;stroke-linecap:round"
        d="M 239.02301144450502,207.0000000000001 L 239.02301144450502,187.0000000000001 L 239.02301144450502,118.72613565215727 L 239.02301144450502,92.99999999999999 L 239.02301144450502,89.00000000000001 L 239.02301144450502,68.99999999999997 L 221.7025033688162,58.99999999999994 L 162.59792224834368,24.87595417975497 L 140.29611541307918,11.999999999999986 L 136.83201379794144,9.999999999999915 L 119.51150572225261,0.0 L 102.19099764656384,9.999999999999957 L 43.063979228585154,44.13699999999998 L 20.7846096908267,56.999999999999964 L 17.32050807568885,59.00000000000001 L 1.1368683772161603e-13,68.99999999999991 L 5.684341886080802e-14,89.0 L 5.684341886080802e-14,157.27399999999997 L 0.0,183.0000000000004 L 0.0,187.0 L 5.684341886080802e-14,207.00000000000014 L 17.32050807568882,217.00000000000034 L 76.44752649366767,251.13699999999994 L 98.72689603142604,264.00000000000006 L 102.19099764656377,266.00000000000006 L 119.51150572225261,276.00000000000006 L 136.83201379794133,266.00000000000006 L 195.95903221591996,231.86300000000006 L 218.23840175367843,219.0 L 221.70250336881622,217.0 L 239.02301144450502,207.0000000000001 M 207.58315407754057,209.27084017629628 L 192.86072209072069,217.77084003035407 L 191.3607217285545,215.1727631254874 L 131.51150572225265,249.72672409730023 L 131.51150572225265,218.3535106751798 L 197.09968725041946,180.48615641446878 L 224.269687072414,196.1727631255755 L 206.0831535929127,206.6727631255274 L 207.58315407754057,209.27084017629628 M 195.099687072413,92.04974207317206 L 222.26968707241298,76.36313525928992 L 222.26968707241298,97.36313525928995 L 225.26968708820405,97.36313525928998 L 225.26968707241292,114.36313525928995 L 222.26968707241298,114.36313525928995 L 222.26968707241298,183.47105720340426 L 195.09968707241296,167.78445038952603 L 195.099687072413,92.04974207317206 M 137.56792886894095,26.305851821301637 L 151.55423916273872,34.380851834395365 L 150.05423916273867,36.97892804574871 L 210.26968707241295,71.74433310577292 L 183.09968707241296,87.43093991965506 L 117.51150572225262,49.56358576148217 L 117.51150572225261,18.1903721337179 L 136.06792889161997,28.903928045748657 L 137.56792886894095,26.305851821301637 M 31.439858608237188,66.72916167245072 L 46.162289976849166,58.229160813815405 L 47.66228997684222,60.827237025172764 L 107.51150572225265,26.27327620398534 L 107.51150572225262,57.64648983170146 L 41.92332463302807,95.51384383898903 L 14.753324633043178,79.82723702511942 L 32.939858112484046,69.32723702513329 L 31.439858608237188,66.72916167245072 M 13.753324632983407,178.63686459008426 L 13.753324632983407,161.6368645900842 L 16.753324632983407,161.63686459008443 L 16.753324632983407,92.52894294725486 L 43.923324632983395,108.21554976113305 L 43.92332463298342,183.95025777620214 L 16.753324632983407,199.63686459008437 L 16.753324632983407,178.63686459008431 L 13.753324632983407,178.63686459008426 M 101.82497224277944,249.90770407726023 L 87.10254037844399,241.4077040772603 L 88.60254037844395,238.80962786590703 L 28.75332437241707,204.25566689403985 L 55.92332437241711,188.56906008015733 L 121.51150572225265,226.43641423814267 L 121.51150572225265,257.8096278659069 L 103.32497224277942,247.30962786590698 L 101.82497224277944,249.90770407726023 M 227.85446024006845,202.18599862310043 L 213.91328108209493,210.23494188576677 L 211.91328113371847,206.7708402408258 L 225.85446029169233,198.7218969781577 L 227.85446024006845,202.18599862310043 M 162.38293915065162,239.98599764740726 L 148.5265325708811,247.98599744091297 L 146.52653262250496,244.52189579597007 L 160.38293920227537,236.52189600246453 L 162.38293915065162,239.98599764740726 M 106.15509792881645,252.4077030068284 L 120.09627696684231,260.45664647725187 L 118.09627696684221,263.9207480923896 L 104.15509792881748,255.8718046219658 L 106.15509792881645,252.4077030068284 M 40.76834998019169,214.65664647725168 L 54.62475644074283,222.6566464772506 L 52.6247564407428,226.12074809238823 L 38.76834998019149,218.12074809238885 L 40.76834998019169,214.65664647725168 M 13.753325559881489,183.63686497800683 L 13.753325559880125,199.73475191885606 L 9.753325559880182,199.73475191885495 L 9.753325559882313,183.63686497800666 L 13.753325559881489,183.63686497800683 M 13.753325559897718,108.13475191885928 L 13.753325559895927,124.13475191885897 L 9.753325559895842,124.13475191885829 L 9.753325559897746,108.13475191885833 L 13.753325559897718,108.13475191885928 M 90.49648009830617,28.01400320421105 L 92.49648009830636,31.47810481934885 L 78.64007363775647,39.47810481935062 L 76.6400736377561,36.01400320421302 L 90.49648009830617,28.01400320421105 M 27.109732149681037,69.22916134892505 L 13.168553111657246,77.27810481935204 L 11.168553111657019,73.8140032042144 L 25.109732149680525,65.76505973378852 L 27.109732149681037,69.22916134892505 M 120.92673162718691,12.079250872987117 L 134.8679107354705,20.12819422171883 L 132.86791076570964,23.592295854314116 L 118.92673165742482,15.543352505582746 L 120.92673162718691,12.079250872987117 M 186.39825248324115,49.879250301489975 L 200.25465901362412,57.879250180537056 L 198.25465904386195,61.34335181313271 L 184.39825251347915,53.34335193408569 L 186.39825248324115,49.879250301489975 M 229.26968664360123,76.26524890481171 L 229.2696869828361,92.3631358456601 L 225.26968698283696,92.36313592995374 L 225.26968664360123,76.2652489891045 L 229.26968664360123,76.26524890481171 M 229.26968823673377,151.86524890480865 L 229.26968857390608,167.86524890480868 L 225.26968857390602,167.86524898910142 L 225.26968823673369,151.8652489891016 L 229.26968823673377,151.86524890480865 M 117.51150370521079,112.99999999948727 L 117.51150369331438,76.71100001772282 L 121.51150371315191,76.7110000177228 L 121.51150408586105,113.00000000461982 L 117.51150370521079,112.99999999948727 M 121.51150462152339,163.00000000006344 L 121.51150480589988,199.28922252134393 L 117.51150500254693,199.28922256892528 L 117.51150462152339,163.0000000425121 L 121.51150462152339,163.00000000006344 M 229.76968764130814,104.99711047498003 L 229.97679442249466,105.15602909757794 L 230.13571304509256,105.36313587876447 L 230.2356134675972,105.60431683366195 L 230.2696876413081,105.86313587876448 L 230.2356134675972,106.12195492386701 L 230.13571304509256,106.36313587876445 L 229.97679442249466,106.570242659951 L 229.76968764130814,106.72916128254893 L 229.52850668641062,106.82906170505356 L 229.2696876413081,106.8631358787645 L 229.01086859620563,106.82906170505356 L 228.7696876413081,106.72916128254892 L 228.56258086012156,106.57024265995105 L 228.4036622375237,106.36313587876447 L 228.30376181501904,106.12195492386701 L 228.2696876413081,105.86313587876448 L 228.30376181501902,105.60431683366195 L 228.4036622375237,105.36313587876447 L 228.56258086012156,105.15602909757794 L 228.7696876413081,104.99711047498003 L 229.01086859620563,104.8972100524754 L 229.2696876413081,104.8631358787645 L 229.52850668641062,104.89721005247543 L 229.76968764130814,104.99711047498003 M 203.4210755651456,215.4761224093254 L 203.5209759876509,215.2349414544282 L 203.67989461024936,215.02783467324207 L 203.88700139143629,214.8689160506447 L 204.12818234633406,214.76901562814072 L 204.38700139143668,214.7349414544305 L 204.64582043653908,214.7690156281421 L 204.88700139143634,214.8689160506474 L 205.0941081726224,215.02783467324582 L 205.25302679521977,215.23494145443283 L 205.3529272177238,215.47612240933057 L 205.38700139143398,215.73494145443317 L 205.35292721772237,215.9937604995356 L 205.2530267952171,216.23494145443283 L 205.09410817261863,216.44204823561893 L 204.88700139143165,216.60096685821628 L 204.64582043653394,216.70086728072027 L 204.3870013914313,216.7349414544305 L 204.12818234632886,216.70086728071885 L 203.88700139143168,216.60096685821355 L 203.67989461024553,216.44204823561512 L 203.52097598764823,216.23494145442817 L 203.42107556514426,215.99376049953042 L 203.38700139143398,215.73494145442783 L 203.4210755651456,215.4761224093254 M 200.0568743725078,217.23494145441896 L 200.21579299510623,217.0278346732328 L 200.4228997762932,216.86891605063545 L 200.66408073119095,216.76901562813146 L 200.92289977629358,216.73494145442118 L 201.18171882139598,216.76901562813282 L 201.42289977629318,216.86891605063812 L 201.6300065574793,217.02783467323655 L 201.78892518007666,217.2349414544235 L 201.88882560258062,217.4761224093213 L 201.92289977629088,217.7349414544239 L 201.8888256025793,217.99376049952633 L 201.788925180074,218.2349414544235 L 201.63000655747553,218.4420482356096 L 201.4228997762886,218.60096685820696 L 201.18171882139083,218.700867280711 L 200.9228997762882,218.73494145442118 L 200.66408073118578,218.7008672807096 L 200.42289977628855,218.60096685820434 L 200.21579299510248,218.44204823560585 L 200.05687437250512,218.2349414544189 L 199.9569739500011,217.99376049952116 L 199.92289977629088,217.73494145441856 L 199.95697395000252,217.47612240931608 L 200.0568743725078,217.23494145441896 M 97.36086929475933,251.37180462196238 L 97.32679512104838,251.63062366706492 L 97.22689469854377,251.87180462196244 L 97.06797607594588,252.078911403149 L 96.86086929475934,252.23783002574686 L 96.61968833986184,252.33773044825153 L 96.3608692947593,252.37180462196233 L 96.10205024965678,252.33773044825142 L 95.8608692947593,252.2378300257468 L 95.6537625135728,252.078911403149 L 95.49484389097486,251.87180462196244 L 95.39494346847025,251.63062366706487 L 95.36086929475933,251.37180462196244 L 95.39494346847025,251.11298557685996 L 95.49484389097485,250.87180462196233 L 95.65376251357277,250.66469784077583 L 95.8608692947593,250.50577921817796 L 96.10205024965678,250.4058787956733 L 96.36086929475933,250.3718046219625 L 96.61968833986184,250.40587879567335 L 96.8608692947593,250.5057792181779 L 97.06797607594585,250.6646978407759 L 97.22689469854376,250.87180462196244 L 97.32679512104838,251.11298557685996 L 97.36086929475933,251.37180462196238 M 91.93084185333268,249.63062366706498 L 91.89676767962175,249.3718046219625 L 91.93084185333268,249.11298557685996 L 92.03074227583731,248.87180462196255 L 92.18966089843519,248.66469784077606 L 92.3967676796217,248.50577921817813 L 92.63794863451919,248.40587879567346 L 92.8967676796217,248.3718046219626 L 93.15558672472422,248.40587879567346 L 93.39676767962166,248.50577921817813 L 93.6038744608082,248.66469784077606 L 93.7627930834061,248.8718046219626 L 93.86269350591067,249.11298557685996 L 93.89676767962163,249.37180462196255 L 93.86269350591071,249.6306236670651 L 93.76279308340607,249.8718046219625 L 93.60387446080819,250.07891140314905 L 93.39676767962166,250.23783002574697 L 93.15558672472419,250.3377304482516 L 92.89676767962166,250.37180462196238 L 92.63794863451922,250.33773044825153 L 92.3967676796217,250.23783002574697 L 92.18966089843518,250.078911403149 L 92.03074227583728,249.8718046219625 L 91.93084185333268,249.63062366706498 M 90.29869146826825,246.87180462196255 L 90.39859189077286,247.11298557686 L 90.43266606448378,247.3718046219625 L 90.39859189077286,247.63062366706498 L 90.29869146826825,247.8718046219625 L 90.13977284567034,248.07891140314888 L 89.93266606448383,248.2378300257468 L 89.6914851095864,248.33773044825148 L 89.4326660644839,248.37180462196238 L 89.17384701938141,248.33773044825148 L 88.932666064484,248.23783002574692 L 88.72555928329744,248.078911403149 L 88.5666406606996,247.87180462196244 L 88.46674023819497,247.63062366706504 L 88.43266606448405,247.37180462196244 L 88.466740238195,247.11298557686 L 88.5666406606996,246.87180462196255 L 88.72555928329749,246.66469784077606 L 88.93266606448401,246.50577921817813 L 89.17384701938145,246.40587879567357 L 89.43266606448397,246.37180462196278 L 89.69148510958644,246.40587879567357 L 89.93266606448388,246.50577921817825 L 90.13977284567042,246.66469784077617 L 90.29869146826825,246.87180462196255 M 9.753325559883393,175.63686497800677 L 10.012144604985878,175.67093915171787 L 10.253325559883365,175.77083957422255 L 10.460432341069946,175.92975819682025 L 10.619350963667728,176.13686497800694 L 10.719251386172346,176.37804593290457 L 10.753325559883251,176.63686497800683 L 10.719251386172232,176.8956840231096 L 10.619350963667586,177.13686497800688 L 10.460432341069719,177.34397175919355 L 10.25332555988308,177.5028903817914 L 10.01214460498565,177.6027908042962 L 9.753325559883109,177.636864978007 L 9.494506514780596,177.6027908042958 L 9.253325559883137,177.50289038179125 L 9.046218778696613,177.34397175919355 L 8.887300156098718,177.13686497800677 L 8.787399733594128,176.89568402310917 L 8.753325559883251,176.63686497800677 L 8.787399733594157,176.37804593290423 L 8.88730015609886,176.13686497800666 L 9.046218778696783,175.92975819682013 L 9.253325559883308,175.77083957422218 L 9.494506514780852,175.6709391517178 L 9.753325559883393,175.63686497800677 M 10.753325559883706,172.63686497800694 L 10.719251386172687,172.89568402310965 L 10.61935096366804,173.13686497800717 L 10.460432341070174,173.34397175919366 L 10.253325559883592,173.5028903817916 L 10.012144604986105,173.60279080429598 L 9.75332555988362,173.63686497800705 L 9.494506514781136,173.60279080429603 L 9.253325559883677,173.50289038179125 L 9.046218778697153,173.34397175919344 L 8.887300156099315,173.136864978007 L 8.787399733594697,172.89568402310942 L 8.753325559883791,172.63686497800688 L 8.78739973359481,172.37804593290446 L 8.887300156099457,172.13686497800688 L 9.046218778697323,171.92975819682053 L 9.253325559883905,171.7708395742224 L 9.494506514781392,171.67093915171802 L 9.753325559883876,171.63686497800722 L 10.012144604986332,171.67093915171813 L 10.25332555988382,171.77083957422258 L 10.460432341070344,171.9297581968208 L 10.619350963668182,172.13686497800722 L 10.7192513861728,172.37804593290466 L 10.753325559883706,172.63686497800694 M 10.619350963668666,168.13686497800742 L 10.719251386173227,168.3780459329048 L 10.75332555988416,168.63686497800722 L 10.719251386173141,168.8956840231096 L 10.619350963668495,169.13686497800694 L 10.4604323410706,169.34397175919366 L 10.253325559884075,169.50289038179147 L 10.012144604986588,169.6027908042958 L 9.753325559884104,169.63686497800694 L 9.49450651478162,169.60279080429603 L 9.253325559884217,169.50289038179125 L 9.046218778697693,169.3439717591933 L 8.887300156099855,169.13686497800677 L 8.787399733595265,168.8956840231092 L 8.753325559884388,168.63686497800688 L 8.78739973359535,168.3780459329044 L 8.887300156099997,168.13686497800705 L 9.04621877869792,167.92975819682027 L 9.253325559884502,167.77083957422252 L 9.494506514781932,167.67093915171804 L 9.753325559884416,167.63686497800745 L 10.0121446049869,167.6709391517181 L 10.25332555988436,167.77083957422275 L 10.460432341070828,167.92975819682076 L 10.619350963668666,168.13686497800742 M 10.01214460498747,163.67093915171804 L 10.2533255598849,163.77083957422258 L 10.460432341071368,163.92975819682056 L 10.619350963669206,164.1368649780074 L 10.719251386173823,164.37804593290457 L 10.7533255598847,164.6368649780071 L 10.719251386173767,164.89568402310965 L 10.61935096366912,165.13686497800714 L 10.460432341071197,165.3439717591935 L 10.253325559884615,165.50289038179147 L 10.012144604987185,165.60279080429615 L 9.753325559884644,165.63686497800694 L 9.494506514782216,165.60279080429592 L 9.253325559884757,165.50289038179142 L 9.046218778698233,165.3439717591934 L 8.887300156100366,165.13686497800683 L 8.787399733595805,164.89568402310925 L 8.753325559884871,164.63686497800694 L 8.78739973359589,164.37804593290434 L 8.887300156100537,164.13686497800688 L 9.046218778698403,163.92975819682036 L 9.253325559884956,163.7708395742226 L 9.494506514782444,163.67093915171813 L 9.753325559884928,163.6368649780071 L 10.01214460498747,163.67093915171804 M 28.573833764818005,63.76505973378818 L 28.47393334231336,63.52387877889071 L 28.43985916860234,63.26505973378818 L 28.47393334231336,63.00624068868551 L 28.57383376481792,62.765059733788135 L 28.732752387415786,62.55795295260158 L 28.93985916860231,62.39903433000366 L 29.18104012349977,62.299133907498984 L 29.43985916860231,62.265059733788 L 29.698678213704824,62.29913390749889 L 29.93985916860231,62.399034330003474 L 30.146965949788836,62.557952952601354 L 30.305884572386816,62.765059733787865 L 30.405784994891462,63.006240688685374 L 30.439859168602396,63.26505973378793 L 30.40578499489152,63.52387877889038 L 30.3058845723869,63.76505973378784 L 30.146965949788978,63.972166514974504 L 29.93985916860254,64.13108513757231 L 29.698678213705023,64.23098556007707 L 29.43985916860248,64.26505973378802 L 29.181040123500026,64.23098556007703 L 28.93985916860251,64.13108513757257 L 28.732752387415985,63.97216651497462 L 28.573833764818005,63.76505973378818 M 31.903960783739933,61.26505973378773 L 31.93803495745081,61.00624068868522 L 32.03793537995543,60.76505973378773 L 32.19685400255335,60.55795295260109 L 32.40396078373982,60.39903433000318 L 32.64514173863722,60.2991339074986 L 32.90396078373976,60.26505973378764 L 33.16277982884239,60.299133907498444 L 33.40396078373982,60.399034330003076 L 33.611067564926344,60.55795295260104 L 33.769986187524296,60.76505973378751 L 33.86988661002894,61.00624068868495 L 33.90396078373999,61.26505973378746 L 33.86988661002897,61.52387877888997 L 33.76998618752441,61.76505973378746 L 33.61106756492657,61.972166514974006 L 33.40396078373996,62.13108513757203 L 33.16277982884256,62.23098556007666 L 32.90396078374002,62.26505973378757 L 32.645141738637534,62.23098556007666 L 32.40396078374002,62.13108513757205 L 32.19685400255349,61.97216651497415 L 32.03793537995551,61.765059733787794 L 31.938034957450895,61.52387877889015 L 31.903960783739933,61.26505973378773 M 37.23408780266172,58.765059733787105 L 37.33398822516648,59.00624068868448 L 37.368062398877385,59.265059733787126 L 37.333988225166536,59.52387877888955 L 37.234087802661946,59.7650597337871 L 37.07516918006408,59.97216651497361 L 36.86806239887753,60.13108513757158 L 36.62688144398007,60.230985560076235 L 36.36806239887753,60.26505973378717 L 36.10924335377504,60.230985560076235 L 35.86806239887753,60.131085137571674 L 35.660955617691,59.97216651497381 L 35.50203699509302,59.76505973378735 L 35.402136572588404,59.52387877888982 L 35.36806239887741,59.265059733787304 L 35.40213657258832,59.00624068868473 L 35.502036995092936,58.76505973378728 L 35.6609556176908,58.55795295260069 L 35.8680623988773,58.39903433000288 L 36.10924335377473,58.2991339074982 L 36.3680623988773,58.26505973378724 L 36.62688144397984,58.29913390749802 L 36.86806239887733,58.399034330002664 L 37.07516918006388,58.55795295260053 L 37.23408780266172,58.765059733787105 M 40.698189417799256,56.76505973378674 L 40.79808984030399,57.00624068868405 L 40.83216401401489,57.26505973378672 L 40.79808984030407,57.52387877888912 L 40.698189417799426,57.7650597337867 L 40.53927079520162,57.9721665149732 L 40.33216401401509,58.13108513757109 L 40.090983059117576,58.23098556007583 L 39.832164014015035,58.265059733786785 L 39.57334496891255,58.23098556007587 L 39.33216401401501,58.13108513757133 L 39.125057232828425,57.97216651497347 L 38.96613861023056,57.765059733786856 L 38.866238187725884,57.52387877888941 L 38.83216401401495,57.265059733786835 L 38.8662381877258,57.006240688684414 L 38.966138610230416,56.76505973378693 L 39.12505723282831,56.55795295260031 L 39.33216401401478,56.39903433000242 L 39.57334496891224,56.29913390749782 L 39.83216401401481,56.26505973378681 L 40.09098305911729,56.29913390749768 L 40.332164014014865,56.39903433000222 L 40.53927079520136,56.55795295260015 L 40.698189417799256,56.76505973378674 M 43.29626562915253,56.26505973378636 L 43.037446584050016,56.230985560075425 L 42.79626562915253,56.13108513757078 L 42.58915884796599,55.972166514973004 L 42.43024022536808,55.76505973378643 L 42.330339802863435,55.52387877888897 L 42.296265629152444,55.26505973378648 L 42.330339802863364,55.006240688683924 L 42.43024022536794,54.76505973378648 L 42.589158847965805,54.557952952599905 L 42.79626562915233,54.399034330002 L 43.037446584049746,54.29913390749735 L 43.29626562915233,54.26505973378632 L 43.555084674254886,54.299133907497236 L 43.79626562915233,54.39903433000195 L 44.003372410338926,54.557952952599656 L 44.16229103293679,54.76505973378627 L 44.26219145544148,55.00624068868374 L 44.296265629152415,55.265059733786295 L 44.26219145544155,55.523878778888744 L 44.162291032936906,55.765059733786316 L 44.00337241033907,55.972166514972784 L 43.79626562915253,56.13108513757075 L 43.55508467425511,56.23098556007527 L 43.29626562915253,56.26505973378636 M 138.33201268013408,22.128193650962658 L 138.17309405753625,22.335300432149168 L 137.96598727634975,22.494219054747006 L 137.72480632145235,22.59411947725161 L 137.46598727634995,22.62819365096253 L 137.20716823124746,22.594119477251596 L 136.96598727635006,22.494219054746992 L 136.75888049516354,22.335300432149197 L 136.59996187256576,22.128193650962714 L 136.50006145006114,21.887012696065312 L 136.46598727635018,21.62819365096287 L 136.5000614500611,21.369374605860443 L 136.5999618725657,21.128193650963 L 136.7588804951636,20.921086869776502 L 136.96598727635006,20.762168247178707 L 137.20716823124746,20.66226782467406 L 137.46598727634992,20.62819365096314 L 137.72480632145235,20.662267824674032 L 137.96598727634978,20.762168247178664 L 138.17309405753625,20.921086869776474 L 138.33201268013406,21.128193650962984 L 138.43191310263865,21.36937460586043 L 138.46598727634955,21.62819365096287 L 138.43191310263867,21.887012696065284 L 138.33201268013408,22.128193650962658 M 139.9300888914878,23.62819365096282 L 139.9641630651988,23.36937460586033 L 140.06406348770338,23.128193650962928 L 140.22298211030127,22.92108686977636 L 140.43008889148774,22.762168247178565 L 140.67126984638517,22.662267824673933 L 140.93008889148763,22.628193650963 L 141.18890793659014,22.66226782467392 L 141.4300888914876,22.762168247178522 L 141.63719567267407,22.92108686977643 L 141.7961142952719,23.128193650962956 L 141.89601471777655,23.3693746058603 L 141.93008889148743,23.628193650962842 L 141.8960147177765,23.887012696065284 L 141.79611429527193,24.12819365096268 L 141.637195672674,24.335300432149253 L 141.43008889148751,24.49421905474712 L 141.18890793659014,24.594119477251674 L 140.93008889148763,24.628193650962636 L 140.67126984638514,24.594119477251702 L 140.43008889148774,24.49421905474712 L 140.22298211030125,24.335300432149232 L 140.0640634877034,24.12819365096273 L 139.96416306519876,23.887012696065305 L 139.9300888914878,23.62819365096282 M 145.26021591040967,26.12819365096277 L 145.10129728781183,26.335300432149253 L 144.89419050662534,26.49421905474707 L 144.65300955172788,26.594119477251695 L 144.39419050662536,26.628193650962608 L 144.13537146152294,26.594119477251716 L 143.89419050662548,26.49421905474705 L 143.68708372543904,26.335300432149204 L 143.52816510284114,26.12819365096268 L 143.4282646803365,25.887012696065284 L 143.3941905066256,25.628193650962814 L 143.42826468033653,25.369374605860372 L 143.5281651028412,25.128193650962906 L 143.68708372543898,24.921086869776424 L 143.89419050662556,24.762168247178515 L 144.1353714615229,24.662267824673933 L 144.39419050662542,24.628193650963 L 144.65300955172788,24.662267824673954 L 144.8941905066253,24.762168247178536 L 145.1012972878118,24.921086869776445 L 145.26021591040964,25.128193650962928 L 145.36011633291423,25.369374605860372 L 145.39419050662516,25.628193650962864 L 145.3601163329143,25.887012696065256 L 145.26021591040967,26.12819365096277 M 148.72431752554743,28.1281936509627 L 148.56539890294954,28.335300432149246 L 148.3582921217631,28.494219054747084 L 148.11711116686564,28.594119477251695 L 147.85829212176316,28.62819365096265 L 147.59947307666067,28.594119477251716 L 147.35829212176327,28.494219054747113 L 147.15118534057672,28.335300432149225 L 146.99226671797894,28.1281936509627 L 146.89236629547423,27.887012696065277 L 146.85829212176333,27.628193650962835 L 146.89236629547423,27.369374605860344 L 146.9922667179789,27.128193650962878 L 147.15118534057672,26.921086869776396 L 147.35829212176324,26.762168247178558 L 147.5994730766607,26.662267824673933 L 147.8582921217632,26.62819365096297 L 148.11711116686558,26.662267824673933 L 148.35829212176307,26.762168247178536 L 148.56539890294962,26.921086869776353 L 148.72431752554743,27.128193650962878 L 148.824217948052,27.369374605860365 L 148.85829212176304,27.628193650962814 L 148.82421794805202,27.887012696065277 L 148.72431752554743,28.1281936509627 M 150.35646791061214,29.887012696065227 L 150.32239373690118,29.628193650962807 L 150.3564679106121,29.369374605860344 L 150.45636833311673,29.1281936509629 L 150.6152869557146,28.921086869776417 L 150.8223937369011,28.7621682471786 L 151.06357469179852,28.662267824673975 L 151.32239373690095,28.628193650963105 L 151.5812127820034,28.662267824674018 L 151.82239373690086,28.7621682471786 L 152.02950051808733,28.92108686977644 L 152.18841914068514,29.12819365096299 L 152.28831956318976,29.369374605860365 L 152.32239373690064,29.62819365096285 L 152.2883195631897,29.887012696065298 L 152.18841914068508,30.128193650962714 L 152.02950051808727,30.335300432149175 L 151.8223937369008,30.494219054747013 L 151.58121278200335,30.594119477251617 L 151.3223937369009,30.628193650962537 L 151.06357469179844,30.594119477251596 L 150.82239373690106,30.49421905474697 L 150.6152869557145,30.335300432149154 L 150.45636833311673,30.12819365096263 L 150.35646791061214,29.887012696065227 M 154.5276763069362,32.59411947725171 L 154.28649535203877,32.494219054747106 L 154.07938857085225,32.33530043214922 L 153.92046994825438,32.12819365096276 L 153.8205695257498,31.88701269606525 L 153.78649535203886,31.628193650962828 L 153.82056952574982,31.369374605860337 L 153.92046994825444,31.12819365096287 L 154.07938857085227,30.92108686977639 L 154.2864953520388,30.762168247178508 L 154.52767630693626,30.662267824673926 L 154.78649535203863,30.628193650963006 L 155.04531439714117,30.662267824673904 L 155.2864953520386,30.76216824717853 L 155.4936021332251,30.921086869776367 L 155.65252075582296,31.128193650962892 L 155.75242117832755,31.369374605860358 L 155.78649535203851,31.62819365096278 L 155.75242117832752,31.88701269606529 L 155.65252075582293,32.128193650962736 L 155.4936021332251,32.33530043214922 L 155.2864953520386,32.494219054747056 L 155.0453143971411,32.59411947725171 L 154.78649535203868,32.6281936509626 L 154.5276763069362,32.59411947725171 M 119.51150484166922,158.00000000000006 L 118.25569445282042,157.96053451327316 L 117.00484017732666,157.84229391592322 L 115.7638785655521,157.64574484956896 L 114.53770712603713,157.37166300358038 L 113.33116499726896,157.02113005378777 L 112.1490138498132,156.59552939360066 L 110.99591909417538,156.09654067438618 L 109.8764314685571,155.52613317665296 L 108.79496907917147,154.88655803820012 L 107.75579996399615,154.18033936990497 L 106.76302524877764,153.41026429421072 L 105.82056296176113,152.57937194562737 L 104.93213257102352,151.69094147665615 L 104.10124030543187,150.74847911647257 L 103.33116531715973,149.7557043334425 L 102.62494674037212,148.71653515607875 L 101.98537169715108,147.63507271037318 L 101.41496429799811,146.5155850345257 L 100.91597568032323,145.36249023494787 L 100.49037512423432,144.1803390500144 L 100.13984228068784,142.97379689037882 L 99.86576054267405,141.74762542672863 L 99.66921158559673,140.5066637976464 L 99.55097109839494,139.2558095117406 L 99.51150572225269,137.99999911941666 L 99.55097120897955,136.74418873056803 L 99.66921180632949,135.49333445507426 L 99.86576087268381,134.2523728432997 L 100.13984271867224,133.0262014037847 L 100.49037566846484,131.81965927501656 L 100.91597632865198,130.6375081275608 L 101.41496504786642,129.484413371923 L 101.9853725455997,128.36492574630464 L 102.62494768405251,127.28346335691909 L 103.33116635234761,126.24429424174376 L 104.10124142804185,125.25151952652517 L 104.93213377662522,124.30905723950869 L 105.82056424559653,123.42062684877108 L 106.76302660578,122.58973458317939 L 107.75580138881008,121.81965959490722 L 108.79497056617384,121.1134410181196 L 109.87643301187946,120.47386597489853 L 110.99592068772687,119.90345857574556 L 112.14901548730481,119.40446995807069 L 113.33116667223823,118.97886940198181 L 114.53770883187374,118.62833655843532 L 115.76388029552399,118.35425482042146 L 117.00484192460628,118.15770586334415 L 118.25569621051213,118.03946537614239 L 119.51150660283601,118.0000000000001 L 120.76731699168468,118.03946548672693 L 122.01817126717843,118.15770608407692 L 123.25913287895298,118.35425515043117 L 124.48530431846797,118.62833699641968 L 125.69184644723614,118.97886994621224 L 126.87399759469193,119.4044706063994 L 128.02709235032978,119.90345932561388 L 129.14657997594804,120.47386682334708 L 130.22804236533372,121.11344196179994 L 131.26721148050902,121.8196606300951 L 132.2599861957276,122.5897357057893 L 133.20244848274407,123.42062805437267 L 134.09087887348164,124.30905852334399 L 134.9217711390734,125.25152088352746 L 135.6918461273455,126.24429566655755 L 136.3980647041331,127.28346484392131 L 137.0376397473542,128.36492728962688 L 137.6080471465072,129.4844149654743 L 138.10703576418203,130.63750976505224 L 138.53263632027094,131.8196609499857 L 138.88316916381746,133.02620310962124 L 139.15725090183128,134.25237457327142 L 139.35379985890853,135.49333620235373 L 139.47204034611036,136.74419048825956 L 139.51150572225262,138.0000008805835 L 139.47204023552575,139.25581126943214 L 139.35379963817581,140.5066655449259 L 139.15725057182152,141.74762715670045 L 138.88316872583306,142.97379859621543 L 138.53263577604048,144.18034072498358 L 138.1070351158533,145.36249187243936 L 137.60804639663883,146.51558662807724 L 137.03763889890558,147.63507425369548 L 136.39806376045274,148.71653664308118 L 135.69184509215762,149.75570575825645 L 134.92177001646343,150.748480473475 L 134.09087766788002,151.6909427604915 L 133.20244719890871,152.57937315122908 L 132.25998483872525,153.4102654168208 L 131.26721005569513,154.18034040509292 L 130.2280408783314,154.88655898188057 L 129.1465784326258,155.5261340251016 L 128.02709075677836,156.09654142425467 L 126.87399595720044,156.59553004192946 L 125.69184477226699,157.02113059801832 L 124.48530261263146,157.37166344156483 L 123.25913114898128,157.6457451795787 L 122.01816951989895,157.84229413665602 L 120.76731523399312,157.9605346238577 L 119.51150484166922,158.00000000000006 M 78.0762609368152,164.23205080756887 L 76.57626093681519,161.63397459621544 L 80.90638795573734,159.13397459621558 L 82.40638795573737,161.73205080756884 L 78.0762609368152,164.23205080756887 M 83.0762609368151,172.89230484541332 L 87.40638795573732,170.39230484541326 L 88.90638795573732,172.99038105676644 L 84.57626093681512,175.4903810567665 L 83.0762609368151,172.89230484541332 M 167.946750507685,152.10769515459543 L 163.61662348876257,149.6076951545959 L 165.11662348876257,147.00961894324257 L 169.44675050768504,149.5096189432421 L 167.946750507685,152.10769515459543 M 157.11662348876263,160.86602540379351 L 158.61662348876263,158.2679491924402 L 162.9467505076851,160.7679491924397 L 161.44675050768538,163.3660254037932 L 157.11662348876263,160.86602540379351 M 162.44675050768998,114.3660254037844 L 158.11662348876783,116.8660254037844 L 156.61662348876783,114.26794919243112 L 160.94675050769,111.7679491924311 L 162.44675050768998,114.3660254037844 M 155.94675050769004,103.10769515458671 L 151.6166234887678,105.60769515458674 L 150.11662348876783,103.00961894323342 L 154.44675050769,100.5096189432334 L 155.94675050769004,103.10769515458671 M 81.9063879557274,115.13397459623214 L 80.40638795572738,117.73205080758547 L 76.07626093680518,115.23205080758615 L 77.57626093680496,112.63397459623258 L 81.9063879557274,115.13397459623214 M 71.07626093680543,123.89230484542949 L 75.40638795572784,126.39230484542911 L 73.90638795572782,128.9903810567824 L 69.5762609368057,126.49038105678241 L 71.07626093680543,123.89230484542949 M 107.51150572225269,88.99999999999986 L 107.51150572225272,93.99999999999949 L 104.5115057222527,93.99999999999953 L 104.51150572225272,88.99999999999986 L 107.51150572225269,88.99999999999986 M 131.51150572225265,187.00000000000003 L 131.51150572225265,182.0 L 134.51150572225265,182.0 L 134.51150572225265,187.0 L 131.51150572225265,187.00000000000003 "
  />
  <path id="face0-interior"
 style="fill:none;stroke:#FF0000;stroke-width:0.1;stroke-miterlimit:4;stroke-dasharray:none;stroke-linejoin:round;stroke-linecap:round"
        d="M 239.02301144450502,207.0000000000001 M 239.02301144450502,187.0000000000001 M 239.02301144450502,118.72613565215727 M 239.02301144450502,92.99999999999999 M 239.02301144450502,89.00000000000001 M 239.02301144450502,68.99999999999997 M 221.7025033688162,58.99999999999994 M 162.59792224834368,24.87595417975497 M 140.29611541307918,11.999999999999986 M 136.83201379794144,9.999999999999915 M 119.51150572225261,0.0 M 102.19099764656384,9.999999999999957 M 43.063979228585154,44.13699999999998 M 20.7846096908267,56.999999999999964 M 17.32050807568885,59.00000000000001 M 1.1368683772161603e-13,68.99999999999991 M 5.684341886080802e-14,89.0 M 5.684341886080802e-14,157.27399999999997 M 0.0,183.0000000000004 M 0.0,187.0 M 5.684341886080802e-14,207.00000000000014 M 17.32050807568882,217.00000000000034 M 76.44752649366767,251.13699999999994 M 98.72689603142604,264.00000000000006 M 102.19099764656377,266.00000000000006 M 119.51150572225261,276.00000000000006 M 136.83201379794133,266.00000000000006 M 195.95903221591996,231.86300000000006 M 218.23840175367843,219.0 M 221.70250336881622,217.0 M 207.58315407754057,209.27084017629628 M 192.86072209072069,217.77084003035407 M 191.3607217285545,215.1727631254874 M 131.51150572225265,249.72672409730023 M 131.51150572225265,218.3535106751798 M 197.09968725041946,180.48615641446878 M 224.269687072414,196.1727631255755 M 206.0831535929127,206.6727631255274 M 195.099687072413,92.04974207317206 M 222.26968707241298,76.36313525928992 M 222.26968707241298,97.36313525928995 M 225.26968708820405,97.36313525928998 M 225.26968707241292,114.36313525928995 M 222.26968707241298,114.36313525928995 M 222.26968707241298,183.47105720340426 M 195.09968707241296,167.78445038952603 M 137.56792886894095,26.305851821301637 M 151.55423916273872,34.380851834395365 M 150.05423916273867,36.97892804574871 M 210.26968707241295,71.74433310577292 M 183.09968707241296,87.43093991965506 M 117.51150572225262,49.56358576148217 M 117.51150572225261,18.1903721337179 M 136.06792889161997,28.903928045748657 M 31.439858608237188,66.72916167245072 M 46.162289976849166,58.229160813815405 M 47.66228997684222,60.827237025172764 M 107.51150572225265,26.27327620398534 M 107.51150572225262,57.64648983170146 M 41.92332463302807,95.51384383898903 M 14.753324633043178,79.82723702511942 M 32.939858112484046,69.32723702513329 M 13.753324632983407,178.63686459008426 M 13.753324632983407,161.6368645900842 M 16.753324632983407,161.63686459008443 M 16.753324632983407,92.52894294725486 M 43.923324632983395,108.21554976113305 M 43.92332463298342,183.95025777620214 M 16.753324632983407,199.63686459008437 M 16.753324632983407,178.63686459008431 M 101.82497224277944,249.90770407726023 M 87.10254037844399,241.4077040772603 M 88.60254037844395,238.80962786590703 M 28.75332437241707,204.25566689403985 M 55.92332437241711,188.56906008015733 M 121.51150572225265,226.43641423814267 M 121.51150572225265,257.8096278659069 M 103.32497224277942,247.30962786590698 M 227.85446024006845,202.18599862310043 M 213.91328108209493,210.23494188576677 M 211.91328113371847,206.7708402408258 M 225.85446029169233,198.7218969781577 M 162.38293915065162,239.98599764740726 M 148.5265325708811,247.98599744091297 M 146.52653262250496,244.52189579597007 M 160.38293920227537,236.52189600246453 M 106.15509792881645,252.4077030068284 M 120.09627696684231,260.45664647725187 M 118.09627696684221,263.9207480923896 M 104.15509792881748,255.8718046219658 M 40.76834998019169,214.65664647725168 M 54.62475644074283,222.6566464772506 M 52.6247564407428,226.12074809238823 M 38.76834998019149,218.12074809238885 M 13.753325559881489,183.63686497800683 M 13.753325559880125,199.73475191885606 M 9.753325559880182,199.73475191885495 M 9.753325559882313,183.63686497800666 M 13.753325559897718,108.13475191885928 M 13.753325559895927,124.13475191885897 M 9.753325559895842,124.13475191885829 M 9.753325559897746,108.13475191885833 M 90.49648009830617,28.01400320421105 M 92.49648009830636,31.47810481934885 M 78.64007363775647,39.47810481935062 M 76.6400736377561,36.01400320421302 M 27.109732149681037,69.22916134892505 M 13.168553111657246,77.27810481935204 M 11.168553111657019,73.8140032042144 M 25.109732149680525,65.76505973378852 M 120.92673162718691,12.079250872987117 M 134.8679107354705,20.12819422171883 M 132.86791076570964,23.592295854314116 M 118.92673165742482,15.543352505582746 M 186.39825248324115,49.879250301489975 M 200.25465901362412,57.879250180537056 M 198.25465904386195,61.34335181313271 M 184.39825251347915,53.34335193408569 M 229.26968664360123,76.26524890481171 M 229.2696869828361,92.3631358456601 M 225.26968698283696,92.36313592995374 M 225.26968664360123,76.2652489891045 M 229.26968823673377,151.86524890480865 M 229.26968857390608,167.86524890480868 M 225.26968857390602,167.86524898910142 M 225.26968823673369,151.8652489891016 M 117.51150370521079,112.99999999948727 M 117.51150369331438,76.71100001772282 M 121.51150371315191,76.7110000177228 M 121.51150408586105,113.00000000461982 M 121.51150462152339,163.00000000006344 M 121.51150480589988,199.28922252134393 M 117.51150500254693,199.28922256892528 M 117.51150462152339,163.0000000425121 M 229.76968764130814,104.99711047498003 M 229.97679442249466,105.15602909757794 M 230.13571304509256,105.36313587876447 M 230.2356134675972,105.60431683366195 M 230.2696876413081,105.86313587876448 M 230.2356134675972,106.12195492386701 M 230.13571304509256,106.36313587876445 M 229.97679442249466,106.570242659951 M 229.76968764130814,106.72916128254893 M 229.52850668641062,106.82906170505356 M 229.2696876413081,106.8631358787645 M 229.01086859620563,106.82906170505356 M 228.7696876413081,106.72916128254892 M 228.56258086012156,106.57024265995105 M 228.4036622375237,106.36313587876447 M 228.30376181501904,106.12195492386701 M 228.2696876413081,105.86313587876448 M 228.30376181501902,105.60431683366195 M 228.4036622375237,105.36313587876447 M 228.56258086012156,105.15602909757794 M 228.7696876413081,104.99711047498003 M 229.01086859620563,104.8972100524754 M 229.2696876413081,104.8631358787645 M 229.52850668641062,104.89721005247543 M 203.4210755651456,215.4761224093254 M 203.5209759876509,215.2349414544282 M 203.67989461024936,215.02783467324207 M 203.88700139143629,214.8689160506447 M 204.12818234633406,214.76901562814072 M 204.38700139143668,214.7349414544305 M 204.64582043653908,214.7690156281421 M 204.88700139143634,214.8689160506474 M 205.0941081726224,215.02783467324582 M 205.25302679521977,215.23494145443283 M 205.3529272177238,215.47612240933057 M 205.38700139143398,215.73494145443317 M 205.35292721772237,215.9937604995356 M 205.2530267952171,216.23494145443283 M 205.09410817261863,216.44204823561893 M 204.88700139143165,216.60096685821628 M 204.64582043653394,216.70086728072027 M 204.3870013914313,216.7349414544305 M 204.12818234632886,216.70086728071885 M 203.88700139143168,216.60096685821355 M 203.67989461024553,216.44204823561512 M 203.52097598764823,216.23494145442817 M 203.42107556514426,215.99376049953042 M 203.38700139143398,215.73494145442783 M 200.0568743725078,217.23494145441896 M 200.21579299510623,217.0278346732328 M 200.4228997762932,216.86891605063545 M 200.66408073119095,216.76901562813146 M 200.92289977629358,216.73494145442118 M 201.18171882139598,216.76901562813282 M 201.42289977629318,216.86891605063812 M 201.6300065574793,217.02783467323655 M 201.78892518007666,217.2349414544235 M 201.88882560258062,217.4761224093213 M 201.92289977629088,217.7349414544239 M 201.8888256025793,217.99376049952633 M 201.788925180074,218.2349414544235 M 201.63000655747553,218.4420482356096 M 201.4228997762886,218.60096685820696 M 201.18171882139083,218.700867280711 M 200.9228997762882,218.73494145442118 M 200.66408073118578,218.7008672807096 M 200.42289977628855,218.60096685820434 M 200.21579299510248,218.44204823560585 M 200.05687437250512,218.2349414544189 M 199.9569739500011,217.99376049952116 M 199.92289977629088,217.73494145441856 M 199.95697395000252,217.47612240931608 M 97.36086929475933,251.37180462196238 M 97.32679512104838,251.63062366706492 M 97.22689469854377,251.87180462196244 M 97.06797607594588,252.078911403149 M 96.86086929475934,252.23783002574686 M 96.61968833986184,252.33773044825153 M 96.3608692947593,252.37180462196233 M 96.10205024965678,252.33773044825142 M 95.8608692947593,252.2378300257468 M 95.6537625135728,252.078911403149 M 95.49484389097486,251.87180462196244 M 95.39494346847025,251.63062366706487 M 95.36086929475933,251.37180462196244 M 95.39494346847025,251.11298557685996 M 95.49484389097485,250.87180462196233 M 95.65376251357277,250.66469784077583 M 95.8608692947593,250.50577921817796 M 96.10205024965678,250.4058787956733 M 96.36086929475933,250.3718046219625 M 96.61968833986184,250.40587879567335 M 96.8608692947593,250.5057792181779 M 97.06797607594585,250.6646978407759 M 97.22689469854376,250.87180462196244 M 97.32679512104838,251.11298557685996 M 91.93084185333268,249.63062366706498 M 91.89676767962175,249.3718046219625 M 91.93084185333268,249.11298557685996 M 92.03074227583731,248.87180462196255 M 92.18966089843519,248.66469784077606 M 92.3967676796217,248.50577921817813 M 92.63794863451919,248.40587879567346 M 92.8967676796217,248.3718046219626 M 93.15558672472422,248.40587879567346 M 93.39676767962166,248.50577921817813 M 93.6038744608082,248.66469784077606 M 93.7627930834061,248.8718046219626 M 93.86269350591067,249.11298557685996 M 93.89676767962163,249.37180462196255 M 93.86269350591071,249.6306236670651 M 93.76279308340607,249.8718046219625 M 93.60387446080819,250.07891140314905 M 93.39676767962166,250.23783002574697 M 93.15558672472419,250.3377304482516 M 92.89676767962166,250.37180462196238 M 92.63794863451922,250.33773044825153 M 92.3967676796217,250.23783002574697 M 92.18966089843518,250.078911403149 M 92.03074227583728,249.8718046219625 M 90.29869146826825,246.87180462196255 M 90.39859189077286,247.11298557686 M 90.43266606448378,247.3718046219625 M 90.39859189077286,247.63062366706498 M 90.29869146826825,247.8718046219625 M 90.13977284567034,248.07891140314888 M 89.93266606448383,248.2378300257468 M 89.6914851095864,248.33773044825148 M 89.4326660644839,248.37180462196238 M 89.17384701938141,248.33773044825148 M 88.932666064484,248.23783002574692 M 88.72555928329744,248.078911403149 M 88.5666406606996,247.87180462196244 M 88.46674023819497,247.63062366706504 M 88.43266606448405,247.37180462196244 M 88.466740238195,247.11298557686 M 88.5666406606996,246.87180462196255 M 88.72555928329749,246.66469784077606 M 88.93266606448401,246.50577921817813 M 89.17384701938145,246.40587879567357 M 89.43266606448397,246.37180462196278 M 89.69148510958644,246.40587879567357 M 89.93266606448388,246.50577921817825 M 90.13977284567042,246.66469784077617 M 9.753325559883393,175.63686497800677 M 10.012144604985878,175.67093915171787 M 10.253325559883365,175.77083957422255 M 10.460432341069946,175.92975819682025 M 10.619350963667728,176.13686497800694 M 10.719251386172346,176.37804593290457 M 10.753325559883251,176.63686497800683 M 10.719251386172232,176.8956840231096 M 10.619350963667586,177.13686497800688 M 10.460432341069719,177.34397175919355 M 10.25332555988308,177.5028903817914 M 10.01214460498565,177.6027908042962 M 9.753325559883109,177.636864978007 M 9.494506514780596,177.6027908042958 M 9.253325559883137,177.50289038179125 M 9.046218778696613,177.34397175919355 M 8.887300156098718,177.13686497800677 M 8.787399733594128,176.89568402310917 M 8.753325559883251,176.63686497800677 M 8.787399733594157,176.37804593290423 M 8.88730015609886,176.13686497800666 M 9.046218778696783,175.92975819682013 M 9.253325559883308,175.77083957422218 M 9.494506514780852,175.6709391517178 M 10.753325559883706,172.63686497800694 M 10.719251386172687,172.89568402310965 M 10.61935096366804,173.13686497800717 M 10.460432341070174,173.34397175919366 M 10.253325559883592,173.5028903817916 M 10.012144604986105,173.60279080429598 M 9.75332555988362,173.63686497800705 M 9.494506514781136,173.60279080429603 M 9.253325559883677,173.50289038179125 M 9.046218778697153,173.34397175919344 M 8.887300156099315,173.136864978007 M 8.787399733594697,172.89568402310942 M 8.753325559883791,172.63686497800688 M 8.78739973359481,172.37804593290446 M 8.887300156099457,172.13686497800688 M 9.046218778697323,171.92975819682053 M 9.253325559883905,171.7708395742224 M 9.494506514781392,171.67093915171802 M 9.753325559883876,171.63686497800722 M 10.012144604986332,171.67093915171813 M 10.25332555988382,171.77083957422258 M 10.460432341070344,171.9297581968208 M 10.619350963668182,172.13686497800722 M 10.7192513861728,172.37804593290466 M 10.619350963668666,168.13686497800742 M 10.719251386173227,168.3780459329048 M 10.75332555988416,168.63686497800722 M 10.719251386173141,168.8956840231096 M 10.619350963668495,169.13686497800694 M 10.4604323410706,169.34397175919366 M 10.253325559884075,169.50289038179147 M 10.012144604986588,169.6027908042958 M 9.753325559884104,169.63686497800694 M 9.49450651478162,169.60279080429603 M 9.253325559884217,169.50289038179125 M 9.046218778697693,169.3439717591933 M 8.887300156099855,169.13686497800677 M 8.787399733595265,168.8956840231092 M 8.753325559884388,168.63686497800688 M 8.78739973359535,168.3780459329044 M 8.887300156099997,168.13686497800705 M 9.04621877869792,167.92975819682027 M 9.253325559884502,167.77083957422252 M 9.494506514781932,167.67093915171804 M 9.753325559884416,167.63686497800745 M 10.0121446049869,167.6709391517181 M 10.25332555988436,167.77083957422275 M 10.460432341070828,167.92975819682076 M 10.01214460498747,163.67093915171804 M 10.2533255598849,163.77083957422258 M 10.460432341071368,163.92975819682056 M 10.619350963669206,164.1368649780074 M 10.719251386173823,164.37804593290457 M 10.7533255598847,164.6368649780071 M 10.719251386173767,164.89568402310965 M 10.61935096366912,165.13686497800714 M 10.460432341071197,165.3439717591935 M 10.253325559884615,165.50289038179147 M 10.012144604987185,165.60279080429615 M 9.753325559884644,165.63686497800694 M 9.494506514782216,165.60279080429592 M 9.253325559884757,165.50289038179142 M 9.046218778698233,165.3439717591934 M 8.887300156100366,165.13686497800683 M 8.787399733595805,164.89568402310925 M 8.753325559884871,164.63686497800694 M 8.78739973359589,164.37804593290434 M 8.887300156100537,164.13686497800688 M 9.046218778698403,163.92975819682036 M 9.253325559884956,163.7708395742226 M 9.494506514782444,163.67093915171813 M 9.753325559884928,163.6368649780071 M 28.573833764818005,63.76505973378818 M 28.47393334231336,63.52387877889071 M 28.43985916860234,63.26505973378818 M 28.47393334231336,63.00624068868551 M 28.57383376481792,62.765059733788135 M 28.732752387415786,62.55795295260158 M 28.93985916860231,62.39903433000366 M 29.18104012349977,62.299133907498984 M 29.43985916860231,62.265059733788 M 29.698678213704824,62.29913390749889 M 29.93985916860231,62.399034330003474 M 30.146965949788836,62.557952952601354 M 30.305884572386816,62.765059733787865 M 30.405784994891462,63.006240688685374 M 30.439859168602396,63.26505973378793 M 30.40578499489152,63.52387877889038 M 30.3058845723869,63.76505973378784 M 30.146965949788978,63.972166514974504 M 29.93985916860254,64.13108513757231 M 29.698678213705023,64.23098556007707 M 29.43985916860248,64.26505973378802 M 29.181040123500026,64.23098556007703 M 28.93985916860251,64.13108513757257 M 28.732752387415985,63.97216651497462 M 31.903960783739933,61.26505973378773 M 31.93803495745081,61.00624068868522 M 32.03793537995543,60.76505973378773 M 32.19685400255335,60.55795295260109 M 32.40396078373982,60.39903433000318 M 32.64514173863722,60.2991339074986 M 32.90396078373976,60.26505973378764 M 33.16277982884239,60.299133907498444 M 33.40396078373982,60.399034330003076 M 33.611067564926344,60.55795295260104 M 33.769986187524296,60.76505973378751 M 33.86988661002894,61.00624068868495 M 33.90396078373999,61.26505973378746 M 33.86988661002897,61.52387877888997 M 33.76998618752441,61.76505973378746 M 33.61106756492657,61.972166514974006 M 33.40396078373996,62.13108513757203 M 33.16277982884256,62.23098556007666 M 32.90396078374002,62.26505973378757 M 32.645141738637534,62.23098556007666 M 32.40396078374002,62.13108513757205 M 32.19685400255349,61.97216651497415 M 32.03793537995551,61.765059733787794 M 31.938034957450895,61.52387877889015 M 37.23408780266172,58.765059733787105 M 37.33398822516648,59.00624068868448 M 37.368062398877385,59.265059733787126 M 37.333988225166536,59.52387877888955 M 37.234087802661946,59.7650597337871 M 37.07516918006408,59.97216651497361 M 36.86806239887753,60.13108513757158 M 36.62688144398007,60.230985560076235 M 36.36806239887753,60.26505973378717 M 36.10924335377504,60.230985560076235 M 35.86806239887753,60.131085137571674 M 35.660955617691,59.97216651497381 M 35.50203699509302,59.76505973378735 M 35.402136572588404,59.52387877888982 M 35.36806239887741,59.265059733787304 M 35.40213657258832,59.00624068868473 M 35.502036995092936,58.76505973378728 M 35.6609556176908,58.55795295260069 M 35.8680623988773,58.39903433000288 M 36.10924335377473,58.2991339074982 M 36.3680623988773,58.26505973378724 M 36.62688144397984,58.29913390749802 M 36.86806239887733,58.399034330002664 M 37.07516918006388,58.55795295260053 M 40.698189417799256,56.76505973378674 M 40.79808984030399,57.00624068868405 M 40.83216401401489,57.26505973378672 M 40.79808984030407,57.52387877888912 M 40.698189417799426,57.7650597337867 M 40.53927079520162,57.9721665149732 M 40.33216401401509,58.13108513757109 M 40.090983059117576,58.23098556007583 M 39.832164014015035,58.265059733786785 M 39.57334496891255,58.23098556007587 M 39.33216401401501,58.13108513757133 M 39.125057232828425,57.97216651497347 M 38.96613861023056,57.765059733786856 M 38.866238187725884,57.52387877888941 M 38.83216401401495,57.265059733786835 M 38.8662381877258,57.006240688684414 M 38.966138610230416,56.76505973378693 M 39.12505723282831,56.55795295260031 M 39.33216401401478,56.39903433000242 M 39.57334496891224,56.29913390749782 M 39.83216401401481,56.26505973378681 M 40.09098305911729,56.29913390749768 M 40.332164014014865,56.39903433000222 M 40.53927079520136,56.55795295260015 M 43.29626562915253,56.26505973378636 M 43.037446584050016,56.230985560075425 M 42.79626562915253,56.13108513757078 M 42.58915884796599,55.972166514973004 M 42.43024022536808,55.76505973378643 M 42.330339802863435,55.52387877888897 M 42.296265629152444,55.26505973378648 M 42.330339802863364,55.006240688683924 M 42.43024022536794,54.76505973378648 M 42.589158847965805,54.557952952599905 M 42.79626562915233,54.399034330002 M 43.037446584049746,54.29913390749735 M 43.29626562915233,54.26505973378632 M 43.555084674254886,54.299133907497236 M 43.79626562915233,54.39903433000195 M 44.003372410338926,54.557952952599656 M 44.16229103293679,54.76505973378627 M 44.26219145544148,55.00624068868374 M 44.296265629152415,55.265059733786295 M 44.26219145544155,55.523878778888744 M 44.162291032936906,55.765059733786316 M 44.00337241033907,55.972166514972784 M 43.79626562915253,56.13108513757075 M 43.55508467425511,56.23098556007527 M 138.33201268013408,22.128193650962658 M 138.17309405753625,22.335300432149168 M 137.96598727634975,22.494219054747006 M 137.72480632145235,22.59411947725161 M 137.46598727634995,22.62819365096253 M 137.20716823124746,22.594119477251596 M 136.96598727635006,22.494219054746992 M 136.75888049516354,22.335300432149197 M 136.59996187256576,22.128193650962714 M 136.50006145006114,21.887012696065312 M 136.46598727635018,21.62819365096287 M 136.5000614500611,21.369374605860443 M 136.5999618725657,21.128193650963 M 136.7588804951636,20.921086869776502 M 136.96598727635006,20.762168247178707 M 137.20716823124746,20.66226782467406 M 137.46598727634992,20.62819365096314 M 137.72480632145235,20.662267824674032 M 137.96598727634978,20.762168247178664 M 138.17309405753625,20.921086869776474 M 138.33201268013406,21.128193650962984 M 138.43191310263865,21.36937460586043 M 138.46598727634955,21.62819365096287 M 138.43191310263867,21.887012696065284 M 139.9300888914878,23.62819365096282 M 139.9641630651988,23.36937460586033 M 140.06406348770338,23.128193650962928 M 140.22298211030127,22.92108686977636 M 140.43008889148774,22.762168247178565 M 140.67126984638517,22.662267824673933 M 140.93008889148763,22.628193650963 M 141.18890793659014,22.66226782467392 M 141.4300888914876,22.762168247178522 M 141.63719567267407,22.92108686977643 M 141.7961142952719,23.128193650962956 M 141.89601471777655,23.3693746058603 M 141.93008889148743,23.628193650962842 M 141.8960147177765,23.887012696065284 M 141.79611429527193,24.12819365096268 M 141.637195672674,24.335300432149253 M 141.43008889148751,24.49421905474712 M 141.18890793659014,24.594119477251674 M 140.93008889148763,24.628193650962636 M 140.67126984638514,24.594119477251702 M 140.43008889148774,24.49421905474712 M 140.22298211030125,24.335300432149232 M 140.0640634877034,24.12819365096273 M 139.96416306519876,23.887012696065305 M 145.26021591040967,26.12819365096277 M 145.10129728781183,26.335300432149253 M 144.89419050662534,26.49421905474707 M 144.65300955172788,26.594119477251695 M 144.39419050662536,26.628193650962608 M 144.13537146152294,26.594119477251716 M 143.89419050662548,26.49421905474705 M 143.68708372543904,26.335300432149204 M 143.52816510284114,26.12819365096268 M 143.4282646803365,25.887012696065284 M 143.3941905066256,25.628193650962814 M 143.42826468033653,25.369374605860372 M 143.5281651028412,25.128193650962906 M 143.68708372543898,24.921086869776424 M 143.89419050662556,24.762168247178515 M 144.1353714615229,24.662267824673933 M 144.39419050662542,24.628193650963 M 144.65300955172788,24.662267824673954 M 144.8941905066253,24.762168247178536 M 145.1012972878118,24.921086869776445 M 145.26021591040964,25.128193650962928 M 145.36011633291423,25.369374605860372 M 145.39419050662516,25.628193650962864 M 145.3601163329143,25.887012696065256 M 148.72431752554743,28.1281936509627 M 148.56539890294954,28.335300432149246 M 148.3582921217631,28.494219054747084 M 148.11711116686564,28.594119477251695 M 147.85829212176316,28.62819365096265 M 147.59947307666067,28.594119477251716 M 147.35829212176327,28.494219054747113 M 147.15118534057672,28.335300432149225 M 146.99226671797894,28.1281936509627 M 146.89236629547423,27.887012696065277 M 146.85829212176333,27.628193650962835 M 146.89236629547423,27.369374605860344 M 146.9922667179789,27.128193650962878 M 147.15118534057672,26.921086869776396 M 147.35829212176324,26.762168247178558 M 147.5994730766607,26.662267824673933 M 147.8582921217632,26.62819365096297 M 148.11711116686558,26.662267824673933 M 148.35829212176307,26.762168247178536 M 148.56539890294962,26.921086869776353 M 148.72431752554743,27.128193650962878 M 148.824217948052,27.369374605860365 M 148.85829212176304,27.628193650962814 M 148.82421794805202,27.887012696065277 M 150.35646791061214,29.887012696065227 M 150.32239373690118,29.628193650962807 M 150.3564679106121,29.369374605860344 M 150.45636833311673,29.1281936509629 M 150.6152869557146,28.921086869776417 M 150.8223937369011,28.7621682471786 M 151.06357469179852,28.662267824673975 M 151.32239373690095,28.628193650963105 M 151.5812127820034,28.662267824674018 M 151.82239373690086,28.7621682471786 M 152.02950051808733,28.92108686977644 M 152.18841914068514,29.12819365096299 M 152.28831956318976,29.369374605860365 M 152.32239373690064,29.62819365096285 M 152.2883195631897,29.887012696065298 M 152.18841914068508,30.128193650962714 M 152.02950051808727,30.335300432149175 M 151.8223937369008,30.494219054747013 M 151.58121278200335,30.594119477251617 M 151.3223937369009,30.628193650962537 M 151.06357469179844,30.594119477251596 M 150.82239373690106,30.49421905474697 M 150.6152869557145,30.335300432149154 M 150.45636833311673,30.12819365096263 M 154.5276763069362,32.59411947725171 M 154.28649535203877,32.494219054747106 M 154.07938857085225,32.33530043214922 M 153.92046994825438,32.12819365096276 M 153.8205695257498,31.88701269606525 M 153.78649535203886,31.628193650962828 M 153.82056952574982,31.369374605860337 M 153.92046994825444,31.12819365096287 M 154.07938857085227,30.92108686977639 M 154.2864953520388,30.762168247178508 M 154.52767630693626,30.662267824673926 M 154.78649535203863,30.628193650963006 M 155.04531439714117,30.662267824673904 M 155.2864953520386,30.76216824717853 M 155.4936021332251,30.921086869776367 M 155.65252075582296,31.128193650962892 M 155.75242117832755,31.369374605860358 M 155.78649535203851,31.62819365096278 M 155.75242117832752,31.88701269606529 M 155.65252075582293,32.128193650962736 M 155.4936021332251,32.33530043214922 M 155.2864953520386,32.494219054747056 M 155.0453143971411,32.59411947725171 M 154.78649535203868,32.6281936509626 M 119.51150484166922,158.00000000000006 M 118.25569445282042,157.96053451327316 M 117.00484017732666,157.84229391592322 M 115.7638785655521,157.64574484956896 M 114.53770712603713,157.37166300358038 M 113.33116499726896,157.02113005378777 M 112.1490138498132,156.59552939360066 M 110.99591909417538,156.09654067438618 M 109.8764314685571,155.52613317665296 M 108.79496907917147,154.88655803820012 M 107.75579996399615,154.18033936990497 M 106.76302524877764,153.41026429421072 M 105.82056296176113,152.57937194562737 M 104.93213257102352,151.69094147665615 M 104.10124030543187,150.74847911647257 M 103.33116531715973,149.7557043334425 M 102.62494674037212,148.71653515607875 M 101.98537169715108,147.63507271037318 M 101.41496429799811,146.5155850345257 M 100.91597568032323,145.36249023494787 M 100.49037512423432,144.1803390500144 M 100.13984228068784,142.97379689037882 M 99.86576054267405,141.74762542672863 M 99.66921158559673,140.5066637976464 M 99.55097109839494,139.2558095117406 M 99.51150572225269,137.99999911941666 M 99.55097120897955,136.74418873056803 M 99.66921180632949,135.49333445507426 M 99.86576087268381,134.2523728432997 M 100.13984271867224,133.0262014037847 M 100.49037566846484,131.81965927501656 M 100.91597632865198,130.6375081275608 M 101.41496504786642,129.484413371923 M 101.9853725455997,128.36492574630464 M 102.62494768405251,127.28346335691909 M 103.33116635234761,126.24429424174376 M 104.10124142804185,125.25151952652517 M 104.93213377662522,124.30905723950869 M 105.82056424559653,123.42062684877108 M 106.76302660578,122.58973458317939 M 107.75580138881008,121.81965959490722 M 108.79497056617384,121.1134410181196 M 109.87643301187946,120.47386597489853 M 110.99592068772687,119.90345857574556 M 112.14901548730481,119.40446995807069 M 113.33116667223823,118.97886940198181 M 114.53770883187374,118.62833655843532 M 115.76388029552399,118.35425482042146 M 117.00484192460628,118.15770586334415 M 118.25569621051213,118.03946537614239 M 119.51150660283601,118.0000000000001 M 120.76731699168468,118.03946548672693 M 122.01817126717843,118.15770608407692 M 123.25913287895298,118.35425515043117 M 124.48530431846797,118.62833699641968 M 125.69184644723614,118.97886994621224 M 126.87399759469193,119.4044706063994 M 128.02709235032978,119.90345932561388 M 129.14657997594804,120.47386682334708 M 130.22804236533372,121.11344196179994 M 131.26721148050902,121.8196606300951 M 132.2599861957276,122.5897357057893 M 133.20244848274407,123.42062805437267 M 134.09087887348164,124.30905852334399 M 134.9217711390734,125.25152088352746 M 135.6918461273455,126.24429566655755 M 136.3980647041331,127.28346484392131 M 137.0376397473542,128.36492728962688 M 137.6080471465072,129.4844149654743 M 138.10703576418203,130.63750976505224 M 138.53263632027094,131.8196609499857 M 138.88316916381746,133.02620310962124 M 139.15725090183128,134.25237457327142 M 139.35379985890853,135.49333620235373 M 139.47204034611036,136.74419048825956 M 139.51150572225262,138.0000008805835 M 139.47204023552575,139.25581126943214 M 139.35379963817581,140.5066655449259 M 139.15725057182152,141.74762715670045 M 138.88316872583306,142.97379859621543 M 138.53263577604048,144.18034072498358 M 138.1070351158533,145.36249187243936 M 137.60804639663883,146.51558662807724 M 137.03763889890558,147.63507425369548 M 136.39806376045274,148.71653664308118 M 135.69184509215762,149.75570575825645 M 134.92177001646343,150.748480473475 M 134.09087766788002,151.6909427604915 M 133.20244719890871,152.57937315122908 M 132.25998483872525,153.4102654168208 M 131.26721005569513,154.18034040509292 M 130.2280408783314,154.88655898188057 M 129.1465784326258,155.5261340251016 M 128.02709075677836,156.09654142425467 M 126.87399595720044,156.59553004192946 M 125.69184477226699,157.02113059801832 M 124.48530261263146,157.37166344156483 M 123.25913114898128,157.6457451795787 M 122.01816951989895,157.84229413665602 M 120.76731523399312,157.9605346238577 M 78.0762609368152,164.23205080756887 M 76.57626093681519,161.63397459621544 M 80.90638795573734,159.13397459621558 M 82.40638795573737,161.73205080756884 M 83.0762609368151,172.89230484541332 M 87.40638795573732,170.39230484541326 M 88.90638795573732,172.99038105676644 M 84.57626093681512,175.4903810567665 M 167.946750507685,152.10769515459543 M 163.61662348876257,149.6076951545959 M 165.11662348876257,147.00961894324257 M 169.44675050768504,149.5096189432421 M 157.11662348876263,160.86602540379351 M 158.61662348876263,158.2679491924402 M 162.9467505076851,160.7679491924397 M 161.44675050768538,163.3660254037932 M 162.44675050768998,114.3660254037844 M 158.11662348876783,116.8660254037844 M 156.61662348876783,114.26794919243112 M 160.94675050769,111.7679491924311 M 155.94675050769004,103.10769515458671 M 151.6166234887678,105.60769515458674 M 150.11662348876783,103.00961894323342 M 154.44675050769,100.5096189432334 M 81.9063879557274,115.13397459623214 M 80.40638795572738,117.73205080758547 M 76.07626093680518,115.23205080758615 M 77.57626093680496,112.63397459623258 M 71.07626093680543,123.89230484542949 M 75.40638795572784,126.39230484542911 M 73.90638795572782,128.9903810567824 M 69.5762609368057,126.49038105678241 M 107.51150572225269,88.99999999999986 M 107.51150572225272,93.99999999999949 M 104.5115057222527,93.99999999999953 M 104.51150572225272,88.99999999999986 M 131.51150572225265,187.00000000000003 M 131.51150572225265,182.0 M 134.51150572225265,182.0 M 134.51150572225265,187.0 "
  />
  <path id="face0-interior"
 style="fill:none;stroke:#FF0000;stroke-width:0.1;stroke-miterlimit:4;stroke-dasharray:none;stroke-linejoin:round;stroke-linecap:round"
        d="M 239.02301144450502,207.0000000000001 M 239.02301144450502,187.0000000000001 M 239.02301144450502,118.72613565215727 M 239.02301144450502,92.99999999999999 M 239.02301144450502,89.00000000000001 M 239.02301144450502,68.99999999999997 M 221.7025033688162,58.99999999999994 M 162.59792224834368,24.87595417975497 M 140.29611541307918,11.999999999999986 M 136.83201379794144,9.999999999999915 M 119.51150572225261,0.0 M 102.19099764656384,9.999999999999957 M 43.063979228585154,44.13699999999998 M 20.7846096908267,56.999999999999964 M 17.32050807568885,59.00000000000001 M 1.1368683772161603e-13,68.99999999999991 M 5.684341886080802e-14,89.0 M 5.684341886080802e-14,157.27399999999997 M 0.0,183.0000000000004 M 0.0,187.0 M 5.684341886080802e-14,207.00000000000014 M 17.32050807568882,217.00000000000034 M 76.44752649366767,251.13699999999994 M 98.72689603142604,264.00000000000006 M 102.19099764656377,266.00000000000006 M 119.51150572225261,276.00000000000006 M 136.83201379794133,266.00000000000006 M 195.95903221591996,231.86300000000006 M 218.23840175367843,219.0 M 221.70250336881622,217.0 M 207.58315407754057,209.27084017629628 M 192.86072209072069,217.77084003035407 M 191.3607217285545,215.1727631254874 M 131.51150572225265,249.72672409730023 M 131.51150572225265,218.3535106751798 M 197.09968725041946,180.48615641446878 M 224.269687072414,196.1727631255755 M 206.0831535929127,206.6727631255274 M 195.099687072413,92.04974207317206 M 222.26968707241298,76.36313525928992 M 222.26968707241298,97.36313525928995 M 225.26968708820405,97.36313525928998 M 225.26968707241292,114.36313525928995 M 222.26968707241298,114.36313525928995 M 222.26968707241298,183.47105720340426 M 195.09968707241296,167.78445038952603 M 137.56792886894095,26.305851821301637 M 151.55423916273872,34.380851834395365 M 150.05423916273867,36.97892804574871 M 210.26968707241295,71.74433310577292 M 183.09968707241296,87.43093991965506 M 117.51150572225262,49.56358576148217 M 117.51150572225261,18.1903721337179 M 136.06792889161997,28.903928045748657 M 31.439858608237188,66.72916167245072 M 46.162289976849166,58.229160813815405 M 47.66228997684222,60.827237025172764 M 107.51150572225265,26.27327620398534 M 107.51150572225262,57.64648983170146 M 41.92332463302807,95.51384383898903 M 14.753324633043178,79.82723702511942 M 32.939858112484046,69.32723702513329 M 13.753324632983407,178.63686459008426 M 13.753324632983407,161.6368645900842 M 16.753324632983407,161.63686459008443 M 16.753324632983407,92.52894294725486 M 43.923324632983395,108.21554976113305 M 43.92332463298342,183.95025777620214 M 16.753324632983407,199.63686459008437 M 16.753324632983407,178.63686459008431 M 101.82497224277944,249.90770407726023 M 87.10254037844399,241.4077040772603 M 88.60254037844395,238.80962786590703 M 28.75332437241707,204.25566689403985 M 55.92332437241711,188.56906008015733 M 121.51150572225265,226.43641423814267 M 121.51150572225265,257.8096278659069 M 103.32497224277942,247.30962786590698 M 227.85446024006845,202.18599862310043 M 213.91328108209493,210.23494188576677 M 211.91328113371847,206.7708402408258 M 225.85446029169233,198.7218969781577 M 162.38293915065162,239.98599764740726 M 148.5265325708811,247.98599744091297 M 146.52653262250496,244.52189579597007 M 160.38293920227537,236.52189600246453 M 106.15509792881645,252.4077030068284 M 120.09627696684231,260.45664647725187 M 118.09627696684221,263.9207480923896 M 104.15509792881748,255.8718046219658 M 40.76834998019169,214.65664647725168 M 54.62475644074283,222.6566464772506 M 52.6247564407428,226.12074809238823 M 38.76834998019149,218.12074809238885 M 13.753325559881489,183.63686497800683 M 13.753325559880125,199.73475191885606 M 9.753325559880182,199.73475191885495 M 9.753325559882313,183.63686497800666 M 13.753325559897718,108.13475191885928 M 13.753325559895927,124.13475191885897 M 9.753325559895842,124.13475191885829 M 9.753325559897746,108.13475191885833 M 90.49648009830617,28.01400320421105 M 92.49648009830636,31.47810481934885 M 78.64007363775647,39.47810481935062 M 76.6400736377561,36.01400320421302 M 27.109732149681037,69.22916134892505 M 13.168553111657246,77.27810481935204 M 11.168553111657019,73.8140032042144 M 25.109732149680525,65.76505973378852 M 120.92673162718691,12.079250872987117 M 134.8679107354705,20.12819422171883 M 132.86791076570964,23.592295854314116 M 118.92673165742482,15.543352505582746 M 186.39825248324115,49.879250301489975 M 200.25465901362412,57.879250180537056 M 198.25465904386195,61.34335181313271 M 184.39825251347915,53.34335193408569 M 229.26968664360123,76.26524890481171 M 229.2696869828361,92.3631358456601 M 225.26968698283696,92.36313592995374 M 225.26968664360123,76.2652489891045 M 229.26968823673377,151.86524890480865 M 229.26968857390608,167.86524890480868 M 225.26968857390602,167.86524898910142 M 225.26968823673369,151.8652489891016 M 117.51150370521079,112.99999999948727 M 117.51150369331438,76.71100001772282 M 121.51150371315191,76.7110000177228 M 121.51150408586105,113.00000000461982 M 121.51150462152339,163.00000000006344 M 121.51150480589988,199.28922252134393 M 117.51150500254693,199.28922256892528 M 117.51150462152339,163.0000000425121 M 229.76968764130814,104.99711047498003 M 229.97679442249466,105.15602909757794 M 230.13571304509256,105.36313587876447 M 230.2356134675972,105.60431683366195 M 230.2696876413081,105.86313587876448 M 230.2356134675972,106.12195492386701 M 230.13571304509256,106.36313587876445 M 229.97679442249466,106.570242659951 M 229.76968764130814,106.72916128254893 M 229.52850668641062,106.82906170505356 M 229.2696876413081,106.8631358787645 M 229.01086859620563,106.82906170505356 M 228.7696876413081,106.72916128254892 M 228.56258086012156,106.57024265995105 M 228.4036622375237,106.36313587876447 M 228.30376181501904,106.12195492386701 M 228.2696876413081,105.86313587876448 M 228.30376181501902,105.60431683366195 M 228.4036622375237,105.36313587876447 M 228.56258086012156,105.15602909757794 M 228.7696876413081,104.99711047498003 M 229.01086859620563,104.8972100524754 M 229.2696876413081,104.8631358787645 M 229.52850668641062,104.89721005247543 M 203.4210755651456,215.4761224093254 M 203.5209759876509,215.2349414544282 M 203.67989461024936,215.02783467324207 M 203.88700139143629,214.8689160506447 M 204.12818234633406,214.76901562814072 M 204.38700139143668,214.7349414544305 M 204.64582043653908,214.7690156281421 M 204.88700139143634,214.8689160506474 M 205.0941081726224,215.02783467324582 M 205.25302679521977,215.23494145443283 M 205.3529272177238,215.47612240933057 M 205.38700139143398,215.73494145443317 M 205.35292721772237,215.9937604995356 M 205.2530267952171,216.23494145443283 M 205.09410817261863,216.44204823561893 M 204.88700139143165,216.60096685821628 M 204.64582043653394,216.70086728072027 M 204.3870013914313,216.7349414544305 M 204.12818234632886,216.70086728071885 M 203.88700139143168,216.60096685821355 M 203.67989461024553,216.44204823561512 M 203.52097598764823,216.23494145442817 M 203.42107556514426,215.99376049953042 M 203.38700139143398,215.73494145442783 M 200.0568743725078,217.23494145441896 M 200.21579299510623,217.0278346732328 M 200.4228997762932,216.86891605063545 M 200.66408073119095,216.76901562813146 M 200.92289977629358,216.73494145442118 M 201.18171882139598,216.76901562813282 M 201.42289977629318,216.86891605063812 M 201.6300065574793,217.02783467323655 M 201.78892518007666,217.2349414544235 M 201.88882560258062,217.4761224093213 M 201.92289977629088,217.7349414544239 M 201.8888256025793,217.99376049952633 M 201.788925180074,218.2349414544235 M 201.63000655747553,218.4420482356096 M 201.4228997762886,218.60096685820696 M 201.18171882139083,218.700867280711 M 200.9228997762882,218.73494145442118 M 200.66408073118578,218.7008672807096 M 200.42289977628855,218.60096685820434 M 200.21579299510248,218.44204823560585 M 200.05687437250512,218.2349414544189 M 199.9569739500011,217.99376049952116 M 199.92289977629088,217.73494145441856 M 199.95697395000252,217.47612240931608 M 97.36086929475933,251.37180462196238 M 97.32679512104838,251.63062366706492 M 97.22689469854377,251.87180462196244 M 97.06797607594588,252.078911403149 M 96.86086929475934,252.23783002574686 M 96.61968833986184,252.33773044825153 M 96.3608692947593,252.37180462196233 M 96.10205024965678,252.33773044825142 M 95.8608692947593,252.2378300257468 M 95.6537625135728,252.078911403149 M 95.49484389097486,251.87180462196244 M 95.39494346847025,251.63062366706487 M 95.36086929475933,251.37180462196244 M 95.39494346847025,251.11298557685996 M 95.49484389097485,250.87180462196233 M 95.65376251357277,250.66469784077583 M 95.8608692947593,250.50577921817796 M 96.10205024965678,250.4058787956733 M 96.36086929475933,250.3718046219625 M 96.61968833986184,250.40587879567335 M 96.8608692947593,250.5057792181779 M 97.06797607594585,250.6646978407759 M 97.22689469854376,250.87180462196244 M 97.32679512104838,251.11298557685996 M 91.93084185333268,249.63062366706498 M 91.89676767962175,249.3718046219625 M 91.93084185333268,249.11298557685996 M 92.03074227583731,248.87180462196255 M 92.18966089843519,248.66469784077606 M 92.3967676796217,248.50577921817813 M 92.63794863451919,248.40587879567346 M 92.8967676796217,248.3718046219626 M 93.15558672472422,248.40587879567346 M 93.39676767962166,248.50577921817813 M 93.6038744608082,248.66469784077606 M 93.7627930834061,248.8718046219626 M 93.86269350591067,249.11298557685996 M 93.89676767962163,249.37180462196255 M 93.86269350591071,249.6306236670651 M 93.76279308340607,249.8718046219625 M 93.60387446080819,250.07891140314905 M 93.39676767962166,250.23783002574697 M 93.15558672472419,250.3377304482516 M 92.89676767962166,250.37180462196238 M 92.63794863451922,250.33773044825153 M 92.3967676796217,250.23783002574697 M 92.18966089843518,250.078911403149 M 92.03074227583728,249.8718046219625 M 90.29869146826825,246.87180462196255 M 90.39859189077286,247.11298557686 M 90.43266606448378,247.3718046219625 M 90.39859189077286,247.63062366706498 M 90.29869146826825,247.8718046219625 M 90.13977284567034,248.07891140314888 M 89.93266606448383,248.2378300257468 M 89.6914851095864,248.33773044825148 M 89.4326660644839,248.37180462196238 M 89.17384701938141,248.33773044825148 M 88.932666064484,248.23783002574692 M 88.72555928329744,248.078911403149 M 88.5666406606996,247.87180462196244 M 88.46674023819497,247.63062366706504 M 88.43266606448405,247.37180462196244 M 88.466740238195,247.11298557686 M 88.5666406606996,246.87180462196255 M 88.72555928329749,246.66469784077606 M 88.93266606448401,246.50577921817813 M 89.17384701938145,246.40587879567357 M 89.43266606448397,246.37180462196278 M 89.69148510958644,246.40587879567357 M 89.93266606448388,246.50577921817825 M 90.13977284567042,246.66469784077617 M 9.753325559883393,175.63686497800677 M 10.012144604985878,175.67093915171787 M 10.253325559883365,175.77083957422255 M 10.460432341069946,175.92975819682025 M 10.619350963667728,176.13686497800694 M 10.719251386172346,176.37804593290457 M 10.753325559883251,176.63686497800683 M 10.719251386172232,176.8956840231096 M 10.619350963667586,177.13686497800688 M 10.460432341069719,177.34397175919355 M 10.25332555988308,177.5028903817914 M 10.01214460498565,177.6027908042962 M 9.753325559883109,177.636864978007 M 9.494506514780596,177.6027908042958 M 9.253325559883137,177.50289038179125 M 9.046218778696613,177.34397175919355 M 8.887300156098718,177.13686497800677 M 8.787399733594128,176.89568402310917 M 8.753325559883251,176.63686497800677 M 8.787399733594157,176.37804593290423 M 8.88730015609886,176.13686497800666 M 9.046218778696783,175.92975819682013 M 9.253325559883308,175.77083957422218 M 9.494506514780852,175.6709391517178 M 10.753325559883706,172.63686497800694 M 10.719251386172687,172.89568402310965 M 10.61935096366804,173.13686497800717 M 10.460432341070174,173.34397175919366 M 10.253325559883592,173.5028903817916 M 10.012144604986105,173.60279080429598 M 9.75332555988362,173.63686497800705 M 9.494506514781136,173.60279080429603 M 9.253325559883677,173.50289038179125 M 9.046218778697153,173.34397175919344 M 8.887300156099315,173.136864978007 M 8.787399733594697,172.89568402310942 M 8.753325559883791,172.63686497800688 M 8.78739973359481,172.37804593290446 M 8.887300156099457,172.13686497800688 M 9.046218778697323,171.92975819682053 M 9.253325559883905,171.7708395742224 M 9.494506514781392,171.67093915171802 M 9.753325559883876,171.63686497800722 M 10.012144604986332,171.67093915171813 M 10.25332555988382,171.77083957422258 M 10.460432341070344,171.9297581968208 M 10.619350963668182,172.13686497800722 M 10.7192513861728,172.37804593290466 M 10.619350963668666,168.13686497800742 M 10.719251386173227,168.3780459329048 M 10.75332555988416,168.63686497800722 M 10.719251386173141,168.8956840231096 M 10.619350963668495,169.13686497800694 M 10.4604323410706,169.34397175919366 M 10.253325559884075,169.50289038179147 M 10.012144604986588,169.6027908042958 M 9.753325559884104,169.63686497800694 M 9.49450651478162,169.60279080429603 M 9.253325559884217,169.50289038179125 M 9.046218778697693,169.3439717591933 M 8.887300156099855,169.13686497800677 M 8.787399733595265,168.8956840231092 M 8.753325559884388,168.63686497800688 M 8.78739973359535,168.3780459329044 M 8.887300156099997,168.13686497800705 M 9.04621877869792,167.92975819682027 M 9.253325559884502,167.77083957422252 M 9.494506514781932,167.67093915171804 M 9.753325559884416,167.63686497800745 M 10.0121446049869,167.6709391517181 M 10.25332555988436,167.77083957422275 M 10.460432341070828,167.92975819682076 M 10.01214460498747,163.67093915171804 M 10.2533255598849,163.77083957422258 M 10.460432341071368,163.92975819682056 M 10.619350963669206,164.1368649780074 M 10.719251386173823,164.37804593290457 M 10.7533255598847,164.6368649780071 M 10.719251386173767,164.89568402310965 M 10.61935096366912,165.13686497800714 M 10.460432341071197,165.3439717591935 M 10.253325559884615,165.50289038179147 M 10.012144604987185,165.60279080429615 M 9.753325559884644,165.63686497800694 M 9.494506514782216,165.60279080429592 M 9.253325559884757,165.50289038179142 M 9.046218778698233,165.3439717591934 M 8.887300156100366,165.13686497800683 M 8.787399733595805,164.89568402310925 M 8.753325559884871,164.63686497800694 M 8.78739973359589,164.37804593290434 M 8.887300156100537,164.13686497800688 M 9.046218778698403,163.92975819682036 M 9.253325559884956,163.7708395742226 M 9.494506514782444,163.67093915171813 M 9.753325559884928,163.6368649780071 M 28.573833764818005,63.76505973378818 M 28.47393334231336,63.52387877889071 M 28.43985916860234,63.26505973378818 M 28.47393334231336,63.00624068868551 M 28.57383376481792,62.765059733788135 M 28.732752387415786,62.55795295260158 M 28.93985916860231,62.39903433000366 M 29.18104012349977,62.299133907498984 M 29.43985916860231,62.265059733788 M 29.698678213704824,62.29913390749889 M 29.93985916860231,62.399034330003474 M 30.146965949788836,62.557952952601354 M 30.305884572386816,62.765059733787865 M 30.405784994891462,63.006240688685374 M 30.439859168602396,63.26505973378793 M 30.40578499489152,63.52387877889038 M 30.3058845723869,63.76505973378784 M 30.146965949788978,63.972166514974504 M 29.93985916860254,64.13108513757231 M 29.698678213705023,64.23098556007707 M 29.43985916860248,64.26505973378802 M 29.181040123500026,64.23098556007703 M 28.93985916860251,64.13108513757257 M 28.732752387415985,63.97216651497462 M 31.903960783739933,61.26505973378773 M 31.93803495745081,61.00624068868522 M 32.03793537995543,60.76505973378773 M 32.19685400255335,60.55795295260109 M 32.40396078373982,60.39903433000318 M 32.64514173863722,60.2991339074986 M 32.90396078373976,60.26505973378764 M 33.16277982884239,60.299133907498444 M 33.40396078373982,60.399034330003076 M 33.611067564926344,60.55795295260104 M 33.769986187524296,60.76505973378751 M 33.86988661002894,61.00624068868495 M 33.90396078373999,61.26505973378746 M 33.86988661002897,61.52387877888997 M 33.76998618752441,61.76505973378746 M 33.61106756492657,61.972166514974006 M 33.40396078373996,62.13108513757203 M 33.16277982884256,62.23098556007666 M 32.90396078374002,62.26505973378757 M 32.645141738637534,62.23098556007666 M 32.40396078374002,62.13108513757205 M 32.19685400255349,61.97216651497415 M 32.03793537995551,61.765059733787794 M 31.938034957450895,61.52387877889015 M 37.23408780266172,58.765059733787105 M 37.33398822516648,59.00624068868448 M 37.368062398877385,59.265059733787126 M 37.333988225166536,59.52387877888955 M 37.234087802661946,59.7650597337871 M 37.07516918006408,59.97216651497361 M 36.86806239887753,60.13108513757158 M 36.62688144398007,60.230985560076235 M 36.36806239887753,60.26505973378717 M 36.10924335377504,60.230985560076235 M 35.86806239887753,60.131085137571674 M 35.660955617691,59.97216651497381 M 35.50203699509302,59.76505973378735 M 35.402136572588404,59.52387877888982 M 35.36806239887741,59.265059733787304 M 35.40213657258832,59.00624068868473 M 35.502036995092936,58.76505973378728 M 35.6609556176908,58.55795295260069 M 35.8680623988773,58.39903433000288 M 36.10924335377473,58.2991339074982 M 36.3680623988773,58.26505973378724 M 36.62688144397984,58.29913390749802 M 36.86806239887733,58.399034330002664 M 37.07516918006388,58.55795295260053 M 40.698189417799256,56.76505973378674 M 40.79808984030399,57.00624068868405 M 40.83216401401489,57.26505973378672 M 40.79808984030407,57.52387877888912 M 40.698189417799426,57.7650597337867 M 40.53927079520162,57.9721665149732 M 40.33216401401509,58.13108513757109 M 40.090983059117576,58.23098556007583 M 39.832164014015035,58.265059733786785 M 39.57334496891255,58.23098556007587 M 39.33216401401501,58.13108513757133 M 39.125057232828425,57.97216651497347 M 38.96613861023056,57.765059733786856 M 38.866238187725884,57.52387877888941 M 38.83216401401495,57.265059733786835 M 38.8662381877258,57.006240688684414 M 38.966138610230416,56.76505973378693 M 39.12505723282831,56.55795295260031 M 39.33216401401478,56.39903433000242 M 39.57334496891224,56.29913390749782 M 39.83216401401481,56.26505973378681 M 40.09098305911729,56.29913390749768 M 40.332164014014865,56.39903433000222 M 40.53927079520136,56.55795295260015 M 43.29626562915253,56.26505973378636 M 43.037446584050016,56.230985560075425 M 42.79626562915253,56.13108513757078 M 42.58915884796599,55.972166514973004 M 42.43024022536808,55.76505973378643 M 42.330339802863435,55.52387877888897 M 42.296265629152444,55.26505973378648 M 42.330339802863364,55.006240688683924 M 42.43024022536794,54.76505973378648 M 42.589158847965805,54.557952952599905 M 42.79626562915233,54.399034330002 M 43.037446584049746,54.29913390749735 M 43.29626562915233,54.26505973378632 M 43.555084674254886,54.299133907497236 M 43.79626562915233,54.39903433000195 M 44.003372410338926,54.557952952599656 M 44.16229103293679,54.76505973378627 M 44.26219145544148,55.00624068868374 M 44.296265629152415,55.265059733786295 M 44.26219145544155,55.523878778888744 M 44.162291032936906,55.765059733786316 M 44.00337241033907,55.972166514972784 M 43.79626562915253,56.13108513757075 M 43.55508467425511,56.23098556007527 M 138.33201268013408,22.128193650962658 M 138.17309405753625,22.335300432149168 M 137.96598727634975,22.494219054747006 M 137.72480632145235,22.59411947725161 M 137.46598727634995,22.62819365096253 M 137.20716823124746,22.594119477251596 M 136.96598727635006,22.494219054746992 M 136.75888049516354,22.335300432149197 M 136.59996187256576,22.128193650962714 M 136.50006145006114,21.887012696065312 M 136.46598727635018,21.62819365096287 M 136.5000614500611,21.369374605860443 M 136.5999618725657,21.128193650963 M 136.7588804951636,20.921086869776502 M 136.96598727635006,20.762168247178707 M 137.20716823124746,20.66226782467406 M 137.46598727634992,20.62819365096314 M 137.72480632145235,20.662267824674032 M 137.96598727634978,20.762168247178664 M 138.17309405753625,20.921086869776474 M 138.33201268013406,21.128193650962984 M 138.43191310263865,21.36937460586043 M 138.46598727634955,21.62819365096287 M 138.43191310263867,21.887012696065284 M 139.9300888914878,23.62819365096282 M 139.9641630651988,23.36937460586033 M 140.06406348770338,23.128193650962928 M 140.22298211030127,22.92108686977636 M 140.43008889148774,22.762168247178565 M 140.67126984638517,22.662267824673933 M 140.93008889148763,22.628193650963 M 141.18890793659014,22.66226782467392 M 141.4300888914876,22.762168247178522 M 141.63719567267407,22.92108686977643 M 141.7961142952719,23.128193650962956 M 141.89601471777655,23.3693746058603 M 141.93008889148743,23.628193650962842 M 141.8960147177765,23.887012696065284 M 141.79611429527193,24.12819365096268 M 141.637195672674,24.335300432149253 M 141.43008889148751,24.49421905474712 M 141.18890793659014,24.594119477251674 M 140.93008889148763,24.628193650962636 M 140.67126984638514,24.594119477251702 M 140.43008889148774,24.49421905474712 M 140.22298211030125,24.335300432149232 M 140.0640634877034,24.12819365096273 M 139.96416306519876,23.887012696065305 M 145.26021591040967,26.12819365096277 M 145.10129728781183,26.335300432149253 M 144.89419050662534,26.49421905474707 M 144.65300955172788,26.594119477251695 M 144.39419050662536,26.628193650962608 M 144.13537146152294,26.594119477251716 M 143.89419050662548,26.49421905474705 M 143.68708372543904,26.335300432149204 M 143.52816510284114,26.12819365096268 M 143.4282646803365,25.887012696065284 M 143.3941905066256,25.628193650962814 M 143.42826468033653,25.369374605860372 M 143.5281651028412,25.128193650962906 M 143.68708372543898,24.921086869776424 M 143.89419050662556,24.762168247178515 M 144.1353714615229,24.662267824673933 M 144.39419050662542,24.628193650963 M 144.65300955172788,24.662267824673954 M 144.8941905066253,24.762168247178536 M 145.1012972878118,24.921086869776445 M 145.26021591040964,25.128193650962928 M 145.36011633291423,25.369374605860372 M 145.39419050662516,25.628193650962864 M 145.3601163329143,25.887012696065256 M 148.72431752554743,28.1281936509627 M 148.56539890294954,28.335300432149246 M 148.3582921217631,28.494219054747084 M 148.11711116686564,28.594119477251695 M 147.85829212176316,28.62819365096265 M 147.59947307666067,28.594119477251716 M 147.35829212176327,28.494219054747113 M 147.15118534057672,28.335300432149225 M 146.99226671797894,28.1281936509627 M 146.89236629547423,27.887012696065277 M 146.85829212176333,27.628193650962835 M 146.89236629547423,27.369374605860344 M 146.9922667179789,27.128193650962878 M 147.15118534057672,26.921086869776396 M 147.35829212176324,26.762168247178558 M 147.5994730766607,26.662267824673933 M 147.8582921217632,26.62819365096297 M 148.11711116686558,26.662267824673933 M 148.35829212176307,26.762168247178536 M 148.56539890294962,26.921086869776353 M 148.72431752554743,27.128193650962878 M 148.824217948052,27.369374605860365 M 148.85829212176304,27.628193650962814 M 148.82421794805202,27.887012696065277 M 150.35646791061214,29.887012696065227 M 150.32239373690118,29.628193650962807 M 150.3564679106121,29.369374605860344 M 150.45636833311673,29.1281936509629 M 150.6152869557146,28.921086869776417 M 150.8223937369011,28.7621682471786 M 151.06357469179852,28.662267824673975 M 151.32239373690095,28.628193650963105 M 151.5812127820034,28.662267824674018 M 151.82239373690086,28.7621682471786 M 152.02950051808733,28.92108686977644 M 152.18841914068514,29.12819365096299 M 152.28831956318976,29.369374605860365 M 152.32239373690064,29.62819365096285 M 152.2883195631897,29.887012696065298 M 152.18841914068508,30.128193650962714 M 152.02950051808727,30.335300432149175 M 151.8223937369008,30.494219054747013 M 151.58121278200335,30.594119477251617 M 151.3223937369009,30.628193650962537 M 151.06357469179844,30.594119477251596 M 150.82239373690106,30.49421905474697 M 150.6152869557145,30.335300432149154 M 150.45636833311673,30.12819365096263 M 154.5276763069362,32.59411947725171 M 154.28649535203877,32.494219054747106 M 154.07938857085225,32.33530043214922 M 153.92046994825438,32.12819365096276 M 153.8205695257498,31.88701269606525 M 153.78649535203886,31.628193650962828 M 153.82056952574982,31.369374605860337 M 153.92046994825444,31.12819365096287 M 154.07938857085227,30.92108686977639 M 154.2864953520388,30.762168247178508 M 154.52767630693626,30.662267824673926 M 154.78649535203863,30.628193650963006 M 155.04531439714117,30.662267824673904 M 155.2864953520386,30.76216824717853 M 155.4936021332251,30.921086869776367 M 155.65252075582296,31.128193650962892 M 155.75242117832755,31.369374605860358 M 155.78649535203851,31.62819365096278 M 155.75242117832752,31.88701269606529 M 155.65252075582293,32.128193650962736 M 155.4936021332251,32.33530043214922 M 155.2864953520386,32.494219054747056 M 155.0453143971411,32.59411947725171 M 154.78649535203868,32.6281936509626 M 119.51150484166922,158.00000000000006 M 118.25569445282042,157.96053451327316 M 117.00484017732666,157.84229391592322 M 115.7638785655521,157.64574484956896 M 114.53770712603713,157.37166300358038 M 113.33116499726896,157.02113005378777 M 112.1490138498132,156.59552939360066 M 110.99591909417538,156.09654067438618 M 109.8764314685571,155.52613317665296 M 108.79496907917147,154.88655803820012 M 107.75579996399615,154.18033936990497 M 106.76302524877764,153.41026429421072 M 105.82056296176113,152.57937194562737 M 104.93213257102352,151.69094147665615 M 104.10124030543187,150.74847911647257 M 103.33116531715973,149.7557043334425 M 102.62494674037212,148.71653515607875 M 101.98537169715108,147.63507271037318 M 101.41496429799811,146.5155850345257 M 100.91597568032323,145.36249023494787 M 100.49037512423432,144.1803390500144 M 100.13984228068784,142.97379689037882 M 99.86576054267405,141.74762542672863 M 99.66921158559673,140.5066637976464 M 99.55097109839494,139.2558095117406 M 99.51150572225269,137.99999911941666 M 99.55097120897955,136.74418873056803 M 99.66921180632949,135.49333445507426 M 99.86576087268381,134.2523728432997 M 100.13984271867224,133.0262014037847 M 100.49037566846484,131.81965927501656 M 100.91597632865198,130.6375081275608 M 101.41496504786642,129.484413371923 M 101.9853725455997,128.36492574630464 M 102.62494768405251,127.28346335691909 M 103.33116635234761,126.24429424174376 M 104.10124142804185,125.25151952652517 M 104.93213377662522,124.30905723950869 M 105.82056424559653,123.42062684877108 M 106.76302660578,122.58973458317939 M 107.75580138881008,121.81965959490722 M 108.79497056617384,121.1134410181196 M 109.87643301187946,120.47386597489853 M 110.99592068772687,119.90345857574556 M 112.14901548730481,119.40446995807069 M 113.33116667223823,118.97886940198181 M 114.53770883187374,118.62833655843532 M 115.76388029552399,118.35425482042146 M 117.00484192460628,118.15770586334415 M 118.25569621051213,118.03946537614239 M 119.51150660283601,118.0000000000001 M 120.76731699168468,118.03946548672693 M 122.01817126717843,118.15770608407692 M 123.25913287895298,118.35425515043117 M 124.48530431846797,118.62833699641968 M 125.69184644723614,118.97886994621224 M 126.87399759469193,119.4044706063994 M 128.02709235032978,119.90345932561388 M 129.14657997594804,120.47386682334708 M 130.22804236533372,121.11344196179994 M 131.26721148050902,121.8196606300951 M 132.2599861957276,122.5897357057893 M 133.20244848274407,123.42062805437267 M 134.09087887348164,124.30905852334399 M 134.9217711390734,125.25152088352746 M 135.6918461273455,126.24429566655755 M 136.3980647041331,127.28346484392131 M 137.0376397473542,128.36492728962688 M 137.6080471465072,129.4844149654743 M 138.10703576418203,130.63750976505224 M 138.53263632027094,131.8196609499857 M 138.88316916381746,133.02620310962124 M 139.15725090183128,134.25237457327142 M 139.35379985890853,135.49333620235373 M 139.47204034611036,136.74419048825956 M 139.51150572225262,138.0000008805835 M 139.47204023552575,139.25581126943214 M 139.35379963817581,140.5066655449259 M 139.15725057182152,141.74762715670045 M 138.88316872583306,142.97379859621543 M 138.53263577604048,144.18034072498358 M 138.1070351158533,145.36249187243936 M 137.60804639663883,146.51558662807724 M 137.03763889890558,147.63507425369548 M 136.39806376045274,148.71653664308118 M 135.69184509215762,149.75570575825645 M 134.92177001646343,150.748480473475 M 134.09087766788002,151.6909427604915 M 133.20244719890871,152.57937315122908 M 132.25998483872525,153.4102654168208 M 131.26721005569513,154.18034040509292 M 130.2280408783314,154.88655898188057 M 129.1465784326258,155.5261340251016 M 128.02709075677836,156.09654142425467 M 126.87399595720044,156.59553004192946 M 125.69184477226699,157.02113059801832 M 124.48530261263146,157.37166344156483 M 123.25913114898128,157.6457451795787 M 122.01816951989895,157.84229413665602 M 120.76731523399312,157.9605346238577 M 78.0762609368152,164.23205080756887 M 76.57626093681519,161.63397459621544 M 80.90638795573734,159.13397459621558 M 82.40638795573737,161.73205080756884 M 83.0762609368151,172.89230484541332 M 87.40638795573732,170.39230484541326 M 88.90638795573732,172.99038105676644 M 84.57626093681512,175.4903810567665 M 167.946750507685,152.10769515459543 M 163.61662348876257,149.6076951545959 M 165.11662348876257,147.00961894324257 M 169.44675050768504,149.5096189432421 M 157.11662348876263,160.86602540379351 M 158.61662348876263,158.2679491924402 M 162.9467505076851,160.7679491924397 M 161.44675050768538,163.3660254037932 M 162.44675050768998,114.3660254037844 M 158.11662348876783,116.8660254037844 M 156.61662348876783,114.26794919243112 M 160.94675050769,111.7679491924311 M 155.94675050769004,103.10769515458671 M 151.6166234887678,105.60769515458674 M 150.11662348876783,103.00961894323342 M 154.44675050769,100.5096189432334 M 81.9063879557274,115.13397459623214 M 80.40638795572738,117.73205080758547 M 76.07626093680518,115.23205080758615 M 77.57626093680496,112.63397459623258 M 71.07626093680543,123.89230484542949 M 75.40638795572784,126.39230484542911 M 73.90638795572782,128.9903810567824 M 69.5762609368057,126.49038105678241 M 107.51150572225269,88.99999999999986 M 107.51150572225272,93.99999999999949 M 104.5115057222527,93.99999999999953 M 104.51150572225272,88.99999999999986 M 131.51150572225265,187.00000000000003 M 131.51150572225265,182.0 M 134.51150572225265,182.0 M 134.51150572225265,187.0 "
  />
</svg>
