<?xml version="1.0" standalone="no"?>
<!DOCTYPE svg PUBLIC "-//W3C//DTD SVG 1.1//EN" "http://www.w3.org/Graphics/SVG/1.1/DTD/svg11.dtd">
<svg width="179.70000000407128mm" height="140.00000000000045mm"
 viewBox="0 0 179.70000000407128 140.00000000000045"
 xmlns="http://www.w3.org/2000/svg" version="1.1"
 xmlns:xlink="http://www.w3.org/1999/xlink">
<desc>Output from Flights of Ideas SVG Sketchup Plugin</desc>

  <path id="face0-cut"
 style="fill:none;stroke:#FF0000;stroke-width:0.1;stroke-miterlimit:4;stroke-dasharray:none;stroke-linejoin:round;stroke-linecap:round"
        d="M 1.0,1.0 L 1.0000000000399751,20.99999984231026 L 19.000000000043975,20.99999984231026 L 19.26105238448408,21.01711011956263 L 19.51763809024903,21.068148189732128 L 19.765366864774165,21.1522407772877 L 20.000000000043997,21.26794903474139 L 20.217522858061436,21.413293161727808 L 20.414213562417096,21.585786279937196 L 20.586706680626484,21.78247698429287 L 20.732050807612886,21.99999984231026 L 20.84775906506659,22.234632977580063 L 20.93185165262215,22.48236175210525 L 20.98288972279164,22.738947457870154 L 21.000000000044025,22.999999842310302 L 21.00000000023185,116.99999998225249 L 20.98288972319186,117.26105236685405 L 20.931851653192936,117.51763807280304 L 20.8477590657642,117.76536684752669 L 20.73205080839299,117.99999998300139 L 20.586706681445605,118.21752284122199 L 20.41421356323385,118.41421354577143 L 20.21752285883783,118.58670666415817 L 20.000000000746503,118.732050791299 L 19.765366865374745,118.8477590488789 L 19.517638090725853,118.93185163652804 L 19.261052384822257,118.98288970675517 L 19.000000000235893,118.99999998402723 L 1.000000000235886,118.99999998402728 L 1.000000000275847,139.00000000000045 L 178.70000000407128,138.99999984230965 L 178.70000000407128,1.0 L 1.0,1.0 M 167.51865335201853,130.04999985417888 L 167.18492424456304,130.48492409467062 L 166.7500000040713,130.81865320212623 L 166.24351999878655,131.02844408938589 L 165.70000000407126,131.09999985417872 L 165.15648000935596,131.02844408938597 L 164.65000000407127,130.8186532021262 L 164.21507576357953,130.48492409467062 L 163.88134665612392,130.04999985417882 L 163.6715557688642,129.5435198488942 L 163.60000000407126,128.99999985417884 L 163.6715557688642,128.45647985946366 L 163.88134665612392,127.94999985417886 L 164.21507576357953,127.51507561368719 L 164.65000000407127,127.1813465062316 L 165.15648000935596,126.97155561897196 L 165.70000000407126,126.89999985417892 L 166.24351999878655,126.97155561897192 L 166.7500000040713,127.18134650623159 L 167.18492424456298,127.51507561368722 L 167.5186533520186,127.94999985417893 L 167.7284442392783,128.45647985946363 L 167.80000000407125,128.99999985417878 L 167.72844423927828,129.54351984889425 L 167.51865335201853,130.04999985417888 M 163.6715557688642,10.456479859464395 L 163.88134665612404,9.949999854179296 L 164.2150757635796,9.515075613687458 L 164.6500000040713,9.181346506232444 L 165.15648000935602,8.971555618972332 L 165.70000000407128,8.899999854179924 L 166.2435199987866,8.971555618972431 L 166.7500000040713,9.181346506232074 L 167.18492424456304,9.515075613687742 L 167.51865335201862,9.949999854179353 L 167.72844423927833,10.456479859464437 L 167.8000000040713,10.999999854179649 L 167.72844423927836,11.543519848894661 L 167.51865335201862,12.049999854179205 L 167.18492424456306,12.484924094671285 L 166.7500000040713,12.818653202126754 L 166.2435199987866,13.028444089386738 L 165.70000000407128,13.09999985417933 L 165.15648000935602,13.02844408938671 L 164.6500000040713,12.818653202126853 L 164.2150757635796,12.484924094671257 L 163.88134665612398,12.049999854179248 L 163.67155576886427,11.543519848894832 L 163.60000000407132,10.999999854179507 L 163.6715557688642,10.456479859464395 M 18.58578643790375,130.4142133368361 L 18.26794919270796,129.999999774463 L 18.068148347698717,129.51763786466805 L 18.00000000027684,128.999999774463 L 18.06814834769869,128.48236168425797 L 18.267949192707967,127.99999977446299 L 18.58578643790375,127.58578621208987 L 19.000000000276835,127.26794896689411 L 19.482361910071802,127.06814812188485 L 20.000000000276856,126.99999977446299 L 20.51763809048188,127.06814812188485 L 21.000000000276835,127.26794896689411 L 21.414213562649927,127.58578621208991 L 21.732050807845738,127.99999977446299 L 21.931851652854995,128.48236168425797 L 22.00000000027684,128.999999774463 L 21.931851652854967,129.51763786466802 L 21.732050807845717,129.999999774463 L 21.41421356264994,130.4142133368361 L 21.00000000027684,130.7320505820319 L 20.51763809048188,130.93185142704115 L 20.00000000027685,130.999999774463 L 19.482361910071816,130.93185142704115 L 19.000000000276863,130.7320505820319 L 18.58578643790375,130.4142133368361 M 21.000000000276778,12.732050582031874 L 20.517638090481846,12.931851427041181 L 20.000000000276806,12.999999774463092 L 19.482361910071752,12.931851427041266 L 19.000000000276778,12.732050582032059 L 18.585786437903657,12.414213336836312 L 18.26794919270783,11.999999774463262 L 18.068148347698532,11.517637864668302 L 18.000000000276614,10.999999774463276 L 18.068148347698433,10.482361684258237 L 18.267949192707654,9.999999774463262 L 18.585786437903387,9.585786212090142 L 19.00000000027645,9.267948966894323 L 19.482361910071397,9.068148121885002 L 20.000000000276422,8.999999774463106 L 20.517638090481476,9.068148121884903 L 21.000000000276444,9.267948966894124 L 21.41421356264957,9.585786212089843 L 21.73205080784539,9.999999774462921 L 21.931851652854697,10.482361684257867 L 22.000000000276614,10.999999774462893 L 21.931851652854796,11.517637864667947 L 21.73205080784559,11.999999774462921 L 21.41421356264984,12.414213336836042 L 21.000000000276778,12.732050582031874 "
  />
  <path id="face0-interior"
 style="fill:none;stroke:#FF0000;stroke-width:0.1;stroke-miterlimit:4;stroke-dasharray:none;stroke-linejoin:round;stroke-linecap:round"
        d="M 1.0,1.0 M 1.0000000000399751,20.99999984231026 M 19.000000000043975,20.99999984231026 M 19.26105238448408,21.01711011956263 M 19.51763809024903,21.068148189732128 M 19.765366864774165,21.1522407772877 M 20.000000000043997,21.26794903474139 M 20.217522858061436,21.413293161727808 M 20.414213562417096,21.585786279937196 M 20.586706680626484,21.78247698429287 M 20.732050807612886,21.99999984231026 M 20.84775906506659,22.234632977580063 M 20.93185165262215,22.48236175210525 M 20.98288972279164,22.738947457870154 M 21.000000000044025,22.999999842310302 M 21.00000000023185,116.99999998225249 M 20.98288972319186,117.26105236685405 M 20.931851653192936,117.51763807280304 M 20.8477590657642,117.76536684752669 M 20.73205080839299,117.99999998300139 M 20.586706681445605,118.21752284122199 M 20.41421356323385,118.41421354577143 M 20.21752285883783,118.58670666415817 M 20.000000000746503,118.732050791299 M 19.765366865374745,118.8477590488789 M 19.517638090725853,118.93185163652804 M 19.261052384822257,118.98288970675517 M 19.000000000235893,118.99999998402723 M 1.000000000235886,118.99999998402728 M 1.000000000275847,139.00000000000045 M 178.70000000407128,138.99999984230965 M 178.70000000407128,1.0 M 167.51865335201853,130.04999985417888 M 167.18492424456304,130.48492409467062 M 166.7500000040713,130.81865320212623 M 166.24351999878655,131.02844408938589 M 165.70000000407126,131.09999985417872 M 165.15648000935596,131.02844408938597 M 164.65000000407127,130.8186532021262 M 164.21507576357953,130.48492409467062 M 163.88134665612392,130.04999985417882 M 163.6715557688642,129.5435198488942 M 163.60000000407126,128.99999985417884 M 163.6715557688642,128.45647985946366 M 163.88134665612392,127.94999985417886 M 164.21507576357953,127.51507561368719 M 164.65000000407127,127.1813465062316 M 165.15648000935596,126.97155561897196 M 165.70000000407126,126.89999985417892 M 166.24351999878655,126.97155561897192 M 166.7500000040713,127.18134650623159 M 167.18492424456298,127.51507561368722 M 167.5186533520186,127.94999985417893 M 167.7284442392783,128.45647985946363 M 167.80000000407125,128.99999985417878 M 167.72844423927828,129.54351984889425 M 163.6715557688642,10.456479859464395 M 163.88134665612404,9.949999854179296 M 164.2150757635796,9.515075613687458 M 164.6500000040713,9.181346506232444 M 165.15648000935602,8.971555618972332 M 165.70000000407128,8.899999854179924 M 166.2435199987866,8.971555618972431 M 166.7500000040713,9.181346506232074 M 167.18492424456304,9.515075613687742 M 167.51865335201862,9.949999854179353 M 167.72844423927833,10.456479859464437 M 167.8000000040713,10.999999854179649 M 167.72844423927836,11.543519848894661 M 167.51865335201862,12.049999854179205 M 167.18492424456306,12.484924094671285 M 166.7500000040713,12.818653202126754 M 166.2435199987866,13.028444089386738 M 165.70000000407128,13.09999985417933 M 165.15648000935602,13.02844408938671 M 164.6500000040713,12.818653202126853 M 164.2150757635796,12.484924094671257 M 163.88134665612398,12.049999854179248 M 163.67155576886427,11.543519848894832 M 163.60000000407132,10.999999854179507 M 18.58578643790375,130.4142133368361 M 18.26794919270796,129.999999774463 M 18.068148347698717,129.51763786466805 M 18.00000000027684,128.999999774463 M 18.06814834769869,128.48236168425797 M 18.267949192707967,127.99999977446299 M 18.58578643790375,127.58578621208987 M 19.000000000276835,127.26794896689411 M 19.482361910071802,127.06814812188485 M 20.000000000276856,126.99999977446299 M 20.51763809048188,127.06814812188485 M 21.000000000276835,127.26794896689411 M 21.414213562649927,127.58578621208991 M 21.732050807845738,127.99999977446299 M 21.931851652854995,128.48236168425797 M 22.00000000027684,128.999999774463 M 21.931851652854967,129.51763786466802 M 21.732050807845717,129.999999774463 M 21.41421356264994,130.4142133368361 M 21.00000000027684,130.7320505820319 M 20.51763809048188,130.93185142704115 M 20.00000000027685,130.999999774463 M 19.482361910071816,130.93185142704115 M 19.000000000276863,130.7320505820319 M 21.000000000276778,12.732050582031874 M 20.517638090481846,12.931851427041181 M 20.000000000276806,12.999999774463092 M 19.482361910071752,12.931851427041266 M 19.000000000276778,12.732050582032059 M 18.585786437903657,12.414213336836312 M 18.26794919270783,11.999999774463262 M 18.068148347698532,11.517637864668302 M 18.000000000276614,10.999999774463276 M 18.068148347698433,10.482361684258237 M 18.267949192707654,9.999999774463262 M 18.585786437903387,9.585786212090142 M 19.00000000027645,9.267948966894323 M 19.482361910071397,9.068148121885002 M 20.000000000276422,8.999999774463106 M 20.517638090481476,9.068148121884903 M 21.000000000276444,9.267948966894124 M 21.41421356264957,9.585786212089843 M 21.73205080784539,9.999999774462921 M 21.931851652854697,10.482361684257867 M 22.000000000276614,10.999999774462893 M 21.931851652854796,11.517637864667947 M 21.73205080784559,11.999999774462921 M 21.41421356264984,12.414213336836042 "
  />
  <path id="face0-interior"
 style="fill:none;stroke:#FF0000;stroke-width:0.1;stroke-miterlimit:4;stroke-dasharray:none;stroke-linejoin:round;stroke-linecap:round"
        d="M 1.0,1.0 M 1.0000000000399751,20.99999984231026 M 19.000000000043975,20.99999984231026 M 19.26105238448408,21.01711011956263 M 19.51763809024903,21.068148189732128 M 19.765366864774165,21.1522407772877 M 20.000000000043997,21.26794903474139 M 20.217522858061436,21.413293161727808 M 20.414213562417096,21.585786279937196 M 20.586706680626484,21.78247698429287 M 20.732050807612886,21.99999984231026 M 20.84775906506659,22.234632977580063 M 20.93185165262215,22.48236175210525 M 20.98288972279164,22.738947457870154 M 21.000000000044025,22.999999842310302 M 21.00000000023185,116.99999998225249 M 20.98288972319186,117.26105236685405 M 20.931851653192936,117.51763807280304 M 20.8477590657642,117.76536684752669 M 20.73205080839299,117.99999998300139 M 20.586706681445605,118.21752284122199 M 20.41421356323385,118.41421354577143 M 20.21752285883783,118.58670666415817 M 20.000000000746503,118.732050791299 M 19.765366865374745,118.8477590488789 M 19.517638090725853,118.93185163652804 M 19.261052384822257,118.98288970675517 M 19.000000000235893,118.99999998402723 M 1.000000000235886,118.99999998402728 M 1.000000000275847,139.00000000000045 M 178.70000000407128,138.99999984230965 M 178.70000000407128,1.0 M 167.51865335201853,130.04999985417888 M 167.18492424456304,130.48492409467062 M 166.7500000040713,130.81865320212623 M 166.24351999878655,131.02844408938589 M 165.70000000407126,131.09999985417872 M 165.15648000935596,131.02844408938597 M 164.65000000407127,130.8186532021262 M 164.21507576357953,130.48492409467062 M 163.88134665612392,130.04999985417882 M 163.6715557688642,129.5435198488942 M 163.60000000407126,128.99999985417884 M 163.6715557688642,128.45647985946366 M 163.88134665612392,127.94999985417886 M 164.21507576357953,127.51507561368719 M 164.65000000407127,127.1813465062316 M 165.15648000935596,126.97155561897196 M 165.70000000407126,126.89999985417892 M 166.24351999878655,126.97155561897192 M 166.7500000040713,127.18134650623159 M 167.18492424456298,127.51507561368722 M 167.5186533520186,127.94999985417893 M 167.7284442392783,128.45647985946363 M 167.80000000407125,128.99999985417878 M 167.72844423927828,129.54351984889425 M 163.6715557688642,10.456479859464395 M 163.88134665612404,9.949999854179296 M 164.2150757635796,9.515075613687458 M 164.6500000040713,9.181346506232444 M 165.15648000935602,8.971555618972332 M 165.70000000407128,8.899999854179924 M 166.2435199987866,8.971555618972431 M 166.7500000040713,9.181346506232074 M 167.18492424456304,9.515075613687742 M 167.51865335201862,9.949999854179353 M 167.72844423927833,10.456479859464437 M 167.8000000040713,10.999999854179649 M 167.72844423927836,11.543519848894661 M 167.51865335201862,12.049999854179205 M 167.18492424456306,12.484924094671285 M 166.7500000040713,12.818653202126754 M 166.2435199987866,13.028444089386738 M 165.70000000407128,13.09999985417933 M 165.15648000935602,13.02844408938671 M 164.6500000040713,12.818653202126853 M 164.2150757635796,12.484924094671257 M 163.88134665612398,12.049999854179248 M 163.67155576886427,11.543519848894832 M 163.60000000407132,10.999999854179507 M 18.58578643790375,130.4142133368361 M 18.26794919270796,129.999999774463 M 18.068148347698717,129.51763786466805 M 18.00000000027684,128.999999774463 M 18.06814834769869,128.48236168425797 M 18.267949192707967,127.99999977446299 M 18.58578643790375,127.58578621208987 M 19.000000000276835,127.26794896689411 M 19.482361910071802,127.06814812188485 M 20.000000000276856,126.99999977446299 M 20.51763809048188,127.06814812188485 M 21.000000000276835,127.26794896689411 M 21.414213562649927,127.58578621208991 M 21.732050807845738,127.99999977446299 M 21.931851652854995,128.48236168425797 M 22.00000000027684,128.999999774463 M 21.931851652854967,129.51763786466802 M 21.732050807845717,129.999999774463 M 21.41421356264994,130.4142133368361 M 21.00000000027684,130.7320505820319 M 20.51763809048188,130.93185142704115 M 20.00000000027685,130.999999774463 M 19.482361910071816,130.93185142704115 M 19.000000000276863,130.7320505820319 M 21.000000000276778,12.732050582031874 M 20.517638090481846,12.931851427041181 M 20.000000000276806,12.999999774463092 M 19.482361910071752,12.931851427041266 M 19.000000000276778,12.732050582032059 M 18.585786437903657,12.414213336836312 M 18.26794919270783,11.999999774463262 M 18.068148347698532,11.517637864668302 M 18.000000000276614,10.999999774463276 M 18.068148347698433,10.482361684258237 M 18.267949192707654,9.999999774463262 M 18.585786437903387,9.585786212090142 M 19.00000000027645,9.267948966894323 M 19.482361910071397,9.068148121885002 M 20.000000000276422,8.999999774463106 M 20.517638090481476,9.068148121884903 M 21.000000000276444,9.267948966894124 M 21.41421356264957,9.585786212089843 M 21.73205080784539,9.999999774462921 M 21.931851652854697,10.482361684257867 M 22.000000000276614,10.999999774462893 M 21.931851652854796,11.517637864667947 M 21.73205080784559,11.999999774462921 M 21.41421356264984,12.414213336836042 "
  />
</svg>
