<?xml version="1.0" standalone="no"?>
<!DOCTYPE svg PUBLIC "-//W3C//DTD SVG 1.1//EN" "http://www.w3.org/Graphics/SVG/1.1/DTD/svg11.dtd">
<svg width="179.70000000407128mm" height="140.00000000000063mm"
 viewBox="0 0 179.70000000407128 140.00000000000063"
 xmlns="http://www.w3.org/2000/svg" version="1.1"
 xmlns:xlink="http://www.w3.org/1999/xlink">
<desc>Output from Flights of Ideas SVG Sketchup Plugin</desc>

  <path id="face0-cut"
 style="fill:none;stroke:#FF0000;stroke-width:0.1;stroke-miterlimit:4;stroke-dasharray:none;stroke-linejoin:round;stroke-linecap:round"
        d="M 1.0,1.0 L 1.0000000001339373,67.99999984231029 L 19.00000000013398,67.99999984231043 L 19.517638090339148,68.06814818973125 L 20.000000000134506,68.26794903473952 L 20.41421356250823,68.58578627993451 L 20.732050807704823,68.99999984230702 L 20.931851652715032,69.48236175210151 L 21.000000000137945,69.9999998423064 L 21.00000000023185,116.9999999822525 L 20.982889723191867,117.26105236685409 L 20.931851653192965,117.517638072803 L 20.84775906576421,117.76536684752669 L 20.732050808393005,117.99999998300136 L 20.58670668144559,118.21752284122196 L 20.41421356323385,118.41421354577163 L 20.217522858837853,118.58670666415814 L 20.00000000074651,118.73205079129902 L 19.765366865374745,118.84775904887887 L 19.517638090725846,118.93185163652798 L 19.261052384822257,118.9828897067551 L 19.000000000235886,118.99999998402713 L 1.0000000002359002,118.99999998402721 L 1.000000000275847,139.00000000000063 L 178.70000000407128,138.99999984230976 L 178.70000000407128,1.0 L 1.0,1.0 M 167.5186533520186,130.04999985417896 L 167.18492424456304,130.48492409467048 L 166.7500000040713,130.8186532021263 L 166.2435199987866,131.02844408938586 L 165.70000000407128,131.09999985417898 L 165.15648000935602,131.02844408938608 L 164.65000000407127,130.8186532021263 L 164.21507576357953,130.48492409467048 L 163.88134665612392,130.04999985417913 L 163.67155576886424,129.5435198488941 L 163.60000000407126,128.99999985417878 L 163.67155576886424,128.45647985946368 L 163.88134665612395,127.94999985417913 L 164.21507576357953,127.51507561368707 L 164.65000000407127,127.18134650623158 L 165.15648000935602,126.97155561897186 L 165.70000000407128,126.89999985417911 L 166.2435199987866,126.97155561897175 L 166.7500000040713,127.18134650623158 L 167.18492424456304,127.51507561368707 L 167.5186533520186,127.94999985417913 L 167.7284442392783,128.45647985946363 L 167.8000000040713,128.99999985417878 L 167.7284442392783,129.5435198488941 L 167.5186533520186,130.04999985417896 M 163.67155576886427,10.456479859464409 L 163.88134665612404,9.949999854179296 L 164.21507576357962,9.515075613687102 L 164.65000000407133,9.18134650623243 L 165.15648000935607,8.971555618971948 L 165.70000000407128,8.899999854179569 L 166.24351999878664,8.971555618972062 L 166.7500000040713,9.181346506232458 L 167.1849242445631,9.515075613687756 L 167.51865335201865,9.949999854179694 L 167.7284442392784,10.456479859464125 L 167.8000000040713,10.999999854179336 L 167.72844423927836,11.543519848894945 L 167.51865335201865,12.049999854179518 L 167.1849242445631,12.484924094671285 L 166.7500000040713,12.818653202126754 L 166.24351999878664,13.028444089386753 L 165.70000000407134,13.099999854179359 L 165.15648000935607,13.028444089386213 L 164.65000000407133,12.818653202126612 L 164.2150757635796,12.484924094671257 L 163.88134665612404,12.04999985417929 L 163.6715557688643,11.543519848894832 L 163.60000000407135,10.999999854179507 L 163.67155576886427,10.456479859464409 M 24.100000000273916,10.999999913743224 L 24.02844423548097,11.54351990845852 L 23.81865334822124,12.049999913743235 L 23.48492424076567,12.484924154234974 L 23.050000000273926,12.8186532616905 L 22.543519994989225,13.028444148950243 L 22.00000000027392,13.099999913743218 L 21.45648000555864,13.028444148950271 L 20.950000000273924,12.818653261690585 L 20.515075759782178,12.484924154234974 L 20.18134665232661,12.049999913743207 L 19.971555765066896,11.54351990845852 L 19.900000000273927,10.999999913743252 L 19.971555765066896,10.456479919027927 L 20.18134665232661,9.949999913743213 L 20.515075759782178,9.515075673251502 L 20.950000000273924,9.18134656579592 L 21.45648000555864,8.971555678536177 L 22.00000000027392,8.899999913743173 L 22.54351999498921,8.971555678536205 L 23.050000000273926,9.181346565795891 L 23.48492424076567,9.515075673251474 L 23.81865334822124,9.949999913743213 L 24.028444235480954,10.456479919027927 L 24.100000000273916,10.999999913743224 M 20.181346652420473,59.02189822717203 L 20.51507575987604,58.58697398668032 L 20.950000000367787,58.25324487922474 L 21.456480005652494,58.04345399196497 L 22.000000000367784,57.97189822717199 L 22.54351999508308,58.04345399196497 L 23.050000000367774,58.25324487922474 L 23.484924240859527,58.58697398668029 L 23.818653348315095,59.02189822717203 L 24.028444235574824,59.528378232456745 L 24.10000000036777,60.07189822717204 L 24.028444235574824,60.61541822188731 L 23.81865334831511,61.12189822717205 L 23.484924240859527,61.556822467663764 L 23.05000000036778,61.8905515751194 L 22.54351999508308,62.10034246237906 L 22.00000000036777,62.171898227172036 L 21.456480005652487,62.10034246237906 L 20.950000000367787,61.890551575119375 L 20.51507575987604,61.556822467663764 L 20.18134665242046,61.121898227172025 L 19.971555765160744,60.61541822188734 L 19.90000000036779,60.071898227172014 L 19.971555765160744,59.528378232456745 L 20.181346652420473,59.02189822717203 M 20.46619609136166,37.164024347759906 L 20.000000000289788,37.5113544346933 L 20.000000000305803,45.53589822715968 L 19.795554958043326,47.08881249777524 L 19.196152423018454,48.53589822716127 L 18.242640687433585,49.778538914282464 L 17.000000000316213,50.732050649872306 L 15.55291427093254,51.33145318490297 L 14.000000000317819,51.53589822717164 L 12.447085729702287,51.33145318490919 L 11.00000000031622,50.7320506498843 L 9.757359313195053,49.77853891429946 L 8.803847577605211,48.535898227182074 L 8.204445042574548,47.0888124977984 L 8.00000000030586,45.535898227183665 L 8.000000000289802,37.51624150357601 L 7.718633288986652,37.316928508460435 L 6.792942056042747,36.46830875948258 L 5.980910432167107,35.51036075518884 L 5.295344641152425,34.45819190785737 L 4.74705646506014,33.328395548745746 L 4.344692735958716,32.138789241344895 L 4.094598970216538,30.908133787758757 L 4.000719295918103,29.655837359648316 L 4.064534251608123,28.401649419770607 L 4.285037437314173,27.165349261153025 L 4.658751386075394,25.966434075826797 L 5.17978240567399,24.823811472461855 L 5.839913525682007,23.755501292082855 L 6.628734083993734,22.77835142441195 L 7.533803909186005,21.907772106583437 L 8.54084950945304,21.157492894498162 L 9.633989174098744,20.53934613952596 L 10.795983437601699,20.06308038525559 L 12.008506956284705,19.736206627139367 L 13.252437509931688,19.56387985960764 L 14.50815757062356,19.548817778727468 L 15.755863682872402,19.691257922511866 L 16.975878775944544,19.988953924803823 L 18.14896248302054,20.43721094181224 L 19.256614573273566,21.028959692603095 L 20.28136671156105,21.75486794588285 L 21.207057944504953,22.603487694860704 L 22.019089568380593,23.561435699154444 L 22.704655359395275,24.613604546485888 L 23.25294353548756,25.743400905597568 L 23.655307264588977,26.93300721299842 L 23.905401030331163,28.163662666584585 L 23.999280704629577,29.41595909469497 L 23.93546574893955,30.670147034572707 L 23.71496256323352,31.906447193190317 L 23.341248614472278,33.10536237851646 L 22.820217594873682,34.24798498188146 L 22.160086474865665,35.31629516226046 L 21.37126591655393,36.293445029931334 L 20.46619609136166,37.164024347759906 M 21.650426913385367,127.87035779379981 L 21.886562838794845,128.3360113285426 L 21.994132624451822,128.8469145785823 L 21.965805567231193,129.3682503317363 L 21.80351210926989,129.86449041797528 L 21.518312281525382,130.30181689549744 L 21.129641980943404,130.65042668757593 L 20.663988446200634,130.88656261298541 L 20.153085196160887,130.99413239864236 L 19.631749443006854,130.9658053414218 L 19.135509356767933,130.8035118834605 L 18.698182879245763,130.51831205571597 L 18.349573087167315,130.1296417551339 L 18.113437161757837,129.66398822039116 L 18.00586737610086,129.15308497035147 L 18.03419443332149,128.6317492171974 L 18.19648789128278,128.1355091309585 L 18.4816877190273,127.69818265343635 L 18.870358019609263,127.34957286135783 L 19.33601155435207,127.11343693594837 L 19.846914804391808,127.00586715029142 L 20.36825055754582,127.03419420751207 L 20.864490643784748,127.19648766547336 L 21.30181712130691,127.4816874932179 L 21.650426913385367,127.87035779379981 "
  />
  <path id="face0-interior"
 style="fill:none;stroke:#FF0000;stroke-width:0.1;stroke-miterlimit:4;stroke-dasharray:none;stroke-linejoin:round;stroke-linecap:round"
        d="M 1.0,1.0 M 1.0000000001339373,67.99999984231029 M 19.00000000013398,67.99999984231043 M 19.517638090339148,68.06814818973125 M 20.000000000134506,68.26794903473952 M 20.41421356250823,68.58578627993451 M 20.732050807704823,68.99999984230702 M 20.931851652715032,69.48236175210151 M 21.000000000137945,69.9999998423064 M 21.00000000023185,116.9999999822525 M 20.982889723191867,117.26105236685409 M 20.931851653192965,117.517638072803 M 20.84775906576421,117.76536684752669 M 20.732050808393005,117.99999998300136 M 20.58670668144559,118.21752284122196 M 20.41421356323385,118.41421354577163 M 20.217522858837853,118.58670666415814 M 20.00000000074651,118.73205079129902 M 19.765366865374745,118.84775904887887 M 19.517638090725846,118.93185163652798 M 19.261052384822257,118.9828897067551 M 19.000000000235886,118.99999998402713 M 1.0000000002359002,118.99999998402721 M 1.000000000275847,139.00000000000063 M 178.70000000407128,138.99999984230976 M 178.70000000407128,1.0 M 167.5186533520186,130.04999985417896 M 167.18492424456304,130.48492409467048 M 166.7500000040713,130.8186532021263 M 166.2435199987866,131.02844408938586 M 165.70000000407128,131.09999985417898 M 165.15648000935602,131.02844408938608 M 164.65000000407127,130.8186532021263 M 164.21507576357953,130.48492409467048 M 163.88134665612392,130.04999985417913 M 163.67155576886424,129.5435198488941 M 163.60000000407126,128.99999985417878 M 163.67155576886424,128.45647985946368 M 163.88134665612395,127.94999985417913 M 164.21507576357953,127.51507561368707 M 164.65000000407127,127.18134650623158 M 165.15648000935602,126.97155561897186 M 165.70000000407128,126.89999985417911 M 166.2435199987866,126.97155561897175 M 166.7500000040713,127.18134650623158 M 167.18492424456304,127.51507561368707 M 167.5186533520186,127.94999985417913 M 167.7284442392783,128.45647985946363 M 167.8000000040713,128.99999985417878 M 167.7284442392783,129.5435198488941 M 163.67155576886427,10.456479859464409 M 163.88134665612404,9.949999854179296 M 164.21507576357962,9.515075613687102 M 164.65000000407133,9.18134650623243 M 165.15648000935607,8.971555618971948 M 165.70000000407128,8.899999854179569 M 166.24351999878664,8.971555618972062 M 166.7500000040713,9.181346506232458 M 167.1849242445631,9.515075613687756 M 167.51865335201865,9.949999854179694 M 167.7284442392784,10.456479859464125 M 167.8000000040713,10.999999854179336 M 167.72844423927836,11.543519848894945 M 167.51865335201865,12.049999854179518 M 167.1849242445631,12.484924094671285 M 166.7500000040713,12.818653202126754 M 166.24351999878664,13.028444089386753 M 165.70000000407134,13.099999854179359 M 165.15648000935607,13.028444089386213 M 164.65000000407133,12.818653202126612 M 164.2150757635796,12.484924094671257 M 163.88134665612404,12.04999985417929 M 163.6715557688643,11.543519848894832 M 163.60000000407135,10.999999854179507 M 24.100000000273916,10.999999913743224 M 24.02844423548097,11.54351990845852 M 23.81865334822124,12.049999913743235 M 23.48492424076567,12.484924154234974 M 23.050000000273926,12.8186532616905 M 22.543519994989225,13.028444148950243 M 22.00000000027392,13.099999913743218 M 21.45648000555864,13.028444148950271 M 20.950000000273924,12.818653261690585 M 20.515075759782178,12.484924154234974 M 20.18134665232661,12.049999913743207 M 19.971555765066896,11.54351990845852 M 19.900000000273927,10.999999913743252 M 19.971555765066896,10.456479919027927 M 20.18134665232661,9.949999913743213 M 20.515075759782178,9.515075673251502 M 20.950000000273924,9.18134656579592 M 21.45648000555864,8.971555678536177 M 22.00000000027392,8.899999913743173 M 22.54351999498921,8.971555678536205 M 23.050000000273926,9.181346565795891 M 23.48492424076567,9.515075673251474 M 23.81865334822124,9.949999913743213 M 24.028444235480954,10.456479919027927 M 20.181346652420473,59.02189822717203 M 20.51507575987604,58.58697398668032 M 20.950000000367787,58.25324487922474 M 21.456480005652494,58.04345399196497 M 22.000000000367784,57.97189822717199 M 22.54351999508308,58.04345399196497 M 23.050000000367774,58.25324487922474 M 23.484924240859527,58.58697398668029 M 23.818653348315095,59.02189822717203 M 24.028444235574824,59.528378232456745 M 24.10000000036777,60.07189822717204 M 24.028444235574824,60.61541822188731 M 23.81865334831511,61.12189822717205 M 23.484924240859527,61.556822467663764 M 23.05000000036778,61.8905515751194 M 22.54351999508308,62.10034246237906 M 22.00000000036777,62.171898227172036 M 21.456480005652487,62.10034246237906 M 20.950000000367787,61.890551575119375 M 20.51507575987604,61.556822467663764 M 20.18134665242046,61.121898227172025 M 19.971555765160744,60.61541822188734 M 19.90000000036779,60.071898227172014 M 19.971555765160744,59.528378232456745 M 20.46619609136166,37.164024347759906 M 20.000000000289788,37.5113544346933 M 20.000000000305803,45.53589822715968 M 19.795554958043326,47.08881249777524 M 19.196152423018454,48.53589822716127 M 18.242640687433585,49.778538914282464 M 17.000000000316213,50.732050649872306 M 15.55291427093254,51.33145318490297 M 14.000000000317819,51.53589822717164 M 12.447085729702287,51.33145318490919 M 11.00000000031622,50.7320506498843 M 9.757359313195053,49.77853891429946 M 8.803847577605211,48.535898227182074 M 8.204445042574548,47.0888124977984 M 8.00000000030586,45.535898227183665 M 8.000000000289802,37.51624150357601 M 7.718633288986652,37.316928508460435 M 6.792942056042747,36.46830875948258 M 5.980910432167107,35.51036075518884 M 5.295344641152425,34.45819190785737 M 4.74705646506014,33.328395548745746 M 4.344692735958716,32.138789241344895 M 4.094598970216538,30.908133787758757 M 4.000719295918103,29.655837359648316 M 4.064534251608123,28.401649419770607 M 4.285037437314173,27.165349261153025 M 4.658751386075394,25.966434075826797 M 5.17978240567399,24.823811472461855 M 5.839913525682007,23.755501292082855 M 6.628734083993734,22.77835142441195 M 7.533803909186005,21.907772106583437 M 8.54084950945304,21.157492894498162 M 9.633989174098744,20.53934613952596 M 10.795983437601699,20.06308038525559 M 12.008506956284705,19.736206627139367 M 13.252437509931688,19.56387985960764 M 14.50815757062356,19.548817778727468 M 15.755863682872402,19.691257922511866 M 16.975878775944544,19.988953924803823 M 18.14896248302054,20.43721094181224 M 19.256614573273566,21.028959692603095 M 20.28136671156105,21.75486794588285 M 21.207057944504953,22.603487694860704 M 22.019089568380593,23.561435699154444 M 22.704655359395275,24.613604546485888 M 23.25294353548756,25.743400905597568 M 23.655307264588977,26.93300721299842 M 23.905401030331163,28.163662666584585 M 23.999280704629577,29.41595909469497 M 23.93546574893955,30.670147034572707 M 23.71496256323352,31.906447193190317 M 23.341248614472278,33.10536237851646 M 22.820217594873682,34.24798498188146 M 22.160086474865665,35.31629516226046 M 21.37126591655393,36.293445029931334 M 21.650426913385367,127.87035779379981 M 21.886562838794845,128.3360113285426 M 21.994132624451822,128.8469145785823 M 21.965805567231193,129.3682503317363 M 21.80351210926989,129.86449041797528 M 21.518312281525382,130.30181689549744 M 21.129641980943404,130.65042668757593 M 20.663988446200634,130.88656261298541 M 20.153085196160887,130.99413239864236 M 19.631749443006854,130.9658053414218 M 19.135509356767933,130.8035118834605 M 18.698182879245763,130.51831205571597 M 18.349573087167315,130.1296417551339 M 18.113437161757837,129.66398822039116 M 18.00586737610086,129.15308497035147 M 18.03419443332149,128.6317492171974 M 18.19648789128278,128.1355091309585 M 18.4816877190273,127.69818265343635 M 18.870358019609263,127.34957286135783 M 19.33601155435207,127.11343693594837 M 19.846914804391808,127.00586715029142 M 20.36825055754582,127.03419420751207 M 20.864490643784748,127.19648766547336 M 21.30181712130691,127.4816874932179 "
  />
  <path id="face0-interior"
 style="fill:none;stroke:#FF0000;stroke-width:0.1;stroke-miterlimit:4;stroke-dasharray:none;stroke-linejoin:round;stroke-linecap:round"
        d="M 1.0,1.0 M 1.0000000001339373,67.99999984231029 M 19.00000000013398,67.99999984231043 M 19.517638090339148,68.06814818973125 M 20.000000000134506,68.26794903473952 M 20.41421356250823,68.58578627993451 M 20.732050807704823,68.99999984230702 M 20.931851652715032,69.48236175210151 M 21.000000000137945,69.9999998423064 M 21.00000000023185,116.9999999822525 M 20.982889723191867,117.26105236685409 M 20.931851653192965,117.517638072803 M 20.84775906576421,117.76536684752669 M 20.732050808393005,117.99999998300136 M 20.58670668144559,118.21752284122196 M 20.41421356323385,118.41421354577163 M 20.217522858837853,118.58670666415814 M 20.00000000074651,118.73205079129902 M 19.765366865374745,118.84775904887887 M 19.517638090725846,118.93185163652798 M 19.261052384822257,118.9828897067551 M 19.000000000235886,118.99999998402713 M 1.0000000002359002,118.99999998402721 M 1.000000000275847,139.00000000000063 M 178.70000000407128,138.99999984230976 M 178.70000000407128,1.0 M 167.5186533520186,130.04999985417896 M 167.18492424456304,130.48492409467048 M 166.7500000040713,130.8186532021263 M 166.2435199987866,131.02844408938586 M 165.70000000407128,131.09999985417898 M 165.15648000935602,131.02844408938608 M 164.65000000407127,130.8186532021263 M 164.21507576357953,130.48492409467048 M 163.88134665612392,130.04999985417913 M 163.67155576886424,129.5435198488941 M 163.60000000407126,128.99999985417878 M 163.67155576886424,128.45647985946368 M 163.88134665612395,127.94999985417913 M 164.21507576357953,127.51507561368707 M 164.65000000407127,127.18134650623158 M 165.15648000935602,126.97155561897186 M 165.70000000407128,126.89999985417911 M 166.2435199987866,126.97155561897175 M 166.7500000040713,127.18134650623158 M 167.18492424456304,127.51507561368707 M 167.5186533520186,127.94999985417913 M 167.7284442392783,128.45647985946363 M 167.8000000040713,128.99999985417878 M 167.7284442392783,129.5435198488941 M 163.67155576886427,10.456479859464409 M 163.88134665612404,9.949999854179296 M 164.21507576357962,9.515075613687102 M 164.65000000407133,9.18134650623243 M 165.15648000935607,8.971555618971948 M 165.70000000407128,8.899999854179569 M 166.24351999878664,8.971555618972062 M 166.7500000040713,9.181346506232458 M 167.1849242445631,9.515075613687756 M 167.51865335201865,9.949999854179694 M 167.7284442392784,10.456479859464125 M 167.8000000040713,10.999999854179336 M 167.72844423927836,11.543519848894945 M 167.51865335201865,12.049999854179518 M 167.1849242445631,12.484924094671285 M 166.7500000040713,12.818653202126754 M 166.24351999878664,13.028444089386753 M 165.70000000407134,13.099999854179359 M 165.15648000935607,13.028444089386213 M 164.65000000407133,12.818653202126612 M 164.2150757635796,12.484924094671257 M 163.88134665612404,12.04999985417929 M 163.6715557688643,11.543519848894832 M 163.60000000407135,10.999999854179507 M 24.100000000273916,10.999999913743224 M 24.02844423548097,11.54351990845852 M 23.81865334822124,12.049999913743235 M 23.48492424076567,12.484924154234974 M 23.050000000273926,12.8186532616905 M 22.543519994989225,13.028444148950243 M 22.00000000027392,13.099999913743218 M 21.45648000555864,13.028444148950271 M 20.950000000273924,12.818653261690585 M 20.515075759782178,12.484924154234974 M 20.18134665232661,12.049999913743207 M 19.971555765066896,11.54351990845852 M 19.900000000273927,10.999999913743252 M 19.971555765066896,10.456479919027927 M 20.18134665232661,9.949999913743213 M 20.515075759782178,9.515075673251502 M 20.950000000273924,9.18134656579592 M 21.45648000555864,8.971555678536177 M 22.00000000027392,8.899999913743173 M 22.54351999498921,8.971555678536205 M 23.050000000273926,9.181346565795891 M 23.48492424076567,9.515075673251474 M 23.81865334822124,9.949999913743213 M 24.028444235480954,10.456479919027927 M 20.181346652420473,59.02189822717203 M 20.51507575987604,58.58697398668032 M 20.950000000367787,58.25324487922474 M 21.456480005652494,58.04345399196497 M 22.000000000367784,57.97189822717199 M 22.54351999508308,58.04345399196497 M 23.050000000367774,58.25324487922474 M 23.484924240859527,58.58697398668029 M 23.818653348315095,59.02189822717203 M 24.028444235574824,59.528378232456745 M 24.10000000036777,60.07189822717204 M 24.028444235574824,60.61541822188731 M 23.81865334831511,61.12189822717205 M 23.484924240859527,61.556822467663764 M 23.05000000036778,61.8905515751194 M 22.54351999508308,62.10034246237906 M 22.00000000036777,62.171898227172036 M 21.456480005652487,62.10034246237906 M 20.950000000367787,61.890551575119375 M 20.51507575987604,61.556822467663764 M 20.18134665242046,61.121898227172025 M 19.971555765160744,60.61541822188734 M 19.90000000036779,60.071898227172014 M 19.971555765160744,59.528378232456745 M 20.46619609136166,37.164024347759906 M 20.000000000289788,37.5113544346933 M 20.000000000305803,45.53589822715968 M 19.795554958043326,47.08881249777524 M 19.196152423018454,48.53589822716127 M 18.242640687433585,49.778538914282464 M 17.000000000316213,50.732050649872306 M 15.55291427093254,51.33145318490297 M 14.000000000317819,51.53589822717164 M 12.447085729702287,51.33145318490919 M 11.00000000031622,50.7320506498843 M 9.757359313195053,49.77853891429946 M 8.803847577605211,48.535898227182074 M 8.204445042574548,47.0888124977984 M 8.00000000030586,45.535898227183665 M 8.000000000289802,37.51624150357601 M 7.718633288986652,37.316928508460435 M 6.792942056042747,36.46830875948258 M 5.980910432167107,35.51036075518884 M 5.295344641152425,34.45819190785737 M 4.74705646506014,33.328395548745746 M 4.344692735958716,32.138789241344895 M 4.094598970216538,30.908133787758757 M 4.000719295918103,29.655837359648316 M 4.064534251608123,28.401649419770607 M 4.285037437314173,27.165349261153025 M 4.658751386075394,25.966434075826797 M 5.17978240567399,24.823811472461855 M 5.839913525682007,23.755501292082855 M 6.628734083993734,22.77835142441195 M 7.533803909186005,21.907772106583437 M 8.54084950945304,21.157492894498162 M 9.633989174098744,20.53934613952596 M 10.795983437601699,20.06308038525559 M 12.008506956284705,19.736206627139367 M 13.252437509931688,19.56387985960764 M 14.50815757062356,19.548817778727468 M 15.755863682872402,19.691257922511866 M 16.975878775944544,19.988953924803823 M 18.14896248302054,20.43721094181224 M 19.256614573273566,21.028959692603095 M 20.28136671156105,21.75486794588285 M 21.207057944504953,22.603487694860704 M 22.019089568380593,23.561435699154444 M 22.704655359395275,24.613604546485888 M 23.25294353548756,25.743400905597568 M 23.655307264588977,26.93300721299842 M 23.905401030331163,28.163662666584585 M 23.999280704629577,29.41595909469497 M 23.93546574893955,30.670147034572707 M 23.71496256323352,31.906447193190317 M 23.341248614472278,33.10536237851646 M 22.820217594873682,34.24798498188146 M 22.160086474865665,35.31629516226046 M 21.37126591655393,36.293445029931334 M 21.650426913385367,127.87035779379981 M 21.886562838794845,128.3360113285426 M 21.994132624451822,128.8469145785823 M 21.965805567231193,129.3682503317363 M 21.80351210926989,129.86449041797528 M 21.518312281525382,130.30181689549744 M 21.129641980943404,130.65042668757593 M 20.663988446200634,130.88656261298541 M 20.153085196160887,130.99413239864236 M 19.631749443006854,130.9658053414218 M 19.135509356767933,130.8035118834605 M 18.698182879245763,130.51831205571597 M 18.349573087167315,130.1296417551339 M 18.113437161757837,129.66398822039116 M 18.00586737610086,129.15308497035147 M 18.03419443332149,128.6317492171974 M 18.19648789128278,128.1355091309585 M 18.4816877190273,127.69818265343635 M 18.870358019609263,127.34957286135783 M 19.33601155435207,127.11343693594837 M 19.846914804391808,127.00586715029142 M 20.36825055754582,127.03419420751207 M 20.864490643784748,127.19648766547336 M 21.30181712130691,127.4816874932179 "
  />
</svg>
