<?xml version="1.0" standalone="no"?>
<!DOCTYPE svg PUBLIC "-//W3C//DTD SVG 1.1//EN" "http://www.w3.org/Graphics/SVG/1.1/DTD/svg11.dtd">
<svg width="177.70000000407126mm" height="138.00000000000048mm"
 viewBox="0 0 177.70000000407126 138.00000000000048"
 xmlns="http://www.w3.org/2000/svg" version="1.1"
 xmlns:xlink="http://www.w3.org/1999/xlink">
<desc>Output from Flights of Ideas SVG Sketchup Plugin</desc>

  <path id="face0-cut"
 style="fill:none;stroke:#FF0000;stroke-width:0.1;stroke-miterlimit:4;stroke-dasharray:none;stroke-linejoin:round;stroke-linecap:round"
        d="M 0.0,0.0 L 3.9960923459148034e-11,19.999999842310263 L 18.00000000004397,19.99999984231027 L 18.26105238448406,20.01711011956266 L 18.517638090249022,20.068148189732135 L 18.765366864774165,20.152240777287712 L 19.000000000043997,20.267949034741374 L 19.217522858061415,20.41329316172785 L 19.414213562417103,20.58578627993721 L 19.58670668062649,20.782476984292867 L 19.732050807612893,20.999999842310253 L 19.847759065066583,21.234632977580105 L 19.931851652622157,21.482361752105295 L 19.98288972279164,21.73894745787024 L 20.000000000044025,21.99999984231029 L 20.000000000231836,115.9999999822525 L 19.982889723191875,116.26105236685414 L 19.93185165319295,116.5176380728031 L 19.847759065764194,116.76536684752676 L 19.732050808393012,116.99999998300142 L 19.586706681445577,117.21752284122206 L 19.414213563233858,117.4142135457714 L 19.21752285883781,117.58670666415819 L 19.000000000746496,117.73205079129899 L 18.765366865374716,117.84775904887898 L 18.517638090725853,117.93185163652804 L 18.26105238482225,117.98288970675509 L 18.00000000023587,117.9999999840272 L 2.3590018827235326e-10,117.9999999840273 L 2.758611117315013e-10,138.00000000000048 L 177.70000000407126,137.99999984230976 L 177.70000000407126,0.0 L 0.0,0.0 M 166.51865335201856,129.04999985417894 L 166.18492424456306,129.48492409467065 L 165.75000000407127,129.81865320212626 L 165.24351999878652,130.02844408938597 L 164.7000000040712,130.09999985417883 L 164.156480009356,130.02844408938606 L 163.6500000040713,129.81865320212637 L 163.2150757635795,129.48492409467065 L 162.8813466561239,129.04999985417896 L 162.67155576886424,128.54351984889428 L 162.60000000407123,127.99999985417891 L 162.67155576886418,127.45647985946367 L 162.8813466561239,126.94999985417887 L 163.2150757635795,126.51507561368719 L 163.6500000040713,126.1813465062316 L 164.156480009356,125.97155561897203 L 164.7000000040712,125.89999985417892 L 165.24351999878652,125.97155561897192 L 165.75000000407127,126.1813465062316 L 166.184924244563,126.51507561368722 L 166.51865335201862,126.94999985417893 L 166.72844423927828,127.45647985946364 L 166.80000000407128,127.99999985417888 L 166.72844423927828,128.54351984889428 L 166.51865335201856,129.04999985417894 M 162.67155576886424,9.456479859464398 L 162.881346656124,8.949999854179293 L 163.21507576357962,8.515075613687443 L 163.6500000040713,8.181346506232428 L 164.156480009356,7.971555618972328 L 164.7000000040713,7.899999854179935 L 165.24351999878664,7.971555618972436 L 165.75000000407132,8.181346506232085 L 166.18492424456306,8.51507561368775 L 166.51865335201862,8.949999854179342 L 166.72844423927833,9.456479859464444 L 166.80000000407128,9.999999854179643 L 166.72844423927833,10.543519848894649 L 166.51865335201862,11.049999854179212 L 166.18492424456306,11.484924094671289 L 165.75000000407127,11.818653202126757 L 165.24351999878658,12.028444089386742 L 164.7000000040713,12.099999854179343 L 164.156480009356,12.028444089386717 L 163.6500000040713,11.818653202126866 L 163.21507576357962,11.484924094671257 L 162.881346656124,11.049999854179266 L 162.6715557688643,10.54351984889484 L 162.60000000407135,9.99999985417952 L 162.67155576886424,9.456479859464398 M 17.071555764812956,9.456479919027945 L 17.28134665207267,8.949999913743236 L 17.615075759528253,8.515075673251472 L 18.050000000019992,8.18134656579591 L 18.556480005304678,7.971555678536191 L 19.100000000020003,7.899999913743246 L 19.6435199947353,7.971555678536186 L 20.150000000019986,8.181346565795929 L 20.584924240511725,8.51507567325148 L 20.918653347967307,8.949999913743254 L 21.128444235227022,9.456479919027966 L 21.200000000019998,9.99999991374323 L 21.128444235227022,10.543519908458542 L 20.91865334796728,11.049999913743246 L 20.584924240511725,11.484924154234992 L 20.150000000019986,11.818653261690578 L 19.64351999473527,12.028444148950284 L 19.100000000019975,12.099999913743236 L 18.556480005304678,12.028444148950298 L 18.050000000019992,11.81865326169058 L 17.615075759528224,11.48492415423499 L 17.28134665207267,11.049999913743227 L 17.071555764812956,10.543519908458519 L 17.00000000001998,9.999999913743215 L 17.071555764812956,9.456479919027945 M 17.281346651376793,126.94999998681836 L 17.61507575844641,126.51507574603049 L 18.049999998641994,126.18134663818894 L 18.556480003740546,125.97155575047974 L 19.09999999839232,125.8999999852045 L 19.64351999317114,125.9715557495151 L 20.149999998642016,126.18134663632539 L 20.58492423942991,126.51507574339503 L 20.918653347271402,126.94999998359062 L 21.128444234980577,127.45647998868914 L 21.200000000255898,127.99999998334091 L 21.12844423594521,128.54351997811975 L 20.918653349134985,129.04999998359062 L 20.58492424206537,129.4849242243785 L 20.150000001869756,129.81865333222004 L 19.643519996771204,130.02844421992924 L 19.1000000021194,130.09999998520453 L 18.55648000734061,130.02844422089385 L 18.050000001869762,129.8186533340836 L 17.61507576108187,129.48492422701398 L 17.28134665324032,129.04999998681834 L 17.071555765531144,128.54351998171987 L 17.00000000025588,127.99999998706802 L 17.07155576456654,127.45647999228926 L 17.281346651376793,126.94999998681836 "
  />
  <path id="face0-interior"
 style="fill:none;stroke:#FF0000;stroke-width:0.1;stroke-miterlimit:4;stroke-dasharray:none;stroke-linejoin:round;stroke-linecap:round"
        d="M 0.0,0.0 M 3.9960923459148034e-11,19.999999842310263 M 18.00000000004397,19.99999984231027 M 18.26105238448406,20.01711011956266 M 18.517638090249022,20.068148189732135 M 18.765366864774165,20.152240777287712 M 19.000000000043997,20.267949034741374 M 19.217522858061415,20.41329316172785 M 19.414213562417103,20.58578627993721 M 19.58670668062649,20.782476984292867 M 19.732050807612893,20.999999842310253 M 19.847759065066583,21.234632977580105 M 19.931851652622157,21.482361752105295 M 19.98288972279164,21.73894745787024 M 20.000000000044025,21.99999984231029 M 20.000000000231836,115.9999999822525 M 19.982889723191875,116.26105236685414 M 19.93185165319295,116.5176380728031 M 19.847759065764194,116.76536684752676 M 19.732050808393012,116.99999998300142 M 19.586706681445577,117.21752284122206 M 19.414213563233858,117.4142135457714 M 19.21752285883781,117.58670666415819 M 19.000000000746496,117.73205079129899 M 18.765366865374716,117.84775904887898 M 18.517638090725853,117.93185163652804 M 18.26105238482225,117.98288970675509 M 18.00000000023587,117.9999999840272 M 2.3590018827235326e-10,117.9999999840273 M 2.758611117315013e-10,138.00000000000048 M 177.70000000407126,137.99999984230976 M 177.70000000407126,0.0 M 166.51865335201856,129.04999985417894 M 166.18492424456306,129.48492409467065 M 165.75000000407127,129.81865320212626 M 165.24351999878652,130.02844408938597 M 164.7000000040712,130.09999985417883 M 164.156480009356,130.02844408938606 M 163.6500000040713,129.81865320212637 M 163.2150757635795,129.48492409467065 M 162.8813466561239,129.04999985417896 M 162.67155576886424,128.54351984889428 M 162.60000000407123,127.99999985417891 M 162.67155576886418,127.45647985946367 M 162.8813466561239,126.94999985417887 M 163.2150757635795,126.51507561368719 M 163.6500000040713,126.1813465062316 M 164.156480009356,125.97155561897203 M 164.7000000040712,125.89999985417892 M 165.24351999878652,125.97155561897192 M 165.75000000407127,126.1813465062316 M 166.184924244563,126.51507561368722 M 166.51865335201862,126.94999985417893 M 166.72844423927828,127.45647985946364 M 166.80000000407128,127.99999985417888 M 166.72844423927828,128.54351984889428 M 162.67155576886424,9.456479859464398 M 162.881346656124,8.949999854179293 M 163.21507576357962,8.515075613687443 M 163.6500000040713,8.181346506232428 M 164.156480009356,7.971555618972328 M 164.7000000040713,7.899999854179935 M 165.24351999878664,7.971555618972436 M 165.75000000407132,8.181346506232085 M 166.18492424456306,8.51507561368775 M 166.51865335201862,8.949999854179342 M 166.72844423927833,9.456479859464444 M 166.80000000407128,9.999999854179643 M 166.72844423927833,10.543519848894649 M 166.51865335201862,11.049999854179212 M 166.18492424456306,11.484924094671289 M 165.75000000407127,11.818653202126757 M 165.24351999878658,12.028444089386742 M 164.7000000040713,12.099999854179343 M 164.156480009356,12.028444089386717 M 163.6500000040713,11.818653202126866 M 163.21507576357962,11.484924094671257 M 162.881346656124,11.049999854179266 M 162.6715557688643,10.54351984889484 M 162.60000000407135,9.99999985417952 M 17.071555764812956,9.456479919027945 M 17.28134665207267,8.949999913743236 M 17.615075759528253,8.515075673251472 M 18.050000000019992,8.18134656579591 M 18.556480005304678,7.971555678536191 M 19.100000000020003,7.899999913743246 M 19.6435199947353,7.971555678536186 M 20.150000000019986,8.181346565795929 M 20.584924240511725,8.51507567325148 M 20.918653347967307,8.949999913743254 M 21.128444235227022,9.456479919027966 M 21.200000000019998,9.99999991374323 M 21.128444235227022,10.543519908458542 M 20.91865334796728,11.049999913743246 M 20.584924240511725,11.484924154234992 M 20.150000000019986,11.818653261690578 M 19.64351999473527,12.028444148950284 M 19.100000000019975,12.099999913743236 M 18.556480005304678,12.028444148950298 M 18.050000000019992,11.81865326169058 M 17.615075759528224,11.48492415423499 M 17.28134665207267,11.049999913743227 M 17.071555764812956,10.543519908458519 M 17.00000000001998,9.999999913743215 M 17.281346651376793,126.94999998681836 M 17.61507575844641,126.51507574603049 M 18.049999998641994,126.18134663818894 M 18.556480003740546,125.97155575047974 M 19.09999999839232,125.8999999852045 M 19.64351999317114,125.9715557495151 M 20.149999998642016,126.18134663632539 M 20.58492423942991,126.51507574339503 M 20.918653347271402,126.94999998359062 M 21.128444234980577,127.45647998868914 M 21.200000000255898,127.99999998334091 M 21.12844423594521,128.54351997811975 M 20.918653349134985,129.04999998359062 M 20.58492424206537,129.4849242243785 M 20.150000001869756,129.81865333222004 M 19.643519996771204,130.02844421992924 M 19.1000000021194,130.09999998520453 M 18.55648000734061,130.02844422089385 M 18.050000001869762,129.8186533340836 M 17.61507576108187,129.48492422701398 M 17.28134665324032,129.04999998681834 M 17.071555765531144,128.54351998171987 M 17.00000000025588,127.99999998706802 M 17.07155576456654,127.45647999228926 "
  />
  <path id="face0-interior"
 style="fill:none;stroke:#FF0000;stroke-width:0.1;stroke-miterlimit:4;stroke-dasharray:none;stroke-linejoin:round;stroke-linecap:round"
        d="M 0.0,0.0 M 3.9960923459148034e-11,19.999999842310263 M 18.00000000004397,19.99999984231027 M 18.26105238448406,20.01711011956266 M 18.517638090249022,20.068148189732135 M 18.765366864774165,20.152240777287712 M 19.000000000043997,20.267949034741374 M 19.217522858061415,20.41329316172785 M 19.414213562417103,20.58578627993721 M 19.58670668062649,20.782476984292867 M 19.732050807612893,20.999999842310253 M 19.847759065066583,21.234632977580105 M 19.931851652622157,21.482361752105295 M 19.98288972279164,21.73894745787024 M 20.000000000044025,21.99999984231029 M 20.000000000231836,115.9999999822525 M 19.982889723191875,116.26105236685414 M 19.93185165319295,116.5176380728031 M 19.847759065764194,116.76536684752676 M 19.732050808393012,116.99999998300142 M 19.586706681445577,117.21752284122206 M 19.414213563233858,117.4142135457714 M 19.21752285883781,117.58670666415819 M 19.000000000746496,117.73205079129899 M 18.765366865374716,117.84775904887898 M 18.517638090725853,117.93185163652804 M 18.26105238482225,117.98288970675509 M 18.00000000023587,117.9999999840272 M 2.3590018827235326e-10,117.9999999840273 M 2.758611117315013e-10,138.00000000000048 M 177.70000000407126,137.99999984230976 M 177.70000000407126,0.0 M 166.51865335201856,129.04999985417894 M 166.18492424456306,129.48492409467065 M 165.75000000407127,129.81865320212626 M 165.24351999878652,130.02844408938597 M 164.7000000040712,130.09999985417883 M 164.156480009356,130.02844408938606 M 163.6500000040713,129.81865320212637 M 163.2150757635795,129.48492409467065 M 162.8813466561239,129.04999985417896 M 162.67155576886424,128.54351984889428 M 162.60000000407123,127.99999985417891 M 162.67155576886418,127.45647985946367 M 162.8813466561239,126.94999985417887 M 163.2150757635795,126.51507561368719 M 163.6500000040713,126.1813465062316 M 164.156480009356,125.97155561897203 M 164.7000000040712,125.89999985417892 M 165.24351999878652,125.97155561897192 M 165.75000000407127,126.1813465062316 M 166.184924244563,126.51507561368722 M 166.51865335201862,126.94999985417893 M 166.72844423927828,127.45647985946364 M 166.80000000407128,127.99999985417888 M 166.72844423927828,128.54351984889428 M 162.67155576886424,9.456479859464398 M 162.881346656124,8.949999854179293 M 163.21507576357962,8.515075613687443 M 163.6500000040713,8.181346506232428 M 164.156480009356,7.971555618972328 M 164.7000000040713,7.899999854179935 M 165.24351999878664,7.971555618972436 M 165.75000000407132,8.181346506232085 M 166.18492424456306,8.51507561368775 M 166.51865335201862,8.949999854179342 M 166.72844423927833,9.456479859464444 M 166.80000000407128,9.999999854179643 M 166.72844423927833,10.543519848894649 M 166.51865335201862,11.049999854179212 M 166.18492424456306,11.484924094671289 M 165.75000000407127,11.818653202126757 M 165.24351999878658,12.028444089386742 M 164.7000000040713,12.099999854179343 M 164.156480009356,12.028444089386717 M 163.6500000040713,11.818653202126866 M 163.21507576357962,11.484924094671257 M 162.881346656124,11.049999854179266 M 162.6715557688643,10.54351984889484 M 162.60000000407135,9.99999985417952 M 17.071555764812956,9.456479919027945 M 17.28134665207267,8.949999913743236 M 17.615075759528253,8.515075673251472 M 18.050000000019992,8.18134656579591 M 18.556480005304678,7.971555678536191 M 19.100000000020003,7.899999913743246 M 19.6435199947353,7.971555678536186 M 20.150000000019986,8.181346565795929 M 20.584924240511725,8.51507567325148 M 20.918653347967307,8.949999913743254 M 21.128444235227022,9.456479919027966 M 21.200000000019998,9.99999991374323 M 21.128444235227022,10.543519908458542 M 20.91865334796728,11.049999913743246 M 20.584924240511725,11.484924154234992 M 20.150000000019986,11.818653261690578 M 19.64351999473527,12.028444148950284 M 19.100000000019975,12.099999913743236 M 18.556480005304678,12.028444148950298 M 18.050000000019992,11.81865326169058 M 17.615075759528224,11.48492415423499 M 17.28134665207267,11.049999913743227 M 17.071555764812956,10.543519908458519 M 17.00000000001998,9.999999913743215 M 17.281346651376793,126.94999998681836 M 17.61507575844641,126.51507574603049 M 18.049999998641994,126.18134663818894 M 18.556480003740546,125.97155575047974 M 19.09999999839232,125.8999999852045 M 19.64351999317114,125.9715557495151 M 20.149999998642016,126.18134663632539 M 20.58492423942991,126.51507574339503 M 20.918653347271402,126.94999998359062 M 21.128444234980577,127.45647998868914 M 21.200000000255898,127.99999998334091 M 21.12844423594521,128.54351997811975 M 20.918653349134985,129.04999998359062 M 20.58492424206537,129.4849242243785 M 20.150000001869756,129.81865333222004 M 19.643519996771204,130.02844421992924 M 19.1000000021194,130.09999998520453 M 18.55648000734061,130.02844422089385 M 18.050000001869762,129.8186533340836 M 17.61507576108187,129.48492422701398 M 17.28134665324032,129.04999998681834 M 17.071555765531144,128.54351998171987 M 17.00000000025588,127.99999998706802 M 17.07155576456654,127.45647999228926 "
  />
</svg>
