<?xml version="1.0" standalone="no"?>
<!DOCTYPE svg PUBLIC "-//W3C//DTD SVG 1.1//EN" "http://www.w3.org/Graphics/SVG/1.1/DTD/svg11.dtd">
<svg width="132.70000001355402mm" height="132.57822251845843mm"
 viewBox="0 0 132.70000001355402 132.57822251845843"
 xmlns="http://www.w3.org/2000/svg" version="1.1"
 xmlns:xlink="http://www.w3.org/1999/xlink">
<desc>Output from Flights of Ideas SVG Sketchup Plugin</desc>

  <path id="face0-cut"
 style="fill:none;stroke:#FF0000;stroke-width:0.1;stroke-miterlimit:4;stroke-dasharray:none;stroke-linejoin:round;stroke-linecap:round"
        d="M 128.70000182493018,91.28922251753328 L 128.7000017382483,86.28922252092306 L 103.70000173824806,86.28922255249383 L 103.70000168773443,46.289222552493854 L 128.70000168773421,46.289222520923055 L 128.7000016713328,41.289222584208446 L 132.70000000414038,41.289222523426034 L 132.70000001355402,22.289222523489414 L 124.70000001355402,22.289222521258466 L 124.70000001315132,17.289222521258452 L 132.70000001315134,17.2892225234894 L 132.70000000395868,5.000000002145512 L 128.70000168040738,5.000000000732015 L 128.70000168038263,6.4369487517979e-10 L 4.000001823207384,0.0 L 4.000001823233589,4.999999999999986 L 3.9065355394996004e-09,5.000000000019611 L 4.013600118923932e-09,25.00000000269955 L 4.000001823337811,25.00000000267825 L 4.000001823461588,56.28922251835677 L 1.82346158794644e-06,56.28922251931513 L 1.8310126961296191e-06,76.28922252444765 L 4.000001831012668,76.28922252348937 L 4.000001823740007,107.57822252112794 L 0.0,107.57822252114795 L 9.811174095375463e-11,127.57822251847782 L 4.000001823843633,127.5782225184584 L 4.000001823868047,132.57822251845843 L 128.70000179660664,132.57822250759355 L 128.7000017965816,127.57822250722032 L 132.70000000393665,127.57822250576666 L 132.69999904598376,115.28922252348951 L 124.69999904598379,115.28922173687411 L 124.69999944025214,110.28922173687445 L 132.6999994402521,110.28922252348985 L 132.70000000375543,91.28922251753328 L 128.70000182493018,91.28922251753328 M 12.000001832064527,127.63911049809477 L 11.560009455389945,127.58118440278831 L 11.150001832063339,127.41135368453246 L 10.797920304045135,127.1411920261177 L 10.527758645627017,126.78911049810198 L 10.357927927367172,126.379102874777 L 10.300001832056665,125.93911049810298 L 10.357927927362937,125.49911812142858 L 10.527758645618803,125.08911049810196 L 10.79792030403351,124.73702897008351 L 11.150001832049327,124.46686731166535 L 11.560009455374257,124.29703659340558 L 12.000001832048099,124.23911049809493 L 12.439994208722766,124.29703659340136 L 12.850001832049259,124.46686731165732 L 13.20208336006769,124.73702897007192 L 13.472245018485808,125.08911049808776 L 13.642075736745596,125.49911812141264 L 13.700001832056529,125.93911049808665 L 13.642075736749831,126.3791028747612 L 13.472245018493965,126.78911049808761 L 13.202083360079286,127.14119202610608 L 12.85000183206327,127.4113536845243 L 12.439994208738483,127.58118440278403 L 12.000001832064527,127.63911049809477 M 12.00000183143294,8.339110498094982 L 11.560009454758273,8.28118440278844 L 11.150001831431751,8.111353684532617 L 10.79792030341352,7.841192026117852 L 10.527758644995316,7.489110498102079 L 10.357927926735556,7.079102874777178 L 10.300001831424623,6.639110498103165 L 10.357927926731122,6.199118121428597 L 10.527758644986989,5.789110498102076 L 10.797920303401725,5.437028970083645 L 11.150001831417342,5.16686731166547 L 11.560009454742527,4.997036593405639 L 12.000001831416569,4.939110498094976 L 12.439994208091093,4.9970365934014325 L 12.85000183141733,5.166867311657327 L 13.202083359436045,5.4370289700720065 L 13.472245017854078,5.789110498087837 L 13.642075736113924,6.199118121412724 L 13.700001831424629,6.639110498086708 L 13.642075736118358,7.079102874761318 L 13.472245017862377,7.4891104980877685 L 13.202083359447698,7.841192026106313 L 12.850001831431769,8.111353684524389 L 12.439994208106839,8.281184402784206 L 12.00000183143294,8.339110498094982 M 30.957927926735664,7.079102874677702 L 30.900001831424547,6.639110498003731 L 30.957927926731173,6.199118121329107 L 31.12775864498728,5.789110498002572 L 31.39792030340179,5.437028969984198 L 31.750001831417407,5.166867311566065 L 32.160009454742536,4.997036593306262 L 32.600001831416506,4.9391104979955145 L 33.03999420809107,4.997036593302013 L 33.450001831417424,5.16686731155788 L 33.80208335943608,5.437028969972573 L 34.072245017854385,5.789110497988403 L 34.24207573611403,6.199118121313305 L 34.30000183142457,6.639110497987318 L 34.24207573611852,7.079102874661871 L 34.072245017862414,7.489110497988378 L 33.802083359447906,7.841192026006794 L 33.450001831431834,8.111353684424955 L 33.039994208106975,8.281184402684772 L 32.60000183143313,8.339110497995492 L 32.160009454758395,8.28118440268905 L 31.750001831431845,8.11135368443314 L 31.397920303413628,7.841192026018419 L 31.127758644995268,7.4891104980026455 L 30.957927926735664,7.079102874677702 M 49.76000945539079,127.58118440260425 L 49.350001832064166,127.41135368434853 L 48.99792030404565,127.14119202593409 L 48.727758645627375,126.78911049791839 L 48.55792792736736,126.37910287459349 L 48.500001832056455,125.9391104979195 L 48.55792792736261,125.49911812124492 L 48.72775864561842,125.08911049791841 L 48.99792030403286,124.7370289698998 L 49.35000183204869,124.46686731148145 L 49.76000945537346,124.29703659322149 L 50.20000183204736,124.23911049791056 L 50.639994208722015,124.29703659321677 L 51.05000183204868,124.46686731147253 L 51.40208336006717,124.737028969887 L 51.672245018485484,125.08911049790278 L 51.84207573674544,125.4991181212275 L 51.90000183205649,125.93911049790151 L 51.842075736750175,126.37910287457606 L 51.672245018494436,126.78911049790278 L 51.402083360079914,127.14119202592126 L 51.05000183206418,127.41135368433963 L 50.63999420873938,127.58118440259955 L 50.20000183206541,127.63911049791056 L 49.76000945539079,127.58118440260425 M 45.88525438455622,65.26267596354192 L 45.471143912461145,65.3171946420023 L 45.057033440228196,65.26267596458779 L 44.67114391219043,65.1028352890677 L 44.33977306197103,64.8485654933295 L 44.08550326539569,64.51719464375219 L 43.92566258890116,64.1313051161181 L 43.87114391044075,63.71719464402298 L 43.92566258785513,63.30308417178999 L 44.085503263375216,62.917194643752154 L 44.33977305911357,62.58582379353254 L 44.67114390869088,62.33155399695751 L 45.05703343632484,62.171713320462814 L 45.471143908420046,62.117194642002325 L 45.88525438065288,62.17171331941688 L 46.27114390869086,62.33155399493697 L 46.60251475891046,62.58582379067515 L 46.856784555485376,62.917194640252546 L 47.01662523198013,63.30308416788661 L 47.07114391044074,63.71719463998188 L 47.01662523302616,64.13130511221468 L 46.856784557505875,64.51719464025247 L 46.602514761767964,64.84856549047204 L 46.27114391219044,65.10283528704716 L 45.88525438455622,65.26267596354192 M 45.47114396816934,111.03719464200236 L 45.0570334960058,110.98267596406262 L 44.67114396817054,110.82283528805328 L 44.33977311827336,110.56856549189493 L 44.08550332211858,110.23719464199516 L 43.92566264611318,109.85130511415836 L 43.87114396817766,109.43719464199408 L 43.92566264611733,109.02308416983026 L 44.085503322126726,108.63719464199512 L 44.33977311828504,108.30582379209804 L 44.67114396818499,108.05155399594305 L 45.057033496021646,107.89171331993768 L 45.47114396818583,107.83719464200233 L 45.885254440349684,107.89171331994194 L 46.271143968185,108.05155399595131 L 46.60251481808197,108.30582379210969 L 46.85678461423693,108.63719464200946 L 47.01662529024233,109.0230841698463 L 47.07114396817764,109.43719464201058 L 47.01662529023818,109.85130511417438 L 46.8567846142288,110.2371946420095 L 46.602514818070276,110.5685654919066 L 46.271143968170506,110.82283528806151 L 45.885254440333895,110.98267596406696 L 45.47114396816934,111.03719464200236 M 29.07678461423687,108.63719464191763 L 29.236625290242287,109.02308416975443 L 29.291143968177607,109.43719464191865 L 29.236625290238152,109.85130511408258 L 29.076784614228686,110.23719464191761 L 28.822514818070246,110.56856549181468 L 28.49114396817049,110.82283528796971 L 28.10525444033371,110.98267596397505 L 27.6911439681694,111.03719464191053 L 27.27703349600567,110.98267596397085 L 26.89114396817054,110.82283528796148 L 26.559773118273284,110.56856549180308 L 26.30550332211847,110.2371946419033 L 26.14566264611301,109.85130511406646 L 26.09114396817766,109.4371946419023 L 26.14566264611726,109.02308416973841 L 26.305503322126725,108.63719464190333 L 26.55977311828501,108.30582379200621 L 26.891143968184878,108.0515539958513 L 27.277033496021588,107.8917133198459 L 27.691143968185912,107.83719464191043 L 28.105254440349654,107.89171331985011 L 28.491143968184943,108.05155399585958 L 28.82251481808197,108.30582379201793 L 29.07678461423687,108.63719464191763 M 26.559773060536244,64.84856549180321 L 26.305503264381343,64.51719464190343 L 26.14566258837594,64.1313051140666 L 26.091143910440593,63.717194641902395 L 26.145662588380176,63.303084169738554 L 26.305503264389657,62.91719464190339 L 26.559773060547982,62.58582379200624 L 26.89114391044771,62.331553995851436 L 27.27703343828452,62.17171331984592 L 27.691143910448844,62.117194641910515 L 28.105254382612586,62.171713319850184 L 28.491143910447846,62.33155399585959 L 28.822514760345015,62.58582379201788 L 29.076784556499817,62.91719464191769 L 29.23662523250519,63.30308416975455 L 29.291143910440724,63.71719464191891 L 29.236625232501083,64.13130511408255 L 29.076784556491447,64.51719464191777 L 28.82251476033332,64.84856549181484 L 28.491143910433365,65.10283528796985 L 28.105254382596655,65.26267596397517 L 27.69114391043233,65.3171946419105 L 27.27703343826859,65.26267596397099 L 26.891143910433414,65.10283528796153 L 26.559773060536244,64.84856549180321 M 26.305503206054837,17.527194643660437 L 26.14566252956014,17.141305116026345 L 26.091143851099645,16.72719464393107 L 26.145662528514237,16.313084171698236 L 26.305503204034295,15.927194643660442 L 26.55977299977242,15.595823793440843 L 26.891143849349874,15.341553996865727 L 27.27703337698395,15.181713320371017 L 27.691143849079154,15.12719464191052 L 28.10525432131206,15.18171331932507 L 28.491143849349953,15.341553994845171 L 28.822514699569425,15.59582379058331 L 29.076784496144484,15.92719464016075 L 29.236625172639236,16.31308416779487 L 29.291143851099648,16.72719463989 L 29.23662517368524,17.14130511212295 L 29.07678449816514,17.527194640160687 L 28.822514702426872,17.8585654903803 L 28.49114385284952,18.11283528695543 L 28.105254325215483,18.27267596345014 L 27.69114385312021,18.327194641910594 L 27.27703338088739,18.272675964495974 L 26.89114385284951,18.112835288976 L 26.559773002629925,17.858565493237776 L 26.305503206054837,17.527194643660437 M 45.05703337698402,15.181713320462762 L 45.47114384907904,15.127194642002337 L 45.88525432131203,15.181713319416872 L 46.271143849350025,15.341553994936945 L 46.60251469956944,15.595823790675112 L 46.856784496144584,15.927194640252466 L 47.016625172639266,16.313084167886615 L 47.07114385109966,16.727194639981803 L 47.01662517368531,17.14130511221471 L 46.856784498165254,17.527194640252503 L 46.6025147024269,17.858565490472103 L 46.27114385284959,18.112835287047204 L 45.88525432521557,18.272675963541943 L 45.47114385312017,18.327194642002368 L 45.0570333808875,18.272675964587847 L 44.67114385284954,18.112835289067775 L 44.339773002629954,17.858565493329607 L 44.08550320605504,17.527194643752253 L 43.92566252956031,17.141305116118133 L 43.87114385109966,16.72719464402293 L 43.92566252851424,16.313084171790067 L 44.08550320403437,15.927194643752244 L 44.33977299977245,15.59582379353266 L 44.67114384935,15.34155399695753 L 45.05703337698402,15.181713320462762 "
  />
  <path id="face0-interior"
 style="fill:none;stroke:#FF0000;stroke-width:0.1;stroke-miterlimit:4;stroke-dasharray:none;stroke-linejoin:round;stroke-linecap:round"
        d="M 128.70000182493018,91.28922251753328 M 128.7000017382483,86.28922252092306 M 103.70000173824806,86.28922255249383 M 103.70000168773443,46.289222552493854 M 128.70000168773421,46.289222520923055 M 128.7000016713328,41.289222584208446 M 132.70000000414038,41.289222523426034 M 132.70000001355402,22.289222523489414 M 124.70000001355402,22.289222521258466 M 124.70000001315132,17.289222521258452 M 132.70000001315134,17.2892225234894 M 132.70000000395868,5.000000002145512 M 128.70000168040738,5.000000000732015 M 128.70000168038263,6.4369487517979e-10 M 4.000001823207384,0.0 M 4.000001823233589,4.999999999999986 M 3.9065355394996004e-09,5.000000000019611 M 4.013600118923932e-09,25.00000000269955 M 4.000001823337811,25.00000000267825 M 4.000001823461588,56.28922251835677 M 1.82346158794644e-06,56.28922251931513 M 1.8310126961296191e-06,76.28922252444765 M 4.000001831012668,76.28922252348937 M 4.000001823740007,107.57822252112794 M 0.0,107.57822252114795 M 9.811174095375463e-11,127.57822251847782 M 4.000001823843633,127.5782225184584 M 4.000001823868047,132.57822251845843 M 128.70000179660664,132.57822250759355 M 128.7000017965816,127.57822250722032 M 132.70000000393665,127.57822250576666 M 132.69999904598376,115.28922252348951 M 124.69999904598379,115.28922173687411 M 124.69999944025214,110.28922173687445 M 132.6999994402521,110.28922252348985 M 132.70000000375543,91.28922251753328 M 12.000001832064527,127.63911049809477 M 11.560009455389945,127.58118440278831 M 11.150001832063339,127.41135368453246 M 10.797920304045135,127.1411920261177 M 10.527758645627017,126.78911049810198 M 10.357927927367172,126.379102874777 M 10.300001832056665,125.93911049810298 M 10.357927927362937,125.49911812142858 M 10.527758645618803,125.08911049810196 M 10.79792030403351,124.73702897008351 M 11.150001832049327,124.46686731166535 M 11.560009455374257,124.29703659340558 M 12.000001832048099,124.23911049809493 M 12.439994208722766,124.29703659340136 M 12.850001832049259,124.46686731165732 M 13.20208336006769,124.73702897007192 M 13.472245018485808,125.08911049808776 M 13.642075736745596,125.49911812141264 M 13.700001832056529,125.93911049808665 M 13.642075736749831,126.3791028747612 M 13.472245018493965,126.78911049808761 M 13.202083360079286,127.14119202610608 M 12.85000183206327,127.4113536845243 M 12.439994208738483,127.58118440278403 M 12.00000183143294,8.339110498094982 M 11.560009454758273,8.28118440278844 M 11.150001831431751,8.111353684532617 M 10.79792030341352,7.841192026117852 M 10.527758644995316,7.489110498102079 M 10.357927926735556,7.079102874777178 M 10.300001831424623,6.639110498103165 M 10.357927926731122,6.199118121428597 M 10.527758644986989,5.789110498102076 M 10.797920303401725,5.437028970083645 M 11.150001831417342,5.16686731166547 M 11.560009454742527,4.997036593405639 M 12.000001831416569,4.939110498094976 M 12.439994208091093,4.9970365934014325 M 12.85000183141733,5.166867311657327 M 13.202083359436045,5.4370289700720065 M 13.472245017854078,5.789110498087837 M 13.642075736113924,6.199118121412724 M 13.700001831424629,6.639110498086708 M 13.642075736118358,7.079102874761318 M 13.472245017862377,7.4891104980877685 M 13.202083359447698,7.841192026106313 M 12.850001831431769,8.111353684524389 M 12.439994208106839,8.281184402784206 M 30.957927926735664,7.079102874677702 M 30.900001831424547,6.639110498003731 M 30.957927926731173,6.199118121329107 M 31.12775864498728,5.789110498002572 M 31.39792030340179,5.437028969984198 M 31.750001831417407,5.166867311566065 M 32.160009454742536,4.997036593306262 M 32.600001831416506,4.9391104979955145 M 33.03999420809107,4.997036593302013 M 33.450001831417424,5.16686731155788 M 33.80208335943608,5.437028969972573 M 34.072245017854385,5.789110497988403 M 34.24207573611403,6.199118121313305 M 34.30000183142457,6.639110497987318 M 34.24207573611852,7.079102874661871 M 34.072245017862414,7.489110497988378 M 33.802083359447906,7.841192026006794 M 33.450001831431834,8.111353684424955 M 33.039994208106975,8.281184402684772 M 32.60000183143313,8.339110497995492 M 32.160009454758395,8.28118440268905 M 31.750001831431845,8.11135368443314 M 31.397920303413628,7.841192026018419 M 31.127758644995268,7.4891104980026455 M 49.76000945539079,127.58118440260425 M 49.350001832064166,127.41135368434853 M 48.99792030404565,127.14119202593409 M 48.727758645627375,126.78911049791839 M 48.55792792736736,126.37910287459349 M 48.500001832056455,125.9391104979195 M 48.55792792736261,125.49911812124492 M 48.72775864561842,125.08911049791841 M 48.99792030403286,124.7370289698998 M 49.35000183204869,124.46686731148145 M 49.76000945537346,124.29703659322149 M 50.20000183204736,124.23911049791056 M 50.639994208722015,124.29703659321677 M 51.05000183204868,124.46686731147253 M 51.40208336006717,124.737028969887 M 51.672245018485484,125.08911049790278 M 51.84207573674544,125.4991181212275 M 51.90000183205649,125.93911049790151 M 51.842075736750175,126.37910287457606 M 51.672245018494436,126.78911049790278 M 51.402083360079914,127.14119202592126 M 51.05000183206418,127.41135368433963 M 50.63999420873938,127.58118440259955 M 50.20000183206541,127.63911049791056 M 45.88525438455622,65.26267596354192 M 45.471143912461145,65.3171946420023 M 45.057033440228196,65.26267596458779 M 44.67114391219043,65.1028352890677 M 44.33977306197103,64.8485654933295 M 44.08550326539569,64.51719464375219 M 43.92566258890116,64.1313051161181 M 43.87114391044075,63.71719464402298 M 43.92566258785513,63.30308417178999 M 44.085503263375216,62.917194643752154 M 44.33977305911357,62.58582379353254 M 44.67114390869088,62.33155399695751 M 45.05703343632484,62.171713320462814 M 45.471143908420046,62.117194642002325 M 45.88525438065288,62.17171331941688 M 46.27114390869086,62.33155399493697 M 46.60251475891046,62.58582379067515 M 46.856784555485376,62.917194640252546 M 47.01662523198013,63.30308416788661 M 47.07114391044074,63.71719463998188 M 47.01662523302616,64.13130511221468 M 46.856784557505875,64.51719464025247 M 46.602514761767964,64.84856549047204 M 46.27114391219044,65.10283528704716 M 45.47114396816934,111.03719464200236 M 45.0570334960058,110.98267596406262 M 44.67114396817054,110.82283528805328 M 44.33977311827336,110.56856549189493 M 44.08550332211858,110.23719464199516 M 43.92566264611318,109.85130511415836 M 43.87114396817766,109.43719464199408 M 43.92566264611733,109.02308416983026 M 44.085503322126726,108.63719464199512 M 44.33977311828504,108.30582379209804 M 44.67114396818499,108.05155399594305 M 45.057033496021646,107.89171331993768 M 45.47114396818583,107.83719464200233 M 45.885254440349684,107.89171331994194 M 46.271143968185,108.05155399595131 M 46.60251481808197,108.30582379210969 M 46.85678461423693,108.63719464200946 M 47.01662529024233,109.0230841698463 M 47.07114396817764,109.43719464201058 M 47.01662529023818,109.85130511417438 M 46.8567846142288,110.2371946420095 M 46.602514818070276,110.5685654919066 M 46.271143968170506,110.82283528806151 M 45.885254440333895,110.98267596406696 M 29.07678461423687,108.63719464191763 M 29.236625290242287,109.02308416975443 M 29.291143968177607,109.43719464191865 M 29.236625290238152,109.85130511408258 M 29.076784614228686,110.23719464191761 M 28.822514818070246,110.56856549181468 M 28.49114396817049,110.82283528796971 M 28.10525444033371,110.98267596397505 M 27.6911439681694,111.03719464191053 M 27.27703349600567,110.98267596397085 M 26.89114396817054,110.82283528796148 M 26.559773118273284,110.56856549180308 M 26.30550332211847,110.2371946419033 M 26.14566264611301,109.85130511406646 M 26.09114396817766,109.4371946419023 M 26.14566264611726,109.02308416973841 M 26.305503322126725,108.63719464190333 M 26.55977311828501,108.30582379200621 M 26.891143968184878,108.0515539958513 M 27.277033496021588,107.8917133198459 M 27.691143968185912,107.83719464191043 M 28.105254440349654,107.89171331985011 M 28.491143968184943,108.05155399585958 M 28.82251481808197,108.30582379201793 M 26.559773060536244,64.84856549180321 M 26.305503264381343,64.51719464190343 M 26.14566258837594,64.1313051140666 M 26.091143910440593,63.717194641902395 M 26.145662588380176,63.303084169738554 M 26.305503264389657,62.91719464190339 M 26.559773060547982,62.58582379200624 M 26.89114391044771,62.331553995851436 M 27.27703343828452,62.17171331984592 M 27.691143910448844,62.117194641910515 M 28.105254382612586,62.171713319850184 M 28.491143910447846,62.33155399585959 M 28.822514760345015,62.58582379201788 M 29.076784556499817,62.91719464191769 M 29.23662523250519,63.30308416975455 M 29.291143910440724,63.71719464191891 M 29.236625232501083,64.13130511408255 M 29.076784556491447,64.51719464191777 M 28.82251476033332,64.84856549181484 M 28.491143910433365,65.10283528796985 M 28.105254382596655,65.26267596397517 M 27.69114391043233,65.3171946419105 M 27.27703343826859,65.26267596397099 M 26.891143910433414,65.10283528796153 M 26.305503206054837,17.527194643660437 M 26.14566252956014,17.141305116026345 M 26.091143851099645,16.72719464393107 M 26.145662528514237,16.313084171698236 M 26.305503204034295,15.927194643660442 M 26.55977299977242,15.595823793440843 M 26.891143849349874,15.341553996865727 M 27.27703337698395,15.181713320371017 M 27.691143849079154,15.12719464191052 M 28.10525432131206,15.18171331932507 M 28.491143849349953,15.341553994845171 M 28.822514699569425,15.59582379058331 M 29.076784496144484,15.92719464016075 M 29.236625172639236,16.31308416779487 M 29.291143851099648,16.72719463989 M 29.23662517368524,17.14130511212295 M 29.07678449816514,17.527194640160687 M 28.822514702426872,17.8585654903803 M 28.49114385284952,18.11283528695543 M 28.105254325215483,18.27267596345014 M 27.69114385312021,18.327194641910594 M 27.27703338088739,18.272675964495974 M 26.89114385284951,18.112835288976 M 26.559773002629925,17.858565493237776 M 45.05703337698402,15.181713320462762 M 45.47114384907904,15.127194642002337 M 45.88525432131203,15.181713319416872 M 46.271143849350025,15.341553994936945 M 46.60251469956944,15.595823790675112 M 46.856784496144584,15.927194640252466 M 47.016625172639266,16.313084167886615 M 47.07114385109966,16.727194639981803 M 47.01662517368531,17.14130511221471 M 46.856784498165254,17.527194640252503 M 46.6025147024269,17.858565490472103 M 46.27114385284959,18.112835287047204 M 45.88525432521557,18.272675963541943 M 45.47114385312017,18.327194642002368 M 45.0570333808875,18.272675964587847 M 44.67114385284954,18.112835289067775 M 44.339773002629954,17.858565493329607 M 44.08550320605504,17.527194643752253 M 43.92566252956031,17.141305116118133 M 43.87114385109966,16.72719464402293 M 43.92566252851424,16.313084171790067 M 44.08550320403437,15.927194643752244 M 44.33977299977245,15.59582379353266 M 44.67114384935,15.34155399695753 "
  />
  <path id="face0-interior"
 style="fill:none;stroke:#FF0000;stroke-width:0.1;stroke-miterlimit:4;stroke-dasharray:none;stroke-linejoin:round;stroke-linecap:round"
        d="M 128.70000182493018,91.28922251753328 M 128.7000017382483,86.28922252092306 M 103.70000173824806,86.28922255249383 M 103.70000168773443,46.289222552493854 M 128.70000168773421,46.289222520923055 M 128.7000016713328,41.289222584208446 M 132.70000000414038,41.289222523426034 M 132.70000001355402,22.289222523489414 M 124.70000001355402,22.289222521258466 M 124.70000001315132,17.289222521258452 M 132.70000001315134,17.2892225234894 M 132.70000000395868,5.000000002145512 M 128.70000168040738,5.000000000732015 M 128.70000168038263,6.4369487517979e-10 M 4.000001823207384,0.0 M 4.000001823233589,4.999999999999986 M 3.9065355394996004e-09,5.000000000019611 M 4.013600118923932e-09,25.00000000269955 M 4.000001823337811,25.00000000267825 M 4.000001823461588,56.28922251835677 M 1.82346158794644e-06,56.28922251931513 M 1.8310126961296191e-06,76.28922252444765 M 4.000001831012668,76.28922252348937 M 4.000001823740007,107.57822252112794 M 0.0,107.57822252114795 M 9.811174095375463e-11,127.57822251847782 M 4.000001823843633,127.5782225184584 M 4.000001823868047,132.57822251845843 M 128.70000179660664,132.57822250759355 M 128.7000017965816,127.57822250722032 M 132.70000000393665,127.57822250576666 M 132.69999904598376,115.28922252348951 M 124.69999904598379,115.28922173687411 M 124.69999944025214,110.28922173687445 M 132.6999994402521,110.28922252348985 M 132.70000000375543,91.28922251753328 M 12.000001832064527,127.63911049809477 M 11.560009455389945,127.58118440278831 M 11.150001832063339,127.41135368453246 M 10.797920304045135,127.1411920261177 M 10.527758645627017,126.78911049810198 M 10.357927927367172,126.379102874777 M 10.300001832056665,125.93911049810298 M 10.357927927362937,125.49911812142858 M 10.527758645618803,125.08911049810196 M 10.79792030403351,124.73702897008351 M 11.150001832049327,124.46686731166535 M 11.560009455374257,124.29703659340558 M 12.000001832048099,124.23911049809493 M 12.439994208722766,124.29703659340136 M 12.850001832049259,124.46686731165732 M 13.20208336006769,124.73702897007192 M 13.472245018485808,125.08911049808776 M 13.642075736745596,125.49911812141264 M 13.700001832056529,125.93911049808665 M 13.642075736749831,126.3791028747612 M 13.472245018493965,126.78911049808761 M 13.202083360079286,127.14119202610608 M 12.85000183206327,127.4113536845243 M 12.439994208738483,127.58118440278403 M 12.00000183143294,8.339110498094982 M 11.560009454758273,8.28118440278844 M 11.150001831431751,8.111353684532617 M 10.79792030341352,7.841192026117852 M 10.527758644995316,7.489110498102079 M 10.357927926735556,7.079102874777178 M 10.300001831424623,6.639110498103165 M 10.357927926731122,6.199118121428597 M 10.527758644986989,5.789110498102076 M 10.797920303401725,5.437028970083645 M 11.150001831417342,5.16686731166547 M 11.560009454742527,4.997036593405639 M 12.000001831416569,4.939110498094976 M 12.439994208091093,4.9970365934014325 M 12.85000183141733,5.166867311657327 M 13.202083359436045,5.4370289700720065 M 13.472245017854078,5.789110498087837 M 13.642075736113924,6.199118121412724 M 13.700001831424629,6.639110498086708 M 13.642075736118358,7.079102874761318 M 13.472245017862377,7.4891104980877685 M 13.202083359447698,7.841192026106313 M 12.850001831431769,8.111353684524389 M 12.439994208106839,8.281184402784206 M 30.957927926735664,7.079102874677702 M 30.900001831424547,6.639110498003731 M 30.957927926731173,6.199118121329107 M 31.12775864498728,5.789110498002572 M 31.39792030340179,5.437028969984198 M 31.750001831417407,5.166867311566065 M 32.160009454742536,4.997036593306262 M 32.600001831416506,4.9391104979955145 M 33.03999420809107,4.997036593302013 M 33.450001831417424,5.16686731155788 M 33.80208335943608,5.437028969972573 M 34.072245017854385,5.789110497988403 M 34.24207573611403,6.199118121313305 M 34.30000183142457,6.639110497987318 M 34.24207573611852,7.079102874661871 M 34.072245017862414,7.489110497988378 M 33.802083359447906,7.841192026006794 M 33.450001831431834,8.111353684424955 M 33.039994208106975,8.281184402684772 M 32.60000183143313,8.339110497995492 M 32.160009454758395,8.28118440268905 M 31.750001831431845,8.11135368443314 M 31.397920303413628,7.841192026018419 M 31.127758644995268,7.4891104980026455 M 49.76000945539079,127.58118440260425 M 49.350001832064166,127.41135368434853 M 48.99792030404565,127.14119202593409 M 48.727758645627375,126.78911049791839 M 48.55792792736736,126.37910287459349 M 48.500001832056455,125.9391104979195 M 48.55792792736261,125.49911812124492 M 48.72775864561842,125.08911049791841 M 48.99792030403286,124.7370289698998 M 49.35000183204869,124.46686731148145 M 49.76000945537346,124.29703659322149 M 50.20000183204736,124.23911049791056 M 50.639994208722015,124.29703659321677 M 51.05000183204868,124.46686731147253 M 51.40208336006717,124.737028969887 M 51.672245018485484,125.08911049790278 M 51.84207573674544,125.4991181212275 M 51.90000183205649,125.93911049790151 M 51.842075736750175,126.37910287457606 M 51.672245018494436,126.78911049790278 M 51.402083360079914,127.14119202592126 M 51.05000183206418,127.41135368433963 M 50.63999420873938,127.58118440259955 M 50.20000183206541,127.63911049791056 M 45.88525438455622,65.26267596354192 M 45.471143912461145,65.3171946420023 M 45.057033440228196,65.26267596458779 M 44.67114391219043,65.1028352890677 M 44.33977306197103,64.8485654933295 M 44.08550326539569,64.51719464375219 M 43.92566258890116,64.1313051161181 M 43.87114391044075,63.71719464402298 M 43.92566258785513,63.30308417178999 M 44.085503263375216,62.917194643752154 M 44.33977305911357,62.58582379353254 M 44.67114390869088,62.33155399695751 M 45.05703343632484,62.171713320462814 M 45.471143908420046,62.117194642002325 M 45.88525438065288,62.17171331941688 M 46.27114390869086,62.33155399493697 M 46.60251475891046,62.58582379067515 M 46.856784555485376,62.917194640252546 M 47.01662523198013,63.30308416788661 M 47.07114391044074,63.71719463998188 M 47.01662523302616,64.13130511221468 M 46.856784557505875,64.51719464025247 M 46.602514761767964,64.84856549047204 M 46.27114391219044,65.10283528704716 M 45.47114396816934,111.03719464200236 M 45.0570334960058,110.98267596406262 M 44.67114396817054,110.82283528805328 M 44.33977311827336,110.56856549189493 M 44.08550332211858,110.23719464199516 M 43.92566264611318,109.85130511415836 M 43.87114396817766,109.43719464199408 M 43.92566264611733,109.02308416983026 M 44.085503322126726,108.63719464199512 M 44.33977311828504,108.30582379209804 M 44.67114396818499,108.05155399594305 M 45.057033496021646,107.89171331993768 M 45.47114396818583,107.83719464200233 M 45.885254440349684,107.89171331994194 M 46.271143968185,108.05155399595131 M 46.60251481808197,108.30582379210969 M 46.85678461423693,108.63719464200946 M 47.01662529024233,109.0230841698463 M 47.07114396817764,109.43719464201058 M 47.01662529023818,109.85130511417438 M 46.8567846142288,110.2371946420095 M 46.602514818070276,110.5685654919066 M 46.271143968170506,110.82283528806151 M 45.885254440333895,110.98267596406696 M 29.07678461423687,108.63719464191763 M 29.236625290242287,109.02308416975443 M 29.291143968177607,109.43719464191865 M 29.236625290238152,109.85130511408258 M 29.076784614228686,110.23719464191761 M 28.822514818070246,110.56856549181468 M 28.49114396817049,110.82283528796971 M 28.10525444033371,110.98267596397505 M 27.6911439681694,111.03719464191053 M 27.27703349600567,110.98267596397085 M 26.89114396817054,110.82283528796148 M 26.559773118273284,110.56856549180308 M 26.30550332211847,110.2371946419033 M 26.14566264611301,109.85130511406646 M 26.09114396817766,109.4371946419023 M 26.14566264611726,109.02308416973841 M 26.305503322126725,108.63719464190333 M 26.55977311828501,108.30582379200621 M 26.891143968184878,108.0515539958513 M 27.277033496021588,107.8917133198459 M 27.691143968185912,107.83719464191043 M 28.105254440349654,107.89171331985011 M 28.491143968184943,108.05155399585958 M 28.82251481808197,108.30582379201793 M 26.559773060536244,64.84856549180321 M 26.305503264381343,64.51719464190343 M 26.14566258837594,64.1313051140666 M 26.091143910440593,63.717194641902395 M 26.145662588380176,63.303084169738554 M 26.305503264389657,62.91719464190339 M 26.559773060547982,62.58582379200624 M 26.89114391044771,62.331553995851436 M 27.27703343828452,62.17171331984592 M 27.691143910448844,62.117194641910515 M 28.105254382612586,62.171713319850184 M 28.491143910447846,62.33155399585959 M 28.822514760345015,62.58582379201788 M 29.076784556499817,62.91719464191769 M 29.23662523250519,63.30308416975455 M 29.291143910440724,63.71719464191891 M 29.236625232501083,64.13130511408255 M 29.076784556491447,64.51719464191777 M 28.82251476033332,64.84856549181484 M 28.491143910433365,65.10283528796985 M 28.105254382596655,65.26267596397517 M 27.69114391043233,65.3171946419105 M 27.27703343826859,65.26267596397099 M 26.891143910433414,65.10283528796153 M 26.305503206054837,17.527194643660437 M 26.14566252956014,17.141305116026345 M 26.091143851099645,16.72719464393107 M 26.145662528514237,16.313084171698236 M 26.305503204034295,15.927194643660442 M 26.55977299977242,15.595823793440843 M 26.891143849349874,15.341553996865727 M 27.27703337698395,15.181713320371017 M 27.691143849079154,15.12719464191052 M 28.10525432131206,15.18171331932507 M 28.491143849349953,15.341553994845171 M 28.822514699569425,15.59582379058331 M 29.076784496144484,15.92719464016075 M 29.236625172639236,16.31308416779487 M 29.291143851099648,16.72719463989 M 29.23662517368524,17.14130511212295 M 29.07678449816514,17.527194640160687 M 28.822514702426872,17.8585654903803 M 28.49114385284952,18.11283528695543 M 28.105254325215483,18.27267596345014 M 27.69114385312021,18.327194641910594 M 27.27703338088739,18.272675964495974 M 26.89114385284951,18.112835288976 M 26.559773002629925,17.858565493237776 M 45.05703337698402,15.181713320462762 M 45.47114384907904,15.127194642002337 M 45.88525432131203,15.181713319416872 M 46.271143849350025,15.341553994936945 M 46.60251469956944,15.595823790675112 M 46.856784496144584,15.927194640252466 M 47.016625172639266,16.313084167886615 M 47.07114385109966,16.727194639981803 M 47.01662517368531,17.14130511221471 M 46.856784498165254,17.527194640252503 M 46.6025147024269,17.858565490472103 M 46.27114385284959,18.112835287047204 M 45.88525432521557,18.272675963541943 M 45.47114385312017,18.327194642002368 M 45.0570333808875,18.272675964587847 M 44.67114385284954,18.112835289067775 M 44.339773002629954,17.858565493329607 M 44.08550320605504,17.527194643752253 M 43.92566252956031,17.141305116118133 M 43.87114385109966,16.72719464402293 M 43.92566252851424,16.313084171790067 M 44.08550320403437,15.927194643752244 M 44.33977299977245,15.59582379353266 M 44.67114384935,15.34155399695753 "
  />
</svg>
