<?xml version="1.0" standalone="no"?>
<!DOCTYPE svg PUBLIC "-//W3C//DTD SVG 1.1//EN" "http://www.w3.org/Graphics/SVG/1.1/DTD/svg11.dtd">
<svg width="132.7000000385412mm" height="101.60000000000004mm"
 viewBox="0 0 132.7000000385412 101.60000000000004"
 xmlns="http://www.w3.org/2000/svg" version="1.1"
 xmlns:xlink="http://www.w3.org/1999/xlink">
<desc>Output from Flights of Ideas SVG Sketchup Plugin</desc>

  <path id="face0-cut"
 style="fill:none;stroke:#FF0000;stroke-width:0.1;stroke-miterlimit:4;stroke-dasharray:none;stroke-linejoin:round;stroke-linecap:round"
        d="M 4.000000017255665,101.60000000000004 L 128.70000001725313,101.60000000000004 L 128.70000001727536,96.60000000043746 L 132.70000003849304,96.60000000044917 L 132.7000000385412,80.50211305960104 L 128.70000001732348,80.50211305958899 L 128.70000001736733,68.50000000044353 L 121.70000001736724,68.50000000041973 L 121.70000001751998,26.000000000412996 L 128.70000001751757,26.00000000043697 L 128.70000001753468,21.00000000043699 L 132.69999998319167,21.00000000045233 L 132.6999999832538,5.000000000452371 L 128.70000001758171,5.00000000043844 L 128.7000000175991,4.38392433466106e-10 L 4.000000017612663,0.0 L 4.00000001755712,15.800000000007696 L 2.459685788380739e-10,15.79999999999345 L 0.0,85.79999999999461 L 4.000000017311137,85.8000000000088 L 4.000000017255665,101.60000000000004 M 96.00000001735961,70.90000000032767 L 95.948888756792,71.28822856798124 L 95.799038123034,71.65000000032701 L 95.56066018913617,71.960660172106 L 95.25000001735552,72.19903810600188 L 94.88822858500887,72.34888873975775 L 94.50000001735489,72.40000000032285 L 94.11177144970134,72.34888873975511 L 93.75000001735555,72.199038105997 L 93.43933984557657,71.96066017209925 L 93.20096191168071,71.65000000031871 L 93.05111127792486,71.28822856797201 L 93.00000001735975,70.90000000031806 L 93.05111127792742,70.51177143266439 L 93.20096191168545,70.15000000031871 L 93.4393398455833,69.83933982853969 L 93.7500000173639,69.60096189464373 L 94.11177144971049,69.45111126088793 L 94.50000001736453,69.40000000032286 L 94.88822858501808,69.45111126089043 L 95.25000001736387,69.60096189464859 L 95.56066018914291,69.83933982854644 L 95.79903812303874,70.15000000032693 L 95.94888875679462,70.51177143267354 L 96.00000001735961,70.90000000032767 M 16.400000017591438,9.100000000059765 L 16.451111278158294,8.711771432409495 L 16.600961911914638,8.350000000066988 L 16.839339845809917,8.039339828290242 L 17.150000017587516,7.800961894396131 L 17.511771449930635,7.651111260641336 L 17.900000017580936,7.600000000076125 L 18.288228585231153,7.651111260642903 L 18.650000017573916,7.800961894399258 L 18.960660189350307,8.039339828294437 L 19.19903812324445,8.350000000071951 L 19.348888756999273,8.711771432415329 L 19.400000017564267,9.10000000006552 L 19.34888875699795,9.488228567715765 L 19.199038123241607,9.850000000058376 L 18.960660189346285,10.160660171834774 L 18.6500000175687,10.399038105728916 L 18.28822858522547,10.548888739483928 L 17.900000017575294,10.600000000048922 L 17.51177144992495,10.548888739482383 L 17.150000017582258,10.399038105725982 L 16.83933984580591,10.160660171830656 L 16.600961911911796,9.850000000053381 L 16.451111278156986,9.488228567710003 L 16.400000017591438,9.100000000059765 M 19.40000001735966,70.90000000005453 L 19.34888875679303,71.28822856770833 L 19.199038123035876,71.65000000005449 L 18.960660189138792,71.9606601718341 L 18.650000017358806,72.19903810573085 L 18.288228585012618,72.3488887394874 L 17.90000001735875,72.40000000005361 L 17.51177144970511,72.34888873948697 L 17.150000017358877,72.19903810572978 L 16.839339845579275,71.96066017183273 L 16.600961911682617,71.65000000005287 L 16.451111277925918,71.28822856770645 L 16.40000001735976,70.9000000000527 L 16.45111127792643,70.51177143239883 L 16.600961911683555,70.15000000005287 L 16.839339845580596,69.8393398282732 L 17.15000001736034,69.60096189437651 L 17.511771449706856,69.45111126061973 L 17.900000017360668,69.40000000005372 L 18.28822858501441,69.45111126062031 L 18.650000017360313,69.60096189437749 L 18.9606601891401,69.83933982827463 L 19.1990381230368,70.15000000005456 L 19.348888756793542,70.51177143240075 L 19.40000001735966,70.90000000005453 M 95.56066018935644,10.160660172106326 L 95.25000001757584,10.399038106002138 L 94.88822858522909,10.548888739757633 L 94.5000000175751,10.600000000322584 L 94.11177144992149,10.548888739754837 L 93.75000001757581,10.399038105996496 L 93.43933984579675,10.16066017209862 L 93.20096191190106,9.850000000317927 L 93.05111127814553,9.48822856797112 L 93.00000001758056,9.100000000317081 L 93.05111127814843,8.71177143266354 L 93.20096191190655,8.35000000031794 L 93.43933984580451,8.039339828538928 L 93.75000001758525,7.800961894643084 L 94.11177144993206,7.651111260887539 L 94.50000001758607,7.600000000322623 L 94.8882285852396,7.651111260890371 L 95.25000001758531,7.80096189464879 L 95.56066018936417,8.039339828546723 L 95.79903812325989,8.350000000327224 L 95.94888875701565,8.71177143267403 L 96.00000001758067,9.100000000328127 L 95.9488887570127,9.488228567981611 L 95.7990381232544,9.85000000032721 L 95.56066018935644,10.160660172106326 M 104.1686291676983,4.4313708502585385 L 103.91435937154276,4.100000000359165 L 103.75451869553672,3.7141104725225453 L 103.70000001760064,3.300000000358411 L 103.75451869553962,2.8858895281944577 L 103.91435937154836,2.5000000003591687 L 104.16862916770614,2.1686291504616104 L 104.50000001760554,1.914359354306045 L 104.88588954544207,1.754518678299993 L 105.30000001760627,1.7000000003640547 L 105.71411048977015,1.7545186783028797 L 106.10000001760554,1.9143593543117294 L 106.43137086750306,2.1686291504694157 L 106.68564066365855,2.5000000003690044 L 106.84548133966464,2.8858895282053663 L 106.90000001760063,3.3000000003697245 L 106.84548133966172,3.7141104725334966 L 106.68564066365298,4.1000000003689685 L 106.43137086749522,4.431370850266401 L 106.10000001759579,4.685640646421945 L 105.71411048975932,4.845481322427895 L 105.30000001759515,4.900000000363981 L 104.88588954543121,4.845481322424986 L 104.5000000175958,4.685640646416294 L 104.1686291676983,4.4313708502585385 M 106.7005018725782,97.5263110749754 L 106.85302635795361,97.91515043867331 L 106.89971466470831,98.3302166640067 L 106.83738506189349,98.74322367364749 L 106.67028520893626,99.12602572241664 L 106.40980268467021,99.45253548329968 L 106.0736889426561,99.70050185567578 L 105.68484957895834,99.85302634105055 L 105.26978335362506,99.89971464780557 L 104.8567763439836,99.83738504499026 L 104.47397429521482,99.67028519203426 L 104.14746453433165,99.40980266776718 L 103.89949816195588,99.07368892575353 L 103.7469736765805,98.68484956205586 L 103.70028536982579,98.26978333672245 L 103.76261497264048,97.85677632708125 L 103.92971482559778,97.47397427831201 L 104.19019734986381,97.14746451742874 L 104.52631109187777,96.89949814505319 L 104.91515045557574,96.746973659678 L 105.33021668090885,96.70028535292278 L 105.74322369055031,96.76261495573802 L 106.1260257393192,96.92971480869504 L 106.4525355002022,97.19019733296128 L 106.7005018725782,97.5263110749754 M 16.199286005984646,97.4009797064582 L 16.38687099164308,97.77417086733361 L 16.471475194016136,98.1831964146296 L 16.44733297652735,98.60018193324473 L 16.31608959140135,98.99671054918642 L 16.08668905844469,99.34575949257281 L 15.774764644876058,99.62354165474278 L 15.401573484000565,99.81112664040124 L 14.992547936704483,99.89573084277426 L 14.575562418089476,99.87158862528536 L 14.179033802147785,99.74034524015939 L 13.829984858761364,99.51094470720261 L 13.55220269659138,99.1990202936341 L 13.364617710932862,98.82582913275861 L 13.280013508560032,98.41680358546267 L 13.304155726048833,97.99981806684761 L 13.435399111174817,97.60328945090583 L 13.664799644131477,97.25424050751953 L 13.97672405770011,96.97645834534954 L 14.34991521857549,96.78887335969107 L 14.758940765871458,96.70426915731812 L 15.175926284486692,96.72841137480698 L 15.572454900428397,96.85965475993297 L 15.921503843814662,97.0890552928896 L 16.199286005984646,97.4009797064582 M 16.240593022680486,4.310410310636659 L 15.93680740937232,4.59707051113009 L 15.569179920462034,4.795337499803402 L 15.162763761786152,4.891699709030384 L 14.745255522923799,4.879590213498375 L 14.345107700388496,4.759834255315782 L 13.98958970701048,4.540593005126693 L 13.702929506517322,4.236807391818337 L 13.504662517843855,3.869179902908126 L 13.408300308616845,3.4627637442322836 L 13.42040980414913,3.0452555053700046 L 13.540165762331725,2.64510768283459 L 13.759407012520711,2.2895896894565 L 14.063192625828876,2.0029294889633285 L 14.43082011473895,1.8046625002899592 L 14.837236273415058,1.7083002910628995 L 15.254744512277256,1.720409786595111 L 15.6548923348127,1.8401657447777708 L 16.010410328190744,2.0594069949666345 L 16.297070528683875,2.3631926082749573 L 16.495337517357356,2.730820097185145 L 16.59169972658411,3.137236255861101 L 16.579590231052094,3.5547444947235256 L 16.4598342728695,3.9548923172587163 L 16.240593022680486,4.310410310636659 M 94.49999997285619,15.100000000322801 L 94.50000006208717,64.90000000032325 L 92.9470857827514,65.10444503294163 L 91.50000004319043,65.70384756270492 L 90.25735934606328,66.65735929738402 L 89.30384760211709,67.89999998740024 L 88.70444506156204,69.34708572249112 L 88.50000001736262,70.90000000030224 L 23.900000017364036,70.90000000007538 L 23.695554977032245,69.34708573665621 L 23.096152447531765,67.90000001297736 L 22.14264072030329,66.65735932875505 L 20.90000004319191,65.70384759225935 L 19.452914323983066,65.1044450519671 L 17.90000006208858,64.90000000005429 L 17.90000001756026,15.100000000053935 L 19.452914288175933,14.895554957793816 L 20.900000017562903,14.296152422771026 L 22.142640704685533,13.34264068718812 L 23.096152440277322,12.100000000072193 L 23.69555497531009,10.652914270689365 L 23.90000001758122,9.100000000074857 L 88.50000001758076,9.100000000301787 L 88.70444505791255,10.65291426372081 L 89.30384758741297,12.09999998739977 L 90.25735931464143,13.342640671622142 L 91.4999999917529,14.296152408117702 L 92.94708571096172,14.895554948410048 L 94.49999997285619,15.100000000322801 "
  />
  <path id="face0-interior"
 style="fill:none;stroke:#FF0000;stroke-width:0.1;stroke-miterlimit:4;stroke-dasharray:none;stroke-linejoin:round;stroke-linecap:round"
        d="M 4.000000017255665,101.60000000000004 M 128.70000001725313,101.60000000000004 M 128.70000001727536,96.60000000043746 M 132.70000003849304,96.60000000044917 M 132.7000000385412,80.50211305960104 M 128.70000001732348,80.50211305958899 M 128.70000001736733,68.50000000044353 M 121.70000001736724,68.50000000041973 M 121.70000001751998,26.000000000412996 M 128.70000001751757,26.00000000043697 M 128.70000001753468,21.00000000043699 M 132.69999998319167,21.00000000045233 M 132.6999999832538,5.000000000452371 M 128.70000001758171,5.00000000043844 M 128.7000000175991,4.38392433466106e-10 M 4.000000017612663,0.0 M 4.00000001755712,15.800000000007696 M 2.459685788380739e-10,15.79999999999345 M 0.0,85.79999999999461 M 4.000000017311137,85.8000000000088 M 96.00000001735961,70.90000000032767 M 95.948888756792,71.28822856798124 M 95.799038123034,71.65000000032701 M 95.56066018913617,71.960660172106 M 95.25000001735552,72.19903810600188 M 94.88822858500887,72.34888873975775 M 94.50000001735489,72.40000000032285 M 94.11177144970134,72.34888873975511 M 93.75000001735555,72.199038105997 M 93.43933984557657,71.96066017209925 M 93.20096191168071,71.65000000031871 M 93.05111127792486,71.28822856797201 M 93.00000001735975,70.90000000031806 M 93.05111127792742,70.51177143266439 M 93.20096191168545,70.15000000031871 M 93.4393398455833,69.83933982853969 M 93.7500000173639,69.60096189464373 M 94.11177144971049,69.45111126088793 M 94.50000001736453,69.40000000032286 M 94.88822858501808,69.45111126089043 M 95.25000001736387,69.60096189464859 M 95.56066018914291,69.83933982854644 M 95.79903812303874,70.15000000032693 M 95.94888875679462,70.51177143267354 M 16.400000017591438,9.100000000059765 M 16.451111278158294,8.711771432409495 M 16.600961911914638,8.350000000066988 M 16.839339845809917,8.039339828290242 M 17.150000017587516,7.800961894396131 M 17.511771449930635,7.651111260641336 M 17.900000017580936,7.600000000076125 M 18.288228585231153,7.651111260642903 M 18.650000017573916,7.800961894399258 M 18.960660189350307,8.039339828294437 M 19.19903812324445,8.350000000071951 M 19.348888756999273,8.711771432415329 M 19.400000017564267,9.10000000006552 M 19.34888875699795,9.488228567715765 M 19.199038123241607,9.850000000058376 M 18.960660189346285,10.160660171834774 M 18.6500000175687,10.399038105728916 M 18.28822858522547,10.548888739483928 M 17.900000017575294,10.600000000048922 M 17.51177144992495,10.548888739482383 M 17.150000017582258,10.399038105725982 M 16.83933984580591,10.160660171830656 M 16.600961911911796,9.850000000053381 M 16.451111278156986,9.488228567710003 M 19.40000001735966,70.90000000005453 M 19.34888875679303,71.28822856770833 M 19.199038123035876,71.65000000005449 M 18.960660189138792,71.9606601718341 M 18.650000017358806,72.19903810573085 M 18.288228585012618,72.3488887394874 M 17.90000001735875,72.40000000005361 M 17.51177144970511,72.34888873948697 M 17.150000017358877,72.19903810572978 M 16.839339845579275,71.96066017183273 M 16.600961911682617,71.65000000005287 M 16.451111277925918,71.28822856770645 M 16.40000001735976,70.9000000000527 M 16.45111127792643,70.51177143239883 M 16.600961911683555,70.15000000005287 M 16.839339845580596,69.8393398282732 M 17.15000001736034,69.60096189437651 M 17.511771449706856,69.45111126061973 M 17.900000017360668,69.40000000005372 M 18.28822858501441,69.45111126062031 M 18.650000017360313,69.60096189437749 M 18.9606601891401,69.83933982827463 M 19.1990381230368,70.15000000005456 M 19.348888756793542,70.51177143240075 M 95.56066018935644,10.160660172106326 M 95.25000001757584,10.399038106002138 M 94.88822858522909,10.548888739757633 M 94.5000000175751,10.600000000322584 M 94.11177144992149,10.548888739754837 M 93.75000001757581,10.399038105996496 M 93.43933984579675,10.16066017209862 M 93.20096191190106,9.850000000317927 M 93.05111127814553,9.48822856797112 M 93.00000001758056,9.100000000317081 M 93.05111127814843,8.71177143266354 M 93.20096191190655,8.35000000031794 M 93.43933984580451,8.039339828538928 M 93.75000001758525,7.800961894643084 M 94.11177144993206,7.651111260887539 M 94.50000001758607,7.600000000322623 M 94.8882285852396,7.651111260890371 M 95.25000001758531,7.80096189464879 M 95.56066018936417,8.039339828546723 M 95.79903812325989,8.350000000327224 M 95.94888875701565,8.71177143267403 M 96.00000001758067,9.100000000328127 M 95.9488887570127,9.488228567981611 M 95.7990381232544,9.85000000032721 M 104.1686291676983,4.4313708502585385 M 103.91435937154276,4.100000000359165 M 103.75451869553672,3.7141104725225453 M 103.70000001760064,3.300000000358411 M 103.75451869553962,2.8858895281944577 M 103.91435937154836,2.5000000003591687 M 104.16862916770614,2.1686291504616104 M 104.50000001760554,1.914359354306045 M 104.88588954544207,1.754518678299993 M 105.30000001760627,1.7000000003640547 M 105.71411048977015,1.7545186783028797 M 106.10000001760554,1.9143593543117294 M 106.43137086750306,2.1686291504694157 M 106.68564066365855,2.5000000003690044 M 106.84548133966464,2.8858895282053663 M 106.90000001760063,3.3000000003697245 M 106.84548133966172,3.7141104725334966 M 106.68564066365298,4.1000000003689685 M 106.43137086749522,4.431370850266401 M 106.10000001759579,4.685640646421945 M 105.71411048975932,4.845481322427895 M 105.30000001759515,4.900000000363981 M 104.88588954543121,4.845481322424986 M 104.5000000175958,4.685640646416294 M 106.7005018725782,97.5263110749754 M 106.85302635795361,97.91515043867331 M 106.89971466470831,98.3302166640067 M 106.83738506189349,98.74322367364749 M 106.67028520893626,99.12602572241664 M 106.40980268467021,99.45253548329968 M 106.0736889426561,99.70050185567578 M 105.68484957895834,99.85302634105055 M 105.26978335362506,99.89971464780557 M 104.8567763439836,99.83738504499026 M 104.47397429521482,99.67028519203426 M 104.14746453433165,99.40980266776718 M 103.89949816195588,99.07368892575353 M 103.7469736765805,98.68484956205586 M 103.70028536982579,98.26978333672245 M 103.76261497264048,97.85677632708125 M 103.92971482559778,97.47397427831201 M 104.19019734986381,97.14746451742874 M 104.52631109187777,96.89949814505319 M 104.91515045557574,96.746973659678 M 105.33021668090885,96.70028535292278 M 105.74322369055031,96.76261495573802 M 106.1260257393192,96.92971480869504 M 106.4525355002022,97.19019733296128 M 16.199286005984646,97.4009797064582 M 16.38687099164308,97.77417086733361 M 16.471475194016136,98.1831964146296 M 16.44733297652735,98.60018193324473 M 16.31608959140135,98.99671054918642 M 16.08668905844469,99.34575949257281 M 15.774764644876058,99.62354165474278 M 15.401573484000565,99.81112664040124 M 14.992547936704483,99.89573084277426 M 14.575562418089476,99.87158862528536 M 14.179033802147785,99.74034524015939 M 13.829984858761364,99.51094470720261 M 13.55220269659138,99.1990202936341 M 13.364617710932862,98.82582913275861 M 13.280013508560032,98.41680358546267 M 13.304155726048833,97.99981806684761 M 13.435399111174817,97.60328945090583 M 13.664799644131477,97.25424050751953 M 13.97672405770011,96.97645834534954 M 14.34991521857549,96.78887335969107 M 14.758940765871458,96.70426915731812 M 15.175926284486692,96.72841137480698 M 15.572454900428397,96.85965475993297 M 15.921503843814662,97.0890552928896 M 16.240593022680486,4.310410310636659 M 15.93680740937232,4.59707051113009 M 15.569179920462034,4.795337499803402 M 15.162763761786152,4.891699709030384 M 14.745255522923799,4.879590213498375 M 14.345107700388496,4.759834255315782 M 13.98958970701048,4.540593005126693 M 13.702929506517322,4.236807391818337 M 13.504662517843855,3.869179902908126 M 13.408300308616845,3.4627637442322836 M 13.42040980414913,3.0452555053700046 M 13.540165762331725,2.64510768283459 M 13.759407012520711,2.2895896894565 M 14.063192625828876,2.0029294889633285 M 14.43082011473895,1.8046625002899592 M 14.837236273415058,1.7083002910628995 M 15.254744512277256,1.720409786595111 M 15.6548923348127,1.8401657447777708 M 16.010410328190744,2.0594069949666345 M 16.297070528683875,2.3631926082749573 M 16.495337517357356,2.730820097185145 M 16.59169972658411,3.137236255861101 M 16.579590231052094,3.5547444947235256 M 16.4598342728695,3.9548923172587163 M 94.49999997285619,15.100000000322801 M 94.50000006208717,64.90000000032325 M 92.9470857827514,65.10444503294163 M 91.50000004319043,65.70384756270492 M 90.25735934606328,66.65735929738402 M 89.30384760211709,67.89999998740024 M 88.70444506156204,69.34708572249112 M 88.50000001736262,70.90000000030224 M 23.900000017364036,70.90000000007538 M 23.695554977032245,69.34708573665621 M 23.096152447531765,67.90000001297736 M 22.14264072030329,66.65735932875505 M 20.90000004319191,65.70384759225935 M 19.452914323983066,65.1044450519671 M 17.90000006208858,64.90000000005429 M 17.90000001756026,15.100000000053935 M 19.452914288175933,14.895554957793816 M 20.900000017562903,14.296152422771026 M 22.142640704685533,13.34264068718812 M 23.096152440277322,12.100000000072193 M 23.69555497531009,10.652914270689365 M 23.90000001758122,9.100000000074857 M 88.50000001758076,9.100000000301787 M 88.70444505791255,10.65291426372081 M 89.30384758741297,12.09999998739977 M 90.25735931464143,13.342640671622142 M 91.4999999917529,14.296152408117702 M 92.94708571096172,14.895554948410048 "
  />
  <path id="face0-interior"
 style="fill:none;stroke:#FF0000;stroke-width:0.1;stroke-miterlimit:4;stroke-dasharray:none;stroke-linejoin:round;stroke-linecap:round"
        d="M 4.000000017255665,101.60000000000004 M 128.70000001725313,101.60000000000004 M 128.70000001727536,96.60000000043746 M 132.70000003849304,96.60000000044917 M 132.7000000385412,80.50211305960104 M 128.70000001732348,80.50211305958899 M 128.70000001736733,68.50000000044353 M 121.70000001736724,68.50000000041973 M 121.70000001751998,26.000000000412996 M 128.70000001751757,26.00000000043697 M 128.70000001753468,21.00000000043699 M 132.69999998319167,21.00000000045233 M 132.6999999832538,5.000000000452371 M 128.70000001758171,5.00000000043844 M 128.7000000175991,4.38392433466106e-10 M 4.000000017612663,0.0 M 4.00000001755712,15.800000000007696 M 2.459685788380739e-10,15.79999999999345 M 0.0,85.79999999999461 M 4.000000017311137,85.8000000000088 M 96.00000001735961,70.90000000032767 M 95.948888756792,71.28822856798124 M 95.799038123034,71.65000000032701 M 95.56066018913617,71.960660172106 M 95.25000001735552,72.19903810600188 M 94.88822858500887,72.34888873975775 M 94.50000001735489,72.40000000032285 M 94.11177144970134,72.34888873975511 M 93.75000001735555,72.199038105997 M 93.43933984557657,71.96066017209925 M 93.20096191168071,71.65000000031871 M 93.05111127792486,71.28822856797201 M 93.00000001735975,70.90000000031806 M 93.05111127792742,70.51177143266439 M 93.20096191168545,70.15000000031871 M 93.4393398455833,69.83933982853969 M 93.7500000173639,69.60096189464373 M 94.11177144971049,69.45111126088793 M 94.50000001736453,69.40000000032286 M 94.88822858501808,69.45111126089043 M 95.25000001736387,69.60096189464859 M 95.56066018914291,69.83933982854644 M 95.79903812303874,70.15000000032693 M 95.94888875679462,70.51177143267354 M 16.400000017591438,9.100000000059765 M 16.451111278158294,8.711771432409495 M 16.600961911914638,8.350000000066988 M 16.839339845809917,8.039339828290242 M 17.150000017587516,7.800961894396131 M 17.511771449930635,7.651111260641336 M 17.900000017580936,7.600000000076125 M 18.288228585231153,7.651111260642903 M 18.650000017573916,7.800961894399258 M 18.960660189350307,8.039339828294437 M 19.19903812324445,8.350000000071951 M 19.348888756999273,8.711771432415329 M 19.400000017564267,9.10000000006552 M 19.34888875699795,9.488228567715765 M 19.199038123241607,9.850000000058376 M 18.960660189346285,10.160660171834774 M 18.6500000175687,10.399038105728916 M 18.28822858522547,10.548888739483928 M 17.900000017575294,10.600000000048922 M 17.51177144992495,10.548888739482383 M 17.150000017582258,10.399038105725982 M 16.83933984580591,10.160660171830656 M 16.600961911911796,9.850000000053381 M 16.451111278156986,9.488228567710003 M 19.40000001735966,70.90000000005453 M 19.34888875679303,71.28822856770833 M 19.199038123035876,71.65000000005449 M 18.960660189138792,71.9606601718341 M 18.650000017358806,72.19903810573085 M 18.288228585012618,72.3488887394874 M 17.90000001735875,72.40000000005361 M 17.51177144970511,72.34888873948697 M 17.150000017358877,72.19903810572978 M 16.839339845579275,71.96066017183273 M 16.600961911682617,71.65000000005287 M 16.451111277925918,71.28822856770645 M 16.40000001735976,70.9000000000527 M 16.45111127792643,70.51177143239883 M 16.600961911683555,70.15000000005287 M 16.839339845580596,69.8393398282732 M 17.15000001736034,69.60096189437651 M 17.511771449706856,69.45111126061973 M 17.900000017360668,69.40000000005372 M 18.28822858501441,69.45111126062031 M 18.650000017360313,69.60096189437749 M 18.9606601891401,69.83933982827463 M 19.1990381230368,70.15000000005456 M 19.348888756793542,70.51177143240075 M 95.56066018935644,10.160660172106326 M 95.25000001757584,10.399038106002138 M 94.88822858522909,10.548888739757633 M 94.5000000175751,10.600000000322584 M 94.11177144992149,10.548888739754837 M 93.75000001757581,10.399038105996496 M 93.43933984579675,10.16066017209862 M 93.20096191190106,9.850000000317927 M 93.05111127814553,9.48822856797112 M 93.00000001758056,9.100000000317081 M 93.05111127814843,8.71177143266354 M 93.20096191190655,8.35000000031794 M 93.43933984580451,8.039339828538928 M 93.75000001758525,7.800961894643084 M 94.11177144993206,7.651111260887539 M 94.50000001758607,7.600000000322623 M 94.8882285852396,7.651111260890371 M 95.25000001758531,7.80096189464879 M 95.56066018936417,8.039339828546723 M 95.79903812325989,8.350000000327224 M 95.94888875701565,8.71177143267403 M 96.00000001758067,9.100000000328127 M 95.9488887570127,9.488228567981611 M 95.7990381232544,9.85000000032721 M 104.1686291676983,4.4313708502585385 M 103.91435937154276,4.100000000359165 M 103.75451869553672,3.7141104725225453 M 103.70000001760064,3.300000000358411 M 103.75451869553962,2.8858895281944577 M 103.91435937154836,2.5000000003591687 M 104.16862916770614,2.1686291504616104 M 104.50000001760554,1.914359354306045 M 104.88588954544207,1.754518678299993 M 105.30000001760627,1.7000000003640547 M 105.71411048977015,1.7545186783028797 M 106.10000001760554,1.9143593543117294 M 106.43137086750306,2.1686291504694157 M 106.68564066365855,2.5000000003690044 M 106.84548133966464,2.8858895282053663 M 106.90000001760063,3.3000000003697245 M 106.84548133966172,3.7141104725334966 M 106.68564066365298,4.1000000003689685 M 106.43137086749522,4.431370850266401 M 106.10000001759579,4.685640646421945 M 105.71411048975932,4.845481322427895 M 105.30000001759515,4.900000000363981 M 104.88588954543121,4.845481322424986 M 104.5000000175958,4.685640646416294 M 106.7005018725782,97.5263110749754 M 106.85302635795361,97.91515043867331 M 106.89971466470831,98.3302166640067 M 106.83738506189349,98.74322367364749 M 106.67028520893626,99.12602572241664 M 106.40980268467021,99.45253548329968 M 106.0736889426561,99.70050185567578 M 105.68484957895834,99.85302634105055 M 105.26978335362506,99.89971464780557 M 104.8567763439836,99.83738504499026 M 104.47397429521482,99.67028519203426 M 104.14746453433165,99.40980266776718 M 103.89949816195588,99.07368892575353 M 103.7469736765805,98.68484956205586 M 103.70028536982579,98.26978333672245 M 103.76261497264048,97.85677632708125 M 103.92971482559778,97.47397427831201 M 104.19019734986381,97.14746451742874 M 104.52631109187777,96.89949814505319 M 104.91515045557574,96.746973659678 M 105.33021668090885,96.70028535292278 M 105.74322369055031,96.76261495573802 M 106.1260257393192,96.92971480869504 M 106.4525355002022,97.19019733296128 M 16.199286005984646,97.4009797064582 M 16.38687099164308,97.77417086733361 M 16.471475194016136,98.1831964146296 M 16.44733297652735,98.60018193324473 M 16.31608959140135,98.99671054918642 M 16.08668905844469,99.34575949257281 M 15.774764644876058,99.62354165474278 M 15.401573484000565,99.81112664040124 M 14.992547936704483,99.89573084277426 M 14.575562418089476,99.87158862528536 M 14.179033802147785,99.74034524015939 M 13.829984858761364,99.51094470720261 M 13.55220269659138,99.1990202936341 M 13.364617710932862,98.82582913275861 M 13.280013508560032,98.41680358546267 M 13.304155726048833,97.99981806684761 M 13.435399111174817,97.60328945090583 M 13.664799644131477,97.25424050751953 M 13.97672405770011,96.97645834534954 M 14.34991521857549,96.78887335969107 M 14.758940765871458,96.70426915731812 M 15.175926284486692,96.72841137480698 M 15.572454900428397,96.85965475993297 M 15.921503843814662,97.0890552928896 M 16.240593022680486,4.310410310636659 M 15.93680740937232,4.59707051113009 M 15.569179920462034,4.795337499803402 M 15.162763761786152,4.891699709030384 M 14.745255522923799,4.879590213498375 M 14.345107700388496,4.759834255315782 M 13.98958970701048,4.540593005126693 M 13.702929506517322,4.236807391818337 M 13.504662517843855,3.869179902908126 M 13.408300308616845,3.4627637442322836 M 13.42040980414913,3.0452555053700046 M 13.540165762331725,2.64510768283459 M 13.759407012520711,2.2895896894565 M 14.063192625828876,2.0029294889633285 M 14.43082011473895,1.8046625002899592 M 14.837236273415058,1.7083002910628995 M 15.254744512277256,1.720409786595111 M 15.6548923348127,1.8401657447777708 M 16.010410328190744,2.0594069949666345 M 16.297070528683875,2.3631926082749573 M 16.495337517357356,2.730820097185145 M 16.59169972658411,3.137236255861101 M 16.579590231052094,3.5547444947235256 M 16.4598342728695,3.9548923172587163 M 94.49999997285619,15.100000000322801 M 94.50000006208717,64.90000000032325 M 92.9470857827514,65.10444503294163 M 91.50000004319043,65.70384756270492 M 90.25735934606328,66.65735929738402 M 89.30384760211709,67.89999998740024 M 88.70444506156204,69.34708572249112 M 88.50000001736262,70.90000000030224 M 23.900000017364036,70.90000000007538 M 23.695554977032245,69.34708573665621 M 23.096152447531765,67.90000001297736 M 22.14264072030329,66.65735932875505 M 20.90000004319191,65.70384759225935 M 19.452914323983066,65.1044450519671 M 17.90000006208858,64.90000000005429 M 17.90000001756026,15.100000000053935 M 19.452914288175933,14.895554957793816 M 20.900000017562903,14.296152422771026 M 22.142640704685533,13.34264068718812 M 23.096152440277322,12.100000000072193 M 23.69555497531009,10.652914270689365 M 23.90000001758122,9.100000000074857 M 88.50000001758076,9.100000000301787 M 88.70444505791255,10.65291426372081 M 89.30384758741297,12.09999998739977 M 90.25735931464143,13.342640671622142 M 91.4999999917529,14.296152408117702 M 92.94708571096172,14.895554948410048 "
  />
</svg>
