<?xml version="1.0" standalone="no"?>
<!DOCTYPE svg PUBLIC "-//W3C//DTD SVG 1.1//EN" "http://www.w3.org/Graphics/SVG/1.1/DTD/svg11.dtd">
<svg width="24.000000000006537mm" height="36.00000000000003mm"
 viewBox="0 0 24.000000000006537 36.00000000000003"
 xmlns="http://www.w3.org/2000/svg" version="1.1"
 xmlns:xlink="http://www.w3.org/1999/xlink">
<desc>Output from Flights of Ideas SVG Sketchup Plugin</desc>

  <path id="face0-cut"
 style="fill:none;stroke:#FF0000;stroke-width:0.1;stroke-miterlimit:4;stroke-dasharray:none;stroke-linejoin:round;stroke-linecap:round"
        d="M 23.000000000006537,1.0 L 1.000000000006537,1.0 L 1.0,35.0 L 22.999999999999986,35.00000000000003 L 23.000000000006537,1.0 M 1.4000000000061306,2.99999999999973 L 1.454518677943696,2.5858895278356755 L 1.614359353951187,2.1999999999997044 L 1.8686291501078784,1.8686291501012278 L 2.200000000006412,1.6143593539447068 L 2.5858895278424114,1.4545186779373154 L 3.000000000006466,1.40000000000002 L 3.414110472170492,1.4545186779374433 L 3.800000000006449,1.6143593539449625 L 4.131370849904883,1.8686291501017536 L 4.385640646061432,2.200000000000273 L 4.545481322068781,2.5858895278363008 L 4.60000000000619,3.000000000000341 L 4.545481322068625,3.4141104721643387 L 4.385640646061134,3.8000000000002814 L 4.131370849904442,4.131370849898758 L 3.8000000000058947,4.3856406460553075 L 3.4141104721699094,4.545481322062628 L 3.000000000005855,4.600000000000065 L 2.5858895278418146,4.545481322062457 L 2.200000000005872,4.385640646054966 L 1.868629150107438,4.131370849898289 L 1.6143593539508743,3.7999999999997414 L 1.4545186779435397,3.414110472163756 L 1.4000000000061306,2.99999999999973 M 21.414110472169057,4.545481322062727 L 21.00000000000584,4.600000000000023 L 20.58588952784264,4.545481322062571 L 20.200000000007464,4.385640646055421 L 19.868629150109683,4.131370849899227 L 19.61435935395363,3.8000000000013756 L 19.45451867794661,3.4141104721661293 L 19.400000000009314,3.0000000000029274 L 19.45451867794678,2.5858895278397114 L 19.61435935395393,2.2000000000045503 L 19.868629150110124,1.8686291501067842 L 20.20000000000799,1.6143593539507322 L 20.58588952784322,1.454518677943696 L 21.000000000006438,1.4000000000064006 L 21.414110472169654,1.4545186779438808 L 21.800000000004815,1.6143593539510306 L 22.131370849902595,1.8686291501072105 L 22.385640646058647,2.200000000005076 L 22.54548132206567,2.5858895278403224 L 22.600000000002964,3.0000000000035385 L 22.545481322065513,3.414110472166712 L 22.38564064605835,3.800000000001887 L 22.131370849902154,4.1313708498996675 L 21.80000000000429,4.385640646055734 L 21.414110472169057,4.545481322062727 M 19.40000000000036,32.999999999999744 L 19.45451867793794,32.58588952783572 L 19.614359353945417,32.19999999999979 L 19.86862915010211,31.868629150101356 L 20.200000000000642,31.614359353944792 L 20.585889527836642,31.45451867793747 L 21.000000000000682,31.400000000000063 L 21.414110472164708,31.454518677937614 L 21.80000000000065,31.614359353945105 L 22.13137084989907,31.86862915010181 L 22.385640646055634,32.20000000000033 L 22.545481322062955,32.585889527836315 L 22.600000000000364,33.00000000000037 L 22.545481322062784,33.41411047216437 L 22.385640646055307,33.800000000000324 L 22.131370849898616,34.13137084989876 L 21.800000000000097,34.38564064605532 L 21.414110472164097,34.54548132206264 L 21.000000000000043,34.60000000000005 L 20.58588952783603,34.54548132206247 L 20.200000000000102,34.38564064605501 L 19.86862915010167,34.1313708498983 L 19.614359353945105,33.799999999999756 L 19.45451867793777,33.41411047216377 L 19.40000000000036,32.999999999999744 M 3.4141104721643813,31.454518677937585 L 3.800000000000338,31.61435935394499 L 4.131370849898801,31.86862915010161 L 4.385640646055407,32.200000000000045 L 4.5454813220628125,32.58588952783603 L 4.600000000000293,33.00000000000003 L 4.5454813220628125,33.414110472164054 L 4.385640646055421,33.79999999999998 L 4.131370849898801,34.131370849898445 L 3.800000000000324,34.38564064605504 L 3.4141104721643813,34.54548132206244 L 3.000000000000398,34.599999999999966 L 2.585889527836372,34.54548132206244 L 2.200000000000415,34.38564064605504 L 1.8686291501019667,34.131370849898445 L 1.6143593539453462,33.79999999999998 L 1.454518677937969,33.414110472164054 L 1.4000000000004746,33.00000000000003 L 1.4545186779379549,32.58588952783603 L 1.614359353945332,32.200000000000045 L 1.8686291501019667,31.86862915010161 L 2.200000000000415,31.61435935394499 L 2.585889527836372,31.454518677937614 L 3.000000000000398,31.40000000000012 L 3.4141104721643813,31.454518677937585 M 12.630000000004145,15.629999999999995 L 11.37000000000387,15.630000000000038 L 11.111180954901371,15.59592582628909 L 10.870000000003913,15.496025403784387 L 10.662893218817402,15.337106781186478 L 10.50397459621955,15.12999999999991 L 10.404074173714989,14.888819045102423 L 10.370000000004097,14.62999999999991 L 10.370000000005078,9.369999999999692 L 10.404074173716012,9.11118095489718 L 10.503974596220644,8.869999999999692 L 10.662893218818539,8.662893218813139 L 10.870000000005078,8.503974596215258 L 11.111180954902565,8.404074173710626 L 11.370000000005078,8.369999999999706 L 12.630000000005268,8.36999999999992 L 12.88881904510778,8.404074173710896 L 13.130000000005225,8.50397459621557 L 13.337106781191764,8.662893218813494 L 13.496025403789616,8.870000000000076 L 13.595925826294206,9.111180954897563 L 13.630000000005083,9.37000000000009 L 13.63000000000406,14.630000000000095 L 13.595925826293126,14.88881904510258 L 13.496025403788522,15.130000000000038 L 13.337106781190627,15.337106781186577 L 13.130000000004102,15.49602540378443 L 12.888819045106644,15.595925826289061 L 12.630000000004145,15.629999999999995 "
  />
  <path id="face0-interior"
 style="fill:none;stroke:#FF0000;stroke-width:0.1;stroke-miterlimit:4;stroke-dasharray:none;stroke-linejoin:round;stroke-linecap:round"
        d="M 23.000000000006537,1.0 M 1.000000000006537,1.0 M 1.0,35.0 M 22.999999999999986,35.00000000000003 M 1.4000000000061306,2.99999999999973 M 1.454518677943696,2.5858895278356755 M 1.614359353951187,2.1999999999997044 M 1.8686291501078784,1.8686291501012278 M 2.200000000006412,1.6143593539447068 M 2.5858895278424114,1.4545186779373154 M 3.000000000006466,1.40000000000002 M 3.414110472170492,1.4545186779374433 M 3.800000000006449,1.6143593539449625 M 4.131370849904883,1.8686291501017536 M 4.385640646061432,2.200000000000273 M 4.545481322068781,2.5858895278363008 M 4.60000000000619,3.000000000000341 M 4.545481322068625,3.4141104721643387 M 4.385640646061134,3.8000000000002814 M 4.131370849904442,4.131370849898758 M 3.8000000000058947,4.3856406460553075 M 3.4141104721699094,4.545481322062628 M 3.000000000005855,4.600000000000065 M 2.5858895278418146,4.545481322062457 M 2.200000000005872,4.385640646054966 M 1.868629150107438,4.131370849898289 M 1.6143593539508743,3.7999999999997414 M 1.4545186779435397,3.414110472163756 M 21.414110472169057,4.545481322062727 M 21.00000000000584,4.600000000000023 M 20.58588952784264,4.545481322062571 M 20.200000000007464,4.385640646055421 M 19.868629150109683,4.131370849899227 M 19.61435935395363,3.8000000000013756 M 19.45451867794661,3.4141104721661293 M 19.400000000009314,3.0000000000029274 M 19.45451867794678,2.5858895278397114 M 19.61435935395393,2.2000000000045503 M 19.868629150110124,1.8686291501067842 M 20.20000000000799,1.6143593539507322 M 20.58588952784322,1.454518677943696 M 21.000000000006438,1.4000000000064006 M 21.414110472169654,1.4545186779438808 M 21.800000000004815,1.6143593539510306 M 22.131370849902595,1.8686291501072105 M 22.385640646058647,2.200000000005076 M 22.54548132206567,2.5858895278403224 M 22.600000000002964,3.0000000000035385 M 22.545481322065513,3.414110472166712 M 22.38564064605835,3.800000000001887 M 22.131370849902154,4.1313708498996675 M 21.80000000000429,4.385640646055734 M 19.40000000000036,32.999999999999744 M 19.45451867793794,32.58588952783572 M 19.614359353945417,32.19999999999979 M 19.86862915010211,31.868629150101356 M 20.200000000000642,31.614359353944792 M 20.585889527836642,31.45451867793747 M 21.000000000000682,31.400000000000063 M 21.414110472164708,31.454518677937614 M 21.80000000000065,31.614359353945105 M 22.13137084989907,31.86862915010181 M 22.385640646055634,32.20000000000033 M 22.545481322062955,32.585889527836315 M 22.600000000000364,33.00000000000037 M 22.545481322062784,33.41411047216437 M 22.385640646055307,33.800000000000324 M 22.131370849898616,34.13137084989876 M 21.800000000000097,34.38564064605532 M 21.414110472164097,34.54548132206264 M 21.000000000000043,34.60000000000005 M 20.58588952783603,34.54548132206247 M 20.200000000000102,34.38564064605501 M 19.86862915010167,34.1313708498983 M 19.614359353945105,33.799999999999756 M 19.45451867793777,33.41411047216377 M 3.4141104721643813,31.454518677937585 M 3.800000000000338,31.61435935394499 M 4.131370849898801,31.86862915010161 M 4.385640646055407,32.200000000000045 M 4.5454813220628125,32.58588952783603 M 4.600000000000293,33.00000000000003 M 4.5454813220628125,33.414110472164054 M 4.385640646055421,33.79999999999998 M 4.131370849898801,34.131370849898445 M 3.800000000000324,34.38564064605504 M 3.4141104721643813,34.54548132206244 M 3.000000000000398,34.599999999999966 M 2.585889527836372,34.54548132206244 M 2.200000000000415,34.38564064605504 M 1.8686291501019667,34.131370849898445 M 1.6143593539453462,33.79999999999998 M 1.454518677937969,33.414110472164054 M 1.4000000000004746,33.00000000000003 M 1.4545186779379549,32.58588952783603 M 1.614359353945332,32.200000000000045 M 1.8686291501019667,31.86862915010161 M 2.200000000000415,31.61435935394499 M 2.585889527836372,31.454518677937614 M 3.000000000000398,31.40000000000012 M 12.630000000004145,15.629999999999995 M 11.37000000000387,15.630000000000038 M 11.111180954901371,15.59592582628909 M 10.870000000003913,15.496025403784387 M 10.662893218817402,15.337106781186478 M 10.50397459621955,15.12999999999991 M 10.404074173714989,14.888819045102423 M 10.370000000004097,14.62999999999991 M 10.370000000005078,9.369999999999692 M 10.404074173716012,9.11118095489718 M 10.503974596220644,8.869999999999692 M 10.662893218818539,8.662893218813139 M 10.870000000005078,8.503974596215258 M 11.111180954902565,8.404074173710626 M 11.370000000005078,8.369999999999706 M 12.630000000005268,8.36999999999992 M 12.88881904510778,8.404074173710896 M 13.130000000005225,8.50397459621557 M 13.337106781191764,8.662893218813494 M 13.496025403789616,8.870000000000076 M 13.595925826294206,9.111180954897563 M 13.630000000005083,9.37000000000009 M 13.63000000000406,14.630000000000095 M 13.595925826293126,14.88881904510258 M 13.496025403788522,15.130000000000038 M 13.337106781190627,15.337106781186577 M 13.130000000004102,15.49602540378443 M 12.888819045106644,15.595925826289061 "
  />
  <path id="face0-interior"
 style="fill:none;stroke:#FF0000;stroke-width:0.1;stroke-miterlimit:4;stroke-dasharray:none;stroke-linejoin:round;stroke-linecap:round"
        d="M 23.000000000006537,1.0 M 1.000000000006537,1.0 M 1.0,35.0 M 22.999999999999986,35.00000000000003 M 1.4000000000061306,2.99999999999973 M 1.454518677943696,2.5858895278356755 M 1.614359353951187,2.1999999999997044 M 1.8686291501078784,1.8686291501012278 M 2.200000000006412,1.6143593539447068 M 2.5858895278424114,1.4545186779373154 M 3.000000000006466,1.40000000000002 M 3.414110472170492,1.4545186779374433 M 3.800000000006449,1.6143593539449625 M 4.131370849904883,1.8686291501017536 M 4.385640646061432,2.200000000000273 M 4.545481322068781,2.5858895278363008 M 4.60000000000619,3.000000000000341 M 4.545481322068625,3.4141104721643387 M 4.385640646061134,3.8000000000002814 M 4.131370849904442,4.131370849898758 M 3.8000000000058947,4.3856406460553075 M 3.4141104721699094,4.545481322062628 M 3.000000000005855,4.600000000000065 M 2.5858895278418146,4.545481322062457 M 2.200000000005872,4.385640646054966 M 1.868629150107438,4.131370849898289 M 1.6143593539508743,3.7999999999997414 M 1.4545186779435397,3.414110472163756 M 21.414110472169057,4.545481322062727 M 21.00000000000584,4.600000000000023 M 20.58588952784264,4.545481322062571 M 20.200000000007464,4.385640646055421 M 19.868629150109683,4.131370849899227 M 19.61435935395363,3.8000000000013756 M 19.45451867794661,3.4141104721661293 M 19.400000000009314,3.0000000000029274 M 19.45451867794678,2.5858895278397114 M 19.61435935395393,2.2000000000045503 M 19.868629150110124,1.8686291501067842 M 20.20000000000799,1.6143593539507322 M 20.58588952784322,1.454518677943696 M 21.000000000006438,1.4000000000064006 M 21.414110472169654,1.4545186779438808 M 21.800000000004815,1.6143593539510306 M 22.131370849902595,1.8686291501072105 M 22.385640646058647,2.200000000005076 M 22.54548132206567,2.5858895278403224 M 22.600000000002964,3.0000000000035385 M 22.545481322065513,3.414110472166712 M 22.38564064605835,3.800000000001887 M 22.131370849902154,4.1313708498996675 M 21.80000000000429,4.385640646055734 M 19.40000000000036,32.999999999999744 M 19.45451867793794,32.58588952783572 M 19.614359353945417,32.19999999999979 M 19.86862915010211,31.868629150101356 M 20.200000000000642,31.614359353944792 M 20.585889527836642,31.45451867793747 M 21.000000000000682,31.400000000000063 M 21.414110472164708,31.454518677937614 M 21.80000000000065,31.614359353945105 M 22.13137084989907,31.86862915010181 M 22.385640646055634,32.20000000000033 M 22.545481322062955,32.585889527836315 M 22.600000000000364,33.00000000000037 M 22.545481322062784,33.41411047216437 M 22.385640646055307,33.800000000000324 M 22.131370849898616,34.13137084989876 M 21.800000000000097,34.38564064605532 M 21.414110472164097,34.54548132206264 M 21.000000000000043,34.60000000000005 M 20.58588952783603,34.54548132206247 M 20.200000000000102,34.38564064605501 M 19.86862915010167,34.1313708498983 M 19.614359353945105,33.799999999999756 M 19.45451867793777,33.41411047216377 M 3.4141104721643813,31.454518677937585 M 3.800000000000338,31.61435935394499 M 4.131370849898801,31.86862915010161 M 4.385640646055407,32.200000000000045 M 4.5454813220628125,32.58588952783603 M 4.600000000000293,33.00000000000003 M 4.5454813220628125,33.414110472164054 M 4.385640646055421,33.79999999999998 M 4.131370849898801,34.131370849898445 M 3.800000000000324,34.38564064605504 M 3.4141104721643813,34.54548132206244 M 3.000000000000398,34.599999999999966 M 2.585889527836372,34.54548132206244 M 2.200000000000415,34.38564064605504 M 1.8686291501019667,34.131370849898445 M 1.6143593539453462,33.79999999999998 M 1.454518677937969,33.414110472164054 M 1.4000000000004746,33.00000000000003 M 1.4545186779379549,32.58588952783603 M 1.614359353945332,32.200000000000045 M 1.8686291501019667,31.86862915010161 M 2.200000000000415,31.61435935394499 M 2.585889527836372,31.454518677937614 M 3.000000000000398,31.40000000000012 M 12.630000000004145,15.629999999999995 M 11.37000000000387,15.630000000000038 M 11.111180954901371,15.59592582628909 M 10.870000000003913,15.496025403784387 M 10.662893218817402,15.337106781186478 M 10.50397459621955,15.12999999999991 M 10.404074173714989,14.888819045102423 M 10.370000000004097,14.62999999999991 M 10.370000000005078,9.369999999999692 M 10.404074173716012,9.11118095489718 M 10.503974596220644,8.869999999999692 M 10.662893218818539,8.662893218813139 M 10.870000000005078,8.503974596215258 M 11.111180954902565,8.404074173710626 M 11.370000000005078,8.369999999999706 M 12.630000000005268,8.36999999999992 M 12.88881904510778,8.404074173710896 M 13.130000000005225,8.50397459621557 M 13.337106781191764,8.662893218813494 M 13.496025403789616,8.870000000000076 M 13.595925826294206,9.111180954897563 M 13.630000000005083,9.37000000000009 M 13.63000000000406,14.630000000000095 M 13.595925826293126,14.88881904510258 M 13.496025403788522,15.130000000000038 M 13.337106781190627,15.337106781186577 M 13.130000000004102,15.49602540378443 M 12.888819045106644,15.595925826289061 "
  />
</svg>
