<?xml version="1.0" encoding="UTF-8" standalone="no"?>
<svg
   xmlns:dc="http://purl.org/dc/elements/1.1/"
   xmlns:cc="http://creativecommons.org/ns#"
   xmlns:rdf="http://www.w3.org/1999/02/22-rdf-syntax-ns#"
   xmlns:svg="http://www.w3.org/2000/svg"
   xmlns="http://www.w3.org/2000/svg"
   xmlns:sodipodi="http://sodipodi.sourceforge.net/DTD/sodipodi-0.dtd"
   xmlns:inkscape="http://www.inkscape.org/namespaces/inkscape"
   width="177.70000000407134mm"
   height="137.99999999999898mm"
   viewBox="0 0 177.70000000407134 137.99999999999898"
   version="1.1"
   id="svg2"
   inkscape:version="0.91 r13725"
   sodipodi:docname="hex-side-back.svg">
  <metadata
     id="metadata14">
    <rdf:RDF>
      <cc:Work
         rdf:about="">
        <dc:format>image/svg+xml</dc:format>
        <dc:type
           rdf:resource="http://purl.org/dc/dcmitype/StillImage" />
      </cc:Work>
    </rdf:RDF>
  </metadata>
  <defs
     id="defs12" />
  <sodipodi:namedview
     pagecolor="#ffffff"
     bordercolor="#666666"
     borderopacity="1"
     objecttolerance="10"
     gridtolerance="10"
     guidetolerance="10"
     inkscape:pageopacity="0"
     inkscape:pageshadow="2"
     inkscape:window-width="2498"
     inkscape:window-height="1057"
     id="namedview10"
     showgrid="false"
     showguides="true"
     inkscape:guide-bbox="true"
     inkscape:zoom="1.3651146"
     inkscape:cx="292.14958"
     inkscape:cy="276.55787"
     inkscape:window-x="54"
     inkscape:window-y="-8"
     inkscape:window-maximized="1"
     inkscape:current-layer="svg2" />
  <desc
     id="desc4">Output from Flights of Ideas SVG Sketchup Plugin</desc>
  <path
     id="face0-cut"
     style="fill:none;stroke:#FF0000;stroke-width:0.1;stroke-miterlimit:4;stroke-dasharray:none;stroke-linejoin:round;stroke-linecap:round"
     d="M 177.7000000040713,0.0 L 2.758611117315013e-10,2.842170943040401e-14 L 0.0,137.99999984230925 L 177.70000000407134,137.99999999999898 L 177.7000000040713,0.0 M 166.18492424456306,8.515075747638875 L 166.51865335201862,8.949999988130614 L 166.72844423927833,9.4564799934153 L 166.8000000040713,9.999999988130597 L 166.72844423927833,10.543519982845922 L 166.51865335201862,11.04999998813058 L 166.18492424456306,11.484924228622347 L 165.75000000407132,11.818653336077901 L 165.2435199987866,12.028444223337644 L 164.70000000407128,12.09999998813062 L 164.15648000935602,12.028444223337644 L 163.6500000040713,11.818653336077901 L 163.21507576357956,11.484924228622347 L 162.88134665612398,11.049999988130608 L 162.67155576886427,10.543519982845922 L 162.60000000407132,9.999999988130597 L 162.67155576886427,9.4564799934153 L 162.88134665612398,8.949999988130614 L 163.21507576357956,8.515075747638875 L 163.6500000040713,8.181346640183264 L 164.15648000935602,7.97155575292355 L 164.70000000407128,7.8999999881306024 L 165.2435199987866,7.97155575292355 L 165.75000000407132,8.181346640183264 L 166.18492424456306,8.515075747638875 M 162.881346656124,129.04999998812974 L 162.67155576886427,128.543519982845 L 162.60000000407132,127.99999998812969 L 162.67155576886427,127.45647999341436 L 162.88134665612398,126.94999998812968 L 163.21507576357956,126.51507574763794 L 163.65000000407133,126.18134664018238 L 164.15648000935602,125.97155575292264 L 164.7000000040713,125.89999998812966 L 165.2435199987866,125.97155575292264 L 165.75000000407127,126.18134664018238 L 166.18492424456304,126.51507574763788 L 166.5186533520186,126.94999998812976 L 166.72844423927836,127.45647999341436 L 166.8000000040713,127.99999998812969 L 166.72844423927833,128.543519982845 L 166.51865335201862,129.04999998812968 L 166.18492424456304,129.48492422862142 L 165.7500000040713,129.81865333607698 L 165.2435199987866,130.02844422333675 L 164.70000000407128,130.0999999881297 L 164.15648000935602,130.02844422333675 L 163.65000000407133,129.81865333607703 L 163.2150757635796,129.48492422862142 L 162.881346656124,129.04999998812974 M 5.000000000218051,27.899999846745928 L 20.50000000021808,27.899999860500643 L 20.630526192511454,27.908554999136427 L 20.75881904546347,27.93407403424989 L 20.88268343278814,27.976120328074344 L 21.000000000474245,28.033974456864186 L 21.108761429520158,28.106646520434495 L 21.207106781718366,28.192893079628035 L 21.293353340824453,28.291238431902755 L 21.366025404298327,28.399999861013 L 21.42387953298409,28.517316428750703 L 21.465925826698566,28.641180816112453 L 21.49144486169807,28.76947366908719 L 21.50000000021808,28.89999986138814 L 21.50000000018413,45.899999860500785 L 21.49144486155788,46.03052605272093 L 21.465925826473054,46.15881890560358 L 21.42387953269521,46.28268329286625 L 21.36602540396821,46.39999986050127 L 21.293353340474823,46.508761289510105 L 21.20710678136993,46.60710664168799 L 21.108761429191915,46.69335320079263 L 21.000000000182936,46.76602526428577 L 20.882683432547807,46.82387939301255 L 20.758819045285037,46.86592568679028 L 20.63052619240233,46.89144472187475 L 20.500000000182098,46.899999860500756 L 5.000000000182098,46.89999984674604 L 4.86947380788888,46.89144470810989 L 4.741180954937121,46.865925672996426 L 4.617316567612633,46.823879379171856 L 4.499999999926786,46.76602525038193 L 4.391238570881114,46.69335318681142 L 4.292893218683091,46.60710662761808 L 4.206646659577245,46.508761275343446 L 4.133974596103528,46.3999998462332 L 4.076120467417951,46.28268327849575 L 4.034074173703559,46.15881889113395 L 4.0085551387040965,46.03052603815949 L 4.00000000018413,45.8999998458586 L 4.000000000218108,28.89999984674604 L 4.008555138844272,28.769473654525953 L 4.034074173929056,28.6411808016435 L 4.076120467706801,28.517316414380744 L 4.13397459643366,28.399999846745985 L 4.206646659926875,28.291238417737432 L 4.292893219031555,28.192893065559602 L 4.391238571209357,28.106646506454766 L 4.50000000021808,28.033974442961508 L 4.617316567852981,27.976120314234734 L 4.741180955115524,27.93407402045689 L 4.869473807998034,27.908554985372106 L 5.000000000218051,27.899999846745928 M 4.0000000000577955,109.09999984585885 L 4.000000000091774,92.09999984674629 L 4.008555138717895,91.96947365452606 L 4.034074173802679,91.84118080164374 L 4.076120467580466,91.71731641438119 L 4.1339745963073256,91.59999984674626 L 4.2066466598005405,91.49123841773748 L 4.292893218905178,91.39289306555965 L 4.391238571083022,91.30664650645501 L 4.500000000091788,91.23397444296184 L 4.617316567726647,91.17612031423498 L 4.741180954989275,91.13407402045725 L 4.869473807871657,91.10855498537235 L 5.000000000091816,91.09999984674629 L 20.50000000009173,91.0999998605008 L 20.63052619238509,91.10855499913664 L 20.758819045337148,91.13407403425002 L 20.882683432661807,91.17612032807442 L 21.000000000347896,91.23397445686429 L 21.108761429393823,91.30664652043468 L 21.20710678159203,91.39289307962802 L 21.29335334069812,91.49123843190277 L 21.366025404172007,91.59999986101322 L 21.423879532857754,91.71731642875066 L 21.465925826572203,91.84118081611255 L 21.491444861571765,91.96947366908724 L 21.50000000009173,92.09999986138818 L 21.500000000057796,109.09999986138827 L 21.491444861325405,109.23052605352753 L 21.465925826155342,109.35881890631792 L 21.423879532314174,109.48268329348123 L 21.36602540354606,109.59999986101373 L 21.29335334003342,109.70876128992093 L 21.207106780929905,109.8071066420019 L 21.108761428772226,109.89335320101789 L 20.999999999800437,109.96602526443384 L 20.88268343221651,110.02387939309757 L 20.75881904501584,110.06592568682866 L 20.63052619220268,110.09144472188449 L 20.500000000055763,110.09999986050086 L 5.000000000055806,110.09999984674623 L 4.869473807762603,110.0914447081101 L 4.741180954810787,110.06592567299661 L 4.617316567486299,110.02387937917199 L 4.499999999800451,109.96602525038206 L 4.39123857075478,109.8933531868117 L 4.2928932185567135,109.8071066276183 L 4.206646659450911,109.70876127534363 L 4.133974595977236,109.5999998462333 L 4.07612046729156,109.48268327849597 L 4.034074173577224,109.35881889113413 L 4.008555138577762,109.23052603815962 L 4.0000000000577955,109.09999984585885 M 21.5000000001571,59.399999861388196 L 21.50000000011873,78.59999986138818 L 21.491444861386313,78.73052605352753 L 21.46592582621635,78.85881890631804 L 21.423879532375167,78.98268329348126 L 21.366025403607026,79.09999986101376 L 21.293353340094328,79.20876128992087 L 21.207106780990813,79.30710664200184 L 21.108761428833162,79.39335320101783 L 20.999999999861416,79.46602526443381 L 20.882683432277446,79.52387939309757 L 20.75881904507682,79.56592568682866 L 20.630526192263673,79.5914447218846 L 20.500000000116742,79.59999986050086 L 5.000000000116756,79.59999984674617 L 4.869473807896867,79.59144470811974 L 4.741180955014627,79.56592567303478 L 4.617316567752269,79.52387937925691 L 4.500000000117595,79.46602525052994 L 4.3912385711090565,79.3933531870366 L 4.292893218931482,79.30710662793196 L 4.206646659826973,79.20876127575416 L 4.133974596333957,79.09999984674552 L 4.076120467607268,78.98268327911076 L 4.0340741738295804,78.85881889184826 L 4.008555138744924,78.73052603896598 L 4.000000000118746,78.59999984674617 L 4.000000000157144,59.3999998467461 L 4.008555138783322,59.26947365452615 L 4.034074173868063,59.141180801643614 L 4.076120467645794,59.017316414380915 L 4.133974596372667,58.8999998467461 L 4.206646659865868,58.791238417737375 L 4.292893218970633,58.69289306555963 L 4.391238571148392,58.60664650645482 L 4.500000000157129,58.533974442961735 L 4.617316567792031,58.47612031423493 L 4.741180955054617,58.43407402045703 L 4.869473807937069,58.408554985372305 L 5.000000000157144,58.39999984674613 L 20.50000000015713,58.39999986050081 L 20.630526192450475,58.40855499913671 L 20.758819045402504,58.43407403425006 L 20.882683432727163,58.4761203280744 L 21.000000000413266,58.533974456864215 L 21.10876142945918,58.60664652043472 L 21.207106781657416,58.69289307962801 L 21.293353340763446,58.791238431902755 L 21.366025404237348,58.89999986101314 L 21.42387953292311,59.01731642875065 L 21.465925826637587,59.14118081611265 L 21.49144486163712,59.26947366908725 L 21.5000000001571,59.399999861388196 M 20.150000000252234,11.818653201327336 L 19.643519994967107,12.028444088586028 L 19.100000000251697,12.099999853378037 L 18.556480005536542,12.028444088583782 L 18.050000000252254,11.818653201323102 L 17.61507575976117,11.48492409386715 L 17.281346652306453,11.04999985337416 L 17.071555765047776,10.543519848089474 L 17.00000000025588,9.999999853373808 L 17.071555765049936,9.45647985865871 L 17.281346652310646,8.94999985337411 L 17.61507575976711,8.51507561288328 L 18.050000000259516,8.181346505428294 L 18.556480005544657,7.971555618170171 L 19.100000000260067,7.899999853378048 L 19.643519994975236,7.971555618172246 L 20.15000000025951,8.181346505432728 L 20.584924240750624,8.51507561288976 L 20.918653348205297,8.94999985338167 L 21.128444235464002,9.456479858666924 L 21.20000000025587,9.999999853382079 L 21.128444235461828,10.543519848097091 L 20.91865334820112,11.049999853381749 L 20.58492424074467,11.484924093872749 L 20.150000000252234,11.818653201327336 M 21.128444235227036,128.54351991973175 L 20.918653347967307,129.0499999250165 L 20.584924240511754,129.4849241655083 L 20.150000000019972,129.81865327296384 L 19.64351999473527,130.0284441602235 L 19.10000000001999,130.09999992501645 L 18.556480005304692,130.0284441602235 L 18.05000000002002,129.81865327296384 L 17.61507575952824,129.48492416550823 L 17.281346652072642,129.04999992501644 L 17.071555764812928,128.54351991973175 L 17.000000000020037,127.9999999250165 L 17.071555764812928,127.45647993030117 L 17.281346652072685,126.94999992501646 L 17.615075759528224,126.51507568452469 L 18.05000000002002,126.18134657706916 L 18.556480005304692,125.97155568980945 L 19.10000000001999,125.89999992501647 L 19.64351999473527,125.97155568980942 L 20.150000000019972,126.18134657706916 L 20.58492424051174,126.51507568452477 L 20.918653347967307,126.94999992501646 L 21.12844423522705,127.45647993030117 L 21.200000000019983,127.99999992501644 L 21.128444235227036,128.54351991973175 " />
  <path
     id="face0-interior"
     style="fill:none;stroke:#FF0000;stroke-width:0.1;stroke-miterlimit:4;stroke-dasharray:none;stroke-linejoin:round;stroke-linecap:round"
     d="M 177.7000000040713,0.0 M 2.758611117315013e-10,2.842170943040401e-14 M 0.0,137.99999984230925 M 177.70000000407134,137.99999999999898 M 166.18492424456306,8.515075747638875 M 166.51865335201862,8.949999988130614 M 166.72844423927833,9.4564799934153 M 166.8000000040713,9.999999988130597 M 166.72844423927833,10.543519982845922 M 166.51865335201862,11.04999998813058 M 166.18492424456306,11.484924228622347 M 165.75000000407132,11.818653336077901 M 165.2435199987866,12.028444223337644 M 164.70000000407128,12.09999998813062 M 164.15648000935602,12.028444223337644 M 163.6500000040713,11.818653336077901 M 163.21507576357956,11.484924228622347 M 162.88134665612398,11.049999988130608 M 162.67155576886427,10.543519982845922 M 162.60000000407132,9.999999988130597 M 162.67155576886427,9.4564799934153 M 162.88134665612398,8.949999988130614 M 163.21507576357956,8.515075747638875 M 163.6500000040713,8.181346640183264 M 164.15648000935602,7.97155575292355 M 164.70000000407128,7.8999999881306024 M 165.2435199987866,7.97155575292355 M 165.75000000407132,8.181346640183264 M 162.881346656124,129.04999998812974 M 162.67155576886427,128.543519982845 M 162.60000000407132,127.99999998812969 M 162.67155576886427,127.45647999341436 M 162.88134665612398,126.94999998812968 M 163.21507576357956,126.51507574763794 M 163.65000000407133,126.18134664018238 M 164.15648000935602,125.97155575292264 M 164.7000000040713,125.89999998812966 M 165.2435199987866,125.97155575292264 M 165.75000000407127,126.18134664018238 M 166.18492424456304,126.51507574763788 M 166.5186533520186,126.94999998812976 M 166.72844423927836,127.45647999341436 M 166.8000000040713,127.99999998812969 M 166.72844423927833,128.543519982845 M 166.51865335201862,129.04999998812968 M 166.18492424456304,129.48492422862142 M 165.7500000040713,129.81865333607698 M 165.2435199987866,130.02844422333675 M 164.70000000407128,130.0999999881297 M 164.15648000935602,130.02844422333675 M 163.65000000407133,129.81865333607703 M 163.2150757635796,129.48492422862142 M 5.000000000218051,27.899999846745928 M 20.50000000021808,27.899999860500643 M 20.630526192511454,27.908554999136427 M 20.75881904546347,27.93407403424989 M 20.88268343278814,27.976120328074344 M 21.000000000474245,28.033974456864186 M 21.108761429520158,28.106646520434495 M 21.207106781718366,28.192893079628035 M 21.293353340824453,28.291238431902755 M 21.366025404298327,28.399999861013 M 21.42387953298409,28.517316428750703 M 21.465925826698566,28.641180816112453 M 21.49144486169807,28.76947366908719 M 21.50000000021808,28.89999986138814 M 21.50000000018413,45.899999860500785 M 21.49144486155788,46.03052605272093 M 21.465925826473054,46.15881890560358 M 21.42387953269521,46.28268329286625 M 21.36602540396821,46.39999986050127 M 21.293353340474823,46.508761289510105 M 21.20710678136993,46.60710664168799 M 21.108761429191915,46.69335320079263 M 21.000000000182936,46.76602526428577 M 20.882683432547807,46.82387939301255 M 20.758819045285037,46.86592568679028 M 20.63052619240233,46.89144472187475 M 20.500000000182098,46.899999860500756 M 5.000000000182098,46.89999984674604 M 4.86947380788888,46.89144470810989 M 4.741180954937121,46.865925672996426 M 4.617316567612633,46.823879379171856 M 4.499999999926786,46.76602525038193 M 4.391238570881114,46.69335318681142 M 4.292893218683091,46.60710662761808 M 4.206646659577245,46.508761275343446 M 4.133974596103528,46.3999998462332 M 4.076120467417951,46.28268327849575 M 4.034074173703559,46.15881889113395 M 4.0085551387040965,46.03052603815949 M 4.00000000018413,45.8999998458586 M 4.000000000218108,28.89999984674604 M 4.008555138844272,28.769473654525953 M 4.034074173929056,28.6411808016435 M 4.076120467706801,28.517316414380744 M 4.13397459643366,28.399999846745985 M 4.206646659926875,28.291238417737432 M 4.292893219031555,28.192893065559602 M 4.391238571209357,28.106646506454766 M 4.50000000021808,28.033974442961508 M 4.617316567852981,27.976120314234734 M 4.741180955115524,27.93407402045689 M 4.869473807998034,27.908554985372106 M 4.0000000000577955,109.09999984585885 M 4.000000000091774,92.09999984674629 M 4.008555138717895,91.96947365452606 M 4.034074173802679,91.84118080164374 M 4.076120467580466,91.71731641438119 M 4.1339745963073256,91.59999984674626 M 4.2066466598005405,91.49123841773748 M 4.292893218905178,91.39289306555965 M 4.391238571083022,91.30664650645501 M 4.500000000091788,91.23397444296184 M 4.617316567726647,91.17612031423498 M 4.741180954989275,91.13407402045725 M 4.869473807871657,91.10855498537235 M 5.000000000091816,91.09999984674629 M 20.50000000009173,91.0999998605008 M 20.63052619238509,91.10855499913664 M 20.758819045337148,91.13407403425002 M 20.882683432661807,91.17612032807442 M 21.000000000347896,91.23397445686429 M 21.108761429393823,91.30664652043468 M 21.20710678159203,91.39289307962802 M 21.29335334069812,91.49123843190277 M 21.366025404172007,91.59999986101322 M 21.423879532857754,91.71731642875066 M 21.465925826572203,91.84118081611255 M 21.491444861571765,91.96947366908724 M 21.50000000009173,92.09999986138818 M 21.500000000057796,109.09999986138827 M 21.491444861325405,109.23052605352753 M 21.465925826155342,109.35881890631792 M 21.423879532314174,109.48268329348123 M 21.36602540354606,109.59999986101373 M 21.29335334003342,109.70876128992093 M 21.207106780929905,109.8071066420019 M 21.108761428772226,109.89335320101789 M 20.999999999800437,109.96602526443384 M 20.88268343221651,110.02387939309757 M 20.75881904501584,110.06592568682866 M 20.63052619220268,110.09144472188449 M 20.500000000055763,110.09999986050086 M 5.000000000055806,110.09999984674623 M 4.869473807762603,110.0914447081101 M 4.741180954810787,110.06592567299661 M 4.617316567486299,110.02387937917199 M 4.499999999800451,109.96602525038206 M 4.39123857075478,109.8933531868117 M 4.2928932185567135,109.8071066276183 M 4.206646659450911,109.70876127534363 M 4.133974595977236,109.5999998462333 M 4.07612046729156,109.48268327849597 M 4.034074173577224,109.35881889113413 M 4.008555138577762,109.23052603815962 M 21.5000000001571,59.399999861388196 M 21.50000000011873,78.59999986138818 M 21.491444861386313,78.73052605352753 M 21.46592582621635,78.85881890631804 M 21.423879532375167,78.98268329348126 M 21.366025403607026,79.09999986101376 M 21.293353340094328,79.20876128992087 M 21.207106780990813,79.30710664200184 M 21.108761428833162,79.39335320101783 M 20.999999999861416,79.46602526443381 M 20.882683432277446,79.52387939309757 M 20.75881904507682,79.56592568682866 M 20.630526192263673,79.5914447218846 M 20.500000000116742,79.59999986050086 M 5.000000000116756,79.59999984674617 M 4.869473807896867,79.59144470811974 M 4.741180955014627,79.56592567303478 M 4.617316567752269,79.52387937925691 M 4.500000000117595,79.46602525052994 M 4.3912385711090565,79.3933531870366 M 4.292893218931482,79.30710662793196 M 4.206646659826973,79.20876127575416 M 4.133974596333957,79.09999984674552 M 4.076120467607268,78.98268327911076 M 4.0340741738295804,78.85881889184826 M 4.008555138744924,78.73052603896598 M 4.000000000118746,78.59999984674617 M 4.000000000157144,59.3999998467461 M 4.008555138783322,59.26947365452615 M 4.034074173868063,59.141180801643614 M 4.076120467645794,59.017316414380915 M 4.133974596372667,58.8999998467461 M 4.206646659865868,58.791238417737375 M 4.292893218970633,58.69289306555963 M 4.391238571148392,58.60664650645482 M 4.500000000157129,58.533974442961735 M 4.617316567792031,58.47612031423493 M 4.741180955054617,58.43407402045703 M 4.869473807937069,58.408554985372305 M 5.000000000157144,58.39999984674613 M 20.50000000015713,58.39999986050081 M 20.630526192450475,58.40855499913671 M 20.758819045402504,58.43407403425006 M 20.882683432727163,58.4761203280744 M 21.000000000413266,58.533974456864215 M 21.10876142945918,58.60664652043472 M 21.207106781657416,58.69289307962801 M 21.293353340763446,58.791238431902755 M 21.366025404237348,58.89999986101314 M 21.42387953292311,59.01731642875065 M 21.465925826637587,59.14118081611265 M 21.49144486163712,59.26947366908725 M 20.150000000252234,11.818653201327336 M 19.643519994967107,12.028444088586028 M 19.100000000251697,12.099999853378037 M 18.556480005536542,12.028444088583782 M 18.050000000252254,11.818653201323102 M 17.61507575976117,11.48492409386715 M 17.281346652306453,11.04999985337416 M 17.071555765047776,10.543519848089474 M 17.00000000025588,9.999999853373808 M 17.071555765049936,9.45647985865871 M 17.281346652310646,8.94999985337411 M 17.61507575976711,8.51507561288328 M 18.050000000259516,8.181346505428294 M 18.556480005544657,7.971555618170171 M 19.100000000260067,7.899999853378048 M 19.643519994975236,7.971555618172246 M 20.15000000025951,8.181346505432728 M 20.584924240750624,8.51507561288976 M 20.918653348205297,8.94999985338167 M 21.128444235464002,9.456479858666924 M 21.20000000025587,9.999999853382079 M 21.128444235461828,10.543519848097091 M 20.91865334820112,11.049999853381749 M 20.58492424074467,11.484924093872749 M 21.128444235227036,128.54351991973175 M 20.918653347967307,129.0499999250165 M 20.584924240511754,129.4849241655083 M 20.150000000019972,129.81865327296384 M 19.64351999473527,130.0284441602235 M 19.10000000001999,130.09999992501645 M 18.556480005304692,130.0284441602235 M 18.05000000002002,129.81865327296384 M 17.61507575952824,129.48492416550823 M 17.281346652072642,129.04999992501644 M 17.071555764812928,128.54351991973175 M 17.000000000020037,127.9999999250165 M 17.071555764812928,127.45647993030117 M 17.281346652072685,126.94999992501646 M 17.615075759528224,126.51507568452469 M 18.05000000002002,126.18134657706916 M 18.556480005304692,125.97155568980945 M 19.10000000001999,125.89999992501647 M 19.64351999473527,125.97155568980942 M 20.150000000019972,126.18134657706916 M 20.58492424051174,126.51507568452477 M 20.918653347967307,126.94999992501646 M 21.12844423522705,127.45647993030117 M 21.200000000019983,127.99999992501644 " />
  <path
     id="path8"
     style="fill:none;stroke:#FF0000;stroke-width:0.1;stroke-miterlimit:4;stroke-dasharray:none;stroke-linejoin:round;stroke-linecap:round"
     d="M 177.7000000040713,0.0 M 2.758611117315013e-10,2.842170943040401e-14 M 0.0,137.99999984230925 M 177.70000000407134,137.99999999999898 M 166.18492424456306,8.515075747638875 M 166.51865335201862,8.949999988130614 M 166.72844423927833,9.4564799934153 M 166.8000000040713,9.999999988130597 M 166.72844423927833,10.543519982845922 M 166.51865335201862,11.04999998813058 M 166.18492424456306,11.484924228622347 M 165.75000000407132,11.818653336077901 M 165.2435199987866,12.028444223337644 M 164.70000000407128,12.09999998813062 M 164.15648000935602,12.028444223337644 M 163.6500000040713,11.818653336077901 M 163.21507576357956,11.484924228622347 M 162.88134665612398,11.049999988130608 M 162.67155576886427,10.543519982845922 M 162.60000000407132,9.999999988130597 M 162.67155576886427,9.4564799934153 M 162.88134665612398,8.949999988130614 M 163.21507576357956,8.515075747638875 M 163.6500000040713,8.181346640183264 M 164.15648000935602,7.97155575292355 M 164.70000000407128,7.8999999881306024 M 165.2435199987866,7.97155575292355 M 165.75000000407132,8.181346640183264 M 162.881346656124,129.04999998812974 M 162.67155576886427,128.543519982845 M 162.60000000407132,127.99999998812969 M 162.67155576886427,127.45647999341436 M 162.88134665612398,126.94999998812968 M 163.21507576357956,126.51507574763794 M 163.65000000407133,126.18134664018238 M 164.15648000935602,125.97155575292264 M 164.7000000040713,125.89999998812966 M 165.2435199987866,125.97155575292264 M 165.75000000407127,126.18134664018238 M 166.18492424456304,126.51507574763788 M 166.5186533520186,126.94999998812976 M 166.72844423927836,127.45647999341436 M 166.8000000040713,127.99999998812969 M 166.72844423927833,128.543519982845 M 166.51865335201862,129.04999998812968 M 166.18492424456304,129.48492422862142 M 165.7500000040713,129.81865333607698 M 165.2435199987866,130.02844422333675 M 164.70000000407128,130.0999999881297 M 164.15648000935602,130.02844422333675 M 163.65000000407133,129.81865333607703 M 163.2150757635796,129.48492422862142 M 5.000000000218051,27.899999846745928 M 20.50000000021808,27.899999860500643 M 20.630526192511454,27.908554999136427 M 20.75881904546347,27.93407403424989 M 20.88268343278814,27.976120328074344 M 21.000000000474245,28.033974456864186 M 21.108761429520158,28.106646520434495 M 21.207106781718366,28.192893079628035 M 21.293353340824453,28.291238431902755 M 21.366025404298327,28.399999861013 M 21.42387953298409,28.517316428750703 M 21.465925826698566,28.641180816112453 M 21.49144486169807,28.76947366908719 M 21.50000000021808,28.89999986138814 M 21.50000000018413,45.899999860500785 M 21.49144486155788,46.03052605272093 M 21.465925826473054,46.15881890560358 M 21.42387953269521,46.28268329286625 M 21.36602540396821,46.39999986050127 M 21.293353340474823,46.508761289510105 M 21.20710678136993,46.60710664168799 M 21.108761429191915,46.69335320079263 M 21.000000000182936,46.76602526428577 M 20.882683432547807,46.82387939301255 M 20.758819045285037,46.86592568679028 M 20.63052619240233,46.89144472187475 M 20.500000000182098,46.899999860500756 M 5.000000000182098,46.89999984674604 M 4.86947380788888,46.89144470810989 M 4.741180954937121,46.865925672996426 M 4.617316567612633,46.823879379171856 M 4.499999999926786,46.76602525038193 M 4.391238570881114,46.69335318681142 M 4.292893218683091,46.60710662761808 M 4.206646659577245,46.508761275343446 M 4.133974596103528,46.3999998462332 M 4.076120467417951,46.28268327849575 M 4.034074173703559,46.15881889113395 M 4.0085551387040965,46.03052603815949 M 4.00000000018413,45.8999998458586 M 4.000000000218108,28.89999984674604 M 4.008555138844272,28.769473654525953 M 4.034074173929056,28.6411808016435 M 4.076120467706801,28.517316414380744 M 4.13397459643366,28.399999846745985 M 4.206646659926875,28.291238417737432 M 4.292893219031555,28.192893065559602 M 4.391238571209357,28.106646506454766 M 4.50000000021808,28.033974442961508 M 4.617316567852981,27.976120314234734 M 4.741180955115524,27.93407402045689 M 4.869473807998034,27.908554985372106 M 4.0000000000577955,109.09999984585885 M 4.000000000091774,92.09999984674629 M 4.008555138717895,91.96947365452606 M 4.034074173802679,91.84118080164374 M 4.076120467580466,91.71731641438119 M 4.1339745963073256,91.59999984674626 M 4.2066466598005405,91.49123841773748 M 4.292893218905178,91.39289306555965 M 4.391238571083022,91.30664650645501 M 4.500000000091788,91.23397444296184 M 4.617316567726647,91.17612031423498 M 4.741180954989275,91.13407402045725 M 4.869473807871657,91.10855498537235 M 5.000000000091816,91.09999984674629 M 20.50000000009173,91.0999998605008 M 20.63052619238509,91.10855499913664 M 20.758819045337148,91.13407403425002 M 20.882683432661807,91.17612032807442 M 21.000000000347896,91.23397445686429 M 21.108761429393823,91.30664652043468 M 21.20710678159203,91.39289307962802 M 21.29335334069812,91.49123843190277 M 21.366025404172007,91.59999986101322 M 21.423879532857754,91.71731642875066 M 21.465925826572203,91.84118081611255 M 21.491444861571765,91.96947366908724 M 21.50000000009173,92.09999986138818 M 21.500000000057796,109.09999986138827 M 21.491444861325405,109.23052605352753 M 21.465925826155342,109.35881890631792 M 21.423879532314174,109.48268329348123 M 21.36602540354606,109.59999986101373 M 21.29335334003342,109.70876128992093 M 21.207106780929905,109.8071066420019 M 21.108761428772226,109.89335320101789 M 20.999999999800437,109.96602526443384 M 20.88268343221651,110.02387939309757 M 20.75881904501584,110.06592568682866 M 20.63052619220268,110.09144472188449 M 20.500000000055763,110.09999986050086 M 5.000000000055806,110.09999984674623 M 4.869473807762603,110.0914447081101 M 4.741180954810787,110.06592567299661 M 4.617316567486299,110.02387937917199 M 4.499999999800451,109.96602525038206 M 4.39123857075478,109.8933531868117 M 4.2928932185567135,109.8071066276183 M 4.206646659450911,109.70876127534363 M 4.133974595977236,109.5999998462333 M 4.07612046729156,109.48268327849597 M 4.034074173577224,109.35881889113413 M 4.008555138577762,109.23052603815962 M 21.5000000001571,59.399999861388196 M 21.50000000011873,78.59999986138818 M 21.491444861386313,78.73052605352753 M 21.46592582621635,78.85881890631804 M 21.423879532375167,78.98268329348126 M 21.366025403607026,79.09999986101376 M 21.293353340094328,79.20876128992087 M 21.207106780990813,79.30710664200184 M 21.108761428833162,79.39335320101783 M 20.999999999861416,79.46602526443381 M 20.882683432277446,79.52387939309757 M 20.75881904507682,79.56592568682866 M 20.630526192263673,79.5914447218846 M 20.500000000116742,79.59999986050086 M 5.000000000116756,79.59999984674617 M 4.869473807896867,79.59144470811974 M 4.741180955014627,79.56592567303478 M 4.617316567752269,79.52387937925691 M 4.500000000117595,79.46602525052994 M 4.3912385711090565,79.3933531870366 M 4.292893218931482,79.30710662793196 M 4.206646659826973,79.20876127575416 M 4.133974596333957,79.09999984674552 M 4.076120467607268,78.98268327911076 M 4.0340741738295804,78.85881889184826 M 4.008555138744924,78.73052603896598 M 4.000000000118746,78.59999984674617 M 4.000000000157144,59.3999998467461 M 4.008555138783322,59.26947365452615 M 4.034074173868063,59.141180801643614 M 4.076120467645794,59.017316414380915 M 4.133974596372667,58.8999998467461 M 4.206646659865868,58.791238417737375 M 4.292893218970633,58.69289306555963 M 4.391238571148392,58.60664650645482 M 4.500000000157129,58.533974442961735 M 4.617316567792031,58.47612031423493 M 4.741180955054617,58.43407402045703 M 4.869473807937069,58.408554985372305 M 5.000000000157144,58.39999984674613 M 20.50000000015713,58.39999986050081 M 20.630526192450475,58.40855499913671 M 20.758819045402504,58.43407403425006 M 20.882683432727163,58.4761203280744 M 21.000000000413266,58.533974456864215 M 21.10876142945918,58.60664652043472 M 21.207106781657416,58.69289307962801 M 21.293353340763446,58.791238431902755 M 21.366025404237348,58.89999986101314 M 21.42387953292311,59.01731642875065 M 21.465925826637587,59.14118081611265 M 21.49144486163712,59.26947366908725 M 20.150000000252234,11.818653201327336 M 19.643519994967107,12.028444088586028 M 19.100000000251697,12.099999853378037 M 18.556480005536542,12.028444088583782 M 18.050000000252254,11.818653201323102 M 17.61507575976117,11.48492409386715 M 17.281346652306453,11.04999985337416 M 17.071555765047776,10.543519848089474 M 17.00000000025588,9.999999853373808 M 17.071555765049936,9.45647985865871 M 17.281346652310646,8.94999985337411 M 17.61507575976711,8.51507561288328 M 18.050000000259516,8.181346505428294 M 18.556480005544657,7.971555618170171 M 19.100000000260067,7.899999853378048 M 19.643519994975236,7.971555618172246 M 20.15000000025951,8.181346505432728 M 20.584924240750624,8.51507561288976 M 20.918653348205297,8.94999985338167 M 21.128444235464002,9.456479858666924 M 21.20000000025587,9.999999853382079 M 21.128444235461828,10.543519848097091 M 20.91865334820112,11.049999853381749 M 20.58492424074467,11.484924093872749 M 21.128444235227036,128.54351991973175 M 20.918653347967307,129.0499999250165 M 20.584924240511754,129.4849241655083 M 20.150000000019972,129.81865327296384 M 19.64351999473527,130.0284441602235 M 19.10000000001999,130.09999992501645 M 18.556480005304692,130.0284441602235 M 18.05000000002002,129.81865327296384 M 17.61507575952824,129.48492416550823 M 17.281346652072642,129.04999992501644 M 17.071555764812928,128.54351991973175 M 17.000000000020037,127.9999999250165 M 17.071555764812928,127.45647993030117 M 17.281346652072685,126.94999992501646 M 17.615075759528224,126.51507568452469 M 18.05000000002002,126.18134657706916 M 18.556480005304692,125.97155568980945 M 19.10000000001999,125.89999992501647 M 19.64351999473527,125.97155568980942 M 20.150000000019972,126.18134657706916 M 20.58492424051174,126.51507568452477 M 20.918653347967307,126.94999992501646 M 21.12844423522705,127.45647993030117 M 21.200000000019983,127.99999992501644 " />
  <text
     xml:space="preserve"
     style="font-style:normal;font-weight:normal;font-size:11.28888988px;line-height:125%;font-family:sans-serif;letter-spacing:0px;word-spacing:0px;fill:#000000;fill-opacity:1;stroke:none;stroke-width:1px;stroke-linecap:butt;stroke-linejoin:miter;stroke-opacity:1"
     x="37.219627"
     y="-31.195446"
     id="text4156"
     sodipodi:linespacing="125%"
     transform="matrix(0,1,-1,0,0,0)"><tspan
       sodipodi:role="line"
       id="tspan4158"
       x="37.219627"
       y="-31.195446"
       style="font-style:normal;font-variant:normal;font-weight:bold;font-stretch:normal;font-size:4.23333359px;font-family:monospace;-inkscape-font-specification:'monospace Bold';text-align:center;text-anchor:middle">network</tspan><tspan
       sodipodi:role="line"
       x="37.219627"
       y="-23.311167"
       style="font-style:normal;font-variant:normal;font-weight:bold;font-stretch:normal;font-size:7.0555563px;font-family:monospace;-inkscape-font-specification:'monospace Bold';text-align:center;text-anchor:middle"
       id="tspan4160">A</tspan></text>
  <text
     xml:space="preserve"
     style="font-style:normal;font-weight:normal;font-size:11.28888988px;line-height:125%;font-family:sans-serif;letter-spacing:0px;word-spacing:0px;fill:#000000;fill-opacity:1;stroke:none;stroke-width:1px;stroke-linecap:butt;stroke-linejoin:miter;stroke-opacity:1"
     x="100.58027"
     y="-31.195446"
     id="text4156-1"
     sodipodi:linespacing="125%"
     transform="matrix(0,1,-1,0,0,0)"><tspan
       sodipodi:role="line"
       id="tspan4158-5"
       x="100.58027"
       y="-31.195446"
       style="font-style:normal;font-variant:normal;font-weight:bold;font-stretch:normal;font-size:4.23333359px;font-family:monospace;-inkscape-font-specification:'monospace Bold';text-align:center;text-anchor:middle">network</tspan><tspan
       sodipodi:role="line"
       x="100.58027"
       y="-23.311167"
       style="font-style:normal;font-variant:normal;font-weight:bold;font-stretch:normal;font-size:7.0555563px;font-family:monospace;-inkscape-font-specification:'monospace Bold';text-align:center;text-anchor:middle"
       id="tspan4160-0">B</tspan></text>
  <text
     xml:space="preserve"
     style="font-style:normal;font-weight:normal;font-size:11.28888988px;line-height:125%;font-family:sans-serif;letter-spacing:0px;word-spacing:0px;fill:#000000;fill-opacity:1;stroke:none;stroke-width:1px;stroke-linecap:butt;stroke-linejoin:miter;stroke-opacity:1"
     x="69.15596"
     y="-29.975811"
     id="text4156-6"
     sodipodi:linespacing="125%"
     transform="matrix(0,1,-1,0,0,0)"><tspan
       sodipodi:role="line"
       id="tspan4158-0"
       x="69.15596"
       y="-29.975811"
       style="font-style:normal;font-variant:normal;font-weight:bold;font-stretch:normal;font-size:7.0555563px;font-family:monospace;-inkscape-font-specification:'monospace Bold';text-align:center;text-anchor:middle">power</tspan><tspan
       sodipodi:role="line"
       x="69.15596"
       y="-24.397131"
       style="font-style:normal;font-variant:normal;font-weight:bold;font-stretch:normal;font-size:3.52777815px;font-family:monospace;-inkscape-font-specification:'monospace Bold';text-align:center;text-anchor:middle"
       id="tspan4160-1">220V / 110V</tspan></text>
</svg>
