<?xml version="1.0" standalone="no"?>
<!DOCTYPE svg PUBLIC "-//W3C//DTD SVG 1.1//EN" "http://www.w3.org/Graphics/SVG/1.1/DTD/svg11.dtd">
<svg width="134.7000000385536mm" height="103.60000000000001mm"
 viewBox="0 0 134.7000000385536 103.60000000000001"
 xmlns="http://www.w3.org/2000/svg" version="1.1"
 xmlns:xlink="http://www.w3.org/1999/xlink">
<desc>Output from Flights of Ideas SVG Sketchup Plugin</desc>

  <path id="face0-cut"
 style="fill:none;stroke:#FF0000;stroke-width:0.1;stroke-miterlimit:4;stroke-dasharray:none;stroke-linejoin:round;stroke-linecap:round"
        d="M 5.000000017218682,102.60000000000001 L 129.7000000172162,102.60000000000001 L 129.70000001725012,97.60000000072874 L 133.70000003846783,97.60000000075021 L 133.7000000385536,81.50211305990192 L 129.7000000173359,81.50211305988051 L 129.70000001740777,69.50000000073501 L 122.70000001740769,69.50000000069488 L 122.70000001765976,27.00000000068809 L 129.70000001765735,27.00000000072839 L 129.70000001768614,22.00000000072839 L 133.6999999833432,22.000000000753175 L 133.69999998344264,6.000000000753175 L 129.70000001777058,6.0000000007298695 L 129.70000001779965,1.0000000007298127 L 5.000000017813235,1.0 L 5.000000017720751,16.800000000007657 L 1.0000000004096208,16.799999999984067 L 1.0,86.79999999998522 L 5.000000017311152,86.80000000000875 L 5.000000017218682,102.60000000000001 M 97.00000001739443,71.90000000054272 L 96.94888875682597,72.28822856819619 L 96.79903812306705,72.65000000054155 L 96.56066018916852,72.96066017232005 L 96.25000001738732,73.19903810621514 L 95.88822858504034,73.34888873997014 L 95.50000001738621,73.40000000053436 L 95.11177144973277,73.3488887399657 L 94.75000001738735,73.19903810620679 L 94.43933984560891,72.96066017230828 L 94.20096191171379,72.65000000052717 L 94.0511112779588,72.28822856818016 L 94.0000000173946,71.90000000052603 L 94.05111127796314,71.5117714328724 L 94.20096191172206,71.15000000052717 L 94.4393398456206,70.83933982874873 L 94.75000001740176,70.6009618948535 L 95.11177144974872,70.45111126109859 L 95.50000001740287,70.40000000053436 L 95.88822858505628,70.45111126110285 L 96.25000001740173,70.60096189486188 L 96.56066018918025,70.83933982876047 L 96.79903812307532,71.15000000054152 L 96.9488887568304,71.51177143288845 L 97.00000001739443,71.90000000054272 M 17.400000017770722,10.100000000088755 L 17.451111278338487,9.711771432438582 L 17.6009619120957,9.3500000000964 L 17.839339845991702,9.039339828320237 L 18.15000001776984,8.80096189442682 L 18.511771450113315,8.651111260672877 L 18.900000017763745,8.600000000108594 L 19.288228585413833,8.651111260676316 L 19.650000017756227,8.80096189443347 L 19.960660189532092,9.039339828329389 L 20.19903812342548,9.350000000107457 L 20.34888875717948,9.7117714324512 L 20.400000017743565,10.100000000101488 L 20.348888757176326,10.488228567751605 L 20.199038123419143,10.850000000093843 L 19.960660189523097,11.160660171869722 L 19.650000017744972,11.399038105763111 L 19.28822858540137,11.54888873951731 L 18.90000001775107,11.600000000081394 L 18.511771450100852,11.548888739513956 L 18.1500000177585,11.399038105756688 L 17.839339845982735,11.160660171860656 L 17.60096191208936,10.850000000082815 L 17.451111278335375,10.488228567739071 L 17.400000017770722,10.100000000088755 M 20.400000017394504,71.90000000009047 L 20.348888756826952,72.28822856774417 L 20.199038123068945,72.65000000008999 L 19.960660189171136,72.96066017186905 L 19.650000017390596,73.19903810576506 L 19.288228585044067,73.34888873952076 L 18.90000001739007,73.40000000008604 L 18.511771449736543,73.34888873951851 L 18.150000017390667,73.19903810576048 L 17.83933984561162,72.96066017186274 L 17.600961911715686,72.65000000008229 L 17.45111127795984,72.28822856773553 L 17.40000001739459,71.90000000008163 L 17.45111127796217,71.5117714324279 L 17.600961911720134,71.15000000008229 L 17.8393398456179,70.83933982830317 L 18.1500000173982,70.60096189440722 L 18.51177144974507,70.45111126065126 L 18.90000001739901,70.40000000008621 L 19.288228585052636,70.45111126065368 L 19.650000017398185,70.60096189441171 L 19.960660189177403,70.83933982830956 L 20.199038123073393,71.15000000009005 L 20.348888756829297,71.5117714324366 L 20.400000017394504,71.90000000009047 M 96.56066018953325,11.16066017232032 L 96.25000001775209,11.399038106215386 L 95.88822858540499,11.548888739970067 L 95.50000001775089,11.600000000534095 L 95.1117714500974,11.548888739965463 L 94.75000001775206,11.39903810620629 L 94.43933984597356,11.160660172307672 L 94.20096191207861,10.850000000526421 L 94.0511112783239,10.488228568179267 L 94.00000001775985,10.100000000525114 L 94.05111127832862,9.7117714328717 L 94.20096191208759,9.35000000052645 L 94.4393398459863,9.039339828747956 L 94.7500000177676,8.800961894852833 L 95.11177145011476,8.65111126109818 L 95.50000001776885,8.600000000534152 L 95.8882285854223,8.651111261102812 L 96.25000001776763,8.800961894862041 L 96.56066018954593,9.039339828760717 L 96.79903812344091,9.350000000541769 L 96.94888875719585,9.711771432888952 L 97.00000001775999,10.10000000054319 L 96.94888875719107,10.488228568196547 L 96.79903812343193,10.850000000541769 L 96.56066018953325,11.16066017232032 M 105.16862916788853,5.431370850492698 L 104.91435937173372,5.100000000592729 L 104.75451869572859,4.714110472755721 L 104.70000001779346,4.300000000591439 L 104.75451869573345,3.8858895284276116 L 104.9143593717431,3.5000000005927348 L 105.16862916790163,3.168629150695722 L 105.50000001780165,2.9143593545409487 L 105.88588954563858,2.7545186785358453 L 106.30000001780286,2.7000000006008236 L 106.7141104899666,2.7545186785406486 L 107.10000001780165,2.914359354550413 L 107.43137086769858,3.1686291507088526 L 107.68564066385329,3.5000000006090204 L 107.84548133985845,3.8858895284457446 L 107.90000001779345,4.300000000610254 L 107.84548133985359,4.7141104727739105 L 107.68564066384391,5.100000000608986 L 107.43137086768544,5.431370850505829 L 107.10000001778542,5.685640646660545 L 106.71411048994852,5.8454813226655915 L 106.30000001778424,5.900000000600784 L 105.88588954562047,5.845481322660817 L 105.50000001778542,5.685640646651223 L 105.16862916788853,5.431370850492698 M 107.70050187255083,98.52631107521529 L 107.8530263579253,98.91515043891377 L 107.89971466467904,99.33021666424659 L 107.83738506186324,99.74322367388757 L 107.67028520890511,100.12602572265699 L 107.4098026846383,100.45253548353881 L 107.07368894262362,100.70050185591329 L 106.68484957892548,100.85302634128975 L 106.26978335359209,100.89971464804263 L 105.85677634395077,100.83738504522604 L 105.47397429518239,100.6702851922689 L 105.14746453429987,100.40980266800156 L 104.89949816192487,100.0736889259869 L 104.74697367655037,99.68484956228896 L 104.7002853697966,99.26978333695517 L 104.76261497261228,98.85677632731431 L 104.9297148255705,98.4739742785454 L 105.19019734983732,98.14746451766297 L 105.52631109185185,97.89949814528805 L 105.91515045555013,97.74697365991379 L 106.33021668088338,97.70028535315964 L 106.74322369052467,97.76261495597561 L 107.1260257392932,97.92971480893375 L 107.45253550017563,98.19019733320036 L 107.70050187255083,98.52631107521529 M 17.199286005957518,98.40097970648667 L 17.386870991615083,98.77417086736254 L 17.47147519398719,99.18319641465872 L 17.44733297649742,99.60018193327377 L 17.3160895913705,99.99671054921517 L 17.08668905841303,100.345759492601 L 16.774764644843742,100.62354165477026 L 16.40157348396781,100.81112664042786 L 15.992547936671542,100.89573084279992 L 15.575562418056577,100.87158862531005 L 15.179033802115185,100.74034524018313 L 14.829984858729333,100.51094470722555 L 14.552202696560059,100.19902029365637 L 14.364617710902422,99.82582913278047 L 14.280013508530544,99.41680358548433 L 14.304155726020326,98.99981806686932 L 14.435399111147234,98.60328945092785 L 14.664799644104704,98.25424050754208 L 14.97672405767399,97.9764583453728 L 15.349915218549796,97.78887335971523 L 15.758940765845978,97.70426915734323 L 16.175926284461156,97.72841137483307 L 16.572454900402548,97.85965475995997 L 16.921503843788287,98.08905529291742 L 17.199286005957518,98.40097970648667 M 17.240593022870982,5.310410310665247 L 16.93680740956215,5.597070511157966 L 16.56917992065138,5.795337499830424 L 16.16276376197527,5.891699709056468 L 15.74525552311296,5.879590213523471 L 15.345107700577941,5.759834255339939 L 14.989589707200423,5.540593005150015 L 14.702929506707989,5.236807391841012 L 14.50466251803536,4.869179902930313 L 14.40830030880933,4.462763744254232 L 14.420409804342569,4.045255505391992 L 14.540165762526115,3.645107682856917 L 14.759407012715926,3.2895896894792713 L 15.063192626024758,3.0029294889868368 L 15.430820114935301,2.804662500314322 L 15.837236273611637,2.708300291088193 L 16.254744512473806,2.7204097866213885 L 16.654892335008952,2.840165744805006 L 17.0104103283865,3.0594069949947027 L 17.297070528878933,3.363192608303706 L 17.495337517551548,3.7308200972143197 L 17.59169972677735,4.137236255890542 L 17.579590231244353,4.554744494752924 L 17.459834273060807,4.954892317287857 L 17.240593022870982,5.310410310665247 M 95.49999997302143,16.100000000534294 L 95.50000006213602,65.90000000053476 L 93.94708578279977,66.10444503314955 L 92.5000000432374,66.70384756290943 L 91.25735934610807,67.65735929758563 L 90.30384760215895,68.89999998759961 L 89.7044450616005,70.34708572268906 L 89.50000001739744,71.90000000049969 L 24.900000017398867,71.90000000012185 L 24.695554977070714,70.34708573670224 L 24.096152447573616,68.90000001302195 L 23.14264072034804,67.65735932879744 L 21.90000004323889,66.70384759229879 L 20.45291432403144,66.1044450520032 L 18.90000006213745,65.90000000008675 L 18.900000017725546,16.100000000086396 L 20.452914288341688,15.895554957829916 L 21.900000017730065,15.296152422810508 L 23.142640704854912,14.3426406872305 L 24.0961524404496,13.100000000116836 L 24.695554975485777,11.652914270735351 L 24.90000001776052,10.100000000121355 L 89.50000001776004,10.10000000049925 L 89.70444505808817,11.652914263918802 L 90.30384758758527,13.099999987599148 L 91.25735931481086,14.342640671823744 L 92.49999999192005,15.296152408322172 L 93.94708571112747,15.895554948617928 L 95.49999997302143,16.100000000534294 "
  />
  <path id="face0-interior"
 style="fill:none;stroke:#FF0000;stroke-width:0.1;stroke-miterlimit:4;stroke-dasharray:none;stroke-linejoin:round;stroke-linecap:round"
        d="M 5.000000017218682,102.60000000000001 M 129.7000000172162,102.60000000000001 M 129.70000001725012,97.60000000072874 M 133.70000003846783,97.60000000075021 M 133.7000000385536,81.50211305990192 M 129.7000000173359,81.50211305988051 M 129.70000001740777,69.50000000073501 M 122.70000001740769,69.50000000069488 M 122.70000001765976,27.00000000068809 M 129.70000001765735,27.00000000072839 M 129.70000001768614,22.00000000072839 M 133.6999999833432,22.000000000753175 M 133.69999998344264,6.000000000753175 M 129.70000001777058,6.0000000007298695 M 129.70000001779965,1.0000000007298127 M 5.000000017813235,1.0 M 5.000000017720751,16.800000000007657 M 1.0000000004096208,16.799999999984067 M 1.0,86.79999999998522 M 5.000000017311152,86.80000000000875 M 97.00000001739443,71.90000000054272 M 96.94888875682597,72.28822856819619 M 96.79903812306705,72.65000000054155 M 96.56066018916852,72.96066017232005 M 96.25000001738732,73.19903810621514 M 95.88822858504034,73.34888873997014 M 95.50000001738621,73.40000000053436 M 95.11177144973277,73.3488887399657 M 94.75000001738735,73.19903810620679 M 94.43933984560891,72.96066017230828 M 94.20096191171379,72.65000000052717 M 94.0511112779588,72.28822856818016 M 94.0000000173946,71.90000000052603 M 94.05111127796314,71.5117714328724 M 94.20096191172206,71.15000000052717 M 94.4393398456206,70.83933982874873 M 94.75000001740176,70.6009618948535 M 95.11177144974872,70.45111126109859 M 95.50000001740287,70.40000000053436 M 95.88822858505628,70.45111126110285 M 96.25000001740173,70.60096189486188 M 96.56066018918025,70.83933982876047 M 96.79903812307532,71.15000000054152 M 96.9488887568304,71.51177143288845 M 17.400000017770722,10.100000000088755 M 17.451111278338487,9.711771432438582 M 17.6009619120957,9.3500000000964 M 17.839339845991702,9.039339828320237 M 18.15000001776984,8.80096189442682 M 18.511771450113315,8.651111260672877 M 18.900000017763745,8.600000000108594 M 19.288228585413833,8.651111260676316 M 19.650000017756227,8.80096189443347 M 19.960660189532092,9.039339828329389 M 20.19903812342548,9.350000000107457 M 20.34888875717948,9.7117714324512 M 20.400000017743565,10.100000000101488 M 20.348888757176326,10.488228567751605 M 20.199038123419143,10.850000000093843 M 19.960660189523097,11.160660171869722 M 19.650000017744972,11.399038105763111 M 19.28822858540137,11.54888873951731 M 18.90000001775107,11.600000000081394 M 18.511771450100852,11.548888739513956 M 18.1500000177585,11.399038105756688 M 17.839339845982735,11.160660171860656 M 17.60096191208936,10.850000000082815 M 17.451111278335375,10.488228567739071 M 20.400000017394504,71.90000000009047 M 20.348888756826952,72.28822856774417 M 20.199038123068945,72.65000000008999 M 19.960660189171136,72.96066017186905 M 19.650000017390596,73.19903810576506 M 19.288228585044067,73.34888873952076 M 18.90000001739007,73.40000000008604 M 18.511771449736543,73.34888873951851 M 18.150000017390667,73.19903810576048 M 17.83933984561162,72.96066017186274 M 17.600961911715686,72.65000000008229 M 17.45111127795984,72.28822856773553 M 17.40000001739459,71.90000000008163 M 17.45111127796217,71.5117714324279 M 17.600961911720134,71.15000000008229 M 17.8393398456179,70.83933982830317 M 18.1500000173982,70.60096189440722 M 18.51177144974507,70.45111126065126 M 18.90000001739901,70.40000000008621 M 19.288228585052636,70.45111126065368 M 19.650000017398185,70.60096189441171 M 19.960660189177403,70.83933982830956 M 20.199038123073393,71.15000000009005 M 20.348888756829297,71.5117714324366 M 96.56066018953325,11.16066017232032 M 96.25000001775209,11.399038106215386 M 95.88822858540499,11.548888739970067 M 95.50000001775089,11.600000000534095 M 95.1117714500974,11.548888739965463 M 94.75000001775206,11.39903810620629 M 94.43933984597356,11.160660172307672 M 94.20096191207861,10.850000000526421 M 94.0511112783239,10.488228568179267 M 94.00000001775985,10.100000000525114 M 94.05111127832862,9.7117714328717 M 94.20096191208759,9.35000000052645 M 94.4393398459863,9.039339828747956 M 94.7500000177676,8.800961894852833 M 95.11177145011476,8.65111126109818 M 95.50000001776885,8.600000000534152 M 95.8882285854223,8.651111261102812 M 96.25000001776763,8.800961894862041 M 96.56066018954593,9.039339828760717 M 96.79903812344091,9.350000000541769 M 96.94888875719585,9.711771432888952 M 97.00000001775999,10.10000000054319 M 96.94888875719107,10.488228568196547 M 96.79903812343193,10.850000000541769 M 105.16862916788853,5.431370850492698 M 104.91435937173372,5.100000000592729 M 104.75451869572859,4.714110472755721 M 104.70000001779346,4.300000000591439 M 104.75451869573345,3.8858895284276116 M 104.9143593717431,3.5000000005927348 M 105.16862916790163,3.168629150695722 M 105.50000001780165,2.9143593545409487 M 105.88588954563858,2.7545186785358453 M 106.30000001780286,2.7000000006008236 M 106.7141104899666,2.7545186785406486 M 107.10000001780165,2.914359354550413 M 107.43137086769858,3.1686291507088526 M 107.68564066385329,3.5000000006090204 M 107.84548133985845,3.8858895284457446 M 107.90000001779345,4.300000000610254 M 107.84548133985359,4.7141104727739105 M 107.68564066384391,5.100000000608986 M 107.43137086768544,5.431370850505829 M 107.10000001778542,5.685640646660545 M 106.71411048994852,5.8454813226655915 M 106.30000001778424,5.900000000600784 M 105.88588954562047,5.845481322660817 M 105.50000001778542,5.685640646651223 M 107.70050187255083,98.52631107521529 M 107.8530263579253,98.91515043891377 M 107.89971466467904,99.33021666424659 M 107.83738506186324,99.74322367388757 M 107.67028520890511,100.12602572265699 M 107.4098026846383,100.45253548353881 M 107.07368894262362,100.70050185591329 M 106.68484957892548,100.85302634128975 M 106.26978335359209,100.89971464804263 M 105.85677634395077,100.83738504522604 M 105.47397429518239,100.6702851922689 M 105.14746453429987,100.40980266800156 M 104.89949816192487,100.0736889259869 M 104.74697367655037,99.68484956228896 M 104.7002853697966,99.26978333695517 M 104.76261497261228,98.85677632731431 M 104.9297148255705,98.4739742785454 M 105.19019734983732,98.14746451766297 M 105.52631109185185,97.89949814528805 M 105.91515045555013,97.74697365991379 M 106.33021668088338,97.70028535315964 M 106.74322369052467,97.76261495597561 M 107.1260257392932,97.92971480893375 M 107.45253550017563,98.19019733320036 M 17.199286005957518,98.40097970648667 M 17.386870991615083,98.77417086736254 M 17.47147519398719,99.18319641465872 M 17.44733297649742,99.60018193327377 M 17.3160895913705,99.99671054921517 M 17.08668905841303,100.345759492601 M 16.774764644843742,100.62354165477026 M 16.40157348396781,100.81112664042786 M 15.992547936671542,100.89573084279992 M 15.575562418056577,100.87158862531005 M 15.179033802115185,100.74034524018313 M 14.829984858729333,100.51094470722555 M 14.552202696560059,100.19902029365637 M 14.364617710902422,99.82582913278047 M 14.280013508530544,99.41680358548433 M 14.304155726020326,98.99981806686932 M 14.435399111147234,98.60328945092785 M 14.664799644104704,98.25424050754208 M 14.97672405767399,97.9764583453728 M 15.349915218549796,97.78887335971523 M 15.758940765845978,97.70426915734323 M 16.175926284461156,97.72841137483307 M 16.572454900402548,97.85965475995997 M 16.921503843788287,98.08905529291742 M 17.240593022870982,5.310410310665247 M 16.93680740956215,5.597070511157966 M 16.56917992065138,5.795337499830424 M 16.16276376197527,5.891699709056468 M 15.74525552311296,5.879590213523471 M 15.345107700577941,5.759834255339939 M 14.989589707200423,5.540593005150015 M 14.702929506707989,5.236807391841012 M 14.50466251803536,4.869179902930313 M 14.40830030880933,4.462763744254232 M 14.420409804342569,4.045255505391992 M 14.540165762526115,3.645107682856917 M 14.759407012715926,3.2895896894792713 M 15.063192626024758,3.0029294889868368 M 15.430820114935301,2.804662500314322 M 15.837236273611637,2.708300291088193 M 16.254744512473806,2.7204097866213885 M 16.654892335008952,2.840165744805006 M 17.0104103283865,3.0594069949947027 M 17.297070528878933,3.363192608303706 M 17.495337517551548,3.7308200972143197 M 17.59169972677735,4.137236255890542 M 17.579590231244353,4.554744494752924 M 17.459834273060807,4.954892317287857 M 95.49999997302143,16.100000000534294 M 95.50000006213602,65.90000000053476 M 93.94708578279977,66.10444503314955 M 92.5000000432374,66.70384756290943 M 91.25735934610807,67.65735929758563 M 90.30384760215895,68.89999998759961 M 89.7044450616005,70.34708572268906 M 89.50000001739744,71.90000000049969 M 24.900000017398867,71.90000000012185 M 24.695554977070714,70.34708573670224 M 24.096152447573616,68.90000001302195 M 23.14264072034804,67.65735932879744 M 21.90000004323889,66.70384759229879 M 20.45291432403144,66.1044450520032 M 18.90000006213745,65.90000000008675 M 18.900000017725546,16.100000000086396 M 20.452914288341688,15.895554957829916 M 21.900000017730065,15.296152422810508 M 23.142640704854912,14.3426406872305 M 24.0961524404496,13.100000000116836 M 24.695554975485777,11.652914270735351 M 24.90000001776052,10.100000000121355 M 89.50000001776004,10.10000000049925 M 89.70444505808817,11.652914263918802 M 90.30384758758527,13.099999987599148 M 91.25735931481086,14.342640671823744 M 92.49999999192005,15.296152408322172 M 93.94708571112747,15.895554948617928 "
  />
  <path id="face0-interior"
 style="fill:none;stroke:#FF0000;stroke-width:0.1;stroke-miterlimit:4;stroke-dasharray:none;stroke-linejoin:round;stroke-linecap:round"
        d="M 5.000000017218682,102.60000000000001 M 129.7000000172162,102.60000000000001 M 129.70000001725012,97.60000000072874 M 133.70000003846783,97.60000000075021 M 133.7000000385536,81.50211305990192 M 129.7000000173359,81.50211305988051 M 129.70000001740777,69.50000000073501 M 122.70000001740769,69.50000000069488 M 122.70000001765976,27.00000000068809 M 129.70000001765735,27.00000000072839 M 129.70000001768614,22.00000000072839 M 133.6999999833432,22.000000000753175 M 133.69999998344264,6.000000000753175 M 129.70000001777058,6.0000000007298695 M 129.70000001779965,1.0000000007298127 M 5.000000017813235,1.0 M 5.000000017720751,16.800000000007657 M 1.0000000004096208,16.799999999984067 M 1.0,86.79999999998522 M 5.000000017311152,86.80000000000875 M 97.00000001739443,71.90000000054272 M 96.94888875682597,72.28822856819619 M 96.79903812306705,72.65000000054155 M 96.56066018916852,72.96066017232005 M 96.25000001738732,73.19903810621514 M 95.88822858504034,73.34888873997014 M 95.50000001738621,73.40000000053436 M 95.11177144973277,73.3488887399657 M 94.75000001738735,73.19903810620679 M 94.43933984560891,72.96066017230828 M 94.20096191171379,72.65000000052717 M 94.0511112779588,72.28822856818016 M 94.0000000173946,71.90000000052603 M 94.05111127796314,71.5117714328724 M 94.20096191172206,71.15000000052717 M 94.4393398456206,70.83933982874873 M 94.75000001740176,70.6009618948535 M 95.11177144974872,70.45111126109859 M 95.50000001740287,70.40000000053436 M 95.88822858505628,70.45111126110285 M 96.25000001740173,70.60096189486188 M 96.56066018918025,70.83933982876047 M 96.79903812307532,71.15000000054152 M 96.9488887568304,71.51177143288845 M 17.400000017770722,10.100000000088755 M 17.451111278338487,9.711771432438582 M 17.6009619120957,9.3500000000964 M 17.839339845991702,9.039339828320237 M 18.15000001776984,8.80096189442682 M 18.511771450113315,8.651111260672877 M 18.900000017763745,8.600000000108594 M 19.288228585413833,8.651111260676316 M 19.650000017756227,8.80096189443347 M 19.960660189532092,9.039339828329389 M 20.19903812342548,9.350000000107457 M 20.34888875717948,9.7117714324512 M 20.400000017743565,10.100000000101488 M 20.348888757176326,10.488228567751605 M 20.199038123419143,10.850000000093843 M 19.960660189523097,11.160660171869722 M 19.650000017744972,11.399038105763111 M 19.28822858540137,11.54888873951731 M 18.90000001775107,11.600000000081394 M 18.511771450100852,11.548888739513956 M 18.1500000177585,11.399038105756688 M 17.839339845982735,11.160660171860656 M 17.60096191208936,10.850000000082815 M 17.451111278335375,10.488228567739071 M 20.400000017394504,71.90000000009047 M 20.348888756826952,72.28822856774417 M 20.199038123068945,72.65000000008999 M 19.960660189171136,72.96066017186905 M 19.650000017390596,73.19903810576506 M 19.288228585044067,73.34888873952076 M 18.90000001739007,73.40000000008604 M 18.511771449736543,73.34888873951851 M 18.150000017390667,73.19903810576048 M 17.83933984561162,72.96066017186274 M 17.600961911715686,72.65000000008229 M 17.45111127795984,72.28822856773553 M 17.40000001739459,71.90000000008163 M 17.45111127796217,71.5117714324279 M 17.600961911720134,71.15000000008229 M 17.8393398456179,70.83933982830317 M 18.1500000173982,70.60096189440722 M 18.51177144974507,70.45111126065126 M 18.90000001739901,70.40000000008621 M 19.288228585052636,70.45111126065368 M 19.650000017398185,70.60096189441171 M 19.960660189177403,70.83933982830956 M 20.199038123073393,71.15000000009005 M 20.348888756829297,71.5117714324366 M 96.56066018953325,11.16066017232032 M 96.25000001775209,11.399038106215386 M 95.88822858540499,11.548888739970067 M 95.50000001775089,11.600000000534095 M 95.1117714500974,11.548888739965463 M 94.75000001775206,11.39903810620629 M 94.43933984597356,11.160660172307672 M 94.20096191207861,10.850000000526421 M 94.0511112783239,10.488228568179267 M 94.00000001775985,10.100000000525114 M 94.05111127832862,9.7117714328717 M 94.20096191208759,9.35000000052645 M 94.4393398459863,9.039339828747956 M 94.7500000177676,8.800961894852833 M 95.11177145011476,8.65111126109818 M 95.50000001776885,8.600000000534152 M 95.8882285854223,8.651111261102812 M 96.25000001776763,8.800961894862041 M 96.56066018954593,9.039339828760717 M 96.79903812344091,9.350000000541769 M 96.94888875719585,9.711771432888952 M 97.00000001775999,10.10000000054319 M 96.94888875719107,10.488228568196547 M 96.79903812343193,10.850000000541769 M 105.16862916788853,5.431370850492698 M 104.91435937173372,5.100000000592729 M 104.75451869572859,4.714110472755721 M 104.70000001779346,4.300000000591439 M 104.75451869573345,3.8858895284276116 M 104.9143593717431,3.5000000005927348 M 105.16862916790163,3.168629150695722 M 105.50000001780165,2.9143593545409487 M 105.88588954563858,2.7545186785358453 M 106.30000001780286,2.7000000006008236 M 106.7141104899666,2.7545186785406486 M 107.10000001780165,2.914359354550413 M 107.43137086769858,3.1686291507088526 M 107.68564066385329,3.5000000006090204 M 107.84548133985845,3.8858895284457446 M 107.90000001779345,4.300000000610254 M 107.84548133985359,4.7141104727739105 M 107.68564066384391,5.100000000608986 M 107.43137086768544,5.431370850505829 M 107.10000001778542,5.685640646660545 M 106.71411048994852,5.8454813226655915 M 106.30000001778424,5.900000000600784 M 105.88588954562047,5.845481322660817 M 105.50000001778542,5.685640646651223 M 107.70050187255083,98.52631107521529 M 107.8530263579253,98.91515043891377 M 107.89971466467904,99.33021666424659 M 107.83738506186324,99.74322367388757 M 107.67028520890511,100.12602572265699 M 107.4098026846383,100.45253548353881 M 107.07368894262362,100.70050185591329 M 106.68484957892548,100.85302634128975 M 106.26978335359209,100.89971464804263 M 105.85677634395077,100.83738504522604 M 105.47397429518239,100.6702851922689 M 105.14746453429987,100.40980266800156 M 104.89949816192487,100.0736889259869 M 104.74697367655037,99.68484956228896 M 104.7002853697966,99.26978333695517 M 104.76261497261228,98.85677632731431 M 104.9297148255705,98.4739742785454 M 105.19019734983732,98.14746451766297 M 105.52631109185185,97.89949814528805 M 105.91515045555013,97.74697365991379 M 106.33021668088338,97.70028535315964 M 106.74322369052467,97.76261495597561 M 107.1260257392932,97.92971480893375 M 107.45253550017563,98.19019733320036 M 17.199286005957518,98.40097970648667 M 17.386870991615083,98.77417086736254 M 17.47147519398719,99.18319641465872 M 17.44733297649742,99.60018193327377 M 17.3160895913705,99.99671054921517 M 17.08668905841303,100.345759492601 M 16.774764644843742,100.62354165477026 M 16.40157348396781,100.81112664042786 M 15.992547936671542,100.89573084279992 M 15.575562418056577,100.87158862531005 M 15.179033802115185,100.74034524018313 M 14.829984858729333,100.51094470722555 M 14.552202696560059,100.19902029365637 M 14.364617710902422,99.82582913278047 M 14.280013508530544,99.41680358548433 M 14.304155726020326,98.99981806686932 M 14.435399111147234,98.60328945092785 M 14.664799644104704,98.25424050754208 M 14.97672405767399,97.9764583453728 M 15.349915218549796,97.78887335971523 M 15.758940765845978,97.70426915734323 M 16.175926284461156,97.72841137483307 M 16.572454900402548,97.85965475995997 M 16.921503843788287,98.08905529291742 M 17.240593022870982,5.310410310665247 M 16.93680740956215,5.597070511157966 M 16.56917992065138,5.795337499830424 M 16.16276376197527,5.891699709056468 M 15.74525552311296,5.879590213523471 M 15.345107700577941,5.759834255339939 M 14.989589707200423,5.540593005150015 M 14.702929506707989,5.236807391841012 M 14.50466251803536,4.869179902930313 M 14.40830030880933,4.462763744254232 M 14.420409804342569,4.045255505391992 M 14.540165762526115,3.645107682856917 M 14.759407012715926,3.2895896894792713 M 15.063192626024758,3.0029294889868368 M 15.430820114935301,2.804662500314322 M 15.837236273611637,2.708300291088193 M 16.254744512473806,2.7204097866213885 M 16.654892335008952,2.840165744805006 M 17.0104103283865,3.0594069949947027 M 17.297070528878933,3.363192608303706 M 17.495337517551548,3.7308200972143197 M 17.59169972677735,4.137236255890542 M 17.579590231244353,4.554744494752924 M 17.459834273060807,4.954892317287857 M 95.49999997302143,16.100000000534294 M 95.50000006213602,65.90000000053476 M 93.94708578279977,66.10444503314955 M 92.5000000432374,66.70384756290943 M 91.25735934610807,67.65735929758563 M 90.30384760215895,68.89999998759961 M 89.7044450616005,70.34708572268906 M 89.50000001739744,71.90000000049969 M 24.900000017398867,71.90000000012185 M 24.695554977070714,70.34708573670224 M 24.096152447573616,68.90000001302195 M 23.14264072034804,67.65735932879744 M 21.90000004323889,66.70384759229879 M 20.45291432403144,66.1044450520032 M 18.90000006213745,65.90000000008675 M 18.900000017725546,16.100000000086396 M 20.452914288341688,15.895554957829916 M 21.900000017730065,15.296152422810508 M 23.142640704854912,14.3426406872305 M 24.0961524404496,13.100000000116836 M 24.695554975485777,11.652914270735351 M 24.90000001776052,10.100000000121355 M 89.50000001776004,10.10000000049925 M 89.70444505808817,11.652914263918802 M 90.30384758758527,13.099999987599148 M 91.25735931481086,14.342640671823744 M 92.49999999192005,15.296152408322172 M 93.94708571112747,15.895554948617928 "
  />
</svg>
