<?xml version="1.0" standalone="no"?>
<!DOCTYPE svg PUBLIC "-//W3C//DTD SVG 1.1//EN" "http://www.w3.org/Graphics/SVG/1.1/DTD/svg11.dtd">
<svg width="241.02301144450502mm" height="278.00000000000006mm"
 viewBox="0 0 241.02301144450502 278.00000000000006"
 xmlns="http://www.w3.org/2000/svg" version="1.1"
 xmlns:xlink="http://www.w3.org/1999/xlink">
<desc>Output from Flights of Ideas SVG Sketchup Plugin</desc>

  <path id="face0-cut"
 style="fill:none;stroke:#FF0000;stroke-width:0.1;stroke-miterlimit:4;stroke-dasharray:none;stroke-linejoin:round;stroke-linecap:round"
        d="M 240.02301144450502,208.0000000000001 L 240.02301144450502,188.0000000000001 L 240.02301144450502,119.72613565215727 L 240.02301144450502,93.99999999999999 L 240.02301144450502,90.00000000000001 L 240.02301144450502,69.99999999999997 L 222.7025033688162,59.99999999999994 L 163.59792224834368,25.87595417975497 L 141.29611541307918,12.999999999999986 L 137.83201379794144,10.999999999999915 L 120.51150572225261,1.0 L 103.19099764656384,10.999999999999957 L 44.063979228585154,45.13699999999998 L 21.7846096908267,57.999999999999964 L 18.32050807568885,60.00000000000001 L 1.0000000000001137,69.99999999999991 L 1.0000000000000568,90.0 L 1.0000000000000568,158.27399999999997 L 1.0,184.0000000000004 L 1.0,188.0 L 1.0000000000000568,208.00000000000014 L 18.32050807568882,218.00000000000034 L 77.44752649366767,252.13699999999994 L 99.72689603142604,265.00000000000006 L 103.19099764656377,267.00000000000006 L 120.51150572225261,277.00000000000006 L 137.83201379794133,267.00000000000006 L 196.95903221591996,232.86300000000006 L 219.23840175367843,220.0 L 222.70250336881622,218.0 L 240.02301144450502,208.0000000000001 M 208.58315407754057,210.27084017629628 L 193.86072209072069,218.77084003035407 L 192.3607217285545,216.1727631254874 L 132.51150572225265,250.72672409730023 L 132.51150572225265,219.3535106751798 L 198.09968725041946,181.48615641446878 L 225.269687072414,197.1727631255755 L 207.0831535929127,207.6727631255274 L 208.58315407754057,210.27084017629628 M 196.099687072413,93.04974207317206 L 223.26968707241298,77.36313525928992 L 223.26968707241298,98.36313525928995 L 226.26968708820405,98.36313525928998 L 226.26968707241292,115.36313525928995 L 223.26968707241298,115.36313525928995 L 223.26968707241298,184.47105720340426 L 196.09968707241296,168.78445038952603 L 196.099687072413,93.04974207317206 M 138.56792886894095,27.305851821301637 L 152.55423916273872,35.380851834395365 L 151.05423916273867,37.97892804574871 L 211.26968707241295,72.74433310577292 L 184.09968707241296,88.43093991965506 L 118.51150572225262,50.56358576148217 L 118.51150572225261,19.1903721337179 L 137.06792889161997,29.903928045748657 L 138.56792886894095,27.305851821301637 M 32.43985860823719,67.72916167245072 L 47.162289976849166,59.229160813815405 L 48.66228997684222,61.827237025172764 L 108.51150572225265,27.27327620398534 L 108.51150572225262,58.64648983170146 L 42.92332463302807,96.51384383898903 L 15.753324633043178,80.82723702511942 L 33.939858112484046,70.32723702513329 L 32.43985860823719,67.72916167245072 M 14.753324632983407,179.63686459008426 L 14.753324632983407,162.6368645900842 L 17.753324632983407,162.63686459008443 L 17.753324632983407,93.52894294725486 L 44.923324632983395,109.21554976113305 L 44.92332463298342,184.95025777620214 L 17.753324632983407,200.63686459008437 L 17.753324632983407,179.63686459008431 L 14.753324632983407,179.63686459008426 M 102.82497224277944,250.90770407726023 L 88.10254037844399,242.4077040772603 L 89.60254037844395,239.80962786590703 L 29.75332437241707,205.25566689403985 L 56.92332437241711,189.56906008015733 L 122.51150572225265,227.43641423814267 L 122.51150572225265,258.8096278659069 L 104.32497224277942,248.30962786590698 L 102.82497224277944,250.90770407726023 M 228.85446024006845,203.18599862310043 L 214.91328108209493,211.23494188576677 L 212.91328113371847,207.7708402408258 L 226.85446029169233,199.7218969781577 L 228.85446024006845,203.18599862310043 M 163.38293915065162,240.98599764740726 L 149.5265325708811,248.98599744091297 L 147.52653262250496,245.52189579597007 L 161.38293920227537,237.52189600246453 L 163.38293915065162,240.98599764740726 M 107.15509792881645,253.4077030068284 L 121.09627696684231,261.45664647725187 L 119.09627696684221,264.9207480923896 L 105.15509792881748,256.8718046219658 L 107.15509792881645,253.4077030068284 M 41.76834998019169,215.65664647725168 L 55.62475644074283,223.6566464772506 L 53.6247564407428,227.12074809238823 L 39.76834998019149,219.12074809238885 L 41.76834998019169,215.65664647725168 M 14.753325559881489,184.63686497800683 L 14.753325559880125,200.73475191885606 L 10.753325559880182,200.73475191885495 L 10.753325559882313,184.63686497800666 L 14.753325559881489,184.63686497800683 M 14.753325559897718,109.13475191885928 L 14.753325559895927,125.13475191885897 L 10.753325559895842,125.13475191885829 L 10.753325559897746,109.13475191885833 L 14.753325559897718,109.13475191885928 M 91.49648009830617,29.01400320421105 L 93.49648009830636,32.47810481934885 L 79.64007363775647,40.47810481935062 L 77.6400736377561,37.01400320421302 L 91.49648009830617,29.01400320421105 M 28.109732149681037,70.22916134892505 L 14.168553111657246,78.27810481935204 L 12.168553111657019,74.8140032042144 L 26.109732149680525,66.76505973378852 L 28.109732149681037,70.22916134892505 M 121.92673162718691,13.079250872987117 L 135.8679107354705,21.12819422171883 L 133.86791076570964,24.592295854314116 L 119.92673165742482,16.543352505582746 L 121.92673162718691,13.079250872987117 M 187.39825248324115,50.879250301489975 L 201.25465901362412,58.879250180537056 L 199.25465904386195,62.34335181313271 L 185.39825251347915,54.34335193408569 L 187.39825248324115,50.879250301489975 M 230.26968664360123,77.26524890481171 L 230.2696869828361,93.3631358456601 L 226.26968698283696,93.36313592995374 L 226.26968664360123,77.2652489891045 L 230.26968664360123,77.26524890481171 M 230.26968823673377,152.86524890480865 L 230.26968857390608,168.86524890480868 L 226.26968857390602,168.86524898910142 L 226.26968823673369,152.8652489891016 L 230.26968823673377,152.86524890480865 M 136.09996299037252,134.14359353944891 L 136.0999629903725,145.69059892325694 L 132.51150572225265,143.618802153533 L 132.5115057222527,145.92820323027541 L 132.51150572225265,150.07179676972459 L 122.51150572225265,155.8452994616208 L 122.51150572225265,151.7017059221717 L 120.51150572225274,152.85640646055109 L 116.92304845413281,154.92820323027556 L 106.9230484541326,149.15470053837922 L 110.51150572223833,147.082903768663 L 108.51150572225268,145.9282032302757 L 104.92304845413275,143.85640646055134 L 104.92304845413271,132.3094010767776 L 108.51150572225274,134.38119784650155 L 108.51150572225251,132.07179676972473 L 108.51150572225272,127.92820323027553 L 118.51150572225265,122.15470053837933 L 118.51150572225265,126.29829407782816 L 120.51150572225248,125.14359353944906 L 124.09996299037238,123.07179676972451 L 134.0999629903724,128.84529946162075 L 130.51150572223767,130.9170962313538 L 132.5115057222525,132.07179676972447 L 136.09996299037252,134.14359353944891 M 118.51150370521079,113.99999999948727 L 118.51150369331438,77.71100001772282 L 122.51150371315191,77.7110000177228 L 122.51150408586105,114.00000000461982 L 118.51150370521079,113.99999999948727 M 122.51150462152339,164.00000000006344 L 122.51150480589988,200.28922252134393 L 118.51150500254693,200.28922256892528 L 118.51150462152339,164.0000000425121 L 122.51150462152339,164.00000000006344 M 230.76968764130814,105.99711047498003 L 230.97679442249466,106.15602909757794 L 231.13571304509256,106.36313587876447 L 231.2356134675972,106.60431683366195 L 231.2696876413081,106.86313587876448 L 231.2356134675972,107.12195492386701 L 231.13571304509256,107.36313587876445 L 230.97679442249466,107.570242659951 L 230.76968764130814,107.72916128254893 L 230.52850668641062,107.82906170505356 L 230.2696876413081,107.8631358787645 L 230.01086859620563,107.82906170505356 L 229.7696876413081,107.72916128254892 L 229.56258086012156,107.57024265995105 L 229.4036622375237,107.36313587876447 L 229.30376181501904,107.12195492386701 L 229.2696876413081,106.86313587876448 L 229.30376181501902,106.60431683366195 L 229.4036622375237,106.36313587876447 L 229.56258086012156,106.15602909757794 L 229.7696876413081,105.99711047498003 L 230.01086859620563,105.8972100524754 L 230.2696876413081,105.8631358787645 L 230.52850668641062,105.89721005247543 L 230.76968764130814,105.99711047498003 M 204.4210755651456,216.4761224093254 L 204.5209759876509,216.2349414544282 L 204.67989461024936,216.02783467324207 L 204.88700139143629,215.8689160506447 L 205.12818234633406,215.76901562814072 L 205.38700139143668,215.7349414544305 L 205.64582043653908,215.7690156281421 L 205.88700139143634,215.8689160506474 L 206.0941081726224,216.02783467324582 L 206.25302679521977,216.23494145443283 L 206.3529272177238,216.47612240933057 L 206.38700139143398,216.73494145443317 L 206.35292721772237,216.9937604995356 L 206.2530267952171,217.23494145443283 L 206.09410817261863,217.44204823561893 L 205.88700139143165,217.60096685821628 L 205.64582043653394,217.70086728072027 L 205.3870013914313,217.7349414544305 L 205.12818234632886,217.70086728071885 L 204.88700139143168,217.60096685821355 L 204.67989461024553,217.44204823561512 L 204.52097598764823,217.23494145442817 L 204.42107556514426,216.99376049953042 L 204.38700139143398,216.73494145442783 L 204.4210755651456,216.4761224093254 M 201.0568743725078,218.23494145441896 L 201.21579299510623,218.0278346732328 L 201.4228997762932,217.86891605063545 L 201.66408073119095,217.76901562813146 L 201.92289977629358,217.73494145442118 L 202.18171882139598,217.76901562813282 L 202.42289977629318,217.86891605063812 L 202.6300065574793,218.02783467323655 L 202.78892518007666,218.2349414544235 L 202.88882560258062,218.4761224093213 L 202.92289977629088,218.7349414544239 L 202.8888256025793,218.99376049952633 L 202.788925180074,219.2349414544235 L 202.63000655747553,219.4420482356096 L 202.4228997762886,219.60096685820696 L 202.18171882139083,219.700867280711 L 201.9228997762882,219.73494145442118 L 201.66408073118578,219.7008672807096 L 201.42289977628855,219.60096685820434 L 201.21579299510248,219.44204823560585 L 201.05687437250512,219.2349414544189 L 200.9569739500011,218.99376049952116 L 200.92289977629088,218.73494145441856 L 200.95697395000252,218.47612240931608 L 201.0568743725078,218.23494145441896 M 98.36086929475933,252.37180462196238 L 98.32679512104838,252.63062366706492 L 98.22689469854377,252.87180462196244 L 98.06797607594588,253.078911403149 L 97.86086929475934,253.23783002574686 L 97.61968833986184,253.33773044825153 L 97.3608692947593,253.37180462196233 L 97.10205024965678,253.33773044825142 L 96.8608692947593,253.2378300257468 L 96.6537625135728,253.078911403149 L 96.49484389097486,252.87180462196244 L 96.39494346847025,252.63062366706487 L 96.36086929475933,252.37180462196244 L 96.39494346847025,252.11298557685996 L 96.49484389097485,251.87180462196233 L 96.65376251357277,251.66469784077583 L 96.8608692947593,251.50577921817796 L 97.10205024965678,251.4058787956733 L 97.36086929475933,251.3718046219625 L 97.61968833986184,251.40587879567335 L 97.8608692947593,251.5057792181779 L 98.06797607594585,251.6646978407759 L 98.22689469854376,251.87180462196244 L 98.32679512104838,252.11298557685996 L 98.36086929475933,252.37180462196238 M 92.93084185333268,250.63062366706498 L 92.89676767962175,250.3718046219625 L 92.93084185333268,250.11298557685996 L 93.03074227583731,249.87180462196255 L 93.18966089843519,249.66469784077606 L 93.3967676796217,249.50577921817813 L 93.63794863451919,249.40587879567346 L 93.8967676796217,249.3718046219626 L 94.15558672472422,249.40587879567346 L 94.39676767962166,249.50577921817813 L 94.6038744608082,249.66469784077606 L 94.7627930834061,249.8718046219626 L 94.86269350591067,250.11298557685996 L 94.89676767962163,250.37180462196255 L 94.86269350591071,250.6306236670651 L 94.76279308340607,250.8718046219625 L 94.60387446080819,251.07891140314905 L 94.39676767962166,251.23783002574697 L 94.15558672472419,251.3377304482516 L 93.89676767962166,251.37180462196238 L 93.63794863451922,251.33773044825153 L 93.3967676796217,251.23783002574697 L 93.18966089843518,251.078911403149 L 93.03074227583728,250.8718046219625 L 92.93084185333268,250.63062366706498 M 91.29869146826825,247.87180462196255 L 91.39859189077286,248.11298557686 L 91.43266606448378,248.3718046219625 L 91.39859189077286,248.63062366706498 L 91.29869146826825,248.8718046219625 L 91.13977284567034,249.07891140314888 L 90.93266606448383,249.2378300257468 L 90.6914851095864,249.33773044825148 L 90.4326660644839,249.37180462196238 L 90.17384701938141,249.33773044825148 L 89.932666064484,249.23783002574692 L 89.72555928329744,249.078911403149 L 89.5666406606996,248.87180462196244 L 89.46674023819497,248.63062366706504 L 89.43266606448405,248.37180462196244 L 89.466740238195,248.11298557686 L 89.5666406606996,247.87180462196255 L 89.72555928329749,247.66469784077606 L 89.93266606448401,247.50577921817813 L 90.17384701938145,247.40587879567357 L 90.43266606448397,247.37180462196278 L 90.69148510958644,247.40587879567357 L 90.93266606448388,247.50577921817825 L 91.13977284567042,247.66469784077617 L 91.29869146826825,247.87180462196255 M 10.753325559883393,176.63686497800677 L 11.012144604985878,176.67093915171787 L 11.253325559883365,176.77083957422255 L 11.460432341069946,176.92975819682025 L 11.619350963667728,177.13686497800694 L 11.719251386172346,177.37804593290457 L 11.753325559883251,177.63686497800683 L 11.719251386172232,177.8956840231096 L 11.619350963667586,178.13686497800688 L 11.460432341069719,178.34397175919355 L 11.25332555988308,178.5028903817914 L 11.01214460498565,178.6027908042962 L 10.753325559883109,178.636864978007 L 10.494506514780596,178.6027908042958 L 10.253325559883137,178.50289038179125 L 10.046218778696613,178.34397175919355 L 9.887300156098718,178.13686497800677 L 9.787399733594128,177.89568402310917 L 9.753325559883251,177.63686497800677 L 9.787399733594157,177.37804593290423 L 9.88730015609886,177.13686497800666 L 10.046218778696783,176.92975819682013 L 10.253325559883308,176.77083957422218 L 10.494506514780852,176.6709391517178 L 10.753325559883393,176.63686497800677 M 11.753325559883706,173.63686497800694 L 11.719251386172687,173.89568402310965 L 11.61935096366804,174.13686497800717 L 11.460432341070174,174.34397175919366 L 11.253325559883592,174.5028903817916 L 11.012144604986105,174.60279080429598 L 10.75332555988362,174.63686497800705 L 10.494506514781136,174.60279080429603 L 10.253325559883677,174.50289038179125 L 10.046218778697153,174.34397175919344 L 9.887300156099315,174.136864978007 L 9.787399733594697,173.89568402310942 L 9.753325559883791,173.63686497800688 L 9.78739973359481,173.37804593290446 L 9.887300156099457,173.13686497800688 L 10.046218778697323,172.92975819682053 L 10.253325559883905,172.7708395742224 L 10.494506514781392,172.67093915171802 L 10.753325559883876,172.63686497800722 L 11.012144604986332,172.67093915171813 L 11.25332555988382,172.77083957422258 L 11.460432341070344,172.9297581968208 L 11.619350963668182,173.13686497800722 L 11.7192513861728,173.37804593290466 L 11.753325559883706,173.63686497800694 M 11.619350963668666,169.13686497800742 L 11.719251386173227,169.3780459329048 L 11.75332555988416,169.63686497800722 L 11.719251386173141,169.8956840231096 L 11.619350963668495,170.13686497800694 L 11.4604323410706,170.34397175919366 L 11.253325559884075,170.50289038179147 L 11.012144604986588,170.6027908042958 L 10.753325559884104,170.63686497800694 L 10.49450651478162,170.60279080429603 L 10.253325559884217,170.50289038179125 L 10.046218778697693,170.3439717591933 L 9.887300156099855,170.13686497800677 L 9.787399733595265,169.8956840231092 L 9.753325559884388,169.63686497800688 L 9.78739973359535,169.3780459329044 L 9.887300156099997,169.13686497800705 L 10.04621877869792,168.92975819682027 L 10.253325559884502,168.77083957422252 L 10.494506514781932,168.67093915171804 L 10.753325559884416,168.63686497800745 L 11.0121446049869,168.6709391517181 L 11.25332555988436,168.77083957422275 L 11.460432341070828,168.92975819682076 L 11.619350963668666,169.13686497800742 M 11.01214460498747,164.67093915171804 L 11.2533255598849,164.77083957422258 L 11.460432341071368,164.92975819682056 L 11.619350963669206,165.1368649780074 L 11.719251386173823,165.37804593290457 L 11.7533255598847,165.6368649780071 L 11.719251386173767,165.89568402310965 L 11.61935096366912,166.13686497800714 L 11.460432341071197,166.3439717591935 L 11.253325559884615,166.50289038179147 L 11.012144604987185,166.60279080429615 L 10.753325559884644,166.63686497800694 L 10.494506514782216,166.60279080429592 L 10.253325559884757,166.50289038179142 L 10.046218778698233,166.3439717591934 L 9.887300156100366,166.13686497800683 L 9.787399733595805,165.89568402310925 L 9.753325559884871,165.63686497800694 L 9.78739973359589,165.37804593290434 L 9.887300156100537,165.13686497800688 L 10.046218778698403,164.92975819682036 L 10.253325559884956,164.7708395742226 L 10.494506514782444,164.67093915171813 L 10.753325559884928,164.6368649780071 L 11.01214460498747,164.67093915171804 M 29.573833764818005,64.76505973378818 L 29.47393334231336,64.52387877889072 L 29.43985916860234,64.26505973378818 L 29.47393334231336,64.00624068868551 L 29.57383376481792,63.765059733788135 L 29.732752387415786,63.55795295260158 L 29.93985916860231,63.39903433000366 L 30.18104012349977,63.299133907498984 L 30.43985916860231,63.265059733788 L 30.698678213704824,63.29913390749889 L 30.93985916860231,63.399034330003474 L 31.146965949788836,63.557952952601354 L 31.305884572386816,63.765059733787865 L 31.405784994891462,64.00624068868538 L 31.439859168602396,64.26505973378792 L 31.40578499489152,64.52387877889038 L 31.3058845723869,64.76505973378784 L 31.146965949788978,64.9721665149745 L 30.93985916860254,65.13108513757231 L 30.698678213705023,65.23098556007707 L 30.43985916860248,65.26505973378802 L 30.181040123500026,65.23098556007703 L 29.93985916860251,65.13108513757257 L 29.732752387415985,64.97216651497462 L 29.573833764818005,64.76505973378818 M 32.90396078373993,62.26505973378773 L 32.93803495745081,62.00624068868522 L 33.03793537995543,61.76505973378773 L 33.19685400255335,61.55795295260109 L 33.40396078373982,61.39903433000318 L 33.64514173863722,61.2991339074986 L 33.90396078373976,61.26505973378764 L 34.16277982884239,61.299133907498444 L 34.40396078373982,61.399034330003076 L 34.611067564926344,61.55795295260104 L 34.769986187524296,61.76505973378751 L 34.86988661002894,62.00624068868495 L 34.90396078373999,62.26505973378746 L 34.86988661002897,62.52387877888997 L 34.76998618752441,62.76505973378746 L 34.61106756492657,62.972166514974006 L 34.40396078373996,63.13108513757203 L 34.16277982884256,63.23098556007666 L 33.90396078374002,63.26505973378757 L 33.645141738637534,63.23098556007666 L 33.40396078374002,63.13108513757205 L 33.19685400255349,62.97216651497415 L 33.03793537995551,62.765059733787794 L 32.938034957450895,62.52387877889015 L 32.90396078373993,62.26505973378773 M 38.23408780266172,59.765059733787105 L 38.33398822516648,60.00624068868448 L 38.368062398877385,60.265059733787126 L 38.333988225166536,60.52387877888955 L 38.234087802661946,60.7650597337871 L 38.07516918006408,60.97216651497361 L 37.86806239887753,61.13108513757158 L 37.62688144398007,61.230985560076235 L 37.36806239887753,61.26505973378717 L 37.10924335377504,61.230985560076235 L 36.86806239887753,61.131085137571674 L 36.660955617691,60.97216651497381 L 36.50203699509302,60.76505973378735 L 36.402136572588404,60.52387877888982 L 36.36806239887741,60.265059733787304 L 36.40213657258832,60.00624068868473 L 36.502036995092936,59.76505973378728 L 36.6609556176908,59.55795295260069 L 36.8680623988773,59.39903433000288 L 37.10924335377473,59.2991339074982 L 37.3680623988773,59.26505973378724 L 37.62688144397984,59.29913390749802 L 37.86806239887733,59.399034330002664 L 38.07516918006388,59.55795295260053 L 38.23408780266172,59.765059733787105 M 41.698189417799256,57.76505973378674 L 41.79808984030399,58.00624068868405 L 41.83216401401489,58.26505973378672 L 41.79808984030407,58.52387877888912 L 41.698189417799426,58.7650597337867 L 41.53927079520162,58.9721665149732 L 41.33216401401509,59.13108513757109 L 41.090983059117576,59.23098556007583 L 40.832164014015035,59.265059733786785 L 40.57334496891255,59.23098556007587 L 40.33216401401501,59.13108513757133 L 40.125057232828425,58.97216651497347 L 39.96613861023056,58.765059733786856 L 39.866238187725884,58.52387877888941 L 39.83216401401495,58.265059733786835 L 39.8662381877258,58.006240688684414 L 39.966138610230416,57.76505973378693 L 40.12505723282831,57.55795295260031 L 40.33216401401478,57.39903433000242 L 40.57334496891224,57.29913390749782 L 40.83216401401481,57.26505973378681 L 41.09098305911729,57.29913390749768 L 41.332164014014865,57.39903433000222 L 41.53927079520136,57.55795295260015 L 41.698189417799256,57.76505973378674 M 44.29626562915253,57.26505973378636 L 44.037446584050016,57.230985560075425 L 43.79626562915253,57.13108513757078 L 43.58915884796599,56.972166514973004 L 43.43024022536808,56.76505973378643 L 43.330339802863435,56.52387877888897 L 43.296265629152444,56.26505973378648 L 43.330339802863364,56.006240688683924 L 43.43024022536794,55.76505973378648 L 43.589158847965805,55.557952952599905 L 43.79626562915233,55.399034330002 L 44.037446584049746,55.29913390749735 L 44.29626562915233,55.26505973378632 L 44.555084674254886,55.299133907497236 L 44.79626562915233,55.39903433000195 L 45.003372410338926,55.557952952599656 L 45.16229103293679,55.76505973378627 L 45.26219145544148,56.00624068868374 L 45.296265629152415,56.265059733786295 L 45.26219145544155,56.523878778888744 L 45.162291032936906,56.765059733786316 L 45.00337241033907,56.972166514972784 L 44.79626562915253,57.13108513757075 L 44.55508467425511,57.23098556007527 L 44.29626562915253,57.26505973378636 M 139.33201268013408,23.128193650962658 L 139.17309405753625,23.335300432149168 L 138.96598727634975,23.494219054747006 L 138.72480632145235,23.59411947725161 L 138.46598727634995,23.62819365096253 L 138.20716823124746,23.594119477251596 L 137.96598727635006,23.494219054746992 L 137.75888049516354,23.335300432149197 L 137.59996187256576,23.128193650962714 L 137.50006145006114,22.887012696065312 L 137.46598727635018,22.62819365096287 L 137.5000614500611,22.369374605860443 L 137.5999618725657,22.128193650963 L 137.7588804951636,21.921086869776502 L 137.96598727635006,21.762168247178707 L 138.20716823124746,21.66226782467406 L 138.46598727634992,21.62819365096314 L 138.72480632145235,21.662267824674032 L 138.96598727634978,21.762168247178664 L 139.17309405753625,21.921086869776474 L 139.33201268013406,22.128193650962984 L 139.43191310263865,22.36937460586043 L 139.46598727634955,22.62819365096287 L 139.43191310263867,22.887012696065284 L 139.33201268013408,23.128193650962658 M 140.9300888914878,24.62819365096282 L 140.9641630651988,24.36937460586033 L 141.06406348770338,24.128193650962928 L 141.22298211030127,23.92108686977636 L 141.43008889148774,23.762168247178565 L 141.67126984638517,23.662267824673933 L 141.93008889148763,23.628193650963 L 142.18890793659014,23.66226782467392 L 142.4300888914876,23.762168247178522 L 142.63719567267407,23.92108686977643 L 142.7961142952719,24.128193650962956 L 142.89601471777655,24.3693746058603 L 142.93008889148743,24.628193650962842 L 142.8960147177765,24.887012696065284 L 142.79611429527193,25.12819365096268 L 142.637195672674,25.335300432149253 L 142.43008889148751,25.49421905474712 L 142.18890793659014,25.594119477251674 L 141.93008889148763,25.628193650962636 L 141.67126984638514,25.594119477251702 L 141.43008889148774,25.49421905474712 L 141.22298211030125,25.335300432149232 L 141.0640634877034,25.12819365096273 L 140.96416306519876,24.887012696065305 L 140.9300888914878,24.62819365096282 M 146.26021591040967,27.12819365096277 L 146.10129728781183,27.335300432149253 L 145.89419050662534,27.49421905474707 L 145.65300955172788,27.594119477251695 L 145.39419050662536,27.628193650962608 L 145.13537146152294,27.594119477251716 L 144.89419050662548,27.49421905474705 L 144.68708372543904,27.335300432149204 L 144.52816510284114,27.12819365096268 L 144.4282646803365,26.887012696065284 L 144.3941905066256,26.628193650962814 L 144.42826468033653,26.369374605860372 L 144.5281651028412,26.128193650962906 L 144.68708372543898,25.921086869776424 L 144.89419050662556,25.762168247178515 L 145.1353714615229,25.662267824673933 L 145.39419050662542,25.628193650963 L 145.65300955172788,25.662267824673954 L 145.8941905066253,25.762168247178536 L 146.1012972878118,25.921086869776445 L 146.26021591040964,26.128193650962928 L 146.36011633291423,26.369374605860372 L 146.39419050662516,26.628193650962864 L 146.3601163329143,26.887012696065256 L 146.26021591040967,27.12819365096277 M 149.72431752554743,29.1281936509627 L 149.56539890294954,29.335300432149246 L 149.3582921217631,29.494219054747084 L 149.11711116686564,29.594119477251695 L 148.85829212176316,29.62819365096265 L 148.59947307666067,29.594119477251716 L 148.35829212176327,29.494219054747113 L 148.15118534057672,29.335300432149225 L 147.99226671797894,29.1281936509627 L 147.89236629547423,28.887012696065277 L 147.85829212176333,28.628193650962835 L 147.89236629547423,28.369374605860344 L 147.9922667179789,28.128193650962878 L 148.15118534057672,27.921086869776396 L 148.35829212176324,27.762168247178558 L 148.5994730766607,27.662267824673933 L 148.8582921217632,27.62819365096297 L 149.11711116686558,27.662267824673933 L 149.35829212176307,27.762168247178536 L 149.56539890294962,27.921086869776353 L 149.72431752554743,28.128193650962878 L 149.824217948052,28.369374605860365 L 149.85829212176304,28.628193650962814 L 149.82421794805202,28.887012696065277 L 149.72431752554743,29.1281936509627 M 151.35646791061214,30.887012696065227 L 151.32239373690118,30.628193650962807 L 151.3564679106121,30.369374605860344 L 151.45636833311673,30.1281936509629 L 151.6152869557146,29.921086869776417 L 151.8223937369011,29.7621682471786 L 152.06357469179852,29.662267824673975 L 152.32239373690095,29.628193650963105 L 152.5812127820034,29.662267824674018 L 152.82239373690086,29.7621682471786 L 153.02950051808733,29.92108686977644 L 153.18841914068514,30.12819365096299 L 153.28831956318976,30.369374605860365 L 153.32239373690064,30.62819365096285 L 153.2883195631897,30.887012696065298 L 153.18841914068508,31.128193650962714 L 153.02950051808727,31.335300432149175 L 152.8223937369008,31.494219054747013 L 152.58121278200335,31.594119477251617 L 152.3223937369009,31.628193650962537 L 152.06357469179844,31.594119477251596 L 151.82239373690106,31.49421905474697 L 151.6152869557145,31.335300432149154 L 151.45636833311673,31.12819365096263 L 151.35646791061214,30.887012696065227 M 155.5276763069362,33.59411947725171 L 155.28649535203877,33.494219054747106 L 155.07938857085225,33.33530043214922 L 154.92046994825438,33.12819365096276 L 154.8205695257498,32.88701269606525 L 154.78649535203886,32.62819365096283 L 154.82056952574982,32.36937460586034 L 154.92046994825444,32.12819365096287 L 155.07938857085227,31.92108686977639 L 155.2864953520388,31.762168247178508 L 155.52767630693626,31.662267824673926 L 155.78649535203863,31.628193650963006 L 156.04531439714117,31.662267824673904 L 156.2864953520386,31.76216824717853 L 156.4936021332251,31.921086869776367 L 156.65252075582296,32.12819365096289 L 156.75242117832755,32.36937460586036 L 156.78649535203851,32.62819365096278 L 156.75242117832752,32.88701269606529 L 156.65252075582293,33.128193650962736 L 156.4936021332251,33.33530043214922 L 156.2864953520386,33.494219054747056 L 156.0453143971411,33.59411947725171 L 155.78649535203868,33.6281936509626 L 155.5276763069362,33.59411947725171 "
  />
  <path id="face0-interior"
 style="fill:none;stroke:#FF0000;stroke-width:0.1;stroke-miterlimit:4;stroke-dasharray:none;stroke-linejoin:round;stroke-linecap:round"
        d="M 240.02301144450502,208.0000000000001 M 240.02301144450502,188.0000000000001 M 240.02301144450502,119.72613565215727 M 240.02301144450502,93.99999999999999 M 240.02301144450502,90.00000000000001 M 240.02301144450502,69.99999999999997 M 222.7025033688162,59.99999999999994 M 163.59792224834368,25.87595417975497 M 141.29611541307918,12.999999999999986 M 137.83201379794144,10.999999999999915 M 120.51150572225261,1.0 M 103.19099764656384,10.999999999999957 M 44.063979228585154,45.13699999999998 M 21.7846096908267,57.999999999999964 M 18.32050807568885,60.00000000000001 M 1.0000000000001137,69.99999999999991 M 1.0000000000000568,90.0 M 1.0000000000000568,158.27399999999997 M 1.0,184.0000000000004 M 1.0,188.0 M 1.0000000000000568,208.00000000000014 M 18.32050807568882,218.00000000000034 M 77.44752649366767,252.13699999999994 M 99.72689603142604,265.00000000000006 M 103.19099764656377,267.00000000000006 M 120.51150572225261,277.00000000000006 M 137.83201379794133,267.00000000000006 M 196.95903221591996,232.86300000000006 M 219.23840175367843,220.0 M 222.70250336881622,218.0 M 208.58315407754057,210.27084017629628 M 193.86072209072069,218.77084003035407 M 192.3607217285545,216.1727631254874 M 132.51150572225265,250.72672409730023 M 132.51150572225265,219.3535106751798 M 198.09968725041946,181.48615641446878 M 225.269687072414,197.1727631255755 M 207.0831535929127,207.6727631255274 M 196.099687072413,93.04974207317206 M 223.26968707241298,77.36313525928992 M 223.26968707241298,98.36313525928995 M 226.26968708820405,98.36313525928998 M 226.26968707241292,115.36313525928995 M 223.26968707241298,115.36313525928995 M 223.26968707241298,184.47105720340426 M 196.09968707241296,168.78445038952603 M 138.56792886894095,27.305851821301637 M 152.55423916273872,35.380851834395365 M 151.05423916273867,37.97892804574871 M 211.26968707241295,72.74433310577292 M 184.09968707241296,88.43093991965506 M 118.51150572225262,50.56358576148217 M 118.51150572225261,19.1903721337179 M 137.06792889161997,29.903928045748657 M 32.43985860823719,67.72916167245072 M 47.162289976849166,59.229160813815405 M 48.66228997684222,61.827237025172764 M 108.51150572225265,27.27327620398534 M 108.51150572225262,58.64648983170146 M 42.92332463302807,96.51384383898903 M 15.753324633043178,80.82723702511942 M 33.939858112484046,70.32723702513329 M 14.753324632983407,179.63686459008426 M 14.753324632983407,162.6368645900842 M 17.753324632983407,162.63686459008443 M 17.753324632983407,93.52894294725486 M 44.923324632983395,109.21554976113305 M 44.92332463298342,184.95025777620214 M 17.753324632983407,200.63686459008437 M 17.753324632983407,179.63686459008431 M 102.82497224277944,250.90770407726023 M 88.10254037844399,242.4077040772603 M 89.60254037844395,239.80962786590703 M 29.75332437241707,205.25566689403985 M 56.92332437241711,189.56906008015733 M 122.51150572225265,227.43641423814267 M 122.51150572225265,258.8096278659069 M 104.32497224277942,248.30962786590698 M 228.85446024006845,203.18599862310043 M 214.91328108209493,211.23494188576677 M 212.91328113371847,207.7708402408258 M 226.85446029169233,199.7218969781577 M 163.38293915065162,240.98599764740726 M 149.5265325708811,248.98599744091297 M 147.52653262250496,245.52189579597007 M 161.38293920227537,237.52189600246453 M 107.15509792881645,253.4077030068284 M 121.09627696684231,261.45664647725187 M 119.09627696684221,264.9207480923896 M 105.15509792881748,256.8718046219658 M 41.76834998019169,215.65664647725168 M 55.62475644074283,223.6566464772506 M 53.6247564407428,227.12074809238823 M 39.76834998019149,219.12074809238885 M 14.753325559881489,184.63686497800683 M 14.753325559880125,200.73475191885606 M 10.753325559880182,200.73475191885495 M 10.753325559882313,184.63686497800666 M 14.753325559897718,109.13475191885928 M 14.753325559895927,125.13475191885897 M 10.753325559895842,125.13475191885829 M 10.753325559897746,109.13475191885833 M 91.49648009830617,29.01400320421105 M 93.49648009830636,32.47810481934885 M 79.64007363775647,40.47810481935062 M 77.6400736377561,37.01400320421302 M 28.109732149681037,70.22916134892505 M 14.168553111657246,78.27810481935204 M 12.168553111657019,74.8140032042144 M 26.109732149680525,66.76505973378852 M 121.92673162718691,13.079250872987117 M 135.8679107354705,21.12819422171883 M 133.86791076570964,24.592295854314116 M 119.92673165742482,16.543352505582746 M 187.39825248324115,50.879250301489975 M 201.25465901362412,58.879250180537056 M 199.25465904386195,62.34335181313271 M 185.39825251347915,54.34335193408569 M 230.26968664360123,77.26524890481171 M 230.2696869828361,93.3631358456601 M 226.26968698283696,93.36313592995374 M 226.26968664360123,77.2652489891045 M 230.26968823673377,152.86524890480865 M 230.26968857390608,168.86524890480868 M 226.26968857390602,168.86524898910142 M 226.26968823673369,152.8652489891016 M 136.09996299037252,134.14359353944891 M 136.0999629903725,145.69059892325694 M 132.51150572225265,143.618802153533 M 132.5115057222527,145.92820323027541 M 132.51150572225265,150.07179676972459 M 122.51150572225265,155.8452994616208 M 122.51150572225265,151.7017059221717 M 120.51150572225274,152.85640646055109 M 116.92304845413281,154.92820323027556 M 106.9230484541326,149.15470053837922 M 110.51150572223833,147.082903768663 M 108.51150572225268,145.9282032302757 M 104.92304845413275,143.85640646055134 M 104.92304845413271,132.3094010767776 M 108.51150572225274,134.38119784650155 M 108.51150572225251,132.07179676972473 M 108.51150572225272,127.92820323027553 M 118.51150572225265,122.15470053837933 M 118.51150572225265,126.29829407782816 M 120.51150572225248,125.14359353944906 M 124.09996299037238,123.07179676972451 M 134.0999629903724,128.84529946162075 M 130.51150572223767,130.9170962313538 M 132.5115057222525,132.07179676972447 M 118.51150370521079,113.99999999948727 M 118.51150369331438,77.71100001772282 M 122.51150371315191,77.7110000177228 M 122.51150408586105,114.00000000461982 M 122.51150462152339,164.00000000006344 M 122.51150480589988,200.28922252134393 M 118.51150500254693,200.28922256892528 M 118.51150462152339,164.0000000425121 M 230.76968764130814,105.99711047498003 M 230.97679442249466,106.15602909757794 M 231.13571304509256,106.36313587876447 M 231.2356134675972,106.60431683366195 M 231.2696876413081,106.86313587876448 M 231.2356134675972,107.12195492386701 M 231.13571304509256,107.36313587876445 M 230.97679442249466,107.570242659951 M 230.76968764130814,107.72916128254893 M 230.52850668641062,107.82906170505356 M 230.2696876413081,107.8631358787645 M 230.01086859620563,107.82906170505356 M 229.7696876413081,107.72916128254892 M 229.56258086012156,107.57024265995105 M 229.4036622375237,107.36313587876447 M 229.30376181501904,107.12195492386701 M 229.2696876413081,106.86313587876448 M 229.30376181501902,106.60431683366195 M 229.4036622375237,106.36313587876447 M 229.56258086012156,106.15602909757794 M 229.7696876413081,105.99711047498003 M 230.01086859620563,105.8972100524754 M 230.2696876413081,105.8631358787645 M 230.52850668641062,105.89721005247543 M 204.4210755651456,216.4761224093254 M 204.5209759876509,216.2349414544282 M 204.67989461024936,216.02783467324207 M 204.88700139143629,215.8689160506447 M 205.12818234633406,215.76901562814072 M 205.38700139143668,215.7349414544305 M 205.64582043653908,215.7690156281421 M 205.88700139143634,215.8689160506474 M 206.0941081726224,216.02783467324582 M 206.25302679521977,216.23494145443283 M 206.3529272177238,216.47612240933057 M 206.38700139143398,216.73494145443317 M 206.35292721772237,216.9937604995356 M 206.2530267952171,217.23494145443283 M 206.09410817261863,217.44204823561893 M 205.88700139143165,217.60096685821628 M 205.64582043653394,217.70086728072027 M 205.3870013914313,217.7349414544305 M 205.12818234632886,217.70086728071885 M 204.88700139143168,217.60096685821355 M 204.67989461024553,217.44204823561512 M 204.52097598764823,217.23494145442817 M 204.42107556514426,216.99376049953042 M 204.38700139143398,216.73494145442783 M 201.0568743725078,218.23494145441896 M 201.21579299510623,218.0278346732328 M 201.4228997762932,217.86891605063545 M 201.66408073119095,217.76901562813146 M 201.92289977629358,217.73494145442118 M 202.18171882139598,217.76901562813282 M 202.42289977629318,217.86891605063812 M 202.6300065574793,218.02783467323655 M 202.78892518007666,218.2349414544235 M 202.88882560258062,218.4761224093213 M 202.92289977629088,218.7349414544239 M 202.8888256025793,218.99376049952633 M 202.788925180074,219.2349414544235 M 202.63000655747553,219.4420482356096 M 202.4228997762886,219.60096685820696 M 202.18171882139083,219.700867280711 M 201.9228997762882,219.73494145442118 M 201.66408073118578,219.7008672807096 M 201.42289977628855,219.60096685820434 M 201.21579299510248,219.44204823560585 M 201.05687437250512,219.2349414544189 M 200.9569739500011,218.99376049952116 M 200.92289977629088,218.73494145441856 M 200.95697395000252,218.47612240931608 M 98.36086929475933,252.37180462196238 M 98.32679512104838,252.63062366706492 M 98.22689469854377,252.87180462196244 M 98.06797607594588,253.078911403149 M 97.86086929475934,253.23783002574686 M 97.61968833986184,253.33773044825153 M 97.3608692947593,253.37180462196233 M 97.10205024965678,253.33773044825142 M 96.8608692947593,253.2378300257468 M 96.6537625135728,253.078911403149 M 96.49484389097486,252.87180462196244 M 96.39494346847025,252.63062366706487 M 96.36086929475933,252.37180462196244 M 96.39494346847025,252.11298557685996 M 96.49484389097485,251.87180462196233 M 96.65376251357277,251.66469784077583 M 96.8608692947593,251.50577921817796 M 97.10205024965678,251.4058787956733 M 97.36086929475933,251.3718046219625 M 97.61968833986184,251.40587879567335 M 97.8608692947593,251.5057792181779 M 98.06797607594585,251.6646978407759 M 98.22689469854376,251.87180462196244 M 98.32679512104838,252.11298557685996 M 92.93084185333268,250.63062366706498 M 92.89676767962175,250.3718046219625 M 92.93084185333268,250.11298557685996 M 93.03074227583731,249.87180462196255 M 93.18966089843519,249.66469784077606 M 93.3967676796217,249.50577921817813 M 93.63794863451919,249.40587879567346 M 93.8967676796217,249.3718046219626 M 94.15558672472422,249.40587879567346 M 94.39676767962166,249.50577921817813 M 94.6038744608082,249.66469784077606 M 94.7627930834061,249.8718046219626 M 94.86269350591067,250.11298557685996 M 94.89676767962163,250.37180462196255 M 94.86269350591071,250.6306236670651 M 94.76279308340607,250.8718046219625 M 94.60387446080819,251.07891140314905 M 94.39676767962166,251.23783002574697 M 94.15558672472419,251.3377304482516 M 93.89676767962166,251.37180462196238 M 93.63794863451922,251.33773044825153 M 93.3967676796217,251.23783002574697 M 93.18966089843518,251.078911403149 M 93.03074227583728,250.8718046219625 M 91.29869146826825,247.87180462196255 M 91.39859189077286,248.11298557686 M 91.43266606448378,248.3718046219625 M 91.39859189077286,248.63062366706498 M 91.29869146826825,248.8718046219625 M 91.13977284567034,249.07891140314888 M 90.93266606448383,249.2378300257468 M 90.6914851095864,249.33773044825148 M 90.4326660644839,249.37180462196238 M 90.17384701938141,249.33773044825148 M 89.932666064484,249.23783002574692 M 89.72555928329744,249.078911403149 M 89.5666406606996,248.87180462196244 M 89.46674023819497,248.63062366706504 M 89.43266606448405,248.37180462196244 M 89.466740238195,248.11298557686 M 89.5666406606996,247.87180462196255 M 89.72555928329749,247.66469784077606 M 89.93266606448401,247.50577921817813 M 90.17384701938145,247.40587879567357 M 90.43266606448397,247.37180462196278 M 90.69148510958644,247.40587879567357 M 90.93266606448388,247.50577921817825 M 91.13977284567042,247.66469784077617 M 10.753325559883393,176.63686497800677 M 11.012144604985878,176.67093915171787 M 11.253325559883365,176.77083957422255 M 11.460432341069946,176.92975819682025 M 11.619350963667728,177.13686497800694 M 11.719251386172346,177.37804593290457 M 11.753325559883251,177.63686497800683 M 11.719251386172232,177.8956840231096 M 11.619350963667586,178.13686497800688 M 11.460432341069719,178.34397175919355 M 11.25332555988308,178.5028903817914 M 11.01214460498565,178.6027908042962 M 10.753325559883109,178.636864978007 M 10.494506514780596,178.6027908042958 M 10.253325559883137,178.50289038179125 M 10.046218778696613,178.34397175919355 M 9.887300156098718,178.13686497800677 M 9.787399733594128,177.89568402310917 M 9.753325559883251,177.63686497800677 M 9.787399733594157,177.37804593290423 M 9.88730015609886,177.13686497800666 M 10.046218778696783,176.92975819682013 M 10.253325559883308,176.77083957422218 M 10.494506514780852,176.6709391517178 M 11.753325559883706,173.63686497800694 M 11.719251386172687,173.89568402310965 M 11.61935096366804,174.13686497800717 M 11.460432341070174,174.34397175919366 M 11.253325559883592,174.5028903817916 M 11.012144604986105,174.60279080429598 M 10.75332555988362,174.63686497800705 M 10.494506514781136,174.60279080429603 M 10.253325559883677,174.50289038179125 M 10.046218778697153,174.34397175919344 M 9.887300156099315,174.136864978007 M 9.787399733594697,173.89568402310942 M 9.753325559883791,173.63686497800688 M 9.78739973359481,173.37804593290446 M 9.887300156099457,173.13686497800688 M 10.046218778697323,172.92975819682053 M 10.253325559883905,172.7708395742224 M 10.494506514781392,172.67093915171802 M 10.753325559883876,172.63686497800722 M 11.012144604986332,172.67093915171813 M 11.25332555988382,172.77083957422258 M 11.460432341070344,172.9297581968208 M 11.619350963668182,173.13686497800722 M 11.7192513861728,173.37804593290466 M 11.619350963668666,169.13686497800742 M 11.719251386173227,169.3780459329048 M 11.75332555988416,169.63686497800722 M 11.719251386173141,169.8956840231096 M 11.619350963668495,170.13686497800694 M 11.4604323410706,170.34397175919366 M 11.253325559884075,170.50289038179147 M 11.012144604986588,170.6027908042958 M 10.753325559884104,170.63686497800694 M 10.49450651478162,170.60279080429603 M 10.253325559884217,170.50289038179125 M 10.046218778697693,170.3439717591933 M 9.887300156099855,170.13686497800677 M 9.787399733595265,169.8956840231092 M 9.753325559884388,169.63686497800688 M 9.78739973359535,169.3780459329044 M 9.887300156099997,169.13686497800705 M 10.04621877869792,168.92975819682027 M 10.253325559884502,168.77083957422252 M 10.494506514781932,168.67093915171804 M 10.753325559884416,168.63686497800745 M 11.0121446049869,168.6709391517181 M 11.25332555988436,168.77083957422275 M 11.460432341070828,168.92975819682076 M 11.01214460498747,164.67093915171804 M 11.2533255598849,164.77083957422258 M 11.460432341071368,164.92975819682056 M 11.619350963669206,165.1368649780074 M 11.719251386173823,165.37804593290457 M 11.7533255598847,165.6368649780071 M 11.719251386173767,165.89568402310965 M 11.61935096366912,166.13686497800714 M 11.460432341071197,166.3439717591935 M 11.253325559884615,166.50289038179147 M 11.012144604987185,166.60279080429615 M 10.753325559884644,166.63686497800694 M 10.494506514782216,166.60279080429592 M 10.253325559884757,166.50289038179142 M 10.046218778698233,166.3439717591934 M 9.887300156100366,166.13686497800683 M 9.787399733595805,165.89568402310925 M 9.753325559884871,165.63686497800694 M 9.78739973359589,165.37804593290434 M 9.887300156100537,165.13686497800688 M 10.046218778698403,164.92975819682036 M 10.253325559884956,164.7708395742226 M 10.494506514782444,164.67093915171813 M 10.753325559884928,164.6368649780071 M 29.573833764818005,64.76505973378818 M 29.47393334231336,64.52387877889072 M 29.43985916860234,64.26505973378818 M 29.47393334231336,64.00624068868551 M 29.57383376481792,63.765059733788135 M 29.732752387415786,63.55795295260158 M 29.93985916860231,63.39903433000366 M 30.18104012349977,63.299133907498984 M 30.43985916860231,63.265059733788 M 30.698678213704824,63.29913390749889 M 30.93985916860231,63.399034330003474 M 31.146965949788836,63.557952952601354 M 31.305884572386816,63.765059733787865 M 31.405784994891462,64.00624068868538 M 31.439859168602396,64.26505973378792 M 31.40578499489152,64.52387877889038 M 31.3058845723869,64.76505973378784 M 31.146965949788978,64.9721665149745 M 30.93985916860254,65.13108513757231 M 30.698678213705023,65.23098556007707 M 30.43985916860248,65.26505973378802 M 30.181040123500026,65.23098556007703 M 29.93985916860251,65.13108513757257 M 29.732752387415985,64.97216651497462 M 32.90396078373993,62.26505973378773 M 32.93803495745081,62.00624068868522 M 33.03793537995543,61.76505973378773 M 33.19685400255335,61.55795295260109 M 33.40396078373982,61.39903433000318 M 33.64514173863722,61.2991339074986 M 33.90396078373976,61.26505973378764 M 34.16277982884239,61.299133907498444 M 34.40396078373982,61.399034330003076 M 34.611067564926344,61.55795295260104 M 34.769986187524296,61.76505973378751 M 34.86988661002894,62.00624068868495 M 34.90396078373999,62.26505973378746 M 34.86988661002897,62.52387877888997 M 34.76998618752441,62.76505973378746 M 34.61106756492657,62.972166514974006 M 34.40396078373996,63.13108513757203 M 34.16277982884256,63.23098556007666 M 33.90396078374002,63.26505973378757 M 33.645141738637534,63.23098556007666 M 33.40396078374002,63.13108513757205 M 33.19685400255349,62.97216651497415 M 33.03793537995551,62.765059733787794 M 32.938034957450895,62.52387877889015 M 38.23408780266172,59.765059733787105 M 38.33398822516648,60.00624068868448 M 38.368062398877385,60.265059733787126 M 38.333988225166536,60.52387877888955 M 38.234087802661946,60.7650597337871 M 38.07516918006408,60.97216651497361 M 37.86806239887753,61.13108513757158 M 37.62688144398007,61.230985560076235 M 37.36806239887753,61.26505973378717 M 37.10924335377504,61.230985560076235 M 36.86806239887753,61.131085137571674 M 36.660955617691,60.97216651497381 M 36.50203699509302,60.76505973378735 M 36.402136572588404,60.52387877888982 M 36.36806239887741,60.265059733787304 M 36.40213657258832,60.00624068868473 M 36.502036995092936,59.76505973378728 M 36.6609556176908,59.55795295260069 M 36.8680623988773,59.39903433000288 M 37.10924335377473,59.2991339074982 M 37.3680623988773,59.26505973378724 M 37.62688144397984,59.29913390749802 M 37.86806239887733,59.399034330002664 M 38.07516918006388,59.55795295260053 M 41.698189417799256,57.76505973378674 M 41.79808984030399,58.00624068868405 M 41.83216401401489,58.26505973378672 M 41.79808984030407,58.52387877888912 M 41.698189417799426,58.7650597337867 M 41.53927079520162,58.9721665149732 M 41.33216401401509,59.13108513757109 M 41.090983059117576,59.23098556007583 M 40.832164014015035,59.265059733786785 M 40.57334496891255,59.23098556007587 M 40.33216401401501,59.13108513757133 M 40.125057232828425,58.97216651497347 M 39.96613861023056,58.765059733786856 M 39.866238187725884,58.52387877888941 M 39.83216401401495,58.265059733786835 M 39.8662381877258,58.006240688684414 M 39.966138610230416,57.76505973378693 M 40.12505723282831,57.55795295260031 M 40.33216401401478,57.39903433000242 M 40.57334496891224,57.29913390749782 M 40.83216401401481,57.26505973378681 M 41.09098305911729,57.29913390749768 M 41.332164014014865,57.39903433000222 M 41.53927079520136,57.55795295260015 M 44.29626562915253,57.26505973378636 M 44.037446584050016,57.230985560075425 M 43.79626562915253,57.13108513757078 M 43.58915884796599,56.972166514973004 M 43.43024022536808,56.76505973378643 M 43.330339802863435,56.52387877888897 M 43.296265629152444,56.26505973378648 M 43.330339802863364,56.006240688683924 M 43.43024022536794,55.76505973378648 M 43.589158847965805,55.557952952599905 M 43.79626562915233,55.399034330002 M 44.037446584049746,55.29913390749735 M 44.29626562915233,55.26505973378632 M 44.555084674254886,55.299133907497236 M 44.79626562915233,55.39903433000195 M 45.003372410338926,55.557952952599656 M 45.16229103293679,55.76505973378627 M 45.26219145544148,56.00624068868374 M 45.296265629152415,56.265059733786295 M 45.26219145544155,56.523878778888744 M 45.162291032936906,56.765059733786316 M 45.00337241033907,56.972166514972784 M 44.79626562915253,57.13108513757075 M 44.55508467425511,57.23098556007527 M 139.33201268013408,23.128193650962658 M 139.17309405753625,23.335300432149168 M 138.96598727634975,23.494219054747006 M 138.72480632145235,23.59411947725161 M 138.46598727634995,23.62819365096253 M 138.20716823124746,23.594119477251596 M 137.96598727635006,23.494219054746992 M 137.75888049516354,23.335300432149197 M 137.59996187256576,23.128193650962714 M 137.50006145006114,22.887012696065312 M 137.46598727635018,22.62819365096287 M 137.5000614500611,22.369374605860443 M 137.5999618725657,22.128193650963 M 137.7588804951636,21.921086869776502 M 137.96598727635006,21.762168247178707 M 138.20716823124746,21.66226782467406 M 138.46598727634992,21.62819365096314 M 138.72480632145235,21.662267824674032 M 138.96598727634978,21.762168247178664 M 139.17309405753625,21.921086869776474 M 139.33201268013406,22.128193650962984 M 139.43191310263865,22.36937460586043 M 139.46598727634955,22.62819365096287 M 139.43191310263867,22.887012696065284 M 140.9300888914878,24.62819365096282 M 140.9641630651988,24.36937460586033 M 141.06406348770338,24.128193650962928 M 141.22298211030127,23.92108686977636 M 141.43008889148774,23.762168247178565 M 141.67126984638517,23.662267824673933 M 141.93008889148763,23.628193650963 M 142.18890793659014,23.66226782467392 M 142.4300888914876,23.762168247178522 M 142.63719567267407,23.92108686977643 M 142.7961142952719,24.128193650962956 M 142.89601471777655,24.3693746058603 M 142.93008889148743,24.628193650962842 M 142.8960147177765,24.887012696065284 M 142.79611429527193,25.12819365096268 M 142.637195672674,25.335300432149253 M 142.43008889148751,25.49421905474712 M 142.18890793659014,25.594119477251674 M 141.93008889148763,25.628193650962636 M 141.67126984638514,25.594119477251702 M 141.43008889148774,25.49421905474712 M 141.22298211030125,25.335300432149232 M 141.0640634877034,25.12819365096273 M 140.96416306519876,24.887012696065305 M 146.26021591040967,27.12819365096277 M 146.10129728781183,27.335300432149253 M 145.89419050662534,27.49421905474707 M 145.65300955172788,27.594119477251695 M 145.39419050662536,27.628193650962608 M 145.13537146152294,27.594119477251716 M 144.89419050662548,27.49421905474705 M 144.68708372543904,27.335300432149204 M 144.52816510284114,27.12819365096268 M 144.4282646803365,26.887012696065284 M 144.3941905066256,26.628193650962814 M 144.42826468033653,26.369374605860372 M 144.5281651028412,26.128193650962906 M 144.68708372543898,25.921086869776424 M 144.89419050662556,25.762168247178515 M 145.1353714615229,25.662267824673933 M 145.39419050662542,25.628193650963 M 145.65300955172788,25.662267824673954 M 145.8941905066253,25.762168247178536 M 146.1012972878118,25.921086869776445 M 146.26021591040964,26.128193650962928 M 146.36011633291423,26.369374605860372 M 146.39419050662516,26.628193650962864 M 146.3601163329143,26.887012696065256 M 149.72431752554743,29.1281936509627 M 149.56539890294954,29.335300432149246 M 149.3582921217631,29.494219054747084 M 149.11711116686564,29.594119477251695 M 148.85829212176316,29.62819365096265 M 148.59947307666067,29.594119477251716 M 148.35829212176327,29.494219054747113 M 148.15118534057672,29.335300432149225 M 147.99226671797894,29.1281936509627 M 147.89236629547423,28.887012696065277 M 147.85829212176333,28.628193650962835 M 147.89236629547423,28.369374605860344 M 147.9922667179789,28.128193650962878 M 148.15118534057672,27.921086869776396 M 148.35829212176324,27.762168247178558 M 148.5994730766607,27.662267824673933 M 148.8582921217632,27.62819365096297 M 149.11711116686558,27.662267824673933 M 149.35829212176307,27.762168247178536 M 149.56539890294962,27.921086869776353 M 149.72431752554743,28.128193650962878 M 149.824217948052,28.369374605860365 M 149.85829212176304,28.628193650962814 M 149.82421794805202,28.887012696065277 M 151.35646791061214,30.887012696065227 M 151.32239373690118,30.628193650962807 M 151.3564679106121,30.369374605860344 M 151.45636833311673,30.1281936509629 M 151.6152869557146,29.921086869776417 M 151.8223937369011,29.7621682471786 M 152.06357469179852,29.662267824673975 M 152.32239373690095,29.628193650963105 M 152.5812127820034,29.662267824674018 M 152.82239373690086,29.7621682471786 M 153.02950051808733,29.92108686977644 M 153.18841914068514,30.12819365096299 M 153.28831956318976,30.369374605860365 M 153.32239373690064,30.62819365096285 M 153.2883195631897,30.887012696065298 M 153.18841914068508,31.128193650962714 M 153.02950051808727,31.335300432149175 M 152.8223937369008,31.494219054747013 M 152.58121278200335,31.594119477251617 M 152.3223937369009,31.628193650962537 M 152.06357469179844,31.594119477251596 M 151.82239373690106,31.49421905474697 M 151.6152869557145,31.335300432149154 M 151.45636833311673,31.12819365096263 M 155.5276763069362,33.59411947725171 M 155.28649535203877,33.494219054747106 M 155.07938857085225,33.33530043214922 M 154.92046994825438,33.12819365096276 M 154.8205695257498,32.88701269606525 M 154.78649535203886,32.62819365096283 M 154.82056952574982,32.36937460586034 M 154.92046994825444,32.12819365096287 M 155.07938857085227,31.92108686977639 M 155.2864953520388,31.762168247178508 M 155.52767630693626,31.662267824673926 M 155.78649535203863,31.628193650963006 M 156.04531439714117,31.662267824673904 M 156.2864953520386,31.76216824717853 M 156.4936021332251,31.921086869776367 M 156.65252075582296,32.12819365096289 M 156.75242117832755,32.36937460586036 M 156.78649535203851,32.62819365096278 M 156.75242117832752,32.88701269606529 M 156.65252075582293,33.128193650962736 M 156.4936021332251,33.33530043214922 M 156.2864953520386,33.494219054747056 M 156.0453143971411,33.59411947725171 M 155.78649535203868,33.6281936509626 "
  />
  <path id="face0-interior"
 style="fill:none;stroke:#FF0000;stroke-width:0.1;stroke-miterlimit:4;stroke-dasharray:none;stroke-linejoin:round;stroke-linecap:round"
        d="M 240.02301144450502,208.0000000000001 M 240.02301144450502,188.0000000000001 M 240.02301144450502,119.72613565215727 M 240.02301144450502,93.99999999999999 M 240.02301144450502,90.00000000000001 M 240.02301144450502,69.99999999999997 M 222.7025033688162,59.99999999999994 M 163.59792224834368,25.87595417975497 M 141.29611541307918,12.999999999999986 M 137.83201379794144,10.999999999999915 M 120.51150572225261,1.0 M 103.19099764656384,10.999999999999957 M 44.063979228585154,45.13699999999998 M 21.7846096908267,57.999999999999964 M 18.32050807568885,60.00000000000001 M 1.0000000000001137,69.99999999999991 M 1.0000000000000568,90.0 M 1.0000000000000568,158.27399999999997 M 1.0,184.0000000000004 M 1.0,188.0 M 1.0000000000000568,208.00000000000014 M 18.32050807568882,218.00000000000034 M 77.44752649366767,252.13699999999994 M 99.72689603142604,265.00000000000006 M 103.19099764656377,267.00000000000006 M 120.51150572225261,277.00000000000006 M 137.83201379794133,267.00000000000006 M 196.95903221591996,232.86300000000006 M 219.23840175367843,220.0 M 222.70250336881622,218.0 M 208.58315407754057,210.27084017629628 M 193.86072209072069,218.77084003035407 M 192.3607217285545,216.1727631254874 M 132.51150572225265,250.72672409730023 M 132.51150572225265,219.3535106751798 M 198.09968725041946,181.48615641446878 M 225.269687072414,197.1727631255755 M 207.0831535929127,207.6727631255274 M 196.099687072413,93.04974207317206 M 223.26968707241298,77.36313525928992 M 223.26968707241298,98.36313525928995 M 226.26968708820405,98.36313525928998 M 226.26968707241292,115.36313525928995 M 223.26968707241298,115.36313525928995 M 223.26968707241298,184.47105720340426 M 196.09968707241296,168.78445038952603 M 138.56792886894095,27.305851821301637 M 152.55423916273872,35.380851834395365 M 151.05423916273867,37.97892804574871 M 211.26968707241295,72.74433310577292 M 184.09968707241296,88.43093991965506 M 118.51150572225262,50.56358576148217 M 118.51150572225261,19.1903721337179 M 137.06792889161997,29.903928045748657 M 32.43985860823719,67.72916167245072 M 47.162289976849166,59.229160813815405 M 48.66228997684222,61.827237025172764 M 108.51150572225265,27.27327620398534 M 108.51150572225262,58.64648983170146 M 42.92332463302807,96.51384383898903 M 15.753324633043178,80.82723702511942 M 33.939858112484046,70.32723702513329 M 14.753324632983407,179.63686459008426 M 14.753324632983407,162.6368645900842 M 17.753324632983407,162.63686459008443 M 17.753324632983407,93.52894294725486 M 44.923324632983395,109.21554976113305 M 44.92332463298342,184.95025777620214 M 17.753324632983407,200.63686459008437 M 17.753324632983407,179.63686459008431 M 102.82497224277944,250.90770407726023 M 88.10254037844399,242.4077040772603 M 89.60254037844395,239.80962786590703 M 29.75332437241707,205.25566689403985 M 56.92332437241711,189.56906008015733 M 122.51150572225265,227.43641423814267 M 122.51150572225265,258.8096278659069 M 104.32497224277942,248.30962786590698 M 228.85446024006845,203.18599862310043 M 214.91328108209493,211.23494188576677 M 212.91328113371847,207.7708402408258 M 226.85446029169233,199.7218969781577 M 163.38293915065162,240.98599764740726 M 149.5265325708811,248.98599744091297 M 147.52653262250496,245.52189579597007 M 161.38293920227537,237.52189600246453 M 107.15509792881645,253.4077030068284 M 121.09627696684231,261.45664647725187 M 119.09627696684221,264.9207480923896 M 105.15509792881748,256.8718046219658 M 41.76834998019169,215.65664647725168 M 55.62475644074283,223.6566464772506 M 53.6247564407428,227.12074809238823 M 39.76834998019149,219.12074809238885 M 14.753325559881489,184.63686497800683 M 14.753325559880125,200.73475191885606 M 10.753325559880182,200.73475191885495 M 10.753325559882313,184.63686497800666 M 14.753325559897718,109.13475191885928 M 14.753325559895927,125.13475191885897 M 10.753325559895842,125.13475191885829 M 10.753325559897746,109.13475191885833 M 91.49648009830617,29.01400320421105 M 93.49648009830636,32.47810481934885 M 79.64007363775647,40.47810481935062 M 77.6400736377561,37.01400320421302 M 28.109732149681037,70.22916134892505 M 14.168553111657246,78.27810481935204 M 12.168553111657019,74.8140032042144 M 26.109732149680525,66.76505973378852 M 121.92673162718691,13.079250872987117 M 135.8679107354705,21.12819422171883 M 133.86791076570964,24.592295854314116 M 119.92673165742482,16.543352505582746 M 187.39825248324115,50.879250301489975 M 201.25465901362412,58.879250180537056 M 199.25465904386195,62.34335181313271 M 185.39825251347915,54.34335193408569 M 230.26968664360123,77.26524890481171 M 230.2696869828361,93.3631358456601 M 226.26968698283696,93.36313592995374 M 226.26968664360123,77.2652489891045 M 230.26968823673377,152.86524890480865 M 230.26968857390608,168.86524890480868 M 226.26968857390602,168.86524898910142 M 226.26968823673369,152.8652489891016 M 136.09996299037252,134.14359353944891 M 136.0999629903725,145.69059892325694 M 132.51150572225265,143.618802153533 M 132.5115057222527,145.92820323027541 M 132.51150572225265,150.07179676972459 M 122.51150572225265,155.8452994616208 M 122.51150572225265,151.7017059221717 M 120.51150572225274,152.85640646055109 M 116.92304845413281,154.92820323027556 M 106.9230484541326,149.15470053837922 M 110.51150572223833,147.082903768663 M 108.51150572225268,145.9282032302757 M 104.92304845413275,143.85640646055134 M 104.92304845413271,132.3094010767776 M 108.51150572225274,134.38119784650155 M 108.51150572225251,132.07179676972473 M 108.51150572225272,127.92820323027553 M 118.51150572225265,122.15470053837933 M 118.51150572225265,126.29829407782816 M 120.51150572225248,125.14359353944906 M 124.09996299037238,123.07179676972451 M 134.0999629903724,128.84529946162075 M 130.51150572223767,130.9170962313538 M 132.5115057222525,132.07179676972447 M 118.51150370521079,113.99999999948727 M 118.51150369331438,77.71100001772282 M 122.51150371315191,77.7110000177228 M 122.51150408586105,114.00000000461982 M 122.51150462152339,164.00000000006344 M 122.51150480589988,200.28922252134393 M 118.51150500254693,200.28922256892528 M 118.51150462152339,164.0000000425121 M 230.76968764130814,105.99711047498003 M 230.97679442249466,106.15602909757794 M 231.13571304509256,106.36313587876447 M 231.2356134675972,106.60431683366195 M 231.2696876413081,106.86313587876448 M 231.2356134675972,107.12195492386701 M 231.13571304509256,107.36313587876445 M 230.97679442249466,107.570242659951 M 230.76968764130814,107.72916128254893 M 230.52850668641062,107.82906170505356 M 230.2696876413081,107.8631358787645 M 230.01086859620563,107.82906170505356 M 229.7696876413081,107.72916128254892 M 229.56258086012156,107.57024265995105 M 229.4036622375237,107.36313587876447 M 229.30376181501904,107.12195492386701 M 229.2696876413081,106.86313587876448 M 229.30376181501902,106.60431683366195 M 229.4036622375237,106.36313587876447 M 229.56258086012156,106.15602909757794 M 229.7696876413081,105.99711047498003 M 230.01086859620563,105.8972100524754 M 230.2696876413081,105.8631358787645 M 230.52850668641062,105.89721005247543 M 204.4210755651456,216.4761224093254 M 204.5209759876509,216.2349414544282 M 204.67989461024936,216.02783467324207 M 204.88700139143629,215.8689160506447 M 205.12818234633406,215.76901562814072 M 205.38700139143668,215.7349414544305 M 205.64582043653908,215.7690156281421 M 205.88700139143634,215.8689160506474 M 206.0941081726224,216.02783467324582 M 206.25302679521977,216.23494145443283 M 206.3529272177238,216.47612240933057 M 206.38700139143398,216.73494145443317 M 206.35292721772237,216.9937604995356 M 206.2530267952171,217.23494145443283 M 206.09410817261863,217.44204823561893 M 205.88700139143165,217.60096685821628 M 205.64582043653394,217.70086728072027 M 205.3870013914313,217.7349414544305 M 205.12818234632886,217.70086728071885 M 204.88700139143168,217.60096685821355 M 204.67989461024553,217.44204823561512 M 204.52097598764823,217.23494145442817 M 204.42107556514426,216.99376049953042 M 204.38700139143398,216.73494145442783 M 201.0568743725078,218.23494145441896 M 201.21579299510623,218.0278346732328 M 201.4228997762932,217.86891605063545 M 201.66408073119095,217.76901562813146 M 201.92289977629358,217.73494145442118 M 202.18171882139598,217.76901562813282 M 202.42289977629318,217.86891605063812 M 202.6300065574793,218.02783467323655 M 202.78892518007666,218.2349414544235 M 202.88882560258062,218.4761224093213 M 202.92289977629088,218.7349414544239 M 202.8888256025793,218.99376049952633 M 202.788925180074,219.2349414544235 M 202.63000655747553,219.4420482356096 M 202.4228997762886,219.60096685820696 M 202.18171882139083,219.700867280711 M 201.9228997762882,219.73494145442118 M 201.66408073118578,219.7008672807096 M 201.42289977628855,219.60096685820434 M 201.21579299510248,219.44204823560585 M 201.05687437250512,219.2349414544189 M 200.9569739500011,218.99376049952116 M 200.92289977629088,218.73494145441856 M 200.95697395000252,218.47612240931608 M 98.36086929475933,252.37180462196238 M 98.32679512104838,252.63062366706492 M 98.22689469854377,252.87180462196244 M 98.06797607594588,253.078911403149 M 97.86086929475934,253.23783002574686 M 97.61968833986184,253.33773044825153 M 97.3608692947593,253.37180462196233 M 97.10205024965678,253.33773044825142 M 96.8608692947593,253.2378300257468 M 96.6537625135728,253.078911403149 M 96.49484389097486,252.87180462196244 M 96.39494346847025,252.63062366706487 M 96.36086929475933,252.37180462196244 M 96.39494346847025,252.11298557685996 M 96.49484389097485,251.87180462196233 M 96.65376251357277,251.66469784077583 M 96.8608692947593,251.50577921817796 M 97.10205024965678,251.4058787956733 M 97.36086929475933,251.3718046219625 M 97.61968833986184,251.40587879567335 M 97.8608692947593,251.5057792181779 M 98.06797607594585,251.6646978407759 M 98.22689469854376,251.87180462196244 M 98.32679512104838,252.11298557685996 M 92.93084185333268,250.63062366706498 M 92.89676767962175,250.3718046219625 M 92.93084185333268,250.11298557685996 M 93.03074227583731,249.87180462196255 M 93.18966089843519,249.66469784077606 M 93.3967676796217,249.50577921817813 M 93.63794863451919,249.40587879567346 M 93.8967676796217,249.3718046219626 M 94.15558672472422,249.40587879567346 M 94.39676767962166,249.50577921817813 M 94.6038744608082,249.66469784077606 M 94.7627930834061,249.8718046219626 M 94.86269350591067,250.11298557685996 M 94.89676767962163,250.37180462196255 M 94.86269350591071,250.6306236670651 M 94.76279308340607,250.8718046219625 M 94.60387446080819,251.07891140314905 M 94.39676767962166,251.23783002574697 M 94.15558672472419,251.3377304482516 M 93.89676767962166,251.37180462196238 M 93.63794863451922,251.33773044825153 M 93.3967676796217,251.23783002574697 M 93.18966089843518,251.078911403149 M 93.03074227583728,250.8718046219625 M 91.29869146826825,247.87180462196255 M 91.39859189077286,248.11298557686 M 91.43266606448378,248.3718046219625 M 91.39859189077286,248.63062366706498 M 91.29869146826825,248.8718046219625 M 91.13977284567034,249.07891140314888 M 90.93266606448383,249.2378300257468 M 90.6914851095864,249.33773044825148 M 90.4326660644839,249.37180462196238 M 90.17384701938141,249.33773044825148 M 89.932666064484,249.23783002574692 M 89.72555928329744,249.078911403149 M 89.5666406606996,248.87180462196244 M 89.46674023819497,248.63062366706504 M 89.43266606448405,248.37180462196244 M 89.466740238195,248.11298557686 M 89.5666406606996,247.87180462196255 M 89.72555928329749,247.66469784077606 M 89.93266606448401,247.50577921817813 M 90.17384701938145,247.40587879567357 M 90.43266606448397,247.37180462196278 M 90.69148510958644,247.40587879567357 M 90.93266606448388,247.50577921817825 M 91.13977284567042,247.66469784077617 M 10.753325559883393,176.63686497800677 M 11.012144604985878,176.67093915171787 M 11.253325559883365,176.77083957422255 M 11.460432341069946,176.92975819682025 M 11.619350963667728,177.13686497800694 M 11.719251386172346,177.37804593290457 M 11.753325559883251,177.63686497800683 M 11.719251386172232,177.8956840231096 M 11.619350963667586,178.13686497800688 M 11.460432341069719,178.34397175919355 M 11.25332555988308,178.5028903817914 M 11.01214460498565,178.6027908042962 M 10.753325559883109,178.636864978007 M 10.494506514780596,178.6027908042958 M 10.253325559883137,178.50289038179125 M 10.046218778696613,178.34397175919355 M 9.887300156098718,178.13686497800677 M 9.787399733594128,177.89568402310917 M 9.753325559883251,177.63686497800677 M 9.787399733594157,177.37804593290423 M 9.88730015609886,177.13686497800666 M 10.046218778696783,176.92975819682013 M 10.253325559883308,176.77083957422218 M 10.494506514780852,176.6709391517178 M 11.753325559883706,173.63686497800694 M 11.719251386172687,173.89568402310965 M 11.61935096366804,174.13686497800717 M 11.460432341070174,174.34397175919366 M 11.253325559883592,174.5028903817916 M 11.012144604986105,174.60279080429598 M 10.75332555988362,174.63686497800705 M 10.494506514781136,174.60279080429603 M 10.253325559883677,174.50289038179125 M 10.046218778697153,174.34397175919344 M 9.887300156099315,174.136864978007 M 9.787399733594697,173.89568402310942 M 9.753325559883791,173.63686497800688 M 9.78739973359481,173.37804593290446 M 9.887300156099457,173.13686497800688 M 10.046218778697323,172.92975819682053 M 10.253325559883905,172.7708395742224 M 10.494506514781392,172.67093915171802 M 10.753325559883876,172.63686497800722 M 11.012144604986332,172.67093915171813 M 11.25332555988382,172.77083957422258 M 11.460432341070344,172.9297581968208 M 11.619350963668182,173.13686497800722 M 11.7192513861728,173.37804593290466 M 11.619350963668666,169.13686497800742 M 11.719251386173227,169.3780459329048 M 11.75332555988416,169.63686497800722 M 11.719251386173141,169.8956840231096 M 11.619350963668495,170.13686497800694 M 11.4604323410706,170.34397175919366 M 11.253325559884075,170.50289038179147 M 11.012144604986588,170.6027908042958 M 10.753325559884104,170.63686497800694 M 10.49450651478162,170.60279080429603 M 10.253325559884217,170.50289038179125 M 10.046218778697693,170.3439717591933 M 9.887300156099855,170.13686497800677 M 9.787399733595265,169.8956840231092 M 9.753325559884388,169.63686497800688 M 9.78739973359535,169.3780459329044 M 9.887300156099997,169.13686497800705 M 10.04621877869792,168.92975819682027 M 10.253325559884502,168.77083957422252 M 10.494506514781932,168.67093915171804 M 10.753325559884416,168.63686497800745 M 11.0121446049869,168.6709391517181 M 11.25332555988436,168.77083957422275 M 11.460432341070828,168.92975819682076 M 11.01214460498747,164.67093915171804 M 11.2533255598849,164.77083957422258 M 11.460432341071368,164.92975819682056 M 11.619350963669206,165.1368649780074 M 11.719251386173823,165.37804593290457 M 11.7533255598847,165.6368649780071 M 11.719251386173767,165.89568402310965 M 11.61935096366912,166.13686497800714 M 11.460432341071197,166.3439717591935 M 11.253325559884615,166.50289038179147 M 11.012144604987185,166.60279080429615 M 10.753325559884644,166.63686497800694 M 10.494506514782216,166.60279080429592 M 10.253325559884757,166.50289038179142 M 10.046218778698233,166.3439717591934 M 9.887300156100366,166.13686497800683 M 9.787399733595805,165.89568402310925 M 9.753325559884871,165.63686497800694 M 9.78739973359589,165.37804593290434 M 9.887300156100537,165.13686497800688 M 10.046218778698403,164.92975819682036 M 10.253325559884956,164.7708395742226 M 10.494506514782444,164.67093915171813 M 10.753325559884928,164.6368649780071 M 29.573833764818005,64.76505973378818 M 29.47393334231336,64.52387877889072 M 29.43985916860234,64.26505973378818 M 29.47393334231336,64.00624068868551 M 29.57383376481792,63.765059733788135 M 29.732752387415786,63.55795295260158 M 29.93985916860231,63.39903433000366 M 30.18104012349977,63.299133907498984 M 30.43985916860231,63.265059733788 M 30.698678213704824,63.29913390749889 M 30.93985916860231,63.399034330003474 M 31.146965949788836,63.557952952601354 M 31.305884572386816,63.765059733787865 M 31.405784994891462,64.00624068868538 M 31.439859168602396,64.26505973378792 M 31.40578499489152,64.52387877889038 M 31.3058845723869,64.76505973378784 M 31.146965949788978,64.9721665149745 M 30.93985916860254,65.13108513757231 M 30.698678213705023,65.23098556007707 M 30.43985916860248,65.26505973378802 M 30.181040123500026,65.23098556007703 M 29.93985916860251,65.13108513757257 M 29.732752387415985,64.97216651497462 M 32.90396078373993,62.26505973378773 M 32.93803495745081,62.00624068868522 M 33.03793537995543,61.76505973378773 M 33.19685400255335,61.55795295260109 M 33.40396078373982,61.39903433000318 M 33.64514173863722,61.2991339074986 M 33.90396078373976,61.26505973378764 M 34.16277982884239,61.299133907498444 M 34.40396078373982,61.399034330003076 M 34.611067564926344,61.55795295260104 M 34.769986187524296,61.76505973378751 M 34.86988661002894,62.00624068868495 M 34.90396078373999,62.26505973378746 M 34.86988661002897,62.52387877888997 M 34.76998618752441,62.76505973378746 M 34.61106756492657,62.972166514974006 M 34.40396078373996,63.13108513757203 M 34.16277982884256,63.23098556007666 M 33.90396078374002,63.26505973378757 M 33.645141738637534,63.23098556007666 M 33.40396078374002,63.13108513757205 M 33.19685400255349,62.97216651497415 M 33.03793537995551,62.765059733787794 M 32.938034957450895,62.52387877889015 M 38.23408780266172,59.765059733787105 M 38.33398822516648,60.00624068868448 M 38.368062398877385,60.265059733787126 M 38.333988225166536,60.52387877888955 M 38.234087802661946,60.7650597337871 M 38.07516918006408,60.97216651497361 M 37.86806239887753,61.13108513757158 M 37.62688144398007,61.230985560076235 M 37.36806239887753,61.26505973378717 M 37.10924335377504,61.230985560076235 M 36.86806239887753,61.131085137571674 M 36.660955617691,60.97216651497381 M 36.50203699509302,60.76505973378735 M 36.402136572588404,60.52387877888982 M 36.36806239887741,60.265059733787304 M 36.40213657258832,60.00624068868473 M 36.502036995092936,59.76505973378728 M 36.6609556176908,59.55795295260069 M 36.8680623988773,59.39903433000288 M 37.10924335377473,59.2991339074982 M 37.3680623988773,59.26505973378724 M 37.62688144397984,59.29913390749802 M 37.86806239887733,59.399034330002664 M 38.07516918006388,59.55795295260053 M 41.698189417799256,57.76505973378674 M 41.79808984030399,58.00624068868405 M 41.83216401401489,58.26505973378672 M 41.79808984030407,58.52387877888912 M 41.698189417799426,58.7650597337867 M 41.53927079520162,58.9721665149732 M 41.33216401401509,59.13108513757109 M 41.090983059117576,59.23098556007583 M 40.832164014015035,59.265059733786785 M 40.57334496891255,59.23098556007587 M 40.33216401401501,59.13108513757133 M 40.125057232828425,58.97216651497347 M 39.96613861023056,58.765059733786856 M 39.866238187725884,58.52387877888941 M 39.83216401401495,58.265059733786835 M 39.8662381877258,58.006240688684414 M 39.966138610230416,57.76505973378693 M 40.12505723282831,57.55795295260031 M 40.33216401401478,57.39903433000242 M 40.57334496891224,57.29913390749782 M 40.83216401401481,57.26505973378681 M 41.09098305911729,57.29913390749768 M 41.332164014014865,57.39903433000222 M 41.53927079520136,57.55795295260015 M 44.29626562915253,57.26505973378636 M 44.037446584050016,57.230985560075425 M 43.79626562915253,57.13108513757078 M 43.58915884796599,56.972166514973004 M 43.43024022536808,56.76505973378643 M 43.330339802863435,56.52387877888897 M 43.296265629152444,56.26505973378648 M 43.330339802863364,56.006240688683924 M 43.43024022536794,55.76505973378648 M 43.589158847965805,55.557952952599905 M 43.79626562915233,55.399034330002 M 44.037446584049746,55.29913390749735 M 44.29626562915233,55.26505973378632 M 44.555084674254886,55.299133907497236 M 44.79626562915233,55.39903433000195 M 45.003372410338926,55.557952952599656 M 45.16229103293679,55.76505973378627 M 45.26219145544148,56.00624068868374 M 45.296265629152415,56.265059733786295 M 45.26219145544155,56.523878778888744 M 45.162291032936906,56.765059733786316 M 45.00337241033907,56.972166514972784 M 44.79626562915253,57.13108513757075 M 44.55508467425511,57.23098556007527 M 139.33201268013408,23.128193650962658 M 139.17309405753625,23.335300432149168 M 138.96598727634975,23.494219054747006 M 138.72480632145235,23.59411947725161 M 138.46598727634995,23.62819365096253 M 138.20716823124746,23.594119477251596 M 137.96598727635006,23.494219054746992 M 137.75888049516354,23.335300432149197 M 137.59996187256576,23.128193650962714 M 137.50006145006114,22.887012696065312 M 137.46598727635018,22.62819365096287 M 137.5000614500611,22.369374605860443 M 137.5999618725657,22.128193650963 M 137.7588804951636,21.921086869776502 M 137.96598727635006,21.762168247178707 M 138.20716823124746,21.66226782467406 M 138.46598727634992,21.62819365096314 M 138.72480632145235,21.662267824674032 M 138.96598727634978,21.762168247178664 M 139.17309405753625,21.921086869776474 M 139.33201268013406,22.128193650962984 M 139.43191310263865,22.36937460586043 M 139.46598727634955,22.62819365096287 M 139.43191310263867,22.887012696065284 M 140.9300888914878,24.62819365096282 M 140.9641630651988,24.36937460586033 M 141.06406348770338,24.128193650962928 M 141.22298211030127,23.92108686977636 M 141.43008889148774,23.762168247178565 M 141.67126984638517,23.662267824673933 M 141.93008889148763,23.628193650963 M 142.18890793659014,23.66226782467392 M 142.4300888914876,23.762168247178522 M 142.63719567267407,23.92108686977643 M 142.7961142952719,24.128193650962956 M 142.89601471777655,24.3693746058603 M 142.93008889148743,24.628193650962842 M 142.8960147177765,24.887012696065284 M 142.79611429527193,25.12819365096268 M 142.637195672674,25.335300432149253 M 142.43008889148751,25.49421905474712 M 142.18890793659014,25.594119477251674 M 141.93008889148763,25.628193650962636 M 141.67126984638514,25.594119477251702 M 141.43008889148774,25.49421905474712 M 141.22298211030125,25.335300432149232 M 141.0640634877034,25.12819365096273 M 140.96416306519876,24.887012696065305 M 146.26021591040967,27.12819365096277 M 146.10129728781183,27.335300432149253 M 145.89419050662534,27.49421905474707 M 145.65300955172788,27.594119477251695 M 145.39419050662536,27.628193650962608 M 145.13537146152294,27.594119477251716 M 144.89419050662548,27.49421905474705 M 144.68708372543904,27.335300432149204 M 144.52816510284114,27.12819365096268 M 144.4282646803365,26.887012696065284 M 144.3941905066256,26.628193650962814 M 144.42826468033653,26.369374605860372 M 144.5281651028412,26.128193650962906 M 144.68708372543898,25.921086869776424 M 144.89419050662556,25.762168247178515 M 145.1353714615229,25.662267824673933 M 145.39419050662542,25.628193650963 M 145.65300955172788,25.662267824673954 M 145.8941905066253,25.762168247178536 M 146.1012972878118,25.921086869776445 M 146.26021591040964,26.128193650962928 M 146.36011633291423,26.369374605860372 M 146.39419050662516,26.628193650962864 M 146.3601163329143,26.887012696065256 M 149.72431752554743,29.1281936509627 M 149.56539890294954,29.335300432149246 M 149.3582921217631,29.494219054747084 M 149.11711116686564,29.594119477251695 M 148.85829212176316,29.62819365096265 M 148.59947307666067,29.594119477251716 M 148.35829212176327,29.494219054747113 M 148.15118534057672,29.335300432149225 M 147.99226671797894,29.1281936509627 M 147.89236629547423,28.887012696065277 M 147.85829212176333,28.628193650962835 M 147.89236629547423,28.369374605860344 M 147.9922667179789,28.128193650962878 M 148.15118534057672,27.921086869776396 M 148.35829212176324,27.762168247178558 M 148.5994730766607,27.662267824673933 M 148.8582921217632,27.62819365096297 M 149.11711116686558,27.662267824673933 M 149.35829212176307,27.762168247178536 M 149.56539890294962,27.921086869776353 M 149.72431752554743,28.128193650962878 M 149.824217948052,28.369374605860365 M 149.85829212176304,28.628193650962814 M 149.82421794805202,28.887012696065277 M 151.35646791061214,30.887012696065227 M 151.32239373690118,30.628193650962807 M 151.3564679106121,30.369374605860344 M 151.45636833311673,30.1281936509629 M 151.6152869557146,29.921086869776417 M 151.8223937369011,29.7621682471786 M 152.06357469179852,29.662267824673975 M 152.32239373690095,29.628193650963105 M 152.5812127820034,29.662267824674018 M 152.82239373690086,29.7621682471786 M 153.02950051808733,29.92108686977644 M 153.18841914068514,30.12819365096299 M 153.28831956318976,30.369374605860365 M 153.32239373690064,30.62819365096285 M 153.2883195631897,30.887012696065298 M 153.18841914068508,31.128193650962714 M 153.02950051808727,31.335300432149175 M 152.8223937369008,31.494219054747013 M 152.58121278200335,31.594119477251617 M 152.3223937369009,31.628193650962537 M 152.06357469179844,31.594119477251596 M 151.82239373690106,31.49421905474697 M 151.6152869557145,31.335300432149154 M 151.45636833311673,31.12819365096263 M 155.5276763069362,33.59411947725171 M 155.28649535203877,33.494219054747106 M 155.07938857085225,33.33530043214922 M 154.92046994825438,33.12819365096276 M 154.8205695257498,32.88701269606525 M 154.78649535203886,32.62819365096283 M 154.82056952574982,32.36937460586034 M 154.92046994825444,32.12819365096287 M 155.07938857085227,31.92108686977639 M 155.2864953520388,31.762168247178508 M 155.52767630693626,31.662267824673926 M 155.78649535203863,31.628193650963006 M 156.04531439714117,31.662267824673904 M 156.2864953520386,31.76216824717853 M 156.4936021332251,31.921086869776367 M 156.65252075582296,32.12819365096289 M 156.75242117832755,32.36937460586036 M 156.78649535203851,32.62819365096278 M 156.75242117832752,32.88701269606529 M 156.65252075582293,33.128193650962736 M 156.4936021332251,33.33530043214922 M 156.2864953520386,33.494219054747056 M 156.0453143971411,33.59411947725171 M 155.78649535203868,33.6281936509626 "
  />
</svg>
