<?xml version="1.0" standalone="no"?>
<!DOCTYPE svg PUBLIC "-//W3C//DTD SVG 1.1//EN" "http://www.w3.org/Graphics/SVG/1.1/DTD/svg11.dtd">
<svg width="179.70000000407134mm" height="139.99999999999898mm"
 viewBox="0 0 179.70000000407134 139.99999999999898"
 xmlns="http://www.w3.org/2000/svg" version="1.1"
 xmlns:xlink="http://www.w3.org/1999/xlink">
<desc>Output from Flights of Ideas SVG Sketchup Plugin</desc>

  <path id="face0-cut"
 style="fill:none;stroke:#FF0000;stroke-width:0.1;stroke-miterlimit:4;stroke-dasharray:none;stroke-linejoin:round;stroke-linecap:round"
        d="M 178.7000000040713,1.0 L 1.0000000002758611,1.0000000000000284 L 1.0,138.99999984230925 L 178.70000000407134,138.99999999999898 L 178.7000000040713,1.0 M 167.18492424456306,9.515075747638875 L 167.51865335201862,9.949999988130614 L 167.72844423927833,10.4564799934153 L 167.8000000040713,10.999999988130597 L 167.72844423927833,11.543519982845922 L 167.51865335201862,12.04999998813058 L 167.18492424456306,12.484924228622347 L 166.75000000407132,12.818653336077901 L 166.2435199987866,13.028444223337644 L 165.70000000407128,13.09999998813062 L 165.15648000935602,13.028444223337644 L 164.6500000040713,12.818653336077901 L 164.21507576357956,12.484924228622347 L 163.88134665612398,12.049999988130608 L 163.67155576886427,11.543519982845922 L 163.60000000407132,10.999999988130597 L 163.67155576886427,10.4564799934153 L 163.88134665612398,9.949999988130614 L 164.21507576357956,9.515075747638875 L 164.6500000040713,9.181346640183264 L 165.15648000935602,8.97155575292355 L 165.70000000407128,8.899999988130602 L 166.2435199987866,8.97155575292355 L 166.75000000407132,9.181346640183264 L 167.18492424456306,9.515075747638875 M 163.881346656124,130.04999998812974 L 163.67155576886427,129.543519982845 L 163.60000000407132,128.99999998812967 L 163.67155576886427,128.45647999341435 L 163.88134665612398,127.94999998812968 L 164.21507576357956,127.51507574763794 L 164.65000000407133,127.18134664018238 L 165.15648000935602,126.97155575292264 L 165.7000000040713,126.89999998812966 L 166.2435199987866,126.97155575292264 L 166.75000000407127,127.18134664018238 L 167.18492424456304,127.51507574763788 L 167.5186533520186,127.94999998812976 L 167.72844423927836,128.45647999341435 L 167.8000000040713,128.99999998812967 L 167.72844423927833,129.543519982845 L 167.51865335201862,130.04999998812968 L 167.18492424456304,130.48492422862142 L 166.7500000040713,130.81865333607698 L 166.2435199987866,131.02844422333675 L 165.70000000407128,131.0999999881297 L 165.15648000935602,131.02844422333675 L 164.65000000407133,130.81865333607703 L 164.2150757635796,130.48492422862142 L 163.881346656124,130.04999998812974 M 24.028444235481004,128.45647993385074 L 24.10000000027391,128.99999992856607 L 24.02844423548096,129.5435199232814 L 23.81865334822126,130.04999992856602 L 23.484924240765736,130.48492416905788 L 23.050000000273954,130.81865327651337 L 22.54351999498921,131.0284441637731 L 22.000000000273943,131.09999992856604 L 21.45648000555869,131.0284441637731 L 20.95000000027396,130.81865327651337 L 20.515075759782192,130.48492416905776 L 20.181346652326667,130.04999992856597 L 19.971555765066896,129.5435199232814 L 19.90000000027392,128.99999992856596 L 19.971555765066924,128.45647993385074 L 20.18134665232671,127.9499999285661 L 20.51507575978222,127.51507568807433 L 20.950000000273974,127.18134658061881 L 21.45648000555869,126.97155569335901 L 22.000000000274014,126.89999992856617 L 22.54351999498924,126.97155569335901 L 23.050000000273954,127.18134658061878 L 23.48492424076568,127.51507568807433 L 23.81865334822126,127.9499999285661 L 24.028444235481004,128.45647993385074 M 24.100000000273965,10.999999856927403 L 24.028444235481004,11.543519851642927 L 23.81865334822126,12.049999856927329 L 23.48492424076568,12.484924097418983 L 23.050000000273954,12.818653204874764 L 22.54351999498924,13.02844409213462 L 22.000000000273943,13.099999856927369 L 21.456480005558646,13.028444092134592 L 20.95000000027396,12.818653204875105 L 20.515075759782192,12.48492409741938 L 20.181346652326596,12.049999856927272 L 19.971555765066896,11.543519851643069 L 19.90000000027395,10.999999856927374 L 19.971555765066896,10.456479862212191 L 20.18134665232664,9.949999856927562 L 20.515075759782192,9.515075616435738 L 20.95000000027396,9.181346508980184 L 21.456480005558646,8.971555621720611 L 22.000000000273943,8.899999856927494 L 22.543519994989268,8.971555621720611 L 23.050000000273954,9.181346508980383 L 23.484924240765707,9.515075616435652 L 23.81865334822126,9.949999856927448 L 24.028444235481004,10.456479862212078 L 24.100000000273965,10.999999856927403 M 6.000000000218051,28.899999846745928 L 21.50000000021808,28.899999860500643 L 21.630526192511454,28.908554999136427 L 21.75881904546347,28.93407403424989 L 21.88268343278814,28.976120328074344 L 22.000000000474245,29.033974456864186 L 22.108761429520158,29.106646520434495 L 22.207106781718366,29.192893079628035 L 22.293353340824453,29.291238431902755 L 22.366025404298327,29.399999861013 L 22.42387953298409,29.517316428750703 L 22.465925826698566,29.641180816112453 L 22.49144486169807,29.76947366908719 L 22.50000000021808,29.89999986138814 L 22.50000000018413,46.899999860500785 L 22.49144486155788,47.03052605272093 L 22.465925826473054,47.15881890560358 L 22.42387953269521,47.28268329286625 L 22.36602540396821,47.39999986050127 L 22.293353340474823,47.508761289510105 L 22.20710678136993,47.60710664168799 L 22.108761429191915,47.69335320079263 L 22.000000000182936,47.76602526428577 L 21.882683432547807,47.82387939301255 L 21.758819045285037,47.86592568679028 L 21.63052619240233,47.89144472187475 L 21.500000000182098,47.899999860500756 L 6.000000000182098,47.89999984674604 L 5.86947380788888,47.89144470810989 L 5.741180954937121,47.865925672996426 L 5.617316567612633,47.823879379171856 L 5.499999999926786,47.76602525038193 L 5.391238570881114,47.69335318681142 L 5.292893218683091,47.60710662761808 L 5.206646659577245,47.508761275343446 L 5.133974596103528,47.3999998462332 L 5.076120467417951,47.28268327849575 L 5.034074173703559,47.15881889113395 L 5.0085551387040965,47.03052603815949 L 5.00000000018413,46.8999998458586 L 5.000000000218108,29.89999984674604 L 5.008555138844272,29.769473654525953 L 5.034074173929056,29.6411808016435 L 5.076120467706801,29.517316414380744 L 5.13397459643366,29.399999846745985 L 5.206646659926875,29.291238417737432 L 5.292893219031555,29.192893065559602 L 5.391238571209357,29.106646506454766 L 5.50000000021808,29.033974442961508 L 5.617316567852981,28.976120314234734 L 5.741180955115524,28.93407402045689 L 5.869473807998034,28.908554985372106 L 6.000000000218051,28.899999846745928 M 5.0000000000577955,110.09999984585885 L 5.000000000091774,93.09999984674629 L 5.008555138717895,92.96947365452606 L 5.034074173802679,92.84118080164374 L 5.076120467580466,92.71731641438119 L 5.1339745963073256,92.59999984674626 L 5.2066466598005405,92.49123841773748 L 5.292893218905178,92.39289306555965 L 5.391238571083022,92.30664650645501 L 5.500000000091788,92.23397444296184 L 5.617316567726647,92.17612031423498 L 5.741180954989275,92.13407402045725 L 5.869473807871657,92.10855498537235 L 6.000000000091816,92.09999984674629 L 21.50000000009173,92.0999998605008 L 21.63052619238509,92.10855499913664 L 21.758819045337148,92.13407403425002 L 21.882683432661807,92.17612032807442 L 22.000000000347896,92.23397445686429 L 22.108761429393823,92.30664652043468 L 22.20710678159203,92.39289307962802 L 22.29335334069812,92.49123843190277 L 22.366025404172007,92.59999986101322 L 22.423879532857754,92.71731642875066 L 22.465925826572203,92.84118081611255 L 22.491444861571765,92.96947366908724 L 22.50000000009173,93.09999986138818 L 22.500000000057796,110.09999986138827 L 22.491444861325405,110.23052605352753 L 22.465925826155342,110.35881890631792 L 22.423879532314174,110.48268329348123 L 22.36602540354606,110.59999986101373 L 22.29335334003342,110.70876128992093 L 22.207106780929905,110.8071066420019 L 22.108761428772226,110.89335320101789 L 21.999999999800437,110.96602526443384 L 21.88268343221651,111.02387939309757 L 21.75881904501584,111.06592568682866 L 21.63052619220268,111.09144472188449 L 21.500000000055763,111.09999986050086 L 6.000000000055806,111.09999984674623 L 5.869473807762603,111.0914447081101 L 5.741180954810787,111.06592567299661 L 5.617316567486299,111.02387937917199 L 5.499999999800451,110.96602525038206 L 5.39123857075478,110.8933531868117 L 5.2928932185567135,110.8071066276183 L 5.206646659450911,110.70876127534363 L 5.133974595977236,110.5999998462333 L 5.07612046729156,110.48268327849597 L 5.034074173577224,110.35881889113413 L 5.008555138577762,110.23052603815962 L 5.0000000000577955,110.09999984585885 M 22.5000000001571,60.399999861388196 L 22.50000000011873,79.59999986138818 L 22.491444861386313,79.73052605352753 L 22.46592582621635,79.85881890631804 L 22.423879532375167,79.98268329348126 L 22.366025403607026,80.09999986101376 L 22.293353340094328,80.20876128992087 L 22.207106780990813,80.30710664200184 L 22.108761428833162,80.39335320101783 L 21.999999999861416,80.46602526443381 L 21.882683432277446,80.52387939309757 L 21.75881904507682,80.56592568682866 L 21.630526192263673,80.5914447218846 L 21.500000000116742,80.59999986050086 L 6.000000000116756,80.59999984674617 L 5.869473807896867,80.59144470811974 L 5.741180955014627,80.56592567303478 L 5.617316567752269,80.52387937925691 L 5.500000000117595,80.46602525052994 L 5.3912385711090565,80.3933531870366 L 5.292893218931482,80.30710662793196 L 5.206646659826973,80.20876127575416 L 5.133974596333957,80.09999984674552 L 5.076120467607268,79.98268327911076 L 5.0340741738295804,79.85881889184826 L 5.008555138744924,79.73052603896598 L 5.000000000118746,79.59999984674617 L 5.000000000157144,60.3999998467461 L 5.008555138783322,60.26947365452615 L 5.034074173868063,60.141180801643614 L 5.076120467645794,60.017316414380915 L 5.133974596372667,59.8999998467461 L 5.206646659865868,59.791238417737375 L 5.292893218970633,59.69289306555963 L 5.391238571148392,59.60664650645482 L 5.500000000157129,59.533974442961735 L 5.617316567792031,59.47612031423493 L 5.741180955054617,59.43407402045703 L 5.869473807937069,59.408554985372305 L 6.000000000157144,59.39999984674613 L 21.50000000015713,59.39999986050081 L 21.630526192450475,59.40855499913671 L 21.758819045402504,59.43407403425006 L 21.882683432727163,59.4761203280744 L 22.000000000413266,59.533974456864215 L 22.10876142945918,59.60664652043472 L 22.207106781657416,59.69289307962801 L 22.293353340763446,59.791238431902755 L 22.366025404237348,59.89999986101314 L 22.42387953292311,60.01731642875065 L 22.465925826637587,60.14118081611265 L 22.49144486163712,60.26947366908725 L 22.5000000001571,60.399999861388196 "
  />
  <path id="face0-interior"
 style="fill:none;stroke:#FF0000;stroke-width:0.1;stroke-miterlimit:4;stroke-dasharray:none;stroke-linejoin:round;stroke-linecap:round"
        d="M 178.7000000040713,1.0 M 1.0000000002758611,1.0000000000000284 M 1.0,138.99999984230925 M 178.70000000407134,138.99999999999898 M 167.18492424456306,9.515075747638875 M 167.51865335201862,9.949999988130614 M 167.72844423927833,10.4564799934153 M 167.8000000040713,10.999999988130597 M 167.72844423927833,11.543519982845922 M 167.51865335201862,12.04999998813058 M 167.18492424456306,12.484924228622347 M 166.75000000407132,12.818653336077901 M 166.2435199987866,13.028444223337644 M 165.70000000407128,13.09999998813062 M 165.15648000935602,13.028444223337644 M 164.6500000040713,12.818653336077901 M 164.21507576357956,12.484924228622347 M 163.88134665612398,12.049999988130608 M 163.67155576886427,11.543519982845922 M 163.60000000407132,10.999999988130597 M 163.67155576886427,10.4564799934153 M 163.88134665612398,9.949999988130614 M 164.21507576357956,9.515075747638875 M 164.6500000040713,9.181346640183264 M 165.15648000935602,8.97155575292355 M 165.70000000407128,8.899999988130602 M 166.2435199987866,8.97155575292355 M 166.75000000407132,9.181346640183264 M 163.881346656124,130.04999998812974 M 163.67155576886427,129.543519982845 M 163.60000000407132,128.99999998812967 M 163.67155576886427,128.45647999341435 M 163.88134665612398,127.94999998812968 M 164.21507576357956,127.51507574763794 M 164.65000000407133,127.18134664018238 M 165.15648000935602,126.97155575292264 M 165.7000000040713,126.89999998812966 M 166.2435199987866,126.97155575292264 M 166.75000000407127,127.18134664018238 M 167.18492424456304,127.51507574763788 M 167.5186533520186,127.94999998812976 M 167.72844423927836,128.45647999341435 M 167.8000000040713,128.99999998812967 M 167.72844423927833,129.543519982845 M 167.51865335201862,130.04999998812968 M 167.18492424456304,130.48492422862142 M 166.7500000040713,130.81865333607698 M 166.2435199987866,131.02844422333675 M 165.70000000407128,131.0999999881297 M 165.15648000935602,131.02844422333675 M 164.65000000407133,130.81865333607703 M 164.2150757635796,130.48492422862142 M 24.028444235481004,128.45647993385074 M 24.10000000027391,128.99999992856607 M 24.02844423548096,129.5435199232814 M 23.81865334822126,130.04999992856602 M 23.484924240765736,130.48492416905788 M 23.050000000273954,130.81865327651337 M 22.54351999498921,131.0284441637731 M 22.000000000273943,131.09999992856604 M 21.45648000555869,131.0284441637731 M 20.95000000027396,130.81865327651337 M 20.515075759782192,130.48492416905776 M 20.181346652326667,130.04999992856597 M 19.971555765066896,129.5435199232814 M 19.90000000027392,128.99999992856596 M 19.971555765066924,128.45647993385074 M 20.18134665232671,127.9499999285661 M 20.51507575978222,127.51507568807433 M 20.950000000273974,127.18134658061881 M 21.45648000555869,126.97155569335901 M 22.000000000274014,126.89999992856617 M 22.54351999498924,126.97155569335901 M 23.050000000273954,127.18134658061878 M 23.48492424076568,127.51507568807433 M 23.81865334822126,127.9499999285661 M 24.100000000273965,10.999999856927403 M 24.028444235481004,11.543519851642927 M 23.81865334822126,12.049999856927329 M 23.48492424076568,12.484924097418983 M 23.050000000273954,12.818653204874764 M 22.54351999498924,13.02844409213462 M 22.000000000273943,13.099999856927369 M 21.456480005558646,13.028444092134592 M 20.95000000027396,12.818653204875105 M 20.515075759782192,12.48492409741938 M 20.181346652326596,12.049999856927272 M 19.971555765066896,11.543519851643069 M 19.90000000027395,10.999999856927374 M 19.971555765066896,10.456479862212191 M 20.18134665232664,9.949999856927562 M 20.515075759782192,9.515075616435738 M 20.95000000027396,9.181346508980184 M 21.456480005558646,8.971555621720611 M 22.000000000273943,8.899999856927494 M 22.543519994989268,8.971555621720611 M 23.050000000273954,9.181346508980383 M 23.484924240765707,9.515075616435652 M 23.81865334822126,9.949999856927448 M 24.028444235481004,10.456479862212078 M 6.000000000218051,28.899999846745928 M 21.50000000021808,28.899999860500643 M 21.630526192511454,28.908554999136427 M 21.75881904546347,28.93407403424989 M 21.88268343278814,28.976120328074344 M 22.000000000474245,29.033974456864186 M 22.108761429520158,29.106646520434495 M 22.207106781718366,29.192893079628035 M 22.293353340824453,29.291238431902755 M 22.366025404298327,29.399999861013 M 22.42387953298409,29.517316428750703 M 22.465925826698566,29.641180816112453 M 22.49144486169807,29.76947366908719 M 22.50000000021808,29.89999986138814 M 22.50000000018413,46.899999860500785 M 22.49144486155788,47.03052605272093 M 22.465925826473054,47.15881890560358 M 22.42387953269521,47.28268329286625 M 22.36602540396821,47.39999986050127 M 22.293353340474823,47.508761289510105 M 22.20710678136993,47.60710664168799 M 22.108761429191915,47.69335320079263 M 22.000000000182936,47.76602526428577 M 21.882683432547807,47.82387939301255 M 21.758819045285037,47.86592568679028 M 21.63052619240233,47.89144472187475 M 21.500000000182098,47.899999860500756 M 6.000000000182098,47.89999984674604 M 5.86947380788888,47.89144470810989 M 5.741180954937121,47.865925672996426 M 5.617316567612633,47.823879379171856 M 5.499999999926786,47.76602525038193 M 5.391238570881114,47.69335318681142 M 5.292893218683091,47.60710662761808 M 5.206646659577245,47.508761275343446 M 5.133974596103528,47.3999998462332 M 5.076120467417951,47.28268327849575 M 5.034074173703559,47.15881889113395 M 5.0085551387040965,47.03052603815949 M 5.00000000018413,46.8999998458586 M 5.000000000218108,29.89999984674604 M 5.008555138844272,29.769473654525953 M 5.034074173929056,29.6411808016435 M 5.076120467706801,29.517316414380744 M 5.13397459643366,29.399999846745985 M 5.206646659926875,29.291238417737432 M 5.292893219031555,29.192893065559602 M 5.391238571209357,29.106646506454766 M 5.50000000021808,29.033974442961508 M 5.617316567852981,28.976120314234734 M 5.741180955115524,28.93407402045689 M 5.869473807998034,28.908554985372106 M 5.0000000000577955,110.09999984585885 M 5.000000000091774,93.09999984674629 M 5.008555138717895,92.96947365452606 M 5.034074173802679,92.84118080164374 M 5.076120467580466,92.71731641438119 M 5.1339745963073256,92.59999984674626 M 5.2066466598005405,92.49123841773748 M 5.292893218905178,92.39289306555965 M 5.391238571083022,92.30664650645501 M 5.500000000091788,92.23397444296184 M 5.617316567726647,92.17612031423498 M 5.741180954989275,92.13407402045725 M 5.869473807871657,92.10855498537235 M 6.000000000091816,92.09999984674629 M 21.50000000009173,92.0999998605008 M 21.63052619238509,92.10855499913664 M 21.758819045337148,92.13407403425002 M 21.882683432661807,92.17612032807442 M 22.000000000347896,92.23397445686429 M 22.108761429393823,92.30664652043468 M 22.20710678159203,92.39289307962802 M 22.29335334069812,92.49123843190277 M 22.366025404172007,92.59999986101322 M 22.423879532857754,92.71731642875066 M 22.465925826572203,92.84118081611255 M 22.491444861571765,92.96947366908724 M 22.50000000009173,93.09999986138818 M 22.500000000057796,110.09999986138827 M 22.491444861325405,110.23052605352753 M 22.465925826155342,110.35881890631792 M 22.423879532314174,110.48268329348123 M 22.36602540354606,110.59999986101373 M 22.29335334003342,110.70876128992093 M 22.207106780929905,110.8071066420019 M 22.108761428772226,110.89335320101789 M 21.999999999800437,110.96602526443384 M 21.88268343221651,111.02387939309757 M 21.75881904501584,111.06592568682866 M 21.63052619220268,111.09144472188449 M 21.500000000055763,111.09999986050086 M 6.000000000055806,111.09999984674623 M 5.869473807762603,111.0914447081101 M 5.741180954810787,111.06592567299661 M 5.617316567486299,111.02387937917199 M 5.499999999800451,110.96602525038206 M 5.39123857075478,110.8933531868117 M 5.2928932185567135,110.8071066276183 M 5.206646659450911,110.70876127534363 M 5.133974595977236,110.5999998462333 M 5.07612046729156,110.48268327849597 M 5.034074173577224,110.35881889113413 M 5.008555138577762,110.23052603815962 M 22.5000000001571,60.399999861388196 M 22.50000000011873,79.59999986138818 M 22.491444861386313,79.73052605352753 M 22.46592582621635,79.85881890631804 M 22.423879532375167,79.98268329348126 M 22.366025403607026,80.09999986101376 M 22.293353340094328,80.20876128992087 M 22.207106780990813,80.30710664200184 M 22.108761428833162,80.39335320101783 M 21.999999999861416,80.46602526443381 M 21.882683432277446,80.52387939309757 M 21.75881904507682,80.56592568682866 M 21.630526192263673,80.5914447218846 M 21.500000000116742,80.59999986050086 M 6.000000000116756,80.59999984674617 M 5.869473807896867,80.59144470811974 M 5.741180955014627,80.56592567303478 M 5.617316567752269,80.52387937925691 M 5.500000000117595,80.46602525052994 M 5.3912385711090565,80.3933531870366 M 5.292893218931482,80.30710662793196 M 5.206646659826973,80.20876127575416 M 5.133974596333957,80.09999984674552 M 5.076120467607268,79.98268327911076 M 5.0340741738295804,79.85881889184826 M 5.008555138744924,79.73052603896598 M 5.000000000118746,79.59999984674617 M 5.000000000157144,60.3999998467461 M 5.008555138783322,60.26947365452615 M 5.034074173868063,60.141180801643614 M 5.076120467645794,60.017316414380915 M 5.133974596372667,59.8999998467461 M 5.206646659865868,59.791238417737375 M 5.292893218970633,59.69289306555963 M 5.391238571148392,59.60664650645482 M 5.500000000157129,59.533974442961735 M 5.617316567792031,59.47612031423493 M 5.741180955054617,59.43407402045703 M 5.869473807937069,59.408554985372305 M 6.000000000157144,59.39999984674613 M 21.50000000015713,59.39999986050081 M 21.630526192450475,59.40855499913671 M 21.758819045402504,59.43407403425006 M 21.882683432727163,59.4761203280744 M 22.000000000413266,59.533974456864215 M 22.10876142945918,59.60664652043472 M 22.207106781657416,59.69289307962801 M 22.293353340763446,59.791238431902755 M 22.366025404237348,59.89999986101314 M 22.42387953292311,60.01731642875065 M 22.465925826637587,60.14118081611265 M 22.49144486163712,60.26947366908725 "
  />
  <path id="face0-interior"
 style="fill:none;stroke:#FF0000;stroke-width:0.1;stroke-miterlimit:4;stroke-dasharray:none;stroke-linejoin:round;stroke-linecap:round"
        d="M 178.7000000040713,1.0 M 1.0000000002758611,1.0000000000000284 M 1.0,138.99999984230925 M 178.70000000407134,138.99999999999898 M 167.18492424456306,9.515075747638875 M 167.51865335201862,9.949999988130614 M 167.72844423927833,10.4564799934153 M 167.8000000040713,10.999999988130597 M 167.72844423927833,11.543519982845922 M 167.51865335201862,12.04999998813058 M 167.18492424456306,12.484924228622347 M 166.75000000407132,12.818653336077901 M 166.2435199987866,13.028444223337644 M 165.70000000407128,13.09999998813062 M 165.15648000935602,13.028444223337644 M 164.6500000040713,12.818653336077901 M 164.21507576357956,12.484924228622347 M 163.88134665612398,12.049999988130608 M 163.67155576886427,11.543519982845922 M 163.60000000407132,10.999999988130597 M 163.67155576886427,10.4564799934153 M 163.88134665612398,9.949999988130614 M 164.21507576357956,9.515075747638875 M 164.6500000040713,9.181346640183264 M 165.15648000935602,8.97155575292355 M 165.70000000407128,8.899999988130602 M 166.2435199987866,8.97155575292355 M 166.75000000407132,9.181346640183264 M 163.881346656124,130.04999998812974 M 163.67155576886427,129.543519982845 M 163.60000000407132,128.99999998812967 M 163.67155576886427,128.45647999341435 M 163.88134665612398,127.94999998812968 M 164.21507576357956,127.51507574763794 M 164.65000000407133,127.18134664018238 M 165.15648000935602,126.97155575292264 M 165.7000000040713,126.89999998812966 M 166.2435199987866,126.97155575292264 M 166.75000000407127,127.18134664018238 M 167.18492424456304,127.51507574763788 M 167.5186533520186,127.94999998812976 M 167.72844423927836,128.45647999341435 M 167.8000000040713,128.99999998812967 M 167.72844423927833,129.543519982845 M 167.51865335201862,130.04999998812968 M 167.18492424456304,130.48492422862142 M 166.7500000040713,130.81865333607698 M 166.2435199987866,131.02844422333675 M 165.70000000407128,131.0999999881297 M 165.15648000935602,131.02844422333675 M 164.65000000407133,130.81865333607703 M 164.2150757635796,130.48492422862142 M 24.028444235481004,128.45647993385074 M 24.10000000027391,128.99999992856607 M 24.02844423548096,129.5435199232814 M 23.81865334822126,130.04999992856602 M 23.484924240765736,130.48492416905788 M 23.050000000273954,130.81865327651337 M 22.54351999498921,131.0284441637731 M 22.000000000273943,131.09999992856604 M 21.45648000555869,131.0284441637731 M 20.95000000027396,130.81865327651337 M 20.515075759782192,130.48492416905776 M 20.181346652326667,130.04999992856597 M 19.971555765066896,129.5435199232814 M 19.90000000027392,128.99999992856596 M 19.971555765066924,128.45647993385074 M 20.18134665232671,127.9499999285661 M 20.51507575978222,127.51507568807433 M 20.950000000273974,127.18134658061881 M 21.45648000555869,126.97155569335901 M 22.000000000274014,126.89999992856617 M 22.54351999498924,126.97155569335901 M 23.050000000273954,127.18134658061878 M 23.48492424076568,127.51507568807433 M 23.81865334822126,127.9499999285661 M 24.100000000273965,10.999999856927403 M 24.028444235481004,11.543519851642927 M 23.81865334822126,12.049999856927329 M 23.48492424076568,12.484924097418983 M 23.050000000273954,12.818653204874764 M 22.54351999498924,13.02844409213462 M 22.000000000273943,13.099999856927369 M 21.456480005558646,13.028444092134592 M 20.95000000027396,12.818653204875105 M 20.515075759782192,12.48492409741938 M 20.181346652326596,12.049999856927272 M 19.971555765066896,11.543519851643069 M 19.90000000027395,10.999999856927374 M 19.971555765066896,10.456479862212191 M 20.18134665232664,9.949999856927562 M 20.515075759782192,9.515075616435738 M 20.95000000027396,9.181346508980184 M 21.456480005558646,8.971555621720611 M 22.000000000273943,8.899999856927494 M 22.543519994989268,8.971555621720611 M 23.050000000273954,9.181346508980383 M 23.484924240765707,9.515075616435652 M 23.81865334822126,9.949999856927448 M 24.028444235481004,10.456479862212078 M 6.000000000218051,28.899999846745928 M 21.50000000021808,28.899999860500643 M 21.630526192511454,28.908554999136427 M 21.75881904546347,28.93407403424989 M 21.88268343278814,28.976120328074344 M 22.000000000474245,29.033974456864186 M 22.108761429520158,29.106646520434495 M 22.207106781718366,29.192893079628035 M 22.293353340824453,29.291238431902755 M 22.366025404298327,29.399999861013 M 22.42387953298409,29.517316428750703 M 22.465925826698566,29.641180816112453 M 22.49144486169807,29.76947366908719 M 22.50000000021808,29.89999986138814 M 22.50000000018413,46.899999860500785 M 22.49144486155788,47.03052605272093 M 22.465925826473054,47.15881890560358 M 22.42387953269521,47.28268329286625 M 22.36602540396821,47.39999986050127 M 22.293353340474823,47.508761289510105 M 22.20710678136993,47.60710664168799 M 22.108761429191915,47.69335320079263 M 22.000000000182936,47.76602526428577 M 21.882683432547807,47.82387939301255 M 21.758819045285037,47.86592568679028 M 21.63052619240233,47.89144472187475 M 21.500000000182098,47.899999860500756 M 6.000000000182098,47.89999984674604 M 5.86947380788888,47.89144470810989 M 5.741180954937121,47.865925672996426 M 5.617316567612633,47.823879379171856 M 5.499999999926786,47.76602525038193 M 5.391238570881114,47.69335318681142 M 5.292893218683091,47.60710662761808 M 5.206646659577245,47.508761275343446 M 5.133974596103528,47.3999998462332 M 5.076120467417951,47.28268327849575 M 5.034074173703559,47.15881889113395 M 5.0085551387040965,47.03052603815949 M 5.00000000018413,46.8999998458586 M 5.000000000218108,29.89999984674604 M 5.008555138844272,29.769473654525953 M 5.034074173929056,29.6411808016435 M 5.076120467706801,29.517316414380744 M 5.13397459643366,29.399999846745985 M 5.206646659926875,29.291238417737432 M 5.292893219031555,29.192893065559602 M 5.391238571209357,29.106646506454766 M 5.50000000021808,29.033974442961508 M 5.617316567852981,28.976120314234734 M 5.741180955115524,28.93407402045689 M 5.869473807998034,28.908554985372106 M 5.0000000000577955,110.09999984585885 M 5.000000000091774,93.09999984674629 M 5.008555138717895,92.96947365452606 M 5.034074173802679,92.84118080164374 M 5.076120467580466,92.71731641438119 M 5.1339745963073256,92.59999984674626 M 5.2066466598005405,92.49123841773748 M 5.292893218905178,92.39289306555965 M 5.391238571083022,92.30664650645501 M 5.500000000091788,92.23397444296184 M 5.617316567726647,92.17612031423498 M 5.741180954989275,92.13407402045725 M 5.869473807871657,92.10855498537235 M 6.000000000091816,92.09999984674629 M 21.50000000009173,92.0999998605008 M 21.63052619238509,92.10855499913664 M 21.758819045337148,92.13407403425002 M 21.882683432661807,92.17612032807442 M 22.000000000347896,92.23397445686429 M 22.108761429393823,92.30664652043468 M 22.20710678159203,92.39289307962802 M 22.29335334069812,92.49123843190277 M 22.366025404172007,92.59999986101322 M 22.423879532857754,92.71731642875066 M 22.465925826572203,92.84118081611255 M 22.491444861571765,92.96947366908724 M 22.50000000009173,93.09999986138818 M 22.500000000057796,110.09999986138827 M 22.491444861325405,110.23052605352753 M 22.465925826155342,110.35881890631792 M 22.423879532314174,110.48268329348123 M 22.36602540354606,110.59999986101373 M 22.29335334003342,110.70876128992093 M 22.207106780929905,110.8071066420019 M 22.108761428772226,110.89335320101789 M 21.999999999800437,110.96602526443384 M 21.88268343221651,111.02387939309757 M 21.75881904501584,111.06592568682866 M 21.63052619220268,111.09144472188449 M 21.500000000055763,111.09999986050086 M 6.000000000055806,111.09999984674623 M 5.869473807762603,111.0914447081101 M 5.741180954810787,111.06592567299661 M 5.617316567486299,111.02387937917199 M 5.499999999800451,110.96602525038206 M 5.39123857075478,110.8933531868117 M 5.2928932185567135,110.8071066276183 M 5.206646659450911,110.70876127534363 M 5.133974595977236,110.5999998462333 M 5.07612046729156,110.48268327849597 M 5.034074173577224,110.35881889113413 M 5.008555138577762,110.23052603815962 M 22.5000000001571,60.399999861388196 M 22.50000000011873,79.59999986138818 M 22.491444861386313,79.73052605352753 M 22.46592582621635,79.85881890631804 M 22.423879532375167,79.98268329348126 M 22.366025403607026,80.09999986101376 M 22.293353340094328,80.20876128992087 M 22.207106780990813,80.30710664200184 M 22.108761428833162,80.39335320101783 M 21.999999999861416,80.46602526443381 M 21.882683432277446,80.52387939309757 M 21.75881904507682,80.56592568682866 M 21.630526192263673,80.5914447218846 M 21.500000000116742,80.59999986050086 M 6.000000000116756,80.59999984674617 M 5.869473807896867,80.59144470811974 M 5.741180955014627,80.56592567303478 M 5.617316567752269,80.52387937925691 M 5.500000000117595,80.46602525052994 M 5.3912385711090565,80.3933531870366 M 5.292893218931482,80.30710662793196 M 5.206646659826973,80.20876127575416 M 5.133974596333957,80.09999984674552 M 5.076120467607268,79.98268327911076 M 5.0340741738295804,79.85881889184826 M 5.008555138744924,79.73052603896598 M 5.000000000118746,79.59999984674617 M 5.000000000157144,60.3999998467461 M 5.008555138783322,60.26947365452615 M 5.034074173868063,60.141180801643614 M 5.076120467645794,60.017316414380915 M 5.133974596372667,59.8999998467461 M 5.206646659865868,59.791238417737375 M 5.292893218970633,59.69289306555963 M 5.391238571148392,59.60664650645482 M 5.500000000157129,59.533974442961735 M 5.617316567792031,59.47612031423493 M 5.741180955054617,59.43407402045703 M 5.869473807937069,59.408554985372305 M 6.000000000157144,59.39999984674613 M 21.50000000015713,59.39999986050081 M 21.630526192450475,59.40855499913671 M 21.758819045402504,59.43407403425006 M 21.882683432727163,59.4761203280744 M 22.000000000413266,59.533974456864215 M 22.10876142945918,59.60664652043472 M 22.207106781657416,59.69289307962801 M 22.293353340763446,59.791238431902755 M 22.366025404237348,59.89999986101314 M 22.42387953292311,60.01731642875065 M 22.465925826637587,60.14118081611265 M 22.49144486163712,60.26947366908725 "
  />
</svg>
