<?xml version="1.0" standalone="no"?>
<!DOCTYPE svg PUBLIC "-//W3C//DTD SVG 1.1//EN" "http://www.w3.org/Graphics/SVG/1.1/DTD/svg11.dtd">
<svg width="134.70000309623464mm" height="103.6mm"
 viewBox="0 0 134.70000309623464 103.6"
 xmlns="http://www.w3.org/2000/svg" version="1.1"
 xmlns:xlink="http://www.w3.org/1999/xlink">
<desc>Output from Flights of Ideas SVG Sketchup Plugin</desc>

  <path id="face0-cut"
 style="fill:none;stroke:#FF0000;stroke-width:0.1;stroke-miterlimit:4;stroke-dasharray:none;stroke-linejoin:round;stroke-linecap:round"
        d="M 4.999999408529192,102.6 L 129.69999940852668,102.6 L 129.69999960118378,97.6000048047531 L 133.69999962240146,97.60000495887317 L 133.70000024265278,81.50211801802485 L 129.70000022143506,81.5021178639048 L 129.7000006838842,69.5000048047593 L 122.70000068388414,69.50000453504663 L 122.700002321434,27.000004535039878 L 129.7000023214316,27.00000480475282 L 129.70000251408365,22.000004804752805 L 133.7000024797407,22.00000495887619 L 133.70000309623464,6.000004958876204 L 129.70000313056258,6.000004804754255 L 129.70000332321493,1.0000048047542123 L 5.000003323228583,1.0 L 5.000002714446538,16.800000000007643 L 1.000002697135443,16.799999845885466 L 1.0,86.79999984588655 L 5.000000017311152,86.80000000000871 L 4.999999408529192,102.6 M 97.00000059141172,71.90000354481086 L 96.94888931588684,72.28823211049524 L 96.79903866819089,72.65000353706776 L 96.56066072232423,72.96066369966276 L 96.25000054135961,73.19904162158984 L 95.88822910323965,73.34889224140767 L 95.50000053361651,73.40000348701551 L 95.1117719679321,73.34889221149052 L 94.75000054135964,73.19904156379447 L 94.43934037876463,72.96066361792786 L 94.2009624568376,72.6500034369634 L 94.05111183701969,72.2882319988434 L 94.00000059141186,71.90000342922022 L 94.05111186693678,71.51177486353565 L 94.2009625146328,71.15000343696337 L 94.43934046049944,70.83934327436835 L 94.75000064146404,70.60096535244122 L 95.11177207958393,70.45111473262341 L 95.50000064920712,70.40000348701557 L 95.88822921489148,70.45111476254041 L 96.25000064146403,70.60096541023655 L 96.56066080405907,70.83934335610323 L 96.79903872598608,71.15000353706765 L 96.94888934580405,71.5117749751876 L 97.00000059141172,71.90000354481086 M 17.400002972611716,10.100000477794453 L 17.451114248135852,9.71177191211332 L 17.600964895830188,9.350000485544129 L 17.839342841694247,9.039340322951361 L 18.15000302265581,8.800962401026055 L 18.51177446077223,8.65111178120921 L 18.9000030303917,8.600000535601296 L 19.288231596072748,8.65111181112536 L 19.650003022642224,8.800962458819654 L 19.960663185234637,9.039340404683642 L 20.199041107159957,9.350000585645176 L 20.348891726976845,9.711772023761824 L 20.40000297258456,10.100000593381154 L 20.34889169706095,10.488229159062257 L 20.19904104936664,10.850000585631577 L 19.960663103502526,11.16066074822399 L 19.65000292254095,11.39903867014931 L 19.28823148442443,11.548889289966382 L 18.900002914805086,11.600000535574083 L 18.511774349123897,11.548889260050274 L 18.150002922554506,11.39903861235588 L 17.839342759962122,11.160660666491793 L 17.600964838036845,10.85000048553053 L 17.45111421821997,10.488229047413853 L 17.400002972611716,10.100000477794453 M 20.400000591411853,71.90000059337012 L 20.34888931588793,72.28822915905477 L 20.1990386681928,72.65000058562765 L 19.960660722326907,72.96066074822326 L 19.650000541362957,73.1990386701512 L 19.288229103243467,73.34888928996978 L 18.900000533620428,73.4000005355787 L 18.511771967935957,73.34888926005479 L 18.150000541363028,73.19903861235967 L 17.839340378767403,72.96066066649382 L 17.600962456839554,72.65000048552994 L 17.451111837020804,72.28822904741025 L 17.400000591411953,71.90000047778733 L 17.45111186693589,71.51177191210263 L 17.600962514630965,71.15000048552994 L 17.839340460496814,70.83934032293426 L 18.150000641460537,70.6009624010064 L 18.511772079580354,70.45111178118756 L 18.90000064920335,70.40000053557885 L 19.288229214887906,70.45111181110269 L 19.650000641460522,70.60096245879785 L 19.96066080405633,70.83934040466377 L 20.199038725984224,71.1500005856277 L 20.348889345803016,71.5117720237472 L 20.400000591411853,71.90000059337012 M 96.5606631035126,11.160663699663118 L 96.25000292254799,11.3990416215901 L 95.88823148442799,11.5488922414077 L 95.50000291480482,11.600003487015314 L 95.1117743491204,11.548892211490312 L 94.75000292254796,11.399041563793986 L 94.43934275995292,11.160663617927327 L 94.20096483802601,10.850003436962623 L 94.05111421820847,10.48823199884255 L 94.00000297260077,10.100003429219342 L 94.05111424812588,9.711774863534984 L 94.200964895822,9.350003436962638 L 94.43934284168876,9.03934327436761 L 94.75000302265353,8.800965352440613 L 95.11177446077363,8.651114732623029 L 95.50000303039675,8.600003487015371 L 95.88823159608117,8.651114762540402 L 96.25000302265354,8.800965410236799 L 96.56066318524843,9.039343356103515 L 96.79904110717536,9.350003537067977 L 96.94889172699311,9.711774975188092 L 97.0000029726009,10.100003544811415 L 96.9488916970756,10.488232110495673 L 96.79904104937937,10.850003537067977 L 96.5606631035126,11.160663699663118 M 105.16863230258676,5.431374709454502 L 104.91436251919791,5.100003849758863 L 104.75452185805904,4.714114315764078 L 104.70000319607738,4.300003841499461 L 104.75452188997082,3.885893371435941 L 104.91436258084673,3.500003849758869 L 105.16863238977122,3.168633009657526 L 105.50000324946689,2.914363226268719 L 105.8858927834616,2.7545225651298324 L 106.30000325772622,2.7000039031483283 L 106.71411372778967,2.7545225970416 L 107.10000324946688,2.9143632879176096 L 107.43137408956818,3.168633096842001 L 107.68564387295694,3.5000039565378387 L 107.84548453409585,3.8858934905323963 L 107.90000319607739,4.300003964797156 L 107.84548450218405,4.714114434860505 L 107.68564381130813,5.100003956537805 L 107.4313740023837,5.431374796638977 L 107.10000314268802,5.68564458002777 L 106.7141136086933,5.845485241166585 L 106.3000031344287,5.900003903148232 L 105.88589266436524,5.845485209254832 L 105.50000314268802,5.685644518378979 L 105.16863230258676,5.431374709454502 M 107.70050142079869,98.5263150317168 L 107.85302589119324,98.9151544012909 L 107.89971418195671,99.3302206284225 L 107.83738456322996,99.74322763566272 L 107.67028469552451,100.12602967799346 L 107.40980215867904,100.4525394288415 L 107.07368840711152,100.70050578826839 L 106.68484903753742,100.85303025866278 L 106.26978281040536,100.89971854942536 L 105.85677580316533,100.83738893069886 L 105.47397376083435,100.67028906299339 L 105.14746400998683,100.40980652614778 L 104.89949765056049,100.07369277458048 L 104.74697318016592,99.68485340500668 L 104.70028488940247,99.26978717787422 L 104.76261450812908,98.85678017063461 L 104.9297143758346,98.47397812830337 L 105.19019691268011,98.14746837745574 L 105.52631066424745,97.89950201802921 L 105.9151500338217,97.74697754763514 L 106.33021626095359,97.70028925687126 L 106.74322326819366,97.76261887559852 L 107.12602531052471,97.92971874330398 L 107.45253506137212,98.19020128014911 L 107.70050142079869,98.5263150317168 M 17.199285559033797,98.40098017645988 L 17.38687053031431,98.77417134456242 L 17.471474716928824,99.18319689511794 L 17.447332483374836,99.60018241280294 L 17.3160890829718,99.99671102368822 L 17.086688536567337,100.34575995823647 L 16.774764112296566,100.62354210838896 L 16.401572944194,100.81112707966949 L 15.99254739363839,100.89573126628399 L 15.575561875953497,100.87158903272989 L 15.179033265068213,100.74034563232685 L 14.829984330519935,100.51094508592226 L 14.552202180367445,100.19902066165164 L 14.364617209086859,99.8258294935491 L 14.280013022472545,99.4168039429936 L 14.304155256026533,98.99981842530865 L 14.435398656429598,98.60328981442329 L 14.664799202834061,98.25424087987508 L 14.976723627104803,97.97645872972262 L 15.34991479520724,97.78887375844208 L 15.758940345762781,97.70426957182765 L 16.175925863447873,97.7284118053817 L 16.57245447433317,97.85965520578475 L 16.92150340888132,98.0890557521892 L 17.199285559033797,98.40098017645988 M 17.240596162229252,5.310410782229894 L 16.936810537876937,5.597070971019335 L 16.569183041328003,5.7953379455290985 L 16.162766878939564,5.891700139098063 L 15.745258640543767,5.8795906274807095 L 15.345110822622303,5.759834653881654 L 14.989592837691006,5.540593389995507 L 14.702932648901779,5.236807765642993 L 14.504665674391873,4.869180269094159 L 14.408303480822909,4.462764106705762 L 14.42041299244049,4.045255868310036 L 14.540168966039587,3.6451080503884867 L 14.759410229925635,3.2895900654570767 L 15.063195854277922,3.0029298766678636 L 15.430823350826643,2.8046629021580713 L 15.837239513215295,2.7083007085890216 L 16.254747751610935,2.7204102202065457 L 16.654895569532556,2.8401661938057146 L 17.01041355446388,3.0594074576916057 L 17.29707374325308,3.3631930820441056 L 17.495340717762986,3.7308205785928834 L 17.591702911331737,4.137236740981393 L 17.579593399714383,4.55474497937729 L 17.4598374261153,4.9548927972986405 L 17.240596162229252,5.310410782229894 M 95.50000269671443,16.1000034870155 L 95.50000086730122,65.90000348701594 L 93.94708658008881,66.10444845980524 L 92.50000081743468,66.70385093381665 L 91.2573600835716,67.65736262062052 L 90.30384829175019,68.90000327390081 L 89.70444569544327,70.3470889858985 L 89.50000059141473,71.90000325583298 L 24.900000591416216,71.90000076676245 L 24.695555610913544,70.34708649546666 L 24.09615313716492,68.90000074869461 L 23.14264145781165,67.65736002773633 L 21.900000817436222,66.70384824336544 L 20.452915121320544,66.10444564732134 L 18.90000086730271,65.90000053557942 L 18.90000274141859,16.100000535579113 L 20.45291701991094,15.895555553148114 L 21.900002772391048,15.296153073877178 L 23.14264349624962,14.342641386169475 L 24.096155279716612,13.100000735789507 L 24.695557870501247,11.652915029499823 L 24.900002972601513,10.100000766762008 L 89.50000297260098,10.10000325583259 L 89.70444795310362,11.652917527128238 L 90.30385042685224,13.100003273900413 L 91.2573621062055,14.342643994858705 L 92.50000274658098,15.296155779229451 L 93.94708844269664,15.895558375273723 L 95.50000269671443,16.1000034870155 "
  />
  <path id="face0-interior"
 style="fill:none;stroke:#FF0000;stroke-width:0.1;stroke-miterlimit:4;stroke-dasharray:none;stroke-linejoin:round;stroke-linecap:round"
        d="M 4.999999408529192,102.6 M 129.69999940852668,102.6 M 129.69999960118378,97.6000048047531 M 133.69999962240146,97.60000495887317 M 133.70000024265278,81.50211801802485 M 129.70000022143506,81.5021178639048 M 129.7000006838842,69.5000048047593 M 122.70000068388414,69.50000453504663 M 122.700002321434,27.000004535039878 M 129.7000023214316,27.00000480475282 M 129.70000251408365,22.000004804752805 M 133.7000024797407,22.00000495887619 M 133.70000309623464,6.000004958876204 M 129.70000313056258,6.000004804754255 M 129.70000332321493,1.0000048047542123 M 5.000003323228583,1.0 M 5.000002714446538,16.800000000007643 M 1.000002697135443,16.799999845885466 M 1.0,86.79999984588655 M 5.000000017311152,86.80000000000871 M 97.00000059141172,71.90000354481086 M 96.94888931588684,72.28823211049524 M 96.79903866819089,72.65000353706776 M 96.56066072232423,72.96066369966276 M 96.25000054135961,73.19904162158984 M 95.88822910323965,73.34889224140767 M 95.50000053361651,73.40000348701551 M 95.1117719679321,73.34889221149052 M 94.75000054135964,73.19904156379447 M 94.43934037876463,72.96066361792786 M 94.2009624568376,72.6500034369634 M 94.05111183701969,72.2882319988434 M 94.00000059141186,71.90000342922022 M 94.05111186693678,71.51177486353565 M 94.2009625146328,71.15000343696337 M 94.43934046049944,70.83934327436835 M 94.75000064146404,70.60096535244122 M 95.11177207958393,70.45111473262341 M 95.50000064920712,70.40000348701557 M 95.88822921489148,70.45111476254041 M 96.25000064146403,70.60096541023655 M 96.56066080405907,70.83934335610323 M 96.79903872598608,71.15000353706765 M 96.94888934580405,71.5117749751876 M 17.400002972611716,10.100000477794453 M 17.451114248135852,9.71177191211332 M 17.600964895830188,9.350000485544129 M 17.839342841694247,9.039340322951361 M 18.15000302265581,8.800962401026055 M 18.51177446077223,8.65111178120921 M 18.9000030303917,8.600000535601296 M 19.288231596072748,8.65111181112536 M 19.650003022642224,8.800962458819654 M 19.960663185234637,9.039340404683642 M 20.199041107159957,9.350000585645176 M 20.348891726976845,9.711772023761824 M 20.40000297258456,10.100000593381154 M 20.34889169706095,10.488229159062257 M 20.19904104936664,10.850000585631577 M 19.960663103502526,11.16066074822399 M 19.65000292254095,11.39903867014931 M 19.28823148442443,11.548889289966382 M 18.900002914805086,11.600000535574083 M 18.511774349123897,11.548889260050274 M 18.150002922554506,11.39903861235588 M 17.839342759962122,11.160660666491793 M 17.600964838036845,10.85000048553053 M 17.45111421821997,10.488229047413853 M 20.400000591411853,71.90000059337012 M 20.34888931588793,72.28822915905477 M 20.1990386681928,72.65000058562765 M 19.960660722326907,72.96066074822326 M 19.650000541362957,73.1990386701512 M 19.288229103243467,73.34888928996978 M 18.900000533620428,73.4000005355787 M 18.511771967935957,73.34888926005479 M 18.150000541363028,73.19903861235967 M 17.839340378767403,72.96066066649382 M 17.600962456839554,72.65000048552994 M 17.451111837020804,72.28822904741025 M 17.400000591411953,71.90000047778733 M 17.45111186693589,71.51177191210263 M 17.600962514630965,71.15000048552994 M 17.839340460496814,70.83934032293426 M 18.150000641460537,70.6009624010064 M 18.511772079580354,70.45111178118756 M 18.90000064920335,70.40000053557885 M 19.288229214887906,70.45111181110269 M 19.650000641460522,70.60096245879785 M 19.96066080405633,70.83934040466377 M 20.199038725984224,71.1500005856277 M 20.348889345803016,71.5117720237472 M 96.5606631035126,11.160663699663118 M 96.25000292254799,11.3990416215901 M 95.88823148442799,11.5488922414077 M 95.50000291480482,11.600003487015314 M 95.1117743491204,11.548892211490312 M 94.75000292254796,11.399041563793986 M 94.43934275995292,11.160663617927327 M 94.20096483802601,10.850003436962623 M 94.05111421820847,10.48823199884255 M 94.00000297260077,10.100003429219342 M 94.05111424812588,9.711774863534984 M 94.200964895822,9.350003436962638 M 94.43934284168876,9.03934327436761 M 94.75000302265353,8.800965352440613 M 95.11177446077363,8.651114732623029 M 95.50000303039675,8.600003487015371 M 95.88823159608117,8.651114762540402 M 96.25000302265354,8.800965410236799 M 96.56066318524843,9.039343356103515 M 96.79904110717536,9.350003537067977 M 96.94889172699311,9.711774975188092 M 97.0000029726009,10.100003544811415 M 96.9488916970756,10.488232110495673 M 96.79904104937937,10.850003537067977 M 105.16863230258676,5.431374709454502 M 104.91436251919791,5.100003849758863 M 104.75452185805904,4.714114315764078 M 104.70000319607738,4.300003841499461 M 104.75452188997082,3.885893371435941 M 104.91436258084673,3.500003849758869 M 105.16863238977122,3.168633009657526 M 105.50000324946689,2.914363226268719 M 105.8858927834616,2.7545225651298324 M 106.30000325772622,2.7000039031483283 M 106.71411372778967,2.7545225970416 M 107.10000324946688,2.9143632879176096 M 107.43137408956818,3.168633096842001 M 107.68564387295694,3.5000039565378387 M 107.84548453409585,3.8858934905323963 M 107.90000319607739,4.300003964797156 M 107.84548450218405,4.714114434860505 M 107.68564381130813,5.100003956537805 M 107.4313740023837,5.431374796638977 M 107.10000314268802,5.68564458002777 M 106.7141136086933,5.845485241166585 M 106.3000031344287,5.900003903148232 M 105.88589266436524,5.845485209254832 M 105.50000314268802,5.685644518378979 M 107.70050142079869,98.5263150317168 M 107.85302589119324,98.9151544012909 M 107.89971418195671,99.3302206284225 M 107.83738456322996,99.74322763566272 M 107.67028469552451,100.12602967799346 M 107.40980215867904,100.4525394288415 M 107.07368840711152,100.70050578826839 M 106.68484903753742,100.85303025866278 M 106.26978281040536,100.89971854942536 M 105.85677580316533,100.83738893069886 M 105.47397376083435,100.67028906299339 M 105.14746400998683,100.40980652614778 M 104.89949765056049,100.07369277458048 M 104.74697318016592,99.68485340500668 M 104.70028488940247,99.26978717787422 M 104.76261450812908,98.85678017063461 M 104.9297143758346,98.47397812830337 M 105.19019691268011,98.14746837745574 M 105.52631066424745,97.89950201802921 M 105.9151500338217,97.74697754763514 M 106.33021626095359,97.70028925687126 M 106.74322326819366,97.76261887559852 M 107.12602531052471,97.92971874330398 M 107.45253506137212,98.19020128014911 M 17.199285559033797,98.40098017645988 M 17.38687053031431,98.77417134456242 M 17.471474716928824,99.18319689511794 M 17.447332483374836,99.60018241280294 M 17.3160890829718,99.99671102368822 M 17.086688536567337,100.34575995823647 M 16.774764112296566,100.62354210838896 M 16.401572944194,100.81112707966949 M 15.99254739363839,100.89573126628399 M 15.575561875953497,100.87158903272989 M 15.179033265068213,100.74034563232685 M 14.829984330519935,100.51094508592226 M 14.552202180367445,100.19902066165164 M 14.364617209086859,99.8258294935491 M 14.280013022472545,99.4168039429936 M 14.304155256026533,98.99981842530865 M 14.435398656429598,98.60328981442329 M 14.664799202834061,98.25424087987508 M 14.976723627104803,97.97645872972262 M 15.34991479520724,97.78887375844208 M 15.758940345762781,97.70426957182765 M 16.175925863447873,97.7284118053817 M 16.57245447433317,97.85965520578475 M 16.92150340888132,98.0890557521892 M 17.240596162229252,5.310410782229894 M 16.936810537876937,5.597070971019335 M 16.569183041328003,5.7953379455290985 M 16.162766878939564,5.891700139098063 M 15.745258640543767,5.8795906274807095 M 15.345110822622303,5.759834653881654 M 14.989592837691006,5.540593389995507 M 14.702932648901779,5.236807765642993 M 14.504665674391873,4.869180269094159 M 14.408303480822909,4.462764106705762 M 14.42041299244049,4.045255868310036 M 14.540168966039587,3.6451080503884867 M 14.759410229925635,3.2895900654570767 M 15.063195854277922,3.0029298766678636 M 15.430823350826643,2.8046629021580713 M 15.837239513215295,2.7083007085890216 M 16.254747751610935,2.7204102202065457 M 16.654895569532556,2.8401661938057146 M 17.01041355446388,3.0594074576916057 M 17.29707374325308,3.3631930820441056 M 17.495340717762986,3.7308205785928834 M 17.591702911331737,4.137236740981393 M 17.579593399714383,4.55474497937729 M 17.4598374261153,4.9548927972986405 M 95.50000269671443,16.1000034870155 M 95.50000086730122,65.90000348701594 M 93.94708658008881,66.10444845980524 M 92.50000081743468,66.70385093381665 M 91.2573600835716,67.65736262062052 M 90.30384829175019,68.90000327390081 M 89.70444569544327,70.3470889858985 M 89.50000059141473,71.90000325583298 M 24.900000591416216,71.90000076676245 M 24.695555610913544,70.34708649546666 M 24.09615313716492,68.90000074869461 M 23.14264145781165,67.65736002773633 M 21.900000817436222,66.70384824336544 M 20.452915121320544,66.10444564732134 M 18.90000086730271,65.90000053557942 M 18.90000274141859,16.100000535579113 M 20.45291701991094,15.895555553148114 M 21.900002772391048,15.296153073877178 M 23.14264349624962,14.342641386169475 M 24.096155279716612,13.100000735789507 M 24.695557870501247,11.652915029499823 M 24.900002972601513,10.100000766762008 M 89.50000297260098,10.10000325583259 M 89.70444795310362,11.652917527128238 M 90.30385042685224,13.100003273900413 M 91.2573621062055,14.342643994858705 M 92.50000274658098,15.296155779229451 M 93.94708844269664,15.895558375273723 "
  />
  <path id="face0-interior"
 style="fill:none;stroke:#FF0000;stroke-width:0.1;stroke-miterlimit:4;stroke-dasharray:none;stroke-linejoin:round;stroke-linecap:round"
        d="M 4.999999408529192,102.6 M 129.69999940852668,102.6 M 129.69999960118378,97.6000048047531 M 133.69999962240146,97.60000495887317 M 133.70000024265278,81.50211801802485 M 129.70000022143506,81.5021178639048 M 129.7000006838842,69.5000048047593 M 122.70000068388414,69.50000453504663 M 122.700002321434,27.000004535039878 M 129.7000023214316,27.00000480475282 M 129.70000251408365,22.000004804752805 M 133.7000024797407,22.00000495887619 M 133.70000309623464,6.000004958876204 M 129.70000313056258,6.000004804754255 M 129.70000332321493,1.0000048047542123 M 5.000003323228583,1.0 M 5.000002714446538,16.800000000007643 M 1.000002697135443,16.799999845885466 M 1.0,86.79999984588655 M 5.000000017311152,86.80000000000871 M 97.00000059141172,71.90000354481086 M 96.94888931588684,72.28823211049524 M 96.79903866819089,72.65000353706776 M 96.56066072232423,72.96066369966276 M 96.25000054135961,73.19904162158984 M 95.88822910323965,73.34889224140767 M 95.50000053361651,73.40000348701551 M 95.1117719679321,73.34889221149052 M 94.75000054135964,73.19904156379447 M 94.43934037876463,72.96066361792786 M 94.2009624568376,72.6500034369634 M 94.05111183701969,72.2882319988434 M 94.00000059141186,71.90000342922022 M 94.05111186693678,71.51177486353565 M 94.2009625146328,71.15000343696337 M 94.43934046049944,70.83934327436835 M 94.75000064146404,70.60096535244122 M 95.11177207958393,70.45111473262341 M 95.50000064920712,70.40000348701557 M 95.88822921489148,70.45111476254041 M 96.25000064146403,70.60096541023655 M 96.56066080405907,70.83934335610323 M 96.79903872598608,71.15000353706765 M 96.94888934580405,71.5117749751876 M 17.400002972611716,10.100000477794453 M 17.451114248135852,9.71177191211332 M 17.600964895830188,9.350000485544129 M 17.839342841694247,9.039340322951361 M 18.15000302265581,8.800962401026055 M 18.51177446077223,8.65111178120921 M 18.9000030303917,8.600000535601296 M 19.288231596072748,8.65111181112536 M 19.650003022642224,8.800962458819654 M 19.960663185234637,9.039340404683642 M 20.199041107159957,9.350000585645176 M 20.348891726976845,9.711772023761824 M 20.40000297258456,10.100000593381154 M 20.34889169706095,10.488229159062257 M 20.19904104936664,10.850000585631577 M 19.960663103502526,11.16066074822399 M 19.65000292254095,11.39903867014931 M 19.28823148442443,11.548889289966382 M 18.900002914805086,11.600000535574083 M 18.511774349123897,11.548889260050274 M 18.150002922554506,11.39903861235588 M 17.839342759962122,11.160660666491793 M 17.600964838036845,10.85000048553053 M 17.45111421821997,10.488229047413853 M 20.400000591411853,71.90000059337012 M 20.34888931588793,72.28822915905477 M 20.1990386681928,72.65000058562765 M 19.960660722326907,72.96066074822326 M 19.650000541362957,73.1990386701512 M 19.288229103243467,73.34888928996978 M 18.900000533620428,73.4000005355787 M 18.511771967935957,73.34888926005479 M 18.150000541363028,73.19903861235967 M 17.839340378767403,72.96066066649382 M 17.600962456839554,72.65000048552994 M 17.451111837020804,72.28822904741025 M 17.400000591411953,71.90000047778733 M 17.45111186693589,71.51177191210263 M 17.600962514630965,71.15000048552994 M 17.839340460496814,70.83934032293426 M 18.150000641460537,70.6009624010064 M 18.511772079580354,70.45111178118756 M 18.90000064920335,70.40000053557885 M 19.288229214887906,70.45111181110269 M 19.650000641460522,70.60096245879785 M 19.96066080405633,70.83934040466377 M 20.199038725984224,71.1500005856277 M 20.348889345803016,71.5117720237472 M 96.5606631035126,11.160663699663118 M 96.25000292254799,11.3990416215901 M 95.88823148442799,11.5488922414077 M 95.50000291480482,11.600003487015314 M 95.1117743491204,11.548892211490312 M 94.75000292254796,11.399041563793986 M 94.43934275995292,11.160663617927327 M 94.20096483802601,10.850003436962623 M 94.05111421820847,10.48823199884255 M 94.00000297260077,10.100003429219342 M 94.05111424812588,9.711774863534984 M 94.200964895822,9.350003436962638 M 94.43934284168876,9.03934327436761 M 94.75000302265353,8.800965352440613 M 95.11177446077363,8.651114732623029 M 95.50000303039675,8.600003487015371 M 95.88823159608117,8.651114762540402 M 96.25000302265354,8.800965410236799 M 96.56066318524843,9.039343356103515 M 96.79904110717536,9.350003537067977 M 96.94889172699311,9.711774975188092 M 97.0000029726009,10.100003544811415 M 96.9488916970756,10.488232110495673 M 96.79904104937937,10.850003537067977 M 105.16863230258676,5.431374709454502 M 104.91436251919791,5.100003849758863 M 104.75452185805904,4.714114315764078 M 104.70000319607738,4.300003841499461 M 104.75452188997082,3.885893371435941 M 104.91436258084673,3.500003849758869 M 105.16863238977122,3.168633009657526 M 105.50000324946689,2.914363226268719 M 105.8858927834616,2.7545225651298324 M 106.30000325772622,2.7000039031483283 M 106.71411372778967,2.7545225970416 M 107.10000324946688,2.9143632879176096 M 107.43137408956818,3.168633096842001 M 107.68564387295694,3.5000039565378387 M 107.84548453409585,3.8858934905323963 M 107.90000319607739,4.300003964797156 M 107.84548450218405,4.714114434860505 M 107.68564381130813,5.100003956537805 M 107.4313740023837,5.431374796638977 M 107.10000314268802,5.68564458002777 M 106.7141136086933,5.845485241166585 M 106.3000031344287,5.900003903148232 M 105.88589266436524,5.845485209254832 M 105.50000314268802,5.685644518378979 M 107.70050142079869,98.5263150317168 M 107.85302589119324,98.9151544012909 M 107.89971418195671,99.3302206284225 M 107.83738456322996,99.74322763566272 M 107.67028469552451,100.12602967799346 M 107.40980215867904,100.4525394288415 M 107.07368840711152,100.70050578826839 M 106.68484903753742,100.85303025866278 M 106.26978281040536,100.89971854942536 M 105.85677580316533,100.83738893069886 M 105.47397376083435,100.67028906299339 M 105.14746400998683,100.40980652614778 M 104.89949765056049,100.07369277458048 M 104.74697318016592,99.68485340500668 M 104.70028488940247,99.26978717787422 M 104.76261450812908,98.85678017063461 M 104.9297143758346,98.47397812830337 M 105.19019691268011,98.14746837745574 M 105.52631066424745,97.89950201802921 M 105.9151500338217,97.74697754763514 M 106.33021626095359,97.70028925687126 M 106.74322326819366,97.76261887559852 M 107.12602531052471,97.92971874330398 M 107.45253506137212,98.19020128014911 M 17.199285559033797,98.40098017645988 M 17.38687053031431,98.77417134456242 M 17.471474716928824,99.18319689511794 M 17.447332483374836,99.60018241280294 M 17.3160890829718,99.99671102368822 M 17.086688536567337,100.34575995823647 M 16.774764112296566,100.62354210838896 M 16.401572944194,100.81112707966949 M 15.99254739363839,100.89573126628399 M 15.575561875953497,100.87158903272989 M 15.179033265068213,100.74034563232685 M 14.829984330519935,100.51094508592226 M 14.552202180367445,100.19902066165164 M 14.364617209086859,99.8258294935491 M 14.280013022472545,99.4168039429936 M 14.304155256026533,98.99981842530865 M 14.435398656429598,98.60328981442329 M 14.664799202834061,98.25424087987508 M 14.976723627104803,97.97645872972262 M 15.34991479520724,97.78887375844208 M 15.758940345762781,97.70426957182765 M 16.175925863447873,97.7284118053817 M 16.57245447433317,97.85965520578475 M 16.92150340888132,98.0890557521892 M 17.240596162229252,5.310410782229894 M 16.936810537876937,5.597070971019335 M 16.569183041328003,5.7953379455290985 M 16.162766878939564,5.891700139098063 M 15.745258640543767,5.8795906274807095 M 15.345110822622303,5.759834653881654 M 14.989592837691006,5.540593389995507 M 14.702932648901779,5.236807765642993 M 14.504665674391873,4.869180269094159 M 14.408303480822909,4.462764106705762 M 14.42041299244049,4.045255868310036 M 14.540168966039587,3.6451080503884867 M 14.759410229925635,3.2895900654570767 M 15.063195854277922,3.0029298766678636 M 15.430823350826643,2.8046629021580713 M 15.837239513215295,2.7083007085890216 M 16.254747751610935,2.7204102202065457 M 16.654895569532556,2.8401661938057146 M 17.01041355446388,3.0594074576916057 M 17.29707374325308,3.3631930820441056 M 17.495340717762986,3.7308205785928834 M 17.591702911331737,4.137236740981393 M 17.579593399714383,4.55474497937729 M 17.4598374261153,4.9548927972986405 M 95.50000269671443,16.1000034870155 M 95.50000086730122,65.90000348701594 M 93.94708658008881,66.10444845980524 M 92.50000081743468,66.70385093381665 M 91.2573600835716,67.65736262062052 M 90.30384829175019,68.90000327390081 M 89.70444569544327,70.3470889858985 M 89.50000059141473,71.90000325583298 M 24.900000591416216,71.90000076676245 M 24.695555610913544,70.34708649546666 M 24.09615313716492,68.90000074869461 M 23.14264145781165,67.65736002773633 M 21.900000817436222,66.70384824336544 M 20.452915121320544,66.10444564732134 M 18.90000086730271,65.90000053557942 M 18.90000274141859,16.100000535579113 M 20.45291701991094,15.895555553148114 M 21.900002772391048,15.296153073877178 M 23.14264349624962,14.342641386169475 M 24.096155279716612,13.100000735789507 M 24.695557870501247,11.652915029499823 M 24.900002972601513,10.100000766762008 M 89.50000297260098,10.10000325583259 M 89.70444795310362,11.652917527128238 M 90.30385042685224,13.100003273900413 M 91.2573621062055,14.342643994858705 M 92.50000274658098,15.296155779229451 M 93.94708844269664,15.895558375273723 "
  />
</svg>
