<?xml version="1.0" standalone="no"?>
<!DOCTYPE svg PUBLIC "-//W3C//DTD SVG 1.1//EN" "http://www.w3.org/Graphics/SVG/1.1/DTD/svg11.dtd">
<svg width="251.02301144450496mm" height="278.00000000000006mm"
 viewBox="0 0 251.02301144450496 278.00000000000006"
 xmlns="http://www.w3.org/2000/svg" version="1.1"
 xmlns:xlink="http://www.w3.org/1999/xlink">
<desc>Output from Flights of Ideas SVG Sketchup Plugin</desc>

  <path id="face0-cut"
 style="fill:none;stroke:#FF0000;stroke-width:0.1;stroke-miterlimit:4;stroke-dasharray:none;stroke-linejoin:round;stroke-linecap:round"
        d="M 245.02301144450496,208.0000000000001 L 245.02301144450496,188.0000000000001 L 245.02301144450496,119.72613565215727 L 250.02301144450496,119.72613565215727 L 250.02301144450496,93.99999999999997 L 245.02301144450496,93.99999999999999 L 245.02301144450496,90.00000000000001 L 245.02301144450496,69.99999999999997 L 227.70250336881614,59.99999999999994 L 168.59792224834362,25.87595417975497 L 171.09792224834362,21.54582716083273 L 148.79611541307918,8.669872981077717 L 146.29611541307912,12.999999999999986 L 142.83201379794139,10.999999999999915 L 125.51150572225255,1.0 L 108.19099764656379,10.999999999999957 L 49.0639792285851,45.13699999999998 L 46.56397922858514,40.80687298107779 L 24.28460969082667,53.66987298107768 L 26.784609690826642,57.999999999999964 L 23.320508075688792,60.00000000000001 L 6.000000000000057,69.99999999999991 L 6.0,90.0 L 6.0,158.27399999999997 L 1.0,158.27399999999992 L 1.0,184.00000000000006 L 5.999999999999943,184.0000000000004 L 5.999999999999943,188.0 L 6.0,208.00000000000014 L 23.320508075688764,218.00000000000034 L 82.44752649366761,252.13699999999994 L 79.94752649366757,256.4671270189221 L 102.226896031426,269.33012701892227 L 104.72689603142598,265.00000000000006 L 108.19099764656372,267.00000000000006 L 125.51150572225255,277.00000000000006 L 142.83201379794127,267.00000000000006 L 201.9590322159199,232.86300000000006 L 204.45903221591993,237.19312701892227 L 226.7384017536784,224.3301270189222 L 224.23840175367837,220.0 L 227.70250336881617,218.0 L 245.02301144450496,208.0000000000001 M 213.5831540775405,210.27084017629628 L 198.86072209072063,218.77084003035407 L 197.36072172855444,216.1727631254874 L 137.5115057222526,250.72672409730023 L 137.5115057222526,219.3535106751798 L 203.0996872504194,181.48615641446878 L 230.26968707241394,197.1727631255755 L 212.08315359291265,207.6727631255274 L 213.5831540775405,210.27084017629628 M 201.09968707241293,93.04974207317206 L 228.26968707241292,77.36313525928992 L 228.26968707241292,98.36313525928995 L 231.269687088204,98.36313525928998 L 231.26968707241286,115.36313525928995 L 228.26968707241292,115.36313525928995 L 228.26968707241292,184.47105720340426 L 201.0996870724129,168.78445038952603 L 201.09968707241293,93.04974207317206 M 143.5679288689409,27.305851821301637 L 157.55423916273867,35.380851834395365 L 156.0542391627386,37.97892804574871 L 216.2696870724129,72.74433310577292 L 189.0996870724129,88.43093991965506 L 123.51150572225256,50.56358576148217 L 123.51150572225255,19.1903721337179 L 142.0679288916199,29.903928045748657 L 143.5679288689409,27.305851821301637 M 37.43985860823713,67.72916167245072 L 52.16228997684911,59.229160813815405 L 53.66228997684216,61.827237025172764 L 113.5115057222526,27.27327620398534 L 113.51150572225256,58.64648983170146 L 47.92332463302802,96.51384383898903 L 20.75332463304312,80.82723702511942 L 38.93985811248399,70.32723702513329 L 37.43985860823713,67.72916167245072 M 19.75332463298335,179.63686459008426 L 19.75332463298335,162.6368645900842 L 22.75332463298335,162.63686459008443 L 22.75332463298335,93.52894294725486 L 49.92332463298334,109.21554976113305 L 49.923324632983366,184.95025777620214 L 22.75332463298335,200.63686459008437 L 22.75332463298335,179.63686459008431 L 19.75332463298335,179.63686459008426 M 107.82497224277938,250.90770407726023 L 93.10254037844393,242.4077040772603 L 94.60254037844389,239.80962786590703 L 34.75332437241701,205.25566689403985 L 61.923324372417056,189.56906008015733 L 127.5115057222526,227.43641423814267 L 127.5115057222526,258.8096278659069 L 109.32497224277937,248.30962786590698 L 107.82497224277938,250.90770407726023 M 233.8544602400684,203.18599862310043 L 219.91328108209487,211.23494188576677 L 217.9132811337184,207.7708402408258 L 231.85446029169228,199.7218969781577 L 233.8544602400684,203.18599862310043 M 168.38293915065157,240.98599764740726 L 154.52653257088105,248.98599744091297 L 152.5265326225049,245.52189579597007 L 166.3829392022753,237.52189600246453 L 168.38293915065157,240.98599764740726 M 112.15509792881639,253.4077030068284 L 126.09627696684225,261.45664647725187 L 124.09627696684215,264.9207480923896 L 110.15509792881743,256.8718046219658 L 112.15509792881639,253.4077030068284 M 46.76834998019163,215.65664647725168 L 60.62475644074277,223.6566464772506 L 58.62475644074274,227.12074809238823 L 44.76834998019143,219.12074809238885 L 46.76834998019163,215.65664647725168 M 19.753325559881432,184.63686497800683 L 19.753325559880068,200.73475191885606 L 15.753325559880125,200.73475191885495 L 15.753325559882256,184.63686497800666 L 19.753325559881432,184.63686497800683 M 19.75332555989766,109.13475191885928 L 19.75332555989587,125.13475191885897 L 15.753325559895785,125.13475191885829 L 15.75332555989769,109.13475191885833 L 19.75332555989766,109.13475191885928 M 96.49648009830611,29.01400320421105 L 98.49648009830631,32.47810481934885 L 84.64007363775642,40.47810481935062 L 82.64007363775605,37.01400320421302 L 96.49648009830611,29.01400320421105 M 33.10973214968098,70.22916134892505 L 19.16855311165719,78.27810481935204 L 17.168553111656962,74.8140032042144 L 31.109732149680468,66.76505973378852 L 33.10973214968098,70.22916134892505 M 126.92673162718685,13.079250872987117 L 140.86791073547045,21.12819422171883 L 138.86791076570958,24.592295854314116 L 124.92673165742477,16.543352505582746 L 126.92673162718685,13.079250872987117 M 192.3982524832411,50.879250301489975 L 206.25465901362406,58.879250180537056 L 204.2546590438619,62.34335181313271 L 190.3982525134791,54.34335193408569 L 192.3982524832411,50.879250301489975 M 235.26968664360118,77.26524890481171 L 235.26968698283605,93.3631358456601 L 231.2696869828369,93.36313592995374 L 231.26968664360118,77.2652489891045 L 235.26968664360118,77.26524890481171 M 235.2696882367337,152.86524890480865 L 235.26968857390602,168.86524890480868 L 231.26968857390597,168.86524898910142 L 231.26968823673363,152.8652489891016 L 235.2696882367337,152.86524890480865 M 141.09996299037246,134.14359353944891 L 141.09996299037243,145.69059892325694 L 137.5115057222526,143.618802153533 L 137.51150572225265,145.92820323027541 L 137.5115057222526,150.07179676972459 L 127.5115057222526,155.8452994616208 L 127.5115057222526,151.7017059221717 L 125.51150572225268,152.85640646055109 L 121.92304845413275,154.92820323027556 L 111.92304845413254,149.15470053837922 L 115.51150572223827,147.082903768663 L 113.51150572225262,145.9282032302757 L 109.9230484541327,143.85640646055134 L 109.92304845413265,132.3094010767776 L 113.51150572225268,134.38119784650155 L 113.51150572225245,132.07179676972473 L 113.51150572225266,127.92820323027553 L 123.5115057222526,122.15470053837933 L 123.5115057222526,126.29829407782816 L 125.51150572225242,125.14359353944906 L 129.09996299037232,123.07179676972451 L 139.09996299037235,128.84529946162075 L 135.51150572223762,130.9170962313538 L 137.51150572225245,132.07179676972447 L 141.09996299037246,134.14359353944891 M 123.51150370521073,113.99999999948727 L 123.51150369331432,77.71100001772282 L 127.51150371315185,77.7110000177228 L 127.51150408586099,114.00000000461982 L 123.51150370521073,113.99999999948727 M 127.51150462152333,164.00000000006344 L 127.51150480589982,200.28922252134393 L 123.51150500254687,200.28922256892528 L 123.51150462152333,164.0000000425121 L 127.51150462152333,164.00000000006344 M 235.76968764130808,105.99711047498003 L 235.9767944224946,106.15602909757794 L 236.1357130450925,106.36313587876447 L 236.23561346759715,106.60431683366195 L 236.26968764130805,106.86313587876448 L 236.23561346759715,107.12195492386701 L 236.1357130450925,107.36313587876445 L 235.9767944224946,107.570242659951 L 235.76968764130808,107.72916128254893 L 235.52850668641057,107.82906170505356 L 235.26968764130805,107.8631358787645 L 235.01086859620557,107.82906170505356 L 234.76968764130805,107.72916128254892 L 234.5625808601215,107.57024265995105 L 234.40366223752363,107.36313587876447 L 234.303761815019,107.12195492386701 L 234.26968764130805,106.86313587876448 L 234.30376181501896,106.60431683366195 L 234.40366223752363,106.36313587876447 L 234.5625808601215,106.15602909757794 L 234.76968764130805,105.99711047498003 L 235.01086859620557,105.8972100524754 L 235.26968764130805,105.8631358787645 L 235.52850668641057,105.89721005247543 L 235.76968764130808,105.99711047498003 M 209.42107556514554,216.4761224093254 L 209.52097598765084,216.2349414544282 L 209.6798946102493,216.02783467324207 L 209.88700139143623,215.8689160506447 L 210.128182346334,215.76901562814072 L 210.38700139143663,215.7349414544305 L 210.64582043653903,215.7690156281421 L 210.88700139143629,215.8689160506474 L 211.09410817262236,216.02783467324582 L 211.2530267952197,216.23494145443283 L 211.35292721772373,216.47612240933057 L 211.38700139143393,216.73494145443317 L 211.3529272177223,216.9937604995356 L 211.25302679521704,217.23494145443283 L 211.09410817261858,217.44204823561893 L 210.8870013914316,217.60096685821628 L 210.64582043653388,217.70086728072027 L 210.38700139143126,217.7349414544305 L 210.1281823463288,217.70086728071885 L 209.88700139143162,217.60096685821355 L 209.67989461024547,217.44204823561512 L 209.52097598764817,217.23494145442817 L 209.4210755651442,216.99376049953042 L 209.38700139143393,216.73494145442783 L 209.42107556514554,216.4761224093254 M 206.05687437250774,218.23494145441896 L 206.21579299510617,218.0278346732328 L 206.42289977629315,217.86891605063545 L 206.6640807311909,217.76901562813146 L 206.92289977629352,217.73494145442118 L 207.18171882139592,217.76901562813282 L 207.42289977629312,217.86891605063812 L 207.63000655747925,218.02783467323655 L 207.7889251800766,218.2349414544235 L 207.88882560258057,218.4761224093213 L 207.92289977629082,218.7349414544239 L 207.88882560257923,218.99376049952633 L 207.78892518007393,219.2349414544235 L 207.63000655747547,219.4420482356096 L 207.42289977628855,219.60096685820696 L 207.18171882139077,219.700867280711 L 206.92289977628815,219.73494145442118 L 206.66408073118572,219.7008672807096 L 206.4228997762885,219.60096685820434 L 206.21579299510242,219.44204823560585 L 206.05687437250506,219.2349414544189 L 205.95697395000104,218.99376049952116 L 205.92289977629082,218.73494145441856 L 205.95697395000246,218.47612240931608 L 206.05687437250774,218.23494145441896 M 103.36086929475927,252.37180462196238 L 103.32679512104832,252.63062366706492 L 103.22689469854372,252.87180462196244 L 103.06797607594582,253.078911403149 L 102.86086929475928,253.23783002574686 L 102.61968833986178,253.33773044825153 L 102.36086929475924,253.37180462196233 L 102.10205024965673,253.33773044825142 L 101.86086929475924,253.2378300257468 L 101.65376251357274,253.078911403149 L 101.4948438909748,252.87180462196244 L 101.39494346847019,252.63062366706487 L 101.36086929475927,252.37180462196244 L 101.39494346847019,252.11298557685996 L 101.49484389097479,251.87180462196233 L 101.65376251357272,251.66469784077583 L 101.86086929475924,251.50577921817796 L 102.10205024965673,251.4058787956733 L 102.36086929475927,251.3718046219625 L 102.61968833986178,251.40587879567335 L 102.86086929475924,251.5057792181779 L 103.0679760759458,251.6646978407759 L 103.2268946985437,251.87180462196244 L 103.32679512104832,252.11298557685996 L 103.36086929475927,252.37180462196238 M 97.93084185333262,250.63062366706498 L 97.89676767962169,250.3718046219625 L 97.93084185333262,250.11298557685996 L 98.03074227583726,249.87180462196255 L 98.18966089843514,249.66469784077606 L 98.39676767962165,249.50577921817813 L 98.63794863451913,249.40587879567346 L 98.89676767962165,249.3718046219626 L 99.15558672472416,249.40587879567346 L 99.3967676796216,249.50577921817813 L 99.60387446080814,249.66469784077606 L 99.76279308340604,249.8718046219626 L 99.86269350591061,250.11298557685996 L 99.89676767962158,250.37180462196255 L 99.86269350591066,250.6306236670651 L 99.76279308340601,250.8718046219625 L 99.60387446080813,251.07891140314905 L 99.3967676796216,251.23783002574697 L 99.15558672472413,251.3377304482516 L 98.8967676796216,251.37180462196238 L 98.63794863451916,251.33773044825153 L 98.39676767962165,251.23783002574697 L 98.18966089843512,251.078911403149 L 98.03074227583723,250.8718046219625 L 97.93084185333262,250.63062366706498 M 96.29869146826819,247.87180462196255 L 96.3985918907728,248.11298557686 L 96.43266606448373,248.3718046219625 L 96.3985918907728,248.63062366706498 L 96.29869146826819,248.8718046219625 L 96.13977284567028,249.07891140314888 L 95.93266606448377,249.2378300257468 L 95.69148510958634,249.33773044825148 L 95.43266606448384,249.37180462196238 L 95.17384701938136,249.33773044825148 L 94.93266606448394,249.23783002574692 L 94.72555928329739,249.078911403149 L 94.56664066069955,248.87180462196244 L 94.46674023819492,248.63062366706504 L 94.432666064484,248.37180462196244 L 94.46674023819494,248.11298557686 L 94.56664066069955,247.87180462196255 L 94.72555928329743,247.66469784077606 L 94.93266606448395,247.50577921817813 L 95.1738470193814,247.40587879567357 L 95.43266606448391,247.37180462196278 L 95.69148510958638,247.40587879567357 L 95.93266606448383,247.50577921817825 L 96.13977284567036,247.66469784077617 L 96.29869146826819,247.87180462196255 M 15.753325559883336,176.63686497800677 L 16.01214460498582,176.67093915171787 L 16.253325559883308,176.77083957422255 L 16.46043234106989,176.92975819682025 L 16.61935096366767,177.13686497800694 L 16.71925138617229,177.37804593290457 L 16.753325559883194,177.63686497800683 L 16.719251386172175,177.8956840231096 L 16.61935096366753,178.13686497800688 L 16.460432341069662,178.34397175919355 L 16.253325559883024,178.5028903817914 L 16.012144604985593,178.6027908042962 L 15.753325559883052,178.636864978007 L 15.49450651478054,178.6027908042958 L 15.25332555988308,178.50289038179125 L 15.046218778696556,178.34397175919355 L 14.88730015609866,178.13686497800677 L 14.787399733594071,177.89568402310917 L 14.753325559883194,177.63686497800677 L 14.7873997335941,177.37804593290423 L 14.887300156098803,177.13686497800666 L 15.046218778696726,176.92975819682013 L 15.253325559883251,176.77083957422218 L 15.494506514780795,176.6709391517178 L 15.753325559883336,176.63686497800677 M 16.75332555988365,173.63686497800694 L 16.71925138617263,173.89568402310965 L 16.619350963667983,174.13686497800717 L 16.460432341070117,174.34397175919366 L 16.253325559883535,174.5028903817916 L 16.012144604986048,174.60279080429598 L 15.753325559883564,174.63686497800705 L 15.49450651478108,174.60279080429603 L 15.25332555988362,174.50289038179125 L 15.046218778697096,174.34397175919344 L 14.887300156099258,174.136864978007 L 14.78739973359464,173.89568402310942 L 14.753325559883734,173.63686497800688 L 14.787399733594754,173.37804593290446 L 14.8873001560994,173.13686497800688 L 15.046218778697266,172.92975819682053 L 15.253325559883848,172.7708395742224 L 15.494506514781335,172.67093915171802 L 15.75332555988382,172.63686497800722 L 16.012144604986275,172.67093915171813 L 16.253325559883763,172.77083957422258 L 16.460432341070288,172.9297581968208 L 16.619350963668126,173.13686497800722 L 16.719251386172743,173.37804593290466 L 16.75332555988365,173.63686497800694 M 16.61935096366861,169.13686497800742 L 16.71925138617317,169.3780459329048 L 16.753325559884104,169.63686497800722 L 16.719251386173084,169.8956840231096 L 16.61935096366844,170.13686497800694 L 16.460432341070543,170.34397175919366 L 16.25332555988402,170.50289038179147 L 16.01214460498653,170.6027908042958 L 15.753325559884047,170.63686497800694 L 15.494506514781563,170.60279080429603 L 15.25332555988416,170.50289038179125 L 15.046218778697636,170.3439717591933 L 14.887300156099798,170.13686497800677 L 14.787399733595208,169.8956840231092 L 14.753325559884331,169.63686497800688 L 14.787399733595294,169.3780459329044 L 14.88730015609994,169.13686497800705 L 15.046218778697863,168.92975819682027 L 15.253325559884445,168.77083957422252 L 15.494506514781875,168.67093915171804 L 15.75332555988436,168.63686497800745 L 16.012144604986844,168.6709391517181 L 16.253325559884303,168.77083957422275 L 16.46043234107077,168.92975819682076 L 16.61935096366861,169.13686497800742 M 16.012144604987412,164.67093915171804 L 16.253325559884843,164.77083957422258 L 16.46043234107131,164.92975819682056 L 16.61935096366915,165.1368649780074 L 16.719251386173767,165.37804593290457 L 16.753325559884644,165.6368649780071 L 16.71925138617371,165.89568402310965 L 16.619350963669064,166.13686497800714 L 16.46043234107114,166.3439717591935 L 16.25332555988456,166.50289038179147 L 16.012144604987128,166.60279080429615 L 15.753325559884587,166.63686497800694 L 15.49450651478216,166.60279080429592 L 15.2533255598847,166.50289038179142 L 15.046218778698176,166.3439717591934 L 14.88730015610031,166.13686497800683 L 14.787399733595748,165.89568402310925 L 14.753325559884814,165.63686497800694 L 14.787399733595834,165.37804593290434 L 14.88730015610048,165.13686497800688 L 15.046218778698346,164.92975819682036 L 15.2533255598849,164.7708395742226 L 15.494506514782387,164.67093915171813 L 15.753325559884871,164.6368649780071 L 16.012144604987412,164.67093915171804 M 34.57383376481795,64.76505973378818 L 34.4739333423133,64.52387877889072 L 34.43985916860228,64.26505973378818 L 34.4739333423133,64.00624068868551 L 34.57383376481786,63.765059733788135 L 34.73275238741573,63.55795295260158 L 34.939859168602254,63.39903433000366 L 35.18104012349971,63.299133907498984 L 35.439859168602254,63.265059733788 L 35.69867821370477,63.29913390749889 L 35.939859168602254,63.399034330003474 L 36.14696594978878,63.557952952601354 L 36.30588457238676,63.765059733787865 L 36.405784994891405,64.00624068868538 L 36.43985916860234,64.26505973378792 L 36.40578499489146,64.52387877889038 L 36.305884572386844,64.76505973378784 L 36.14696594978892,64.9721665149745 L 35.93985916860248,65.13108513757231 L 35.698678213704966,65.23098556007707 L 35.439859168602425,65.26505973378802 L 35.18104012349997,65.23098556007703 L 34.93985916860245,65.13108513757257 L 34.73275238741593,64.97216651497462 L 34.57383376481795,64.76505973378818 M 37.903960783739876,62.26505973378773 L 37.93803495745075,62.00624068868522 L 38.03793537995537,61.76505973378773 L 38.196854002553295,61.55795295260109 L 38.40396078373976,61.39903433000318 L 38.645141738637165,61.2991339074986 L 38.903960783739706,61.26505973378764 L 39.16277982884233,61.299133907498444 L 39.40396078373976,61.399034330003076 L 39.61106756492629,61.55795295260104 L 39.76998618752424,61.76505973378751 L 39.869886610028885,62.00624068868495 L 39.90396078373993,62.26505973378746 L 39.869886610028914,62.52387877888997 L 39.76998618752435,62.76505973378746 L 39.611067564926515,62.972166514974006 L 39.403960783739905,63.13108513757203 L 39.1627798288425,63.23098556007666 L 38.90396078373996,63.26505973378757 L 38.64514173863748,63.23098556007666 L 38.40396078373996,63.13108513757205 L 38.19685400255344,62.97216651497415 L 38.03793537995546,62.765059733787794 L 37.93803495745084,62.52387877889015 L 37.903960783739876,62.26505973378773 M 43.23408780266166,59.765059733787105 L 43.33398822516642,60.00624068868448 L 43.36806239887733,60.265059733787126 L 43.33398822516648,60.52387877888955 L 43.23408780266189,60.7650597337871 L 43.07516918006402,60.97216651497361 L 42.86806239887747,61.13108513757158 L 42.62688144398001,61.230985560076235 L 42.36806239887747,61.26505973378717 L 42.109243353774986,61.230985560076235 L 41.86806239887747,61.131085137571674 L 41.660955617690945,60.97216651497381 L 41.502036995092965,60.76505973378735 L 41.40213657258835,60.52387877888982 L 41.368062398877356,60.265059733787304 L 41.40213657258826,60.00624068868473 L 41.50203699509288,59.76505973378728 L 41.660955617690746,59.55795295260069 L 41.86806239887724,59.39903433000288 L 42.10924335377467,59.2991339074982 L 42.36806239887724,59.26505973378724 L 42.626881443979784,59.29913390749802 L 42.86806239887727,59.399034330002664 L 43.075169180063824,59.55795295260053 L 43.23408780266166,59.765059733787105 M 46.6981894177992,57.76505973378674 L 46.79808984030393,58.00624068868405 L 46.832164014014836,58.26505973378672 L 46.798089840304016,58.52387877888912 L 46.69818941779937,58.7650597337867 L 46.53927079520156,58.9721665149732 L 46.332164014015035,59.13108513757109 L 46.09098305911752,59.23098556007583 L 45.83216401401498,59.265059733786785 L 45.573344968912494,59.23098556007587 L 45.33216401401495,59.13108513757133 L 45.12505723282837,58.97216651497347 L 44.9661386102305,58.765059733786856 L 44.86623818772583,58.52387877888941 L 44.83216401401489,58.265059733786835 L 44.86623818772574,58.006240688684414 L 44.96613861023036,57.76505973378693 L 45.125057232828254,57.55795295260031 L 45.33216401401472,57.39903433000242 L 45.57334496891218,57.29913390749782 L 45.83216401401475,57.26505973378681 L 46.090983059117235,57.29913390749768 L 46.33216401401481,57.39903433000222 L 46.539270795201304,57.55795295260015 L 46.6981894177992,57.76505973378674 M 49.29626562915247,57.26505973378636 L 49.03744658404996,57.230985560075425 L 48.79626562915247,57.13108513757078 L 48.58915884796593,56.972166514973004 L 48.430240225368024,56.76505973378643 L 48.33033980286338,56.52387877888897 L 48.29626562915239,56.26505973378648 L 48.33033980286331,56.006240688683924 L 48.43024022536788,55.76505973378648 L 48.58915884796575,55.557952952599905 L 48.79626562915227,55.399034330002 L 49.03744658404969,55.29913390749735 L 49.29626562915227,55.26505973378632 L 49.55508467425483,55.299133907497236 L 49.79626562915227,55.39903433000195 L 50.00337241033887,55.557952952599656 L 50.162291032936736,55.76505973378627 L 50.262191455441425,56.00624068868374 L 50.29626562915236,56.265059733786295 L 50.262191455441496,56.523878778888744 L 50.16229103293685,56.765059733786316 L 50.00337241033901,56.972166514972784 L 49.79626562915247,57.13108513757075 L 49.555084674255056,57.23098556007527 L 49.29626562915247,57.26505973378636 M 144.33201268013403,23.128193650962658 L 144.1730940575362,23.335300432149168 L 143.9659872763497,23.494219054747006 L 143.7248063214523,23.59411947725161 L 143.4659872763499,23.62819365096253 L 143.2071682312474,23.594119477251596 L 142.96598727635,23.494219054746992 L 142.75888049516348,23.335300432149197 L 142.5999618725657,23.128193650962714 L 142.50006145006108,22.887012696065312 L 142.46598727635012,22.62819365096287 L 142.50006145006105,22.369374605860443 L 142.59996187256564,22.128193650963 L 142.75888049516354,21.921086869776502 L 142.96598727635,21.762168247178707 L 143.2071682312474,21.66226782467406 L 143.46598727634986,21.62819365096314 L 143.7248063214523,21.662267824674032 L 143.96598727634972,21.762168247178664 L 144.1730940575362,21.921086869776474 L 144.332012680134,22.128193650962984 L 144.4319131026386,22.36937460586043 L 144.4659872763495,22.62819365096287 L 144.43191310263862,22.887012696065284 L 144.33201268013403,23.128193650962658 M 145.93008889148774,24.62819365096282 L 145.96416306519873,24.36937460586033 L 146.06406348770332,24.128193650962928 L 146.22298211030122,23.92108686977636 L 146.43008889148769,23.762168247178565 L 146.67126984638512,23.662267824673933 L 146.93008889148757,23.628193650963 L 147.18890793659008,23.66226782467392 L 147.43008889148754,23.762168247178522 L 147.637195672674,23.92108686977643 L 147.79611429527185,24.128193650962956 L 147.8960147177765,24.3693746058603 L 147.93008889148737,24.628193650962842 L 147.89601471777644,24.887012696065284 L 147.79611429527188,25.12819365096268 L 147.63719567267395,25.335300432149253 L 147.43008889148746,25.49421905474712 L 147.18890793659008,25.594119477251674 L 146.93008889148757,25.628193650962636 L 146.6712698463851,25.594119477251702 L 146.43008889148769,25.49421905474712 L 146.2229821103012,25.335300432149232 L 146.06406348770335,25.12819365096273 L 145.9641630651987,24.887012696065305 L 145.93008889148774,24.62819365096282 M 151.2602159104096,27.12819365096277 L 151.10129728781178,27.335300432149253 L 150.89419050662528,27.49421905474707 L 150.65300955172782,27.594119477251695 L 150.3941905066253,27.628193650962608 L 150.13537146152288,27.594119477251716 L 149.89419050662542,27.49421905474705 L 149.68708372543898,27.335300432149204 L 149.5281651028411,27.12819365096268 L 149.42826468033644,26.887012696065284 L 149.39419050662553,26.628193650962814 L 149.42826468033647,26.369374605860372 L 149.52816510284114,26.128193650962906 L 149.68708372543892,25.921086869776424 L 149.8941905066255,25.762168247178515 L 150.13537146152285,25.662267824673933 L 150.39419050662536,25.628193650963 L 150.65300955172782,25.662267824673954 L 150.89419050662525,25.762168247178536 L 151.10129728781175,25.921086869776445 L 151.26021591040958,26.128193650962928 L 151.36011633291417,26.369374605860372 L 151.3941905066251,26.628193650962864 L 151.36011633291423,26.887012696065256 L 151.2602159104096,27.12819365096277 M 154.72431752554738,29.1281936509627 L 154.56539890294948,29.335300432149246 L 154.35829212176304,29.494219054747084 L 154.11711116686558,29.594119477251695 L 153.8582921217631,29.62819365096265 L 153.59947307666062,29.594119477251716 L 153.3582921217632,29.494219054747113 L 153.15118534057666,29.335300432149225 L 152.99226671797888,29.1281936509627 L 152.89236629547418,28.887012696065277 L 152.85829212176327,28.628193650962835 L 152.89236629547418,28.369374605860344 L 152.99226671797885,28.128193650962878 L 153.15118534057666,27.921086869776396 L 153.35829212176318,27.762168247178558 L 153.59947307666064,27.662267824673933 L 153.85829212176316,27.62819365096297 L 154.11711116686553,27.662267824673933 L 154.35829212176301,27.762168247178536 L 154.56539890294957,27.921086869776353 L 154.72431752554738,28.128193650962878 L 154.82421794805194,28.369374605860365 L 154.858292121763,28.628193650962814 L 154.82421794805197,28.887012696065277 L 154.72431752554738,29.1281936509627 M 156.35646791061208,30.887012696065227 L 156.32239373690112,30.628193650962807 L 156.35646791061205,30.369374605860344 L 156.45636833311667,30.1281936509629 L 156.61528695571454,29.921086869776417 L 156.82239373690103,29.7621682471786 L 157.06357469179846,29.662267824673975 L 157.3223937369009,29.628193650963105 L 157.58121278200335,29.662267824674018 L 157.8223937369008,29.7621682471786 L 158.02950051808727,29.92108686977644 L 158.18841914068508,30.12819365096299 L 158.2883195631897,30.369374605860365 L 158.32239373690058,30.62819365096285 L 158.28831956318965,30.887012696065298 L 158.18841914068503,31.128193650962714 L 158.02950051808722,31.335300432149175 L 157.82239373690075,31.494219054747013 L 157.5812127820033,31.594119477251617 L 157.32239373690084,31.628193650962537 L 157.06357469179838,31.594119477251596 L 156.822393736901,31.49421905474697 L 156.61528695571445,31.335300432149154 L 156.45636833311667,31.12819365096263 L 156.35646791061208,30.887012696065227 M 160.52767630693614,33.59411947725171 L 160.2864953520387,33.494219054747106 L 160.0793885708522,33.33530043214922 L 159.92046994825432,33.12819365096276 L 159.82056952574973,32.88701269606525 L 159.7864953520388,32.62819365096283 L 159.82056952574976,32.36937460586034 L 159.92046994825438,32.12819365096287 L 160.07938857085222,31.92108686977639 L 160.28649535203874,31.762168247178508 L 160.5276763069362,31.662267824673926 L 160.78649535203857,31.628193650963006 L 161.0453143971411,31.662267824673904 L 161.28649535203854,31.76216824717853 L 161.49360213322504,31.921086869776367 L 161.6525207558229,32.12819365096289 L 161.7524211783275,32.36937460586036 L 161.78649535203846,32.62819365096278 L 161.75242117832747,32.88701269606529 L 161.65252075582288,33.128193650962736 L 161.49360213322504,33.33530043214922 L 161.28649535203854,33.494219054747056 L 161.04531439714106,33.59411947725171 L 160.78649535203863,33.6281936509626 L 160.52767630693614,33.59411947725171 "
  />
  <path id="face0-interior"
 style="fill:none;stroke:#FF0000;stroke-width:0.1;stroke-miterlimit:4;stroke-dasharray:none;stroke-linejoin:round;stroke-linecap:round"
        d="M 245.02301144450496,208.0000000000001 M 245.02301144450496,188.0000000000001 M 245.02301144450496,119.72613565215727 M 250.02301144450496,119.72613565215727 M 250.02301144450496,93.99999999999997 M 245.02301144450496,93.99999999999999 M 245.02301144450496,90.00000000000001 M 245.02301144450496,69.99999999999997 M 227.70250336881614,59.99999999999994 M 168.59792224834362,25.87595417975497 M 171.09792224834362,21.54582716083273 M 148.79611541307918,8.669872981077717 M 146.29611541307912,12.999999999999986 M 142.83201379794139,10.999999999999915 M 125.51150572225255,1.0 M 108.19099764656379,10.999999999999957 M 49.0639792285851,45.13699999999998 M 46.56397922858514,40.80687298107779 M 24.28460969082667,53.66987298107768 M 26.784609690826642,57.999999999999964 M 23.320508075688792,60.00000000000001 M 6.000000000000057,69.99999999999991 M 6.0,90.0 M 6.0,158.27399999999997 M 1.0,158.27399999999992 M 1.0,184.00000000000006 M 5.999999999999943,184.0000000000004 M 5.999999999999943,188.0 M 6.0,208.00000000000014 M 23.320508075688764,218.00000000000034 M 82.44752649366761,252.13699999999994 M 79.94752649366757,256.4671270189221 M 102.226896031426,269.33012701892227 M 104.72689603142598,265.00000000000006 M 108.19099764656372,267.00000000000006 M 125.51150572225255,277.00000000000006 M 142.83201379794127,267.00000000000006 M 201.9590322159199,232.86300000000006 M 204.45903221591993,237.19312701892227 M 226.7384017536784,224.3301270189222 M 224.23840175367837,220.0 M 227.70250336881617,218.0 M 213.5831540775405,210.27084017629628 M 198.86072209072063,218.77084003035407 M 197.36072172855444,216.1727631254874 M 137.5115057222526,250.72672409730023 M 137.5115057222526,219.3535106751798 M 203.0996872504194,181.48615641446878 M 230.26968707241394,197.1727631255755 M 212.08315359291265,207.6727631255274 M 201.09968707241293,93.04974207317206 M 228.26968707241292,77.36313525928992 M 228.26968707241292,98.36313525928995 M 231.269687088204,98.36313525928998 M 231.26968707241286,115.36313525928995 M 228.26968707241292,115.36313525928995 M 228.26968707241292,184.47105720340426 M 201.0996870724129,168.78445038952603 M 143.5679288689409,27.305851821301637 M 157.55423916273867,35.380851834395365 M 156.0542391627386,37.97892804574871 M 216.2696870724129,72.74433310577292 M 189.0996870724129,88.43093991965506 M 123.51150572225256,50.56358576148217 M 123.51150572225255,19.1903721337179 M 142.0679288916199,29.903928045748657 M 37.43985860823713,67.72916167245072 M 52.16228997684911,59.229160813815405 M 53.66228997684216,61.827237025172764 M 113.5115057222526,27.27327620398534 M 113.51150572225256,58.64648983170146 M 47.92332463302802,96.51384383898903 M 20.75332463304312,80.82723702511942 M 38.93985811248399,70.32723702513329 M 19.75332463298335,179.63686459008426 M 19.75332463298335,162.6368645900842 M 22.75332463298335,162.63686459008443 M 22.75332463298335,93.52894294725486 M 49.92332463298334,109.21554976113305 M 49.923324632983366,184.95025777620214 M 22.75332463298335,200.63686459008437 M 22.75332463298335,179.63686459008431 M 107.82497224277938,250.90770407726023 M 93.10254037844393,242.4077040772603 M 94.60254037844389,239.80962786590703 M 34.75332437241701,205.25566689403985 M 61.923324372417056,189.56906008015733 M 127.5115057222526,227.43641423814267 M 127.5115057222526,258.8096278659069 M 109.32497224277937,248.30962786590698 M 233.8544602400684,203.18599862310043 M 219.91328108209487,211.23494188576677 M 217.9132811337184,207.7708402408258 M 231.85446029169228,199.7218969781577 M 168.38293915065157,240.98599764740726 M 154.52653257088105,248.98599744091297 M 152.5265326225049,245.52189579597007 M 166.3829392022753,237.52189600246453 M 112.15509792881639,253.4077030068284 M 126.09627696684225,261.45664647725187 M 124.09627696684215,264.9207480923896 M 110.15509792881743,256.8718046219658 M 46.76834998019163,215.65664647725168 M 60.62475644074277,223.6566464772506 M 58.62475644074274,227.12074809238823 M 44.76834998019143,219.12074809238885 M 19.753325559881432,184.63686497800683 M 19.753325559880068,200.73475191885606 M 15.753325559880125,200.73475191885495 M 15.753325559882256,184.63686497800666 M 19.75332555989766,109.13475191885928 M 19.75332555989587,125.13475191885897 M 15.753325559895785,125.13475191885829 M 15.75332555989769,109.13475191885833 M 96.49648009830611,29.01400320421105 M 98.49648009830631,32.47810481934885 M 84.64007363775642,40.47810481935062 M 82.64007363775605,37.01400320421302 M 33.10973214968098,70.22916134892505 M 19.16855311165719,78.27810481935204 M 17.168553111656962,74.8140032042144 M 31.109732149680468,66.76505973378852 M 126.92673162718685,13.079250872987117 M 140.86791073547045,21.12819422171883 M 138.86791076570958,24.592295854314116 M 124.92673165742477,16.543352505582746 M 192.3982524832411,50.879250301489975 M 206.25465901362406,58.879250180537056 M 204.2546590438619,62.34335181313271 M 190.3982525134791,54.34335193408569 M 235.26968664360118,77.26524890481171 M 235.26968698283605,93.3631358456601 M 231.2696869828369,93.36313592995374 M 231.26968664360118,77.2652489891045 M 235.2696882367337,152.86524890480865 M 235.26968857390602,168.86524890480868 M 231.26968857390597,168.86524898910142 M 231.26968823673363,152.8652489891016 M 141.09996299037246,134.14359353944891 M 141.09996299037243,145.69059892325694 M 137.5115057222526,143.618802153533 M 137.51150572225265,145.92820323027541 M 137.5115057222526,150.07179676972459 M 127.5115057222526,155.8452994616208 M 127.5115057222526,151.7017059221717 M 125.51150572225268,152.85640646055109 M 121.92304845413275,154.92820323027556 M 111.92304845413254,149.15470053837922 M 115.51150572223827,147.082903768663 M 113.51150572225262,145.9282032302757 M 109.9230484541327,143.85640646055134 M 109.92304845413265,132.3094010767776 M 113.51150572225268,134.38119784650155 M 113.51150572225245,132.07179676972473 M 113.51150572225266,127.92820323027553 M 123.5115057222526,122.15470053837933 M 123.5115057222526,126.29829407782816 M 125.51150572225242,125.14359353944906 M 129.09996299037232,123.07179676972451 M 139.09996299037235,128.84529946162075 M 135.51150572223762,130.9170962313538 M 137.51150572225245,132.07179676972447 M 123.51150370521073,113.99999999948727 M 123.51150369331432,77.71100001772282 M 127.51150371315185,77.7110000177228 M 127.51150408586099,114.00000000461982 M 127.51150462152333,164.00000000006344 M 127.51150480589982,200.28922252134393 M 123.51150500254687,200.28922256892528 M 123.51150462152333,164.0000000425121 M 235.76968764130808,105.99711047498003 M 235.9767944224946,106.15602909757794 M 236.1357130450925,106.36313587876447 M 236.23561346759715,106.60431683366195 M 236.26968764130805,106.86313587876448 M 236.23561346759715,107.12195492386701 M 236.1357130450925,107.36313587876445 M 235.9767944224946,107.570242659951 M 235.76968764130808,107.72916128254893 M 235.52850668641057,107.82906170505356 M 235.26968764130805,107.8631358787645 M 235.01086859620557,107.82906170505356 M 234.76968764130805,107.72916128254892 M 234.5625808601215,107.57024265995105 M 234.40366223752363,107.36313587876447 M 234.303761815019,107.12195492386701 M 234.26968764130805,106.86313587876448 M 234.30376181501896,106.60431683366195 M 234.40366223752363,106.36313587876447 M 234.5625808601215,106.15602909757794 M 234.76968764130805,105.99711047498003 M 235.01086859620557,105.8972100524754 M 235.26968764130805,105.8631358787645 M 235.52850668641057,105.89721005247543 M 209.42107556514554,216.4761224093254 M 209.52097598765084,216.2349414544282 M 209.6798946102493,216.02783467324207 M 209.88700139143623,215.8689160506447 M 210.128182346334,215.76901562814072 M 210.38700139143663,215.7349414544305 M 210.64582043653903,215.7690156281421 M 210.88700139143629,215.8689160506474 M 211.09410817262236,216.02783467324582 M 211.2530267952197,216.23494145443283 M 211.35292721772373,216.47612240933057 M 211.38700139143393,216.73494145443317 M 211.3529272177223,216.9937604995356 M 211.25302679521704,217.23494145443283 M 211.09410817261858,217.44204823561893 M 210.8870013914316,217.60096685821628 M 210.64582043653388,217.70086728072027 M 210.38700139143126,217.7349414544305 M 210.1281823463288,217.70086728071885 M 209.88700139143162,217.60096685821355 M 209.67989461024547,217.44204823561512 M 209.52097598764817,217.23494145442817 M 209.4210755651442,216.99376049953042 M 209.38700139143393,216.73494145442783 M 206.05687437250774,218.23494145441896 M 206.21579299510617,218.0278346732328 M 206.42289977629315,217.86891605063545 M 206.6640807311909,217.76901562813146 M 206.92289977629352,217.73494145442118 M 207.18171882139592,217.76901562813282 M 207.42289977629312,217.86891605063812 M 207.63000655747925,218.02783467323655 M 207.7889251800766,218.2349414544235 M 207.88882560258057,218.4761224093213 M 207.92289977629082,218.7349414544239 M 207.88882560257923,218.99376049952633 M 207.78892518007393,219.2349414544235 M 207.63000655747547,219.4420482356096 M 207.42289977628855,219.60096685820696 M 207.18171882139077,219.700867280711 M 206.92289977628815,219.73494145442118 M 206.66408073118572,219.7008672807096 M 206.4228997762885,219.60096685820434 M 206.21579299510242,219.44204823560585 M 206.05687437250506,219.2349414544189 M 205.95697395000104,218.99376049952116 M 205.92289977629082,218.73494145441856 M 205.95697395000246,218.47612240931608 M 103.36086929475927,252.37180462196238 M 103.32679512104832,252.63062366706492 M 103.22689469854372,252.87180462196244 M 103.06797607594582,253.078911403149 M 102.86086929475928,253.23783002574686 M 102.61968833986178,253.33773044825153 M 102.36086929475924,253.37180462196233 M 102.10205024965673,253.33773044825142 M 101.86086929475924,253.2378300257468 M 101.65376251357274,253.078911403149 M 101.4948438909748,252.87180462196244 M 101.39494346847019,252.63062366706487 M 101.36086929475927,252.37180462196244 M 101.39494346847019,252.11298557685996 M 101.49484389097479,251.87180462196233 M 101.65376251357272,251.66469784077583 M 101.86086929475924,251.50577921817796 M 102.10205024965673,251.4058787956733 M 102.36086929475927,251.3718046219625 M 102.61968833986178,251.40587879567335 M 102.86086929475924,251.5057792181779 M 103.0679760759458,251.6646978407759 M 103.2268946985437,251.87180462196244 M 103.32679512104832,252.11298557685996 M 97.93084185333262,250.63062366706498 M 97.89676767962169,250.3718046219625 M 97.93084185333262,250.11298557685996 M 98.03074227583726,249.87180462196255 M 98.18966089843514,249.66469784077606 M 98.39676767962165,249.50577921817813 M 98.63794863451913,249.40587879567346 M 98.89676767962165,249.3718046219626 M 99.15558672472416,249.40587879567346 M 99.3967676796216,249.50577921817813 M 99.60387446080814,249.66469784077606 M 99.76279308340604,249.8718046219626 M 99.86269350591061,250.11298557685996 M 99.89676767962158,250.37180462196255 M 99.86269350591066,250.6306236670651 M 99.76279308340601,250.8718046219625 M 99.60387446080813,251.07891140314905 M 99.3967676796216,251.23783002574697 M 99.15558672472413,251.3377304482516 M 98.8967676796216,251.37180462196238 M 98.63794863451916,251.33773044825153 M 98.39676767962165,251.23783002574697 M 98.18966089843512,251.078911403149 M 98.03074227583723,250.8718046219625 M 96.29869146826819,247.87180462196255 M 96.3985918907728,248.11298557686 M 96.43266606448373,248.3718046219625 M 96.3985918907728,248.63062366706498 M 96.29869146826819,248.8718046219625 M 96.13977284567028,249.07891140314888 M 95.93266606448377,249.2378300257468 M 95.69148510958634,249.33773044825148 M 95.43266606448384,249.37180462196238 M 95.17384701938136,249.33773044825148 M 94.93266606448394,249.23783002574692 M 94.72555928329739,249.078911403149 M 94.56664066069955,248.87180462196244 M 94.46674023819492,248.63062366706504 M 94.432666064484,248.37180462196244 M 94.46674023819494,248.11298557686 M 94.56664066069955,247.87180462196255 M 94.72555928329743,247.66469784077606 M 94.93266606448395,247.50577921817813 M 95.1738470193814,247.40587879567357 M 95.43266606448391,247.37180462196278 M 95.69148510958638,247.40587879567357 M 95.93266606448383,247.50577921817825 M 96.13977284567036,247.66469784077617 M 15.753325559883336,176.63686497800677 M 16.01214460498582,176.67093915171787 M 16.253325559883308,176.77083957422255 M 16.46043234106989,176.92975819682025 M 16.61935096366767,177.13686497800694 M 16.71925138617229,177.37804593290457 M 16.753325559883194,177.63686497800683 M 16.719251386172175,177.8956840231096 M 16.61935096366753,178.13686497800688 M 16.460432341069662,178.34397175919355 M 16.253325559883024,178.5028903817914 M 16.012144604985593,178.6027908042962 M 15.753325559883052,178.636864978007 M 15.49450651478054,178.6027908042958 M 15.25332555988308,178.50289038179125 M 15.046218778696556,178.34397175919355 M 14.88730015609866,178.13686497800677 M 14.787399733594071,177.89568402310917 M 14.753325559883194,177.63686497800677 M 14.7873997335941,177.37804593290423 M 14.887300156098803,177.13686497800666 M 15.046218778696726,176.92975819682013 M 15.253325559883251,176.77083957422218 M 15.494506514780795,176.6709391517178 M 16.75332555988365,173.63686497800694 M 16.71925138617263,173.89568402310965 M 16.619350963667983,174.13686497800717 M 16.460432341070117,174.34397175919366 M 16.253325559883535,174.5028903817916 M 16.012144604986048,174.60279080429598 M 15.753325559883564,174.63686497800705 M 15.49450651478108,174.60279080429603 M 15.25332555988362,174.50289038179125 M 15.046218778697096,174.34397175919344 M 14.887300156099258,174.136864978007 M 14.78739973359464,173.89568402310942 M 14.753325559883734,173.63686497800688 M 14.787399733594754,173.37804593290446 M 14.8873001560994,173.13686497800688 M 15.046218778697266,172.92975819682053 M 15.253325559883848,172.7708395742224 M 15.494506514781335,172.67093915171802 M 15.75332555988382,172.63686497800722 M 16.012144604986275,172.67093915171813 M 16.253325559883763,172.77083957422258 M 16.460432341070288,172.9297581968208 M 16.619350963668126,173.13686497800722 M 16.719251386172743,173.37804593290466 M 16.61935096366861,169.13686497800742 M 16.71925138617317,169.3780459329048 M 16.753325559884104,169.63686497800722 M 16.719251386173084,169.8956840231096 M 16.61935096366844,170.13686497800694 M 16.460432341070543,170.34397175919366 M 16.25332555988402,170.50289038179147 M 16.01214460498653,170.6027908042958 M 15.753325559884047,170.63686497800694 M 15.494506514781563,170.60279080429603 M 15.25332555988416,170.50289038179125 M 15.046218778697636,170.3439717591933 M 14.887300156099798,170.13686497800677 M 14.787399733595208,169.8956840231092 M 14.753325559884331,169.63686497800688 M 14.787399733595294,169.3780459329044 M 14.88730015609994,169.13686497800705 M 15.046218778697863,168.92975819682027 M 15.253325559884445,168.77083957422252 M 15.494506514781875,168.67093915171804 M 15.75332555988436,168.63686497800745 M 16.012144604986844,168.6709391517181 M 16.253325559884303,168.77083957422275 M 16.46043234107077,168.92975819682076 M 16.012144604987412,164.67093915171804 M 16.253325559884843,164.77083957422258 M 16.46043234107131,164.92975819682056 M 16.61935096366915,165.1368649780074 M 16.719251386173767,165.37804593290457 M 16.753325559884644,165.6368649780071 M 16.71925138617371,165.89568402310965 M 16.619350963669064,166.13686497800714 M 16.46043234107114,166.3439717591935 M 16.25332555988456,166.50289038179147 M 16.012144604987128,166.60279080429615 M 15.753325559884587,166.63686497800694 M 15.49450651478216,166.60279080429592 M 15.2533255598847,166.50289038179142 M 15.046218778698176,166.3439717591934 M 14.88730015610031,166.13686497800683 M 14.787399733595748,165.89568402310925 M 14.753325559884814,165.63686497800694 M 14.787399733595834,165.37804593290434 M 14.88730015610048,165.13686497800688 M 15.046218778698346,164.92975819682036 M 15.2533255598849,164.7708395742226 M 15.494506514782387,164.67093915171813 M 15.753325559884871,164.6368649780071 M 34.57383376481795,64.76505973378818 M 34.4739333423133,64.52387877889072 M 34.43985916860228,64.26505973378818 M 34.4739333423133,64.00624068868551 M 34.57383376481786,63.765059733788135 M 34.73275238741573,63.55795295260158 M 34.939859168602254,63.39903433000366 M 35.18104012349971,63.299133907498984 M 35.439859168602254,63.265059733788 M 35.69867821370477,63.29913390749889 M 35.939859168602254,63.399034330003474 M 36.14696594978878,63.557952952601354 M 36.30588457238676,63.765059733787865 M 36.405784994891405,64.00624068868538 M 36.43985916860234,64.26505973378792 M 36.40578499489146,64.52387877889038 M 36.305884572386844,64.76505973378784 M 36.14696594978892,64.9721665149745 M 35.93985916860248,65.13108513757231 M 35.698678213704966,65.23098556007707 M 35.439859168602425,65.26505973378802 M 35.18104012349997,65.23098556007703 M 34.93985916860245,65.13108513757257 M 34.73275238741593,64.97216651497462 M 37.903960783739876,62.26505973378773 M 37.93803495745075,62.00624068868522 M 38.03793537995537,61.76505973378773 M 38.196854002553295,61.55795295260109 M 38.40396078373976,61.39903433000318 M 38.645141738637165,61.2991339074986 M 38.903960783739706,61.26505973378764 M 39.16277982884233,61.299133907498444 M 39.40396078373976,61.399034330003076 M 39.61106756492629,61.55795295260104 M 39.76998618752424,61.76505973378751 M 39.869886610028885,62.00624068868495 M 39.90396078373993,62.26505973378746 M 39.869886610028914,62.52387877888997 M 39.76998618752435,62.76505973378746 M 39.611067564926515,62.972166514974006 M 39.403960783739905,63.13108513757203 M 39.1627798288425,63.23098556007666 M 38.90396078373996,63.26505973378757 M 38.64514173863748,63.23098556007666 M 38.40396078373996,63.13108513757205 M 38.19685400255344,62.97216651497415 M 38.03793537995546,62.765059733787794 M 37.93803495745084,62.52387877889015 M 43.23408780266166,59.765059733787105 M 43.33398822516642,60.00624068868448 M 43.36806239887733,60.265059733787126 M 43.33398822516648,60.52387877888955 M 43.23408780266189,60.7650597337871 M 43.07516918006402,60.97216651497361 M 42.86806239887747,61.13108513757158 M 42.62688144398001,61.230985560076235 M 42.36806239887747,61.26505973378717 M 42.109243353774986,61.230985560076235 M 41.86806239887747,61.131085137571674 M 41.660955617690945,60.97216651497381 M 41.502036995092965,60.76505973378735 M 41.40213657258835,60.52387877888982 M 41.368062398877356,60.265059733787304 M 41.40213657258826,60.00624068868473 M 41.50203699509288,59.76505973378728 M 41.660955617690746,59.55795295260069 M 41.86806239887724,59.39903433000288 M 42.10924335377467,59.2991339074982 M 42.36806239887724,59.26505973378724 M 42.626881443979784,59.29913390749802 M 42.86806239887727,59.399034330002664 M 43.075169180063824,59.55795295260053 M 46.6981894177992,57.76505973378674 M 46.79808984030393,58.00624068868405 M 46.832164014014836,58.26505973378672 M 46.798089840304016,58.52387877888912 M 46.69818941779937,58.7650597337867 M 46.53927079520156,58.9721665149732 M 46.332164014015035,59.13108513757109 M 46.09098305911752,59.23098556007583 M 45.83216401401498,59.265059733786785 M 45.573344968912494,59.23098556007587 M 45.33216401401495,59.13108513757133 M 45.12505723282837,58.97216651497347 M 44.9661386102305,58.765059733786856 M 44.86623818772583,58.52387877888941 M 44.83216401401489,58.265059733786835 M 44.86623818772574,58.006240688684414 M 44.96613861023036,57.76505973378693 M 45.125057232828254,57.55795295260031 M 45.33216401401472,57.39903433000242 M 45.57334496891218,57.29913390749782 M 45.83216401401475,57.26505973378681 M 46.090983059117235,57.29913390749768 M 46.33216401401481,57.39903433000222 M 46.539270795201304,57.55795295260015 M 49.29626562915247,57.26505973378636 M 49.03744658404996,57.230985560075425 M 48.79626562915247,57.13108513757078 M 48.58915884796593,56.972166514973004 M 48.430240225368024,56.76505973378643 M 48.33033980286338,56.52387877888897 M 48.29626562915239,56.26505973378648 M 48.33033980286331,56.006240688683924 M 48.43024022536788,55.76505973378648 M 48.58915884796575,55.557952952599905 M 48.79626562915227,55.399034330002 M 49.03744658404969,55.29913390749735 M 49.29626562915227,55.26505973378632 M 49.55508467425483,55.299133907497236 M 49.79626562915227,55.39903433000195 M 50.00337241033887,55.557952952599656 M 50.162291032936736,55.76505973378627 M 50.262191455441425,56.00624068868374 M 50.29626562915236,56.265059733786295 M 50.262191455441496,56.523878778888744 M 50.16229103293685,56.765059733786316 M 50.00337241033901,56.972166514972784 M 49.79626562915247,57.13108513757075 M 49.555084674255056,57.23098556007527 M 144.33201268013403,23.128193650962658 M 144.1730940575362,23.335300432149168 M 143.9659872763497,23.494219054747006 M 143.7248063214523,23.59411947725161 M 143.4659872763499,23.62819365096253 M 143.2071682312474,23.594119477251596 M 142.96598727635,23.494219054746992 M 142.75888049516348,23.335300432149197 M 142.5999618725657,23.128193650962714 M 142.50006145006108,22.887012696065312 M 142.46598727635012,22.62819365096287 M 142.50006145006105,22.369374605860443 M 142.59996187256564,22.128193650963 M 142.75888049516354,21.921086869776502 M 142.96598727635,21.762168247178707 M 143.2071682312474,21.66226782467406 M 143.46598727634986,21.62819365096314 M 143.7248063214523,21.662267824674032 M 143.96598727634972,21.762168247178664 M 144.1730940575362,21.921086869776474 M 144.332012680134,22.128193650962984 M 144.4319131026386,22.36937460586043 M 144.4659872763495,22.62819365096287 M 144.43191310263862,22.887012696065284 M 145.93008889148774,24.62819365096282 M 145.96416306519873,24.36937460586033 M 146.06406348770332,24.128193650962928 M 146.22298211030122,23.92108686977636 M 146.43008889148769,23.762168247178565 M 146.67126984638512,23.662267824673933 M 146.93008889148757,23.628193650963 M 147.18890793659008,23.66226782467392 M 147.43008889148754,23.762168247178522 M 147.637195672674,23.92108686977643 M 147.79611429527185,24.128193650962956 M 147.8960147177765,24.3693746058603 M 147.93008889148737,24.628193650962842 M 147.89601471777644,24.887012696065284 M 147.79611429527188,25.12819365096268 M 147.63719567267395,25.335300432149253 M 147.43008889148746,25.49421905474712 M 147.18890793659008,25.594119477251674 M 146.93008889148757,25.628193650962636 M 146.6712698463851,25.594119477251702 M 146.43008889148769,25.49421905474712 M 146.2229821103012,25.335300432149232 M 146.06406348770335,25.12819365096273 M 145.9641630651987,24.887012696065305 M 151.2602159104096,27.12819365096277 M 151.10129728781178,27.335300432149253 M 150.89419050662528,27.49421905474707 M 150.65300955172782,27.594119477251695 M 150.3941905066253,27.628193650962608 M 150.13537146152288,27.594119477251716 M 149.89419050662542,27.49421905474705 M 149.68708372543898,27.335300432149204 M 149.5281651028411,27.12819365096268 M 149.42826468033644,26.887012696065284 M 149.39419050662553,26.628193650962814 M 149.42826468033647,26.369374605860372 M 149.52816510284114,26.128193650962906 M 149.68708372543892,25.921086869776424 M 149.8941905066255,25.762168247178515 M 150.13537146152285,25.662267824673933 M 150.39419050662536,25.628193650963 M 150.65300955172782,25.662267824673954 M 150.89419050662525,25.762168247178536 M 151.10129728781175,25.921086869776445 M 151.26021591040958,26.128193650962928 M 151.36011633291417,26.369374605860372 M 151.3941905066251,26.628193650962864 M 151.36011633291423,26.887012696065256 M 154.72431752554738,29.1281936509627 M 154.56539890294948,29.335300432149246 M 154.35829212176304,29.494219054747084 M 154.11711116686558,29.594119477251695 M 153.8582921217631,29.62819365096265 M 153.59947307666062,29.594119477251716 M 153.3582921217632,29.494219054747113 M 153.15118534057666,29.335300432149225 M 152.99226671797888,29.1281936509627 M 152.89236629547418,28.887012696065277 M 152.85829212176327,28.628193650962835 M 152.89236629547418,28.369374605860344 M 152.99226671797885,28.128193650962878 M 153.15118534057666,27.921086869776396 M 153.35829212176318,27.762168247178558 M 153.59947307666064,27.662267824673933 M 153.85829212176316,27.62819365096297 M 154.11711116686553,27.662267824673933 M 154.35829212176301,27.762168247178536 M 154.56539890294957,27.921086869776353 M 154.72431752554738,28.128193650962878 M 154.82421794805194,28.369374605860365 M 154.858292121763,28.628193650962814 M 154.82421794805197,28.887012696065277 M 156.35646791061208,30.887012696065227 M 156.32239373690112,30.628193650962807 M 156.35646791061205,30.369374605860344 M 156.45636833311667,30.1281936509629 M 156.61528695571454,29.921086869776417 M 156.82239373690103,29.7621682471786 M 157.06357469179846,29.662267824673975 M 157.3223937369009,29.628193650963105 M 157.58121278200335,29.662267824674018 M 157.8223937369008,29.7621682471786 M 158.02950051808727,29.92108686977644 M 158.18841914068508,30.12819365096299 M 158.2883195631897,30.369374605860365 M 158.32239373690058,30.62819365096285 M 158.28831956318965,30.887012696065298 M 158.18841914068503,31.128193650962714 M 158.02950051808722,31.335300432149175 M 157.82239373690075,31.494219054747013 M 157.5812127820033,31.594119477251617 M 157.32239373690084,31.628193650962537 M 157.06357469179838,31.594119477251596 M 156.822393736901,31.49421905474697 M 156.61528695571445,31.335300432149154 M 156.45636833311667,31.12819365096263 M 160.52767630693614,33.59411947725171 M 160.2864953520387,33.494219054747106 M 160.0793885708522,33.33530043214922 M 159.92046994825432,33.12819365096276 M 159.82056952574973,32.88701269606525 M 159.7864953520388,32.62819365096283 M 159.82056952574976,32.36937460586034 M 159.92046994825438,32.12819365096287 M 160.07938857085222,31.92108686977639 M 160.28649535203874,31.762168247178508 M 160.5276763069362,31.662267824673926 M 160.78649535203857,31.628193650963006 M 161.0453143971411,31.662267824673904 M 161.28649535203854,31.76216824717853 M 161.49360213322504,31.921086869776367 M 161.6525207558229,32.12819365096289 M 161.7524211783275,32.36937460586036 M 161.78649535203846,32.62819365096278 M 161.75242117832747,32.88701269606529 M 161.65252075582288,33.128193650962736 M 161.49360213322504,33.33530043214922 M 161.28649535203854,33.494219054747056 M 161.04531439714106,33.59411947725171 M 160.78649535203863,33.6281936509626 "
  />
  <path id="face0-interior"
 style="fill:none;stroke:#FF0000;stroke-width:0.1;stroke-miterlimit:4;stroke-dasharray:none;stroke-linejoin:round;stroke-linecap:round"
        d="M 245.02301144450496,208.0000000000001 M 245.02301144450496,188.0000000000001 M 245.02301144450496,119.72613565215727 M 250.02301144450496,119.72613565215727 M 250.02301144450496,93.99999999999997 M 245.02301144450496,93.99999999999999 M 245.02301144450496,90.00000000000001 M 245.02301144450496,69.99999999999997 M 227.70250336881614,59.99999999999994 M 168.59792224834362,25.87595417975497 M 171.09792224834362,21.54582716083273 M 148.79611541307918,8.669872981077717 M 146.29611541307912,12.999999999999986 M 142.83201379794139,10.999999999999915 M 125.51150572225255,1.0 M 108.19099764656379,10.999999999999957 M 49.0639792285851,45.13699999999998 M 46.56397922858514,40.80687298107779 M 24.28460969082667,53.66987298107768 M 26.784609690826642,57.999999999999964 M 23.320508075688792,60.00000000000001 M 6.000000000000057,69.99999999999991 M 6.0,90.0 M 6.0,158.27399999999997 M 1.0,158.27399999999992 M 1.0,184.00000000000006 M 5.999999999999943,184.0000000000004 M 5.999999999999943,188.0 M 6.0,208.00000000000014 M 23.320508075688764,218.00000000000034 M 82.44752649366761,252.13699999999994 M 79.94752649366757,256.4671270189221 M 102.226896031426,269.33012701892227 M 104.72689603142598,265.00000000000006 M 108.19099764656372,267.00000000000006 M 125.51150572225255,277.00000000000006 M 142.83201379794127,267.00000000000006 M 201.9590322159199,232.86300000000006 M 204.45903221591993,237.19312701892227 M 226.7384017536784,224.3301270189222 M 224.23840175367837,220.0 M 227.70250336881617,218.0 M 213.5831540775405,210.27084017629628 M 198.86072209072063,218.77084003035407 M 197.36072172855444,216.1727631254874 M 137.5115057222526,250.72672409730023 M 137.5115057222526,219.3535106751798 M 203.0996872504194,181.48615641446878 M 230.26968707241394,197.1727631255755 M 212.08315359291265,207.6727631255274 M 201.09968707241293,93.04974207317206 M 228.26968707241292,77.36313525928992 M 228.26968707241292,98.36313525928995 M 231.269687088204,98.36313525928998 M 231.26968707241286,115.36313525928995 M 228.26968707241292,115.36313525928995 M 228.26968707241292,184.47105720340426 M 201.0996870724129,168.78445038952603 M 143.5679288689409,27.305851821301637 M 157.55423916273867,35.380851834395365 M 156.0542391627386,37.97892804574871 M 216.2696870724129,72.74433310577292 M 189.0996870724129,88.43093991965506 M 123.51150572225256,50.56358576148217 M 123.51150572225255,19.1903721337179 M 142.0679288916199,29.903928045748657 M 37.43985860823713,67.72916167245072 M 52.16228997684911,59.229160813815405 M 53.66228997684216,61.827237025172764 M 113.5115057222526,27.27327620398534 M 113.51150572225256,58.64648983170146 M 47.92332463302802,96.51384383898903 M 20.75332463304312,80.82723702511942 M 38.93985811248399,70.32723702513329 M 19.75332463298335,179.63686459008426 M 19.75332463298335,162.6368645900842 M 22.75332463298335,162.63686459008443 M 22.75332463298335,93.52894294725486 M 49.92332463298334,109.21554976113305 M 49.923324632983366,184.95025777620214 M 22.75332463298335,200.63686459008437 M 22.75332463298335,179.63686459008431 M 107.82497224277938,250.90770407726023 M 93.10254037844393,242.4077040772603 M 94.60254037844389,239.80962786590703 M 34.75332437241701,205.25566689403985 M 61.923324372417056,189.56906008015733 M 127.5115057222526,227.43641423814267 M 127.5115057222526,258.8096278659069 M 109.32497224277937,248.30962786590698 M 233.8544602400684,203.18599862310043 M 219.91328108209487,211.23494188576677 M 217.9132811337184,207.7708402408258 M 231.85446029169228,199.7218969781577 M 168.38293915065157,240.98599764740726 M 154.52653257088105,248.98599744091297 M 152.5265326225049,245.52189579597007 M 166.3829392022753,237.52189600246453 M 112.15509792881639,253.4077030068284 M 126.09627696684225,261.45664647725187 M 124.09627696684215,264.9207480923896 M 110.15509792881743,256.8718046219658 M 46.76834998019163,215.65664647725168 M 60.62475644074277,223.6566464772506 M 58.62475644074274,227.12074809238823 M 44.76834998019143,219.12074809238885 M 19.753325559881432,184.63686497800683 M 19.753325559880068,200.73475191885606 M 15.753325559880125,200.73475191885495 M 15.753325559882256,184.63686497800666 M 19.75332555989766,109.13475191885928 M 19.75332555989587,125.13475191885897 M 15.753325559895785,125.13475191885829 M 15.75332555989769,109.13475191885833 M 96.49648009830611,29.01400320421105 M 98.49648009830631,32.47810481934885 M 84.64007363775642,40.47810481935062 M 82.64007363775605,37.01400320421302 M 33.10973214968098,70.22916134892505 M 19.16855311165719,78.27810481935204 M 17.168553111656962,74.8140032042144 M 31.109732149680468,66.76505973378852 M 126.92673162718685,13.079250872987117 M 140.86791073547045,21.12819422171883 M 138.86791076570958,24.592295854314116 M 124.92673165742477,16.543352505582746 M 192.3982524832411,50.879250301489975 M 206.25465901362406,58.879250180537056 M 204.2546590438619,62.34335181313271 M 190.3982525134791,54.34335193408569 M 235.26968664360118,77.26524890481171 M 235.26968698283605,93.3631358456601 M 231.2696869828369,93.36313592995374 M 231.26968664360118,77.2652489891045 M 235.2696882367337,152.86524890480865 M 235.26968857390602,168.86524890480868 M 231.26968857390597,168.86524898910142 M 231.26968823673363,152.8652489891016 M 141.09996299037246,134.14359353944891 M 141.09996299037243,145.69059892325694 M 137.5115057222526,143.618802153533 M 137.51150572225265,145.92820323027541 M 137.5115057222526,150.07179676972459 M 127.5115057222526,155.8452994616208 M 127.5115057222526,151.7017059221717 M 125.51150572225268,152.85640646055109 M 121.92304845413275,154.92820323027556 M 111.92304845413254,149.15470053837922 M 115.51150572223827,147.082903768663 M 113.51150572225262,145.9282032302757 M 109.9230484541327,143.85640646055134 M 109.92304845413265,132.3094010767776 M 113.51150572225268,134.38119784650155 M 113.51150572225245,132.07179676972473 M 113.51150572225266,127.92820323027553 M 123.5115057222526,122.15470053837933 M 123.5115057222526,126.29829407782816 M 125.51150572225242,125.14359353944906 M 129.09996299037232,123.07179676972451 M 139.09996299037235,128.84529946162075 M 135.51150572223762,130.9170962313538 M 137.51150572225245,132.07179676972447 M 123.51150370521073,113.99999999948727 M 123.51150369331432,77.71100001772282 M 127.51150371315185,77.7110000177228 M 127.51150408586099,114.00000000461982 M 127.51150462152333,164.00000000006344 M 127.51150480589982,200.28922252134393 M 123.51150500254687,200.28922256892528 M 123.51150462152333,164.0000000425121 M 235.76968764130808,105.99711047498003 M 235.9767944224946,106.15602909757794 M 236.1357130450925,106.36313587876447 M 236.23561346759715,106.60431683366195 M 236.26968764130805,106.86313587876448 M 236.23561346759715,107.12195492386701 M 236.1357130450925,107.36313587876445 M 235.9767944224946,107.570242659951 M 235.76968764130808,107.72916128254893 M 235.52850668641057,107.82906170505356 M 235.26968764130805,107.8631358787645 M 235.01086859620557,107.82906170505356 M 234.76968764130805,107.72916128254892 M 234.5625808601215,107.57024265995105 M 234.40366223752363,107.36313587876447 M 234.303761815019,107.12195492386701 M 234.26968764130805,106.86313587876448 M 234.30376181501896,106.60431683366195 M 234.40366223752363,106.36313587876447 M 234.5625808601215,106.15602909757794 M 234.76968764130805,105.99711047498003 M 235.01086859620557,105.8972100524754 M 235.26968764130805,105.8631358787645 M 235.52850668641057,105.89721005247543 M 209.42107556514554,216.4761224093254 M 209.52097598765084,216.2349414544282 M 209.6798946102493,216.02783467324207 M 209.88700139143623,215.8689160506447 M 210.128182346334,215.76901562814072 M 210.38700139143663,215.7349414544305 M 210.64582043653903,215.7690156281421 M 210.88700139143629,215.8689160506474 M 211.09410817262236,216.02783467324582 M 211.2530267952197,216.23494145443283 M 211.35292721772373,216.47612240933057 M 211.38700139143393,216.73494145443317 M 211.3529272177223,216.9937604995356 M 211.25302679521704,217.23494145443283 M 211.09410817261858,217.44204823561893 M 210.8870013914316,217.60096685821628 M 210.64582043653388,217.70086728072027 M 210.38700139143126,217.7349414544305 M 210.1281823463288,217.70086728071885 M 209.88700139143162,217.60096685821355 M 209.67989461024547,217.44204823561512 M 209.52097598764817,217.23494145442817 M 209.4210755651442,216.99376049953042 M 209.38700139143393,216.73494145442783 M 206.05687437250774,218.23494145441896 M 206.21579299510617,218.0278346732328 M 206.42289977629315,217.86891605063545 M 206.6640807311909,217.76901562813146 M 206.92289977629352,217.73494145442118 M 207.18171882139592,217.76901562813282 M 207.42289977629312,217.86891605063812 M 207.63000655747925,218.02783467323655 M 207.7889251800766,218.2349414544235 M 207.88882560258057,218.4761224093213 M 207.92289977629082,218.7349414544239 M 207.88882560257923,218.99376049952633 M 207.78892518007393,219.2349414544235 M 207.63000655747547,219.4420482356096 M 207.42289977628855,219.60096685820696 M 207.18171882139077,219.700867280711 M 206.92289977628815,219.73494145442118 M 206.66408073118572,219.7008672807096 M 206.4228997762885,219.60096685820434 M 206.21579299510242,219.44204823560585 M 206.05687437250506,219.2349414544189 M 205.95697395000104,218.99376049952116 M 205.92289977629082,218.73494145441856 M 205.95697395000246,218.47612240931608 M 103.36086929475927,252.37180462196238 M 103.32679512104832,252.63062366706492 M 103.22689469854372,252.87180462196244 M 103.06797607594582,253.078911403149 M 102.86086929475928,253.23783002574686 M 102.61968833986178,253.33773044825153 M 102.36086929475924,253.37180462196233 M 102.10205024965673,253.33773044825142 M 101.86086929475924,253.2378300257468 M 101.65376251357274,253.078911403149 M 101.4948438909748,252.87180462196244 M 101.39494346847019,252.63062366706487 M 101.36086929475927,252.37180462196244 M 101.39494346847019,252.11298557685996 M 101.49484389097479,251.87180462196233 M 101.65376251357272,251.66469784077583 M 101.86086929475924,251.50577921817796 M 102.10205024965673,251.4058787956733 M 102.36086929475927,251.3718046219625 M 102.61968833986178,251.40587879567335 M 102.86086929475924,251.5057792181779 M 103.0679760759458,251.6646978407759 M 103.2268946985437,251.87180462196244 M 103.32679512104832,252.11298557685996 M 97.93084185333262,250.63062366706498 M 97.89676767962169,250.3718046219625 M 97.93084185333262,250.11298557685996 M 98.03074227583726,249.87180462196255 M 98.18966089843514,249.66469784077606 M 98.39676767962165,249.50577921817813 M 98.63794863451913,249.40587879567346 M 98.89676767962165,249.3718046219626 M 99.15558672472416,249.40587879567346 M 99.3967676796216,249.50577921817813 M 99.60387446080814,249.66469784077606 M 99.76279308340604,249.8718046219626 M 99.86269350591061,250.11298557685996 M 99.89676767962158,250.37180462196255 M 99.86269350591066,250.6306236670651 M 99.76279308340601,250.8718046219625 M 99.60387446080813,251.07891140314905 M 99.3967676796216,251.23783002574697 M 99.15558672472413,251.3377304482516 M 98.8967676796216,251.37180462196238 M 98.63794863451916,251.33773044825153 M 98.39676767962165,251.23783002574697 M 98.18966089843512,251.078911403149 M 98.03074227583723,250.8718046219625 M 96.29869146826819,247.87180462196255 M 96.3985918907728,248.11298557686 M 96.43266606448373,248.3718046219625 M 96.3985918907728,248.63062366706498 M 96.29869146826819,248.8718046219625 M 96.13977284567028,249.07891140314888 M 95.93266606448377,249.2378300257468 M 95.69148510958634,249.33773044825148 M 95.43266606448384,249.37180462196238 M 95.17384701938136,249.33773044825148 M 94.93266606448394,249.23783002574692 M 94.72555928329739,249.078911403149 M 94.56664066069955,248.87180462196244 M 94.46674023819492,248.63062366706504 M 94.432666064484,248.37180462196244 M 94.46674023819494,248.11298557686 M 94.56664066069955,247.87180462196255 M 94.72555928329743,247.66469784077606 M 94.93266606448395,247.50577921817813 M 95.1738470193814,247.40587879567357 M 95.43266606448391,247.37180462196278 M 95.69148510958638,247.40587879567357 M 95.93266606448383,247.50577921817825 M 96.13977284567036,247.66469784077617 M 15.753325559883336,176.63686497800677 M 16.01214460498582,176.67093915171787 M 16.253325559883308,176.77083957422255 M 16.46043234106989,176.92975819682025 M 16.61935096366767,177.13686497800694 M 16.71925138617229,177.37804593290457 M 16.753325559883194,177.63686497800683 M 16.719251386172175,177.8956840231096 M 16.61935096366753,178.13686497800688 M 16.460432341069662,178.34397175919355 M 16.253325559883024,178.5028903817914 M 16.012144604985593,178.6027908042962 M 15.753325559883052,178.636864978007 M 15.49450651478054,178.6027908042958 M 15.25332555988308,178.50289038179125 M 15.046218778696556,178.34397175919355 M 14.88730015609866,178.13686497800677 M 14.787399733594071,177.89568402310917 M 14.753325559883194,177.63686497800677 M 14.7873997335941,177.37804593290423 M 14.887300156098803,177.13686497800666 M 15.046218778696726,176.92975819682013 M 15.253325559883251,176.77083957422218 M 15.494506514780795,176.6709391517178 M 16.75332555988365,173.63686497800694 M 16.71925138617263,173.89568402310965 M 16.619350963667983,174.13686497800717 M 16.460432341070117,174.34397175919366 M 16.253325559883535,174.5028903817916 M 16.012144604986048,174.60279080429598 M 15.753325559883564,174.63686497800705 M 15.49450651478108,174.60279080429603 M 15.25332555988362,174.50289038179125 M 15.046218778697096,174.34397175919344 M 14.887300156099258,174.136864978007 M 14.78739973359464,173.89568402310942 M 14.753325559883734,173.63686497800688 M 14.787399733594754,173.37804593290446 M 14.8873001560994,173.13686497800688 M 15.046218778697266,172.92975819682053 M 15.253325559883848,172.7708395742224 M 15.494506514781335,172.67093915171802 M 15.75332555988382,172.63686497800722 M 16.012144604986275,172.67093915171813 M 16.253325559883763,172.77083957422258 M 16.460432341070288,172.9297581968208 M 16.619350963668126,173.13686497800722 M 16.719251386172743,173.37804593290466 M 16.61935096366861,169.13686497800742 M 16.71925138617317,169.3780459329048 M 16.753325559884104,169.63686497800722 M 16.719251386173084,169.8956840231096 M 16.61935096366844,170.13686497800694 M 16.460432341070543,170.34397175919366 M 16.25332555988402,170.50289038179147 M 16.01214460498653,170.6027908042958 M 15.753325559884047,170.63686497800694 M 15.494506514781563,170.60279080429603 M 15.25332555988416,170.50289038179125 M 15.046218778697636,170.3439717591933 M 14.887300156099798,170.13686497800677 M 14.787399733595208,169.8956840231092 M 14.753325559884331,169.63686497800688 M 14.787399733595294,169.3780459329044 M 14.88730015609994,169.13686497800705 M 15.046218778697863,168.92975819682027 M 15.253325559884445,168.77083957422252 M 15.494506514781875,168.67093915171804 M 15.75332555988436,168.63686497800745 M 16.012144604986844,168.6709391517181 M 16.253325559884303,168.77083957422275 M 16.46043234107077,168.92975819682076 M 16.012144604987412,164.67093915171804 M 16.253325559884843,164.77083957422258 M 16.46043234107131,164.92975819682056 M 16.61935096366915,165.1368649780074 M 16.719251386173767,165.37804593290457 M 16.753325559884644,165.6368649780071 M 16.71925138617371,165.89568402310965 M 16.619350963669064,166.13686497800714 M 16.46043234107114,166.3439717591935 M 16.25332555988456,166.50289038179147 M 16.012144604987128,166.60279080429615 M 15.753325559884587,166.63686497800694 M 15.49450651478216,166.60279080429592 M 15.2533255598847,166.50289038179142 M 15.046218778698176,166.3439717591934 M 14.88730015610031,166.13686497800683 M 14.787399733595748,165.89568402310925 M 14.753325559884814,165.63686497800694 M 14.787399733595834,165.37804593290434 M 14.88730015610048,165.13686497800688 M 15.046218778698346,164.92975819682036 M 15.2533255598849,164.7708395742226 M 15.494506514782387,164.67093915171813 M 15.753325559884871,164.6368649780071 M 34.57383376481795,64.76505973378818 M 34.4739333423133,64.52387877889072 M 34.43985916860228,64.26505973378818 M 34.4739333423133,64.00624068868551 M 34.57383376481786,63.765059733788135 M 34.73275238741573,63.55795295260158 M 34.939859168602254,63.39903433000366 M 35.18104012349971,63.299133907498984 M 35.439859168602254,63.265059733788 M 35.69867821370477,63.29913390749889 M 35.939859168602254,63.399034330003474 M 36.14696594978878,63.557952952601354 M 36.30588457238676,63.765059733787865 M 36.405784994891405,64.00624068868538 M 36.43985916860234,64.26505973378792 M 36.40578499489146,64.52387877889038 M 36.305884572386844,64.76505973378784 M 36.14696594978892,64.9721665149745 M 35.93985916860248,65.13108513757231 M 35.698678213704966,65.23098556007707 M 35.439859168602425,65.26505973378802 M 35.18104012349997,65.23098556007703 M 34.93985916860245,65.13108513757257 M 34.73275238741593,64.97216651497462 M 37.903960783739876,62.26505973378773 M 37.93803495745075,62.00624068868522 M 38.03793537995537,61.76505973378773 M 38.196854002553295,61.55795295260109 M 38.40396078373976,61.39903433000318 M 38.645141738637165,61.2991339074986 M 38.903960783739706,61.26505973378764 M 39.16277982884233,61.299133907498444 M 39.40396078373976,61.399034330003076 M 39.61106756492629,61.55795295260104 M 39.76998618752424,61.76505973378751 M 39.869886610028885,62.00624068868495 M 39.90396078373993,62.26505973378746 M 39.869886610028914,62.52387877888997 M 39.76998618752435,62.76505973378746 M 39.611067564926515,62.972166514974006 M 39.403960783739905,63.13108513757203 M 39.1627798288425,63.23098556007666 M 38.90396078373996,63.26505973378757 M 38.64514173863748,63.23098556007666 M 38.40396078373996,63.13108513757205 M 38.19685400255344,62.97216651497415 M 38.03793537995546,62.765059733787794 M 37.93803495745084,62.52387877889015 M 43.23408780266166,59.765059733787105 M 43.33398822516642,60.00624068868448 M 43.36806239887733,60.265059733787126 M 43.33398822516648,60.52387877888955 M 43.23408780266189,60.7650597337871 M 43.07516918006402,60.97216651497361 M 42.86806239887747,61.13108513757158 M 42.62688144398001,61.230985560076235 M 42.36806239887747,61.26505973378717 M 42.109243353774986,61.230985560076235 M 41.86806239887747,61.131085137571674 M 41.660955617690945,60.97216651497381 M 41.502036995092965,60.76505973378735 M 41.40213657258835,60.52387877888982 M 41.368062398877356,60.265059733787304 M 41.40213657258826,60.00624068868473 M 41.50203699509288,59.76505973378728 M 41.660955617690746,59.55795295260069 M 41.86806239887724,59.39903433000288 M 42.10924335377467,59.2991339074982 M 42.36806239887724,59.26505973378724 M 42.626881443979784,59.29913390749802 M 42.86806239887727,59.399034330002664 M 43.075169180063824,59.55795295260053 M 46.6981894177992,57.76505973378674 M 46.79808984030393,58.00624068868405 M 46.832164014014836,58.26505973378672 M 46.798089840304016,58.52387877888912 M 46.69818941779937,58.7650597337867 M 46.53927079520156,58.9721665149732 M 46.332164014015035,59.13108513757109 M 46.09098305911752,59.23098556007583 M 45.83216401401498,59.265059733786785 M 45.573344968912494,59.23098556007587 M 45.33216401401495,59.13108513757133 M 45.12505723282837,58.97216651497347 M 44.9661386102305,58.765059733786856 M 44.86623818772583,58.52387877888941 M 44.83216401401489,58.265059733786835 M 44.86623818772574,58.006240688684414 M 44.96613861023036,57.76505973378693 M 45.125057232828254,57.55795295260031 M 45.33216401401472,57.39903433000242 M 45.57334496891218,57.29913390749782 M 45.83216401401475,57.26505973378681 M 46.090983059117235,57.29913390749768 M 46.33216401401481,57.39903433000222 M 46.539270795201304,57.55795295260015 M 49.29626562915247,57.26505973378636 M 49.03744658404996,57.230985560075425 M 48.79626562915247,57.13108513757078 M 48.58915884796593,56.972166514973004 M 48.430240225368024,56.76505973378643 M 48.33033980286338,56.52387877888897 M 48.29626562915239,56.26505973378648 M 48.33033980286331,56.006240688683924 M 48.43024022536788,55.76505973378648 M 48.58915884796575,55.557952952599905 M 48.79626562915227,55.399034330002 M 49.03744658404969,55.29913390749735 M 49.29626562915227,55.26505973378632 M 49.55508467425483,55.299133907497236 M 49.79626562915227,55.39903433000195 M 50.00337241033887,55.557952952599656 M 50.162291032936736,55.76505973378627 M 50.262191455441425,56.00624068868374 M 50.29626562915236,56.265059733786295 M 50.262191455441496,56.523878778888744 M 50.16229103293685,56.765059733786316 M 50.00337241033901,56.972166514972784 M 49.79626562915247,57.13108513757075 M 49.555084674255056,57.23098556007527 M 144.33201268013403,23.128193650962658 M 144.1730940575362,23.335300432149168 M 143.9659872763497,23.494219054747006 M 143.7248063214523,23.59411947725161 M 143.4659872763499,23.62819365096253 M 143.2071682312474,23.594119477251596 M 142.96598727635,23.494219054746992 M 142.75888049516348,23.335300432149197 M 142.5999618725657,23.128193650962714 M 142.50006145006108,22.887012696065312 M 142.46598727635012,22.62819365096287 M 142.50006145006105,22.369374605860443 M 142.59996187256564,22.128193650963 M 142.75888049516354,21.921086869776502 M 142.96598727635,21.762168247178707 M 143.2071682312474,21.66226782467406 M 143.46598727634986,21.62819365096314 M 143.7248063214523,21.662267824674032 M 143.96598727634972,21.762168247178664 M 144.1730940575362,21.921086869776474 M 144.332012680134,22.128193650962984 M 144.4319131026386,22.36937460586043 M 144.4659872763495,22.62819365096287 M 144.43191310263862,22.887012696065284 M 145.93008889148774,24.62819365096282 M 145.96416306519873,24.36937460586033 M 146.06406348770332,24.128193650962928 M 146.22298211030122,23.92108686977636 M 146.43008889148769,23.762168247178565 M 146.67126984638512,23.662267824673933 M 146.93008889148757,23.628193650963 M 147.18890793659008,23.66226782467392 M 147.43008889148754,23.762168247178522 M 147.637195672674,23.92108686977643 M 147.79611429527185,24.128193650962956 M 147.8960147177765,24.3693746058603 M 147.93008889148737,24.628193650962842 M 147.89601471777644,24.887012696065284 M 147.79611429527188,25.12819365096268 M 147.63719567267395,25.335300432149253 M 147.43008889148746,25.49421905474712 M 147.18890793659008,25.594119477251674 M 146.93008889148757,25.628193650962636 M 146.6712698463851,25.594119477251702 M 146.43008889148769,25.49421905474712 M 146.2229821103012,25.335300432149232 M 146.06406348770335,25.12819365096273 M 145.9641630651987,24.887012696065305 M 151.2602159104096,27.12819365096277 M 151.10129728781178,27.335300432149253 M 150.89419050662528,27.49421905474707 M 150.65300955172782,27.594119477251695 M 150.3941905066253,27.628193650962608 M 150.13537146152288,27.594119477251716 M 149.89419050662542,27.49421905474705 M 149.68708372543898,27.335300432149204 M 149.5281651028411,27.12819365096268 M 149.42826468033644,26.887012696065284 M 149.39419050662553,26.628193650962814 M 149.42826468033647,26.369374605860372 M 149.52816510284114,26.128193650962906 M 149.68708372543892,25.921086869776424 M 149.8941905066255,25.762168247178515 M 150.13537146152285,25.662267824673933 M 150.39419050662536,25.628193650963 M 150.65300955172782,25.662267824673954 M 150.89419050662525,25.762168247178536 M 151.10129728781175,25.921086869776445 M 151.26021591040958,26.128193650962928 M 151.36011633291417,26.369374605860372 M 151.3941905066251,26.628193650962864 M 151.36011633291423,26.887012696065256 M 154.72431752554738,29.1281936509627 M 154.56539890294948,29.335300432149246 M 154.35829212176304,29.494219054747084 M 154.11711116686558,29.594119477251695 M 153.8582921217631,29.62819365096265 M 153.59947307666062,29.594119477251716 M 153.3582921217632,29.494219054747113 M 153.15118534057666,29.335300432149225 M 152.99226671797888,29.1281936509627 M 152.89236629547418,28.887012696065277 M 152.85829212176327,28.628193650962835 M 152.89236629547418,28.369374605860344 M 152.99226671797885,28.128193650962878 M 153.15118534057666,27.921086869776396 M 153.35829212176318,27.762168247178558 M 153.59947307666064,27.662267824673933 M 153.85829212176316,27.62819365096297 M 154.11711116686553,27.662267824673933 M 154.35829212176301,27.762168247178536 M 154.56539890294957,27.921086869776353 M 154.72431752554738,28.128193650962878 M 154.82421794805194,28.369374605860365 M 154.858292121763,28.628193650962814 M 154.82421794805197,28.887012696065277 M 156.35646791061208,30.887012696065227 M 156.32239373690112,30.628193650962807 M 156.35646791061205,30.369374605860344 M 156.45636833311667,30.1281936509629 M 156.61528695571454,29.921086869776417 M 156.82239373690103,29.7621682471786 M 157.06357469179846,29.662267824673975 M 157.3223937369009,29.628193650963105 M 157.58121278200335,29.662267824674018 M 157.8223937369008,29.7621682471786 M 158.02950051808727,29.92108686977644 M 158.18841914068508,30.12819365096299 M 158.2883195631897,30.369374605860365 M 158.32239373690058,30.62819365096285 M 158.28831956318965,30.887012696065298 M 158.18841914068503,31.128193650962714 M 158.02950051808722,31.335300432149175 M 157.82239373690075,31.494219054747013 M 157.5812127820033,31.594119477251617 M 157.32239373690084,31.628193650962537 M 157.06357469179838,31.594119477251596 M 156.822393736901,31.49421905474697 M 156.61528695571445,31.335300432149154 M 156.45636833311667,31.12819365096263 M 160.52767630693614,33.59411947725171 M 160.2864953520387,33.494219054747106 M 160.0793885708522,33.33530043214922 M 159.92046994825432,33.12819365096276 M 159.82056952574973,32.88701269606525 M 159.7864953520388,32.62819365096283 M 159.82056952574976,32.36937460586034 M 159.92046994825438,32.12819365096287 M 160.07938857085222,31.92108686977639 M 160.28649535203874,31.762168247178508 M 160.5276763069362,31.662267824673926 M 160.78649535203857,31.628193650963006 M 161.0453143971411,31.662267824673904 M 161.28649535203854,31.76216824717853 M 161.49360213322504,31.921086869776367 M 161.6525207558229,32.12819365096289 M 161.7524211783275,32.36937460586036 M 161.78649535203846,32.62819365096278 M 161.75242117832747,32.88701269606529 M 161.65252075582288,33.128193650962736 M 161.49360213322504,33.33530043214922 M 161.28649535203854,33.494219054747056 M 161.04531439714106,33.59411947725171 M 160.78649535203863,33.6281936509626 "
  />
</svg>
