<?xml version="1.0" standalone="no"?>
<!DOCTYPE svg PUBLIC "-//W3C//DTD SVG 1.1//EN" "http://www.w3.org/Graphics/SVG/1.1/DTD/svg11.dtd">
<svg width="179.70000000407128mm" height="140.0000000000003mm"
 viewBox="0 0 179.70000000407128 140.0000000000003"
 xmlns="http://www.w3.org/2000/svg" version="1.1"
 xmlns:xlink="http://www.w3.org/1999/xlink">
<desc>Output from Flights of Ideas SVG Sketchup Plugin</desc>

  <path id="face0-cut"
 style="fill:none;stroke:#FF0000;stroke-width:0.1;stroke-miterlimit:4;stroke-dasharray:none;stroke-linejoin:round;stroke-linecap:round"
        d="M 1.0,1.0 L 1.0000000000399893,20.999999842310253 L 19.000000000043997,20.999999842310245 L 19.261052384484117,21.017110119562638 L 19.517638090249022,21.068148189732135 L 19.765366864774194,21.152240777287673 L 20.000000000044025,21.26794903474137 L 20.21752285806147,21.413293161727815 L 20.414213562417103,21.58578627993718 L 20.58670668062649,21.782476984292842 L 20.732050807612893,21.999999842310253 L 20.84775906506661,22.234632977580077 L 20.931851652622186,22.482361752105255 L 20.98288972279167,22.73894745787019 L 21.000000000044025,22.999999842310274 L 21.000000000231864,116.99999998225238 L 20.982889723191875,117.26105236685395 L 20.93185165319295,117.51763807280297 L 20.847759065764194,117.76536684752666 L 20.732050808393012,117.99999998300126 L 20.586706681445605,118.21752284122188 L 20.414213563233858,118.41421354577132 L 20.217522858837867,118.5867066641581 L 20.000000000746525,118.7320507912989 L 19.765366865374773,118.84775904887877 L 19.517638090725853,118.93185163652791 L 19.26105238482225,118.982889706755 L 19.00000000023587,118.99999998402714 L 1.0000000002359286,118.99999998402721 L 1.0000000002758611,139.0000000000003 L 178.70000000407123,138.9999998423095 L 178.70000000407128,1.0 L 1.0,1.0 M 167.51865335201865,130.0499998541788 L 167.18492424456304,130.4849240946704 L 166.75000000407135,130.81865320212614 L 166.2435199987866,131.0284440893858 L 165.70000000407128,131.09999985417875 L 165.15648000935602,131.0284440893858 L 164.65000000407127,130.81865320212611 L 164.21507576357948,130.4849240946705 L 163.88134665612398,130.04999985417876 L 163.67155576886427,129.54351984889402 L 163.60000000407132,128.99999985417875 L 163.67155576886427,128.4564798594636 L 163.88134665612398,127.94999985417877 L 164.21507576357953,127.51507561368703 L 164.65000000407127,127.18134650623148 L 165.15648000935602,126.97155561897185 L 165.70000000407128,126.89999985417884 L 166.2435199987866,126.97155561897173 L 166.7500000040713,127.1813465062315 L 167.18492424456304,127.51507561368703 L 167.51865335201865,127.94999985417886 L 167.72844423927836,128.45647985946354 L 167.8000000040713,128.99999985417878 L 167.72844423927836,129.5435198488941 L 167.51865335201865,130.0499998541788 M 163.67155576886432,10.45647985946409 L 163.88134665612404,9.949999854179293 L 164.2150757635796,9.515075613687445 L 164.6500000040714,9.181346506232067 L 165.15648000935602,8.971555618972328 L 165.70000000407134,8.899999854179555 L 166.2435199987866,8.971555618972436 L 166.75000000407135,9.181346506232462 L 167.18492424456304,9.515075613687753 L 167.5186533520187,9.949999854179346 L 167.72844423927842,10.456479859463792 L 167.8000000040713,10.999999854179643 L 167.72844423927842,11.543519848894945 L 167.5186533520187,12.049999854179216 L 167.1849242445631,12.484924094671289 L 166.75000000407135,12.818653202126498 L 166.2435199987866,13.02844408938674 L 165.70000000407134,13.099999854179346 L 165.15648000935602,13.028444089386717 L 164.6500000040714,12.818653202126612 L 164.2150757635796,12.484924094671255 L 163.88134665612404,12.049999854179537 L 163.67155576886432,11.543519848894567 L 163.60000000407132,10.99999985417952 L 163.67155576886432,10.45647985946409 M 24.028444235480976,128.45647999066657 L 24.100000000273923,128.9999999853818 L 24.028444235480976,129.54351998009713 L 23.81865334822126,130.04999998538173 L 23.48492424076568,130.48492422587358 L 23.05000000027394,130.81865333332908 L 22.543519994989225,131.02844422058882 L 22.000000000273957,131.09999998538183 L 21.45648000555863,131.0284442205888 L 20.950000000273945,130.8186533333291 L 20.515075759782206,130.48492422587356 L 20.181346652326624,130.04999998538182 L 19.97155576506688,129.54351998009705 L 19.900000000273906,128.99999998538178 L 19.97155576506688,128.45647999066654 L 20.181346652326624,127.94999998538177 L 20.515075759782206,127.51507574488997 L 20.950000000273917,127.18134663743447 L 21.45648000555863,126.97155575017473 L 22.00000000027393,126.89999998538178 L 22.543519994989225,126.97155575017479 L 23.05000000027394,127.18134663743447 L 23.48492424076568,127.51507574489005 L 23.81865334822126,127.94999998538174 L 24.028444235480976,128.45647999066657 M 24.100000000273923,10.999999913743219 L 24.028444235480976,11.54351990845848 L 23.81865334822126,12.049999913743216 L 23.48492424076568,12.484924154234967 L 23.05000000027391,12.8186532616905 L 22.543519994989225,13.02844414895024 L 22.00000000027393,13.099999913743199 L 21.45648000555866,13.028444148950252 L 20.950000000273945,12.818653261690539 L 20.515075759782206,12.484924154234948 L 20.181346652326624,12.049999913743203 L 19.97155576506688,11.543519908458514 L 19.900000000273934,10.999999913743226 L 19.97155576506688,10.456479919027915 L 20.181346652326624,9.949999913743195 L 20.515075759782206,9.515075673251461 L 20.950000000273917,9.181346565795895 L 21.45648000555863,8.97155567853618 L 22.00000000027393,8.899999913743159 L 22.543519994989225,8.97155567853621 L 23.05000000027391,9.18134656579587 L 23.48492424076568,9.515075673251427 L 23.81865334822126,9.949999913743193 L 24.028444235480976,10.456479919027915 L 24.100000000273923,10.999999913743219 M 158.70000000407515,89.27399984231421 L 158.70000000407515,114.99999984231431 L 154.70000000004734,114.99999984231427 L 154.70000000004734,89.27399984231424 L 158.70000000407515,89.27399984231421 "
  />
  <path id="face0-interior"
 style="fill:none;stroke:#FF0000;stroke-width:0.1;stroke-miterlimit:4;stroke-dasharray:none;stroke-linejoin:round;stroke-linecap:round"
        d="M 1.0,1.0 M 1.0000000000399893,20.999999842310253 M 19.000000000043997,20.999999842310245 M 19.261052384484117,21.017110119562638 M 19.517638090249022,21.068148189732135 M 19.765366864774194,21.152240777287673 M 20.000000000044025,21.26794903474137 M 20.21752285806147,21.413293161727815 M 20.414213562417103,21.58578627993718 M 20.58670668062649,21.782476984292842 M 20.732050807612893,21.999999842310253 M 20.84775906506661,22.234632977580077 M 20.931851652622186,22.482361752105255 M 20.98288972279167,22.73894745787019 M 21.000000000044025,22.999999842310274 M 21.000000000231864,116.99999998225238 M 20.982889723191875,117.26105236685395 M 20.93185165319295,117.51763807280297 M 20.847759065764194,117.76536684752666 M 20.732050808393012,117.99999998300126 M 20.586706681445605,118.21752284122188 M 20.414213563233858,118.41421354577132 M 20.217522858837867,118.5867066641581 M 20.000000000746525,118.7320507912989 M 19.765366865374773,118.84775904887877 M 19.517638090725853,118.93185163652791 M 19.26105238482225,118.982889706755 M 19.00000000023587,118.99999998402714 M 1.0000000002359286,118.99999998402721 M 1.0000000002758611,139.0000000000003 M 178.70000000407123,138.9999998423095 M 178.70000000407128,1.0 M 167.51865335201865,130.0499998541788 M 167.18492424456304,130.4849240946704 M 166.75000000407135,130.81865320212614 M 166.2435199987866,131.0284440893858 M 165.70000000407128,131.09999985417875 M 165.15648000935602,131.0284440893858 M 164.65000000407127,130.81865320212611 M 164.21507576357948,130.4849240946705 M 163.88134665612398,130.04999985417876 M 163.67155576886427,129.54351984889402 M 163.60000000407132,128.99999985417875 M 163.67155576886427,128.4564798594636 M 163.88134665612398,127.94999985417877 M 164.21507576357953,127.51507561368703 M 164.65000000407127,127.18134650623148 M 165.15648000935602,126.97155561897185 M 165.70000000407128,126.89999985417884 M 166.2435199987866,126.97155561897173 M 166.7500000040713,127.1813465062315 M 167.18492424456304,127.51507561368703 M 167.51865335201865,127.94999985417886 M 167.72844423927836,128.45647985946354 M 167.8000000040713,128.99999985417878 M 167.72844423927836,129.5435198488941 M 163.67155576886432,10.45647985946409 M 163.88134665612404,9.949999854179293 M 164.2150757635796,9.515075613687445 M 164.6500000040714,9.181346506232067 M 165.15648000935602,8.971555618972328 M 165.70000000407134,8.899999854179555 M 166.2435199987866,8.971555618972436 M 166.75000000407135,9.181346506232462 M 167.18492424456304,9.515075613687753 M 167.5186533520187,9.949999854179346 M 167.72844423927842,10.456479859463792 M 167.8000000040713,10.999999854179643 M 167.72844423927842,11.543519848894945 M 167.5186533520187,12.049999854179216 M 167.1849242445631,12.484924094671289 M 166.75000000407135,12.818653202126498 M 166.2435199987866,13.02844408938674 M 165.70000000407134,13.099999854179346 M 165.15648000935602,13.028444089386717 M 164.6500000040714,12.818653202126612 M 164.2150757635796,12.484924094671255 M 163.88134665612404,12.049999854179537 M 163.67155576886432,11.543519848894567 M 163.60000000407132,10.99999985417952 M 24.028444235480976,128.45647999066657 M 24.100000000273923,128.9999999853818 M 24.028444235480976,129.54351998009713 M 23.81865334822126,130.04999998538173 M 23.48492424076568,130.48492422587358 M 23.05000000027394,130.81865333332908 M 22.543519994989225,131.02844422058882 M 22.000000000273957,131.09999998538183 M 21.45648000555863,131.0284442205888 M 20.950000000273945,130.8186533333291 M 20.515075759782206,130.48492422587356 M 20.181346652326624,130.04999998538182 M 19.97155576506688,129.54351998009705 M 19.900000000273906,128.99999998538178 M 19.97155576506688,128.45647999066654 M 20.181346652326624,127.94999998538177 M 20.515075759782206,127.51507574488997 M 20.950000000273917,127.18134663743447 M 21.45648000555863,126.97155575017473 M 22.00000000027393,126.89999998538178 M 22.543519994989225,126.97155575017479 M 23.05000000027394,127.18134663743447 M 23.48492424076568,127.51507574489005 M 23.81865334822126,127.94999998538174 M 24.100000000273923,10.999999913743219 M 24.028444235480976,11.54351990845848 M 23.81865334822126,12.049999913743216 M 23.48492424076568,12.484924154234967 M 23.05000000027391,12.8186532616905 M 22.543519994989225,13.02844414895024 M 22.00000000027393,13.099999913743199 M 21.45648000555866,13.028444148950252 M 20.950000000273945,12.818653261690539 M 20.515075759782206,12.484924154234948 M 20.181346652326624,12.049999913743203 M 19.97155576506688,11.543519908458514 M 19.900000000273934,10.999999913743226 M 19.97155576506688,10.456479919027915 M 20.181346652326624,9.949999913743195 M 20.515075759782206,9.515075673251461 M 20.950000000273917,9.181346565795895 M 21.45648000555863,8.97155567853618 M 22.00000000027393,8.899999913743159 M 22.543519994989225,8.97155567853621 M 23.05000000027391,9.18134656579587 M 23.48492424076568,9.515075673251427 M 23.81865334822126,9.949999913743193 M 24.028444235480976,10.456479919027915 M 158.70000000407515,89.27399984231421 M 158.70000000407515,114.99999984231431 M 154.70000000004734,114.99999984231427 M 154.70000000004734,89.27399984231424 "
  />
  <path id="face0-interior"
 style="fill:none;stroke:#FF0000;stroke-width:0.1;stroke-miterlimit:4;stroke-dasharray:none;stroke-linejoin:round;stroke-linecap:round"
        d="M 1.0,1.0 M 1.0000000000399893,20.999999842310253 M 19.000000000043997,20.999999842310245 M 19.261052384484117,21.017110119562638 M 19.517638090249022,21.068148189732135 M 19.765366864774194,21.152240777287673 M 20.000000000044025,21.26794903474137 M 20.21752285806147,21.413293161727815 M 20.414213562417103,21.58578627993718 M 20.58670668062649,21.782476984292842 M 20.732050807612893,21.999999842310253 M 20.84775906506661,22.234632977580077 M 20.931851652622186,22.482361752105255 M 20.98288972279167,22.73894745787019 M 21.000000000044025,22.999999842310274 M 21.000000000231864,116.99999998225238 M 20.982889723191875,117.26105236685395 M 20.93185165319295,117.51763807280297 M 20.847759065764194,117.76536684752666 M 20.732050808393012,117.99999998300126 M 20.586706681445605,118.21752284122188 M 20.414213563233858,118.41421354577132 M 20.217522858837867,118.5867066641581 M 20.000000000746525,118.7320507912989 M 19.765366865374773,118.84775904887877 M 19.517638090725853,118.93185163652791 M 19.26105238482225,118.982889706755 M 19.00000000023587,118.99999998402714 M 1.0000000002359286,118.99999998402721 M 1.0000000002758611,139.0000000000003 M 178.70000000407123,138.9999998423095 M 178.70000000407128,1.0 M 167.51865335201865,130.0499998541788 M 167.18492424456304,130.4849240946704 M 166.75000000407135,130.81865320212614 M 166.2435199987866,131.0284440893858 M 165.70000000407128,131.09999985417875 M 165.15648000935602,131.0284440893858 M 164.65000000407127,130.81865320212611 M 164.21507576357948,130.4849240946705 M 163.88134665612398,130.04999985417876 M 163.67155576886427,129.54351984889402 M 163.60000000407132,128.99999985417875 M 163.67155576886427,128.4564798594636 M 163.88134665612398,127.94999985417877 M 164.21507576357953,127.51507561368703 M 164.65000000407127,127.18134650623148 M 165.15648000935602,126.97155561897185 M 165.70000000407128,126.89999985417884 M 166.2435199987866,126.97155561897173 M 166.7500000040713,127.1813465062315 M 167.18492424456304,127.51507561368703 M 167.51865335201865,127.94999985417886 M 167.72844423927836,128.45647985946354 M 167.8000000040713,128.99999985417878 M 167.72844423927836,129.5435198488941 M 163.67155576886432,10.45647985946409 M 163.88134665612404,9.949999854179293 M 164.2150757635796,9.515075613687445 M 164.6500000040714,9.181346506232067 M 165.15648000935602,8.971555618972328 M 165.70000000407134,8.899999854179555 M 166.2435199987866,8.971555618972436 M 166.75000000407135,9.181346506232462 M 167.18492424456304,9.515075613687753 M 167.5186533520187,9.949999854179346 M 167.72844423927842,10.456479859463792 M 167.8000000040713,10.999999854179643 M 167.72844423927842,11.543519848894945 M 167.5186533520187,12.049999854179216 M 167.1849242445631,12.484924094671289 M 166.75000000407135,12.818653202126498 M 166.2435199987866,13.02844408938674 M 165.70000000407134,13.099999854179346 M 165.15648000935602,13.028444089386717 M 164.6500000040714,12.818653202126612 M 164.2150757635796,12.484924094671255 M 163.88134665612404,12.049999854179537 M 163.67155576886432,11.543519848894567 M 163.60000000407132,10.99999985417952 M 24.028444235480976,128.45647999066657 M 24.100000000273923,128.9999999853818 M 24.028444235480976,129.54351998009713 M 23.81865334822126,130.04999998538173 M 23.48492424076568,130.48492422587358 M 23.05000000027394,130.81865333332908 M 22.543519994989225,131.02844422058882 M 22.000000000273957,131.09999998538183 M 21.45648000555863,131.0284442205888 M 20.950000000273945,130.8186533333291 M 20.515075759782206,130.48492422587356 M 20.181346652326624,130.04999998538182 M 19.97155576506688,129.54351998009705 M 19.900000000273906,128.99999998538178 M 19.97155576506688,128.45647999066654 M 20.181346652326624,127.94999998538177 M 20.515075759782206,127.51507574488997 M 20.950000000273917,127.18134663743447 M 21.45648000555863,126.97155575017473 M 22.00000000027393,126.89999998538178 M 22.543519994989225,126.97155575017479 M 23.05000000027394,127.18134663743447 M 23.48492424076568,127.51507574489005 M 23.81865334822126,127.94999998538174 M 24.100000000273923,10.999999913743219 M 24.028444235480976,11.54351990845848 M 23.81865334822126,12.049999913743216 M 23.48492424076568,12.484924154234967 M 23.05000000027391,12.8186532616905 M 22.543519994989225,13.02844414895024 M 22.00000000027393,13.099999913743199 M 21.45648000555866,13.028444148950252 M 20.950000000273945,12.818653261690539 M 20.515075759782206,12.484924154234948 M 20.181346652326624,12.049999913743203 M 19.97155576506688,11.543519908458514 M 19.900000000273934,10.999999913743226 M 19.97155576506688,10.456479919027915 M 20.181346652326624,9.949999913743195 M 20.515075759782206,9.515075673251461 M 20.950000000273917,9.181346565795895 M 21.45648000555863,8.97155567853618 M 22.00000000027393,8.899999913743159 M 22.543519994989225,8.97155567853621 M 23.05000000027391,9.18134656579587 M 23.48492424076568,9.515075673251427 M 23.81865334822126,9.949999913743193 M 24.028444235480976,10.456479919027915 M 158.70000000407515,89.27399984231421 M 158.70000000407515,114.99999984231431 M 154.70000000004734,114.99999984231427 M 154.70000000004734,89.27399984231424 "
  />
</svg>
