<?xml version="1.0" standalone="no"?>
<!DOCTYPE svg PUBLIC "-//W3C//DTD SVG 1.1//EN" "http://www.w3.org/Graphics/SVG/1.1/DTD/svg11.dtd">
<svg width="134.70000000416607mm" height="134.57822251873012mm"
 viewBox="0 0 134.70000000416607 134.57822251873012"
 xmlns="http://www.w3.org/2000/svg" version="1.1"
 xmlns:xlink="http://www.w3.org/1999/xlink">
<desc>Output from Flights of Ideas SVG Sketchup Plugin</desc>

  <path id="face0-cut"
 style="fill:none;stroke:#FF0000;stroke-width:0.1;stroke-miterlimit:4;stroke-dasharray:none;stroke-linejoin:round;stroke-linecap:round"
        d="M 129.70000173827134,47.28899999743368 L 129.70000182495318,42.289000000823464 L 133.70000000377843,42.28899999948712 L 133.70000000037516,6.000000017722648 L 129.70000179302008,6.000000016268984 L 129.70000180153735,1.0000000006015881 L 5.000001823866484,1.0 L 5.000001823842098,6.000000000000057 L 1.0000000000966054,5.999999999980645 L 1.0,25.99999999731035 L 5.000001823740007,25.999999997330345 L 5.000001823866796,57.289000000000044 L 1.0000018238667394,57.28899999904142 L 1.0000018218341324,77.28900000417745 L 5.000001821834104,77.28900000513576 L 5.00000182336791,108.5782225156785 L 1.0000000040436703,108.57822251565716 L 1.0000000039468375,128.57822251833713 L 5.0000018232738626,128.57822251835674 L 5.000001823248425,133.57822251835677 L 129.70000184854374,133.57822251873012 L 129.70000167684643,128.57822257033857 L 133.70000000039778,128.5782225689251 L 133.70000000416607,92.28900004251197 L 129.7000016713584,92.2889999817296 L 129.70000168775817,87.28899999743365 L 104.70000168775833,87.28899996586289 L 104.7000017382712,47.288999997433685 L 129.70000173827134,47.28899999743368 M 27.3277586374481,6.789112025434761 L 27.597920295866174,6.437030497418924 L 27.95000182388445,6.166868839004195 L 28.36000944721114,5.997038120748314 L 28.80000182388565,5.939112025441972 L 29.23999420055965,5.99703812075262 L 29.65000182388438,6.16686883901243 L 30.002083351900353,6.437030497430577 L 30.27224501031509,6.789112025448944 L 30.442075728570956,7.199119648775493 L 30.500001823877597,7.639112025450046 L 30.442075728566692,8.079104402124017 L 30.272245010306875,8.489112025448897 L 30.002083351888757,8.841193553464734 L 29.65000182387034,9.111355211879413 L 29.239994200543805,9.281185930135315 L 28.80000182386928,9.339112025441814 L 28.36000944719528,9.281185930131038 L 27.95000182387041,9.111355211871249 L 27.59792029585458,8.841193553453174 L 27.327758637439885,8.489112025434686 L 27.157927919184004,8.0791044021081 L 27.100001823877733,7.639112025433612 L 27.157927919188253,7.1991196487595985 L 27.3277586374481,6.789112025434761 M 66.56000944721191,5.997038120932444 L 67.00000182388652,5.9391120256261445 L 67.4399942005605,5.997038120937084 L 67.8500018238853,6.1668688391971145 L 68.20208335190102,6.437030497615353 L 68.47224501031556,6.789112025633919 L 68.64207572857126,7.1991196489605755 L 68.70000182387753,7.639112025635136 L 68.64207572856661,8.079104402309135 L 68.47224501030655,8.489112025633965 L 68.20208335188829,8.841193553649653 L 67.85000182386972,9.111355212064176 L 67.43999420054311,9.281185930319879 L 67.00000182386853,9.339112025626143 L 66.56000944719453,9.281185930315225 L 66.15000182386973,9.111355212055223 L 65.79792029585403,8.841193553636906 L 65.52775863743949,8.489112025618319 L 65.35792791918377,8.079104402291762 L 65.30000182387754,7.6391120256171945 L 65.35792791918843,7.199119648943189 L 65.52775863744847,6.7891120256183655 L 65.79792029586675,6.437030497602642 L 66.1500018238853,6.166868839188162 L 66.56000944721191,5.997038120932444 M 41.750001823728155,35.961355211937885 L 41.33999420040182,36.13118593019369 L 40.90000182372711,36.18911202550021 L 40.46000944705331,36.13118593018952 L 40.050001823728266,35.961355211929614 L 39.697920295712464,35.691193553511575 L 39.42775863729757,35.33911202549305 L 39.25792791904189,34.92910440216659 L 39.200001823735434,34.48911202549215 L 39.25792791904594,34.049119648818156 L 39.42775863730597,33.63911202549326 L 39.69792029572389,33.287030497477375 L 40.050001823742505,33.01686883906273 L 40.460009447069154,32.84703812080693 L 40.90000182374337,32.7891120255004 L 41.33999420041769,32.847038120811106 L 41.750001823742366,33.01686883907102 L 42.102083351757955,33.28703049748911 L 42.372245010172875,33.63911202550753 L 42.54207572842857,34.04911964883387 L 42.6000018237352,34.48911202550854 L 42.54207572842451,34.929104402182425 L 42.37224501016448,35.33911202550737 L 42.10208335174657,35.69119355352317 L 41.750001823728155,35.961355211937885 M 63.200001823735334,34.489112025607746 L 63.14207572842463,34.929104402281816 L 62.97224501016477,35.339112025606745 L 62.70208335174668,35.69119355362251 L 62.350001823728235,35.961355212037226 L 61.93999420040171,36.13118593029314 L 61.500001823727146,36.18911202559956 L 61.06000944705313,36.131185930288886 L 60.650001823728246,35.961355212029005 L 60.2979202957124,35.691193553610944 L 60.027758637297524,35.33911202559242 L 59.8579279190418,34.92910440226603 L 59.80000182373534,34.489112025591425 L 59.85792791904588,34.04911964891748 L 60.02775863730591,33.63911202559247 L 60.29792029572384,33.28703049757667 L 60.65000182374246,33.0168688391619 L 61.06000944706899,32.84703812090608 L 61.50000182374353,32.789112025599636 L 61.939994200417544,32.847038120910355 L 62.35000182374243,33.01686883917022 L 62.702083351758276,33.28703049758825 L 62.972245010173,33.63911202560669 L 63.14207572842888,34.04911964893327 L 63.200001823735334,34.489112025607746 M 41.750001823380885,101.56135521193781 L 41.33999420005415,101.73118593019369 L 40.9000018233796,101.7891120255002 L 40.4600094467056,101.73118593018941 L 40.05000182338091,101.5613552119296 L 39.69792029536525,101.29119355351148 L 39.42775863695036,100.93911202549303 L 39.25792791869465,100.5291044021665 L 39.20000182338801,100.08911202549194 L 39.2579279186987,99.64911964881794 L 39.42775863695839,99.23911202549306 L 39.69792029537669,98.8870304974773 L 40.050001823395306,98.61686883906253 L 40.46000944672146,98.44703812080664 L 40.90000182339624,98.38911202550022 L 41.33999420007005,98.44703812081087 L 41.75000182339528,98.61686883907069 L 42.102083351410926,98.88703049748885 L 42.37224500982545,99.23911202550724 L 42.5420757280815,99.64911964883379 L 42.600001823388,100.0891120255084 L 42.54207572807745,100.52910440218238 L 42.37224500981742,100.93911202550728 L 42.102083351399486,101.29119355352304 L 41.750001823380885,101.56135521193781 M 30.50000182324584,126.93911202545002 L 30.44207572793512,127.37910440212403 L 30.272245009675274,127.7891120254489 L 30.002083351257156,128.14119355346472 L 29.65000182323854,128.41135521187945 L 29.239994199912203,128.58118593013535 L 28.800001823237608,128.63911202544176 L 28.36000944656361,128.58118593013106 L 27.950001823238523,128.41135521187124 L 27.59792029522295,128.1411935534531 L 27.32775863680817,127.78911202543466 L 27.157927918552332,127.37910440210817 L 27.100001823245833,126.93911202543356 L 27.15792791855675,126.4991196487596 L 27.327758636816426,126.08911202543464 L 27.597920295234672,125.73703049741883 L 27.950001823252904,125.46686883900412 L 28.36000944657944,125.29703812074825 L 28.80000182325402,125.23911202544176 L 29.23999419992802,125.29703812075252 L 29.650001823252936,125.46686883901236 L 30.002083351268908,125.73703049743045 L 30.27224500968346,126.08911202544888 L 30.44207572793951,126.4991196487754 L 30.50000182324584,126.93911202545002 M 50.87224500967547,127.78911202554835 L 50.60208335125715,128.14119355356414 L 50.25000182323855,128.41135521197884 L 49.83999419991217,128.58118593023468 L 49.40000182323763,128.63911202554124 L 48.96000944656362,128.5811859302305 L 48.550001823238574,128.41135521197066 L 48.19792029522293,128.1411935535526 L 47.927758636808406,127.78911202553414 L 47.7579279185523,127.37910440220759 L 47.70000182324567,126.93911202553298 L 47.75792791855672,126.49911964885902 L 47.92775863681638,126.08911202553412 L 48.19792029523467,125.7370304975183 L 48.550001823252956,125.46686883910357 L 48.96000944657948,125.2970381208477 L 49.40000182325423,125.23911202554123 L 49.83999419992806,125.29703812085197 L 50.25000182325296,125.46686883911178 L 50.60208335126893,125.7370304975299 L 50.872245009683496,126.08911202554833 L 51.04207572793956,126.49911964887491 L 51.10000182324565,126.9391120255494 L 51.04207572793513,127.37910440222345 L 50.87224500967547,127.78911202554835 M 60.650001823380904,101.56135521202906 L 60.29792029536526,101.29119355361092 L 60.027758636950395,100.93911202559255 L 59.857927918694685,100.529104402266 L 59.800001823388016,100.08911202559139 L 59.85792791869875,99.64911964891742 L 60.02775863695841,99.2391120255925 L 60.297920295376684,98.8870304975767 L 60.65000182339533,98.61686883916195 L 61.06000944672165,98.44703812090609 L 61.50000182339623,98.38911202559963 L 61.93999420007023,98.44703812091035 L 62.35000182339513,98.61686883917022 L 62.702083351410934,98.88703049758831 L 62.972245009825656,99.23911202560672 L 63.14207572808154,99.64911964893327 L 63.20000182338801,100.08911202560779 L 63.1420757280773,100.52910440228183 L 62.972245009817456,100.93911202560676 L 62.702083351399324,101.29119355362252 L 62.35000182338092,101.56135521203726 L 61.939994200054386,101.73118593029315 L 61.50000182337982,101.78911202559965 L 61.06000944670579,101.73118593028887 L 60.650001823380904,101.56135521202906 M 77.35548304652258,23.694889514293322 L 77.41000172446213,24.108999986457086 L 77.35548304652679,24.523110458621392 L 77.19564237052136,24.908999986458145 L 76.94137257436645,25.240370836357936 L 76.61000172446936,25.49464063251631 L 76.22411219663415,25.65448130852568 L 75.8100017244704,25.70899998646534 L 75.3958912523061,25.654481308529935 L 75.0100017244693,25.49464063252456 L 74.6786308745695,25.240370836369664 L 74.4243610784112,24.90899998647247 L 74.26452040240177,24.52311045863734 L 74.21000172446215,24.108999986473584 L 74.26452040239751,23.694889514309246 L 74.42436107840292,23.308999986472482 L 74.67863087455783,22.977629136572705 L 75.01000172445498,22.72335934041439 L 75.39589125229013,22.56351866440495 L 75.8100017244539,22.508999986465312 L 76.2241121966182,22.563518664400714 L 76.61000172445497,22.72335934040613 L 76.94137257435476,22.977629136561035 L 77.19564237051317,23.308999986458158 L 77.35548304652258,23.694889514293322 M 94.97564237052137,24.90899998636639 L 94.72137257436648,25.240370836266145 L 94.39000172446939,25.494640632424495 L 94.00411219663417,25.654481308433887 L 93.59000172447033,25.70899998637349 L 93.17589125230612,25.65448130843818 L 92.79000172446939,25.494640632432752 L 92.45863087456954,25.240370836277812 L 92.20436107841121,24.908999986380667 L 92.04452040240179,24.523110458545563 L 91.99000172446216,24.10899998638178 L 92.0445204023976,23.69488951421748 L 92.20436107840302,23.30899998638067 L 92.45863087455785,22.977629136480882 L 92.79000172445501,22.723359340322578 L 93.17589125229021,22.563518664313175 L 93.59000172445381,22.50899998637354 L 94.00411219661828,22.56351866430889 L 94.39000172445499,22.723359340314335 L 94.72137257435477,22.9776291364692 L 94.97564237051319,23.30899998636639 L 95.13548304652261,23.694889514201506 L 95.19000172446214,24.10899998636528 L 95.13548304652679,24.52311045852958 L 94.97564237052137,24.90899998636639 M 92.79000166847493,68.44335933930816 L 93.17589119651268,68.28351866378807 L 93.59000166874563,68.22899998637355 L 94.00411214084073,68.28351866483396 L 94.39000166847492,68.44335934132869 L 94.72137251805236,68.69762913790379 L 94.97564231379037,69.02899998812339 L 95.13548298931062,69.41488951616118 L 95.19000166672512,69.828999988394 L 95.13548298826463,70.24311046048926 L 94.97564231176989,70.62899998812335 L 94.72137251519487,70.96037083770075 L 94.3900016649753,71.2146406334389 L 94.00411213693742,71.37448130895899 L 93.59000166470454,71.42899998637353 L 93.17589119260934,71.37448130791307 L 92.79000166497532,71.21464063141836 L 92.45863081539795,70.96037083484327 L 92.2043610196597,70.62899998462366 L 92.04452034413963,70.24311045658585 L 91.99000166672516,69.82899998435292 L 92.04452034518562,69.41488951225779 L 92.20436102168017,69.02899998462368 L 92.45863081825541,68.69762913504631 L 92.79000166847493,68.44335933930816 M 74.21000166672506,69.8289999864735 L 74.26452034466041,69.41488951430925 L 74.42436102066584,69.02899998647247 L 74.67863081682074,68.69762913657266 L 75.01000166671791,68.44335934041432 L 75.39589119455306,68.28351866440497 L 75.81000166671681,68.2289999864653 L 76.22411213888113,68.28351866440067 L 76.61000166671792,68.44335934040609 L 76.94137251661779,68.69762913656098 L 77.19564231277596,69.02899998645817 L 77.35548298878552,69.41488951429331 L 77.41000166672512,69.82899998645698 L 77.35548298878969,70.24311045862133 L 77.19564231278429,70.62899998645814 L 76.94137251662946,70.96037083635797 L 76.61000166673229,71.21464063251629 L 76.22411213889707,71.37448130852566 L 75.81000166673333,71.42899998646533 L 75.39589119456902,71.37448130852997 L 75.01000166673221,71.21464063252455 L 74.67863081683244,70.96037083636963 L 74.4243610206741,70.62899998647244 L 74.26452034466469,70.24311045863732 L 74.21000166672506,69.8289999864735 M 74.26452028584464,116.40488951234957 L 74.42436096233935,116.01899998471544 L 74.67863075891445,115.68762913513811 L 75.01000160913401,115.43335933939991 L 75.39589113717182,115.27351866387986 L 75.81000160940471,115.21899998646532 L 76.2241120814999,115.27351866492572 L 76.61000160913402,115.43335934142047 L 76.9413724587114,115.6876291379956 L 77.19564225444962,116.01899998821517 L 77.35548292996971,116.40488951625298 L 77.4100016073842,116.81899998848587 L 77.35548292892375,117.23311046058103 L 77.19564225242901,117.61899998821517 L 76.94137245585392,117.95037083779255 L 76.61000160563444,118.20464063353069 L 76.22411207759652,118.36448130905077 L 75.81000160536365,118.41899998646531 L 75.39589113326846,118.36448130800486 L 75.01000160563434,118.20464063151013 L 74.67863075605699,117.95037083493509 L 74.42436096031881,117.61899998471543 L 74.2645202847987,117.2331104566776 L 74.21000160738419,116.81899998444476 L 74.26452028584464,116.40488951234957 M 91.99000160738419,116.81899998435298 L 92.04452028584473,116.40488951225774 L 92.20436096233942,116.01899998462363 L 92.45863075891445,115.68762913504631 L 92.79000160913404,115.43335933930811 L 93.17589113717192,115.27351866378802 L 93.59000160940468,115.21899998637352 L 94.00411208149998,115.27351866483394 L 94.39000160913403,115.43335934132867 L 94.72137245871141,115.6876291379038 L 94.97564225444964,116.0189999881234 L 95.13548292996973,116.40488951616115 L 95.19000160738419,116.8189999883941 L 95.13548292892374,117.23311046048923 L 94.97564225242903,117.61899998812339 L 94.72137245585392,117.95037083770077 L 94.39000160563438,118.20464063343888 L 94.00411207759652,118.364481308959 L 93.59000160536358,118.41899998637354 L 93.17589113326845,118.36448130791308 L 92.79000160563442,118.20464063141833 L 92.45863075605698,117.95037083484326 L 92.20436096031881,117.61899998462366 L 92.04452028479874,117.23311045658582 L 91.99000160738419,116.81899998435298 M 40.40418718726188,54.624566656881434 L 45.08623209296647,55.827808482398055 L 45.08623211070453,57.018581549729596 L 40.22338923493159,58.159479377779085 L 45.70343912538108,59.17568877245574 L 45.70343913940437,60.11708528118389 L 38.93286555316692,58.76421755161652 L 38.93286553515024,57.55474124238954 L 43.99520965687725,56.351499271717486 L 38.9328654976307,55.03603800049431 L 38.93286547942829,53.81409286333728 L 45.70343902712487,52.579678797393456 L 45.703439044027164,53.71434213903934 L 40.40418718726188,54.624566656881434 M 48.777005275828,63.58341939998764 L 48.777005298766994,65.12331964936419 L 47.23710504939042,65.12331967230301 L 47.23710502645143,63.58341942292641 L 48.777005275828,63.58341939998764 M 47.006431811157185,70.39139947623798 L 47.00643182945245,71.61957902736016 L 45.54757896162202,71.61957904909167 L 45.547579006385334,74.62456658026369 L 44.624885739552425,74.62456659400848 L 44.624885694789114,71.61957906283646 L 41.15855153020058,71.619579114472 L 40.3605465437395,71.69142100603517 L 40.15636948806967,71.80465111739954 L 39.98024729647574,72.00065768564033 L 39.76983583292355,72.52222973522109 L 39.69969868647135,73.23750697286196 L 39.74333959562642,74.0027569332467 L 39.874262300198964,74.76172377200717 L 38.93910020543588,74.76172378593765 L 38.81752911960412,73.8546165558284 L 38.77700541578294,72.97868139433731 L 38.81071020598459,72.28744074545617 L 38.91182459897172,71.71621256439873 L 39.08034859474405,71.26499685116528 L 39.31628219330169,70.93379360575541 L 39.64612165360714,70.69649621929597 L 40.09636323462347,70.5269980829132 L 40.667006936350376,70.42529919660714 L 41.35805275878809,70.39139956037798 L 44.62488567649383,70.39139951171427 L 44.624885651326125,68.70187332717556 L 45.54757891815905,68.70187331343078 L 45.547578943326755,70.39139949796943 L 47.006431811157185,70.39139947623798 M 45.528875879369906,82.33653665535527 L 44.50019757513056,82.33653667067884 L 44.82282848122331,81.2221351696135 L 44.93037210816746,80.28541446975711 L 44.886731202590326,79.76035991928498 L 44.75580850239018,79.29492195365425 L 44.537604007566955,78.88910057286478 L 44.232117718120506,78.54289577691661 L 43.85064950950779,78.26604883746188 L 43.40449925718546,78.06830102615287 L 42.8936669611537,77.94965234298924 L 42.31815262141245,77.91010278797128 L 41.73737799610704,77.95237991632345 L 41.22323367131314,78.07921128308456 L 40.77571964703051,78.29059688825464 L 40.39483592325932,78.58653673183363 L 40.09071342254201,78.95689989097738 L 39.87348306742075,79.39155544284174 L 39.743144857895714,79.89050338742669 L 39.69969879396673,80.45374372473223 L 39.80412524199805,81.40137464586994 L 40.117404559531636,82.46122501526806 L 39.15107039494312,82.46122502966287 L 38.87052175028511,81.37176119344304 L 38.77700552462633,80.2854145614196 L 38.8346738413733,79.4509772164208 L 39.00767881798933,78.71823874750952 L 39.29602045447447,78.0871991546857 L 39.699698750828716,77.5578584379492 L 40.2093620862378,77.13917856751424 L 40.8156588398877,76.84012151359482 L 41.518589011778246,76.66068727619111 L 42.31815260190979,76.60087585530296 L 43.10485771500858,76.6599079508158 L 43.80038452562671,76.83700426215091 L 44.40473303376426,77.13216478930798 L 44.91790323942095,77.54538953228698 L 45.3270366636025,78.06382001247673 L 45.61927482731433,78.67459775126561 L 45.794617730556354,79.37772274865361 L 45.85306537332872,80.17319500464077 L 45.772018007825764,81.25019001831689 L 45.528875879369906,82.33653665535527 M 48.77700558610604,84.41259645734428 L 48.777005604401324,85.64077600846643 L 45.7034395196133,85.64077605425128 L 44.43161907073549,85.64077607319668 L 45.05350187063708,86.10290199909501 L 45.497703873671,86.64139949871245 L 45.76422507983786,87.25626857204901 L 45.85306548913721,87.94750921910469 L 45.81731502828197,88.39901716851504 L 45.710063631367916,88.79032405914013 L 45.53131129839494,89.12142989097993 L 45.28105802936305,89.39233466403438 L 44.95930382427237,89.60303837830375 L 44.56604868312279,89.7535410337877 L 43.565035592646936,89.87394316839988 L 38.932866016587056,89.87394323740209 L 38.93286599829189,88.64576368627988 L 43.228377220237036,88.64576362229263 L 43.90559043627745,88.58419877429938 L 44.353688937266824,88.39950425390866 L 44.60384479270546,88.06985961177827 L 44.68723007209384,87.57344439856607 L 44.604234429229905,87.1066426541665 L 44.355247514383166,86.62893068780065 L 43.94026932755338,86.1403084994686 L 43.359299868740464,85.64077608917026 L 38.93286595352852,85.64077615510783 L 38.93286593523321,84.41259660398563 L 48.77700558610604,84.41259645734428 M 44.78074588984525,61.27668629243483 L 45.70343915667816,61.27668627869018 L 45.70343921165717,64.96745934602183 L 38.93286564557232,64.96745944687827 L 38.93286562727711,63.7392798957562 L 44.78074592652895,63.73927980864425 L 44.78074588984525,61.27668629243483 M 46.74458613737724,51.108357086123405 L 45.67850134934733,51.10835710200419 L 46.07126941010952,49.83030223331067 L 46.20219208656678,48.701873303679214 L 46.132054918611274,47.97361582342674 L 45.921643439540674,47.45343191134665 L 45.57095764935529,47.14132156744694 L 45.079997548054806,47.03728479171922 L 44.66930552926566,47.115214972402164 L 44.34743281893293,47.28899999743369 L 44.066125988243044,47.79320750008741 L 43.77700505117615,48.502372092923494 L 43.50269084841389,49.28790825661024 L 43.24707988698967,50.03603793622804 L 42.888601095333,50.79702609618199 L 42.424137263031014,51.340589070681844 L 41.85368839008386,51.66672685972813 L 41.17725447649123,51.77543946332064 L 40.650251670177894,51.719914221794554 L 40.17896893702314,51.55333848068514 L 39.76340627702727,51.27571223999253 L 39.40356369018997,50.8870354997169 L 39.11307895732722,50.40523219980471 L 38.90558985925425,49.84822628020239 L 38.78109639597129,49.216017740909535 L 38.739598567478396,48.50860658192677 L 38.85025321784384,47.28899999743369 L 39.18224191915836,45.83404298431098 L 40.397952642350404,45.834042966201636 L 39.84619823907363,47.28899999743369 L 39.708270629311315,47.972057315627204 L 39.662291834868554,48.546013051973326 L 39.75191154780585,49.36427988355579 L 40.020770659499775,49.99863150049791 L 40.440814306457156,50.40542700546284 L 40.98398762518531,50.54102550111254 L 41.397017549176724,50.46075741515952 L 41.71341405431781,50.21995317104441 L 42.00643150335178,49.72821376518319 L 42.349324259021955,48.8951401939918 L 42.648576117087316,48.07219754614241 L 43.109922735006066,47.03182970884473 L 43.58373818645046,46.3670853127596 L 44.14327683448856,46.009385803177395 L 44.86179304218874,45.89015262539238 L 45.370677082771124,45.93593659536813 L 45.818775588557756,46.073288521360965 L 46.20608855954886,46.30220840337213 L 46.53261599574439,46.622696241400064 L 46.79173383217875,47.02617971633898 L 46.976818003886336,47.50408650909721 L 47.08786851086704,48.05641661966187 L 47.12488535312109,48.683170048039884 L 47.02981055721838,49.82874361554025 L 46.74458613737724,51.108357086123405 M 75.8100016194515,111.8189999890345 L 75.81000167245405,74.82899999106326 L 77.1040968981818,74.65862912414286 L 78.31000167329995,74.15912701314258 L 79.34553558023615,73.36453390146083 L 80.14012869453333,72.32899999653154 L 80.63963080857934,71.1230952226749 L 80.81000167876832,69.82899999737751 L 80.63963081184784,68.53490477164974 L 80.14012870084757,67.32899999653154 L 79.34553558916582,66.29346608959537 L 78.31000168423651,65.49887297529818 L 77.1040969103799,64.99937086125222 L 75.81000168508248,64.8289999910633 L 75.81000173019113,29.10899999106334 L 76.46263269186922,29.066224298687615 L 77.10409695693954,28.938629123869426 L 77.72341889396158,28.728397655429546 L 78.31000173286726,28.43912701208596 L 78.85380887863532,28.075766694755202 L 79.34553564021482,27.64453389921936 L 79.77676843636908,27.15280713818224 L 80.14012875438375,26.608999992871194 L 80.42939939846514,26.022417154329283 L 80.63963086768392,25.403095217571668 L 80.76722604330881,24.761630952661804 L 80.81000173650536,24.108999991037514 L 88.59000173650534,24.108999990997326 L 88.6327774295707,24.761630951573554 L 88.76037260479322,25.403095215488374 L 88.97060407335225,26.02241715135647 L 89.25987471653933,26.608999989163674 L 89.62323503345671,27.15280713393985 L 90.05446782834933,27.644533894680997 L 90.5461945885481,28.07576669019199 L 91.09000173286725,28.43912700779331 L 91.67658457031067,28.72839765171817 L 92.29590650591433,28.93862912105614 L 92.93737076966872,29.066224297085366 L 93.59000173019112,29.108999990971498 L 93.59000168508247,64.8289999909715 L 92.29590645935465,64.9993708578919 L 91.0900016842365,65.49887296889219 L 90.05446777730032,66.29346608057394 L 89.25987466300316,67.32899998550322 L 88.76037254895714,68.53490475935983 L 88.59000167876829,69.82899998465732 L 88.76037254568864,71.12309521038503 L 89.25987465668894,72.3289999855032 L 90.05446776837064,73.36453389243941 L 91.09000167329997,74.15912700673658 L 92.2959064471566,74.65862912078258 L 93.59000167245405,74.8289999909715 L 93.59000161945153,111.81899998894272 L 92.93737065834691,111.86177568207103 L 92.29590639393007,111.9893708574933 L 91.67658445761268,112.19960232638181 L 91.09000161943382,112.48887297001677 L 90.54619447438645,112.8522332874845 L 90.05446771349403,113.28346608301058 L 89.62323491796818,113.77519284390308 L 89.25987460050055,114.31899998895065 L 88.9706039568658,114.90558282712956 L 88.76037248797752,115.52490476344698 L 88.63277731255553,116.16636902786391 L 88.5900016194274,116.81899998896853 L 80.81000161942735,116.81899998900866 L 80.76722592629363,116.1663690279128 L 80.63963075086818,115.52490476350499 L 80.4293992819787,114.90558282719672 L 80.14012863834495,114.31899998902657 L 79.77676832088054,113.7751928439869 L 79.34553552535951,113.28346608310113 L 78.85380876447367,112.85223328758033 L 78.31000161943382,112.48887297011603 L 77.72341878126362,112.19960232648253 L 77.10409684495528,111.98937085759323 L 76.46263258054742,111.86177568216803 L 75.8100016194515,111.8189999890345 "
  />
  <path id="face0-interior"
 style="fill:none;stroke:#FF0000;stroke-width:0.1;stroke-miterlimit:4;stroke-dasharray:none;stroke-linejoin:round;stroke-linecap:round"
        d="M 129.70000173827134,47.28899999743368 M 129.70000182495318,42.289000000823464 M 133.70000000377843,42.28899999948712 M 133.70000000037516,6.000000017722648 M 129.70000179302008,6.000000016268984 M 129.70000180153735,1.0000000006015881 M 5.000001823866484,1.0 M 5.000001823842098,6.000000000000057 M 1.0000000000966054,5.999999999980645 M 1.0,25.99999999731035 M 5.000001823740007,25.999999997330345 M 5.000001823866796,57.289000000000044 M 1.0000018238667394,57.28899999904142 M 1.0000018218341324,77.28900000417745 M 5.000001821834104,77.28900000513576 M 5.00000182336791,108.5782225156785 M 1.0000000040436703,108.57822251565716 M 1.0000000039468375,128.57822251833713 M 5.0000018232738626,128.57822251835674 M 5.000001823248425,133.57822251835677 M 129.70000184854374,133.57822251873012 M 129.70000167684643,128.57822257033857 M 133.70000000039778,128.5782225689251 M 133.70000000416607,92.28900004251197 M 129.7000016713584,92.2889999817296 M 129.70000168775817,87.28899999743365 M 104.70000168775833,87.28899996586289 M 104.7000017382712,47.288999997433685 M 27.3277586374481,6.789112025434761 M 27.597920295866174,6.437030497418924 M 27.95000182388445,6.166868839004195 M 28.36000944721114,5.997038120748314 M 28.80000182388565,5.939112025441972 M 29.23999420055965,5.99703812075262 M 29.65000182388438,6.16686883901243 M 30.002083351900353,6.437030497430577 M 30.27224501031509,6.789112025448944 M 30.442075728570956,7.199119648775493 M 30.500001823877597,7.639112025450046 M 30.442075728566692,8.079104402124017 M 30.272245010306875,8.489112025448897 M 30.002083351888757,8.841193553464734 M 29.65000182387034,9.111355211879413 M 29.239994200543805,9.281185930135315 M 28.80000182386928,9.339112025441814 M 28.36000944719528,9.281185930131038 M 27.95000182387041,9.111355211871249 M 27.59792029585458,8.841193553453174 M 27.327758637439885,8.489112025434686 M 27.157927919184004,8.0791044021081 M 27.100001823877733,7.639112025433612 M 27.157927919188253,7.1991196487595985 M 66.56000944721191,5.997038120932444 M 67.00000182388652,5.9391120256261445 M 67.4399942005605,5.997038120937084 M 67.8500018238853,6.1668688391971145 M 68.20208335190102,6.437030497615353 M 68.47224501031556,6.789112025633919 M 68.64207572857126,7.1991196489605755 M 68.70000182387753,7.639112025635136 M 68.64207572856661,8.079104402309135 M 68.47224501030655,8.489112025633965 M 68.20208335188829,8.841193553649653 M 67.85000182386972,9.111355212064176 M 67.43999420054311,9.281185930319879 M 67.00000182386853,9.339112025626143 M 66.56000944719453,9.281185930315225 M 66.15000182386973,9.111355212055223 M 65.79792029585403,8.841193553636906 M 65.52775863743949,8.489112025618319 M 65.35792791918377,8.079104402291762 M 65.30000182387754,7.6391120256171945 M 65.35792791918843,7.199119648943189 M 65.52775863744847,6.7891120256183655 M 65.79792029586675,6.437030497602642 M 66.1500018238853,6.166868839188162 M 41.750001823728155,35.961355211937885 M 41.33999420040182,36.13118593019369 M 40.90000182372711,36.18911202550021 M 40.46000944705331,36.13118593018952 M 40.050001823728266,35.961355211929614 M 39.697920295712464,35.691193553511575 M 39.42775863729757,35.33911202549305 M 39.25792791904189,34.92910440216659 M 39.200001823735434,34.48911202549215 M 39.25792791904594,34.049119648818156 M 39.42775863730597,33.63911202549326 M 39.69792029572389,33.287030497477375 M 40.050001823742505,33.01686883906273 M 40.460009447069154,32.84703812080693 M 40.90000182374337,32.7891120255004 M 41.33999420041769,32.847038120811106 M 41.750001823742366,33.01686883907102 M 42.102083351757955,33.28703049748911 M 42.372245010172875,33.63911202550753 M 42.54207572842857,34.04911964883387 M 42.6000018237352,34.48911202550854 M 42.54207572842451,34.929104402182425 M 42.37224501016448,35.33911202550737 M 42.10208335174657,35.69119355352317 M 63.200001823735334,34.489112025607746 M 63.14207572842463,34.929104402281816 M 62.97224501016477,35.339112025606745 M 62.70208335174668,35.69119355362251 M 62.350001823728235,35.961355212037226 M 61.93999420040171,36.13118593029314 M 61.500001823727146,36.18911202559956 M 61.06000944705313,36.131185930288886 M 60.650001823728246,35.961355212029005 M 60.2979202957124,35.691193553610944 M 60.027758637297524,35.33911202559242 M 59.8579279190418,34.92910440226603 M 59.80000182373534,34.489112025591425 M 59.85792791904588,34.04911964891748 M 60.02775863730591,33.63911202559247 M 60.29792029572384,33.28703049757667 M 60.65000182374246,33.0168688391619 M 61.06000944706899,32.84703812090608 M 61.50000182374353,32.789112025599636 M 61.939994200417544,32.847038120910355 M 62.35000182374243,33.01686883917022 M 62.702083351758276,33.28703049758825 M 62.972245010173,33.63911202560669 M 63.14207572842888,34.04911964893327 M 41.750001823380885,101.56135521193781 M 41.33999420005415,101.73118593019369 M 40.9000018233796,101.7891120255002 M 40.4600094467056,101.73118593018941 M 40.05000182338091,101.5613552119296 M 39.69792029536525,101.29119355351148 M 39.42775863695036,100.93911202549303 M 39.25792791869465,100.5291044021665 M 39.20000182338801,100.08911202549194 M 39.2579279186987,99.64911964881794 M 39.42775863695839,99.23911202549306 M 39.69792029537669,98.8870304974773 M 40.050001823395306,98.61686883906253 M 40.46000944672146,98.44703812080664 M 40.90000182339624,98.38911202550022 M 41.33999420007005,98.44703812081087 M 41.75000182339528,98.61686883907069 M 42.102083351410926,98.88703049748885 M 42.37224500982545,99.23911202550724 M 42.5420757280815,99.64911964883379 M 42.600001823388,100.0891120255084 M 42.54207572807745,100.52910440218238 M 42.37224500981742,100.93911202550728 M 42.102083351399486,101.29119355352304 M 30.50000182324584,126.93911202545002 M 30.44207572793512,127.37910440212403 M 30.272245009675274,127.7891120254489 M 30.002083351257156,128.14119355346472 M 29.65000182323854,128.41135521187945 M 29.239994199912203,128.58118593013535 M 28.800001823237608,128.63911202544176 M 28.36000944656361,128.58118593013106 M 27.950001823238523,128.41135521187124 M 27.59792029522295,128.1411935534531 M 27.32775863680817,127.78911202543466 M 27.157927918552332,127.37910440210817 M 27.100001823245833,126.93911202543356 M 27.15792791855675,126.4991196487596 M 27.327758636816426,126.08911202543464 M 27.597920295234672,125.73703049741883 M 27.950001823252904,125.46686883900412 M 28.36000944657944,125.29703812074825 M 28.80000182325402,125.23911202544176 M 29.23999419992802,125.29703812075252 M 29.650001823252936,125.46686883901236 M 30.002083351268908,125.73703049743045 M 30.27224500968346,126.08911202544888 M 30.44207572793951,126.4991196487754 M 50.87224500967547,127.78911202554835 M 50.60208335125715,128.14119355356414 M 50.25000182323855,128.41135521197884 M 49.83999419991217,128.58118593023468 M 49.40000182323763,128.63911202554124 M 48.96000944656362,128.5811859302305 M 48.550001823238574,128.41135521197066 M 48.19792029522293,128.1411935535526 M 47.927758636808406,127.78911202553414 M 47.7579279185523,127.37910440220759 M 47.70000182324567,126.93911202553298 M 47.75792791855672,126.49911964885902 M 47.92775863681638,126.08911202553412 M 48.19792029523467,125.7370304975183 M 48.550001823252956,125.46686883910357 M 48.96000944657948,125.2970381208477 M 49.40000182325423,125.23911202554123 M 49.83999419992806,125.29703812085197 M 50.25000182325296,125.46686883911178 M 50.60208335126893,125.7370304975299 M 50.872245009683496,126.08911202554833 M 51.04207572793956,126.49911964887491 M 51.10000182324565,126.9391120255494 M 51.04207572793513,127.37910440222345 M 60.650001823380904,101.56135521202906 M 60.29792029536526,101.29119355361092 M 60.027758636950395,100.93911202559255 M 59.857927918694685,100.529104402266 M 59.800001823388016,100.08911202559139 M 59.85792791869875,99.64911964891742 M 60.02775863695841,99.2391120255925 M 60.297920295376684,98.8870304975767 M 60.65000182339533,98.61686883916195 M 61.06000944672165,98.44703812090609 M 61.50000182339623,98.38911202559963 M 61.93999420007023,98.44703812091035 M 62.35000182339513,98.61686883917022 M 62.702083351410934,98.88703049758831 M 62.972245009825656,99.23911202560672 M 63.14207572808154,99.64911964893327 M 63.20000182338801,100.08911202560779 M 63.1420757280773,100.52910440228183 M 62.972245009817456,100.93911202560676 M 62.702083351399324,101.29119355362252 M 62.35000182338092,101.56135521203726 M 61.939994200054386,101.73118593029315 M 61.50000182337982,101.78911202559965 M 61.06000944670579,101.73118593028887 M 77.35548304652258,23.694889514293322 M 77.41000172446213,24.108999986457086 M 77.35548304652679,24.523110458621392 M 77.19564237052136,24.908999986458145 M 76.94137257436645,25.240370836357936 M 76.61000172446936,25.49464063251631 M 76.22411219663415,25.65448130852568 M 75.8100017244704,25.70899998646534 M 75.3958912523061,25.654481308529935 M 75.0100017244693,25.49464063252456 M 74.6786308745695,25.240370836369664 M 74.4243610784112,24.90899998647247 M 74.26452040240177,24.52311045863734 M 74.21000172446215,24.108999986473584 M 74.26452040239751,23.694889514309246 M 74.42436107840292,23.308999986472482 M 74.67863087455783,22.977629136572705 M 75.01000172445498,22.72335934041439 M 75.39589125229013,22.56351866440495 M 75.8100017244539,22.508999986465312 M 76.2241121966182,22.563518664400714 M 76.61000172445497,22.72335934040613 M 76.94137257435476,22.977629136561035 M 77.19564237051317,23.308999986458158 M 94.97564237052137,24.90899998636639 M 94.72137257436648,25.240370836266145 M 94.39000172446939,25.494640632424495 M 94.00411219663417,25.654481308433887 M 93.59000172447033,25.70899998637349 M 93.17589125230612,25.65448130843818 M 92.79000172446939,25.494640632432752 M 92.45863087456954,25.240370836277812 M 92.20436107841121,24.908999986380667 M 92.04452040240179,24.523110458545563 M 91.99000172446216,24.10899998638178 M 92.0445204023976,23.69488951421748 M 92.20436107840302,23.30899998638067 M 92.45863087455785,22.977629136480882 M 92.79000172445501,22.723359340322578 M 93.17589125229021,22.563518664313175 M 93.59000172445381,22.50899998637354 M 94.00411219661828,22.56351866430889 M 94.39000172445499,22.723359340314335 M 94.72137257435477,22.9776291364692 M 94.97564237051319,23.30899998636639 M 95.13548304652261,23.694889514201506 M 95.19000172446214,24.10899998636528 M 95.13548304652679,24.52311045852958 M 92.79000166847493,68.44335933930816 M 93.17589119651268,68.28351866378807 M 93.59000166874563,68.22899998637355 M 94.00411214084073,68.28351866483396 M 94.39000166847492,68.44335934132869 M 94.72137251805236,68.69762913790379 M 94.97564231379037,69.02899998812339 M 95.13548298931062,69.41488951616118 M 95.19000166672512,69.828999988394 M 95.13548298826463,70.24311046048926 M 94.97564231176989,70.62899998812335 M 94.72137251519487,70.96037083770075 M 94.3900016649753,71.2146406334389 M 94.00411213693742,71.37448130895899 M 93.59000166470454,71.42899998637353 M 93.17589119260934,71.37448130791307 M 92.79000166497532,71.21464063141836 M 92.45863081539795,70.96037083484327 M 92.2043610196597,70.62899998462366 M 92.04452034413963,70.24311045658585 M 91.99000166672516,69.82899998435292 M 92.04452034518562,69.41488951225779 M 92.20436102168017,69.02899998462368 M 92.45863081825541,68.69762913504631 M 74.21000166672506,69.8289999864735 M 74.26452034466041,69.41488951430925 M 74.42436102066584,69.02899998647247 M 74.67863081682074,68.69762913657266 M 75.01000166671791,68.44335934041432 M 75.39589119455306,68.28351866440497 M 75.81000166671681,68.2289999864653 M 76.22411213888113,68.28351866440067 M 76.61000166671792,68.44335934040609 M 76.94137251661779,68.69762913656098 M 77.19564231277596,69.02899998645817 M 77.35548298878552,69.41488951429331 M 77.41000166672512,69.82899998645698 M 77.35548298878969,70.24311045862133 M 77.19564231278429,70.62899998645814 M 76.94137251662946,70.96037083635797 M 76.61000166673229,71.21464063251629 M 76.22411213889707,71.37448130852566 M 75.81000166673333,71.42899998646533 M 75.39589119456902,71.37448130852997 M 75.01000166673221,71.21464063252455 M 74.67863081683244,70.96037083636963 M 74.4243610206741,70.62899998647244 M 74.26452034466469,70.24311045863732 M 74.26452028584464,116.40488951234957 M 74.42436096233935,116.01899998471544 M 74.67863075891445,115.68762913513811 M 75.01000160913401,115.43335933939991 M 75.39589113717182,115.27351866387986 M 75.81000160940471,115.21899998646532 M 76.2241120814999,115.27351866492572 M 76.61000160913402,115.43335934142047 M 76.9413724587114,115.6876291379956 M 77.19564225444962,116.01899998821517 M 77.35548292996971,116.40488951625298 M 77.4100016073842,116.81899998848587 M 77.35548292892375,117.23311046058103 M 77.19564225242901,117.61899998821517 M 76.94137245585392,117.95037083779255 M 76.61000160563444,118.20464063353069 M 76.22411207759652,118.36448130905077 M 75.81000160536365,118.41899998646531 M 75.39589113326846,118.36448130800486 M 75.01000160563434,118.20464063151013 M 74.67863075605699,117.95037083493509 M 74.42436096031881,117.61899998471543 M 74.2645202847987,117.2331104566776 M 74.21000160738419,116.81899998444476 M 91.99000160738419,116.81899998435298 M 92.04452028584473,116.40488951225774 M 92.20436096233942,116.01899998462363 M 92.45863075891445,115.68762913504631 M 92.79000160913404,115.43335933930811 M 93.17589113717192,115.27351866378802 M 93.59000160940468,115.21899998637352 M 94.00411208149998,115.27351866483394 M 94.39000160913403,115.43335934132867 M 94.72137245871141,115.6876291379038 M 94.97564225444964,116.0189999881234 M 95.13548292996973,116.40488951616115 M 95.19000160738419,116.8189999883941 M 95.13548292892374,117.23311046048923 M 94.97564225242903,117.61899998812339 M 94.72137245585392,117.95037083770077 M 94.39000160563438,118.20464063343888 M 94.00411207759652,118.364481308959 M 93.59000160536358,118.41899998637354 M 93.17589113326845,118.36448130791308 M 92.79000160563442,118.20464063141833 M 92.45863075605698,117.95037083484326 M 92.20436096031881,117.61899998462366 M 92.04452028479874,117.23311045658582 M 40.40418718726188,54.624566656881434 M 45.08623209296647,55.827808482398055 M 45.08623211070453,57.018581549729596 M 40.22338923493159,58.159479377779085 M 45.70343912538108,59.17568877245574 M 45.70343913940437,60.11708528118389 M 38.93286555316692,58.76421755161652 M 38.93286553515024,57.55474124238954 M 43.99520965687725,56.351499271717486 M 38.9328654976307,55.03603800049431 M 38.93286547942829,53.81409286333728 M 45.70343902712487,52.579678797393456 M 45.703439044027164,53.71434213903934 M 48.777005275828,63.58341939998764 M 48.777005298766994,65.12331964936419 M 47.23710504939042,65.12331967230301 M 47.23710502645143,63.58341942292641 M 47.006431811157185,70.39139947623798 M 47.00643182945245,71.61957902736016 M 45.54757896162202,71.61957904909167 M 45.547579006385334,74.62456658026369 M 44.624885739552425,74.62456659400848 M 44.624885694789114,71.61957906283646 M 41.15855153020058,71.619579114472 M 40.3605465437395,71.69142100603517 M 40.15636948806967,71.80465111739954 M 39.98024729647574,72.00065768564033 M 39.76983583292355,72.52222973522109 M 39.69969868647135,73.23750697286196 M 39.74333959562642,74.0027569332467 M 39.874262300198964,74.76172377200717 M 38.93910020543588,74.76172378593765 M 38.81752911960412,73.8546165558284 M 38.77700541578294,72.97868139433731 M 38.81071020598459,72.28744074545617 M 38.91182459897172,71.71621256439873 M 39.08034859474405,71.26499685116528 M 39.31628219330169,70.93379360575541 M 39.64612165360714,70.69649621929597 M 40.09636323462347,70.5269980829132 M 40.667006936350376,70.42529919660714 M 41.35805275878809,70.39139956037798 M 44.62488567649383,70.39139951171427 M 44.624885651326125,68.70187332717556 M 45.54757891815905,68.70187331343078 M 45.547578943326755,70.39139949796943 M 45.528875879369906,82.33653665535527 M 44.50019757513056,82.33653667067884 M 44.82282848122331,81.2221351696135 M 44.93037210816746,80.28541446975711 M 44.886731202590326,79.76035991928498 M 44.75580850239018,79.29492195365425 M 44.537604007566955,78.88910057286478 M 44.232117718120506,78.54289577691661 M 43.85064950950779,78.26604883746188 M 43.40449925718546,78.06830102615287 M 42.8936669611537,77.94965234298924 M 42.31815262141245,77.91010278797128 M 41.73737799610704,77.95237991632345 M 41.22323367131314,78.07921128308456 M 40.77571964703051,78.29059688825464 M 40.39483592325932,78.58653673183363 M 40.09071342254201,78.95689989097738 M 39.87348306742075,79.39155544284174 M 39.743144857895714,79.89050338742669 M 39.69969879396673,80.45374372473223 M 39.80412524199805,81.40137464586994 M 40.117404559531636,82.46122501526806 M 39.15107039494312,82.46122502966287 M 38.87052175028511,81.37176119344304 M 38.77700552462633,80.2854145614196 M 38.8346738413733,79.4509772164208 M 39.00767881798933,78.71823874750952 M 39.29602045447447,78.0871991546857 M 39.699698750828716,77.5578584379492 M 40.2093620862378,77.13917856751424 M 40.8156588398877,76.84012151359482 M 41.518589011778246,76.66068727619111 M 42.31815260190979,76.60087585530296 M 43.10485771500858,76.6599079508158 M 43.80038452562671,76.83700426215091 M 44.40473303376426,77.13216478930798 M 44.91790323942095,77.54538953228698 M 45.3270366636025,78.06382001247673 M 45.61927482731433,78.67459775126561 M 45.794617730556354,79.37772274865361 M 45.85306537332872,80.17319500464077 M 45.772018007825764,81.25019001831689 M 48.77700558610604,84.41259645734428 M 48.777005604401324,85.64077600846643 M 45.7034395196133,85.64077605425128 M 44.43161907073549,85.64077607319668 M 45.05350187063708,86.10290199909501 M 45.497703873671,86.64139949871245 M 45.76422507983786,87.25626857204901 M 45.85306548913721,87.94750921910469 M 45.81731502828197,88.39901716851504 M 45.710063631367916,88.79032405914013 M 45.53131129839494,89.12142989097993 M 45.28105802936305,89.39233466403438 M 44.95930382427237,89.60303837830375 M 44.56604868312279,89.7535410337877 M 43.565035592646936,89.87394316839988 M 38.932866016587056,89.87394323740209 M 38.93286599829189,88.64576368627988 M 43.228377220237036,88.64576362229263 M 43.90559043627745,88.58419877429938 M 44.353688937266824,88.39950425390866 M 44.60384479270546,88.06985961177827 M 44.68723007209384,87.57344439856607 M 44.604234429229905,87.1066426541665 M 44.355247514383166,86.62893068780065 M 43.94026932755338,86.1403084994686 M 43.359299868740464,85.64077608917026 M 38.93286595352852,85.64077615510783 M 38.93286593523321,84.41259660398563 M 44.78074588984525,61.27668629243483 M 45.70343915667816,61.27668627869018 M 45.70343921165717,64.96745934602183 M 38.93286564557232,64.96745944687827 M 38.93286562727711,63.7392798957562 M 44.78074592652895,63.73927980864425 M 46.74458613737724,51.108357086123405 M 45.67850134934733,51.10835710200419 M 46.07126941010952,49.83030223331067 M 46.20219208656678,48.701873303679214 M 46.132054918611274,47.97361582342674 M 45.921643439540674,47.45343191134665 M 45.57095764935529,47.14132156744694 M 45.079997548054806,47.03728479171922 M 44.66930552926566,47.115214972402164 M 44.34743281893293,47.28899999743369 M 44.066125988243044,47.79320750008741 M 43.77700505117615,48.502372092923494 M 43.50269084841389,49.28790825661024 M 43.24707988698967,50.03603793622804 M 42.888601095333,50.79702609618199 M 42.424137263031014,51.340589070681844 M 41.85368839008386,51.66672685972813 M 41.17725447649123,51.77543946332064 M 40.650251670177894,51.719914221794554 M 40.17896893702314,51.55333848068514 M 39.76340627702727,51.27571223999253 M 39.40356369018997,50.8870354997169 M 39.11307895732722,50.40523219980471 M 38.90558985925425,49.84822628020239 M 38.78109639597129,49.216017740909535 M 38.739598567478396,48.50860658192677 M 38.85025321784384,47.28899999743369 M 39.18224191915836,45.83404298431098 M 40.397952642350404,45.834042966201636 M 39.84619823907363,47.28899999743369 M 39.708270629311315,47.972057315627204 M 39.662291834868554,48.546013051973326 M 39.75191154780585,49.36427988355579 M 40.020770659499775,49.99863150049791 M 40.440814306457156,50.40542700546284 M 40.98398762518531,50.54102550111254 M 41.397017549176724,50.46075741515952 M 41.71341405431781,50.21995317104441 M 42.00643150335178,49.72821376518319 M 42.349324259021955,48.8951401939918 M 42.648576117087316,48.07219754614241 M 43.109922735006066,47.03182970884473 M 43.58373818645046,46.3670853127596 M 44.14327683448856,46.009385803177395 M 44.86179304218874,45.89015262539238 M 45.370677082771124,45.93593659536813 M 45.818775588557756,46.073288521360965 M 46.20608855954886,46.30220840337213 M 46.53261599574439,46.622696241400064 M 46.79173383217875,47.02617971633898 M 46.976818003886336,47.50408650909721 M 47.08786851086704,48.05641661966187 M 47.12488535312109,48.683170048039884 M 47.02981055721838,49.82874361554025 M 75.8100016194515,111.8189999890345 M 75.81000167245405,74.82899999106326 M 77.1040968981818,74.65862912414286 M 78.31000167329995,74.15912701314258 M 79.34553558023615,73.36453390146083 M 80.14012869453333,72.32899999653154 M 80.63963080857934,71.1230952226749 M 80.81000167876832,69.82899999737751 M 80.63963081184784,68.53490477164974 M 80.14012870084757,67.32899999653154 M 79.34553558916582,66.29346608959537 M 78.31000168423651,65.49887297529818 M 77.1040969103799,64.99937086125222 M 75.81000168508248,64.8289999910633 M 75.81000173019113,29.10899999106334 M 76.46263269186922,29.066224298687615 M 77.10409695693954,28.938629123869426 M 77.72341889396158,28.728397655429546 M 78.31000173286726,28.43912701208596 M 78.85380887863532,28.075766694755202 M 79.34553564021482,27.64453389921936 M 79.77676843636908,27.15280713818224 M 80.14012875438375,26.608999992871194 M 80.42939939846514,26.022417154329283 M 80.63963086768392,25.403095217571668 M 80.76722604330881,24.761630952661804 M 80.81000173650536,24.108999991037514 M 88.59000173650534,24.108999990997326 M 88.6327774295707,24.761630951573554 M 88.76037260479322,25.403095215488374 M 88.97060407335225,26.02241715135647 M 89.25987471653933,26.608999989163674 M 89.62323503345671,27.15280713393985 M 90.05446782834933,27.644533894680997 M 90.5461945885481,28.07576669019199 M 91.09000173286725,28.43912700779331 M 91.67658457031067,28.72839765171817 M 92.29590650591433,28.93862912105614 M 92.93737076966872,29.066224297085366 M 93.59000173019112,29.108999990971498 M 93.59000168508247,64.8289999909715 M 92.29590645935465,64.9993708578919 M 91.0900016842365,65.49887296889219 M 90.05446777730032,66.29346608057394 M 89.25987466300316,67.32899998550322 M 88.76037254895714,68.53490475935983 M 88.59000167876829,69.82899998465732 M 88.76037254568864,71.12309521038503 M 89.25987465668894,72.3289999855032 M 90.05446776837064,73.36453389243941 M 91.09000167329997,74.15912700673658 M 92.2959064471566,74.65862912078258 M 93.59000167245405,74.8289999909715 M 93.59000161945153,111.81899998894272 M 92.93737065834691,111.86177568207103 M 92.29590639393007,111.9893708574933 M 91.67658445761268,112.19960232638181 M 91.09000161943382,112.48887297001677 M 90.54619447438645,112.8522332874845 M 90.05446771349403,113.28346608301058 M 89.62323491796818,113.77519284390308 M 89.25987460050055,114.31899998895065 M 88.9706039568658,114.90558282712956 M 88.76037248797752,115.52490476344698 M 88.63277731255553,116.16636902786391 M 88.5900016194274,116.81899998896853 M 80.81000161942735,116.81899998900866 M 80.76722592629363,116.1663690279128 M 80.63963075086818,115.52490476350499 M 80.4293992819787,114.90558282719672 M 80.14012863834495,114.31899998902657 M 79.77676832088054,113.7751928439869 M 79.34553552535951,113.28346608310113 M 78.85380876447367,112.85223328758033 M 78.31000161943382,112.48887297011603 M 77.72341878126362,112.19960232648253 M 77.10409684495528,111.98937085759323 M 76.46263258054742,111.86177568216803 "
  />
  <path id="face0-interior"
 style="fill:none;stroke:#FF0000;stroke-width:0.1;stroke-miterlimit:4;stroke-dasharray:none;stroke-linejoin:round;stroke-linecap:round"
        d="M 129.70000173827134,47.28899999743368 M 129.70000182495318,42.289000000823464 M 133.70000000377843,42.28899999948712 M 133.70000000037516,6.000000017722648 M 129.70000179302008,6.000000016268984 M 129.70000180153735,1.0000000006015881 M 5.000001823866484,1.0 M 5.000001823842098,6.000000000000057 M 1.0000000000966054,5.999999999980645 M 1.0,25.99999999731035 M 5.000001823740007,25.999999997330345 M 5.000001823866796,57.289000000000044 M 1.0000018238667394,57.28899999904142 M 1.0000018218341324,77.28900000417745 M 5.000001821834104,77.28900000513576 M 5.00000182336791,108.5782225156785 M 1.0000000040436703,108.57822251565716 M 1.0000000039468375,128.57822251833713 M 5.0000018232738626,128.57822251835674 M 5.000001823248425,133.57822251835677 M 129.70000184854374,133.57822251873012 M 129.70000167684643,128.57822257033857 M 133.70000000039778,128.5782225689251 M 133.70000000416607,92.28900004251197 M 129.7000016713584,92.2889999817296 M 129.70000168775817,87.28899999743365 M 104.70000168775833,87.28899996586289 M 104.7000017382712,47.288999997433685 M 27.3277586374481,6.789112025434761 M 27.597920295866174,6.437030497418924 M 27.95000182388445,6.166868839004195 M 28.36000944721114,5.997038120748314 M 28.80000182388565,5.939112025441972 M 29.23999420055965,5.99703812075262 M 29.65000182388438,6.16686883901243 M 30.002083351900353,6.437030497430577 M 30.27224501031509,6.789112025448944 M 30.442075728570956,7.199119648775493 M 30.500001823877597,7.639112025450046 M 30.442075728566692,8.079104402124017 M 30.272245010306875,8.489112025448897 M 30.002083351888757,8.841193553464734 M 29.65000182387034,9.111355211879413 M 29.239994200543805,9.281185930135315 M 28.80000182386928,9.339112025441814 M 28.36000944719528,9.281185930131038 M 27.95000182387041,9.111355211871249 M 27.59792029585458,8.841193553453174 M 27.327758637439885,8.489112025434686 M 27.157927919184004,8.0791044021081 M 27.100001823877733,7.639112025433612 M 27.157927919188253,7.1991196487595985 M 66.56000944721191,5.997038120932444 M 67.00000182388652,5.9391120256261445 M 67.4399942005605,5.997038120937084 M 67.8500018238853,6.1668688391971145 M 68.20208335190102,6.437030497615353 M 68.47224501031556,6.789112025633919 M 68.64207572857126,7.1991196489605755 M 68.70000182387753,7.639112025635136 M 68.64207572856661,8.079104402309135 M 68.47224501030655,8.489112025633965 M 68.20208335188829,8.841193553649653 M 67.85000182386972,9.111355212064176 M 67.43999420054311,9.281185930319879 M 67.00000182386853,9.339112025626143 M 66.56000944719453,9.281185930315225 M 66.15000182386973,9.111355212055223 M 65.79792029585403,8.841193553636906 M 65.52775863743949,8.489112025618319 M 65.35792791918377,8.079104402291762 M 65.30000182387754,7.6391120256171945 M 65.35792791918843,7.199119648943189 M 65.52775863744847,6.7891120256183655 M 65.79792029586675,6.437030497602642 M 66.1500018238853,6.166868839188162 M 41.750001823728155,35.961355211937885 M 41.33999420040182,36.13118593019369 M 40.90000182372711,36.18911202550021 M 40.46000944705331,36.13118593018952 M 40.050001823728266,35.961355211929614 M 39.697920295712464,35.691193553511575 M 39.42775863729757,35.33911202549305 M 39.25792791904189,34.92910440216659 M 39.200001823735434,34.48911202549215 M 39.25792791904594,34.049119648818156 M 39.42775863730597,33.63911202549326 M 39.69792029572389,33.287030497477375 M 40.050001823742505,33.01686883906273 M 40.460009447069154,32.84703812080693 M 40.90000182374337,32.7891120255004 M 41.33999420041769,32.847038120811106 M 41.750001823742366,33.01686883907102 M 42.102083351757955,33.28703049748911 M 42.372245010172875,33.63911202550753 M 42.54207572842857,34.04911964883387 M 42.6000018237352,34.48911202550854 M 42.54207572842451,34.929104402182425 M 42.37224501016448,35.33911202550737 M 42.10208335174657,35.69119355352317 M 63.200001823735334,34.489112025607746 M 63.14207572842463,34.929104402281816 M 62.97224501016477,35.339112025606745 M 62.70208335174668,35.69119355362251 M 62.350001823728235,35.961355212037226 M 61.93999420040171,36.13118593029314 M 61.500001823727146,36.18911202559956 M 61.06000944705313,36.131185930288886 M 60.650001823728246,35.961355212029005 M 60.2979202957124,35.691193553610944 M 60.027758637297524,35.33911202559242 M 59.8579279190418,34.92910440226603 M 59.80000182373534,34.489112025591425 M 59.85792791904588,34.04911964891748 M 60.02775863730591,33.63911202559247 M 60.29792029572384,33.28703049757667 M 60.65000182374246,33.0168688391619 M 61.06000944706899,32.84703812090608 M 61.50000182374353,32.789112025599636 M 61.939994200417544,32.847038120910355 M 62.35000182374243,33.01686883917022 M 62.702083351758276,33.28703049758825 M 62.972245010173,33.63911202560669 M 63.14207572842888,34.04911964893327 M 41.750001823380885,101.56135521193781 M 41.33999420005415,101.73118593019369 M 40.9000018233796,101.7891120255002 M 40.4600094467056,101.73118593018941 M 40.05000182338091,101.5613552119296 M 39.69792029536525,101.29119355351148 M 39.42775863695036,100.93911202549303 M 39.25792791869465,100.5291044021665 M 39.20000182338801,100.08911202549194 M 39.2579279186987,99.64911964881794 M 39.42775863695839,99.23911202549306 M 39.69792029537669,98.8870304974773 M 40.050001823395306,98.61686883906253 M 40.46000944672146,98.44703812080664 M 40.90000182339624,98.38911202550022 M 41.33999420007005,98.44703812081087 M 41.75000182339528,98.61686883907069 M 42.102083351410926,98.88703049748885 M 42.37224500982545,99.23911202550724 M 42.5420757280815,99.64911964883379 M 42.600001823388,100.0891120255084 M 42.54207572807745,100.52910440218238 M 42.37224500981742,100.93911202550728 M 42.102083351399486,101.29119355352304 M 30.50000182324584,126.93911202545002 M 30.44207572793512,127.37910440212403 M 30.272245009675274,127.7891120254489 M 30.002083351257156,128.14119355346472 M 29.65000182323854,128.41135521187945 M 29.239994199912203,128.58118593013535 M 28.800001823237608,128.63911202544176 M 28.36000944656361,128.58118593013106 M 27.950001823238523,128.41135521187124 M 27.59792029522295,128.1411935534531 M 27.32775863680817,127.78911202543466 M 27.157927918552332,127.37910440210817 M 27.100001823245833,126.93911202543356 M 27.15792791855675,126.4991196487596 M 27.327758636816426,126.08911202543464 M 27.597920295234672,125.73703049741883 M 27.950001823252904,125.46686883900412 M 28.36000944657944,125.29703812074825 M 28.80000182325402,125.23911202544176 M 29.23999419992802,125.29703812075252 M 29.650001823252936,125.46686883901236 M 30.002083351268908,125.73703049743045 M 30.27224500968346,126.08911202544888 M 30.44207572793951,126.4991196487754 M 50.87224500967547,127.78911202554835 M 50.60208335125715,128.14119355356414 M 50.25000182323855,128.41135521197884 M 49.83999419991217,128.58118593023468 M 49.40000182323763,128.63911202554124 M 48.96000944656362,128.5811859302305 M 48.550001823238574,128.41135521197066 M 48.19792029522293,128.1411935535526 M 47.927758636808406,127.78911202553414 M 47.7579279185523,127.37910440220759 M 47.70000182324567,126.93911202553298 M 47.75792791855672,126.49911964885902 M 47.92775863681638,126.08911202553412 M 48.19792029523467,125.7370304975183 M 48.550001823252956,125.46686883910357 M 48.96000944657948,125.2970381208477 M 49.40000182325423,125.23911202554123 M 49.83999419992806,125.29703812085197 M 50.25000182325296,125.46686883911178 M 50.60208335126893,125.7370304975299 M 50.872245009683496,126.08911202554833 M 51.04207572793956,126.49911964887491 M 51.10000182324565,126.9391120255494 M 51.04207572793513,127.37910440222345 M 60.650001823380904,101.56135521202906 M 60.29792029536526,101.29119355361092 M 60.027758636950395,100.93911202559255 M 59.857927918694685,100.529104402266 M 59.800001823388016,100.08911202559139 M 59.85792791869875,99.64911964891742 M 60.02775863695841,99.2391120255925 M 60.297920295376684,98.8870304975767 M 60.65000182339533,98.61686883916195 M 61.06000944672165,98.44703812090609 M 61.50000182339623,98.38911202559963 M 61.93999420007023,98.44703812091035 M 62.35000182339513,98.61686883917022 M 62.702083351410934,98.88703049758831 M 62.972245009825656,99.23911202560672 M 63.14207572808154,99.64911964893327 M 63.20000182338801,100.08911202560779 M 63.1420757280773,100.52910440228183 M 62.972245009817456,100.93911202560676 M 62.702083351399324,101.29119355362252 M 62.35000182338092,101.56135521203726 M 61.939994200054386,101.73118593029315 M 61.50000182337982,101.78911202559965 M 61.06000944670579,101.73118593028887 M 77.35548304652258,23.694889514293322 M 77.41000172446213,24.108999986457086 M 77.35548304652679,24.523110458621392 M 77.19564237052136,24.908999986458145 M 76.94137257436645,25.240370836357936 M 76.61000172446936,25.49464063251631 M 76.22411219663415,25.65448130852568 M 75.8100017244704,25.70899998646534 M 75.3958912523061,25.654481308529935 M 75.0100017244693,25.49464063252456 M 74.6786308745695,25.240370836369664 M 74.4243610784112,24.90899998647247 M 74.26452040240177,24.52311045863734 M 74.21000172446215,24.108999986473584 M 74.26452040239751,23.694889514309246 M 74.42436107840292,23.308999986472482 M 74.67863087455783,22.977629136572705 M 75.01000172445498,22.72335934041439 M 75.39589125229013,22.56351866440495 M 75.8100017244539,22.508999986465312 M 76.2241121966182,22.563518664400714 M 76.61000172445497,22.72335934040613 M 76.94137257435476,22.977629136561035 M 77.19564237051317,23.308999986458158 M 94.97564237052137,24.90899998636639 M 94.72137257436648,25.240370836266145 M 94.39000172446939,25.494640632424495 M 94.00411219663417,25.654481308433887 M 93.59000172447033,25.70899998637349 M 93.17589125230612,25.65448130843818 M 92.79000172446939,25.494640632432752 M 92.45863087456954,25.240370836277812 M 92.20436107841121,24.908999986380667 M 92.04452040240179,24.523110458545563 M 91.99000172446216,24.10899998638178 M 92.0445204023976,23.69488951421748 M 92.20436107840302,23.30899998638067 M 92.45863087455785,22.977629136480882 M 92.79000172445501,22.723359340322578 M 93.17589125229021,22.563518664313175 M 93.59000172445381,22.50899998637354 M 94.00411219661828,22.56351866430889 M 94.39000172445499,22.723359340314335 M 94.72137257435477,22.9776291364692 M 94.97564237051319,23.30899998636639 M 95.13548304652261,23.694889514201506 M 95.19000172446214,24.10899998636528 M 95.13548304652679,24.52311045852958 M 92.79000166847493,68.44335933930816 M 93.17589119651268,68.28351866378807 M 93.59000166874563,68.22899998637355 M 94.00411214084073,68.28351866483396 M 94.39000166847492,68.44335934132869 M 94.72137251805236,68.69762913790379 M 94.97564231379037,69.02899998812339 M 95.13548298931062,69.41488951616118 M 95.19000166672512,69.828999988394 M 95.13548298826463,70.24311046048926 M 94.97564231176989,70.62899998812335 M 94.72137251519487,70.96037083770075 M 94.3900016649753,71.2146406334389 M 94.00411213693742,71.37448130895899 M 93.59000166470454,71.42899998637353 M 93.17589119260934,71.37448130791307 M 92.79000166497532,71.21464063141836 M 92.45863081539795,70.96037083484327 M 92.2043610196597,70.62899998462366 M 92.04452034413963,70.24311045658585 M 91.99000166672516,69.82899998435292 M 92.04452034518562,69.41488951225779 M 92.20436102168017,69.02899998462368 M 92.45863081825541,68.69762913504631 M 74.21000166672506,69.8289999864735 M 74.26452034466041,69.41488951430925 M 74.42436102066584,69.02899998647247 M 74.67863081682074,68.69762913657266 M 75.01000166671791,68.44335934041432 M 75.39589119455306,68.28351866440497 M 75.81000166671681,68.2289999864653 M 76.22411213888113,68.28351866440067 M 76.61000166671792,68.44335934040609 M 76.94137251661779,68.69762913656098 M 77.19564231277596,69.02899998645817 M 77.35548298878552,69.41488951429331 M 77.41000166672512,69.82899998645698 M 77.35548298878969,70.24311045862133 M 77.19564231278429,70.62899998645814 M 76.94137251662946,70.96037083635797 M 76.61000166673229,71.21464063251629 M 76.22411213889707,71.37448130852566 M 75.81000166673333,71.42899998646533 M 75.39589119456902,71.37448130852997 M 75.01000166673221,71.21464063252455 M 74.67863081683244,70.96037083636963 M 74.4243610206741,70.62899998647244 M 74.26452034466469,70.24311045863732 M 74.26452028584464,116.40488951234957 M 74.42436096233935,116.01899998471544 M 74.67863075891445,115.68762913513811 M 75.01000160913401,115.43335933939991 M 75.39589113717182,115.27351866387986 M 75.81000160940471,115.21899998646532 M 76.2241120814999,115.27351866492572 M 76.61000160913402,115.43335934142047 M 76.9413724587114,115.6876291379956 M 77.19564225444962,116.01899998821517 M 77.35548292996971,116.40488951625298 M 77.4100016073842,116.81899998848587 M 77.35548292892375,117.23311046058103 M 77.19564225242901,117.61899998821517 M 76.94137245585392,117.95037083779255 M 76.61000160563444,118.20464063353069 M 76.22411207759652,118.36448130905077 M 75.81000160536365,118.41899998646531 M 75.39589113326846,118.36448130800486 M 75.01000160563434,118.20464063151013 M 74.67863075605699,117.95037083493509 M 74.42436096031881,117.61899998471543 M 74.2645202847987,117.2331104566776 M 74.21000160738419,116.81899998444476 M 91.99000160738419,116.81899998435298 M 92.04452028584473,116.40488951225774 M 92.20436096233942,116.01899998462363 M 92.45863075891445,115.68762913504631 M 92.79000160913404,115.43335933930811 M 93.17589113717192,115.27351866378802 M 93.59000160940468,115.21899998637352 M 94.00411208149998,115.27351866483394 M 94.39000160913403,115.43335934132867 M 94.72137245871141,115.6876291379038 M 94.97564225444964,116.0189999881234 M 95.13548292996973,116.40488951616115 M 95.19000160738419,116.8189999883941 M 95.13548292892374,117.23311046048923 M 94.97564225242903,117.61899998812339 M 94.72137245585392,117.95037083770077 M 94.39000160563438,118.20464063343888 M 94.00411207759652,118.364481308959 M 93.59000160536358,118.41899998637354 M 93.17589113326845,118.36448130791308 M 92.79000160563442,118.20464063141833 M 92.45863075605698,117.95037083484326 M 92.20436096031881,117.61899998462366 M 92.04452028479874,117.23311045658582 M 40.40418718726188,54.624566656881434 M 45.08623209296647,55.827808482398055 M 45.08623211070453,57.018581549729596 M 40.22338923493159,58.159479377779085 M 45.70343912538108,59.17568877245574 M 45.70343913940437,60.11708528118389 M 38.93286555316692,58.76421755161652 M 38.93286553515024,57.55474124238954 M 43.99520965687725,56.351499271717486 M 38.9328654976307,55.03603800049431 M 38.93286547942829,53.81409286333728 M 45.70343902712487,52.579678797393456 M 45.703439044027164,53.71434213903934 M 48.777005275828,63.58341939998764 M 48.777005298766994,65.12331964936419 M 47.23710504939042,65.12331967230301 M 47.23710502645143,63.58341942292641 M 47.006431811157185,70.39139947623798 M 47.00643182945245,71.61957902736016 M 45.54757896162202,71.61957904909167 M 45.547579006385334,74.62456658026369 M 44.624885739552425,74.62456659400848 M 44.624885694789114,71.61957906283646 M 41.15855153020058,71.619579114472 M 40.3605465437395,71.69142100603517 M 40.15636948806967,71.80465111739954 M 39.98024729647574,72.00065768564033 M 39.76983583292355,72.52222973522109 M 39.69969868647135,73.23750697286196 M 39.74333959562642,74.0027569332467 M 39.874262300198964,74.76172377200717 M 38.93910020543588,74.76172378593765 M 38.81752911960412,73.8546165558284 M 38.77700541578294,72.97868139433731 M 38.81071020598459,72.28744074545617 M 38.91182459897172,71.71621256439873 M 39.08034859474405,71.26499685116528 M 39.31628219330169,70.93379360575541 M 39.64612165360714,70.69649621929597 M 40.09636323462347,70.5269980829132 M 40.667006936350376,70.42529919660714 M 41.35805275878809,70.39139956037798 M 44.62488567649383,70.39139951171427 M 44.624885651326125,68.70187332717556 M 45.54757891815905,68.70187331343078 M 45.547578943326755,70.39139949796943 M 45.528875879369906,82.33653665535527 M 44.50019757513056,82.33653667067884 M 44.82282848122331,81.2221351696135 M 44.93037210816746,80.28541446975711 M 44.886731202590326,79.76035991928498 M 44.75580850239018,79.29492195365425 M 44.537604007566955,78.88910057286478 M 44.232117718120506,78.54289577691661 M 43.85064950950779,78.26604883746188 M 43.40449925718546,78.06830102615287 M 42.8936669611537,77.94965234298924 M 42.31815262141245,77.91010278797128 M 41.73737799610704,77.95237991632345 M 41.22323367131314,78.07921128308456 M 40.77571964703051,78.29059688825464 M 40.39483592325932,78.58653673183363 M 40.09071342254201,78.95689989097738 M 39.87348306742075,79.39155544284174 M 39.743144857895714,79.89050338742669 M 39.69969879396673,80.45374372473223 M 39.80412524199805,81.40137464586994 M 40.117404559531636,82.46122501526806 M 39.15107039494312,82.46122502966287 M 38.87052175028511,81.37176119344304 M 38.77700552462633,80.2854145614196 M 38.8346738413733,79.4509772164208 M 39.00767881798933,78.71823874750952 M 39.29602045447447,78.0871991546857 M 39.699698750828716,77.5578584379492 M 40.2093620862378,77.13917856751424 M 40.8156588398877,76.84012151359482 M 41.518589011778246,76.66068727619111 M 42.31815260190979,76.60087585530296 M 43.10485771500858,76.6599079508158 M 43.80038452562671,76.83700426215091 M 44.40473303376426,77.13216478930798 M 44.91790323942095,77.54538953228698 M 45.3270366636025,78.06382001247673 M 45.61927482731433,78.67459775126561 M 45.794617730556354,79.37772274865361 M 45.85306537332872,80.17319500464077 M 45.772018007825764,81.25019001831689 M 48.77700558610604,84.41259645734428 M 48.777005604401324,85.64077600846643 M 45.7034395196133,85.64077605425128 M 44.43161907073549,85.64077607319668 M 45.05350187063708,86.10290199909501 M 45.497703873671,86.64139949871245 M 45.76422507983786,87.25626857204901 M 45.85306548913721,87.94750921910469 M 45.81731502828197,88.39901716851504 M 45.710063631367916,88.79032405914013 M 45.53131129839494,89.12142989097993 M 45.28105802936305,89.39233466403438 M 44.95930382427237,89.60303837830375 M 44.56604868312279,89.7535410337877 M 43.565035592646936,89.87394316839988 M 38.932866016587056,89.87394323740209 M 38.93286599829189,88.64576368627988 M 43.228377220237036,88.64576362229263 M 43.90559043627745,88.58419877429938 M 44.353688937266824,88.39950425390866 M 44.60384479270546,88.06985961177827 M 44.68723007209384,87.57344439856607 M 44.604234429229905,87.1066426541665 M 44.355247514383166,86.62893068780065 M 43.94026932755338,86.1403084994686 M 43.359299868740464,85.64077608917026 M 38.93286595352852,85.64077615510783 M 38.93286593523321,84.41259660398563 M 44.78074588984525,61.27668629243483 M 45.70343915667816,61.27668627869018 M 45.70343921165717,64.96745934602183 M 38.93286564557232,64.96745944687827 M 38.93286562727711,63.7392798957562 M 44.78074592652895,63.73927980864425 M 46.74458613737724,51.108357086123405 M 45.67850134934733,51.10835710200419 M 46.07126941010952,49.83030223331067 M 46.20219208656678,48.701873303679214 M 46.132054918611274,47.97361582342674 M 45.921643439540674,47.45343191134665 M 45.57095764935529,47.14132156744694 M 45.079997548054806,47.03728479171922 M 44.66930552926566,47.115214972402164 M 44.34743281893293,47.28899999743369 M 44.066125988243044,47.79320750008741 M 43.77700505117615,48.502372092923494 M 43.50269084841389,49.28790825661024 M 43.24707988698967,50.03603793622804 M 42.888601095333,50.79702609618199 M 42.424137263031014,51.340589070681844 M 41.85368839008386,51.66672685972813 M 41.17725447649123,51.77543946332064 M 40.650251670177894,51.719914221794554 M 40.17896893702314,51.55333848068514 M 39.76340627702727,51.27571223999253 M 39.40356369018997,50.8870354997169 M 39.11307895732722,50.40523219980471 M 38.90558985925425,49.84822628020239 M 38.78109639597129,49.216017740909535 M 38.739598567478396,48.50860658192677 M 38.85025321784384,47.28899999743369 M 39.18224191915836,45.83404298431098 M 40.397952642350404,45.834042966201636 M 39.84619823907363,47.28899999743369 M 39.708270629311315,47.972057315627204 M 39.662291834868554,48.546013051973326 M 39.75191154780585,49.36427988355579 M 40.020770659499775,49.99863150049791 M 40.440814306457156,50.40542700546284 M 40.98398762518531,50.54102550111254 M 41.397017549176724,50.46075741515952 M 41.71341405431781,50.21995317104441 M 42.00643150335178,49.72821376518319 M 42.349324259021955,48.8951401939918 M 42.648576117087316,48.07219754614241 M 43.109922735006066,47.03182970884473 M 43.58373818645046,46.3670853127596 M 44.14327683448856,46.009385803177395 M 44.86179304218874,45.89015262539238 M 45.370677082771124,45.93593659536813 M 45.818775588557756,46.073288521360965 M 46.20608855954886,46.30220840337213 M 46.53261599574439,46.622696241400064 M 46.79173383217875,47.02617971633898 M 46.976818003886336,47.50408650909721 M 47.08786851086704,48.05641661966187 M 47.12488535312109,48.683170048039884 M 47.02981055721838,49.82874361554025 M 75.8100016194515,111.8189999890345 M 75.81000167245405,74.82899999106326 M 77.1040968981818,74.65862912414286 M 78.31000167329995,74.15912701314258 M 79.34553558023615,73.36453390146083 M 80.14012869453333,72.32899999653154 M 80.63963080857934,71.1230952226749 M 80.81000167876832,69.82899999737751 M 80.63963081184784,68.53490477164974 M 80.14012870084757,67.32899999653154 M 79.34553558916582,66.29346608959537 M 78.31000168423651,65.49887297529818 M 77.1040969103799,64.99937086125222 M 75.81000168508248,64.8289999910633 M 75.81000173019113,29.10899999106334 M 76.46263269186922,29.066224298687615 M 77.10409695693954,28.938629123869426 M 77.72341889396158,28.728397655429546 M 78.31000173286726,28.43912701208596 M 78.85380887863532,28.075766694755202 M 79.34553564021482,27.64453389921936 M 79.77676843636908,27.15280713818224 M 80.14012875438375,26.608999992871194 M 80.42939939846514,26.022417154329283 M 80.63963086768392,25.403095217571668 M 80.76722604330881,24.761630952661804 M 80.81000173650536,24.108999991037514 M 88.59000173650534,24.108999990997326 M 88.6327774295707,24.761630951573554 M 88.76037260479322,25.403095215488374 M 88.97060407335225,26.02241715135647 M 89.25987471653933,26.608999989163674 M 89.62323503345671,27.15280713393985 M 90.05446782834933,27.644533894680997 M 90.5461945885481,28.07576669019199 M 91.09000173286725,28.43912700779331 M 91.67658457031067,28.72839765171817 M 92.29590650591433,28.93862912105614 M 92.93737076966872,29.066224297085366 M 93.59000173019112,29.108999990971498 M 93.59000168508247,64.8289999909715 M 92.29590645935465,64.9993708578919 M 91.0900016842365,65.49887296889219 M 90.05446777730032,66.29346608057394 M 89.25987466300316,67.32899998550322 M 88.76037254895714,68.53490475935983 M 88.59000167876829,69.82899998465732 M 88.76037254568864,71.12309521038503 M 89.25987465668894,72.3289999855032 M 90.05446776837064,73.36453389243941 M 91.09000167329997,74.15912700673658 M 92.2959064471566,74.65862912078258 M 93.59000167245405,74.8289999909715 M 93.59000161945153,111.81899998894272 M 92.93737065834691,111.86177568207103 M 92.29590639393007,111.9893708574933 M 91.67658445761268,112.19960232638181 M 91.09000161943382,112.48887297001677 M 90.54619447438645,112.8522332874845 M 90.05446771349403,113.28346608301058 M 89.62323491796818,113.77519284390308 M 89.25987460050055,114.31899998895065 M 88.9706039568658,114.90558282712956 M 88.76037248797752,115.52490476344698 M 88.63277731255553,116.16636902786391 M 88.5900016194274,116.81899998896853 M 80.81000161942735,116.81899998900866 M 80.76722592629363,116.1663690279128 M 80.63963075086818,115.52490476350499 M 80.4293992819787,114.90558282719672 M 80.14012863834495,114.31899998902657 M 79.77676832088054,113.7751928439869 M 79.34553552535951,113.28346608310113 M 78.85380876447367,112.85223328758033 M 78.31000161943382,112.48887297011603 M 77.72341878126362,112.19960232648253 M 77.10409684495528,111.98937085759323 M 76.46263258054742,111.86177568216803 "
  />
</svg>
