<?xml version="1.0" encoding="UTF-8" standalone="no"?>
<svg
   xmlns:dc="http://purl.org/dc/elements/1.1/"
   xmlns:cc="http://creativecommons.org/ns#"
   xmlns:rdf="http://www.w3.org/1999/02/22-rdf-syntax-ns#"
   xmlns:svg="http://www.w3.org/2000/svg"
   xmlns="http://www.w3.org/2000/svg"
   xmlns:sodipodi="http://sodipodi.sourceforge.net/DTD/sodipodi-0.dtd"
   xmlns:inkscape="http://www.inkscape.org/namespaces/inkscape"
   width="180.00000000000833mm"
   height="180.00000000000836mm"
   viewBox="0 0 180.00000000000833 180.00000000000836"
   version="1.1"
   id="svg2"
   inkscape:version="0.91 r13725"
   sodipodi:docname="inner-top.svg">
  <metadata
     id="metadata14">
    <rdf:RDF>
      <cc:Work
         rdf:about="">
        <dc:format>image/svg+xml</dc:format>
        <dc:type
           rdf:resource="http://purl.org/dc/dcmitype/StillImage" />
      </cc:Work>
    </rdf:RDF>
  </metadata>
  <defs
     id="defs12" />
  <sodipodi:namedview
     pagecolor="#ffffff"
     bordercolor="#666666"
     borderopacity="1"
     objecttolerance="10"
     gridtolerance="10"
     guidetolerance="10"
     inkscape:pageopacity="0"
     inkscape:pageshadow="2"
     inkscape:window-width="734"
     inkscape:window-height="480"
     id="namedview10"
     showgrid="false"
     inkscape:zoom="0.37002469"
     inkscape:cx="16.215134"
     inkscape:cy="318.89764"
     inkscape:window-x="355"
     inkscape:window-y="79"
     inkscape:window-maximized="0"
     inkscape:current-layer="svg2" />
  <desc
     id="desc4">Output from Flights of Ideas SVG Sketchup Plugin</desc>
  <path
     id="face0-cut"
     style="fill:none;stroke:#FF0000;stroke-width:0.1;stroke-miterlimit:4;stroke-dasharray:none;stroke-linejoin:round;stroke-linecap:round"
     d="M 179.00000000000833,179.00000000000833 L 179.00000000000833,1.0 L 1.0000000000000284,1.0 L 1.0,179.00000000000836 L 179.00000000000833,179.00000000000833 M 11.000000000091667,60.20000000075276 L 11.000000000093877,44.20000000075279 L 15.000000000093916,44.20000000075367 L 15.000000000091681,60.200000000753455 L 11.000000000091667,60.20000000075276 M 11.000000000076348,135.80000000074972 L 11.000000000078494,119.70211305990134 L 15.000000000077694,119.70211305990122 L 15.00000000007634,135.80000000075054 L 11.000000000076348,135.80000000074972 M 44.200000000067014,169.00000000072032 L 44.2000000000688,165.00000000072032 L 60.200000000068634,165.000000000726 L 60.200000000066986,169.00000000072635 L 44.200000000067014,169.00000000072032 M 119.70211305921563,169.00000000075323 L 119.70211305921652,165.0000000007541 L 135.80000000006572,165.0000000007592 L 135.80000000006572,169.00000000072023 L 119.70211305921563,169.00000000075323 M 165.0000000000579,135.80000000076322 L 165.00000000006133,119.80000000076342 L 169.0000000000614,119.80000000076441 L 169.00000000005795,135.80000000076438 L 165.0000000000579,135.80000000076322 M 165.0000000000799,60.297886941615545 L 165.00000000008245,44.20000000076632 L 169.00000000008242,44.2000000007674 L 169.0000000000791,60.297886941615765 L 165.0000000000799,60.297886941615545 M 147.83000000162457,61.600000001516584 L 147.83000000162457,48.60000000151656 L 162.00000000058108,48.600000001964055 L 162.00000000048814,131.39999999962166 L 147.83000000048258,131.39999999962166 L 147.8300000016156,118.39999999997931 L 134.83000000006513,118.40000000075455 L 134.8300000000741,61.6000000007477 L 147.83000000162457,61.600000001516584 M 131.39999999872816,162.00000000016132 L 48.6000000001015,162.000000000805 L 48.6000000001015,147.83000000081634 L 61.600000000646276,147.8300000020335 L 61.60000000007881,134.83000000074298 L 118.39999999937078,134.830000000761 L 118.39999999864787,147.83000000205146 L 131.39999999864781,147.83000000205146 L 131.39999999872816,162.00000000016132 M 32.16999999941089,118.40000000326467 L 32.170000001113245,131.40000000156243 L 18.000000001276966,131.39999999987384 L 18.000000000604505,48.60000000240819 L 32.17000000058636,48.60000000240821 L 32.16999999941558,61.600000001729754 L 45.170000000064306,61.600000001454475 L 45.17000000005964,118.40000000147859 L 32.16999999941089,118.40000000326467 M 60.29788702580383,12.101557984284668 L 44.20000008495462,12.101558224135157 L 44.20000002535699,8.10155822413643 L 60.297886966205425,8.10155798428664 L 60.29788702580383,12.101557984284668 M 119.80000002535425,8.101557097743004 L 135.80000002535428,8.10155685935186 L 135.8000000849518,12.101556859350676 L 119.80000008495193,12.101557097741868 L 119.80000002535425,8.101557097743004 M 77.45000008529169,18.701556591210633 L 169.00000000008592,18.70155659121068 L 169.00000000008592,32.00155659121067 L 77.45000008529166,32.00155659121067 L 77.45000008529169,18.701556591210633 M 141.00000000000833,141.00000000000833 L 156.00000000000833,141.00000000000833 L 156.00000000000833,156.00000000000833 L 141.00000000000833,156.00000000000833 L 141.00000000000833,141.00000000000833 M 39.0,141.0000000000083 L 39.0,156.00000000000838 L 24.000000000000007,156.00000000000833 L 24.000000000000007,141.00000000000833 L 39.0,141.0000000000083 M 38.99999999999998,24.00000000000003 L 39.0,38.99999999999998 L 24.000000000000007,39.00000000000002 L 24.00000000000003,24.000000000000007 L 38.99999999999998,24.00000000000003 M 8.971555524521804,11.54351999037707 L 8.89999975972885,10.999999995661927 L 8.971555524521804,10.45648000094674 L 9.181346411781522,9.949999995662235 L 9.51507551923708,9.515075755170656 L 9.949999759728858,9.181346647715124 L 10.456479765013526,8.971555760455516 L 10.999999759728869,8.89999999566254 L 11.543519754444123,8.971555760455516 L 12.049999759728877,9.181346647715099 L 12.484924000220637,9.515075755170589 L 12.818653107676191,9.94999999566221 L 13.028443994935866,10.456480000946812 L 13.099999759728888,10.999999995661838 L 13.028443994935888,11.543519990377025 L 12.818653107676237,12.04999999566153 L 12.484924000220591,12.484924236153176 L 12.049999759728902,12.818653343608599 L 11.543519754444123,13.028444230868363 L 10.999999759728802,13.099999995661271 L 10.456479765013547,13.028444230868296 L 9.949999759728815,12.818653343608666 L 9.5150755192371,12.484924236153176 L 9.181346411781522,12.049999995661555 L 8.971555524521804,11.54351999037707 M 9.949999396926703,170.81865232106946 L 9.515075156434968,170.48492321361329 L 9.18134604897941,170.04999897312166 L 8.971555161719646,169.54351896783734 L 8.899999396926717,168.99999897312173 L 8.971555161719667,168.45647897840638 L 9.181346048979389,167.94999897312175 L 9.515075156434946,167.51507473263015 L 9.949999396926703,167.18134562517452 L 10.456479402211414,166.97155473791454 L 10.999999396926736,166.89999897312177 L 11.543519391642011,166.9715547379146 L 12.049999396926722,167.18134562517477 L 12.484923637418458,167.5150747326301 L 12.818652744874058,167.94999897312167 L 13.028443632133754,168.45647897840632 L 13.099999396926687,168.99999897312208 L 13.028443632133754,169.54351896783703 L 12.818652744874036,170.04999897312226 L 12.484923637418458,170.48492321361357 L 12.049999396926722,170.81865232106864 L 11.543519391642011,171.02844320832847 L 10.999999396926711,171.09999897312196 L 10.456479402211436,171.02844320832824 L 9.949999396926703,170.81865232106946 M 169.543520373747,8.971555754688548 L 170.0500003790317,9.181346641948178 L 170.48492461952347,9.515075749403668 L 170.81865372697902,9.94999998989529 L 171.02844461423874,10.456479995179844 L 171.10000037903168,10.99999998989496 L 171.02844461423877,11.543519984610079 L 170.81865372697902,12.049999989894655 L 170.4849246195234,12.484924230386255 L 170.05000037903167,12.818653337841699 L 169.543520373747,13.028444225101374 L 169.00000037903172,13.099999989894282 L 168.4564803843164,13.028444225101374 L 167.95000037903168,12.81865333784172 L 167.51507613853994,12.48492423038623 L 167.18134703108436,12.049999989894634 L 166.97155614382467,11.543519984610079 L 166.9000003790317,10.999999989894938 L 166.97155614382467,10.456479995179844 L 167.18134703108439,9.94999998989529 L 167.51507613853997,9.515075749403668 L 167.95000037903174,9.181346641948178 L 168.45648038431642,8.971555754688573 L 169.0000003790317,8.899999989895598 L 169.543520373747,8.971555754688548 M 170.48492490990063,170.48492418306313 L 170.05000066940886,170.8186532905187 L 169.54352066412417,171.02844417777843 L 169.00000066940888,171.09999994257137 L 168.45648067469358,171.02844417777843 L 167.95000066940887,170.8186532905187 L 167.51507642891713,170.48492418306313 L 167.18134732146157,170.04999994257136 L 166.97155643420186,169.54351993728667 L 166.90000066940888,168.99999994257138 L 166.97155643420186,168.45647994785608 L 167.18134732146157,167.94999994257137 L 167.51507642891713,167.51507570207963 L 167.9500006694089,167.18134659462407 L 168.45648067469358,166.97155570736436 L 169.00000066940888,166.89999994257138 L 169.54352066412417,166.97155570736436 L 170.0500006694089,167.18134659462407 L 170.48492490990063,167.51507570207963 L 170.8186540173562,167.9499999425714 L 171.02844490461592,168.45647994785608 L 171.10000066940887,168.99999994257138 L 171.02844490461592,169.54351993728667 L 170.8186540173562,170.0499999425714 L 170.48492490990063,170.48492418306313 M 167.70710678128214,89.29289321764699 L 167.8660254038798,89.49999999883373 L 167.96592582638417,89.74118095373134 L 168.00000000009481,89.99999999883389 L 167.96592582638357,90.25881904393634 L 167.86602540387867,90.49999999883372 L 167.70710678128057,90.7071067800201 L 167.50000000009382,90.86602540261774 L 167.25881904519622,90.96592582512213 L 167.00000000009368,90.99999999883275 L 166.7411809549912,90.96592582512153 L 166.50000000009385,90.86602540261663 L 166.29289321890747,90.7071067800185 L 166.13397459630983,90.49999999883178 L 166.03407417380546,90.25881904393418 L 166.00000000009481,89.99999999883163 L 166.03407417380603,89.74118095372914 L 166.13397459631094,89.49999999883178 L 166.29289321890906,89.29289321764543 L 166.50000000009578,89.13397459504775 L 166.74118095499338,89.0340741725434 L 167.00000000009595,88.99999999883275 L 167.2588190451984,89.03407417254398 L 167.50000000009578,89.1339745950489 L 167.70710678128214,89.29289321764699 M 88.46592582570389,167.25881904585623 L 88.36602540319927,167.50000000075372 L 88.20710678060138,167.70710678194013 L 87.99999999941483,167.86602540453808 L 87.75881904451737,167.96592582704275 L 87.49999999941483,168.0000000007537 L 87.24118095431231,167.9659258270427 L 86.99999999941481,167.86602540453816 L 86.79289321822829,167.70710678194033 L 86.63397459563039,167.50000000075372 L 86.53407417312577,167.25881904585611 L 86.49999999941483,167.00000000075366 L 86.53407417312576,166.74118095565112 L 86.63397459563039,166.50000000075366 L 86.79289321822829,166.2928932195671 L 86.99999999941483,166.13397459696927 L 87.24118095431231,166.03407417446465 L 87.49999999941483,166.0000000007537 L 87.75881904451737,166.0340741744647 L 87.99999999941483,166.13397459696924 L 88.20710678060138,166.2928932195672 L 88.36602540319927,166.50000000075363 L 88.4659258257039,166.74118095565112 L 88.49999999941483,167.00000000075374 L 88.46592582570389,167.25881904585623 M 92.75881904451735,167.96592582704272 L 92.49999999941484,168.0000000007536 L 92.24118095431231,167.9659258270426 L 91.99999999941483,167.86602540453802 L 91.79289321822827,167.7071067819402 L 91.63397459563039,167.5000000007537 L 91.53407417312576,167.25881904585611 L 91.49999999941483,167.00000000075363 L 91.53407417312575,166.74118095565126 L 91.63397459563039,166.50000000075372 L 91.79289321822827,166.29289321956716 L 91.99999999941483,166.1339745969692 L 92.24118095431231,166.0340741744647 L 92.49999999941483,166.00000000075377 L 92.75881904451735,166.0340741744647 L 92.99999999941483,166.13397459696927 L 93.20710678060138,166.2928932195671 L 93.36602540319926,166.50000000075366 L 93.46592582570389,166.74118095565112 L 93.49999999941483,167.0000000007537 L 93.46592582570389,167.25881904585626 L 93.36602540319927,167.50000000075363 L 93.20710678060138,167.7071067819402 L 92.99999999941483,167.8660254045381 L 92.75881904451735,167.96592582704272 M 12.133974591814752,85.5000000081296 L 12.034074169278565,85.25881905324515 L 11.999999995533742,85.00000000814705 L 12.03407416921075,84.74118096304016 L 12.133974591683838,84.50000000812949 L 12.292893214254562,84.2928932269222 L 12.499999995420357,84.13397460429715 L 12.74118095030476,84.0340741817609 L 12.999999995402803,84.0000000080161 L 13.258819040509781,84.03407418169314 L 13.49999999542031,84.13397460416627 L 13.707106776627658,84.29289322673704 L 13.866025399252681,84.50000000790274 L 13.965925821788893,84.74118096278713 L 13.99999999553376,85.00000000788512 L 13.965925821856708,85.25881905299212 L 13.86602539938362,85.50000000790274 L 13.707106776812854,85.70710678911013 L 13.499999995647169,85.86602541173507 L 13.258819040762745,85.96592583427123 L 12.999999995664677,86.00000000801613 L 12.741180950557677,85.96592583433909 L 12.499999995647126,85.86602541186608 L 12.292893214439776,85.7071067892953 L 12.133974591814752,85.5000000081296 M 13.866025399907478,89.50000000790271 L 13.965925822443666,89.74118096278711 L 13.999999996188443,90.00000000788523 L 13.965925822511437,90.25881905299218 L 13.866025400038417,90.50000000790268 L 13.707106777467605,90.70710678911013 L 13.49999999630192,90.86602541173505 L 13.258819041417517,90.96592583427125 L 12.999999996319449,91.0000000080161 L 12.741180951212428,90.96592583433906 L 12.499999996301899,90.86602541186605 L 12.292893215094551,90.70710678929527 L 12.13397459246955,90.50000000812949 L 12.034074169933291,90.25881905324513 L 11.999999996188492,90.0000000081471 L 12.034074169865544,89.74118096304011 L 12.133974592338543,89.50000000812955 L 12.292893214909355,89.29289322692217 L 12.499999996075083,89.13397460429712 L 12.741180950959489,89.03407418176091 L 12.999999996057532,89.00000000801612 L 13.258819041164532,89.03407418169311 L 13.499999996075037,89.13397460416627 L 13.707106777282455,89.29289322673694 L 13.866025399907478,89.50000000790271 M 13.49999999695667,95.86602541173511 L 13.258819042072268,95.96592583427132 L 12.9999999969742,96.00000000801617 L 12.7411809518672,95.96592583433912 L 12.499999996956674,95.8660254118661 L 12.292893215749324,95.70710678929527 L 12.133974593124321,95.50000000812948 L 12.034074170588113,95.25881905324513 L 11.99999999684329,95.00000000814708 L 12.034074170520295,94.74118096304007 L 12.13397459299334,94.50000000812953 L 12.292893215564085,94.29289322692223 L 12.49999999672988,94.13397460429714 L 12.74118095161424,94.03407418176096 L 12.99999999671233,94.00000000801609 L 13.258819041819283,94.03407418169323 L 13.499999996729855,94.13397460416616 L 13.707106777937206,94.29289322673695 L 13.866025400562254,94.5000000079027 L 13.965925823098441,94.74118096278707 L 13.999999996843286,95.00000000788515 L 13.965925823166234,95.25881905299215 L 13.86602540069319,95.50000000790271 L 13.707106778122423,95.70710678911004 L 13.49999999695667,95.86602541173511 " />
  <path
     id="face0-interior"
     style="fill:none;stroke:#FF0000;stroke-width:0.1;stroke-miterlimit:4;stroke-dasharray:none;stroke-linejoin:round;stroke-linecap:round"
     d="M 179.00000000000833,179.00000000000833 M 179.00000000000833,1.0 M 1.0000000000000284,1.0 M 1.0,179.00000000000836 M 11.000000000091667,60.20000000075276 M 11.000000000093877,44.20000000075279 M 15.000000000093916,44.20000000075367 M 15.000000000091681,60.200000000753455 M 11.000000000076348,135.80000000074972 M 11.000000000078494,119.70211305990134 M 15.000000000077694,119.70211305990122 M 15.00000000007634,135.80000000075054 M 44.200000000067014,169.00000000072032 M 44.2000000000688,165.00000000072032 M 60.200000000068634,165.000000000726 M 60.200000000066986,169.00000000072635 M 119.70211305921563,169.00000000075323 M 119.70211305921652,165.0000000007541 M 135.80000000006572,165.0000000007592 M 135.80000000006572,169.00000000072023 M 165.0000000000579,135.80000000076322 M 165.00000000006133,119.80000000076342 M 169.0000000000614,119.80000000076441 M 169.00000000005795,135.80000000076438 M 165.0000000000799,60.297886941615545 M 165.00000000008245,44.20000000076632 M 169.00000000008242,44.2000000007674 M 169.0000000000791,60.297886941615765 M 147.83000000162457,61.600000001516584 M 147.83000000162457,48.60000000151656 M 162.00000000058108,48.600000001964055 M 162.00000000048814,131.39999999962166 M 147.83000000048258,131.39999999962166 M 147.8300000016156,118.39999999997931 M 134.83000000006513,118.40000000075455 M 134.8300000000741,61.6000000007477 M 131.39999999872816,162.00000000016132 M 48.6000000001015,162.000000000805 M 48.6000000001015,147.83000000081634 M 61.600000000646276,147.8300000020335 M 61.60000000007881,134.83000000074298 M 118.39999999937078,134.830000000761 M 118.39999999864787,147.83000000205146 M 131.39999999864781,147.83000000205146 M 32.16999999941089,118.40000000326467 M 32.170000001113245,131.40000000156243 M 18.000000001276966,131.39999999987384 M 18.000000000604505,48.60000000240819 M 32.17000000058636,48.60000000240821 M 32.16999999941558,61.600000001729754 M 45.170000000064306,61.600000001454475 M 45.17000000005964,118.40000000147859 M 60.29788702580383,12.101557984284668 M 44.20000008495462,12.101558224135157 M 44.20000002535699,8.10155822413643 M 60.297886966205425,8.10155798428664 M 119.80000002535425,8.101557097743004 M 135.80000002535428,8.10155685935186 M 135.8000000849518,12.101556859350676 M 119.80000008495193,12.101557097741868 M 77.45000008529169,18.701556591210633 M 169.00000000008592,18.70155659121068 M 169.00000000008592,32.00155659121067 M 77.45000008529166,32.00155659121067 M 141.00000000000833,141.00000000000833 M 156.00000000000833,141.00000000000833 M 156.00000000000833,156.00000000000833 M 141.00000000000833,156.00000000000833 M 39.0,141.0000000000083 M 39.0,156.00000000000838 M 24.000000000000007,156.00000000000833 M 24.000000000000007,141.00000000000833 M 38.99999999999998,24.00000000000003 M 39.0,38.99999999999998 M 24.000000000000007,39.00000000000002 M 24.00000000000003,24.000000000000007 M 8.971555524521804,11.54351999037707 M 8.89999975972885,10.999999995661927 M 8.971555524521804,10.45648000094674 M 9.181346411781522,9.949999995662235 M 9.51507551923708,9.515075755170656 M 9.949999759728858,9.181346647715124 M 10.456479765013526,8.971555760455516 M 10.999999759728869,8.89999999566254 M 11.543519754444123,8.971555760455516 M 12.049999759728877,9.181346647715099 M 12.484924000220637,9.515075755170589 M 12.818653107676191,9.94999999566221 M 13.028443994935866,10.456480000946812 M 13.099999759728888,10.999999995661838 M 13.028443994935888,11.543519990377025 M 12.818653107676237,12.04999999566153 M 12.484924000220591,12.484924236153176 M 12.049999759728902,12.818653343608599 M 11.543519754444123,13.028444230868363 M 10.999999759728802,13.099999995661271 M 10.456479765013547,13.028444230868296 M 9.949999759728815,12.818653343608666 M 9.5150755192371,12.484924236153176 M 9.181346411781522,12.049999995661555 M 9.949999396926703,170.81865232106946 M 9.515075156434968,170.48492321361329 M 9.18134604897941,170.04999897312166 M 8.971555161719646,169.54351896783734 M 8.899999396926717,168.99999897312173 M 8.971555161719667,168.45647897840638 M 9.181346048979389,167.94999897312175 M 9.515075156434946,167.51507473263015 M 9.949999396926703,167.18134562517452 M 10.456479402211414,166.97155473791454 M 10.999999396926736,166.89999897312177 M 11.543519391642011,166.9715547379146 M 12.049999396926722,167.18134562517477 M 12.484923637418458,167.5150747326301 M 12.818652744874058,167.94999897312167 M 13.028443632133754,168.45647897840632 M 13.099999396926687,168.99999897312208 M 13.028443632133754,169.54351896783703 M 12.818652744874036,170.04999897312226 M 12.484923637418458,170.48492321361357 M 12.049999396926722,170.81865232106864 M 11.543519391642011,171.02844320832847 M 10.999999396926711,171.09999897312196 M 10.456479402211436,171.02844320832824 M 169.543520373747,8.971555754688548 M 170.0500003790317,9.181346641948178 M 170.48492461952347,9.515075749403668 M 170.81865372697902,9.94999998989529 M 171.02844461423874,10.456479995179844 M 171.10000037903168,10.99999998989496 M 171.02844461423877,11.543519984610079 M 170.81865372697902,12.049999989894655 M 170.4849246195234,12.484924230386255 M 170.05000037903167,12.818653337841699 M 169.543520373747,13.028444225101374 M 169.00000037903172,13.099999989894282 M 168.4564803843164,13.028444225101374 M 167.95000037903168,12.81865333784172 M 167.51507613853994,12.48492423038623 M 167.18134703108436,12.049999989894634 M 166.97155614382467,11.543519984610079 M 166.9000003790317,10.999999989894938 M 166.97155614382467,10.456479995179844 M 167.18134703108439,9.94999998989529 M 167.51507613853997,9.515075749403668 M 167.95000037903174,9.181346641948178 M 168.45648038431642,8.971555754688573 M 169.0000003790317,8.899999989895598 M 170.48492490990063,170.48492418306313 M 170.05000066940886,170.8186532905187 M 169.54352066412417,171.02844417777843 M 169.00000066940888,171.09999994257137 M 168.45648067469358,171.02844417777843 M 167.95000066940887,170.8186532905187 M 167.51507642891713,170.48492418306313 M 167.18134732146157,170.04999994257136 M 166.97155643420186,169.54351993728667 M 166.90000066940888,168.99999994257138 M 166.97155643420186,168.45647994785608 M 167.18134732146157,167.94999994257137 M 167.51507642891713,167.51507570207963 M 167.9500006694089,167.18134659462407 M 168.45648067469358,166.97155570736436 M 169.00000066940888,166.89999994257138 M 169.54352066412417,166.97155570736436 M 170.0500006694089,167.18134659462407 M 170.48492490990063,167.51507570207963 M 170.8186540173562,167.9499999425714 M 171.02844490461592,168.45647994785608 M 171.10000066940887,168.99999994257138 M 171.02844490461592,169.54351993728667 M 170.8186540173562,170.0499999425714 M 167.70710678128214,89.29289321764699 M 167.8660254038798,89.49999999883373 M 167.96592582638417,89.74118095373134 M 168.00000000009481,89.99999999883389 M 167.96592582638357,90.25881904393634 M 167.86602540387867,90.49999999883372 M 167.70710678128057,90.7071067800201 M 167.50000000009382,90.86602540261774 M 167.25881904519622,90.96592582512213 M 167.00000000009368,90.99999999883275 M 166.7411809549912,90.96592582512153 M 166.50000000009385,90.86602540261663 M 166.29289321890747,90.7071067800185 M 166.13397459630983,90.49999999883178 M 166.03407417380546,90.25881904393418 M 166.00000000009481,89.99999999883163 M 166.03407417380603,89.74118095372914 M 166.13397459631094,89.49999999883178 M 166.29289321890906,89.29289321764543 M 166.50000000009578,89.13397459504775 M 166.74118095499338,89.0340741725434 M 167.00000000009595,88.99999999883275 M 167.2588190451984,89.03407417254398 M 167.50000000009578,89.1339745950489 M 88.46592582570389,167.25881904585623 M 88.36602540319927,167.50000000075372 M 88.20710678060138,167.70710678194013 M 87.99999999941483,167.86602540453808 M 87.75881904451737,167.96592582704275 M 87.49999999941483,168.0000000007537 M 87.24118095431231,167.9659258270427 M 86.99999999941481,167.86602540453816 M 86.79289321822829,167.70710678194033 M 86.63397459563039,167.50000000075372 M 86.53407417312577,167.25881904585611 M 86.49999999941483,167.00000000075366 M 86.53407417312576,166.74118095565112 M 86.63397459563039,166.50000000075366 M 86.79289321822829,166.2928932195671 M 86.99999999941483,166.13397459696927 M 87.24118095431231,166.03407417446465 M 87.49999999941483,166.0000000007537 M 87.75881904451737,166.0340741744647 M 87.99999999941483,166.13397459696924 M 88.20710678060138,166.2928932195672 M 88.36602540319927,166.50000000075363 M 88.4659258257039,166.74118095565112 M 88.49999999941483,167.00000000075374 M 92.75881904451735,167.96592582704272 M 92.49999999941484,168.0000000007536 M 92.24118095431231,167.9659258270426 M 91.99999999941483,167.86602540453802 M 91.79289321822827,167.7071067819402 M 91.63397459563039,167.5000000007537 M 91.53407417312576,167.25881904585611 M 91.49999999941483,167.00000000075363 M 91.53407417312575,166.74118095565126 M 91.63397459563039,166.50000000075372 M 91.79289321822827,166.29289321956716 M 91.99999999941483,166.1339745969692 M 92.24118095431231,166.0340741744647 M 92.49999999941483,166.00000000075377 M 92.75881904451735,166.0340741744647 M 92.99999999941483,166.13397459696927 M 93.20710678060138,166.2928932195671 M 93.36602540319926,166.50000000075366 M 93.46592582570389,166.74118095565112 M 93.49999999941483,167.0000000007537 M 93.46592582570389,167.25881904585626 M 93.36602540319927,167.50000000075363 M 93.20710678060138,167.7071067819402 M 92.99999999941483,167.8660254045381 M 12.133974591814752,85.5000000081296 M 12.034074169278565,85.25881905324515 M 11.999999995533742,85.00000000814705 M 12.03407416921075,84.74118096304016 M 12.133974591683838,84.50000000812949 M 12.292893214254562,84.2928932269222 M 12.499999995420357,84.13397460429715 M 12.74118095030476,84.0340741817609 M 12.999999995402803,84.0000000080161 M 13.258819040509781,84.03407418169314 M 13.49999999542031,84.13397460416627 M 13.707106776627658,84.29289322673704 M 13.866025399252681,84.50000000790274 M 13.965925821788893,84.74118096278713 M 13.99999999553376,85.00000000788512 M 13.965925821856708,85.25881905299212 M 13.86602539938362,85.50000000790274 M 13.707106776812854,85.70710678911013 M 13.499999995647169,85.86602541173507 M 13.258819040762745,85.96592583427123 M 12.999999995664677,86.00000000801613 M 12.741180950557677,85.96592583433909 M 12.499999995647126,85.86602541186608 M 12.292893214439776,85.7071067892953 M 13.866025399907478,89.50000000790271 M 13.965925822443666,89.74118096278711 M 13.999999996188443,90.00000000788523 M 13.965925822511437,90.25881905299218 M 13.866025400038417,90.50000000790268 M 13.707106777467605,90.70710678911013 M 13.49999999630192,90.86602541173505 M 13.258819041417517,90.96592583427125 M 12.999999996319449,91.0000000080161 M 12.741180951212428,90.96592583433906 M 12.499999996301899,90.86602541186605 M 12.292893215094551,90.70710678929527 M 12.13397459246955,90.50000000812949 M 12.034074169933291,90.25881905324513 M 11.999999996188492,90.0000000081471 M 12.034074169865544,89.74118096304011 M 12.133974592338543,89.50000000812955 M 12.292893214909355,89.29289322692217 M 12.499999996075083,89.13397460429712 M 12.741180950959489,89.03407418176091 M 12.999999996057532,89.00000000801612 M 13.258819041164532,89.03407418169311 M 13.499999996075037,89.13397460416627 M 13.707106777282455,89.29289322673694 M 13.49999999695667,95.86602541173511 M 13.258819042072268,95.96592583427132 M 12.9999999969742,96.00000000801617 M 12.7411809518672,95.96592583433912 M 12.499999996956674,95.8660254118661 M 12.292893215749324,95.70710678929527 M 12.133974593124321,95.50000000812948 M 12.034074170588113,95.25881905324513 M 11.99999999684329,95.00000000814708 M 12.034074170520295,94.74118096304007 M 12.13397459299334,94.50000000812953 M 12.292893215564085,94.29289322692223 M 12.49999999672988,94.13397460429714 M 12.74118095161424,94.03407418176096 M 12.99999999671233,94.00000000801609 M 13.258819041819283,94.03407418169323 M 13.499999996729855,94.13397460416616 M 13.707106777937206,94.29289322673695 M 13.866025400562254,94.5000000079027 M 13.965925823098441,94.74118096278707 M 13.999999996843286,95.00000000788515 M 13.965925823166234,95.25881905299215 M 13.86602540069319,95.50000000790271 M 13.707106778122423,95.70710678911004 " />
  <path
     id="path8"
     style="fill:none;stroke:#FF0000;stroke-width:0.1;stroke-miterlimit:4;stroke-dasharray:none;stroke-linejoin:round;stroke-linecap:round"
     d="M 179.00000000000833,179.00000000000833 M 179.00000000000833,1.0 M 1.0000000000000284,1.0 M 1.0,179.00000000000836 M 11.000000000091667,60.20000000075276 M 11.000000000093877,44.20000000075279 M 15.000000000093916,44.20000000075367 M 15.000000000091681,60.200000000753455 M 11.000000000076348,135.80000000074972 M 11.000000000078494,119.70211305990134 M 15.000000000077694,119.70211305990122 M 15.00000000007634,135.80000000075054 M 44.200000000067014,169.00000000072032 M 44.2000000000688,165.00000000072032 M 60.200000000068634,165.000000000726 M 60.200000000066986,169.00000000072635 M 119.70211305921563,169.00000000075323 M 119.70211305921652,165.0000000007541 M 135.80000000006572,165.0000000007592 M 135.80000000006572,169.00000000072023 M 165.0000000000579,135.80000000076322 M 165.00000000006133,119.80000000076342 M 169.0000000000614,119.80000000076441 M 169.00000000005795,135.80000000076438 M 165.0000000000799,60.297886941615545 M 165.00000000008245,44.20000000076632 M 169.00000000008242,44.2000000007674 M 169.0000000000791,60.297886941615765 M 147.83000000162457,61.600000001516584 M 147.83000000162457,48.60000000151656 M 162.00000000058108,48.600000001964055 M 162.00000000048814,131.39999999962166 M 147.83000000048258,131.39999999962166 M 147.8300000016156,118.39999999997931 M 134.83000000006513,118.40000000075455 M 134.8300000000741,61.6000000007477 M 131.39999999872816,162.00000000016132 M 48.6000000001015,162.000000000805 M 48.6000000001015,147.83000000081634 M 61.600000000646276,147.8300000020335 M 61.60000000007881,134.83000000074298 M 118.39999999937078,134.830000000761 M 118.39999999864787,147.83000000205146 M 131.39999999864781,147.83000000205146 M 32.16999999941089,118.40000000326467 M 32.170000001113245,131.40000000156243 M 18.000000001276966,131.39999999987384 M 18.000000000604505,48.60000000240819 M 32.17000000058636,48.60000000240821 M 32.16999999941558,61.600000001729754 M 45.170000000064306,61.600000001454475 M 45.17000000005964,118.40000000147859 M 60.29788702580383,12.101557984284668 M 44.20000008495462,12.101558224135157 M 44.20000002535699,8.10155822413643 M 60.297886966205425,8.10155798428664 M 119.80000002535425,8.101557097743004 M 135.80000002535428,8.10155685935186 M 135.8000000849518,12.101556859350676 M 119.80000008495193,12.101557097741868 M 77.45000008529169,18.701556591210633 M 169.00000000008592,18.70155659121068 M 169.00000000008592,32.00155659121067 M 77.45000008529166,32.00155659121067 M 141.00000000000833,141.00000000000833 M 156.00000000000833,141.00000000000833 M 156.00000000000833,156.00000000000833 M 141.00000000000833,156.00000000000833 M 39.0,141.0000000000083 M 39.0,156.00000000000838 M 24.000000000000007,156.00000000000833 M 24.000000000000007,141.00000000000833 M 38.99999999999998,24.00000000000003 M 39.0,38.99999999999998 M 24.000000000000007,39.00000000000002 M 24.00000000000003,24.000000000000007 M 8.971555524521804,11.54351999037707 M 8.89999975972885,10.999999995661927 M 8.971555524521804,10.45648000094674 M 9.181346411781522,9.949999995662235 M 9.51507551923708,9.515075755170656 M 9.949999759728858,9.181346647715124 M 10.456479765013526,8.971555760455516 M 10.999999759728869,8.89999999566254 M 11.543519754444123,8.971555760455516 M 12.049999759728877,9.181346647715099 M 12.484924000220637,9.515075755170589 M 12.818653107676191,9.94999999566221 M 13.028443994935866,10.456480000946812 M 13.099999759728888,10.999999995661838 M 13.028443994935888,11.543519990377025 M 12.818653107676237,12.04999999566153 M 12.484924000220591,12.484924236153176 M 12.049999759728902,12.818653343608599 M 11.543519754444123,13.028444230868363 M 10.999999759728802,13.099999995661271 M 10.456479765013547,13.028444230868296 M 9.949999759728815,12.818653343608666 M 9.5150755192371,12.484924236153176 M 9.181346411781522,12.049999995661555 M 9.949999396926703,170.81865232106946 M 9.515075156434968,170.48492321361329 M 9.18134604897941,170.04999897312166 M 8.971555161719646,169.54351896783734 M 8.899999396926717,168.99999897312173 M 8.971555161719667,168.45647897840638 M 9.181346048979389,167.94999897312175 M 9.515075156434946,167.51507473263015 M 9.949999396926703,167.18134562517452 M 10.456479402211414,166.97155473791454 M 10.999999396926736,166.89999897312177 M 11.543519391642011,166.9715547379146 M 12.049999396926722,167.18134562517477 M 12.484923637418458,167.5150747326301 M 12.818652744874058,167.94999897312167 M 13.028443632133754,168.45647897840632 M 13.099999396926687,168.99999897312208 M 13.028443632133754,169.54351896783703 M 12.818652744874036,170.04999897312226 M 12.484923637418458,170.48492321361357 M 12.049999396926722,170.81865232106864 M 11.543519391642011,171.02844320832847 M 10.999999396926711,171.09999897312196 M 10.456479402211436,171.02844320832824 M 169.543520373747,8.971555754688548 M 170.0500003790317,9.181346641948178 M 170.48492461952347,9.515075749403668 M 170.81865372697902,9.94999998989529 M 171.02844461423874,10.456479995179844 M 171.10000037903168,10.99999998989496 M 171.02844461423877,11.543519984610079 M 170.81865372697902,12.049999989894655 M 170.4849246195234,12.484924230386255 M 170.05000037903167,12.818653337841699 M 169.543520373747,13.028444225101374 M 169.00000037903172,13.099999989894282 M 168.4564803843164,13.028444225101374 M 167.95000037903168,12.81865333784172 M 167.51507613853994,12.48492423038623 M 167.18134703108436,12.049999989894634 M 166.97155614382467,11.543519984610079 M 166.9000003790317,10.999999989894938 M 166.97155614382467,10.456479995179844 M 167.18134703108439,9.94999998989529 M 167.51507613853997,9.515075749403668 M 167.95000037903174,9.181346641948178 M 168.45648038431642,8.971555754688573 M 169.0000003790317,8.899999989895598 M 170.48492490990063,170.48492418306313 M 170.05000066940886,170.8186532905187 M 169.54352066412417,171.02844417777843 M 169.00000066940888,171.09999994257137 M 168.45648067469358,171.02844417777843 M 167.95000066940887,170.8186532905187 M 167.51507642891713,170.48492418306313 M 167.18134732146157,170.04999994257136 M 166.97155643420186,169.54351993728667 M 166.90000066940888,168.99999994257138 M 166.97155643420186,168.45647994785608 M 167.18134732146157,167.94999994257137 M 167.51507642891713,167.51507570207963 M 167.9500006694089,167.18134659462407 M 168.45648067469358,166.97155570736436 M 169.00000066940888,166.89999994257138 M 169.54352066412417,166.97155570736436 M 170.0500006694089,167.18134659462407 M 170.48492490990063,167.51507570207963 M 170.8186540173562,167.9499999425714 M 171.02844490461592,168.45647994785608 M 171.10000066940887,168.99999994257138 M 171.02844490461592,169.54351993728667 M 170.8186540173562,170.0499999425714 M 167.70710678128214,89.29289321764699 M 167.8660254038798,89.49999999883373 M 167.96592582638417,89.74118095373134 M 168.00000000009481,89.99999999883389 M 167.96592582638357,90.25881904393634 M 167.86602540387867,90.49999999883372 M 167.70710678128057,90.7071067800201 M 167.50000000009382,90.86602540261774 M 167.25881904519622,90.96592582512213 M 167.00000000009368,90.99999999883275 M 166.7411809549912,90.96592582512153 M 166.50000000009385,90.86602540261663 M 166.29289321890747,90.7071067800185 M 166.13397459630983,90.49999999883178 M 166.03407417380546,90.25881904393418 M 166.00000000009481,89.99999999883163 M 166.03407417380603,89.74118095372914 M 166.13397459631094,89.49999999883178 M 166.29289321890906,89.29289321764543 M 166.50000000009578,89.13397459504775 M 166.74118095499338,89.0340741725434 M 167.00000000009595,88.99999999883275 M 167.2588190451984,89.03407417254398 M 167.50000000009578,89.1339745950489 M 88.46592582570389,167.25881904585623 M 88.36602540319927,167.50000000075372 M 88.20710678060138,167.70710678194013 M 87.99999999941483,167.86602540453808 M 87.75881904451737,167.96592582704275 M 87.49999999941483,168.0000000007537 M 87.24118095431231,167.9659258270427 M 86.99999999941481,167.86602540453816 M 86.79289321822829,167.70710678194033 M 86.63397459563039,167.50000000075372 M 86.53407417312577,167.25881904585611 M 86.49999999941483,167.00000000075366 M 86.53407417312576,166.74118095565112 M 86.63397459563039,166.50000000075366 M 86.79289321822829,166.2928932195671 M 86.99999999941483,166.13397459696927 M 87.24118095431231,166.03407417446465 M 87.49999999941483,166.0000000007537 M 87.75881904451737,166.0340741744647 M 87.99999999941483,166.13397459696924 M 88.20710678060138,166.2928932195672 M 88.36602540319927,166.50000000075363 M 88.4659258257039,166.74118095565112 M 88.49999999941483,167.00000000075374 M 92.75881904451735,167.96592582704272 M 92.49999999941484,168.0000000007536 M 92.24118095431231,167.9659258270426 M 91.99999999941483,167.86602540453802 M 91.79289321822827,167.7071067819402 M 91.63397459563039,167.5000000007537 M 91.53407417312576,167.25881904585611 M 91.49999999941483,167.00000000075363 M 91.53407417312575,166.74118095565126 M 91.63397459563039,166.50000000075372 M 91.79289321822827,166.29289321956716 M 91.99999999941483,166.1339745969692 M 92.24118095431231,166.0340741744647 M 92.49999999941483,166.00000000075377 M 92.75881904451735,166.0340741744647 M 92.99999999941483,166.13397459696927 M 93.20710678060138,166.2928932195671 M 93.36602540319926,166.50000000075366 M 93.46592582570389,166.74118095565112 M 93.49999999941483,167.0000000007537 M 93.46592582570389,167.25881904585626 M 93.36602540319927,167.50000000075363 M 93.20710678060138,167.7071067819402 M 92.99999999941483,167.8660254045381 M 12.133974591814752,85.5000000081296 M 12.034074169278565,85.25881905324515 M 11.999999995533742,85.00000000814705 M 12.03407416921075,84.74118096304016 M 12.133974591683838,84.50000000812949 M 12.292893214254562,84.2928932269222 M 12.499999995420357,84.13397460429715 M 12.74118095030476,84.0340741817609 M 12.999999995402803,84.0000000080161 M 13.258819040509781,84.03407418169314 M 13.49999999542031,84.13397460416627 M 13.707106776627658,84.29289322673704 M 13.866025399252681,84.50000000790274 M 13.965925821788893,84.74118096278713 M 13.99999999553376,85.00000000788512 M 13.965925821856708,85.25881905299212 M 13.86602539938362,85.50000000790274 M 13.707106776812854,85.70710678911013 M 13.499999995647169,85.86602541173507 M 13.258819040762745,85.96592583427123 M 12.999999995664677,86.00000000801613 M 12.741180950557677,85.96592583433909 M 12.499999995647126,85.86602541186608 M 12.292893214439776,85.7071067892953 M 13.866025399907478,89.50000000790271 M 13.965925822443666,89.74118096278711 M 13.999999996188443,90.00000000788523 M 13.965925822511437,90.25881905299218 M 13.866025400038417,90.50000000790268 M 13.707106777467605,90.70710678911013 M 13.49999999630192,90.86602541173505 M 13.258819041417517,90.96592583427125 M 12.999999996319449,91.0000000080161 M 12.741180951212428,90.96592583433906 M 12.499999996301899,90.86602541186605 M 12.292893215094551,90.70710678929527 M 12.13397459246955,90.50000000812949 M 12.034074169933291,90.25881905324513 M 11.999999996188492,90.0000000081471 M 12.034074169865544,89.74118096304011 M 12.133974592338543,89.50000000812955 M 12.292893214909355,89.29289322692217 M 12.499999996075083,89.13397460429712 M 12.741180950959489,89.03407418176091 M 12.999999996057532,89.00000000801612 M 13.258819041164532,89.03407418169311 M 13.499999996075037,89.13397460416627 M 13.707106777282455,89.29289322673694 M 13.49999999695667,95.86602541173511 M 13.258819042072268,95.96592583427132 M 12.9999999969742,96.00000000801617 M 12.7411809518672,95.96592583433912 M 12.499999996956674,95.8660254118661 M 12.292893215749324,95.70710678929527 M 12.133974593124321,95.50000000812948 M 12.034074170588113,95.25881905324513 M 11.99999999684329,95.00000000814708 M 12.034074170520295,94.74118096304007 M 12.13397459299334,94.50000000812953 M 12.292893215564085,94.29289322692223 M 12.49999999672988,94.13397460429714 M 12.74118095161424,94.03407418176096 M 12.99999999671233,94.00000000801609 M 13.258819041819283,94.03407418169323 M 13.499999996729855,94.13397460416616 M 13.707106777937206,94.29289322673695 M 13.866025400562254,94.5000000079027 M 13.965925823098441,94.74118096278707 M 13.999999996843286,95.00000000788515 M 13.965925823166234,95.25881905299215 M 13.86602540069319,95.50000000790271 M 13.707106778122423,95.70710678911004 " />
</svg>
