<?xml version="1.0" encoding="UTF-8" standalone="no"?>
<svg
   xmlns:dc="http://purl.org/dc/elements/1.1/"
   xmlns:cc="http://creativecommons.org/ns#"
   xmlns:rdf="http://www.w3.org/1999/02/22-rdf-syntax-ns#"
   xmlns:svg="http://www.w3.org/2000/svg"
   xmlns="http://www.w3.org/2000/svg"
   xmlns:sodipodi="http://sodipodi.sourceforge.net/DTD/sodipodi-0.dtd"
   xmlns:inkscape="http://www.inkscape.org/namespaces/inkscape"
   width="134.7000000390039mm"
   height="103.60000000072961mm"
   viewBox="0 0 134.7000000390039 103.60000000072961"
   version="1.1"
   id="svg2"
   inkscape:version="0.91 r13725"
   sodipodi:docname="mount-node.svg">
  <metadata
     id="metadata14">
    <rdf:RDF>
      <cc:Work
         rdf:about="">
        <dc:format>image/svg+xml</dc:format>
        <dc:type
           rdf:resource="http://purl.org/dc/dcmitype/StillImage" />
      </cc:Work>
    </rdf:RDF>
  </metadata>
  <defs
     id="defs12" />
  <sodipodi:namedview
     pagecolor="#ffffff"
     bordercolor="#666666"
     borderopacity="1"
     objecttolerance="10"
     gridtolerance="10"
     guidetolerance="10"
     inkscape:pageopacity="0"
     inkscape:pageshadow="2"
     inkscape:window-width="734"
     inkscape:window-height="480"
     id="namedview10"
     showgrid="false"
     inkscape:zoom="0.64290005"
     inkscape:cx="64.431133"
     inkscape:cy="183.5433"
     inkscape:window-x="0"
     inkscape:window-y="0"
     inkscape:window-maximized="0"
     inkscape:current-layer="svg2" />
  <desc
     id="desc4">Output from Flights of Ideas SVG Sketchup Plugin</desc>
  <path
     id="face0-cut"
     style="fill:none;stroke:#FF0000;stroke-width:0.1;stroke-miterlimit:4;stroke-dasharray:none;stroke-linejoin:round;stroke-linecap:round"
     d="M 5.000000017813234,102.60000000072961 L 129.70000001781077,102.60000000072961 L 129.70000001778618,97.5999999999987 L 133.7000000390039,97.59999999997406 L 133.70000003890124,81.50211305912511 L 129.7000000176835,81.50211305915055 L 129.70000001761497,69.5000000000051 L 122.70000001761488,69.50000000004694 L 122.70000001736953,27.000000000040096 L 129.70000001736713,26.999999999998586 L 129.7000000173374,21.999999999998565 L 133.69999998299443,21.999999999976545 L 133.6999999829067,5.999999999976517 L 129.7000000172346,5.999999999999972 L 129.70000001720513,1.0 L 5.000000017218702,1.0000000007295142 L 5.0000000173111205,16.80000000073725 L 1.0,16.800000000760484 L 1.0000000004096306,86.8000000007616 L 5.000000017720778,86.80000000073831 L 5.000000017813234,102.60000000072961 M 97.00000001762967,71.90000000019553 L 96.94888875706575,72.28822856784961 L 96.79903812331112,72.65000000019674 L 96.56066018941618,72.96066017197802 L 96.25000001763776,73.19903810587671 L 95.88822858529254,73.34888873963601 L 95.50000001763902,73.40000000020477 L 95.11177144998497,73.34888873964063 L 94.75000001763779,73.19903810588596 L 94.4393398458566,72.96066017199107 L 94.20096191195783,72.65000000021277 L 94.05111127819858,72.28822856786753 L 94.00000001762983,71.90000000021398 L 94.05111127819383,71.51177143255978 L 94.20096191194851,71.15000000021276 L 94.43933984584342,70.83933982843153 L 94.75000001762182,70.60096189453265 L 95.11177144996701,70.45111126077352 L 95.50000001762055,70.40000000020476 L 95.88822858527456,70.45111126076867 L 96.25000001762179,70.60096189452346 L 96.56066018940307,70.83933982841846 L 96.79903812330177,71.15000000019663 L 96.94888875706108,71.51177143254196 L 97.00000001762967,71.90000000019553 M 17.4000000172827,10.100000000673212 L 17.451111277845932,9.711771433022413 L 17.600961911598894,9.350000000678506 L 17.839339845491253,9.039339828899536 L 18.150000017266617,8.80096189500248 L 18.51177144960834,8.651111261244324 L 18.90000001725815,8.60000000067545 L 19.28822858490886,8.651111261238626 L 19.650000017253006,8.800961894991566 L 19.960660189031657,9.039339828883847 L 20.19903812292868,9.35000000065915 L 20.348888756686918,9.711771433001147 L 20.40000001725553,10.100000000650809 L 20.348888756692837,10.488228568301565 L 20.19903812293989,10.850000000645565 L 19.960660189047495,11.160660172424173 L 19.650000017272127,11.399038106321221 L 19.2882285849303,11.548888740079654 L 18.90000001728061,11.600000000648258 L 18.51177144962979,11.548888740085395 L 18.150000017285695,11.39903810633232 L 17.839339845507112,11.160660172439975 L 17.600961911610106,10.850000000664906 L 17.451111277851883,10.488228568322938 L 17.4000000172827,10.100000000673212 M 20.40000001762974,71.90000000063982 L 20.348888757066746,72.28822856829409 L 20.199038123312974,72.65000000064168 L 19.960660189418796,72.96066017242353 L 19.650000017641062,73.19903810632317 L 19.288228585296267,73.3488887400831 L 18.900000017642874,73.40000000065294 L 18.511771449988757,73.34888874008992 L 18.150000017641126,73.19903810633615 L 17.83933984585929,72.960660172442 L 17.600961911959722,72.65000000066438 L 17.45111127819963,72.28822856831941 L 17.400000017629836,71.90000000066607 L 17.451111278192883,71.51177143301176 L 17.600961911946605,71.15000000066438 L 17.839339845840737,70.83933982888247 L 18.15000001761826,70.60096189498287 L 18.511771449963362,70.45111126122269 L 18.900000017616705,70.40000000065308 L 19.28822858527092,70.45111126121603 L 19.650000017618233,70.60096189496983 L 19.960660189400244,70.83933982886406 L 20.199038123299868,71.15000000064173 L 20.348888757059992,71.51177143298648 L 20.40000001762974,71.90000000063982 M 96.56066018905763,11.160660171978321 L 96.25000001727926,11.399038105877068 L 95.88822858493393,11.54888873963587 L 95.50000001728041,11.600000000204517 L 95.11177144962633,11.548888739640383 L 94.75000001727925,11.399038105885467 L 94.43933984549795,11.160660171990486 L 94.20096191159936,10.850000000212034 L 94.0511112778404,10.488228567866628 L 94.00000001727179,10.100000000213058 L 94.05111127783603,9.711771432559054 L 94.20096191159078,9.350000000212084 L 94.43933984548583,9.039339828430776 L 94.75000001726437,8.800961894532065 L 95.11177144960975,8.651111260773106 L 95.50000001726328,8.600000000204567 L 95.88822858491731,8.651111260768651 L 96.2500000172644,8.800961894523695 L 96.5606601890455,9.039339828418733 L 96.79903812294414,9.350000000196978 L 96.94888875670327,9.71177143254237 L 97.00000001727194,10.100000000196061 L 96.94888875670759,10.488228567849973 L 96.79903812295271,10.850000000196964 L 96.56066018905763,11.160660171978321 M 105.16862916734584,5.4313708500499445 L 104.91435937118719,5.10000000015296 L 104.75451869517754,4.714110472317827 L 104.70000001723756,4.300000000154178 L 104.75451869517269,3.8858895279897077 L 104.91435937117784,3.500000000152962 L 105.1686291673325,3.168629150252979 L 105.50000001722952,2.9143593540943016 L 105.88588954506454,2.7545186780846826 L 106.30000001722821,2.7000000001448434 L 106.71411048939261,2.7545186780797906 L 107.10000001722955,2.9143593540850077 L 107.43137086712946,3.1686291502395783 L 107.68564066328797,3.5000000001367866 L 107.84548133929772,3.885889527971681 L 107.90000001723757,4.3000000001355225 L 107.8454813393025,4.714110472299804 L 107.68564066329743,5.100000000136774 L 107.43137086714273,5.431370850036572 L 107.10000001724566,5.685640646195175 L 106.7141104894107,5.8454813222048045 L 106.30000001724706,5.900000000144722 L 105.88588954508265,5.845481322209665 L 105.50000001724574,5.685640646204561 L 105.16862916734584,5.4313708500499445 M 107.70050187309765,98.52631107474268 L 107.8530263584767,98.91515043843937 L 107.89971466523534,99.3302166637719 L 107.83738506242439,99.74322367341371 L 107.67028520947068,100.12602572218469 L 107.40980268520771,100.45253548306987 L 107.0736889431959,100.70050185544908 L 106.68484957949961,100.85302634082782 L 106.26978335416673,100.89971464758679 L 105.85677634452475,100.83738504477526 L 105.47397429575435,100.67028519182217 L 105.14746453486876,100.40980266755851 L 104.89949816248982,100.07368892554729 L 104.74697367711079,99.68484956185098 L 104.70028537035219,99.26978333651765 L 104.76261497316302,98.85677632687648 L 104.92971482611674,98.4739742781057 L 105.19019735037975,98.14746451722003 L 105.52631109239138,97.89949814484106 L 105.9151504560879,97.74697365946223 L 106.33021668142058,97.70028535270362 L 106.74322369106262,97.76261495551476 L 107.12602573983311,97.92971480846803 L 107.45253550071858,98.19019733273119 L 107.70050187309765,98.52631107474268 M 17.19928600650293,98.40097970707345 L 17.386870992164866,98.77417086794712 L 17.47147519454176,99.18319641524234 L 17.447332977056867,99.6001819338577 L 17.316089591934592,99.99671054980062 L 17.086689058981207,100.34575949318915 L 16.77476464541516,100.62354165536202 L 16.401573484541423,100.81112664102398 L 15.992547937246142,100.89573084340083 L 15.575562418630906,100.87158862591588 L 15.179033802687977,100.74034524079357 L 14.829984859299426,100.51094470784005 L 14.552202697126509,100.19902029427418 L 14.3646177114645,99.82582913340045 L 14.280013509087837,99.41680358610527 L 14.304155726572732,98.99981806749 L 14.435399111695007,98.60328945154698 L 14.664799644648394,98.25424050815853 L 14.976724058214428,97.97645834598563 L 15.349915219088038,97.78887336032369 L 15.75894076638323,97.70426915794687 L 16.17592628499869,97.72841137543183 L 16.572454900941615,97.85965476055411 L 16.921503844330037,98.08905529350749 L 17.19928600650293,98.40097970707345 M 17.240593022326905,5.310410311251552 L 16.936807409021405,5.597070511747823 L 16.569179920112973,5.795337500424573 L 16.162763761437994,5.8916997096553345 L 15.745255522575535,5.879590214127276 L 15.34510770003912,5.759834255948469 L 14.989589706659038,5.540593005762666 L 14.702929506163024,5.236807392456996 L 14.50466251748611,4.869179903548655 L 14.408300308255328,4.462763744873705 L 14.42040980378367,4.045255506011301 L 14.540165761962523,3.645107683474791 L 14.759407012148197,3.2895896900946155 L 15.063192625453668,3.0029294895986354 L 15.43082011436188,2.80466250092179 L 15.837236273037087,2.7083002916909287 L 16.254744511899418,2.7204097872192605 L 16.654892334435964,2.840165745398153 L 17.010410327816054,3.0594069955836893 L 17.297070528312062,3.3631926088893387 L 17.49533751698899,3.730820097797622 L 17.59169972621955,4.137236256472708 L 17.57959023069141,4.554744495335246 L 17.45983427251257,4.954892317871561 L 17.240593022326905,5.310410311251552 M 95.49999997260366,16.100000000204723 L 95.50000006230103,65.90000000020511 L 93.94708578296722,66.10444503283811 L 92.50000004341186,66.70384756261497 L 91.25735934629363,67.65735929730567 L 90.3038476023591,68.89999998733083 L 89.70444506181758,70.34708572242734 L 89.5000000176327,71.9000000002403 L 24.90000001763412,71.9000000006185 L 24.695554977287788,70.34708573720128 L 24.09615244777375,68.90000001352803 L 23.142640720533624,67.65735932931464 L 21.900000043413325,66.70384759283061 L 20.452914324198865,66.10444505255188 L 18.900000062302475,65.90000000065363 L 18.900000017307736,16.100000000653303 L 20.452914287921487,15.895554958378668 L 21.90000001730283,15.296152423342285 L 23.142640704416547,14.342640687747782 L 24.096152439996693,13.10000000062292 L 24.6955549750159,11.652914271234444 L 24.900000017272486,10.100000000618053 L 89.500000017272,10.100000000239888 L 89.70444505761836,11.652914263657003 L 90.30384758713234,13.099999987330357 L 91.2573593143725,14.342640671543805 L 92.4999999914928,15.296152408027702 L 93.94708571070726,15.895554948306533 L 95.49999997260366,16.100000000204723 " />
  <path
     id="face0-interior"
     style="fill:none;stroke:#FF0000;stroke-width:0.1;stroke-miterlimit:4;stroke-dasharray:none;stroke-linejoin:round;stroke-linecap:round"
     d="M 5.000000017813234,102.60000000072961 M 129.70000001781077,102.60000000072961 M 129.70000001778618,97.5999999999987 M 133.7000000390039,97.59999999997406 M 133.70000003890124,81.50211305912511 M 129.7000000176835,81.50211305915055 M 129.70000001761497,69.5000000000051 M 122.70000001761488,69.50000000004694 M 122.70000001736953,27.000000000040096 M 129.70000001736713,26.999999999998586 M 129.7000000173374,21.999999999998565 M 133.69999998299443,21.999999999976545 M 133.6999999829067,5.999999999976517 M 129.7000000172346,5.999999999999972 M 129.70000001720513,1.0 M 5.000000017218702,1.0000000007295142 M 5.0000000173111205,16.80000000073725 M 1.0,16.800000000760484 M 1.0000000004096306,86.8000000007616 M 5.000000017720778,86.80000000073831 M 97.00000001762967,71.90000000019553 M 96.94888875706575,72.28822856784961 M 96.79903812331112,72.65000000019674 M 96.56066018941618,72.96066017197802 M 96.25000001763776,73.19903810587671 M 95.88822858529254,73.34888873963601 M 95.50000001763902,73.40000000020477 M 95.11177144998497,73.34888873964063 M 94.75000001763779,73.19903810588596 M 94.4393398458566,72.96066017199107 M 94.20096191195783,72.65000000021277 M 94.05111127819858,72.28822856786753 M 94.00000001762983,71.90000000021398 M 94.05111127819383,71.51177143255978 M 94.20096191194851,71.15000000021276 M 94.43933984584342,70.83933982843153 M 94.75000001762182,70.60096189453265 M 95.11177144996701,70.45111126077352 M 95.50000001762055,70.40000000020476 M 95.88822858527456,70.45111126076867 M 96.25000001762179,70.60096189452346 M 96.56066018940307,70.83933982841846 M 96.79903812330177,71.15000000019663 M 96.94888875706108,71.51177143254196 M 17.4000000172827,10.100000000673212 M 17.451111277845932,9.711771433022413 M 17.600961911598894,9.350000000678506 M 17.839339845491253,9.039339828899536 M 18.150000017266617,8.80096189500248 M 18.51177144960834,8.651111261244324 M 18.90000001725815,8.60000000067545 M 19.28822858490886,8.651111261238626 M 19.650000017253006,8.800961894991566 M 19.960660189031657,9.039339828883847 M 20.19903812292868,9.35000000065915 M 20.348888756686918,9.711771433001147 M 20.40000001725553,10.100000000650809 M 20.348888756692837,10.488228568301565 M 20.19903812293989,10.850000000645565 M 19.960660189047495,11.160660172424173 M 19.650000017272127,11.399038106321221 M 19.2882285849303,11.548888740079654 M 18.90000001728061,11.600000000648258 M 18.51177144962979,11.548888740085395 M 18.150000017285695,11.39903810633232 M 17.839339845507112,11.160660172439975 M 17.600961911610106,10.850000000664906 M 17.451111277851883,10.488228568322938 M 20.40000001762974,71.90000000063982 M 20.348888757066746,72.28822856829409 M 20.199038123312974,72.65000000064168 M 19.960660189418796,72.96066017242353 M 19.650000017641062,73.19903810632317 M 19.288228585296267,73.3488887400831 M 18.900000017642874,73.40000000065294 M 18.511771449988757,73.34888874008992 M 18.150000017641126,73.19903810633615 M 17.83933984585929,72.960660172442 M 17.600961911959722,72.65000000066438 M 17.45111127819963,72.28822856831941 M 17.400000017629836,71.90000000066607 M 17.451111278192883,71.51177143301176 M 17.600961911946605,71.15000000066438 M 17.839339845840737,70.83933982888247 M 18.15000001761826,70.60096189498287 M 18.511771449963362,70.45111126122269 M 18.900000017616705,70.40000000065308 M 19.28822858527092,70.45111126121603 M 19.650000017618233,70.60096189496983 M 19.960660189400244,70.83933982886406 M 20.199038123299868,71.15000000064173 M 20.348888757059992,71.51177143298648 M 96.56066018905763,11.160660171978321 M 96.25000001727926,11.399038105877068 M 95.88822858493393,11.54888873963587 M 95.50000001728041,11.600000000204517 M 95.11177144962633,11.548888739640383 M 94.75000001727925,11.399038105885467 M 94.43933984549795,11.160660171990486 M 94.20096191159936,10.850000000212034 M 94.0511112778404,10.488228567866628 M 94.00000001727179,10.100000000213058 M 94.05111127783603,9.711771432559054 M 94.20096191159078,9.350000000212084 M 94.43933984548583,9.039339828430776 M 94.75000001726437,8.800961894532065 M 95.11177144960975,8.651111260773106 M 95.50000001726328,8.600000000204567 M 95.88822858491731,8.651111260768651 M 96.2500000172644,8.800961894523695 M 96.5606601890455,9.039339828418733 M 96.79903812294414,9.350000000196978 M 96.94888875670327,9.71177143254237 M 97.00000001727194,10.100000000196061 M 96.94888875670759,10.488228567849973 M 96.79903812295271,10.850000000196964 M 105.16862916734584,5.4313708500499445 M 104.91435937118719,5.10000000015296 M 104.75451869517754,4.714110472317827 M 104.70000001723756,4.300000000154178 M 104.75451869517269,3.8858895279897077 M 104.91435937117784,3.500000000152962 M 105.1686291673325,3.168629150252979 M 105.50000001722952,2.9143593540943016 M 105.88588954506454,2.7545186780846826 M 106.30000001722821,2.7000000001448434 M 106.71411048939261,2.7545186780797906 M 107.10000001722955,2.9143593540850077 M 107.43137086712946,3.1686291502395783 M 107.68564066328797,3.5000000001367866 M 107.84548133929772,3.885889527971681 M 107.90000001723757,4.3000000001355225 M 107.8454813393025,4.714110472299804 M 107.68564066329743,5.100000000136774 M 107.43137086714273,5.431370850036572 M 107.10000001724566,5.685640646195175 M 106.7141104894107,5.8454813222048045 M 106.30000001724706,5.900000000144722 M 105.88588954508265,5.845481322209665 M 105.50000001724574,5.685640646204561 M 107.70050187309765,98.52631107474268 M 107.8530263584767,98.91515043843937 M 107.89971466523534,99.3302166637719 M 107.83738506242439,99.74322367341371 M 107.67028520947068,100.12602572218469 M 107.40980268520771,100.45253548306987 M 107.0736889431959,100.70050185544908 M 106.68484957949961,100.85302634082782 M 106.26978335416673,100.89971464758679 M 105.85677634452475,100.83738504477526 M 105.47397429575435,100.67028519182217 M 105.14746453486876,100.40980266755851 M 104.89949816248982,100.07368892554729 M 104.74697367711079,99.68484956185098 M 104.70028537035219,99.26978333651765 M 104.76261497316302,98.85677632687648 M 104.92971482611674,98.4739742781057 M 105.19019735037975,98.14746451722003 M 105.52631109239138,97.89949814484106 M 105.9151504560879,97.74697365946223 M 106.33021668142058,97.70028535270362 M 106.74322369106262,97.76261495551476 M 107.12602573983311,97.92971480846803 M 107.45253550071858,98.19019733273119 M 17.19928600650293,98.40097970707345 M 17.386870992164866,98.77417086794712 M 17.47147519454176,99.18319641524234 M 17.447332977056867,99.6001819338577 M 17.316089591934592,99.99671054980062 M 17.086689058981207,100.34575949318915 M 16.77476464541516,100.62354165536202 M 16.401573484541423,100.81112664102398 M 15.992547937246142,100.89573084340083 M 15.575562418630906,100.87158862591588 M 15.179033802687977,100.74034524079357 M 14.829984859299426,100.51094470784005 M 14.552202697126509,100.19902029427418 M 14.3646177114645,99.82582913340045 M 14.280013509087837,99.41680358610527 M 14.304155726572732,98.99981806749 M 14.435399111695007,98.60328945154698 M 14.664799644648394,98.25424050815853 M 14.976724058214428,97.97645834598563 M 15.349915219088038,97.78887336032369 M 15.75894076638323,97.70426915794687 M 16.17592628499869,97.72841137543183 M 16.572454900941615,97.85965476055411 M 16.921503844330037,98.08905529350749 M 17.240593022326905,5.310410311251552 M 16.936807409021405,5.597070511747823 M 16.569179920112973,5.795337500424573 M 16.162763761437994,5.8916997096553345 M 15.745255522575535,5.879590214127276 M 15.34510770003912,5.759834255948469 M 14.989589706659038,5.540593005762666 M 14.702929506163024,5.236807392456996 M 14.50466251748611,4.869179903548655 M 14.408300308255328,4.462763744873705 M 14.42040980378367,4.045255506011301 M 14.540165761962523,3.645107683474791 M 14.759407012148197,3.2895896900946155 M 15.063192625453668,3.0029294895986354 M 15.43082011436188,2.80466250092179 M 15.837236273037087,2.7083002916909287 M 16.254744511899418,2.7204097872192605 M 16.654892334435964,2.840165745398153 M 17.010410327816054,3.0594069955836893 M 17.297070528312062,3.3631926088893387 M 17.49533751698899,3.730820097797622 M 17.59169972621955,4.137236256472708 M 17.57959023069141,4.554744495335246 M 17.45983427251257,4.954892317871561 M 95.49999997260366,16.100000000204723 M 95.50000006230103,65.90000000020511 M 93.94708578296722,66.10444503283811 M 92.50000004341186,66.70384756261497 M 91.25735934629363,67.65735929730567 M 90.3038476023591,68.89999998733083 M 89.70444506181758,70.34708572242734 M 89.5000000176327,71.9000000002403 M 24.90000001763412,71.9000000006185 M 24.695554977287788,70.34708573720128 M 24.09615244777375,68.90000001352803 M 23.142640720533624,67.65735932931464 M 21.900000043413325,66.70384759283061 M 20.452914324198865,66.10444505255188 M 18.900000062302475,65.90000000065363 M 18.900000017307736,16.100000000653303 M 20.452914287921487,15.895554958378668 M 21.90000001730283,15.296152423342285 M 23.142640704416547,14.342640687747782 M 24.096152439996693,13.10000000062292 M 24.6955549750159,11.652914271234444 M 24.900000017272486,10.100000000618053 M 89.500000017272,10.100000000239888 M 89.70444505761836,11.652914263657003 M 90.30384758713234,13.099999987330357 M 91.2573593143725,14.342640671543805 M 92.4999999914928,15.296152408027702 M 93.94708571070726,15.895554948306533 " />
  <path
     id="path8"
     style="fill:none;stroke:#FF0000;stroke-width:0.1;stroke-miterlimit:4;stroke-dasharray:none;stroke-linejoin:round;stroke-linecap:round"
     d="M 5.000000017813234,102.60000000072961 M 129.70000001781077,102.60000000072961 M 129.70000001778618,97.5999999999987 M 133.7000000390039,97.59999999997406 M 133.70000003890124,81.50211305912511 M 129.7000000176835,81.50211305915055 M 129.70000001761497,69.5000000000051 M 122.70000001761488,69.50000000004694 M 122.70000001736953,27.000000000040096 M 129.70000001736713,26.999999999998586 M 129.7000000173374,21.999999999998565 M 133.69999998299443,21.999999999976545 M 133.6999999829067,5.999999999976517 M 129.7000000172346,5.999999999999972 M 129.70000001720513,1.0 M 5.000000017218702,1.0000000007295142 M 5.0000000173111205,16.80000000073725 M 1.0,16.800000000760484 M 1.0000000004096306,86.8000000007616 M 5.000000017720778,86.80000000073831 M 97.00000001762967,71.90000000019553 M 96.94888875706575,72.28822856784961 M 96.79903812331112,72.65000000019674 M 96.56066018941618,72.96066017197802 M 96.25000001763776,73.19903810587671 M 95.88822858529254,73.34888873963601 M 95.50000001763902,73.40000000020477 M 95.11177144998497,73.34888873964063 M 94.75000001763779,73.19903810588596 M 94.4393398458566,72.96066017199107 M 94.20096191195783,72.65000000021277 M 94.05111127819858,72.28822856786753 M 94.00000001762983,71.90000000021398 M 94.05111127819383,71.51177143255978 M 94.20096191194851,71.15000000021276 M 94.43933984584342,70.83933982843153 M 94.75000001762182,70.60096189453265 M 95.11177144996701,70.45111126077352 M 95.50000001762055,70.40000000020476 M 95.88822858527456,70.45111126076867 M 96.25000001762179,70.60096189452346 M 96.56066018940307,70.83933982841846 M 96.79903812330177,71.15000000019663 M 96.94888875706108,71.51177143254196 M 17.4000000172827,10.100000000673212 M 17.451111277845932,9.711771433022413 M 17.600961911598894,9.350000000678506 M 17.839339845491253,9.039339828899536 M 18.150000017266617,8.80096189500248 M 18.51177144960834,8.651111261244324 M 18.90000001725815,8.60000000067545 M 19.28822858490886,8.651111261238626 M 19.650000017253006,8.800961894991566 M 19.960660189031657,9.039339828883847 M 20.19903812292868,9.35000000065915 M 20.348888756686918,9.711771433001147 M 20.40000001725553,10.100000000650809 M 20.348888756692837,10.488228568301565 M 20.19903812293989,10.850000000645565 M 19.960660189047495,11.160660172424173 M 19.650000017272127,11.399038106321221 M 19.2882285849303,11.548888740079654 M 18.90000001728061,11.600000000648258 M 18.51177144962979,11.548888740085395 M 18.150000017285695,11.39903810633232 M 17.839339845507112,11.160660172439975 M 17.600961911610106,10.850000000664906 M 17.451111277851883,10.488228568322938 M 20.40000001762974,71.90000000063982 M 20.348888757066746,72.28822856829409 M 20.199038123312974,72.65000000064168 M 19.960660189418796,72.96066017242353 M 19.650000017641062,73.19903810632317 M 19.288228585296267,73.3488887400831 M 18.900000017642874,73.40000000065294 M 18.511771449988757,73.34888874008992 M 18.150000017641126,73.19903810633615 M 17.83933984585929,72.960660172442 M 17.600961911959722,72.65000000066438 M 17.45111127819963,72.28822856831941 M 17.400000017629836,71.90000000066607 M 17.451111278192883,71.51177143301176 M 17.600961911946605,71.15000000066438 M 17.839339845840737,70.83933982888247 M 18.15000001761826,70.60096189498287 M 18.511771449963362,70.45111126122269 M 18.900000017616705,70.40000000065308 M 19.28822858527092,70.45111126121603 M 19.650000017618233,70.60096189496983 M 19.960660189400244,70.83933982886406 M 20.199038123299868,71.15000000064173 M 20.348888757059992,71.51177143298648 M 96.56066018905763,11.160660171978321 M 96.25000001727926,11.399038105877068 M 95.88822858493393,11.54888873963587 M 95.50000001728041,11.600000000204517 M 95.11177144962633,11.548888739640383 M 94.75000001727925,11.399038105885467 M 94.43933984549795,11.160660171990486 M 94.20096191159936,10.850000000212034 M 94.0511112778404,10.488228567866628 M 94.00000001727179,10.100000000213058 M 94.05111127783603,9.711771432559054 M 94.20096191159078,9.350000000212084 M 94.43933984548583,9.039339828430776 M 94.75000001726437,8.800961894532065 M 95.11177144960975,8.651111260773106 M 95.50000001726328,8.600000000204567 M 95.88822858491731,8.651111260768651 M 96.2500000172644,8.800961894523695 M 96.5606601890455,9.039339828418733 M 96.79903812294414,9.350000000196978 M 96.94888875670327,9.71177143254237 M 97.00000001727194,10.100000000196061 M 96.94888875670759,10.488228567849973 M 96.79903812295271,10.850000000196964 M 105.16862916734584,5.4313708500499445 M 104.91435937118719,5.10000000015296 M 104.75451869517754,4.714110472317827 M 104.70000001723756,4.300000000154178 M 104.75451869517269,3.8858895279897077 M 104.91435937117784,3.500000000152962 M 105.1686291673325,3.168629150252979 M 105.50000001722952,2.9143593540943016 M 105.88588954506454,2.7545186780846826 M 106.30000001722821,2.7000000001448434 M 106.71411048939261,2.7545186780797906 M 107.10000001722955,2.9143593540850077 M 107.43137086712946,3.1686291502395783 M 107.68564066328797,3.5000000001367866 M 107.84548133929772,3.885889527971681 M 107.90000001723757,4.3000000001355225 M 107.8454813393025,4.714110472299804 M 107.68564066329743,5.100000000136774 M 107.43137086714273,5.431370850036572 M 107.10000001724566,5.685640646195175 M 106.7141104894107,5.8454813222048045 M 106.30000001724706,5.900000000144722 M 105.88588954508265,5.845481322209665 M 105.50000001724574,5.685640646204561 M 107.70050187309765,98.52631107474268 M 107.8530263584767,98.91515043843937 M 107.89971466523534,99.3302166637719 M 107.83738506242439,99.74322367341371 M 107.67028520947068,100.12602572218469 M 107.40980268520771,100.45253548306987 M 107.0736889431959,100.70050185544908 M 106.68484957949961,100.85302634082782 M 106.26978335416673,100.89971464758679 M 105.85677634452475,100.83738504477526 M 105.47397429575435,100.67028519182217 M 105.14746453486876,100.40980266755851 M 104.89949816248982,100.07368892554729 M 104.74697367711079,99.68484956185098 M 104.70028537035219,99.26978333651765 M 104.76261497316302,98.85677632687648 M 104.92971482611674,98.4739742781057 M 105.19019735037975,98.14746451722003 M 105.52631109239138,97.89949814484106 M 105.9151504560879,97.74697365946223 M 106.33021668142058,97.70028535270362 M 106.74322369106262,97.76261495551476 M 107.12602573983311,97.92971480846803 M 107.45253550071858,98.19019733273119 M 17.19928600650293,98.40097970707345 M 17.386870992164866,98.77417086794712 M 17.47147519454176,99.18319641524234 M 17.447332977056867,99.6001819338577 M 17.316089591934592,99.99671054980062 M 17.086689058981207,100.34575949318915 M 16.77476464541516,100.62354165536202 M 16.401573484541423,100.81112664102398 M 15.992547937246142,100.89573084340083 M 15.575562418630906,100.87158862591588 M 15.179033802687977,100.74034524079357 M 14.829984859299426,100.51094470784005 M 14.552202697126509,100.19902029427418 M 14.3646177114645,99.82582913340045 M 14.280013509087837,99.41680358610527 M 14.304155726572732,98.99981806749 M 14.435399111695007,98.60328945154698 M 14.664799644648394,98.25424050815853 M 14.976724058214428,97.97645834598563 M 15.349915219088038,97.78887336032369 M 15.75894076638323,97.70426915794687 M 16.17592628499869,97.72841137543183 M 16.572454900941615,97.85965476055411 M 16.921503844330037,98.08905529350749 M 17.240593022326905,5.310410311251552 M 16.936807409021405,5.597070511747823 M 16.569179920112973,5.795337500424573 M 16.162763761437994,5.8916997096553345 M 15.745255522575535,5.879590214127276 M 15.34510770003912,5.759834255948469 M 14.989589706659038,5.540593005762666 M 14.702929506163024,5.236807392456996 M 14.50466251748611,4.869179903548655 M 14.408300308255328,4.462763744873705 M 14.42040980378367,4.045255506011301 M 14.540165761962523,3.645107683474791 M 14.759407012148197,3.2895896900946155 M 15.063192625453668,3.0029294895986354 M 15.43082011436188,2.80466250092179 M 15.837236273037087,2.7083002916909287 M 16.254744511899418,2.7204097872192605 M 16.654892334435964,2.840165745398153 M 17.010410327816054,3.0594069955836893 M 17.297070528312062,3.3631926088893387 M 17.49533751698899,3.730820097797622 M 17.59169972621955,4.137236256472708 M 17.57959023069141,4.554744495335246 M 17.45983427251257,4.954892317871561 M 95.49999997260366,16.100000000204723 M 95.50000006230103,65.90000000020511 M 93.94708578296722,66.10444503283811 M 92.50000004341186,66.70384756261497 M 91.25735934629363,67.65735929730567 M 90.3038476023591,68.89999998733083 M 89.70444506181758,70.34708572242734 M 89.5000000176327,71.9000000002403 M 24.90000001763412,71.9000000006185 M 24.695554977287788,70.34708573720128 M 24.09615244777375,68.90000001352803 M 23.142640720533624,67.65735932931464 M 21.900000043413325,66.70384759283061 M 20.452914324198865,66.10444505255188 M 18.900000062302475,65.90000000065363 M 18.900000017307736,16.100000000653303 M 20.452914287921487,15.895554958378668 M 21.90000001730283,15.296152423342285 M 23.142640704416547,14.342640687747782 M 24.096152439996693,13.10000000062292 M 24.6955549750159,11.652914271234444 M 24.900000017272486,10.100000000618053 M 89.500000017272,10.100000000239888 M 89.70444505761836,11.652914263657003 M 90.30384758713234,13.099999987330357 M 91.2573593143725,14.342640671543805 M 92.4999999914928,15.296152408027702 M 93.94708571070726,15.895554948306533 " />
</svg>
