<?xml version="1.0" standalone="no"?>
<!DOCTYPE svg PUBLIC "-//W3C//DTD SVG 1.1//EN" "http://www.w3.org/Graphics/SVG/1.1/DTD/svg11.dtd">
<svg width="190.00000013345087mm" height="179.99999995271463mm"
 viewBox="0 0 190.00000013345087 179.99999995271463"
 xmlns="http://www.w3.org/2000/svg" version="1.1"
 xmlns:xlink="http://www.w3.org/1999/xlink">
<desc>Output from Flights of Ideas SVG Sketchup Plugin</desc>

  <path id="face0-cut"
 style="fill:none;stroke:#FF0000;stroke-width:0.1;stroke-miterlimit:4;stroke-dasharray:none;stroke-linejoin:round;stroke-linecap:round"
        d="M 1.0000001334508752,1.0 L 1.0,178.99999995271463 L 188.99999999999997,178.99999995271452 L 189.00000013345087,1.0 L 1.0000001334508752,1.0 M 172.95648018510678,13.528444388077673 L 172.45000018000994,13.318653500364121 L 172.01507593981702,12.98492439251919 L 171.6813468327509,12.550000151728426 L 171.47155594594471,12.043520146256157 L 171.40000018163846,11.500000151476655 L 171.47155594691813,10.95648015682525 L 171.6813468346314,10.450000151728403 L 172.01507594247641,10.015075911536059 L 172.45000018326695,9.68134680446991 L 172.95648018873956,9.471555917663522 L 173.50000018351895,9.400000153356842 L 174.04352017817016,9.471555918636852 L 174.55000018326697,9.681346806350206 L 174.98492442345986,10.015075914195535 L 175.31865353052598,10.450000154986185 L 175.5284444173322,10.956480160458398 L 175.60000018163848,11.500000155237558 L 175.52844441635878,12.043520149888678 L 175.3186535286455,12.550000154986094 L 174.9849244208005,12.984924395178837 L 174.5500001800099,13.318653502244956 L 174.04352017453735,13.528444389051032 L 173.50000017975796,13.600000153357485 L 172.95648018510678,13.528444388077673 M 172.9564800692165,170.52844417894033 L 172.45000006393178,170.31865329168062 L 172.01507582344004,169.984924184225 L 171.6813467159845,169.54999994373333 L 171.47155582872472,169.04351993844864 L 171.40000006393183,168.49999994373326 L 171.47155582872475,167.956479949018 L 171.68134671598446,167.44999994373336 L 172.01507582344004,167.01507570324145 L 172.4500000639318,166.681346595786 L 172.95648006921652,166.4715557085263 L 173.5000000639318,166.3999999437333 L 174.0435200586471,166.4715557085263 L 174.55000006393183,166.681346595786 L 174.98492430442354,167.01507570324156 L 175.31865341187913,167.44999994373336 L 175.52844429913884,167.95647994901805 L 175.60000006393182,168.49999994373331 L 175.52844429913884,169.04351993844858 L 175.31865341187913,169.54999994373333 L 174.98492430442354,169.984924184225 L 174.55000006393175,170.31865329168068 L 174.04352005864706,170.5284441789404 L 173.5000000639318,170.59999994373334 L 172.9564800692165,170.52844417894033 M 29.899999870361256,168.49999994373326 L 29.828444105568295,169.04351993844858 L 29.618653218308566,169.54999994373333 L 29.284924110852987,169.98492418422506 L 28.849999870361252,170.31865329168062 L 28.343519865076527,170.5284441789404 L 27.799999870361244,170.59999994373328 L 27.25647987564597,170.52844417894033 L 26.749999870361222,170.31865329168062 L 26.315075629869487,169.98492418422506 L 25.981346522413936,169.54999994373333 L 25.7715556351542,169.04351993844858 L 25.699999870361246,168.49999994373326 L 25.771555635154204,167.956479949018 L 25.98134652241394,167.4499999437333 L 26.315075629869504,167.01507570324156 L 26.749999870361258,166.68134659578595 L 27.25647987564596,166.47155570852624 L 27.799999870361262,166.3999999437333 L 28.34351986507655,166.47155570852624 L 28.84999987036126,166.68134659578595 L 29.284924110852998,167.01507570324156 L 29.618653218308566,167.4499999437333 L 29.82844410556828,167.956479949018 L 29.899999870361256,168.49999994373326 M 27.799999986187466,13.600000022889105 L 27.256479991536246,13.528444257609436 L 26.749999986439395,13.318653369896168 L 26.31507574624649,12.984924262051152 L 25.98134663918037,12.550000021260558 L 25.771555752374184,12.043520015788005 L 25.69999998806793,11.500000021008617 L 25.771555753347585,10.956480026357411 L 25.98134664106084,10.450000021260593 L 26.31507574890587,10.015075781067651 L 26.749999989696462,9.68134667400156 L 27.256479995169027,9.471555787195342 L 27.799999989948397,9.400000022889117 L 28.343519984599617,9.471555788168757 L 28.849999989696464,9.681346675881997 L 29.284924229889373,10.015075783727042 L 29.618653336955482,10.450000024517635 L 29.82844422376167,10.956480029990189 L 29.899999988067933,11.500000024769577 L 29.82844422278827,12.043520019420782 L 29.618653335075017,12.55000002451763 L 29.284924227229986,12.984924264710543 L 28.8499999864394,13.318653371776634 L 28.343519980966832,13.528444258582851 L 27.799999986187466,13.600000022889105 M 26.80008542837563,117.99865190123978 L 26.80008542037325,134.59865190458663 L 12.800085420494128,134.59865190457657 L 12.800085420482045,117.99865190449077 L 26.80008542837563,117.99865190123978 M 26.80005134490547,45.39863772267549 L 26.800085410056226,61.998651913146546 L 12.800085402513186,61.998651912899334 L 12.80008540251318,45.398651919872975 L 26.80005134490547,45.39863772267549 M 19.800085454145538,83.00020733999932 L 20.531784697019113,83.03855407242139 L 21.25546728986984,83.1531741348627 L 21.96320441477018,83.34281172593327 L 22.647241955676137,83.60538913650112 L 23.300085454145528,83.93802951350827 L 23.91458222019285,84.3370883793747 L 24.48399969865754,84.79819356165757 L 25.0020992324873,85.31629309548731 L 25.463204414770168,85.885710573952 L 25.86226328063661,86.50020733999932 L 26.19490365764375,87.15305083846874 L 26.45748106821161,87.83708837937468 L 26.647118659282185,88.544825504275 L 26.761738721723457,89.26850809712576 L 26.800085454145535,90.00020733999935 L 26.76173872172345,90.73190658287288 L 26.647118659282174,91.45558917572365 L 26.45748106821161,92.16332630062394 L 26.19490365764375,92.84736384152993 L 25.862263280636608,93.50020733999932 L 25.463204414770175,94.11470410604664 L 25.002099232487293,94.68412158451133 L 24.483999698657534,95.2022211183411 L 23.91458222019284,95.66332630062394 L 23.300085454145538,96.06238516649037 L 22.64724195567614,96.39502554349752 L 21.96320441477016,96.6576029540654 L 21.25546728986984,96.84724054513597 L 20.531784697019102,96.96186060757722 L 19.800085454145538,97.00020733999932 L 19.068386211271957,96.96186060757722 L 18.344703618421203,96.84724054513597 L 17.636966493520895,96.6576029540654 L 16.952928952614926,96.39502554349752 L 16.300085454145513,96.06238516649037 L 15.685588688098221,95.66332630062394 L 15.116171209633528,95.20222111834104 L 14.598071675803773,94.68412158451133 L 14.136966493520912,94.11470410604664 L 13.737907627654451,93.50020733999932 L 13.405267250647327,92.84736384152993 L 13.14268984007946,92.16332630062394 L 12.953052249008884,91.45558917572365 L 12.838432186567616,90.73190658287288 L 12.800085454145531,90.00020733999935 L 12.83843218656762,89.26850809712576 L 12.953052249008902,88.544825504275 L 13.14268984007946,87.83708837937468 L 13.405267250647327,87.15305083846874 L 13.737907627654462,86.50020733999932 L 14.136966493520887,85.885710573952 L 14.59807167580377,85.31629309548737 L 15.116171209633517,84.79819356165757 L 15.685588688098203,84.3370883793747 L 16.300085454145506,83.93802951350827 L 16.952928952614915,83.60538913650112 L 17.63696649352087,83.34281172593327 L 18.344703618421192,83.1531741348627 L 19.068386211271932,83.03855407242139 L 19.800085454145538,83.00020733999932 "
  />
  <path id="face0-interior"
 style="fill:none;stroke:#FF0000;stroke-width:0.1;stroke-miterlimit:4;stroke-dasharray:none;stroke-linejoin:round;stroke-linecap:round"
        d="M 1.0000001334508752,1.0 M 1.0,178.99999995271463 M 188.99999999999997,178.99999995271452 M 189.00000013345087,1.0 M 172.95648018510678,13.528444388077673 M 172.45000018000994,13.318653500364121 M 172.01507593981702,12.98492439251919 M 171.6813468327509,12.550000151728426 M 171.47155594594471,12.043520146256157 M 171.40000018163846,11.500000151476655 M 171.47155594691813,10.95648015682525 M 171.6813468346314,10.450000151728403 M 172.01507594247641,10.015075911536059 M 172.45000018326695,9.68134680446991 M 172.95648018873956,9.471555917663522 M 173.50000018351895,9.400000153356842 M 174.04352017817016,9.471555918636852 M 174.55000018326697,9.681346806350206 M 174.98492442345986,10.015075914195535 M 175.31865353052598,10.450000154986185 M 175.5284444173322,10.956480160458398 M 175.60000018163848,11.500000155237558 M 175.52844441635878,12.043520149888678 M 175.3186535286455,12.550000154986094 M 174.9849244208005,12.984924395178837 M 174.5500001800099,13.318653502244956 M 174.04352017453735,13.528444389051032 M 173.50000017975796,13.600000153357485 M 172.9564800692165,170.52844417894033 M 172.45000006393178,170.31865329168062 M 172.01507582344004,169.984924184225 M 171.6813467159845,169.54999994373333 M 171.47155582872472,169.04351993844864 M 171.40000006393183,168.49999994373326 M 171.47155582872475,167.956479949018 M 171.68134671598446,167.44999994373336 M 172.01507582344004,167.01507570324145 M 172.4500000639318,166.681346595786 M 172.95648006921652,166.4715557085263 M 173.5000000639318,166.3999999437333 M 174.0435200586471,166.4715557085263 M 174.55000006393183,166.681346595786 M 174.98492430442354,167.01507570324156 M 175.31865341187913,167.44999994373336 M 175.52844429913884,167.95647994901805 M 175.60000006393182,168.49999994373331 M 175.52844429913884,169.04351993844858 M 175.31865341187913,169.54999994373333 M 174.98492430442354,169.984924184225 M 174.55000006393175,170.31865329168068 M 174.04352005864706,170.5284441789404 M 173.5000000639318,170.59999994373334 M 29.899999870361256,168.49999994373326 M 29.828444105568295,169.04351993844858 M 29.618653218308566,169.54999994373333 M 29.284924110852987,169.98492418422506 M 28.849999870361252,170.31865329168062 M 28.343519865076527,170.5284441789404 M 27.799999870361244,170.59999994373328 M 27.25647987564597,170.52844417894033 M 26.749999870361222,170.31865329168062 M 26.315075629869487,169.98492418422506 M 25.981346522413936,169.54999994373333 M 25.7715556351542,169.04351993844858 M 25.699999870361246,168.49999994373326 M 25.771555635154204,167.956479949018 M 25.98134652241394,167.4499999437333 M 26.315075629869504,167.01507570324156 M 26.749999870361258,166.68134659578595 M 27.25647987564596,166.47155570852624 M 27.799999870361262,166.3999999437333 M 28.34351986507655,166.47155570852624 M 28.84999987036126,166.68134659578595 M 29.284924110852998,167.01507570324156 M 29.618653218308566,167.4499999437333 M 29.82844410556828,167.956479949018 M 27.799999986187466,13.600000022889105 M 27.256479991536246,13.528444257609436 M 26.749999986439395,13.318653369896168 M 26.31507574624649,12.984924262051152 M 25.98134663918037,12.550000021260558 M 25.771555752374184,12.043520015788005 M 25.69999998806793,11.500000021008617 M 25.771555753347585,10.956480026357411 M 25.98134664106084,10.450000021260593 M 26.31507574890587,10.015075781067651 M 26.749999989696462,9.68134667400156 M 27.256479995169027,9.471555787195342 M 27.799999989948397,9.400000022889117 M 28.343519984599617,9.471555788168757 M 28.849999989696464,9.681346675881997 M 29.284924229889373,10.015075783727042 M 29.618653336955482,10.450000024517635 M 29.82844422376167,10.956480029990189 M 29.899999988067933,11.500000024769577 M 29.82844422278827,12.043520019420782 M 29.618653335075017,12.55000002451763 M 29.284924227229986,12.984924264710543 M 28.8499999864394,13.318653371776634 M 28.343519980966832,13.528444258582851 M 26.80008542837563,117.99865190123978 M 26.80008542037325,134.59865190458663 M 12.800085420494128,134.59865190457657 M 12.800085420482045,117.99865190449077 M 26.80005134490547,45.39863772267549 M 26.800085410056226,61.998651913146546 M 12.800085402513186,61.998651912899334 M 12.80008540251318,45.398651919872975 M 19.800085454145538,83.00020733999932 M 20.531784697019113,83.03855407242139 M 21.25546728986984,83.1531741348627 M 21.96320441477018,83.34281172593327 M 22.647241955676137,83.60538913650112 M 23.300085454145528,83.93802951350827 M 23.91458222019285,84.3370883793747 M 24.48399969865754,84.79819356165757 M 25.0020992324873,85.31629309548731 M 25.463204414770168,85.885710573952 M 25.86226328063661,86.50020733999932 M 26.19490365764375,87.15305083846874 M 26.45748106821161,87.83708837937468 M 26.647118659282185,88.544825504275 M 26.761738721723457,89.26850809712576 M 26.800085454145535,90.00020733999935 M 26.76173872172345,90.73190658287288 M 26.647118659282174,91.45558917572365 M 26.45748106821161,92.16332630062394 M 26.19490365764375,92.84736384152993 M 25.862263280636608,93.50020733999932 M 25.463204414770175,94.11470410604664 M 25.002099232487293,94.68412158451133 M 24.483999698657534,95.2022211183411 M 23.91458222019284,95.66332630062394 M 23.300085454145538,96.06238516649037 M 22.64724195567614,96.39502554349752 M 21.96320441477016,96.6576029540654 M 21.25546728986984,96.84724054513597 M 20.531784697019102,96.96186060757722 M 19.800085454145538,97.00020733999932 M 19.068386211271957,96.96186060757722 M 18.344703618421203,96.84724054513597 M 17.636966493520895,96.6576029540654 M 16.952928952614926,96.39502554349752 M 16.300085454145513,96.06238516649037 M 15.685588688098221,95.66332630062394 M 15.116171209633528,95.20222111834104 M 14.598071675803773,94.68412158451133 M 14.136966493520912,94.11470410604664 M 13.737907627654451,93.50020733999932 M 13.405267250647327,92.84736384152993 M 13.14268984007946,92.16332630062394 M 12.953052249008884,91.45558917572365 M 12.838432186567616,90.73190658287288 M 12.800085454145531,90.00020733999935 M 12.83843218656762,89.26850809712576 M 12.953052249008902,88.544825504275 M 13.14268984007946,87.83708837937468 M 13.405267250647327,87.15305083846874 M 13.737907627654462,86.50020733999932 M 14.136966493520887,85.885710573952 M 14.59807167580377,85.31629309548737 M 15.116171209633517,84.79819356165757 M 15.685588688098203,84.3370883793747 M 16.300085454145506,83.93802951350827 M 16.952928952614915,83.60538913650112 M 17.63696649352087,83.34281172593327 M 18.344703618421192,83.1531741348627 M 19.068386211271932,83.03855407242139 "
  />
  <path id="face0-interior"
 style="fill:none;stroke:#FF0000;stroke-width:0.1;stroke-miterlimit:4;stroke-dasharray:none;stroke-linejoin:round;stroke-linecap:round"
        d="M 1.0000001334508752,1.0 M 1.0,178.99999995271463 M 188.99999999999997,178.99999995271452 M 189.00000013345087,1.0 M 172.95648018510678,13.528444388077673 M 172.45000018000994,13.318653500364121 M 172.01507593981702,12.98492439251919 M 171.6813468327509,12.550000151728426 M 171.47155594594471,12.043520146256157 M 171.40000018163846,11.500000151476655 M 171.47155594691813,10.95648015682525 M 171.6813468346314,10.450000151728403 M 172.01507594247641,10.015075911536059 M 172.45000018326695,9.68134680446991 M 172.95648018873956,9.471555917663522 M 173.50000018351895,9.400000153356842 M 174.04352017817016,9.471555918636852 M 174.55000018326697,9.681346806350206 M 174.98492442345986,10.015075914195535 M 175.31865353052598,10.450000154986185 M 175.5284444173322,10.956480160458398 M 175.60000018163848,11.500000155237558 M 175.52844441635878,12.043520149888678 M 175.3186535286455,12.550000154986094 M 174.9849244208005,12.984924395178837 M 174.5500001800099,13.318653502244956 M 174.04352017453735,13.528444389051032 M 173.50000017975796,13.600000153357485 M 172.9564800692165,170.52844417894033 M 172.45000006393178,170.31865329168062 M 172.01507582344004,169.984924184225 M 171.6813467159845,169.54999994373333 M 171.47155582872472,169.04351993844864 M 171.40000006393183,168.49999994373326 M 171.47155582872475,167.956479949018 M 171.68134671598446,167.44999994373336 M 172.01507582344004,167.01507570324145 M 172.4500000639318,166.681346595786 M 172.95648006921652,166.4715557085263 M 173.5000000639318,166.3999999437333 M 174.0435200586471,166.4715557085263 M 174.55000006393183,166.681346595786 M 174.98492430442354,167.01507570324156 M 175.31865341187913,167.44999994373336 M 175.52844429913884,167.95647994901805 M 175.60000006393182,168.49999994373331 M 175.52844429913884,169.04351993844858 M 175.31865341187913,169.54999994373333 M 174.98492430442354,169.984924184225 M 174.55000006393175,170.31865329168068 M 174.04352005864706,170.5284441789404 M 173.5000000639318,170.59999994373334 M 29.899999870361256,168.49999994373326 M 29.828444105568295,169.04351993844858 M 29.618653218308566,169.54999994373333 M 29.284924110852987,169.98492418422506 M 28.849999870361252,170.31865329168062 M 28.343519865076527,170.5284441789404 M 27.799999870361244,170.59999994373328 M 27.25647987564597,170.52844417894033 M 26.749999870361222,170.31865329168062 M 26.315075629869487,169.98492418422506 M 25.981346522413936,169.54999994373333 M 25.7715556351542,169.04351993844858 M 25.699999870361246,168.49999994373326 M 25.771555635154204,167.956479949018 M 25.98134652241394,167.4499999437333 M 26.315075629869504,167.01507570324156 M 26.749999870361258,166.68134659578595 M 27.25647987564596,166.47155570852624 M 27.799999870361262,166.3999999437333 M 28.34351986507655,166.47155570852624 M 28.84999987036126,166.68134659578595 M 29.284924110852998,167.01507570324156 M 29.618653218308566,167.4499999437333 M 29.82844410556828,167.956479949018 M 27.799999986187466,13.600000022889105 M 27.256479991536246,13.528444257609436 M 26.749999986439395,13.318653369896168 M 26.31507574624649,12.984924262051152 M 25.98134663918037,12.550000021260558 M 25.771555752374184,12.043520015788005 M 25.69999998806793,11.500000021008617 M 25.771555753347585,10.956480026357411 M 25.98134664106084,10.450000021260593 M 26.31507574890587,10.015075781067651 M 26.749999989696462,9.68134667400156 M 27.256479995169027,9.471555787195342 M 27.799999989948397,9.400000022889117 M 28.343519984599617,9.471555788168757 M 28.849999989696464,9.681346675881997 M 29.284924229889373,10.015075783727042 M 29.618653336955482,10.450000024517635 M 29.82844422376167,10.956480029990189 M 29.899999988067933,11.500000024769577 M 29.82844422278827,12.043520019420782 M 29.618653335075017,12.55000002451763 M 29.284924227229986,12.984924264710543 M 28.8499999864394,13.318653371776634 M 28.343519980966832,13.528444258582851 M 26.80008542837563,117.99865190123978 M 26.80008542037325,134.59865190458663 M 12.800085420494128,134.59865190457657 M 12.800085420482045,117.99865190449077 M 26.80005134490547,45.39863772267549 M 26.800085410056226,61.998651913146546 M 12.800085402513186,61.998651912899334 M 12.80008540251318,45.398651919872975 M 19.800085454145538,83.00020733999932 M 20.531784697019113,83.03855407242139 M 21.25546728986984,83.1531741348627 M 21.96320441477018,83.34281172593327 M 22.647241955676137,83.60538913650112 M 23.300085454145528,83.93802951350827 M 23.91458222019285,84.3370883793747 M 24.48399969865754,84.79819356165757 M 25.0020992324873,85.31629309548731 M 25.463204414770168,85.885710573952 M 25.86226328063661,86.50020733999932 M 26.19490365764375,87.15305083846874 M 26.45748106821161,87.83708837937468 M 26.647118659282185,88.544825504275 M 26.761738721723457,89.26850809712576 M 26.800085454145535,90.00020733999935 M 26.76173872172345,90.73190658287288 M 26.647118659282174,91.45558917572365 M 26.45748106821161,92.16332630062394 M 26.19490365764375,92.84736384152993 M 25.862263280636608,93.50020733999932 M 25.463204414770175,94.11470410604664 M 25.002099232487293,94.68412158451133 M 24.483999698657534,95.2022211183411 M 23.91458222019284,95.66332630062394 M 23.300085454145538,96.06238516649037 M 22.64724195567614,96.39502554349752 M 21.96320441477016,96.6576029540654 M 21.25546728986984,96.84724054513597 M 20.531784697019102,96.96186060757722 M 19.800085454145538,97.00020733999932 M 19.068386211271957,96.96186060757722 M 18.344703618421203,96.84724054513597 M 17.636966493520895,96.6576029540654 M 16.952928952614926,96.39502554349752 M 16.300085454145513,96.06238516649037 M 15.685588688098221,95.66332630062394 M 15.116171209633528,95.20222111834104 M 14.598071675803773,94.68412158451133 M 14.136966493520912,94.11470410604664 M 13.737907627654451,93.50020733999932 M 13.405267250647327,92.84736384152993 M 13.14268984007946,92.16332630062394 M 12.953052249008884,91.45558917572365 M 12.838432186567616,90.73190658287288 M 12.800085454145531,90.00020733999935 M 12.83843218656762,89.26850809712576 M 12.953052249008902,88.544825504275 M 13.14268984007946,87.83708837937468 M 13.405267250647327,87.15305083846874 M 13.737907627654462,86.50020733999932 M 14.136966493520887,85.885710573952 M 14.59807167580377,85.31629309548737 M 15.116171209633517,84.79819356165757 M 15.685588688098203,84.3370883793747 M 16.300085454145506,83.93802951350827 M 16.952928952614915,83.60538913650112 M 17.63696649352087,83.34281172593327 M 18.344703618421192,83.1531741348627 M 19.068386211271932,83.03855407242139 "
  />
</svg>
