<?xml version="1.0" standalone="no"?>
<!DOCTYPE svg PUBLIC "-//W3C//DTD SVG 1.1//EN" "http://www.w3.org/Graphics/SVG/1.1/DTD/svg11.dtd">
<svg width="134.70000003899972mm" height="159.99999995450582mm"
 viewBox="0 0 134.70000003899972 159.99999995450582"
 xmlns="http://www.w3.org/2000/svg" version="1.1"
 xmlns:xlink="http://www.w3.org/1999/xlink">
<desc>Output from Flights of Ideas SVG Sketchup Plugin</desc>

  <path id="face0-cut"
 style="fill:none;stroke:#FF0000;stroke-width:0.1;stroke-miterlimit:4;stroke-dasharray:none;stroke-linejoin:round;stroke-linecap:round"
        d="M 129.70000001725458,1.0 L 5.0000000172570935,1.0000000000000178 L 5.000000017311123,6.00000000134235 L 1.0,6.00000000138558 L 1.0000000002011689,24.701277119855856 L 5.000000017512292,24.701277119812914 L 5.000000017566123,29.70127711981289 L 5.000000018649331,130.30127712044637 L 5.000000084559474,135.3012771204465 L 1.000000067248493,135.3012771204896 L 1.0000000015925252,153.99999995454934 L 5.000000018903819,153.9999999545058 L 5.0000000189584455,158.99999995450582 L 129.70000001894482,158.99999995316264 L 129.70000001858753,125.7999999402841 L 133.69999998425956,125.79999994024115 L 133.69999998408107,109.79999994024129 L 129.70000001842402,109.79999994028549 L 129.70000001837246,104.79999994028455 L 129.7000000179125,62.299999940277395 L 129.70000001778203,50.29788688113402 L 133.70000003899972,50.29788688109305 L 133.70000003883447,34.199999940243735 L 129.7000000176168,34.19999994028479 L 129.70000001725458,1.0 M 97.23588957568829,150.34548132223358 L 96.85000004785059,150.1856406462303 L 96.51862919794937,149.93137085007723 L 96.26435940178919,149.6000000001813 L 96.10451872577761,149.21411047234724 L 96.0500000478357,148.80000000018381 L 96.10451872576871,148.3858895280192 L 96.26435940177194,148.0000000001813 L 96.51862919792504,147.6686291502803 L 96.85000004782074,147.4143593541201 L 97.235889575655,147.25451867810855 L 97.65000004781844,147.2000000001666 L 98.06411051998305,147.2545186780994 L 98.45000004782078,147.4143593541027 L 98.78137089772196,147.66862915025592 L 99.03564069388216,148.00000000015166 L 99.19548136989374,148.3858895279857 L 99.2500000478357,148.80000000014917 L 99.19548136990264,149.2141104723138 L 99.03564069389938,149.60000000015168 L 98.78137089774631,149.93137085005287 L 98.45000004785058,150.18564064621287 L 98.06411052001634,150.34548132222443 L 97.6500000478529,150.4000000001666 L 97.23588957568829,150.34548132223358 M 52.949656029816055,150.1816385781685 L 52.5637658211385,150.341477577061 L 52.14965512540033,150.39599445881726 L 51.73554490216591,150.3414739880388 L 51.349656078799086,150.1816316447105 L 51.0182863409009,149.92736042037762 L 50.764017988494786,149.59598847877558 L 50.60417898959881,149.21009827010639 L 50.549662107841286,148.79598757437745 L 50.60418257862075,148.3818773511523 L 50.76402492195271,147.9959885277944 L 51.018296146291206,147.66461878990376 L 51.34966808790061,147.4103504375034 L 51.735558296578176,147.25051143861086 L 52.14966899231628,147.19599455685483 L 52.56377921555078,147.25051502763304 L 52.94966803891758,147.4103573709614 L 53.28103777681572,147.6646285952941 L 53.53530612922188,147.99600053689568 L 53.6951451281179,148.38189074556482 L 53.74966200987534,148.79600144129364 L 53.69514153909593,149.21011166451885 L 53.535299195763955,149.59600048787692 L 53.28102797142546,149.92737022576796 L 52.949656029816055,150.1816385781685 M 53.75000004762667,70.80000000303677 L 53.69548136969367,71.21411047520141 L 53.53564069369037,71.60000000303907 L 53.28137089753734,71.93137085294029 L 52.95000004764161,72.18564064910049 L 52.56411051980736,72.34548132511208 L 52.150000047643914,72.40000000305398 L 51.73588957547929,72.345481325121 L 51.350000047641586,72.18564064911766 L 51.01862919774038,71.93137085296465 L 50.76435940158018,71.60000000306891 L 50.60451872556861,71.21411047523469 L 50.550000047626696,70.80000000307126 L 50.604518725559686,70.38588953090661 L 50.76435940156297,70.00000000306895 L 51.018629197716024,69.66862915316767 L 51.350000047611786,69.4143593570075 L 51.73588957544604,69.25451868099599 L 52.15000004760948,69.20000000305401 L 52.564110519774076,69.25451868098705 L 52.95000004761178,69.41435935699033 L 53.281370897513,69.66862915314331 L 53.53564069367316,70.00000000303908 L 53.69548136968473,70.38588953087333 L 53.75000004762667,70.80000000303677 M 97.23588957477239,69.25451868114442 L 97.65000004691882,69.2000000030732 L 98.06411051910047,69.25451868087703 L 98.45000004698804,69.41435935675983 L 98.78137089696862,69.66862915280947 L 99.03564069323222,70.00000000262585 L 99.19548136936422,70.38588953041021 L 99.2500000474354,70.80000000255663 L 99.19548136963164,71.21411047473828 L 99.0356406937488,71.60000000262585 L 98.78137089769918,71.93137085260642 L 98.45000004788278,72.18564064887002 L 98.06411052009842,72.34548132500203 L 97.65000004795199,72.40000000307322 L 97.23588957577036,72.34548132526943 L 96.85000004788279,72.1856406493866 L 96.51862919790221,71.93137085333697 L 96.26435940163859,71.60000000352059 L 96.10451872550661,71.21411047573622 L 96.05000004743539,70.8000000035898 L 96.1045187252392,70.38588953140817 L 96.264359401122,70.0000000035206 L 96.51862919717166,69.66862915354001 L 96.85000004698804,69.41435935727641 L 97.23588957477239,69.25451868114442 M 19.299998395725197,47.11436116471952 L 19.63136924562636,47.36863096087258 L 19.885639041786476,47.700001810768285 L 20.045479717797974,48.08589133860244 L 20.099998395739902,48.500001810765866 L 20.045479717806842,48.914112282930404 L 19.885639041803614,49.30000181076807 L 19.63136924565063,49.6313726606692 L 19.299998395754926,49.885642456829345 L 18.91410886792073,50.04548313284087 L 18.499998395757387,50.10000181078283 L 18.08588792359285,50.045483132849796 L 17.699998395755273,49.88564245684658 L 17.36862754585414,49.63137266069356 L 17.114357749694022,49.30000181079794 L 16.954517073682524,48.914112282963735 L 16.899998395740596,48.500001810800285 L 16.954517073673657,48.08589133863577 L 17.114357749676884,47.700001810798184 L 17.368627545829924,47.368630960896944 L 17.6999983957256,47.114361164736785 L 18.085887923559767,46.95452048872524 L 18.49999839572311,46.90000181078331 L 18.91410886788765,46.95452048871637 L 19.299998395725197,47.11436116471952 M 20.045479717580577,27.914112282933623 L 19.885639041577633,28.300001810771228 L 19.631369245424878,28.631372660672497 L 19.299998395529457,28.885642456832816 L 18.914108867695546,29.045483132844677 L 18.499998395532316,29.100001810786825 L 18.085887923367864,29.04548313285418 L 17.699998395530287,28.885642456851347 L 17.368627545629096,28.63137266069872 L 17.114357749468837,28.30000181080334 L 16.95451707345711,27.9141122829694 L 16.899998395514956,27.500001810806257 L 16.954517073447704,27.085891338641787 L 17.114357749450647,26.70000181080419 L 17.368627545603402,26.368630960903012 L 17.699998395498824,26.114361164742718 L 18.085887923332763,25.954520488730942 L 18.499998395495993,25.9000018107886 L 18.914108867660417,25.954520488721293 L 19.299998395497994,26.114361164724137 L 19.631369245399185,26.368630960876764 L 19.88563904155947,26.700001810772093 L 20.04547971757117,27.085891338605993 L 20.099998395513325,27.50000181076925 L 20.045479717580577,27.914112282933623 M 77.6999983955055,26.114361164108836 L 78.08588792333752,25.95452048809737 L 78.49999839549878,25.900001810154965 L 78.91410886766137,25.954520488086914 L 79.29999839549734,26.11436116408861 L 79.63136924539728,26.368630960239713 L 79.88563904155671,26.700001810133234 L 80.04547971756806,27.08589133796515 L 80.0999983955104,27.500001810126346 L 80.04547971757829,27.914112282288873 L 79.88563904157647,28.30000181012485 L 79.63136924542525,28.631372660024827 L 79.2999983955316,28.885642456184296 L 78.91410886769957,29.045483132195734 L 78.49999839553833,29.100001810138163 L 78.08588792337572,29.045483132206197 L 77.69999839553975,28.885642456204504 L 77.36862754563981,28.631372660053366 L 77.1143577494804,28.300001810159852 L 76.95451707346903,27.914112282327906 L 76.8999983955267,27.500001810166758 L 76.95451707345879,27.08589133800423 L 77.11435774946062,26.70000181016828 L 77.36862754561186,26.368630960268312 L 77.6999983955055,26.114361164108836 M 80.04547971781018,48.91411228228577 L 79.88563904180742,49.30000181012314 L 79.63136924565498,49.631372660024276 L 79.29999839575981,49.8856424561845 L 78.91410886792616,50.04548313219624 L 78.49999839576323,50.10000181013851 L 78.08588792359906,50.045483132205945 L 77.69999839576167,49.88564245620323 L 77.36862754586063,49.63137266005076 L 77.11435774970045,49.30000181015562 L 76.95451707368875,48.91411228232198 L 76.89999839574651,48.500001810159034 L 76.95451707367916,48.08589133799484 L 77.11435774968189,47.70000181015741 L 77.36862754583437,47.36863096025633 L 77.69999839572952,47.1143611640961 L 78.08588792356316,46.954520488084356 L 78.49999839572612,46.90000181014209 L 78.91410886789028,46.954520488074635 L 79.29999839572766,47.11436116407735 L 79.63136924562872,47.36863096022983 L 79.88563904178888,47.70000181012494 L 80.04547971780057,48.08589133795862 L 80.09999839574283,48.500001810121574 L 80.04547971781018,48.91411228228577 M 77.3686275459314,56.36863096025732 L 77.69999839582667,56.11436116409716 L 78.08588792366047,55.954520488085535 L 78.49999839582348,55.90000181014335 L 78.91410886798774,55.95452048807609 L 79.29999839582513,56.11436116407895 L 79.63136924572615,56.368630960231556 L 79.88563904188626,56.700001810126835 L 80.0454797178979,57.08589133796066 L 80.09999839584002,57.500001810123706 L 80.04547971790728,57.91411228228799 L 79.88563904190437,58.30000181012541 L 79.63136924575173,58.631372660026486 L 79.29999839585645,58.88564245618663 L 78.91410886802268,59.0454831321983 L 78.49999839585965,59.10000181014043 L 78.08588792369541,59.04548313220771 L 77.69999839585803,58.88564245620485 L 77.36862754595698,58.63137266005222 L 77.11435774979687,58.30000181015694 L 76.95451707378525,57.91411228232315 L 76.89999839584314,57.500001810160114 L 76.95451707377589,57.08589133799586 L 77.11435774977878,56.7000018101584 L 77.3686275459314,56.36863096025732 M 77.69999839563063,37.88564245621058 L 77.36862754572988,37.63137266005775 L 77.11435774957008,37.30000181016233 L 76.95451707355888,36.91411228232848 L 76.89999839561717,36.50000181016549 L 76.95451707355035,36.08589133800139 L 77.11435774955359,35.70000181016416 L 77.36862754570653,35.368630960263374 L 77.69999839560202,35.11436116410355 L 78.08588792343593,34.95452048809226 L 78.49999839559896,34.900001810150464 L 78.91410886776312,34.954520488083524 L 79.2999983956003,35.11436116408666 L 79.63136924550108,35.368630960239514 L 79.88563904166085,35.70000181013494 L 80.04547971767207,36.085891337968775 L 80.09999839561375,36.50000181013175 L 80.0454797176806,36.914112282295896 L 79.88563904167734,37.300001810133125 L 79.6313692455244,37.63137266003389 L 79.29999839562893,37.885642456193736 L 78.914108867795,38.04548313220502 L 78.49999839563198,38.10000181014681 L 78.08588792346784,38.04548313221375 L 77.69999839563063,37.88564245621058 M 17.368627545725275,37.63137266069971 L 17.114357749565414,37.30000181080419 L 16.954517073554143,36.91411228297024 L 16.899998395612357,36.500001810807184 L 16.954517073545503,36.085891338642845 L 17.114357749548788,35.70000181080555 L 17.36862754570177,35.36863096090465 L 17.699998395597333,35.11436116474482 L 18.085887923431272,34.9545204887334 L 18.499998395594417,34.90000181079158 L 18.91410886775867,34.954520488724654 L 19.299998395595992,35.11436116472787 L 19.631369245496842,35.368630960880736 L 19.885639041656702,35.70000181077626 L 20.045479717667973,36.08589133861024 L 20.09999839560973,36.500001810773334 L 20.045479717676585,36.91411228293763 L 19.88563904167333,37.30000181077493 L 19.631369245520347,37.63137266067577 L 19.299998395624783,37.88564245683574 L 18.91410886779076,38.045483132847025 L 18.4999983956277,38.10000181078889 L 18.085887923463417,38.04548313285584 L 17.699998395626096,37.885642456852594 L 17.368627545725275,37.63137266069971 M 20.045479717894295,57.085891338605016 L 20.099998395836053,57.50000181076819 L 20.045479717902992,57.914112282932635 L 19.885639041899708,58.30000181077003 L 19.631369245746725,58.63137266067101 L 19.299998395851105,58.88564245683089 L 18.91410886801708,59.04548313284231 L 18.49999839585388,59.10000181078409 L 18.08588792368954,59.045483132850975 L 17.699998395852163,58.885642456847705 L 17.368627545951256,58.63137266069471 L 17.11435774979134,58.3000018107991 L 16.95451707378001,57.91411228296509 L 16.899998395838253,57.50000181080189 L 16.954517073771342,57.08589133863749 L 17.114357749774598,56.70000181080006 L 17.36862754592758,56.368630960899104 L 17.6999983958232,56.11436116473914 L 18.085887923657253,55.95452048872781 L 18.499998395820427,55.90000181078598 L 18.914108867984766,55.95452048871908 L 19.299998395822115,56.114361164722354 L 19.63136924572308,56.36863096087537 L 19.88563904188294,56.70000181077092 L 20.045479717894295,57.085891338605016 "
  />
  <path id="face0-interior"
 style="fill:none;stroke:#FF0000;stroke-width:0.1;stroke-miterlimit:4;stroke-dasharray:none;stroke-linejoin:round;stroke-linecap:round"
        d="M 129.70000001725458,1.0 M 5.0000000172570935,1.0000000000000178 M 5.000000017311123,6.00000000134235 M 1.0,6.00000000138558 M 1.0000000002011689,24.701277119855856 M 5.000000017512292,24.701277119812914 M 5.000000017566123,29.70127711981289 M 5.000000018649331,130.30127712044637 M 5.000000084559474,135.3012771204465 M 1.000000067248493,135.3012771204896 M 1.0000000015925252,153.99999995454934 M 5.000000018903819,153.9999999545058 M 5.0000000189584455,158.99999995450582 M 129.70000001894482,158.99999995316264 M 129.70000001858753,125.7999999402841 M 133.69999998425956,125.79999994024115 M 133.69999998408107,109.79999994024129 M 129.70000001842402,109.79999994028549 M 129.70000001837246,104.79999994028455 M 129.7000000179125,62.299999940277395 M 129.70000001778203,50.29788688113402 M 133.70000003899972,50.29788688109305 M 133.70000003883447,34.199999940243735 M 129.7000000176168,34.19999994028479 M 97.23588957568829,150.34548132223358 M 96.85000004785059,150.1856406462303 M 96.51862919794937,149.93137085007723 M 96.26435940178919,149.6000000001813 M 96.10451872577761,149.21411047234724 M 96.0500000478357,148.80000000018381 M 96.10451872576871,148.3858895280192 M 96.26435940177194,148.0000000001813 M 96.51862919792504,147.6686291502803 M 96.85000004782074,147.4143593541201 M 97.235889575655,147.25451867810855 M 97.65000004781844,147.2000000001666 M 98.06411051998305,147.2545186780994 M 98.45000004782078,147.4143593541027 M 98.78137089772196,147.66862915025592 M 99.03564069388216,148.00000000015166 M 99.19548136989374,148.3858895279857 M 99.2500000478357,148.80000000014917 M 99.19548136990264,149.2141104723138 M 99.03564069389938,149.60000000015168 M 98.78137089774631,149.93137085005287 M 98.45000004785058,150.18564064621287 M 98.06411052001634,150.34548132222443 M 97.6500000478529,150.4000000001666 M 52.949656029816055,150.1816385781685 M 52.5637658211385,150.341477577061 M 52.14965512540033,150.39599445881726 M 51.73554490216591,150.3414739880388 M 51.349656078799086,150.1816316447105 M 51.0182863409009,149.92736042037762 M 50.764017988494786,149.59598847877558 M 50.60417898959881,149.21009827010639 M 50.549662107841286,148.79598757437745 M 50.60418257862075,148.3818773511523 M 50.76402492195271,147.9959885277944 M 51.018296146291206,147.66461878990376 M 51.34966808790061,147.4103504375034 M 51.735558296578176,147.25051143861086 M 52.14966899231628,147.19599455685483 M 52.56377921555078,147.25051502763304 M 52.94966803891758,147.4103573709614 M 53.28103777681572,147.6646285952941 M 53.53530612922188,147.99600053689568 M 53.6951451281179,148.38189074556482 M 53.74966200987534,148.79600144129364 M 53.69514153909593,149.21011166451885 M 53.535299195763955,149.59600048787692 M 53.28102797142546,149.92737022576796 M 53.75000004762667,70.80000000303677 M 53.69548136969367,71.21411047520141 M 53.53564069369037,71.60000000303907 M 53.28137089753734,71.93137085294029 M 52.95000004764161,72.18564064910049 M 52.56411051980736,72.34548132511208 M 52.150000047643914,72.40000000305398 M 51.73588957547929,72.345481325121 M 51.350000047641586,72.18564064911766 M 51.01862919774038,71.93137085296465 M 50.76435940158018,71.60000000306891 M 50.60451872556861,71.21411047523469 M 50.550000047626696,70.80000000307126 M 50.604518725559686,70.38588953090661 M 50.76435940156297,70.00000000306895 M 51.018629197716024,69.66862915316767 M 51.350000047611786,69.4143593570075 M 51.73588957544604,69.25451868099599 M 52.15000004760948,69.20000000305401 M 52.564110519774076,69.25451868098705 M 52.95000004761178,69.41435935699033 M 53.281370897513,69.66862915314331 M 53.53564069367316,70.00000000303908 M 53.69548136968473,70.38588953087333 M 97.23588957477239,69.25451868114442 M 97.65000004691882,69.2000000030732 M 98.06411051910047,69.25451868087703 M 98.45000004698804,69.41435935675983 M 98.78137089696862,69.66862915280947 M 99.03564069323222,70.00000000262585 M 99.19548136936422,70.38588953041021 M 99.2500000474354,70.80000000255663 M 99.19548136963164,71.21411047473828 M 99.0356406937488,71.60000000262585 M 98.78137089769918,71.93137085260642 M 98.45000004788278,72.18564064887002 M 98.06411052009842,72.34548132500203 M 97.65000004795199,72.40000000307322 M 97.23588957577036,72.34548132526943 M 96.85000004788279,72.1856406493866 M 96.51862919790221,71.93137085333697 M 96.26435940163859,71.60000000352059 M 96.10451872550661,71.21411047573622 M 96.05000004743539,70.8000000035898 M 96.1045187252392,70.38588953140817 M 96.264359401122,70.0000000035206 M 96.51862919717166,69.66862915354001 M 96.85000004698804,69.41435935727641 M 19.299998395725197,47.11436116471952 M 19.63136924562636,47.36863096087258 M 19.885639041786476,47.700001810768285 M 20.045479717797974,48.08589133860244 M 20.099998395739902,48.500001810765866 M 20.045479717806842,48.914112282930404 M 19.885639041803614,49.30000181076807 M 19.63136924565063,49.6313726606692 M 19.299998395754926,49.885642456829345 M 18.91410886792073,50.04548313284087 M 18.499998395757387,50.10000181078283 M 18.08588792359285,50.045483132849796 M 17.699998395755273,49.88564245684658 M 17.36862754585414,49.63137266069356 M 17.114357749694022,49.30000181079794 M 16.954517073682524,48.914112282963735 M 16.899998395740596,48.500001810800285 M 16.954517073673657,48.08589133863577 M 17.114357749676884,47.700001810798184 M 17.368627545829924,47.368630960896944 M 17.6999983957256,47.114361164736785 M 18.085887923559767,46.95452048872524 M 18.49999839572311,46.90000181078331 M 18.91410886788765,46.95452048871637 M 20.045479717580577,27.914112282933623 M 19.885639041577633,28.300001810771228 M 19.631369245424878,28.631372660672497 M 19.299998395529457,28.885642456832816 M 18.914108867695546,29.045483132844677 M 18.499998395532316,29.100001810786825 M 18.085887923367864,29.04548313285418 M 17.699998395530287,28.885642456851347 M 17.368627545629096,28.63137266069872 M 17.114357749468837,28.30000181080334 M 16.95451707345711,27.9141122829694 M 16.899998395514956,27.500001810806257 M 16.954517073447704,27.085891338641787 M 17.114357749450647,26.70000181080419 M 17.368627545603402,26.368630960903012 M 17.699998395498824,26.114361164742718 M 18.085887923332763,25.954520488730942 M 18.499998395495993,25.9000018107886 M 18.914108867660417,25.954520488721293 M 19.299998395497994,26.114361164724137 M 19.631369245399185,26.368630960876764 M 19.88563904155947,26.700001810772093 M 20.04547971757117,27.085891338605993 M 20.099998395513325,27.50000181076925 M 77.6999983955055,26.114361164108836 M 78.08588792333752,25.95452048809737 M 78.49999839549878,25.900001810154965 M 78.91410886766137,25.954520488086914 M 79.29999839549734,26.11436116408861 M 79.63136924539728,26.368630960239713 M 79.88563904155671,26.700001810133234 M 80.04547971756806,27.08589133796515 M 80.0999983955104,27.500001810126346 M 80.04547971757829,27.914112282288873 M 79.88563904157647,28.30000181012485 M 79.63136924542525,28.631372660024827 M 79.2999983955316,28.885642456184296 M 78.91410886769957,29.045483132195734 M 78.49999839553833,29.100001810138163 M 78.08588792337572,29.045483132206197 M 77.69999839553975,28.885642456204504 M 77.36862754563981,28.631372660053366 M 77.1143577494804,28.300001810159852 M 76.95451707346903,27.914112282327906 M 76.8999983955267,27.500001810166758 M 76.95451707345879,27.08589133800423 M 77.11435774946062,26.70000181016828 M 77.36862754561186,26.368630960268312 M 80.04547971781018,48.91411228228577 M 79.88563904180742,49.30000181012314 M 79.63136924565498,49.631372660024276 M 79.29999839575981,49.8856424561845 M 78.91410886792616,50.04548313219624 M 78.49999839576323,50.10000181013851 M 78.08588792359906,50.045483132205945 M 77.69999839576167,49.88564245620323 M 77.36862754586063,49.63137266005076 M 77.11435774970045,49.30000181015562 M 76.95451707368875,48.91411228232198 M 76.89999839574651,48.500001810159034 M 76.95451707367916,48.08589133799484 M 77.11435774968189,47.70000181015741 M 77.36862754583437,47.36863096025633 M 77.69999839572952,47.1143611640961 M 78.08588792356316,46.954520488084356 M 78.49999839572612,46.90000181014209 M 78.91410886789028,46.954520488074635 M 79.29999839572766,47.11436116407735 M 79.63136924562872,47.36863096022983 M 79.88563904178888,47.70000181012494 M 80.04547971780057,48.08589133795862 M 80.09999839574283,48.500001810121574 M 77.3686275459314,56.36863096025732 M 77.69999839582667,56.11436116409716 M 78.08588792366047,55.954520488085535 M 78.49999839582348,55.90000181014335 M 78.91410886798774,55.95452048807609 M 79.29999839582513,56.11436116407895 M 79.63136924572615,56.368630960231556 M 79.88563904188626,56.700001810126835 M 80.0454797178979,57.08589133796066 M 80.09999839584002,57.500001810123706 M 80.04547971790728,57.91411228228799 M 79.88563904190437,58.30000181012541 M 79.63136924575173,58.631372660026486 M 79.29999839585645,58.88564245618663 M 78.91410886802268,59.0454831321983 M 78.49999839585965,59.10000181014043 M 78.08588792369541,59.04548313220771 M 77.69999839585803,58.88564245620485 M 77.36862754595698,58.63137266005222 M 77.11435774979687,58.30000181015694 M 76.95451707378525,57.91411228232315 M 76.89999839584314,57.500001810160114 M 76.95451707377589,57.08589133799586 M 77.11435774977878,56.7000018101584 M 77.69999839563063,37.88564245621058 M 77.36862754572988,37.63137266005775 M 77.11435774957008,37.30000181016233 M 76.95451707355888,36.91411228232848 M 76.89999839561717,36.50000181016549 M 76.95451707355035,36.08589133800139 M 77.11435774955359,35.70000181016416 M 77.36862754570653,35.368630960263374 M 77.69999839560202,35.11436116410355 M 78.08588792343593,34.95452048809226 M 78.49999839559896,34.900001810150464 M 78.91410886776312,34.954520488083524 M 79.2999983956003,35.11436116408666 M 79.63136924550108,35.368630960239514 M 79.88563904166085,35.70000181013494 M 80.04547971767207,36.085891337968775 M 80.09999839561375,36.50000181013175 M 80.0454797176806,36.914112282295896 M 79.88563904167734,37.300001810133125 M 79.6313692455244,37.63137266003389 M 79.29999839562893,37.885642456193736 M 78.914108867795,38.04548313220502 M 78.49999839563198,38.10000181014681 M 78.08588792346784,38.04548313221375 M 17.368627545725275,37.63137266069971 M 17.114357749565414,37.30000181080419 M 16.954517073554143,36.91411228297024 M 16.899998395612357,36.500001810807184 M 16.954517073545503,36.085891338642845 M 17.114357749548788,35.70000181080555 M 17.36862754570177,35.36863096090465 M 17.699998395597333,35.11436116474482 M 18.085887923431272,34.9545204887334 M 18.499998395594417,34.90000181079158 M 18.91410886775867,34.954520488724654 M 19.299998395595992,35.11436116472787 M 19.631369245496842,35.368630960880736 M 19.885639041656702,35.70000181077626 M 20.045479717667973,36.08589133861024 M 20.09999839560973,36.500001810773334 M 20.045479717676585,36.91411228293763 M 19.88563904167333,37.30000181077493 M 19.631369245520347,37.63137266067577 M 19.299998395624783,37.88564245683574 M 18.91410886779076,38.045483132847025 M 18.4999983956277,38.10000181078889 M 18.085887923463417,38.04548313285584 M 17.699998395626096,37.885642456852594 M 20.045479717894295,57.085891338605016 M 20.099998395836053,57.50000181076819 M 20.045479717902992,57.914112282932635 M 19.885639041899708,58.30000181077003 M 19.631369245746725,58.63137266067101 M 19.299998395851105,58.88564245683089 M 18.91410886801708,59.04548313284231 M 18.49999839585388,59.10000181078409 M 18.08588792368954,59.045483132850975 M 17.699998395852163,58.885642456847705 M 17.368627545951256,58.63137266069471 M 17.11435774979134,58.3000018107991 M 16.95451707378001,57.91411228296509 M 16.899998395838253,57.50000181080189 M 16.954517073771342,57.08589133863749 M 17.114357749774598,56.70000181080006 M 17.36862754592758,56.368630960899104 M 17.6999983958232,56.11436116473914 M 18.085887923657253,55.95452048872781 M 18.499998395820427,55.90000181078598 M 18.914108867984766,55.95452048871908 M 19.299998395822115,56.114361164722354 M 19.63136924572308,56.36863096087537 M 19.88563904188294,56.70000181077092 "
  />
  <path id="face0-interior"
 style="fill:none;stroke:#FF0000;stroke-width:0.1;stroke-miterlimit:4;stroke-dasharray:none;stroke-linejoin:round;stroke-linecap:round"
        d="M 129.70000001725458,1.0 M 5.0000000172570935,1.0000000000000178 M 5.000000017311123,6.00000000134235 M 1.0,6.00000000138558 M 1.0000000002011689,24.701277119855856 M 5.000000017512292,24.701277119812914 M 5.000000017566123,29.70127711981289 M 5.000000018649331,130.30127712044637 M 5.000000084559474,135.3012771204465 M 1.000000067248493,135.3012771204896 M 1.0000000015925252,153.99999995454934 M 5.000000018903819,153.9999999545058 M 5.0000000189584455,158.99999995450582 M 129.70000001894482,158.99999995316264 M 129.70000001858753,125.7999999402841 M 133.69999998425956,125.79999994024115 M 133.69999998408107,109.79999994024129 M 129.70000001842402,109.79999994028549 M 129.70000001837246,104.79999994028455 M 129.7000000179125,62.299999940277395 M 129.70000001778203,50.29788688113402 M 133.70000003899972,50.29788688109305 M 133.70000003883447,34.199999940243735 M 129.7000000176168,34.19999994028479 M 97.23588957568829,150.34548132223358 M 96.85000004785059,150.1856406462303 M 96.51862919794937,149.93137085007723 M 96.26435940178919,149.6000000001813 M 96.10451872577761,149.21411047234724 M 96.0500000478357,148.80000000018381 M 96.10451872576871,148.3858895280192 M 96.26435940177194,148.0000000001813 M 96.51862919792504,147.6686291502803 M 96.85000004782074,147.4143593541201 M 97.235889575655,147.25451867810855 M 97.65000004781844,147.2000000001666 M 98.06411051998305,147.2545186780994 M 98.45000004782078,147.4143593541027 M 98.78137089772196,147.66862915025592 M 99.03564069388216,148.00000000015166 M 99.19548136989374,148.3858895279857 M 99.2500000478357,148.80000000014917 M 99.19548136990264,149.2141104723138 M 99.03564069389938,149.60000000015168 M 98.78137089774631,149.93137085005287 M 98.45000004785058,150.18564064621287 M 98.06411052001634,150.34548132222443 M 97.6500000478529,150.4000000001666 M 52.949656029816055,150.1816385781685 M 52.5637658211385,150.341477577061 M 52.14965512540033,150.39599445881726 M 51.73554490216591,150.3414739880388 M 51.349656078799086,150.1816316447105 M 51.0182863409009,149.92736042037762 M 50.764017988494786,149.59598847877558 M 50.60417898959881,149.21009827010639 M 50.549662107841286,148.79598757437745 M 50.60418257862075,148.3818773511523 M 50.76402492195271,147.9959885277944 M 51.018296146291206,147.66461878990376 M 51.34966808790061,147.4103504375034 M 51.735558296578176,147.25051143861086 M 52.14966899231628,147.19599455685483 M 52.56377921555078,147.25051502763304 M 52.94966803891758,147.4103573709614 M 53.28103777681572,147.6646285952941 M 53.53530612922188,147.99600053689568 M 53.6951451281179,148.38189074556482 M 53.74966200987534,148.79600144129364 M 53.69514153909593,149.21011166451885 M 53.535299195763955,149.59600048787692 M 53.28102797142546,149.92737022576796 M 53.75000004762667,70.80000000303677 M 53.69548136969367,71.21411047520141 M 53.53564069369037,71.60000000303907 M 53.28137089753734,71.93137085294029 M 52.95000004764161,72.18564064910049 M 52.56411051980736,72.34548132511208 M 52.150000047643914,72.40000000305398 M 51.73588957547929,72.345481325121 M 51.350000047641586,72.18564064911766 M 51.01862919774038,71.93137085296465 M 50.76435940158018,71.60000000306891 M 50.60451872556861,71.21411047523469 M 50.550000047626696,70.80000000307126 M 50.604518725559686,70.38588953090661 M 50.76435940156297,70.00000000306895 M 51.018629197716024,69.66862915316767 M 51.350000047611786,69.4143593570075 M 51.73588957544604,69.25451868099599 M 52.15000004760948,69.20000000305401 M 52.564110519774076,69.25451868098705 M 52.95000004761178,69.41435935699033 M 53.281370897513,69.66862915314331 M 53.53564069367316,70.00000000303908 M 53.69548136968473,70.38588953087333 M 97.23588957477239,69.25451868114442 M 97.65000004691882,69.2000000030732 M 98.06411051910047,69.25451868087703 M 98.45000004698804,69.41435935675983 M 98.78137089696862,69.66862915280947 M 99.03564069323222,70.00000000262585 M 99.19548136936422,70.38588953041021 M 99.2500000474354,70.80000000255663 M 99.19548136963164,71.21411047473828 M 99.0356406937488,71.60000000262585 M 98.78137089769918,71.93137085260642 M 98.45000004788278,72.18564064887002 M 98.06411052009842,72.34548132500203 M 97.65000004795199,72.40000000307322 M 97.23588957577036,72.34548132526943 M 96.85000004788279,72.1856406493866 M 96.51862919790221,71.93137085333697 M 96.26435940163859,71.60000000352059 M 96.10451872550661,71.21411047573622 M 96.05000004743539,70.8000000035898 M 96.1045187252392,70.38588953140817 M 96.264359401122,70.0000000035206 M 96.51862919717166,69.66862915354001 M 96.85000004698804,69.41435935727641 M 19.299998395725197,47.11436116471952 M 19.63136924562636,47.36863096087258 M 19.885639041786476,47.700001810768285 M 20.045479717797974,48.08589133860244 M 20.099998395739902,48.500001810765866 M 20.045479717806842,48.914112282930404 M 19.885639041803614,49.30000181076807 M 19.63136924565063,49.6313726606692 M 19.299998395754926,49.885642456829345 M 18.91410886792073,50.04548313284087 M 18.499998395757387,50.10000181078283 M 18.08588792359285,50.045483132849796 M 17.699998395755273,49.88564245684658 M 17.36862754585414,49.63137266069356 M 17.114357749694022,49.30000181079794 M 16.954517073682524,48.914112282963735 M 16.899998395740596,48.500001810800285 M 16.954517073673657,48.08589133863577 M 17.114357749676884,47.700001810798184 M 17.368627545829924,47.368630960896944 M 17.6999983957256,47.114361164736785 M 18.085887923559767,46.95452048872524 M 18.49999839572311,46.90000181078331 M 18.91410886788765,46.95452048871637 M 20.045479717580577,27.914112282933623 M 19.885639041577633,28.300001810771228 M 19.631369245424878,28.631372660672497 M 19.299998395529457,28.885642456832816 M 18.914108867695546,29.045483132844677 M 18.499998395532316,29.100001810786825 M 18.085887923367864,29.04548313285418 M 17.699998395530287,28.885642456851347 M 17.368627545629096,28.63137266069872 M 17.114357749468837,28.30000181080334 M 16.95451707345711,27.9141122829694 M 16.899998395514956,27.500001810806257 M 16.954517073447704,27.085891338641787 M 17.114357749450647,26.70000181080419 M 17.368627545603402,26.368630960903012 M 17.699998395498824,26.114361164742718 M 18.085887923332763,25.954520488730942 M 18.499998395495993,25.9000018107886 M 18.914108867660417,25.954520488721293 M 19.299998395497994,26.114361164724137 M 19.631369245399185,26.368630960876764 M 19.88563904155947,26.700001810772093 M 20.04547971757117,27.085891338605993 M 20.099998395513325,27.50000181076925 M 77.6999983955055,26.114361164108836 M 78.08588792333752,25.95452048809737 M 78.49999839549878,25.900001810154965 M 78.91410886766137,25.954520488086914 M 79.29999839549734,26.11436116408861 M 79.63136924539728,26.368630960239713 M 79.88563904155671,26.700001810133234 M 80.04547971756806,27.08589133796515 M 80.0999983955104,27.500001810126346 M 80.04547971757829,27.914112282288873 M 79.88563904157647,28.30000181012485 M 79.63136924542525,28.631372660024827 M 79.2999983955316,28.885642456184296 M 78.91410886769957,29.045483132195734 M 78.49999839553833,29.100001810138163 M 78.08588792337572,29.045483132206197 M 77.69999839553975,28.885642456204504 M 77.36862754563981,28.631372660053366 M 77.1143577494804,28.300001810159852 M 76.95451707346903,27.914112282327906 M 76.8999983955267,27.500001810166758 M 76.95451707345879,27.08589133800423 M 77.11435774946062,26.70000181016828 M 77.36862754561186,26.368630960268312 M 80.04547971781018,48.91411228228577 M 79.88563904180742,49.30000181012314 M 79.63136924565498,49.631372660024276 M 79.29999839575981,49.8856424561845 M 78.91410886792616,50.04548313219624 M 78.49999839576323,50.10000181013851 M 78.08588792359906,50.045483132205945 M 77.69999839576167,49.88564245620323 M 77.36862754586063,49.63137266005076 M 77.11435774970045,49.30000181015562 M 76.95451707368875,48.91411228232198 M 76.89999839574651,48.500001810159034 M 76.95451707367916,48.08589133799484 M 77.11435774968189,47.70000181015741 M 77.36862754583437,47.36863096025633 M 77.69999839572952,47.1143611640961 M 78.08588792356316,46.954520488084356 M 78.49999839572612,46.90000181014209 M 78.91410886789028,46.954520488074635 M 79.29999839572766,47.11436116407735 M 79.63136924562872,47.36863096022983 M 79.88563904178888,47.70000181012494 M 80.04547971780057,48.08589133795862 M 80.09999839574283,48.500001810121574 M 77.3686275459314,56.36863096025732 M 77.69999839582667,56.11436116409716 M 78.08588792366047,55.954520488085535 M 78.49999839582348,55.90000181014335 M 78.91410886798774,55.95452048807609 M 79.29999839582513,56.11436116407895 M 79.63136924572615,56.368630960231556 M 79.88563904188626,56.700001810126835 M 80.0454797178979,57.08589133796066 M 80.09999839584002,57.500001810123706 M 80.04547971790728,57.91411228228799 M 79.88563904190437,58.30000181012541 M 79.63136924575173,58.631372660026486 M 79.29999839585645,58.88564245618663 M 78.91410886802268,59.0454831321983 M 78.49999839585965,59.10000181014043 M 78.08588792369541,59.04548313220771 M 77.69999839585803,58.88564245620485 M 77.36862754595698,58.63137266005222 M 77.11435774979687,58.30000181015694 M 76.95451707378525,57.91411228232315 M 76.89999839584314,57.500001810160114 M 76.95451707377589,57.08589133799586 M 77.11435774977878,56.7000018101584 M 77.69999839563063,37.88564245621058 M 77.36862754572988,37.63137266005775 M 77.11435774957008,37.30000181016233 M 76.95451707355888,36.91411228232848 M 76.89999839561717,36.50000181016549 M 76.95451707355035,36.08589133800139 M 77.11435774955359,35.70000181016416 M 77.36862754570653,35.368630960263374 M 77.69999839560202,35.11436116410355 M 78.08588792343593,34.95452048809226 M 78.49999839559896,34.900001810150464 M 78.91410886776312,34.954520488083524 M 79.2999983956003,35.11436116408666 M 79.63136924550108,35.368630960239514 M 79.88563904166085,35.70000181013494 M 80.04547971767207,36.085891337968775 M 80.09999839561375,36.50000181013175 M 80.0454797176806,36.914112282295896 M 79.88563904167734,37.300001810133125 M 79.6313692455244,37.63137266003389 M 79.29999839562893,37.885642456193736 M 78.914108867795,38.04548313220502 M 78.49999839563198,38.10000181014681 M 78.08588792346784,38.04548313221375 M 17.368627545725275,37.63137266069971 M 17.114357749565414,37.30000181080419 M 16.954517073554143,36.91411228297024 M 16.899998395612357,36.500001810807184 M 16.954517073545503,36.085891338642845 M 17.114357749548788,35.70000181080555 M 17.36862754570177,35.36863096090465 M 17.699998395597333,35.11436116474482 M 18.085887923431272,34.9545204887334 M 18.499998395594417,34.90000181079158 M 18.91410886775867,34.954520488724654 M 19.299998395595992,35.11436116472787 M 19.631369245496842,35.368630960880736 M 19.885639041656702,35.70000181077626 M 20.045479717667973,36.08589133861024 M 20.09999839560973,36.500001810773334 M 20.045479717676585,36.91411228293763 M 19.88563904167333,37.30000181077493 M 19.631369245520347,37.63137266067577 M 19.299998395624783,37.88564245683574 M 18.91410886779076,38.045483132847025 M 18.4999983956277,38.10000181078889 M 18.085887923463417,38.04548313285584 M 17.699998395626096,37.885642456852594 M 20.045479717894295,57.085891338605016 M 20.099998395836053,57.50000181076819 M 20.045479717902992,57.914112282932635 M 19.885639041899708,58.30000181077003 M 19.631369245746725,58.63137266067101 M 19.299998395851105,58.88564245683089 M 18.91410886801708,59.04548313284231 M 18.49999839585388,59.10000181078409 M 18.08588792368954,59.045483132850975 M 17.699998395852163,58.885642456847705 M 17.368627545951256,58.63137266069471 M 17.11435774979134,58.3000018107991 M 16.95451707378001,57.91411228296509 M 16.899998395838253,57.50000181080189 M 16.954517073771342,57.08589133863749 M 17.114357749774598,56.70000181080006 M 17.36862754592758,56.368630960899104 M 17.6999983958232,56.11436116473914 M 18.085887923657253,55.95452048872781 M 18.499998395820427,55.90000181078598 M 18.914108867984766,55.95452048871908 M 19.299998395822115,56.114361164722354 M 19.63136924572308,56.36863096087537 M 19.88563904188294,56.70000181077092 "
  />
</svg>
