<?xml version="1.0" encoding="UTF-8" standalone="no"?>
<svg
   xmlns:dc="http://purl.org/dc/elements/1.1/"
   xmlns:cc="http://creativecommons.org/ns#"
   xmlns:rdf="http://www.w3.org/1999/02/22-rdf-syntax-ns#"
   xmlns:svg="http://www.w3.org/2000/svg"
   xmlns="http://www.w3.org/2000/svg"
   xmlns:sodipodi="http://sodipodi.sourceforge.net/DTD/sodipodi-0.dtd"
   xmlns:inkscape="http://www.inkscape.org/namespaces/inkscape"
   width="190.0000001334509mm"
   height="179.99999995271492mm"
   viewBox="0 0 190.0000001334509 179.99999995271492"
   version="1.1"
   id="svg2"
   inkscape:version="0.91 r13725"
   sodipodi:docname="side.svg">
  <metadata
     id="metadata14">
    <rdf:RDF>
      <cc:Work
         rdf:about="">
        <dc:format>image/svg+xml</dc:format>
        <dc:type
           rdf:resource="http://purl.org/dc/dcmitype/StillImage" />
      </cc:Work>
    </rdf:RDF>
  </metadata>
  <defs
     id="defs12" />
  <sodipodi:namedview
     pagecolor="#ffffff"
     bordercolor="#666666"
     borderopacity="1"
     objecttolerance="10"
     gridtolerance="10"
     guidetolerance="10"
     inkscape:pageopacity="0"
     inkscape:pageshadow="2"
     inkscape:window-width="734"
     inkscape:window-height="480"
     id="namedview10"
     showgrid="false"
     inkscape:zoom="0.37002469"
     inkscape:cx="33.93167"
     inkscape:cy="318.89764"
     inkscape:window-x="0"
     inkscape:window-y="0"
     inkscape:window-maximized="0"
     inkscape:current-layer="svg2" />
  <desc
     id="desc4">Output from Flights of Ideas SVG Sketchup Plugin</desc>
  <path
     id="face0-cut"
     style="fill:none;stroke:#FF0000;stroke-width:0.1;stroke-miterlimit:4;stroke-dasharray:none;stroke-linejoin:round;stroke-linecap:round"
     d="M 19.517638197364498,143.9318515887867 L 19.000000107210553,143.99999993659665 L 1.0000001072105498,143.99999993659662 L 1.0000001334508966,178.99999995271492 L 189.0000001334509,178.99999978436892 L 189.0,1.0 L 1.0,1.0000000000000453 L 1.0000000262403645,36.00000000000009 L 19.0000000277398,36.000000000000114 L 19.517638117944852,36.06814834742197 L 20.000000027739812,36.267949192431225 L 20.41421359011291,36.58578643762699 L 20.73205083530868,37.00000000000009 L 20.93185168031793,37.48236190979507 L 21.00000002773981,38.000000000000085 L 21.00000010571108,141.99999993509724 L 20.931851758677304,142.51763802535336 L 20.73205091402969,142.99999993529812 L 20.414213669144452,143.4142134979095 L 20.000000107009654,143.7320507434158 L 19.517638197364498,143.9318515887867 M 172.4500000634866,9.681346659924808 L 172.95648006877133,9.471555772665134 L 173.50000006348662,9.400000007872135 L 174.04352005820192,9.471555772665111 L 174.5500000634866,9.681346659924785 L 174.98492430397837,10.015075767380386 L 175.31865341143396,10.450000007872145 L 175.52844429869367,10.956480013156856 L 175.60000006348662,11.500000007872154 L 175.52844429869367,12.04352000258743 L 175.31865341143396,12.550000007872141 L 174.98492430397837,12.984924248363898 L 174.5500000634866,13.31865335581941 L 174.04352005820192,13.528444243079175 L 173.50000006348662,13.600000007872104 L 172.95648006877136,13.528444243079152 L 172.45000006348664,13.318653355819455 L 172.01507582299485,12.984924248363853 L 171.6813467155393,12.550000007872097 L 171.47155582827955,12.043520002587385 L 171.40000006348663,11.500000007872154 L 171.47155582827958,10.95648001315681 L 171.6813467155393,10.4500000078721 L 172.01507582299487,10.01507576738041 L 172.4500000634866,9.681346659924808 M 172.45000017956477,166.6813464512413 L 172.95648018466161,166.4715555635282 L 173.50000017931282,166.39999979824833 L 174.04352017409218,166.47155556255473 L 174.55000017956476,166.6813464493609 L 174.98492442035533,167.01507555642706 L 175.31865352820037,167.44999979661998 L 175.52844441591364,167.9564798017166 L 175.60000018119328,168.49999979636786 L 175.52844441688703,169.04351979114742 L 175.31865353008084,169.54999979661997 L 174.98492442301472,169.98492403741062 L 174.5500001828218,170.31865314525558 L 174.043520177725,170.52844403296882 L 173.50000018307375,170.5999997982485 L 172.95648018829442,170.52844403394207 L 172.4500001828218,170.31865314713605 L 172.01507594203122,169.98492404007004 L 171.6813468341862,169.54999979987704 L 171.47155594647296,169.04351979478014 L 171.4000001811933,168.49999980012888 L 171.47155594549955,167.95647980534952 L 171.68134683230574,167.44999979987705 L 172.01507593937185,167.01507555908645 L 172.45000017956477,166.6813464512413 M 29.828444105123133,10.956480013156833 L 29.89999986991608,11.500000007872131 L 29.828444105123136,12.04352000258743 L 29.61865321786341,12.550000007872118 L 29.284924110407832,12.984924248363876 L 28.849999869916076,13.318653355819478 L 28.343519864631368,13.528444243079175 L 27.799999869916075,13.600000007872127 L 27.25647987520078,13.528444243079175 L 26.749999869916085,13.318653355819455 L 26.315075629424324,12.984924248363876 L 25.981346521968764,12.550000007872164 L 25.771555634709042,12.04352000258743 L 25.69999986991608,11.500000007872131 L 25.771555634709042,10.956480013156833 L 25.981346521968746,10.450000007872168 L 26.315075629424335,10.015075767380386 L 26.749999869916078,9.68134665992483 L 27.2564798752008,9.471555772665088 L 27.799999869916093,9.400000007872158 L 28.34351986463137,9.471555772665088 L 28.84999986991609,9.68134665992483 L 29.284924110407843,10.01507576738041 L 29.618653217863397,10.450000007872122 L 29.828444105123133,10.956480013156833 M 27.256479991091076,166.47155569399627 L 27.799999985742296,166.39999992871662 L 28.34351998052166,166.47155569302285 L 28.84999998599423,166.6813465798291 L 29.28492422678482,167.01507568689516 L 29.618653334629855,167.44999992708807 L 29.82844422234311,167.95647993218492 L 29.899999987622763,168.49999992683615 L 29.82844422331651,169.0435199216155 L 29.61865333651032,169.5499999270881 L 29.2849242294442,169.98492416787866 L 28.849999989251295,170.31865327572368 L 28.34351998415445,170.52844416343694 L 27.799999989503227,170.5999999287166 L 27.256479994723858,170.52844416441036 L 26.749999989251293,170.31865327760417 L 26.315075748460707,169.98492417053805 L 25.981346640615676,169.54999993034514 L 25.77155575290242,169.0435199252483 L 25.699999987622764,168.49999993059708 L 25.771555751929018,167.9564799358177 L 25.98134663873521,167.44999993034517 L 26.315075745801327,167.01507568955455 L 26.749999985994233,166.68134658170953 L 27.256479991091076,166.47155569399627 " />
  <path
     id="face0-interior"
     style="fill:none;stroke:#FF0000;stroke-width:0.1;stroke-miterlimit:4;stroke-dasharray:none;stroke-linejoin:round;stroke-linecap:round"
     d="M 19.517638197364498,143.9318515887867 M 19.000000107210553,143.99999993659665 M 1.0000001072105498,143.99999993659662 M 1.0000001334508966,178.99999995271492 M 189.0000001334509,178.99999978436892 M 189.0,1.0 M 1.0,1.0000000000000453 M 1.0000000262403645,36.00000000000009 M 19.0000000277398,36.000000000000114 M 19.517638117944852,36.06814834742197 M 20.000000027739812,36.267949192431225 M 20.41421359011291,36.58578643762699 M 20.73205083530868,37.00000000000009 M 20.93185168031793,37.48236190979507 M 21.00000002773981,38.000000000000085 M 21.00000010571108,141.99999993509724 M 20.931851758677304,142.51763802535336 M 20.73205091402969,142.99999993529812 M 20.414213669144452,143.4142134979095 M 20.000000107009654,143.7320507434158 M 172.4500000634866,9.681346659924808 M 172.95648006877133,9.471555772665134 M 173.50000006348662,9.400000007872135 M 174.04352005820192,9.471555772665111 M 174.5500000634866,9.681346659924785 M 174.98492430397837,10.015075767380386 M 175.31865341143396,10.450000007872145 M 175.52844429869367,10.956480013156856 M 175.60000006348662,11.500000007872154 M 175.52844429869367,12.04352000258743 M 175.31865341143396,12.550000007872141 M 174.98492430397837,12.984924248363898 M 174.5500000634866,13.31865335581941 M 174.04352005820192,13.528444243079175 M 173.50000006348662,13.600000007872104 M 172.95648006877136,13.528444243079152 M 172.45000006348664,13.318653355819455 M 172.01507582299485,12.984924248363853 M 171.6813467155393,12.550000007872097 M 171.47155582827955,12.043520002587385 M 171.40000006348663,11.500000007872154 M 171.47155582827958,10.95648001315681 M 171.6813467155393,10.4500000078721 M 172.01507582299487,10.01507576738041 M 172.45000017956477,166.6813464512413 M 172.95648018466161,166.4715555635282 M 173.50000017931282,166.39999979824833 M 174.04352017409218,166.47155556255473 M 174.55000017956476,166.6813464493609 M 174.98492442035533,167.01507555642706 M 175.31865352820037,167.44999979661998 M 175.52844441591364,167.9564798017166 M 175.60000018119328,168.49999979636786 M 175.52844441688703,169.04351979114742 M 175.31865353008084,169.54999979661997 M 174.98492442301472,169.98492403741062 M 174.5500001828218,170.31865314525558 M 174.043520177725,170.52844403296882 M 173.50000018307375,170.5999997982485 M 172.95648018829442,170.52844403394207 M 172.4500001828218,170.31865314713605 M 172.01507594203122,169.98492404007004 M 171.6813468341862,169.54999979987704 M 171.47155594647296,169.04351979478014 M 171.4000001811933,168.49999980012888 M 171.47155594549955,167.95647980534952 M 171.68134683230574,167.44999979987705 M 172.01507593937185,167.01507555908645 M 29.828444105123133,10.956480013156833 M 29.89999986991608,11.500000007872131 M 29.828444105123136,12.04352000258743 M 29.61865321786341,12.550000007872118 M 29.284924110407832,12.984924248363876 M 28.849999869916076,13.318653355819478 M 28.343519864631368,13.528444243079175 M 27.799999869916075,13.600000007872127 M 27.25647987520078,13.528444243079175 M 26.749999869916085,13.318653355819455 M 26.315075629424324,12.984924248363876 M 25.981346521968764,12.550000007872164 M 25.771555634709042,12.04352000258743 M 25.69999986991608,11.500000007872131 M 25.771555634709042,10.956480013156833 M 25.981346521968746,10.450000007872168 M 26.315075629424335,10.015075767380386 M 26.749999869916078,9.68134665992483 M 27.2564798752008,9.471555772665088 M 27.799999869916093,9.400000007872158 M 28.34351986463137,9.471555772665088 M 28.84999986991609,9.68134665992483 M 29.284924110407843,10.01507576738041 M 29.618653217863397,10.450000007872122 M 27.256479991091076,166.47155569399627 M 27.799999985742296,166.39999992871662 M 28.34351998052166,166.47155569302285 M 28.84999998599423,166.6813465798291 M 29.28492422678482,167.01507568689516 M 29.618653334629855,167.44999992708807 M 29.82844422234311,167.95647993218492 M 29.899999987622763,168.49999992683615 M 29.82844422331651,169.0435199216155 M 29.61865333651032,169.5499999270881 M 29.2849242294442,169.98492416787866 M 28.849999989251295,170.31865327572368 M 28.34351998415445,170.52844416343694 M 27.799999989503227,170.5999999287166 M 27.256479994723858,170.52844416441036 M 26.749999989251293,170.31865327760417 M 26.315075748460707,169.98492417053805 M 25.981346640615676,169.54999993034514 M 25.77155575290242,169.0435199252483 M 25.699999987622764,168.49999993059708 M 25.771555751929018,167.9564799358177 M 25.98134663873521,167.44999993034517 M 26.315075745801327,167.01507568955455 M 26.749999985994233,166.68134658170953 " />
  <path
     id="path8"
     style="fill:none;stroke:#FF0000;stroke-width:0.1;stroke-miterlimit:4;stroke-dasharray:none;stroke-linejoin:round;stroke-linecap:round"
     d="M 19.517638197364498,143.9318515887867 M 19.000000107210553,143.99999993659665 M 1.0000001072105498,143.99999993659662 M 1.0000001334508966,178.99999995271492 M 189.0000001334509,178.99999978436892 M 189.0,1.0 M 1.0,1.0000000000000453 M 1.0000000262403645,36.00000000000009 M 19.0000000277398,36.000000000000114 M 19.517638117944852,36.06814834742197 M 20.000000027739812,36.267949192431225 M 20.41421359011291,36.58578643762699 M 20.73205083530868,37.00000000000009 M 20.93185168031793,37.48236190979507 M 21.00000002773981,38.000000000000085 M 21.00000010571108,141.99999993509724 M 20.931851758677304,142.51763802535336 M 20.73205091402969,142.99999993529812 M 20.414213669144452,143.4142134979095 M 20.000000107009654,143.7320507434158 M 172.4500000634866,9.681346659924808 M 172.95648006877133,9.471555772665134 M 173.50000006348662,9.400000007872135 M 174.04352005820192,9.471555772665111 M 174.5500000634866,9.681346659924785 M 174.98492430397837,10.015075767380386 M 175.31865341143396,10.450000007872145 M 175.52844429869367,10.956480013156856 M 175.60000006348662,11.500000007872154 M 175.52844429869367,12.04352000258743 M 175.31865341143396,12.550000007872141 M 174.98492430397837,12.984924248363898 M 174.5500000634866,13.31865335581941 M 174.04352005820192,13.528444243079175 M 173.50000006348662,13.600000007872104 M 172.95648006877136,13.528444243079152 M 172.45000006348664,13.318653355819455 M 172.01507582299485,12.984924248363853 M 171.6813467155393,12.550000007872097 M 171.47155582827955,12.043520002587385 M 171.40000006348663,11.500000007872154 M 171.47155582827958,10.95648001315681 M 171.6813467155393,10.4500000078721 M 172.01507582299487,10.01507576738041 M 172.45000017956477,166.6813464512413 M 172.95648018466161,166.4715555635282 M 173.50000017931282,166.39999979824833 M 174.04352017409218,166.47155556255473 M 174.55000017956476,166.6813464493609 M 174.98492442035533,167.01507555642706 M 175.31865352820037,167.44999979661998 M 175.52844441591364,167.9564798017166 M 175.60000018119328,168.49999979636786 M 175.52844441688703,169.04351979114742 M 175.31865353008084,169.54999979661997 M 174.98492442301472,169.98492403741062 M 174.5500001828218,170.31865314525558 M 174.043520177725,170.52844403296882 M 173.50000018307375,170.5999997982485 M 172.95648018829442,170.52844403394207 M 172.4500001828218,170.31865314713605 M 172.01507594203122,169.98492404007004 M 171.6813468341862,169.54999979987704 M 171.47155594647296,169.04351979478014 M 171.4000001811933,168.49999980012888 M 171.47155594549955,167.95647980534952 M 171.68134683230574,167.44999979987705 M 172.01507593937185,167.01507555908645 M 29.828444105123133,10.956480013156833 M 29.89999986991608,11.500000007872131 M 29.828444105123136,12.04352000258743 M 29.61865321786341,12.550000007872118 M 29.284924110407832,12.984924248363876 M 28.849999869916076,13.318653355819478 M 28.343519864631368,13.528444243079175 M 27.799999869916075,13.600000007872127 M 27.25647987520078,13.528444243079175 M 26.749999869916085,13.318653355819455 M 26.315075629424324,12.984924248363876 M 25.981346521968764,12.550000007872164 M 25.771555634709042,12.04352000258743 M 25.69999986991608,11.500000007872131 M 25.771555634709042,10.956480013156833 M 25.981346521968746,10.450000007872168 M 26.315075629424335,10.015075767380386 M 26.749999869916078,9.68134665992483 M 27.2564798752008,9.471555772665088 M 27.799999869916093,9.400000007872158 M 28.34351986463137,9.471555772665088 M 28.84999986991609,9.68134665992483 M 29.284924110407843,10.01507576738041 M 29.618653217863397,10.450000007872122 M 27.256479991091076,166.47155569399627 M 27.799999985742296,166.39999992871662 M 28.34351998052166,166.47155569302285 M 28.84999998599423,166.6813465798291 M 29.28492422678482,167.01507568689516 M 29.618653334629855,167.44999992708807 M 29.82844422234311,167.95647993218492 M 29.899999987622763,168.49999992683615 M 29.82844422331651,169.0435199216155 M 29.61865333651032,169.5499999270881 M 29.2849242294442,169.98492416787866 M 28.849999989251295,170.31865327572368 M 28.34351998415445,170.52844416343694 M 27.799999989503227,170.5999999287166 M 27.256479994723858,170.52844416441036 M 26.749999989251293,170.31865327760417 M 26.315075748460707,169.98492417053805 M 25.981346640615676,169.54999993034514 M 25.77155575290242,169.0435199252483 M 25.699999987622764,168.49999993059708 M 25.771555751929018,167.9564799358177 M 25.98134663873521,167.44999993034517 M 26.315075745801327,167.01507568955455 M 26.749999985994233,166.68134658170953 " />
</svg>
