<?xml version="1.0" encoding="UTF-8" standalone="no"?>
<svg
   xmlns:dc="http://purl.org/dc/elements/1.1/"
   xmlns:cc="http://creativecommons.org/ns#"
   xmlns:rdf="http://www.w3.org/1999/02/22-rdf-syntax-ns#"
   xmlns:svg="http://www.w3.org/2000/svg"
   xmlns="http://www.w3.org/2000/svg"
   xmlns:sodipodi="http://sodipodi.sourceforge.net/DTD/sodipodi-0.dtd"
   xmlns:inkscape="http://www.inkscape.org/namespaces/inkscape"
   width="134.70000003899665mm"
   height="159.99999995316355mm"
   viewBox="0 0 134.70000003899665 159.99999995316355"
   version="1.1"
   id="svg2"
   inkscape:version="0.91 r13725"
   sodipodi:docname="mount-switch.svg">
  <metadata
     id="metadata14">
    <rdf:RDF>
      <cc:Work
         rdf:about="">
        <dc:format>image/svg+xml</dc:format>
        <dc:type
           rdf:resource="http://purl.org/dc/dcmitype/StillImage" />
        <dc:title></dc:title>
      </cc:Work>
    </rdf:RDF>
  </metadata>
  <defs
     id="defs12" />
  <sodipodi:namedview
     pagecolor="#ffffff"
     bordercolor="#666666"
     borderopacity="1"
     objecttolerance="10"
     gridtolerance="10"
     guidetolerance="10"
     inkscape:pageopacity="0"
     inkscape:pageshadow="2"
     inkscape:window-width="734"
     inkscape:window-height="480"
     id="namedview10"
     showgrid="false"
     inkscape:zoom="0.41627778"
     inkscape:cx="-30.409387"
     inkscape:cy="283.46457"
     inkscape:window-x="238"
     inkscape:window-y="47"
     inkscape:window-maximized="0"
     inkscape:current-layer="svg2" />
  <desc
     id="desc4">Output from Flights of Ideas SVG Sketchup Plugin</desc>
  <path
     id="face0-cut"
     style="fill:none;stroke:#FF0000;stroke-width:0.1;stroke-miterlimit:4;stroke-dasharray:none;stroke-linejoin:round;stroke-linecap:round"
     d="M 5.000000017255907,158.99999995316355 L 129.70000001725336,158.99999995316355 L 129.7000000176114,125.80000001420515 L 133.70000003882873,125.80000001424446 L 133.70000003899665,109.70211307340938 L 129.70000001777925,109.70211307336928 L 129.7000000179116,97.70000001423003 L 129.70000001838042,55.20000001423176 L 129.7000000184329,50.20000001423122 L 133.6999999840896,50.200000014275446 L 133.69999998427068,34.20000001427701 L 129.70000001859896,34.20000001423418 L 129.70000001896233,1.0000000013576482 L 5.000000018986203,1.0 L 5.000000018930702,6.0 L 1.0000000016197887,5.999999999955463 L 1.0000000672719693,24.69872283401523 L 4.999918218359557,24.69872293796456 L 5.000000018671603,29.698722834059367 L 5.000000017570173,130.29872283469274 L 5.000000017515404,135.29872283469274 L 1.000000000204615,135.29872283464888 L 1.0,153.99999995311936 L 5.000000017310828,153.99999995316358 L 5.000000017255907,158.99999995316355 M 53.6954813697013,88.78588947931033 L 53.750000047634245,89.19999995147494 L 53.69548136969222,89.61411042363835 L 53.535640693680605,89.99999995147257 L 53.281370897520375,90.33137080136828 L 52.95000004761914,90.58564059752132 L 52.564110519781444,90.74548127352453 L 52.15000004761686,90.79999995145754 L 51.735889575453456,90.74548127351555 L 51.35000004761928,90.585640597504 L 51.01862919772361,90.33137080134378 L 50.76435940157063,89.99999995144255 L 50.60451872556746,89.61411042360487 L 50.5500000476345,89.19999995144025 L 50.604518725576526,88.78588947927682 L 50.76435940158814,88.39999995144261 L 51.01862919774837,88.06862910154689 L 51.350000047649615,87.8143593053939 L 51.73588957548727,87.65451862939064 L 52.15000004765189,87.59999995145763 L 52.5641105198153,87.65451862939963 L 52.950000047649475,87.81435930541123 L 53.281370897545145,88.06862910157143 L 53.53564069369812,88.39999995147264 L 53.6954813697013,88.78588947931033 M 96.8500000478692,9.814359308287436 L 97.23588957570689,9.654518632284237 L 97.65000004787146,9.599999954351176 L 98.06411052003487,9.654518632293446 L 98.45000004786905,9.814359308304972 L 98.7813708977647,10.068629104464947 L 99.03564069391768,10.399999954366194 L 99.19548136992086,10.78588948220414 L 99.2500000478538,11.199999954368678 L 99.19548136991176,11.614110426532164 L 99.03564069390018,11.99999995436616 L 98.78137089773995,12.331370804261837 L 98.45000004783873,12.585640600415104 L 98.06411052000101,12.745481276418303 L 97.65000004783641,12.79999995435108 L 97.23588957567303,12.745481276409095 L 96.85000004783888,12.58564060039754 L 96.51862919794318,12.331370804237338 L 96.26435940179019,11.999999954336317 L 96.104518725787,11.6141104264984 L 96.05000004785407,11.199999954333805 L 96.10451872579613,10.785889482170347 L 96.2643594018077,10.39999995433638 L 96.51862919796798,10.068629104440447 L 96.8500000478692,9.814359308287436 M 97.6500000469225,90.79999995143899 L 97.2358895747761,90.74548127336783 L 96.85000004699182,90.58564059723588 L 96.5186291971755,90.33137080097232 L 96.26435940112594,89.99999995099179 L 96.1045187252432,89.61411042310426 L 96.05000004743951,89.1999999509227 L 96.10451872551076,88.78588947877633 L 96.26435940164282,88.399999950992 L 96.51862919790648,88.06862910117569 L 96.85000004788706,87.81435930512606 L 97.23588957577462,87.65451862924324 L 97.65000004795625,87.59999995143947 L 98.06411052010263,87.65451862951063 L 98.45000004788693,87.81435930564258 L 98.78137089770325,88.06862910190617 L 99.0356406937528,88.3999999518867 L 99.19548136963553,88.78588947977417 L 99.25000004743924,89.19999995195575 L 99.19548136936797,89.61411042410215 L 99.03564069323593,89.99999995188644 L 98.78137089697225,90.33137080170276 L 98.45000004699168,90.58564059775237 L 98.0641105191041,90.74548127363519 L 97.6500000469225,90.79999995143899 M 52.563765820759905,9.65852237732426 L 52.949656029437435,9.818361376215648 L 53.2810279710467,10.072629728615112 L 53.53529919538511,10.40399946650524 L 53.69514153871707,10.789888289862517 L 53.749662009496376,11.203998513087214 L 53.69514512773882,11.618109208815866 L 53.53530612884282,12.003999417485005 L 53.281037776436634,12.335371359086992 L 52.949668038538434,12.589642583420328 L 52.56377921517161,12.749484926749517 L 52.14966899193719,12.804005397528726 L 51.7355582961991,12.749488515773919 L 51.34966808752155,12.589649516882474 L 51.01829614591229,12.33538116448318 L 50.76402492157387,12.004011426593479 L 50.60418257824196,11.618122603236316 L 50.54966210746266,11.204012380011733 L 50.60417898922018,10.789901684282938 L 50.76401798811618,10.4040114756136 L 51.01828634052238,10.072639534011216 L 51.34965607842059,9.818368309677709 L 51.73554490178738,9.658525966348606 L 52.14965512502183,9.604005495569112 L 52.563765820759905,9.65852237732426 M 19.631370867612635,112.63137080322042 L 19.300000017711486,112.88564059937345 L 18.91411048987386,113.04548127537669 L 18.500000017709308,113.09999995330976 L 18.08588954554591,113.04548127536783 L 17.700000017711712,112.88564059935632 L 17.368629167816,112.63137080319619 L 17.11435937166296,112.29999995329506 L 16.95451869565971,111.91411042545747 L 16.90000001772666,111.49999995329291 L 16.954518695668565,111.08588948112954 L 17.11435937168009,110.69999995329536 L 17.368629167840222,110.36862910339966 L 17.70000001774138,110.11435930724663 L 18.085889545579,109.95451863124339 L 18.50000001774357,109.89999995331034 L 18.914110489906953,109.95451863125224 L 19.300000017741162,110.11435930726377 L 19.63137086763686,110.3686291034239 L 19.885640663789907,110.69999995332502 L 20.045481339793156,111.08588948116264 L 20.100000017726217,111.49999995332719 L 20.045481339784292,111.91411042549055 L 19.885640663772776,112.29999995332474 L 19.631370867612635,112.63137080322042 M 19.88564066356188,131.6999999533196 L 20.045481339564834,132.08588948115715 L 20.1000000174976,132.4999999533215 L 20.045481339555433,132.9141104254846 L 19.885640663543708,133.2999999533185 L 19.631370867383428,133.63137080321385 L 19.300000017482205,133.88564059936652 L 18.914110489644592,134.04548127536944 L 18.500000017480115,134.0999999533022 L 18.08588954531688,134.04548127536003 L 17.700000017482893,133.88564059934836 L 17.36862916758745,133.63137080318813 L 17.114359371434695,133.29999995328703 L 16.954518695431744,132.9141104254495 L 16.900000017498975,132.49999995328514 L 16.95451869544114,132.08588948112202 L 17.114359371452867,131.6999999532881 L 17.36862916761315,131.36862910339278 L 17.700000017514373,131.11435930724008 L 18.085889545351986,130.95451863123716 L 18.50000001751646,130.8999999533044 L 18.9141104896797,130.95451863124654 L 19.300000017513682,131.11435930725824 L 19.631370867409128,131.36862910341847 L 19.88564066356188,131.6999999533196 M 79.88564066378706,110.69999995395398 L 80.04548133978983,111.08588948179126 L 80.10000001772244,111.49999995395527 L 80.04548133978021,111.91411042611809 L 79.8856406637685,112.29999995395161 L 79.6313708676083,112.63137080384661 L 79.30000001770722,112.88564059999904 L 78.91411048986983,113.04548127600171 L 78.50000001770562,113.09999995393433 L 78.08588954554266,113.04548127599212 L 77.70000001770897,112.88564059998049 L 77.3686291678138,112.6313708038204 L 77.11435937166128,112.29999995391945 L 76.95451869565854,111.91411042608222 L 76.90000001772589,111.49999995391813 L 76.95451869566813,111.08588948175534 L 77.11435937167984,110.69999995392182 L 77.36862916784004,110.3686291040268 L 77.7000000177411,110.11435930787438 L 78.08588954557851,109.95451863187165 L 78.50000001774274,109.89999995393904 L 78.91411048990568,109.95451863188127 L 79.30000001773939,110.11435930789294 L 79.63137086763456,110.36862910405303 L 79.88564066378706,110.69999995395398 M 78.08588954531498,134.04548127595802 L 77.70000001748292,133.88564059994695 L 77.36862916758923,133.63137080378792 L 77.11435937143798,133.29999995388854 L 76.95451869543612,132.91411042605318 L 76.90000001750406,132.49999995389126 L 76.9545186954464,132.08588948173065 L 77.11435937145775,131.69999995389918 L 77.3686291676172,131.36862910400603 L 77.70000001751717,131.11435930785512 L 78.08588954535317,130.95451863185355 L 78.5000000175158,130.89999995392148 L 78.91411048967707,130.95451863186375 L 79.30000001750915,131.1143593078749 L 79.63137086740281,131.36862910403397 L 79.88564066355406,131.69999995393346 L 80.04548133955589,132.0858894817688 L 80.10000001748801,132.4999999539308 L 80.04548133954566,132.91411042609144 L 79.8856406635343,133.29999995392282 L 79.63137086737484,133.63137080381586 L 79.30000001747489,133.8856405999667 L 78.91411048963889,134.04548127596826 L 78.50000001747624,134.09999995390024 L 78.08588954531498,134.04548127595802 M 17.11435937154865,122.69999995328772 L 17.368629167708526,122.36862910339217 L 17.700000017609394,122.11435930723923 L 18.085889545446737,121.95451863123598 L 18.500000017611033,121.89999995330285 L 18.91411048977418,121.95451863124458 L 19.300000017608205,122.11435930725585 L 19.631370867503794,122.3686291034157 L 19.88564066365677,122.6999999533165 L 20.045481339660054,123.0858894811538 L 20.1000000175932,123.499999953318 L 20.045481339651438,123.91411042548108 L 19.885640663640142,124.29999995331504 L 19.631370867480268,124.63137080321056 L 19.30000001757939,124.88564059936351 L 18.914110489742054,125.04548127536674 L 18.500000017577765,125.09999995329989 L 18.085889545414613,125.04548127535814 L 17.700000017580592,124.88564059934686 L 17.368629167685008,124.63137080318702 L 17.114359371532018,124.29999995328623 L 16.95451869552874,123.91411042544895 L 16.90000001759559,123.49999995328474 L 16.954518695537345,123.08588948112165 L 17.11435937154865,122.69999995328772 M 20.100000017823408,102.49999995332526 L 20.045481339881608,102.91411042548847 L 19.88564066387026,103.29999995332254 L 19.63137086771032,103.63137080321815 L 19.30000001780938,103.88564059937114 L 18.91411048997196,104.04548127537444 L 18.500000017807594,104.09999995330755 L 18.08588954564438,104.04548127536577 L 17.700000017810304,103.88564059935442 L 17.368629167914683,103.63137080319449 L 17.114359371761672,103.29999995329356 L 16.9545186957584,102.91411042545612 L 16.90000001782527,102.49999995329179 L 16.954518695767057,102.08588948112856 L 17.114359371778406,101.69999995329451 L 17.368629167938355,101.36862910339889 L 17.700000017839304,101.11435930724589 L 18.085889545676714,100.95451863124262 L 18.50000001784107,100.89999995330948 L 18.914110490004298,100.95451863125126 L 19.300000017838368,101.11435930726262 L 19.631370867734,101.36862910342253 L 19.885640663887,101.6999999533235 L 20.045481339890276,102.08588948116092 L 20.100000017823408,102.49999995332526 M 77.70000001780711,103.8856405999836 L 77.36862916791182,103.63137080382353 L 77.11435937175915,103.29999995392258 L 76.95451869575626,102.91411042608526 L 76.90000001782352,102.49999995392106 L 76.95451869576563,102.08588948175813 L 77.11435937177725,101.69999995392439 L 77.3686291679374,101.36862910402918 L 77.70000001783845,101.11435930787658 L 78.08588954567588,100.9545186318737 L 78.50000001784016,100.89999995394098 L 78.91411049000322,100.9545186318831 L 79.30000001783704,101.1143593078947 L 79.63137086773234,101.3686291040548 L 79.885640663885,101.69999995395575 L 80.0454813398879,102.08588948179309 L 80.10000001782063,102.49999995395726 L 80.04548133987853,102.91411042612017 L 79.8856406638669,103.2999999539539 L 79.63137086770675,103.63137080384912 L 79.30000001780567,103.88564060000171 L 78.91411048996827,104.04548127600457 L 78.50000001780398,104.09999995393736 L 78.08588954564092,104.04548127599521 L 77.70000001780711,103.8856405999836 M 77.36862916770644,122.36862910400869 L 77.70000001760721,122.11435930785595 L 78.08588954544445,121.95451863185284 L 78.50000001760861,121.89999995391968 L 78.91411048977169,121.95451863186135 L 79.30000001760564,122.11435930787243 L 79.63137086750118,122.36862910403204 L 79.88564066365413,122.69999995393248 L 80.04548133965737,123.08588948176933 L 80.10000001759056,123.49999995393313 L 80.04548133964884,123.91411042609579 L 79.8856406636376,124.29999995392933 L 79.63137086747784,124.63137080382455 L 79.30000001757703,124.8856405999772 L 78.91411048973981,125.04548127598032 L 78.50000001757564,125.09999995391345 L 78.08588954541257,125.04548127597178 L 77.70000001757862,124.88564059996071 L 77.36862916768308,124.63137080380116 L 77.11435937153014,124.29999995390074 L 76.95451869552687,123.91411042606393 L 76.9000000175937,123.49999995390012 L 76.95451869553543,123.08588948173745 L 77.11435937154664,122.69999995390388 L 77.36862916770644,122.36862910400869 " />
  <path
     id="face0-interior"
     style="fill:none;stroke:#FF0000;stroke-width:0.1;stroke-miterlimit:4;stroke-dasharray:none;stroke-linejoin:round;stroke-linecap:round"
     d="M 5.000000017255907,158.99999995316355 M 129.70000001725336,158.99999995316355 M 129.7000000176114,125.80000001420515 M 133.70000003882873,125.80000001424446 M 133.70000003899665,109.70211307340938 M 129.70000001777925,109.70211307336928 M 129.7000000179116,97.70000001423003 M 129.70000001838042,55.20000001423176 M 129.7000000184329,50.20000001423122 M 133.6999999840896,50.200000014275446 M 133.69999998427068,34.20000001427701 M 129.70000001859896,34.20000001423418 M 129.70000001896233,1.0000000013576482 M 5.000000018986203,1.0 M 5.000000018930702,6.0 M 1.0000000016197887,5.999999999955463 M 1.0000000672719693,24.69872283401523 M 4.999918218359557,24.69872293796456 M 5.000000018671603,29.698722834059367 M 5.000000017570173,130.29872283469274 M 5.000000017515404,135.29872283469274 M 1.000000000204615,135.29872283464888 M 1.0,153.99999995311936 M 5.000000017310828,153.99999995316358 M 53.6954813697013,88.78588947931033 M 53.750000047634245,89.19999995147494 M 53.69548136969222,89.61411042363835 M 53.535640693680605,89.99999995147257 M 53.281370897520375,90.33137080136828 M 52.95000004761914,90.58564059752132 M 52.564110519781444,90.74548127352453 M 52.15000004761686,90.79999995145754 M 51.735889575453456,90.74548127351555 M 51.35000004761928,90.585640597504 M 51.01862919772361,90.33137080134378 M 50.76435940157063,89.99999995144255 M 50.60451872556746,89.61411042360487 M 50.5500000476345,89.19999995144025 M 50.604518725576526,88.78588947927682 M 50.76435940158814,88.39999995144261 M 51.01862919774837,88.06862910154689 M 51.350000047649615,87.8143593053939 M 51.73588957548727,87.65451862939064 M 52.15000004765189,87.59999995145763 M 52.5641105198153,87.65451862939963 M 52.950000047649475,87.81435930541123 M 53.281370897545145,88.06862910157143 M 53.53564069369812,88.39999995147264 M 96.8500000478692,9.814359308287436 M 97.23588957570689,9.654518632284237 M 97.65000004787146,9.599999954351176 M 98.06411052003487,9.654518632293446 M 98.45000004786905,9.814359308304972 M 98.7813708977647,10.068629104464947 M 99.03564069391768,10.399999954366194 M 99.19548136992086,10.78588948220414 M 99.2500000478538,11.199999954368678 M 99.19548136991176,11.614110426532164 M 99.03564069390018,11.99999995436616 M 98.78137089773995,12.331370804261837 M 98.45000004783873,12.585640600415104 M 98.06411052000101,12.745481276418303 M 97.65000004783641,12.79999995435108 M 97.23588957567303,12.745481276409095 M 96.85000004783888,12.58564060039754 M 96.51862919794318,12.331370804237338 M 96.26435940179019,11.999999954336317 M 96.104518725787,11.6141104264984 M 96.05000004785407,11.199999954333805 M 96.10451872579613,10.785889482170347 M 96.2643594018077,10.39999995433638 M 96.51862919796798,10.068629104440447 M 97.6500000469225,90.79999995143899 M 97.2358895747761,90.74548127336783 M 96.85000004699182,90.58564059723588 M 96.5186291971755,90.33137080097232 M 96.26435940112594,89.99999995099179 M 96.1045187252432,89.61411042310426 M 96.05000004743951,89.1999999509227 M 96.10451872551076,88.78588947877633 M 96.26435940164282,88.399999950992 M 96.51862919790648,88.06862910117569 M 96.85000004788706,87.81435930512606 M 97.23588957577462,87.65451862924324 M 97.65000004795625,87.59999995143947 M 98.06411052010263,87.65451862951063 M 98.45000004788693,87.81435930564258 M 98.78137089770325,88.06862910190617 M 99.0356406937528,88.3999999518867 M 99.19548136963553,88.78588947977417 M 99.25000004743924,89.19999995195575 M 99.19548136936797,89.61411042410215 M 99.03564069323593,89.99999995188644 M 98.78137089697225,90.33137080170276 M 98.45000004699168,90.58564059775237 M 98.0641105191041,90.74548127363519 M 52.563765820759905,9.65852237732426 M 52.949656029437435,9.818361376215648 M 53.2810279710467,10.072629728615112 M 53.53529919538511,10.40399946650524 M 53.69514153871707,10.789888289862517 M 53.749662009496376,11.203998513087214 M 53.69514512773882,11.618109208815866 M 53.53530612884282,12.003999417485005 M 53.281037776436634,12.335371359086992 M 52.949668038538434,12.589642583420328 M 52.56377921517161,12.749484926749517 M 52.14966899193719,12.804005397528726 M 51.7355582961991,12.749488515773919 M 51.34966808752155,12.589649516882474 M 51.01829614591229,12.33538116448318 M 50.76402492157387,12.004011426593479 M 50.60418257824196,11.618122603236316 M 50.54966210746266,11.204012380011733 M 50.60417898922018,10.789901684282938 M 50.76401798811618,10.4040114756136 M 51.01828634052238,10.072639534011216 M 51.34965607842059,9.818368309677709 M 51.73554490178738,9.658525966348606 M 52.14965512502183,9.604005495569112 M 19.631370867612635,112.63137080322042 M 19.300000017711486,112.88564059937345 M 18.91411048987386,113.04548127537669 M 18.500000017709308,113.09999995330976 M 18.08588954554591,113.04548127536783 M 17.700000017711712,112.88564059935632 M 17.368629167816,112.63137080319619 M 17.11435937166296,112.29999995329506 M 16.95451869565971,111.91411042545747 M 16.90000001772666,111.49999995329291 M 16.954518695668565,111.08588948112954 M 17.11435937168009,110.69999995329536 M 17.368629167840222,110.36862910339966 M 17.70000001774138,110.11435930724663 M 18.085889545579,109.95451863124339 M 18.50000001774357,109.89999995331034 M 18.914110489906953,109.95451863125224 M 19.300000017741162,110.11435930726377 M 19.63137086763686,110.3686291034239 M 19.885640663789907,110.69999995332502 M 20.045481339793156,111.08588948116264 M 20.100000017726217,111.49999995332719 M 20.045481339784292,111.91411042549055 M 19.885640663772776,112.29999995332474 M 19.88564066356188,131.6999999533196 M 20.045481339564834,132.08588948115715 M 20.1000000174976,132.4999999533215 M 20.045481339555433,132.9141104254846 M 19.885640663543708,133.2999999533185 M 19.631370867383428,133.63137080321385 M 19.300000017482205,133.88564059936652 M 18.914110489644592,134.04548127536944 M 18.500000017480115,134.0999999533022 M 18.08588954531688,134.04548127536003 M 17.700000017482893,133.88564059934836 M 17.36862916758745,133.63137080318813 M 17.114359371434695,133.29999995328703 M 16.954518695431744,132.9141104254495 M 16.900000017498975,132.49999995328514 M 16.95451869544114,132.08588948112202 M 17.114359371452867,131.6999999532881 M 17.36862916761315,131.36862910339278 M 17.700000017514373,131.11435930724008 M 18.085889545351986,130.95451863123716 M 18.50000001751646,130.8999999533044 M 18.9141104896797,130.95451863124654 M 19.300000017513682,131.11435930725824 M 19.631370867409128,131.36862910341847 M 79.88564066378706,110.69999995395398 M 80.04548133978983,111.08588948179126 M 80.10000001772244,111.49999995395527 M 80.04548133978021,111.91411042611809 M 79.8856406637685,112.29999995395161 M 79.6313708676083,112.63137080384661 M 79.30000001770722,112.88564059999904 M 78.91411048986983,113.04548127600171 M 78.50000001770562,113.09999995393433 M 78.08588954554266,113.04548127599212 M 77.70000001770897,112.88564059998049 M 77.3686291678138,112.6313708038204 M 77.11435937166128,112.29999995391945 M 76.95451869565854,111.91411042608222 M 76.90000001772589,111.49999995391813 M 76.95451869566813,111.08588948175534 M 77.11435937167984,110.69999995392182 M 77.36862916784004,110.3686291040268 M 77.7000000177411,110.11435930787438 M 78.08588954557851,109.95451863187165 M 78.50000001774274,109.89999995393904 M 78.91411048990568,109.95451863188127 M 79.30000001773939,110.11435930789294 M 79.63137086763456,110.36862910405303 M 78.08588954531498,134.04548127595802 M 77.70000001748292,133.88564059994695 M 77.36862916758923,133.63137080378792 M 77.11435937143798,133.29999995388854 M 76.95451869543612,132.91411042605318 M 76.90000001750406,132.49999995389126 M 76.9545186954464,132.08588948173065 M 77.11435937145775,131.69999995389918 M 77.3686291676172,131.36862910400603 M 77.70000001751717,131.11435930785512 M 78.08588954535317,130.95451863185355 M 78.5000000175158,130.89999995392148 M 78.91411048967707,130.95451863186375 M 79.30000001750915,131.1143593078749 M 79.63137086740281,131.36862910403397 M 79.88564066355406,131.69999995393346 M 80.04548133955589,132.0858894817688 M 80.10000001748801,132.4999999539308 M 80.04548133954566,132.91411042609144 M 79.8856406635343,133.29999995392282 M 79.63137086737484,133.63137080381586 M 79.30000001747489,133.8856405999667 M 78.91411048963889,134.04548127596826 M 78.50000001747624,134.09999995390024 M 17.11435937154865,122.69999995328772 M 17.368629167708526,122.36862910339217 M 17.700000017609394,122.11435930723923 M 18.085889545446737,121.95451863123598 M 18.500000017611033,121.89999995330285 M 18.91411048977418,121.95451863124458 M 19.300000017608205,122.11435930725585 M 19.631370867503794,122.3686291034157 M 19.88564066365677,122.6999999533165 M 20.045481339660054,123.0858894811538 M 20.1000000175932,123.499999953318 M 20.045481339651438,123.91411042548108 M 19.885640663640142,124.29999995331504 M 19.631370867480268,124.63137080321056 M 19.30000001757939,124.88564059936351 M 18.914110489742054,125.04548127536674 M 18.500000017577765,125.09999995329989 M 18.085889545414613,125.04548127535814 M 17.700000017580592,124.88564059934686 M 17.368629167685008,124.63137080318702 M 17.114359371532018,124.29999995328623 M 16.95451869552874,123.91411042544895 M 16.90000001759559,123.49999995328474 M 16.954518695537345,123.08588948112165 M 20.100000017823408,102.49999995332526 M 20.045481339881608,102.91411042548847 M 19.88564066387026,103.29999995332254 M 19.63137086771032,103.63137080321815 M 19.30000001780938,103.88564059937114 M 18.91411048997196,104.04548127537444 M 18.500000017807594,104.09999995330755 M 18.08588954564438,104.04548127536577 M 17.700000017810304,103.88564059935442 M 17.368629167914683,103.63137080319449 M 17.114359371761672,103.29999995329356 M 16.9545186957584,102.91411042545612 M 16.90000001782527,102.49999995329179 M 16.954518695767057,102.08588948112856 M 17.114359371778406,101.69999995329451 M 17.368629167938355,101.36862910339889 M 17.700000017839304,101.11435930724589 M 18.085889545676714,100.95451863124262 M 18.50000001784107,100.89999995330948 M 18.914110490004298,100.95451863125126 M 19.300000017838368,101.11435930726262 M 19.631370867734,101.36862910342253 M 19.885640663887,101.6999999533235 M 20.045481339890276,102.08588948116092 M 77.70000001780711,103.8856405999836 M 77.36862916791182,103.63137080382353 M 77.11435937175915,103.29999995392258 M 76.95451869575626,102.91411042608526 M 76.90000001782352,102.49999995392106 M 76.95451869576563,102.08588948175813 M 77.11435937177725,101.69999995392439 M 77.3686291679374,101.36862910402918 M 77.70000001783845,101.11435930787658 M 78.08588954567588,100.9545186318737 M 78.50000001784016,100.89999995394098 M 78.91411049000322,100.9545186318831 M 79.30000001783704,101.1143593078947 M 79.63137086773234,101.3686291040548 M 79.885640663885,101.69999995395575 M 80.0454813398879,102.08588948179309 M 80.10000001782063,102.49999995395726 M 80.04548133987853,102.91411042612017 M 79.8856406638669,103.2999999539539 M 79.63137086770675,103.63137080384912 M 79.30000001780567,103.88564060000171 M 78.91411048996827,104.04548127600457 M 78.50000001780398,104.09999995393736 M 78.08588954564092,104.04548127599521 M 77.36862916770644,122.36862910400869 M 77.70000001760721,122.11435930785595 M 78.08588954544445,121.95451863185284 M 78.50000001760861,121.89999995391968 M 78.91411048977169,121.95451863186135 M 79.30000001760564,122.11435930787243 M 79.63137086750118,122.36862910403204 M 79.88564066365413,122.69999995393248 M 80.04548133965737,123.08588948176933 M 80.10000001759056,123.49999995393313 M 80.04548133964884,123.91411042609579 M 79.8856406636376,124.29999995392933 M 79.63137086747784,124.63137080382455 M 79.30000001757703,124.8856405999772 M 78.91411048973981,125.04548127598032 M 78.50000001757564,125.09999995391345 M 78.08588954541257,125.04548127597178 M 77.70000001757862,124.88564059996071 M 77.36862916768308,124.63137080380116 M 77.11435937153014,124.29999995390074 M 76.95451869552687,123.91411042606393 M 76.9000000175937,123.49999995390012 M 76.95451869553543,123.08588948173745 M 77.11435937154664,122.69999995390388 " />
  <path
     id="path8"
     style="fill:none;stroke:#FF0000;stroke-width:0.1;stroke-miterlimit:4;stroke-dasharray:none;stroke-linejoin:round;stroke-linecap:round"
     d="M 5.000000017255907,158.99999995316355 M 129.70000001725336,158.99999995316355 M 129.7000000176114,125.80000001420515 M 133.70000003882873,125.80000001424446 M 133.70000003899665,109.70211307340938 M 129.70000001777925,109.70211307336928 M 129.7000000179116,97.70000001423003 M 129.70000001838042,55.20000001423176 M 129.7000000184329,50.20000001423122 M 133.6999999840896,50.200000014275446 M 133.69999998427068,34.20000001427701 M 129.70000001859896,34.20000001423418 M 129.70000001896233,1.0000000013576482 M 5.000000018986203,1.0 M 5.000000018930702,6.0 M 1.0000000016197887,5.999999999955463 M 1.0000000672719693,24.69872283401523 M 4.999918218359557,24.69872293796456 M 5.000000018671603,29.698722834059367 M 5.000000017570173,130.29872283469274 M 5.000000017515404,135.29872283469274 M 1.000000000204615,135.29872283464888 M 1.0,153.99999995311936 M 5.000000017310828,153.99999995316358 M 53.6954813697013,88.78588947931033 M 53.750000047634245,89.19999995147494 M 53.69548136969222,89.61411042363835 M 53.535640693680605,89.99999995147257 M 53.281370897520375,90.33137080136828 M 52.95000004761914,90.58564059752132 M 52.564110519781444,90.74548127352453 M 52.15000004761686,90.79999995145754 M 51.735889575453456,90.74548127351555 M 51.35000004761928,90.585640597504 M 51.01862919772361,90.33137080134378 M 50.76435940157063,89.99999995144255 M 50.60451872556746,89.61411042360487 M 50.5500000476345,89.19999995144025 M 50.604518725576526,88.78588947927682 M 50.76435940158814,88.39999995144261 M 51.01862919774837,88.06862910154689 M 51.350000047649615,87.8143593053939 M 51.73588957548727,87.65451862939064 M 52.15000004765189,87.59999995145763 M 52.5641105198153,87.65451862939963 M 52.950000047649475,87.81435930541123 M 53.281370897545145,88.06862910157143 M 53.53564069369812,88.39999995147264 M 96.8500000478692,9.814359308287436 M 97.23588957570689,9.654518632284237 M 97.65000004787146,9.599999954351176 M 98.06411052003487,9.654518632293446 M 98.45000004786905,9.814359308304972 M 98.7813708977647,10.068629104464947 M 99.03564069391768,10.399999954366194 M 99.19548136992086,10.78588948220414 M 99.2500000478538,11.199999954368678 M 99.19548136991176,11.614110426532164 M 99.03564069390018,11.99999995436616 M 98.78137089773995,12.331370804261837 M 98.45000004783873,12.585640600415104 M 98.06411052000101,12.745481276418303 M 97.65000004783641,12.79999995435108 M 97.23588957567303,12.745481276409095 M 96.85000004783888,12.58564060039754 M 96.51862919794318,12.331370804237338 M 96.26435940179019,11.999999954336317 M 96.104518725787,11.6141104264984 M 96.05000004785407,11.199999954333805 M 96.10451872579613,10.785889482170347 M 96.2643594018077,10.39999995433638 M 96.51862919796798,10.068629104440447 M 97.6500000469225,90.79999995143899 M 97.2358895747761,90.74548127336783 M 96.85000004699182,90.58564059723588 M 96.5186291971755,90.33137080097232 M 96.26435940112594,89.99999995099179 M 96.1045187252432,89.61411042310426 M 96.05000004743951,89.1999999509227 M 96.10451872551076,88.78588947877633 M 96.26435940164282,88.399999950992 M 96.51862919790648,88.06862910117569 M 96.85000004788706,87.81435930512606 M 97.23588957577462,87.65451862924324 M 97.65000004795625,87.59999995143947 M 98.06411052010263,87.65451862951063 M 98.45000004788693,87.81435930564258 M 98.78137089770325,88.06862910190617 M 99.0356406937528,88.3999999518867 M 99.19548136963553,88.78588947977417 M 99.25000004743924,89.19999995195575 M 99.19548136936797,89.61411042410215 M 99.03564069323593,89.99999995188644 M 98.78137089697225,90.33137080170276 M 98.45000004699168,90.58564059775237 M 98.0641105191041,90.74548127363519 M 52.563765820759905,9.65852237732426 M 52.949656029437435,9.818361376215648 M 53.2810279710467,10.072629728615112 M 53.53529919538511,10.40399946650524 M 53.69514153871707,10.789888289862517 M 53.749662009496376,11.203998513087214 M 53.69514512773882,11.618109208815866 M 53.53530612884282,12.003999417485005 M 53.281037776436634,12.335371359086992 M 52.949668038538434,12.589642583420328 M 52.56377921517161,12.749484926749517 M 52.14966899193719,12.804005397528726 M 51.7355582961991,12.749488515773919 M 51.34966808752155,12.589649516882474 M 51.01829614591229,12.33538116448318 M 50.76402492157387,12.004011426593479 M 50.60418257824196,11.618122603236316 M 50.54966210746266,11.204012380011733 M 50.60417898922018,10.789901684282938 M 50.76401798811618,10.4040114756136 M 51.01828634052238,10.072639534011216 M 51.34965607842059,9.818368309677709 M 51.73554490178738,9.658525966348606 M 52.14965512502183,9.604005495569112 M 19.631370867612635,112.63137080322042 M 19.300000017711486,112.88564059937345 M 18.91411048987386,113.04548127537669 M 18.500000017709308,113.09999995330976 M 18.08588954554591,113.04548127536783 M 17.700000017711712,112.88564059935632 M 17.368629167816,112.63137080319619 M 17.11435937166296,112.29999995329506 M 16.95451869565971,111.91411042545747 M 16.90000001772666,111.49999995329291 M 16.954518695668565,111.08588948112954 M 17.11435937168009,110.69999995329536 M 17.368629167840222,110.36862910339966 M 17.70000001774138,110.11435930724663 M 18.085889545579,109.95451863124339 M 18.50000001774357,109.89999995331034 M 18.914110489906953,109.95451863125224 M 19.300000017741162,110.11435930726377 M 19.63137086763686,110.3686291034239 M 19.885640663789907,110.69999995332502 M 20.045481339793156,111.08588948116264 M 20.100000017726217,111.49999995332719 M 20.045481339784292,111.91411042549055 M 19.885640663772776,112.29999995332474 M 19.88564066356188,131.6999999533196 M 20.045481339564834,132.08588948115715 M 20.1000000174976,132.4999999533215 M 20.045481339555433,132.9141104254846 M 19.885640663543708,133.2999999533185 M 19.631370867383428,133.63137080321385 M 19.300000017482205,133.88564059936652 M 18.914110489644592,134.04548127536944 M 18.500000017480115,134.0999999533022 M 18.08588954531688,134.04548127536003 M 17.700000017482893,133.88564059934836 M 17.36862916758745,133.63137080318813 M 17.114359371434695,133.29999995328703 M 16.954518695431744,132.9141104254495 M 16.900000017498975,132.49999995328514 M 16.95451869544114,132.08588948112202 M 17.114359371452867,131.6999999532881 M 17.36862916761315,131.36862910339278 M 17.700000017514373,131.11435930724008 M 18.085889545351986,130.95451863123716 M 18.50000001751646,130.8999999533044 M 18.9141104896797,130.95451863124654 M 19.300000017513682,131.11435930725824 M 19.631370867409128,131.36862910341847 M 79.88564066378706,110.69999995395398 M 80.04548133978983,111.08588948179126 M 80.10000001772244,111.49999995395527 M 80.04548133978021,111.91411042611809 M 79.8856406637685,112.29999995395161 M 79.6313708676083,112.63137080384661 M 79.30000001770722,112.88564059999904 M 78.91411048986983,113.04548127600171 M 78.50000001770562,113.09999995393433 M 78.08588954554266,113.04548127599212 M 77.70000001770897,112.88564059998049 M 77.3686291678138,112.6313708038204 M 77.11435937166128,112.29999995391945 M 76.95451869565854,111.91411042608222 M 76.90000001772589,111.49999995391813 M 76.95451869566813,111.08588948175534 M 77.11435937167984,110.69999995392182 M 77.36862916784004,110.3686291040268 M 77.7000000177411,110.11435930787438 M 78.08588954557851,109.95451863187165 M 78.50000001774274,109.89999995393904 M 78.91411048990568,109.95451863188127 M 79.30000001773939,110.11435930789294 M 79.63137086763456,110.36862910405303 M 78.08588954531498,134.04548127595802 M 77.70000001748292,133.88564059994695 M 77.36862916758923,133.63137080378792 M 77.11435937143798,133.29999995388854 M 76.95451869543612,132.91411042605318 M 76.90000001750406,132.49999995389126 M 76.9545186954464,132.08588948173065 M 77.11435937145775,131.69999995389918 M 77.3686291676172,131.36862910400603 M 77.70000001751717,131.11435930785512 M 78.08588954535317,130.95451863185355 M 78.5000000175158,130.89999995392148 M 78.91411048967707,130.95451863186375 M 79.30000001750915,131.1143593078749 M 79.63137086740281,131.36862910403397 M 79.88564066355406,131.69999995393346 M 80.04548133955589,132.0858894817688 M 80.10000001748801,132.4999999539308 M 80.04548133954566,132.91411042609144 M 79.8856406635343,133.29999995392282 M 79.63137086737484,133.63137080381586 M 79.30000001747489,133.8856405999667 M 78.91411048963889,134.04548127596826 M 78.50000001747624,134.09999995390024 M 17.11435937154865,122.69999995328772 M 17.368629167708526,122.36862910339217 M 17.700000017609394,122.11435930723923 M 18.085889545446737,121.95451863123598 M 18.500000017611033,121.89999995330285 M 18.91411048977418,121.95451863124458 M 19.300000017608205,122.11435930725585 M 19.631370867503794,122.3686291034157 M 19.88564066365677,122.6999999533165 M 20.045481339660054,123.0858894811538 M 20.1000000175932,123.499999953318 M 20.045481339651438,123.91411042548108 M 19.885640663640142,124.29999995331504 M 19.631370867480268,124.63137080321056 M 19.30000001757939,124.88564059936351 M 18.914110489742054,125.04548127536674 M 18.500000017577765,125.09999995329989 M 18.085889545414613,125.04548127535814 M 17.700000017580592,124.88564059934686 M 17.368629167685008,124.63137080318702 M 17.114359371532018,124.29999995328623 M 16.95451869552874,123.91411042544895 M 16.90000001759559,123.49999995328474 M 16.954518695537345,123.08588948112165 M 20.100000017823408,102.49999995332526 M 20.045481339881608,102.91411042548847 M 19.88564066387026,103.29999995332254 M 19.63137086771032,103.63137080321815 M 19.30000001780938,103.88564059937114 M 18.91411048997196,104.04548127537444 M 18.500000017807594,104.09999995330755 M 18.08588954564438,104.04548127536577 M 17.700000017810304,103.88564059935442 M 17.368629167914683,103.63137080319449 M 17.114359371761672,103.29999995329356 M 16.9545186957584,102.91411042545612 M 16.90000001782527,102.49999995329179 M 16.954518695767057,102.08588948112856 M 17.114359371778406,101.69999995329451 M 17.368629167938355,101.36862910339889 M 17.700000017839304,101.11435930724589 M 18.085889545676714,100.95451863124262 M 18.50000001784107,100.89999995330948 M 18.914110490004298,100.95451863125126 M 19.300000017838368,101.11435930726262 M 19.631370867734,101.36862910342253 M 19.885640663887,101.6999999533235 M 20.045481339890276,102.08588948116092 M 77.70000001780711,103.8856405999836 M 77.36862916791182,103.63137080382353 M 77.11435937175915,103.29999995392258 M 76.95451869575626,102.91411042608526 M 76.90000001782352,102.49999995392106 M 76.95451869576563,102.08588948175813 M 77.11435937177725,101.69999995392439 M 77.3686291679374,101.36862910402918 M 77.70000001783845,101.11435930787658 M 78.08588954567588,100.9545186318737 M 78.50000001784016,100.89999995394098 M 78.91411049000322,100.9545186318831 M 79.30000001783704,101.1143593078947 M 79.63137086773234,101.3686291040548 M 79.885640663885,101.69999995395575 M 80.0454813398879,102.08588948179309 M 80.10000001782063,102.49999995395726 M 80.04548133987853,102.91411042612017 M 79.8856406638669,103.2999999539539 M 79.63137086770675,103.63137080384912 M 79.30000001780567,103.88564060000171 M 78.91411048996827,104.04548127600457 M 78.50000001780398,104.09999995393736 M 78.08588954564092,104.04548127599521 M 77.36862916770644,122.36862910400869 M 77.70000001760721,122.11435930785595 M 78.08588954544445,121.95451863185284 M 78.50000001760861,121.89999995391968 M 78.91411048977169,121.95451863186135 M 79.30000001760564,122.11435930787243 M 79.63137086750118,122.36862910403204 M 79.88564066365413,122.69999995393248 M 80.04548133965737,123.08588948176933 M 80.10000001759056,123.49999995393313 M 80.04548133964884,123.91411042609579 M 79.8856406636376,124.29999995392933 M 79.63137086747784,124.63137080382455 M 79.30000001757703,124.8856405999772 M 78.91411048973981,125.04548127598032 M 78.50000001757564,125.09999995391345 M 78.08588954541257,125.04548127597178 M 77.70000001757862,124.88564059996071 M 77.36862916768308,124.63137080380116 M 77.11435937153014,124.29999995390074 M 76.95451869552687,123.91411042606393 M 76.9000000175937,123.49999995390012 M 76.95451869553543,123.08588948173745 M 77.11435937154664,122.69999995390388 " />
</svg>
