<?xml version="1.0" standalone="no"?>
<!DOCTYPE svg PUBLIC "-//W3C//DTD SVG 1.1//EN" "http://www.w3.org/Graphics/SVG/1.1/DTD/svg11.dtd">
<svg width="180.00000000000833mm" height="180.00000000000836mm"
 viewBox="0 0 180.00000000000833 180.00000000000836"
 xmlns="http://www.w3.org/2000/svg" version="1.1"
 xmlns:xlink="http://www.w3.org/1999/xlink">
<desc>Output from Flights of Ideas SVG Sketchup Plugin</desc>

  <path id="face0-cut"
 style="fill:none;stroke:#FF0000;stroke-width:0.1;stroke-miterlimit:4;stroke-dasharray:none;stroke-linejoin:round;stroke-linecap:round"
        d="M 179.00000000000833,179.00000000000833 L 179.00000000000833,1.0 L 1.0000000000000284,1.0 L 1.0,179.00000000000836 L 179.00000000000833,179.00000000000833 M 11.000000000091667,60.20000000075276 L 11.000000000093877,44.20000000075279 L 15.000000000093916,44.20000000075367 L 15.000000000091681,60.200000000753455 L 11.000000000091667,60.20000000075276 M 11.000000000076348,135.80000000074972 L 11.000000000078494,119.70211305990134 L 15.000000000077694,119.70211305990122 L 15.00000000007634,135.80000000075054 L 11.000000000076348,135.80000000074972 M 44.200000000067014,169.00000000072032 L 44.2000000000688,165.00000000072032 L 60.200000000068634,165.000000000726 L 60.200000000066986,169.00000000072635 L 44.200000000067014,169.00000000072032 M 119.70211305921563,169.00000000075323 L 119.70211305921652,165.0000000007541 L 135.80000000006572,165.0000000007592 L 135.80000000006572,169.00000000072023 L 119.70211305921563,169.00000000075323 M 165.0000000000579,135.80000000076322 L 165.00000000006133,119.80000000076342 L 169.0000000000614,119.80000000076441 L 169.00000000005795,135.80000000076438 L 165.0000000000579,135.80000000076322 M 165.0000000000799,60.297886941615545 L 165.00000000008245,44.20000000076632 L 169.00000000008242,44.2000000007674 L 169.0000000000791,60.297886941615765 L 165.0000000000799,60.297886941615545 M 147.83000000162457,61.600000001516584 L 147.83000000162457,48.60000000151656 L 162.00000000058108,48.600000001964055 L 162.00000000048814,131.39999999962166 L 147.83000000048258,131.39999999962166 L 147.8300000016156,118.39999999997931 L 134.83000000006513,118.40000000075455 L 134.8300000000741,61.6000000007477 L 147.83000000162457,61.600000001516584 M 131.39999999872816,162.00000000016132 L 48.6000000001015,162.000000000805 L 48.6000000001015,147.83000000081634 L 61.600000000646276,147.8300000020335 L 61.60000000007881,134.83000000074298 L 118.39999999937078,134.830000000761 L 118.39999999864787,147.83000000205146 L 131.39999999864781,147.83000000205146 L 131.39999999872816,162.00000000016132 M 32.16999999941089,118.40000000326467 L 32.170000001113245,131.40000000156243 L 18.000000001276966,131.39999999987384 L 18.000000000604505,48.60000000240819 L 32.17000000058636,48.60000000240821 L 32.16999999941558,61.600000001729754 L 45.170000000064306,61.600000001454475 L 45.17000000005964,118.40000000147859 L 32.16999999941089,118.40000000326467 M 60.29788702580383,12.101557984284668 L 44.20000008495462,12.101558224135157 L 44.20000002535699,8.10155822413643 L 60.297886966205425,8.10155798428664 L 60.29788702580383,12.101557984284668 M 119.80000002535425,8.101557097743004 L 135.80000002535428,8.10155685935186 L 135.8000000849518,12.101556859350676 L 119.80000008495193,12.101557097741868 L 119.80000002535425,8.101557097743004 M 77.45000008529169,18.701556591210633 L 169.00000000008592,18.70155659121068 L 169.00000000008592,32.00155659121067 L 77.45000008529166,32.00155659121067 L 77.45000008529169,18.701556591210633 M 141.00000000000833,141.00000000000833 L 156.00000000000833,141.00000000000833 L 156.00000000000833,156.00000000000833 L 141.00000000000833,156.00000000000833 L 141.00000000000833,141.00000000000833 M 39.0,141.0000000000083 L 39.0,156.00000000000838 L 24.000000000000007,156.00000000000833 L 24.000000000000007,141.00000000000833 L 39.0,141.0000000000083 M 38.99999999999998,24.00000000000003 L 39.0,38.99999999999998 L 24.000000000000007,39.00000000000002 L 24.00000000000003,24.000000000000007 L 38.99999999999998,24.00000000000003 M 8.971555524521804,11.54351999037707 L 8.89999975972885,10.999999995661927 L 8.971555524521804,10.45648000094674 L 9.181346411781522,9.949999995662235 L 9.51507551923708,9.515075755170656 L 9.949999759728858,9.181346647715124 L 10.456479765013526,8.971555760455516 L 10.999999759728869,8.89999999566254 L 11.543519754444123,8.971555760455516 L 12.049999759728877,9.181346647715099 L 12.484924000220637,9.515075755170589 L 12.818653107676191,9.94999999566221 L 13.028443994935866,10.456480000946812 L 13.099999759728888,10.999999995661838 L 13.028443994935888,11.543519990377025 L 12.818653107676237,12.04999999566153 L 12.484924000220591,12.484924236153176 L 12.049999759728902,12.818653343608599 L 11.543519754444123,13.028444230868363 L 10.999999759728802,13.099999995661271 L 10.456479765013547,13.028444230868296 L 9.949999759728815,12.818653343608666 L 9.5150755192371,12.484924236153176 L 9.181346411781522,12.049999995661555 L 8.971555524521804,11.54351999037707 M 9.949999396926703,170.81865232106946 L 9.515075156434968,170.48492321361329 L 9.18134604897941,170.04999897312166 L 8.971555161719646,169.54351896783734 L 8.899999396926717,168.99999897312173 L 8.971555161719667,168.45647897840638 L 9.181346048979389,167.94999897312175 L 9.515075156434946,167.51507473263015 L 9.949999396926703,167.18134562517452 L 10.456479402211414,166.97155473791454 L 10.999999396926736,166.89999897312177 L 11.543519391642011,166.9715547379146 L 12.049999396926722,167.18134562517477 L 12.484923637418458,167.5150747326301 L 12.818652744874058,167.94999897312167 L 13.028443632133754,168.45647897840632 L 13.099999396926687,168.99999897312208 L 13.028443632133754,169.54351896783703 L 12.818652744874036,170.04999897312226 L 12.484923637418458,170.48492321361357 L 12.049999396926722,170.81865232106864 L 11.543519391642011,171.02844320832847 L 10.999999396926711,171.09999897312196 L 10.456479402211436,171.02844320832824 L 9.949999396926703,170.81865232106946 M 169.543520373747,8.971555754688548 L 170.0500003790317,9.181346641948178 L 170.48492461952347,9.515075749403668 L 170.81865372697902,9.94999998989529 L 171.02844461423874,10.456479995179844 L 171.10000037903168,10.99999998989496 L 171.02844461423877,11.543519984610079 L 170.81865372697902,12.049999989894655 L 170.4849246195234,12.484924230386255 L 170.05000037903167,12.818653337841699 L 169.543520373747,13.028444225101374 L 169.00000037903172,13.099999989894282 L 168.4564803843164,13.028444225101374 L 167.95000037903168,12.81865333784172 L 167.51507613853994,12.48492423038623 L 167.18134703108436,12.049999989894634 L 166.97155614382467,11.543519984610079 L 166.9000003790317,10.999999989894938 L 166.97155614382467,10.456479995179844 L 167.18134703108439,9.94999998989529 L 167.51507613853997,9.515075749403668 L 167.95000037903174,9.181346641948178 L 168.45648038431642,8.971555754688573 L 169.0000003790317,8.899999989895598 L 169.543520373747,8.971555754688548 M 170.48492490990063,170.48492418306313 L 170.05000066940886,170.8186532905187 L 169.54352066412417,171.02844417777843 L 169.00000066940888,171.09999994257137 L 168.45648067469358,171.02844417777843 L 167.95000066940887,170.8186532905187 L 167.51507642891713,170.48492418306313 L 167.18134732146157,170.04999994257136 L 166.97155643420186,169.54351993728667 L 166.90000066940888,168.99999994257138 L 166.97155643420186,168.45647994785608 L 167.18134732146157,167.94999994257137 L 167.51507642891713,167.51507570207963 L 167.9500006694089,167.18134659462407 L 168.45648067469358,166.97155570736436 L 169.00000066940888,166.89999994257138 L 169.54352066412417,166.97155570736436 L 170.0500006694089,167.18134659462407 L 170.48492490990063,167.51507570207963 L 170.8186540173562,167.9499999425714 L 171.02844490461592,168.45647994785608 L 171.10000066940887,168.99999994257138 L 171.02844490461592,169.54351993728667 L 170.8186540173562,170.0499999425714 L 170.48492490990063,170.48492418306313 "
  />
  <path id="face0-interior"
 style="fill:none;stroke:#FF0000;stroke-width:0.1;stroke-miterlimit:4;stroke-dasharray:none;stroke-linejoin:round;stroke-linecap:round"
        d="M 179.00000000000833,179.00000000000833 M 179.00000000000833,1.0 M 1.0000000000000284,1.0 M 1.0,179.00000000000836 M 11.000000000091667,60.20000000075276 M 11.000000000093877,44.20000000075279 M 15.000000000093916,44.20000000075367 M 15.000000000091681,60.200000000753455 M 11.000000000076348,135.80000000074972 M 11.000000000078494,119.70211305990134 M 15.000000000077694,119.70211305990122 M 15.00000000007634,135.80000000075054 M 44.200000000067014,169.00000000072032 M 44.2000000000688,165.00000000072032 M 60.200000000068634,165.000000000726 M 60.200000000066986,169.00000000072635 M 119.70211305921563,169.00000000075323 M 119.70211305921652,165.0000000007541 M 135.80000000006572,165.0000000007592 M 135.80000000006572,169.00000000072023 M 165.0000000000579,135.80000000076322 M 165.00000000006133,119.80000000076342 M 169.0000000000614,119.80000000076441 M 169.00000000005795,135.80000000076438 M 165.0000000000799,60.297886941615545 M 165.00000000008245,44.20000000076632 M 169.00000000008242,44.2000000007674 M 169.0000000000791,60.297886941615765 M 147.83000000162457,61.600000001516584 M 147.83000000162457,48.60000000151656 M 162.00000000058108,48.600000001964055 M 162.00000000048814,131.39999999962166 M 147.83000000048258,131.39999999962166 M 147.8300000016156,118.39999999997931 M 134.83000000006513,118.40000000075455 M 134.8300000000741,61.6000000007477 M 131.39999999872816,162.00000000016132 M 48.6000000001015,162.000000000805 M 48.6000000001015,147.83000000081634 M 61.600000000646276,147.8300000020335 M 61.60000000007881,134.83000000074298 M 118.39999999937078,134.830000000761 M 118.39999999864787,147.83000000205146 M 131.39999999864781,147.83000000205146 M 32.16999999941089,118.40000000326467 M 32.170000001113245,131.40000000156243 M 18.000000001276966,131.39999999987384 M 18.000000000604505,48.60000000240819 M 32.17000000058636,48.60000000240821 M 32.16999999941558,61.600000001729754 M 45.170000000064306,61.600000001454475 M 45.17000000005964,118.40000000147859 M 60.29788702580383,12.101557984284668 M 44.20000008495462,12.101558224135157 M 44.20000002535699,8.10155822413643 M 60.297886966205425,8.10155798428664 M 119.80000002535425,8.101557097743004 M 135.80000002535428,8.10155685935186 M 135.8000000849518,12.101556859350676 M 119.80000008495193,12.101557097741868 M 77.45000008529169,18.701556591210633 M 169.00000000008592,18.70155659121068 M 169.00000000008592,32.00155659121067 M 77.45000008529166,32.00155659121067 M 141.00000000000833,141.00000000000833 M 156.00000000000833,141.00000000000833 M 156.00000000000833,156.00000000000833 M 141.00000000000833,156.00000000000833 M 39.0,141.0000000000083 M 39.0,156.00000000000838 M 24.000000000000007,156.00000000000833 M 24.000000000000007,141.00000000000833 M 38.99999999999998,24.00000000000003 M 39.0,38.99999999999998 M 24.000000000000007,39.00000000000002 M 24.00000000000003,24.000000000000007 M 8.971555524521804,11.54351999037707 M 8.89999975972885,10.999999995661927 M 8.971555524521804,10.45648000094674 M 9.181346411781522,9.949999995662235 M 9.51507551923708,9.515075755170656 M 9.949999759728858,9.181346647715124 M 10.456479765013526,8.971555760455516 M 10.999999759728869,8.89999999566254 M 11.543519754444123,8.971555760455516 M 12.049999759728877,9.181346647715099 M 12.484924000220637,9.515075755170589 M 12.818653107676191,9.94999999566221 M 13.028443994935866,10.456480000946812 M 13.099999759728888,10.999999995661838 M 13.028443994935888,11.543519990377025 M 12.818653107676237,12.04999999566153 M 12.484924000220591,12.484924236153176 M 12.049999759728902,12.818653343608599 M 11.543519754444123,13.028444230868363 M 10.999999759728802,13.099999995661271 M 10.456479765013547,13.028444230868296 M 9.949999759728815,12.818653343608666 M 9.5150755192371,12.484924236153176 M 9.181346411781522,12.049999995661555 M 9.949999396926703,170.81865232106946 M 9.515075156434968,170.48492321361329 M 9.18134604897941,170.04999897312166 M 8.971555161719646,169.54351896783734 M 8.899999396926717,168.99999897312173 M 8.971555161719667,168.45647897840638 M 9.181346048979389,167.94999897312175 M 9.515075156434946,167.51507473263015 M 9.949999396926703,167.18134562517452 M 10.456479402211414,166.97155473791454 M 10.999999396926736,166.89999897312177 M 11.543519391642011,166.9715547379146 M 12.049999396926722,167.18134562517477 M 12.484923637418458,167.5150747326301 M 12.818652744874058,167.94999897312167 M 13.028443632133754,168.45647897840632 M 13.099999396926687,168.99999897312208 M 13.028443632133754,169.54351896783703 M 12.818652744874036,170.04999897312226 M 12.484923637418458,170.48492321361357 M 12.049999396926722,170.81865232106864 M 11.543519391642011,171.02844320832847 M 10.999999396926711,171.09999897312196 M 10.456479402211436,171.02844320832824 M 169.543520373747,8.971555754688548 M 170.0500003790317,9.181346641948178 M 170.48492461952347,9.515075749403668 M 170.81865372697902,9.94999998989529 M 171.02844461423874,10.456479995179844 M 171.10000037903168,10.99999998989496 M 171.02844461423877,11.543519984610079 M 170.81865372697902,12.049999989894655 M 170.4849246195234,12.484924230386255 M 170.05000037903167,12.818653337841699 M 169.543520373747,13.028444225101374 M 169.00000037903172,13.099999989894282 M 168.4564803843164,13.028444225101374 M 167.95000037903168,12.81865333784172 M 167.51507613853994,12.48492423038623 M 167.18134703108436,12.049999989894634 M 166.97155614382467,11.543519984610079 M 166.9000003790317,10.999999989894938 M 166.97155614382467,10.456479995179844 M 167.18134703108439,9.94999998989529 M 167.51507613853997,9.515075749403668 M 167.95000037903174,9.181346641948178 M 168.45648038431642,8.971555754688573 M 169.0000003790317,8.899999989895598 M 170.48492490990063,170.48492418306313 M 170.05000066940886,170.8186532905187 M 169.54352066412417,171.02844417777843 M 169.00000066940888,171.09999994257137 M 168.45648067469358,171.02844417777843 M 167.95000066940887,170.8186532905187 M 167.51507642891713,170.48492418306313 M 167.18134732146157,170.04999994257136 M 166.97155643420186,169.54351993728667 M 166.90000066940888,168.99999994257138 M 166.97155643420186,168.45647994785608 M 167.18134732146157,167.94999994257137 M 167.51507642891713,167.51507570207963 M 167.9500006694089,167.18134659462407 M 168.45648067469358,166.97155570736436 M 169.00000066940888,166.89999994257138 M 169.54352066412417,166.97155570736436 M 170.0500006694089,167.18134659462407 M 170.48492490990063,167.51507570207963 M 170.8186540173562,167.9499999425714 M 171.02844490461592,168.45647994785608 M 171.10000066940887,168.99999994257138 M 171.02844490461592,169.54351993728667 M 170.8186540173562,170.0499999425714 "
  />
  <path id="face0-interior"
 style="fill:none;stroke:#FF0000;stroke-width:0.1;stroke-miterlimit:4;stroke-dasharray:none;stroke-linejoin:round;stroke-linecap:round"
        d="M 179.00000000000833,179.00000000000833 M 179.00000000000833,1.0 M 1.0000000000000284,1.0 M 1.0,179.00000000000836 M 11.000000000091667,60.20000000075276 M 11.000000000093877,44.20000000075279 M 15.000000000093916,44.20000000075367 M 15.000000000091681,60.200000000753455 M 11.000000000076348,135.80000000074972 M 11.000000000078494,119.70211305990134 M 15.000000000077694,119.70211305990122 M 15.00000000007634,135.80000000075054 M 44.200000000067014,169.00000000072032 M 44.2000000000688,165.00000000072032 M 60.200000000068634,165.000000000726 M 60.200000000066986,169.00000000072635 M 119.70211305921563,169.00000000075323 M 119.70211305921652,165.0000000007541 M 135.80000000006572,165.0000000007592 M 135.80000000006572,169.00000000072023 M 165.0000000000579,135.80000000076322 M 165.00000000006133,119.80000000076342 M 169.0000000000614,119.80000000076441 M 169.00000000005795,135.80000000076438 M 165.0000000000799,60.297886941615545 M 165.00000000008245,44.20000000076632 M 169.00000000008242,44.2000000007674 M 169.0000000000791,60.297886941615765 M 147.83000000162457,61.600000001516584 M 147.83000000162457,48.60000000151656 M 162.00000000058108,48.600000001964055 M 162.00000000048814,131.39999999962166 M 147.83000000048258,131.39999999962166 M 147.8300000016156,118.39999999997931 M 134.83000000006513,118.40000000075455 M 134.8300000000741,61.6000000007477 M 131.39999999872816,162.00000000016132 M 48.6000000001015,162.000000000805 M 48.6000000001015,147.83000000081634 M 61.600000000646276,147.8300000020335 M 61.60000000007881,134.83000000074298 M 118.39999999937078,134.830000000761 M 118.39999999864787,147.83000000205146 M 131.39999999864781,147.83000000205146 M 32.16999999941089,118.40000000326467 M 32.170000001113245,131.40000000156243 M 18.000000001276966,131.39999999987384 M 18.000000000604505,48.60000000240819 M 32.17000000058636,48.60000000240821 M 32.16999999941558,61.600000001729754 M 45.170000000064306,61.600000001454475 M 45.17000000005964,118.40000000147859 M 60.29788702580383,12.101557984284668 M 44.20000008495462,12.101558224135157 M 44.20000002535699,8.10155822413643 M 60.297886966205425,8.10155798428664 M 119.80000002535425,8.101557097743004 M 135.80000002535428,8.10155685935186 M 135.8000000849518,12.101556859350676 M 119.80000008495193,12.101557097741868 M 77.45000008529169,18.701556591210633 M 169.00000000008592,18.70155659121068 M 169.00000000008592,32.00155659121067 M 77.45000008529166,32.00155659121067 M 141.00000000000833,141.00000000000833 M 156.00000000000833,141.00000000000833 M 156.00000000000833,156.00000000000833 M 141.00000000000833,156.00000000000833 M 39.0,141.0000000000083 M 39.0,156.00000000000838 M 24.000000000000007,156.00000000000833 M 24.000000000000007,141.00000000000833 M 38.99999999999998,24.00000000000003 M 39.0,38.99999999999998 M 24.000000000000007,39.00000000000002 M 24.00000000000003,24.000000000000007 M 8.971555524521804,11.54351999037707 M 8.89999975972885,10.999999995661927 M 8.971555524521804,10.45648000094674 M 9.181346411781522,9.949999995662235 M 9.51507551923708,9.515075755170656 M 9.949999759728858,9.181346647715124 M 10.456479765013526,8.971555760455516 M 10.999999759728869,8.89999999566254 M 11.543519754444123,8.971555760455516 M 12.049999759728877,9.181346647715099 M 12.484924000220637,9.515075755170589 M 12.818653107676191,9.94999999566221 M 13.028443994935866,10.456480000946812 M 13.099999759728888,10.999999995661838 M 13.028443994935888,11.543519990377025 M 12.818653107676237,12.04999999566153 M 12.484924000220591,12.484924236153176 M 12.049999759728902,12.818653343608599 M 11.543519754444123,13.028444230868363 M 10.999999759728802,13.099999995661271 M 10.456479765013547,13.028444230868296 M 9.949999759728815,12.818653343608666 M 9.5150755192371,12.484924236153176 M 9.181346411781522,12.049999995661555 M 9.949999396926703,170.81865232106946 M 9.515075156434968,170.48492321361329 M 9.18134604897941,170.04999897312166 M 8.971555161719646,169.54351896783734 M 8.899999396926717,168.99999897312173 M 8.971555161719667,168.45647897840638 M 9.181346048979389,167.94999897312175 M 9.515075156434946,167.51507473263015 M 9.949999396926703,167.18134562517452 M 10.456479402211414,166.97155473791454 M 10.999999396926736,166.89999897312177 M 11.543519391642011,166.9715547379146 M 12.049999396926722,167.18134562517477 M 12.484923637418458,167.5150747326301 M 12.818652744874058,167.94999897312167 M 13.028443632133754,168.45647897840632 M 13.099999396926687,168.99999897312208 M 13.028443632133754,169.54351896783703 M 12.818652744874036,170.04999897312226 M 12.484923637418458,170.48492321361357 M 12.049999396926722,170.81865232106864 M 11.543519391642011,171.02844320832847 M 10.999999396926711,171.09999897312196 M 10.456479402211436,171.02844320832824 M 169.543520373747,8.971555754688548 M 170.0500003790317,9.181346641948178 M 170.48492461952347,9.515075749403668 M 170.81865372697902,9.94999998989529 M 171.02844461423874,10.456479995179844 M 171.10000037903168,10.99999998989496 M 171.02844461423877,11.543519984610079 M 170.81865372697902,12.049999989894655 M 170.4849246195234,12.484924230386255 M 170.05000037903167,12.818653337841699 M 169.543520373747,13.028444225101374 M 169.00000037903172,13.099999989894282 M 168.4564803843164,13.028444225101374 M 167.95000037903168,12.81865333784172 M 167.51507613853994,12.48492423038623 M 167.18134703108436,12.049999989894634 M 166.97155614382467,11.543519984610079 M 166.9000003790317,10.999999989894938 M 166.97155614382467,10.456479995179844 M 167.18134703108439,9.94999998989529 M 167.51507613853997,9.515075749403668 M 167.95000037903174,9.181346641948178 M 168.45648038431642,8.971555754688573 M 169.0000003790317,8.899999989895598 M 170.48492490990063,170.48492418306313 M 170.05000066940886,170.8186532905187 M 169.54352066412417,171.02844417777843 M 169.00000066940888,171.09999994257137 M 168.45648067469358,171.02844417777843 M 167.95000066940887,170.8186532905187 M 167.51507642891713,170.48492418306313 M 167.18134732146157,170.04999994257136 M 166.97155643420186,169.54351993728667 M 166.90000066940888,168.99999994257138 M 166.97155643420186,168.45647994785608 M 167.18134732146157,167.94999994257137 M 167.51507642891713,167.51507570207963 M 167.9500006694089,167.18134659462407 M 168.45648067469358,166.97155570736436 M 169.00000066940888,166.89999994257138 M 169.54352066412417,166.97155570736436 M 170.0500006694089,167.18134659462407 M 170.48492490990063,167.51507570207963 M 170.8186540173562,167.9499999425714 M 171.02844490461592,168.45647994785608 M 171.10000066940887,168.99999994257138 M 171.02844490461592,169.54351993728667 M 170.8186540173562,170.0499999425714 "
  />
</svg>
