<?xml version="1.0" standalone="no"?>
<!DOCTYPE svg PUBLIC "-//W3C//DTD SVG 1.1//EN" "http://www.w3.org/Graphics/SVG/1.1/DTD/svg11.dtd">
<svg width="134.700000038526mm" height="103.60000000007251mm"
 viewBox="0 0 134.700000038526 103.60000000007251"
 xmlns="http://www.w3.org/2000/svg" version="1.1"
 xmlns:xlink="http://www.w3.org/1999/xlink">
<desc>Output from Flights of Ideas SVG Sketchup Plugin</desc>

  <path id="face0-cut"
 style="fill:none;stroke:#FF0000;stroke-width:0.1;stroke-miterlimit:4;stroke-dasharray:none;stroke-linejoin:round;stroke-linecap:round"
        d="M 129.70000001729937,1.0 L 5.000000017301885,1.0000000000000142 L 5.000000017311135,16.800000000063633 L 1.0,16.800000000065836 L 1.000000000040946,86.8000000000671 L 5.000000017352126,86.80000000006463 L 5.000000017361353,102.60000000007251 L 129.70000001734783,102.59999999999904 L 129.70000001734505,97.59999999999904 L 133.69999998301708,97.59999999999668 L 133.69999998300153,81.59999999999688 L 129.7000000173445,81.60000000000049 L 129.700000017342,76.60000000000055 L 122.70000001734448,76.6000000000041 L 122.70000001731727,34.099999999997195 L 129.7000000173173,34.09999999999398 L 129.70000001730833,22.09788694084925 L 133.700000038526,22.09788694084898 L 133.70000003852468,5.999999999999758 L 129.700000017307,6.000000000000085 L 129.70000001729937,1.0 M 94.24522556174988,94.22444436973198 L 94.10048096451814,93.87500000001542 L 94.05111127792267,93.50000000001528 L 94.10048096451769,93.1250000000155 L 94.24522556174905,92.77555563029851 L 94.4754809645173,92.47548094717693 L 94.77555564763857,92.24522554440851 L 95.12500001735535,92.10048094717662 L 95.50000001735526,92.0511112605811 L 95.87500001735525,92.10048094717631 L 96.22444438707204,92.24522554440757 L 96.52451907019373,92.47548094717591 L 96.75477447296221,92.77555563029712 L 96.89951907019413,93.12500000001366 L 96.94888875678967,93.5000000000138 L 96.89951907019467,93.87500000001363 L 96.75477447296302,94.22444436973068 L 96.52451907019493,94.52451905285228 L 96.22444438707353,94.75477445562068 L 95.87500001735694,94.89951905285254 L 95.50000001735694,94.94888873944795 L 95.12500001735701,94.89951905285294 L 94.77555564764009,94.7547744556217 L 94.47548096451848,94.52451905285342 L 94.24522556174988,94.22444436973198 M 96.79903812299247,30.950000000014214 L 96.94888875674957,31.31177143236043 L 97.00000001731598,31.700000000014043 L 96.94888875674985,32.08822856766797 L 96.79903812299284,32.450000000014185 L 96.5606601890961,32.76066017179399 L 96.25000001731642,32.99903810569104 L 95.88822858497012,33.148888739448054 L 95.50000001731648,33.2000000000145 L 95.11177144966257,33.14888873944831 L 94.75000001731642,32.9990381056915 L 94.4393398455365,32.760660171794555 L 94.20096191163955,32.450000000014896 L 94.05111127788261,32.08822856766862 L 94.00000001731594,31.700000000014896 L 94.05111127788228,31.31177143236114 L 94.20096191163917,30.950000000014924 L 94.43933984553595,30.639339828235038 L 94.75000001731561,30.400961894338153 L 95.11177144966187,30.251111260581112 L 95.50000001731557,30.200000000014555 L 95.8882285849694,30.251111260580828 L 96.25000001731559,30.400961894337726 L 96.56066018909554,30.639339828234412 L 96.79903812299247,30.950000000014214 M 19.288228584966557,33.14888873949381 L 18.900000017312667,33.200000000059234 L 18.511771449659022,33.14888873949219 L 18.150000017313086,32.9990381057343 L 17.83933984553388,32.760660171836676 L 17.600961911637754,32.45000000005628 L 17.451111277881704,32.088228567709834 L 17.40000001731614,31.70000000005591 L 17.451111277883577,31.311771432402324 L 17.600961911641026,30.950000000056278 L 17.839339845538596,30.639339828277073 L 18.150000017319087,30.400961894380956 L 18.511771449665744,30.25111126062494 L 18.900000017319638,30.200000000059376 L 19.288228584973258,30.251111260626672 L 19.650000017319016,30.400961894384395 L 19.960660189098107,30.639339828281962 L 20.199038122994278,30.950000000062218 L 20.34888875675069,31.31177143240886 L 20.40000001731607,31.700000000062786 L 20.348888756748796,32.08822856771643 L 20.199038122990984,32.450000000062275 L 19.960660189093392,32.76066017184148 L 19.650000017313058,32.999038105737625 L 19.288228584966557,33.14888873949381 M 17.40000001736722,93.50000000004881 L 17.45111127793339,93.1117714323987 L 17.60096191168944,92.75000000005575 L 17.839339845584483,92.4393398282791 L 18.1500000173615,92.20096189438478 L 18.51177144970464,92.05111126062944 L 18.900000017354966,92.00000000006393 L 19.288228585005157,92.05111126063007 L 19.65000001734798,92.20096189438611 L 19.960660189124862,92.43933982828126 L 20.19903812301923,92.75000000005836 L 20.348888756774354,93.11177143240137 L 20.400000017340027,93.50000000005177 L 20.348888756773587,93.88822856770174 L 20.19903812301756,94.25000000004475 L 19.960660189122695,94.56066017182162 L 19.65000001734557,94.79903810571592 L 19.28822858500236,94.94888873947106 L 18.90000001735201,95.00000000003676 L 18.51177144970184,94.9488887394704 L 18.15000001735915,94.79903810571464 L 17.83933984558227,94.56066017181952 L 17.600961911687744,94.25000000004219 L 17.451111277932622,93.88822856769922 L 17.40000001736722,93.50000000004881 M 17.386870991678233,4.825829132774757 L 17.199286006018838,5.199020293649895 L 16.921503843847947,5.51094470721776 L 16.57245490046085,5.740345240173298 L 16.17592628451878,5.871588625298116 L 15.758940765903485,5.895730842785866 L 15.34991521860773,5.811126640411686 L 14.976724057732934,5.623541654751875 L 14.664799644165115,5.345759492581067 L 14.43539911120946,4.996710549194631 L 14.304155726084641,4.600181933252273 L 14.280013508597033,4.183196414636342 L 14.364617710971306,3.7741708673407572 L 14.552202696630697,3.400979706466245 L 14.829984858801609,3.089055292897939 L 15.179033802188687,2.859654759942657 L 15.575562418130755,2.7284113748177674 L 15.99254793674585,2.7042691573304865 L 16.401573484041627,2.7888733597044393 L 16.774764644916626,2.976458345364108 L 17.08668905848431,3.2542405075348313 L 17.316089591440075,3.60328945092229 L 17.447332976564898,3.999818066863952 L 17.47147519405248,4.416803585479002 L 17.386870991678233,4.825829132774757 M 16.936807409134623,98.00292948897713 L 17.240593022441942,98.28958968947127 L 17.459834272629926,98.64510768284997 L 17.579590230811355,99.04525550538555 L 17.591699726342394,99.46276374424811 L 17.495337517114173,99.8691799029237 L 17.297070528439598,100.23680739183321 L 17.01041032794541,100.54059300514068 L 16.65489233456689,100.75983425532853 L 16.25474451203104,100.87959021351007 L 15.837236273168859,100.89169970904105 L 15.43082011449329,100.79533749981282 L 15.063192625583575,100.59707051113831 L 14.75940701227621,100.31041031064423 L 14.540165762088272,99.95489231726548 L 14.420409803906843,99.55474449472986 L 14.408300308375825,99.13723625586748 L 14.504662517603979,98.73082009719191 L 14.702929506278398,98.36319260828238 L 14.989589706772605,98.05940699497476 L 15.345107700151281,97.84016574478689 L 15.745255522686847,97.72040978660543 L 16.162763761549293,97.7083002910746 L 16.56917992022491,97.8046625003028 L 16.936807409134623,98.00292948897713 M 107.85302635798928,4.684849561700588 L 107.70050187261279,5.073688925398017 L 107.45253550023584,5.409802667411313 L 107.126025739352,5.670285191676513 L 106.74322369058262,5.837385044632569 L 106.33021668094102,5.899714647446089 L 105.91515045560801,5.853026340690107 L 105.52631109191056,5.700501855313675 L 105.19019734989725,5.45253548293681 L 104.9297148256322,5.126025722052887 L 104.76261497267602,4.743223673283637 L 104.70028536986251,4.330216663642034 L 104.74697367661845,3.91515043830897 L 104.89949816199497,3.5263110746115274 L 105.14746453437178,3.190197332598217 L 105.47397429525567,2.9297148083331024 L 105.85677634402498,2.762614955376918 L 106.26978335366658,2.700285352563398 L 106.6848495789997,2.746973659319252 L 107.07368894269705,2.8994981446958548 L 107.40980268471046,3.147464517072791 L 107.6702852089755,3.4739742779565432 L 107.83738506193164,3.8567763267260204 L 107.89971466474528,4.2697833363674675 L 107.85302635798928,4.684849561700588 M 104.91435937130372,98.50000000000558 L 105.16862916746015,98.16862915010707 L 105.50000001735847,97.9143593539503 L 105.8858895451943,97.75451867794264 L 106.30000001735847,97.70000000000489 L 106.71411048952241,97.75451867794213 L 107.10000001735847,97.9143593539494 L 107.43137086725707,98.16862915010584 L 107.68564066341389,98.50000000000394 L 107.84548133942154,98.8858895278399 L 107.90000001735925,99.30000000000389 L 107.84548133942201,99.714110472168 L 107.68564066341479,100.10000000000396 L 107.43137086725841,100.43137084990279 L 107.10000001736012,100.68564064605953 L 106.71411048952417,100.84548132206727 L 106.30000001736016,100.90000000000488 L 105.88588954519611,100.84548132206767 L 105.50000001736011,100.68564064606043 L 105.16862916746148,100.43137084990404 L 104.91435937130461,100.10000000000558 L 104.75451869529697,99.7141104721699 L 104.70000001735923,99.30000000000582 L 104.75451869529653,98.88588952784177 L 104.91435937130372,98.50000000000558 M 95.50000006202602,37.70000000001416 L 95.49999997264915,87.50000000001454 L 93.94708571075412,87.7044450519228 L 92.49999999154353,88.30384759221091 L 91.25735931442931,89.25735932870275 L 90.30384758719717,90.50000001292243 L 89.70444505769248,91.94708573659953 L 89.5000000173562,93.500000000018 L 24.90000001735658,93.50000000005558 L 24.695554975090097,91.94708572944062 L 24.096152440061452,90.50000000005606 L 23.142640704473404,89.25735931293728 L 21.900000017353605,88.30384757735077 L 20.45291428796825,87.70444504232374 L 18.900000017353182,87.5000000000591 L 18.900000062027363,37.700000000058694 L 20.4529143239226,37.49555494815051 L 21.90000004313304,36.89615240786243 L 23.14264072024728,35.942640671370484 L 24.096152447479454,34.69999998715083 L 24.69555497698412,33.252914263473784 L 24.90000001732055,31.700000000055283 L 89.500000017319,31.700000000017567 L 89.70444506151388,33.25291427782928 L 90.30384760206472,34.70000001292193 L 91.25735934600726,35.94264070294098 L 92.50000004313159,36.896152437623684 L 93.94708578269078,37.49555496739113 L 95.50000006202602,37.70000000001416 "
  />
  <path id="face0-interior"
 style="fill:none;stroke:#FF0000;stroke-width:0.1;stroke-miterlimit:4;stroke-dasharray:none;stroke-linejoin:round;stroke-linecap:round"
        d="M 129.70000001729937,1.0 M 5.000000017301885,1.0000000000000142 M 5.000000017311135,16.800000000063633 M 1.0,16.800000000065836 M 1.000000000040946,86.8000000000671 M 5.000000017352126,86.80000000006463 M 5.000000017361353,102.60000000007251 M 129.70000001734783,102.59999999999904 M 129.70000001734505,97.59999999999904 M 133.69999998301708,97.59999999999668 M 133.69999998300153,81.59999999999688 M 129.7000000173445,81.60000000000049 M 129.700000017342,76.60000000000055 M 122.70000001734448,76.6000000000041 M 122.70000001731727,34.099999999997195 M 129.7000000173173,34.09999999999398 M 129.70000001730833,22.09788694084925 M 133.700000038526,22.09788694084898 M 133.70000003852468,5.999999999999758 M 129.700000017307,6.000000000000085 M 94.24522556174988,94.22444436973198 M 94.10048096451814,93.87500000001542 M 94.05111127792267,93.50000000001528 M 94.10048096451769,93.1250000000155 M 94.24522556174905,92.77555563029851 M 94.4754809645173,92.47548094717693 M 94.77555564763857,92.24522554440851 M 95.12500001735535,92.10048094717662 M 95.50000001735526,92.0511112605811 M 95.87500001735525,92.10048094717631 M 96.22444438707204,92.24522554440757 M 96.52451907019373,92.47548094717591 M 96.75477447296221,92.77555563029712 M 96.89951907019413,93.12500000001366 M 96.94888875678967,93.5000000000138 M 96.89951907019467,93.87500000001363 M 96.75477447296302,94.22444436973068 M 96.52451907019493,94.52451905285228 M 96.22444438707353,94.75477445562068 M 95.87500001735694,94.89951905285254 M 95.50000001735694,94.94888873944795 M 95.12500001735701,94.89951905285294 M 94.77555564764009,94.7547744556217 M 94.47548096451848,94.52451905285342 M 96.79903812299247,30.950000000014214 M 96.94888875674957,31.31177143236043 M 97.00000001731598,31.700000000014043 M 96.94888875674985,32.08822856766797 M 96.79903812299284,32.450000000014185 M 96.5606601890961,32.76066017179399 M 96.25000001731642,32.99903810569104 M 95.88822858497012,33.148888739448054 M 95.50000001731648,33.2000000000145 M 95.11177144966257,33.14888873944831 M 94.75000001731642,32.9990381056915 M 94.4393398455365,32.760660171794555 M 94.20096191163955,32.450000000014896 M 94.05111127788261,32.08822856766862 M 94.00000001731594,31.700000000014896 M 94.05111127788228,31.31177143236114 M 94.20096191163917,30.950000000014924 M 94.43933984553595,30.639339828235038 M 94.75000001731561,30.400961894338153 M 95.11177144966187,30.251111260581112 M 95.50000001731557,30.200000000014555 M 95.8882285849694,30.251111260580828 M 96.25000001731559,30.400961894337726 M 96.56066018909554,30.639339828234412 M 19.288228584966557,33.14888873949381 M 18.900000017312667,33.200000000059234 M 18.511771449659022,33.14888873949219 M 18.150000017313086,32.9990381057343 M 17.83933984553388,32.760660171836676 M 17.600961911637754,32.45000000005628 M 17.451111277881704,32.088228567709834 M 17.40000001731614,31.70000000005591 M 17.451111277883577,31.311771432402324 M 17.600961911641026,30.950000000056278 M 17.839339845538596,30.639339828277073 M 18.150000017319087,30.400961894380956 M 18.511771449665744,30.25111126062494 M 18.900000017319638,30.200000000059376 M 19.288228584973258,30.251111260626672 M 19.650000017319016,30.400961894384395 M 19.960660189098107,30.639339828281962 M 20.199038122994278,30.950000000062218 M 20.34888875675069,31.31177143240886 M 20.40000001731607,31.700000000062786 M 20.348888756748796,32.08822856771643 M 20.199038122990984,32.450000000062275 M 19.960660189093392,32.76066017184148 M 19.650000017313058,32.999038105737625 M 17.40000001736722,93.50000000004881 M 17.45111127793339,93.1117714323987 M 17.60096191168944,92.75000000005575 M 17.839339845584483,92.4393398282791 M 18.1500000173615,92.20096189438478 M 18.51177144970464,92.05111126062944 M 18.900000017354966,92.00000000006393 M 19.288228585005157,92.05111126063007 M 19.65000001734798,92.20096189438611 M 19.960660189124862,92.43933982828126 M 20.19903812301923,92.75000000005836 M 20.348888756774354,93.11177143240137 M 20.400000017340027,93.50000000005177 M 20.348888756773587,93.88822856770174 M 20.19903812301756,94.25000000004475 M 19.960660189122695,94.56066017182162 M 19.65000001734557,94.79903810571592 M 19.28822858500236,94.94888873947106 M 18.90000001735201,95.00000000003676 M 18.51177144970184,94.9488887394704 M 18.15000001735915,94.79903810571464 M 17.83933984558227,94.56066017181952 M 17.600961911687744,94.25000000004219 M 17.451111277932622,93.88822856769922 M 17.386870991678233,4.825829132774757 M 17.199286006018838,5.199020293649895 M 16.921503843847947,5.51094470721776 M 16.57245490046085,5.740345240173298 M 16.17592628451878,5.871588625298116 M 15.758940765903485,5.895730842785866 M 15.34991521860773,5.811126640411686 M 14.976724057732934,5.623541654751875 M 14.664799644165115,5.345759492581067 M 14.43539911120946,4.996710549194631 M 14.304155726084641,4.600181933252273 M 14.280013508597033,4.183196414636342 M 14.364617710971306,3.7741708673407572 M 14.552202696630697,3.400979706466245 M 14.829984858801609,3.089055292897939 M 15.179033802188687,2.859654759942657 M 15.575562418130755,2.7284113748177674 M 15.99254793674585,2.7042691573304865 M 16.401573484041627,2.7888733597044393 M 16.774764644916626,2.976458345364108 M 17.08668905848431,3.2542405075348313 M 17.316089591440075,3.60328945092229 M 17.447332976564898,3.999818066863952 M 17.47147519405248,4.416803585479002 M 16.936807409134623,98.00292948897713 M 17.240593022441942,98.28958968947127 M 17.459834272629926,98.64510768284997 M 17.579590230811355,99.04525550538555 M 17.591699726342394,99.46276374424811 M 17.495337517114173,99.8691799029237 M 17.297070528439598,100.23680739183321 M 17.01041032794541,100.54059300514068 M 16.65489233456689,100.75983425532853 M 16.25474451203104,100.87959021351007 M 15.837236273168859,100.89169970904105 M 15.43082011449329,100.79533749981282 M 15.063192625583575,100.59707051113831 M 14.75940701227621,100.31041031064423 M 14.540165762088272,99.95489231726548 M 14.420409803906843,99.55474449472986 M 14.408300308375825,99.13723625586748 M 14.504662517603979,98.73082009719191 M 14.702929506278398,98.36319260828238 M 14.989589706772605,98.05940699497476 M 15.345107700151281,97.84016574478689 M 15.745255522686847,97.72040978660543 M 16.162763761549293,97.7083002910746 M 16.56917992022491,97.8046625003028 M 107.85302635798928,4.684849561700588 M 107.70050187261279,5.073688925398017 M 107.45253550023584,5.409802667411313 M 107.126025739352,5.670285191676513 M 106.74322369058262,5.837385044632569 M 106.33021668094102,5.899714647446089 M 105.91515045560801,5.853026340690107 M 105.52631109191056,5.700501855313675 M 105.19019734989725,5.45253548293681 M 104.9297148256322,5.126025722052887 M 104.76261497267602,4.743223673283637 M 104.70028536986251,4.330216663642034 M 104.74697367661845,3.91515043830897 M 104.89949816199497,3.5263110746115274 M 105.14746453437178,3.190197332598217 M 105.47397429525567,2.9297148083331024 M 105.85677634402498,2.762614955376918 M 106.26978335366658,2.700285352563398 M 106.6848495789997,2.746973659319252 M 107.07368894269705,2.8994981446958548 M 107.40980268471046,3.147464517072791 M 107.6702852089755,3.4739742779565432 M 107.83738506193164,3.8567763267260204 M 107.89971466474528,4.2697833363674675 M 104.91435937130372,98.50000000000558 M 105.16862916746015,98.16862915010707 M 105.50000001735847,97.9143593539503 M 105.8858895451943,97.75451867794264 M 106.30000001735847,97.70000000000489 M 106.71411048952241,97.75451867794213 M 107.10000001735847,97.9143593539494 M 107.43137086725707,98.16862915010584 M 107.68564066341389,98.50000000000394 M 107.84548133942154,98.8858895278399 M 107.90000001735925,99.30000000000389 M 107.84548133942201,99.714110472168 M 107.68564066341479,100.10000000000396 M 107.43137086725841,100.43137084990279 M 107.10000001736012,100.68564064605953 M 106.71411048952417,100.84548132206727 M 106.30000001736016,100.90000000000488 M 105.88588954519611,100.84548132206767 M 105.50000001736011,100.68564064606043 M 105.16862916746148,100.43137084990404 M 104.91435937130461,100.10000000000558 M 104.75451869529697,99.7141104721699 M 104.70000001735923,99.30000000000582 M 104.75451869529653,98.88588952784177 M 95.50000006202602,37.70000000001416 M 95.49999997264915,87.50000000001454 M 93.94708571075412,87.7044450519228 M 92.49999999154353,88.30384759221091 M 91.25735931442931,89.25735932870275 M 90.30384758719717,90.50000001292243 M 89.70444505769248,91.94708573659953 M 89.5000000173562,93.500000000018 M 24.90000001735658,93.50000000005558 M 24.695554975090097,91.94708572944062 M 24.096152440061452,90.50000000005606 M 23.142640704473404,89.25735931293728 M 21.900000017353605,88.30384757735077 M 20.45291428796825,87.70444504232374 M 18.900000017353182,87.5000000000591 M 18.900000062027363,37.700000000058694 M 20.4529143239226,37.49555494815051 M 21.90000004313304,36.89615240786243 M 23.14264072024728,35.942640671370484 M 24.096152447479454,34.69999998715083 M 24.69555497698412,33.252914263473784 M 24.90000001732055,31.700000000055283 M 89.500000017319,31.700000000017567 M 89.70444506151388,33.25291427782928 M 90.30384760206472,34.70000001292193 M 91.25735934600726,35.94264070294098 M 92.50000004313159,36.896152437623684 M 93.94708578269078,37.49555496739113 "
  />
  <path id="face0-interior"
 style="fill:none;stroke:#FF0000;stroke-width:0.1;stroke-miterlimit:4;stroke-dasharray:none;stroke-linejoin:round;stroke-linecap:round"
        d="M 129.70000001729937,1.0 M 5.000000017301885,1.0000000000000142 M 5.000000017311135,16.800000000063633 M 1.0,16.800000000065836 M 1.000000000040946,86.8000000000671 M 5.000000017352126,86.80000000006463 M 5.000000017361353,102.60000000007251 M 129.70000001734783,102.59999999999904 M 129.70000001734505,97.59999999999904 M 133.69999998301708,97.59999999999668 M 133.69999998300153,81.59999999999688 M 129.7000000173445,81.60000000000049 M 129.700000017342,76.60000000000055 M 122.70000001734448,76.6000000000041 M 122.70000001731727,34.099999999997195 M 129.7000000173173,34.09999999999398 M 129.70000001730833,22.09788694084925 M 133.700000038526,22.09788694084898 M 133.70000003852468,5.999999999999758 M 129.700000017307,6.000000000000085 M 94.24522556174988,94.22444436973198 M 94.10048096451814,93.87500000001542 M 94.05111127792267,93.50000000001528 M 94.10048096451769,93.1250000000155 M 94.24522556174905,92.77555563029851 M 94.4754809645173,92.47548094717693 M 94.77555564763857,92.24522554440851 M 95.12500001735535,92.10048094717662 M 95.50000001735526,92.0511112605811 M 95.87500001735525,92.10048094717631 M 96.22444438707204,92.24522554440757 M 96.52451907019373,92.47548094717591 M 96.75477447296221,92.77555563029712 M 96.89951907019413,93.12500000001366 M 96.94888875678967,93.5000000000138 M 96.89951907019467,93.87500000001363 M 96.75477447296302,94.22444436973068 M 96.52451907019493,94.52451905285228 M 96.22444438707353,94.75477445562068 M 95.87500001735694,94.89951905285254 M 95.50000001735694,94.94888873944795 M 95.12500001735701,94.89951905285294 M 94.77555564764009,94.7547744556217 M 94.47548096451848,94.52451905285342 M 96.79903812299247,30.950000000014214 M 96.94888875674957,31.31177143236043 M 97.00000001731598,31.700000000014043 M 96.94888875674985,32.08822856766797 M 96.79903812299284,32.450000000014185 M 96.5606601890961,32.76066017179399 M 96.25000001731642,32.99903810569104 M 95.88822858497012,33.148888739448054 M 95.50000001731648,33.2000000000145 M 95.11177144966257,33.14888873944831 M 94.75000001731642,32.9990381056915 M 94.4393398455365,32.760660171794555 M 94.20096191163955,32.450000000014896 M 94.05111127788261,32.08822856766862 M 94.00000001731594,31.700000000014896 M 94.05111127788228,31.31177143236114 M 94.20096191163917,30.950000000014924 M 94.43933984553595,30.639339828235038 M 94.75000001731561,30.400961894338153 M 95.11177144966187,30.251111260581112 M 95.50000001731557,30.200000000014555 M 95.8882285849694,30.251111260580828 M 96.25000001731559,30.400961894337726 M 96.56066018909554,30.639339828234412 M 19.288228584966557,33.14888873949381 M 18.900000017312667,33.200000000059234 M 18.511771449659022,33.14888873949219 M 18.150000017313086,32.9990381057343 M 17.83933984553388,32.760660171836676 M 17.600961911637754,32.45000000005628 M 17.451111277881704,32.088228567709834 M 17.40000001731614,31.70000000005591 M 17.451111277883577,31.311771432402324 M 17.600961911641026,30.950000000056278 M 17.839339845538596,30.639339828277073 M 18.150000017319087,30.400961894380956 M 18.511771449665744,30.25111126062494 M 18.900000017319638,30.200000000059376 M 19.288228584973258,30.251111260626672 M 19.650000017319016,30.400961894384395 M 19.960660189098107,30.639339828281962 M 20.199038122994278,30.950000000062218 M 20.34888875675069,31.31177143240886 M 20.40000001731607,31.700000000062786 M 20.348888756748796,32.08822856771643 M 20.199038122990984,32.450000000062275 M 19.960660189093392,32.76066017184148 M 19.650000017313058,32.999038105737625 M 17.40000001736722,93.50000000004881 M 17.45111127793339,93.1117714323987 M 17.60096191168944,92.75000000005575 M 17.839339845584483,92.4393398282791 M 18.1500000173615,92.20096189438478 M 18.51177144970464,92.05111126062944 M 18.900000017354966,92.00000000006393 M 19.288228585005157,92.05111126063007 M 19.65000001734798,92.20096189438611 M 19.960660189124862,92.43933982828126 M 20.19903812301923,92.75000000005836 M 20.348888756774354,93.11177143240137 M 20.400000017340027,93.50000000005177 M 20.348888756773587,93.88822856770174 M 20.19903812301756,94.25000000004475 M 19.960660189122695,94.56066017182162 M 19.65000001734557,94.79903810571592 M 19.28822858500236,94.94888873947106 M 18.90000001735201,95.00000000003676 M 18.51177144970184,94.9488887394704 M 18.15000001735915,94.79903810571464 M 17.83933984558227,94.56066017181952 M 17.600961911687744,94.25000000004219 M 17.451111277932622,93.88822856769922 M 17.386870991678233,4.825829132774757 M 17.199286006018838,5.199020293649895 M 16.921503843847947,5.51094470721776 M 16.57245490046085,5.740345240173298 M 16.17592628451878,5.871588625298116 M 15.758940765903485,5.895730842785866 M 15.34991521860773,5.811126640411686 M 14.976724057732934,5.623541654751875 M 14.664799644165115,5.345759492581067 M 14.43539911120946,4.996710549194631 M 14.304155726084641,4.600181933252273 M 14.280013508597033,4.183196414636342 M 14.364617710971306,3.7741708673407572 M 14.552202696630697,3.400979706466245 M 14.829984858801609,3.089055292897939 M 15.179033802188687,2.859654759942657 M 15.575562418130755,2.7284113748177674 M 15.99254793674585,2.7042691573304865 M 16.401573484041627,2.7888733597044393 M 16.774764644916626,2.976458345364108 M 17.08668905848431,3.2542405075348313 M 17.316089591440075,3.60328945092229 M 17.447332976564898,3.999818066863952 M 17.47147519405248,4.416803585479002 M 16.936807409134623,98.00292948897713 M 17.240593022441942,98.28958968947127 M 17.459834272629926,98.64510768284997 M 17.579590230811355,99.04525550538555 M 17.591699726342394,99.46276374424811 M 17.495337517114173,99.8691799029237 M 17.297070528439598,100.23680739183321 M 17.01041032794541,100.54059300514068 M 16.65489233456689,100.75983425532853 M 16.25474451203104,100.87959021351007 M 15.837236273168859,100.89169970904105 M 15.43082011449329,100.79533749981282 M 15.063192625583575,100.59707051113831 M 14.75940701227621,100.31041031064423 M 14.540165762088272,99.95489231726548 M 14.420409803906843,99.55474449472986 M 14.408300308375825,99.13723625586748 M 14.504662517603979,98.73082009719191 M 14.702929506278398,98.36319260828238 M 14.989589706772605,98.05940699497476 M 15.345107700151281,97.84016574478689 M 15.745255522686847,97.72040978660543 M 16.162763761549293,97.7083002910746 M 16.56917992022491,97.8046625003028 M 107.85302635798928,4.684849561700588 M 107.70050187261279,5.073688925398017 M 107.45253550023584,5.409802667411313 M 107.126025739352,5.670285191676513 M 106.74322369058262,5.837385044632569 M 106.33021668094102,5.899714647446089 M 105.91515045560801,5.853026340690107 M 105.52631109191056,5.700501855313675 M 105.19019734989725,5.45253548293681 M 104.9297148256322,5.126025722052887 M 104.76261497267602,4.743223673283637 M 104.70028536986251,4.330216663642034 M 104.74697367661845,3.91515043830897 M 104.89949816199497,3.5263110746115274 M 105.14746453437178,3.190197332598217 M 105.47397429525567,2.9297148083331024 M 105.85677634402498,2.762614955376918 M 106.26978335366658,2.700285352563398 M 106.6848495789997,2.746973659319252 M 107.07368894269705,2.8994981446958548 M 107.40980268471046,3.147464517072791 M 107.6702852089755,3.4739742779565432 M 107.83738506193164,3.8567763267260204 M 107.89971466474528,4.2697833363674675 M 104.91435937130372,98.50000000000558 M 105.16862916746015,98.16862915010707 M 105.50000001735847,97.9143593539503 M 105.8858895451943,97.75451867794264 M 106.30000001735847,97.70000000000489 M 106.71411048952241,97.75451867794213 M 107.10000001735847,97.9143593539494 M 107.43137086725707,98.16862915010584 M 107.68564066341389,98.50000000000394 M 107.84548133942154,98.8858895278399 M 107.90000001735925,99.30000000000389 M 107.84548133942201,99.714110472168 M 107.68564066341479,100.10000000000396 M 107.43137086725841,100.43137084990279 M 107.10000001736012,100.68564064605953 M 106.71411048952417,100.84548132206727 M 106.30000001736016,100.90000000000488 M 105.88588954519611,100.84548132206767 M 105.50000001736011,100.68564064606043 M 105.16862916746148,100.43137084990404 M 104.91435937130461,100.10000000000558 M 104.75451869529697,99.7141104721699 M 104.70000001735923,99.30000000000582 M 104.75451869529653,98.88588952784177 M 95.50000006202602,37.70000000001416 M 95.49999997264915,87.50000000001454 M 93.94708571075412,87.7044450519228 M 92.49999999154353,88.30384759221091 M 91.25735931442931,89.25735932870275 M 90.30384758719717,90.50000001292243 M 89.70444505769248,91.94708573659953 M 89.5000000173562,93.500000000018 M 24.90000001735658,93.50000000005558 M 24.695554975090097,91.94708572944062 M 24.096152440061452,90.50000000005606 M 23.142640704473404,89.25735931293728 M 21.900000017353605,88.30384757735077 M 20.45291428796825,87.70444504232374 M 18.900000017353182,87.5000000000591 M 18.900000062027363,37.700000000058694 M 20.4529143239226,37.49555494815051 M 21.90000004313304,36.89615240786243 M 23.14264072024728,35.942640671370484 M 24.096152447479454,34.69999998715083 M 24.69555497698412,33.252914263473784 M 24.90000001732055,31.700000000055283 M 89.500000017319,31.700000000017567 M 89.70444506151388,33.25291427782928 M 90.30384760206472,34.70000001292193 M 91.25735934600726,35.94264070294098 M 92.50000004313159,36.896152437623684 M 93.94708578269078,37.49555496739113 "
  />
</svg>
