<?xml version="1.0" standalone="no"?>
<!DOCTYPE svg PUBLIC "-//W3C//DTD SVG 1.1//EN" "http://www.w3.org/Graphics/SVG/1.1/DTD/svg11.dtd">
<svg width="190.0000001334509mm" height="179.99999995271486mm"
 viewBox="0 0 190.0000001334509 179.99999995271486"
 xmlns="http://www.w3.org/2000/svg" version="1.1"
 xmlns:xlink="http://www.w3.org/1999/xlink">
<desc>Output from Flights of Ideas SVG Sketchup Plugin</desc>

  <path id="face0-cut"
 style="fill:none;stroke:#FF0000;stroke-width:0.1;stroke-miterlimit:4;stroke-dasharray:none;stroke-linejoin:round;stroke-linecap:round"
        d="M 19.517638197364498,143.9318515887867 L 19.000000107210553,143.99999993659665 L 1.0000001072105462,143.99999993659665 L 1.000000133450893,178.99999995271486 L 189.0000001334509,178.99999978436895 L 188.99999999999997,1.0 L 1.0,1.000000000000045 L 1.0000000262403432,36.000000000000114 L 19.0000000277398,36.000000000000135 L 19.517638117944852,36.06814834742199 L 20.00000002773981,36.267949192431246 L 20.414213590112908,36.585786437627014 L 20.732050835308677,37.000000000000114 L 20.93185168031793,37.48236190979509 L 21.00000002773981,38.00000000000011 L 21.000000105711077,141.99999993509724 L 20.9318517586773,142.51763802535336 L 20.732050914029685,142.99999993529812 L 20.414213669144452,143.41421349790951 L 20.00000010700965,143.73205074341584 L 19.517638197364498,143.9318515887867 M 172.4500000634866,9.681346659924875 L 172.95648006877133,9.471555772665134 L 173.50000006348662,9.400000007872135 L 174.04352005820192,9.471555772665111 L 174.5500000634866,9.681346659924875 L 174.98492430397837,10.015075767380388 L 175.31865341143393,10.450000007872145 L 175.52844429869367,10.956480013156856 L 175.60000006348662,11.500000007872154 L 175.52844429869367,12.043520002587432 L 175.31865341143393,12.550000007872141 L 174.98492430397837,12.9849242483639 L 174.55000006348664,13.31865335581941 L 174.04352005820192,13.528444243079175 L 173.50000006348662,13.600000007872106 L 172.95648006877133,13.528444243079154 L 172.45000006348664,13.318653355819524 L 172.0150758229949,12.984924248363921 L 171.68134671553932,12.550000007872164 L 171.47155582827958,12.043520002587409 L 171.40000006348663,11.500000007872154 L 171.47155582827958,10.95648001315688 L 171.68134671553932,10.450000007872168 L 172.0150758229949,10.015075767380432 L 172.4500000634866,9.681346659924875 M 172.45000017956474,166.6813464512413 L 172.9564801846616,166.47155556352809 L 173.50000017931282,166.39999979824833 L 174.04352017409218,166.47155556255473 L 174.55000017956476,166.6813464493609 L 174.98492442035533,167.01507555642706 L 175.31865352820037,167.44999979661998 L 175.52844441591364,167.9564798017166 L 175.60000018119328,168.49999979636786 L 175.52844441688706,169.0435197911472 L 175.31865353008084,169.54999979661986 L 174.98492442301472,169.9849240374104 L 174.55000018282178,170.31865314525558 L 174.04352017772496,170.52844403296882 L 173.50000018307375,170.5999997982485 L 172.9564801882944,170.52844403394207 L 172.4500001828218,170.31865314713605 L 172.01507594203122,169.98492404007004 L 171.6813468341862,169.549999799877 L 171.47155594647293,169.04351979478014 L 171.4000001811933,168.49999980012888 L 171.47155594549955,167.95647980534952 L 171.68134683230574,167.44999979987705 L 172.01507593937185,167.01507555908645 L 172.45000017956474,166.6813464512413 M 29.82844410512313,10.956480013156856 L 29.89999986991608,11.500000007872154 L 29.828444105123133,12.043520002587476 L 29.618653217863404,12.550000007872141 L 29.28492411040783,12.9849242483639 L 28.84999986991607,13.318653355819501 L 28.343519864631364,13.528444243079198 L 27.79999986991607,13.60000000787215 L 27.256479875200778,13.528444243079198 L 26.74999986991608,13.318653355819501 L 26.31507562942432,12.9849242483639 L 25.98134652196876,12.550000007872187 L 25.77155563470904,12.043520002587453 L 25.699999869916077,11.500000007872154 L 25.77155563470904,10.95648001315688 L 25.981346521968742,10.450000007872191 L 26.31507562942433,10.01507576738041 L 26.749999869916074,9.681346659924854 L 27.2564798752008,9.471555772665088 L 27.79999986991609,9.400000007872158 L 28.343519864631368,9.471555772665111 L 28.849999869916086,9.681346659924854 L 29.28492411040784,10.01507576738041 L 29.61865321786339,10.450000007872145 L 29.82844410512313,10.956480013156856 M 27.25647999109107,166.47155569399627 L 27.799999985742293,166.39999992871662 L 28.343519980521663,166.47155569302285 L 28.849999985994224,166.68134657982907 L 29.284924226784824,167.01507568689516 L 29.618653334629848,167.44999992708807 L 29.828444222343105,167.9564799321849 L 29.899999987622763,168.49999992683615 L 29.828444223316502,169.04351992161548 L 29.618653336510317,169.5499999270881 L 29.284924229444204,169.98492416787863 L 28.84999998925129,170.31865327572368 L 28.343519984154447,170.52844416343694 L 27.799999989503224,170.5999999287166 L 27.256479994723854,170.52844416441033 L 26.74999998925129,170.31865327760417 L 26.3150757484607,169.98492417053802 L 25.981346640615673,169.5499999303451 L 25.77155575290242,169.0435199252483 L 25.69999998762276,168.49999993059708 L 25.771555751929018,167.9564799358177 L 25.981346638735207,167.44999993034514 L 26.31507574580132,167.01507568955455 L 26.749999985994233,166.6813465817095 L 27.25647999109107,166.47155569399627 "
  />
  <path id="face0-interior"
 style="fill:none;stroke:#FF0000;stroke-width:0.1;stroke-miterlimit:4;stroke-dasharray:none;stroke-linejoin:round;stroke-linecap:round"
        d="M 19.517638197364498,143.9318515887867 M 19.000000107210553,143.99999993659665 M 1.0000001072105462,143.99999993659665 M 1.000000133450893,178.99999995271486 M 189.0000001334509,178.99999978436895 M 188.99999999999997,1.0 M 1.0,1.000000000000045 M 1.0000000262403432,36.000000000000114 M 19.0000000277398,36.000000000000135 M 19.517638117944852,36.06814834742199 M 20.00000002773981,36.267949192431246 M 20.414213590112908,36.585786437627014 M 20.732050835308677,37.000000000000114 M 20.93185168031793,37.48236190979509 M 21.00000002773981,38.00000000000011 M 21.000000105711077,141.99999993509724 M 20.9318517586773,142.51763802535336 M 20.732050914029685,142.99999993529812 M 20.414213669144452,143.41421349790951 M 20.00000010700965,143.73205074341584 M 172.4500000634866,9.681346659924875 M 172.95648006877133,9.471555772665134 M 173.50000006348662,9.400000007872135 M 174.04352005820192,9.471555772665111 M 174.5500000634866,9.681346659924875 M 174.98492430397837,10.015075767380388 M 175.31865341143393,10.450000007872145 M 175.52844429869367,10.956480013156856 M 175.60000006348662,11.500000007872154 M 175.52844429869367,12.043520002587432 M 175.31865341143393,12.550000007872141 M 174.98492430397837,12.9849242483639 M 174.55000006348664,13.31865335581941 M 174.04352005820192,13.528444243079175 M 173.50000006348662,13.600000007872106 M 172.95648006877133,13.528444243079154 M 172.45000006348664,13.318653355819524 M 172.0150758229949,12.984924248363921 M 171.68134671553932,12.550000007872164 M 171.47155582827958,12.043520002587409 M 171.40000006348663,11.500000007872154 M 171.47155582827958,10.95648001315688 M 171.68134671553932,10.450000007872168 M 172.0150758229949,10.015075767380432 M 172.45000017956474,166.6813464512413 M 172.9564801846616,166.47155556352809 M 173.50000017931282,166.39999979824833 M 174.04352017409218,166.47155556255473 M 174.55000017956476,166.6813464493609 M 174.98492442035533,167.01507555642706 M 175.31865352820037,167.44999979661998 M 175.52844441591364,167.9564798017166 M 175.60000018119328,168.49999979636786 M 175.52844441688706,169.0435197911472 M 175.31865353008084,169.54999979661986 M 174.98492442301472,169.9849240374104 M 174.55000018282178,170.31865314525558 M 174.04352017772496,170.52844403296882 M 173.50000018307375,170.5999997982485 M 172.9564801882944,170.52844403394207 M 172.4500001828218,170.31865314713605 M 172.01507594203122,169.98492404007004 M 171.6813468341862,169.549999799877 M 171.47155594647293,169.04351979478014 M 171.4000001811933,168.49999980012888 M 171.47155594549955,167.95647980534952 M 171.68134683230574,167.44999979987705 M 172.01507593937185,167.01507555908645 M 29.82844410512313,10.956480013156856 M 29.89999986991608,11.500000007872154 M 29.828444105123133,12.043520002587476 M 29.618653217863404,12.550000007872141 M 29.28492411040783,12.9849242483639 M 28.84999986991607,13.318653355819501 M 28.343519864631364,13.528444243079198 M 27.79999986991607,13.60000000787215 M 27.256479875200778,13.528444243079198 M 26.74999986991608,13.318653355819501 M 26.31507562942432,12.9849242483639 M 25.98134652196876,12.550000007872187 M 25.77155563470904,12.043520002587453 M 25.699999869916077,11.500000007872154 M 25.77155563470904,10.95648001315688 M 25.981346521968742,10.450000007872191 M 26.31507562942433,10.01507576738041 M 26.749999869916074,9.681346659924854 M 27.2564798752008,9.471555772665088 M 27.79999986991609,9.400000007872158 M 28.343519864631368,9.471555772665111 M 28.849999869916086,9.681346659924854 M 29.28492411040784,10.01507576738041 M 29.61865321786339,10.450000007872145 M 27.25647999109107,166.47155569399627 M 27.799999985742293,166.39999992871662 M 28.343519980521663,166.47155569302285 M 28.849999985994224,166.68134657982907 M 29.284924226784824,167.01507568689516 M 29.618653334629848,167.44999992708807 M 29.828444222343105,167.9564799321849 M 29.899999987622763,168.49999992683615 M 29.828444223316502,169.04351992161548 M 29.618653336510317,169.5499999270881 M 29.284924229444204,169.98492416787863 M 28.84999998925129,170.31865327572368 M 28.343519984154447,170.52844416343694 M 27.799999989503224,170.5999999287166 M 27.256479994723854,170.52844416441033 M 26.74999998925129,170.31865327760417 M 26.3150757484607,169.98492417053802 M 25.981346640615673,169.5499999303451 M 25.77155575290242,169.0435199252483 M 25.69999998762276,168.49999993059708 M 25.771555751929018,167.9564799358177 M 25.981346638735207,167.44999993034514 M 26.31507574580132,167.01507568955455 M 26.749999985994233,166.6813465817095 "
  />
  <path id="face0-interior"
 style="fill:none;stroke:#FF0000;stroke-width:0.1;stroke-miterlimit:4;stroke-dasharray:none;stroke-linejoin:round;stroke-linecap:round"
        d="M 19.517638197364498,143.9318515887867 M 19.000000107210553,143.99999993659665 M 1.0000001072105462,143.99999993659665 M 1.000000133450893,178.99999995271486 M 189.0000001334509,178.99999978436895 M 188.99999999999997,1.0 M 1.0,1.000000000000045 M 1.0000000262403432,36.000000000000114 M 19.0000000277398,36.000000000000135 M 19.517638117944852,36.06814834742199 M 20.00000002773981,36.267949192431246 M 20.414213590112908,36.585786437627014 M 20.732050835308677,37.000000000000114 M 20.93185168031793,37.48236190979509 M 21.00000002773981,38.00000000000011 M 21.000000105711077,141.99999993509724 M 20.9318517586773,142.51763802535336 M 20.732050914029685,142.99999993529812 M 20.414213669144452,143.41421349790951 M 20.00000010700965,143.73205074341584 M 172.4500000634866,9.681346659924875 M 172.95648006877133,9.471555772665134 M 173.50000006348662,9.400000007872135 M 174.04352005820192,9.471555772665111 M 174.5500000634866,9.681346659924875 M 174.98492430397837,10.015075767380388 M 175.31865341143393,10.450000007872145 M 175.52844429869367,10.956480013156856 M 175.60000006348662,11.500000007872154 M 175.52844429869367,12.043520002587432 M 175.31865341143393,12.550000007872141 M 174.98492430397837,12.9849242483639 M 174.55000006348664,13.31865335581941 M 174.04352005820192,13.528444243079175 M 173.50000006348662,13.600000007872106 M 172.95648006877133,13.528444243079154 M 172.45000006348664,13.318653355819524 M 172.0150758229949,12.984924248363921 M 171.68134671553932,12.550000007872164 M 171.47155582827958,12.043520002587409 M 171.40000006348663,11.500000007872154 M 171.47155582827958,10.95648001315688 M 171.68134671553932,10.450000007872168 M 172.0150758229949,10.015075767380432 M 172.45000017956474,166.6813464512413 M 172.9564801846616,166.47155556352809 M 173.50000017931282,166.39999979824833 M 174.04352017409218,166.47155556255473 M 174.55000017956476,166.6813464493609 M 174.98492442035533,167.01507555642706 M 175.31865352820037,167.44999979661998 M 175.52844441591364,167.9564798017166 M 175.60000018119328,168.49999979636786 M 175.52844441688706,169.0435197911472 M 175.31865353008084,169.54999979661986 M 174.98492442301472,169.9849240374104 M 174.55000018282178,170.31865314525558 M 174.04352017772496,170.52844403296882 M 173.50000018307375,170.5999997982485 M 172.9564801882944,170.52844403394207 M 172.4500001828218,170.31865314713605 M 172.01507594203122,169.98492404007004 M 171.6813468341862,169.549999799877 M 171.47155594647293,169.04351979478014 M 171.4000001811933,168.49999980012888 M 171.47155594549955,167.95647980534952 M 171.68134683230574,167.44999979987705 M 172.01507593937185,167.01507555908645 M 29.82844410512313,10.956480013156856 M 29.89999986991608,11.500000007872154 M 29.828444105123133,12.043520002587476 M 29.618653217863404,12.550000007872141 M 29.28492411040783,12.9849242483639 M 28.84999986991607,13.318653355819501 M 28.343519864631364,13.528444243079198 M 27.79999986991607,13.60000000787215 M 27.256479875200778,13.528444243079198 M 26.74999986991608,13.318653355819501 M 26.31507562942432,12.9849242483639 M 25.98134652196876,12.550000007872187 M 25.77155563470904,12.043520002587453 M 25.699999869916077,11.500000007872154 M 25.77155563470904,10.95648001315688 M 25.981346521968742,10.450000007872191 M 26.31507562942433,10.01507576738041 M 26.749999869916074,9.681346659924854 M 27.2564798752008,9.471555772665088 M 27.79999986991609,9.400000007872158 M 28.343519864631368,9.471555772665111 M 28.849999869916086,9.681346659924854 M 29.28492411040784,10.01507576738041 M 29.61865321786339,10.450000007872145 M 27.25647999109107,166.47155569399627 M 27.799999985742293,166.39999992871662 M 28.343519980521663,166.47155569302285 M 28.849999985994224,166.68134657982907 M 29.284924226784824,167.01507568689516 M 29.618653334629848,167.44999992708807 M 29.828444222343105,167.9564799321849 M 29.899999987622763,168.49999992683615 M 29.828444223316502,169.04351992161548 M 29.618653336510317,169.5499999270881 M 29.284924229444204,169.98492416787863 M 28.84999998925129,170.31865327572368 M 28.343519984154447,170.52844416343694 M 27.799999989503224,170.5999999287166 M 27.256479994723854,170.52844416441033 M 26.74999998925129,170.31865327760417 M 26.3150757484607,169.98492417053802 M 25.981346640615673,169.5499999303451 M 25.77155575290242,169.0435199252483 M 25.69999998762276,168.49999993059708 M 25.771555751929018,167.9564799358177 M 25.981346638735207,167.44999993034514 M 26.31507574580132,167.01507568955455 M 26.749999985994233,166.6813465817095 "
  />
</svg>
